<?xml version="1.0" encoding="utf-8" standalone="no"?>
<!DOCTYPE svg PUBLIC "-//W3C//DTD SVG 1.1//EN"
  "http://www.w3.org/Graphics/SVG/1.1/DTD/svg11.dtd">
<svg xmlns:xlink="http://www.w3.org/1999/xlink" width="572.4pt" height="347.04pt" viewBox="0 0 572.4 347.04" xmlns="http://www.w3.org/2000/svg" version="1.1">
 <metadata>
  <rdf:RDF xmlns:dc="http://purl.org/dc/elements/1.1/" xmlns:cc="http://creativecommons.org/ns#" xmlns:rdf="http://www.w3.org/1999/02/22-rdf-syntax-ns#">
   <cc:Work>
    <dc:type rdf:resource="http://purl.org/dc/dcmitype/StillImage"/>
    <dc:date>2026-07-11T14:05:10.855720</dc:date>
    <dc:format>image/svg+xml</dc:format>
    <dc:creator>
     <cc:Agent>
      <dc:title>Matplotlib v3.10.9, https://matplotlib.org/</dc:title>
     </cc:Agent>
    </dc:creator>
   </cc:Work>
  </rdf:RDF>
 </metadata>
 <defs>
  <style type="text/css">*{stroke-linejoin: round; stroke-linecap: butt}</style>
 </defs>
 <g id="figure_1">
  <g id="patch_1">
   <path d="M 0 347.04 
L 572.4 347.04 
L 572.4 -0 
L 0 -0 
z
" style="fill: #ffffff"/>
  </g>
  <g id="axes_1">
   <g id="patch_2">
    <path d="M 30.45 77.27616 
L 216.45 77.27616 
Q 220.17 77.27616 220.17 73.728 
L 220.17 42.6816 
Q 220.17 39.13344 216.45 39.13344 
L 30.45 39.13344 
Q 26.73 39.13344 26.73 42.6816 
L 26.73 73.728 
Q 26.73 77.27616 30.45 77.27616 
z
" clip-path="url(#pc96a3ae82c)" style="fill: #4caf50; opacity: 0.1; stroke: #4caf50; stroke-width: 2; stroke-linejoin: miter"/>
   </g>
   <g id="patch_3">
    <path d="M 30.45 121.62816 
L 216.45 121.62816 
Q 220.17 121.62816 220.17 118.08 
L 220.17 87.0336 
Q 220.17 83.48544 216.45 83.48544 
L 30.45 83.48544 
Q 26.73 83.48544 26.73 87.0336 
L 26.73 118.08 
Q 26.73 121.62816 30.45 121.62816 
z
" clip-path="url(#pc96a3ae82c)" style="fill: #4caf50; opacity: 0.1; stroke: #4caf50; stroke-width: 2; stroke-linejoin: miter"/>
   </g>
   <g id="patch_4">
    <path d="M 30.45 290.16576 
L 216.45 290.16576 
Q 220.17 290.16576 220.17 286.6176 
L 220.17 175.7376 
Q 220.17 172.18944 216.45 172.18944 
L 30.45 172.18944 
Q 26.73 172.18944 26.73 175.7376 
L 26.73 286.6176 
Q 26.73 290.16576 30.45 290.16576 
z
" clip-path="url(#pc96a3ae82c)" style="fill: #4caf50; opacity: 0.1; stroke: #4caf50; stroke-width: 2; stroke-linejoin: miter"/>
   </g>
   <g id="patch_5">
    <path d="M 355.95 77.27616 
L 541.95 77.27616 
Q 545.67 77.27616 545.67 73.728 
L 545.67 42.6816 
Q 545.67 39.13344 541.95 39.13344 
L 355.95 39.13344 
Q 352.23 39.13344 352.23 42.6816 
L 352.23 73.728 
Q 352.23 77.27616 355.95 77.27616 
z
" clip-path="url(#pc96a3ae82c)" style="fill: #9c27b0; opacity: 0.1; stroke: #9c27b0; stroke-width: 2; stroke-linejoin: miter"/>
   </g>
   <g id="patch_6">
    <path d="M 355.95 152.67456 
L 541.95 152.67456 
Q 545.67 152.67456 545.67 149.1264 
L 545.67 118.08 
Q 545.67 114.53184 541.95 114.53184 
L 355.95 114.53184 
Q 352.23 114.53184 352.23 118.08 
L 352.23 149.1264 
Q 352.23 152.67456 355.95 152.67456 
z
" clip-path="url(#pc96a3ae82c)" style="fill: #9c27b0; opacity: 0.1; stroke: #9c27b0; stroke-width: 2; stroke-linejoin: miter"/>
   </g>
   <g id="patch_7">
    <path d="M 342 277.7472 
L 555.9 277.7472 
Q 560.55 277.7472 560.55 273.312 
L 560.55 171.3024 
Q 560.55 166.8672 555.9 166.8672 
L 342 166.8672 
Q 337.35 166.8672 337.35 171.3024 
L 337.35 273.312 
Q 337.35 277.7472 342 277.7472 
z
" clip-path="url(#pc96a3ae82c)" style="fill: #2c5f8a; opacity: 0.06; stroke-dasharray: 5.55,2.4; stroke-dashoffset: 0; stroke: #2c5f8a; stroke-width: 1.5; stroke-linejoin: miter"/>
   </g>
   <g id="patch_8">
    <path d="M 355.95 219.20256 
L 541.95 219.20256 
Q 545.67 219.20256 545.67 215.6544 
L 545.67 193.4784 
Q 545.67 189.93024 541.95 189.93024 
L 355.95 189.93024 
Q 352.23 189.93024 352.23 193.4784 
L 352.23 215.6544 
Q 352.23 219.20256 355.95 219.20256 
z
" clip-path="url(#pc96a3ae82c)" style="fill: #9c27b0; opacity: 0.1; stroke: #9c27b0; stroke-width: 2; stroke-linejoin: miter"/>
   </g>
   <g id="patch_9">
    <path d="M 355.95 254.68416 
L 541.95 254.68416 
Q 545.67 254.68416 545.67 251.136 
L 545.67 228.96 
Q 545.67 225.41184 541.95 225.41184 
L 355.95 225.41184 
Q 352.23 225.41184 352.23 228.96 
L 352.23 251.136 
Q 352.23 254.68416 355.95 254.68416 
z
" clip-path="url(#pc96a3ae82c)" style="fill: #9c27b0; opacity: 0.1; stroke: #9c27b0; stroke-width: 2; stroke-linejoin: miter"/>
   </g>
   <g id="patch_10">
    <path d="M 216.45 134.93376 
L 355.95 134.93376 
Q 359.67 134.93376 359.67 131.3856 
L 359.67 109.2096 
Q 359.67 105.66144 355.95 105.66144 
L 216.45 105.66144 
Q 212.73 105.66144 212.73 109.2096 
L 212.73 131.3856 
Q 212.73 134.93376 216.45 134.93376 
z
" clip-path="url(#pc96a3ae82c)" style="fill: #9c27b0; opacity: 0.06; stroke: #9c27b0; stroke-width: 2; stroke-linejoin: miter"/>
   </g>
   <g id="text_1">
    <!-- 异步 Autotune 过程 -->
    <g style="fill: #9c27b0" transform="translate(222.78875 24.586381) scale(0.14 -0.14)">
     <defs>
      <path id="NotoSansCJKjp-Bold-5f02" d="M 3923 2099 
L 3923 1542 
L 2445 1542 
L 2445 2099 
L 1683 2099 
L 1683 1542 
L 282 1542 
L 282 845 
L 1574 845 
C 1421 512 1056 192 224 -32 
C 384 -173 614 -467 710 -640 
C 1869 -301 2266 269 2394 845 
L 3923 845 
L 3923 -576 
L 4685 -576 
L 4685 845 
L 6131 845 
L 6131 1542 
L 4685 1542 
L 4685 2099 
L 3923 2099 
z
M 768 4045 
L 768 3136 
C 768 2413 1126 2221 2387 2221 
C 2669 2221 4314 2221 4602 2221 
C 5581 2221 5843 2406 5965 3219 
C 5760 3251 5446 3341 5261 3450 
L 5261 5146 
L 595 5146 
L 595 4506 
L 4506 4506 
L 4506 4045 
L 768 4045 
z
M 5242 3405 
C 5184 2950 5082 2886 4570 2886 
C 4128 2886 2707 2886 2374 2886 
C 1658 2886 1523 2925 1523 3155 
L 1523 3405 
L 5242 3405 
z
" transform="scale(0.015625)"/>
      <path id="NotoSansCJKjp-Bold-6b65" d="M 1517 2803 
C 1229 2342 723 1869 224 1587 
C 416 1466 742 1210 890 1062 
C 1382 1414 1952 1984 2310 2547 
L 1517 2803 
z
M 4730 2618 
C 4160 998 2918 384 774 147 
C 928 -45 1088 -352 1165 -582 
C 3488 -224 4826 493 5517 2368 
L 4730 2618 
z
M 1184 5018 
L 1184 3622 
L 307 3622 
L 307 2899 
L 2835 2899 
L 2835 1690 
C 2835 1619 2803 1606 2714 1606 
C 2624 1600 2285 1600 2010 1606 
C 2099 1414 2208 1126 2240 922 
C 2688 922 3027 922 3277 1030 
C 3533 1139 3603 1318 3603 1670 
L 3603 2899 
L 6093 2899 
L 6093 3622 
L 3616 3622 
L 3616 4109 
L 5421 4109 
L 5421 4826 
L 3616 4826 
L 3616 5440 
L 2829 5440 
L 2829 3622 
L 1965 3622 
L 1965 5018 
L 1184 5018 
z
" transform="scale(0.015625)"/>
      <path id="NotoSansCJKjp-Bold-20" transform="scale(0.015625)"/>
      <path id="NotoSansCJKjp-Bold-41" d="M -26 0 
L 934 0 
L 1267 1216 
L 2797 1216 
L 3130 0 
L 4128 0 
L 2611 4742 
L 1491 4742 
L -26 0 
z
M 1472 1952 
L 1613 2470 
C 1754 2963 1888 3501 2016 4019 
L 2042 4019 
C 2182 3514 2310 2963 2458 2470 
L 2598 1952 
L 1472 1952 
z
" transform="scale(0.015625)"/>
      <path id="NotoSansCJKjp-Bold-75" d="M 1574 -90 
C 2067 -90 2406 154 2714 518 
L 2739 518 
L 2810 0 
L 3578 0 
L 3578 3584 
L 2637 3584 
L 2637 1165 
C 2394 845 2202 717 1914 717 
C 1562 717 1402 909 1402 1466 
L 1402 3584 
L 467 3584 
L 467 1350 
C 467 448 800 -90 1574 -90 
z
" transform="scale(0.015625)"/>
      <path id="NotoSansCJKjp-Bold-74" d="M 1818 -90 
C 2131 -90 2381 -13 2579 45 
L 2419 730 
C 2323 691 2182 653 2067 653 
C 1747 653 1574 845 1574 1254 
L 1574 2842 
L 2464 2842 
L 2464 3584 
L 1574 3584 
L 1574 4550 
L 800 4550 
L 691 3584 
L 134 3539 
L 134 2842 
L 640 2842 
L 640 1248 
C 640 454 966 -90 1818 -90 
z
" transform="scale(0.015625)"/>
      <path id="NotoSansCJKjp-Bold-6f" d="M 2003 -90 
C 2899 -90 3725 602 3725 1792 
C 3725 2982 2899 3674 2003 3674 
C 1101 3674 282 2982 282 1792 
C 282 602 1101 -90 2003 -90 
z
M 2003 678 
C 1510 678 1242 1114 1242 1792 
C 1242 2464 1510 2906 2003 2906 
C 2490 2906 2765 2464 2765 1792 
C 2765 1114 2490 678 2003 678 
z
" transform="scale(0.015625)"/>
      <path id="NotoSansCJKjp-Bold-6e" d="M 506 0 
L 1446 0 
L 1446 2464 
C 1709 2726 1901 2867 2189 2867 
C 2541 2867 2694 2675 2694 2118 
L 2694 0 
L 3635 0 
L 3635 2234 
C 3635 3136 3302 3674 2528 3674 
C 2042 3674 1677 3418 1363 3110 
L 1344 3110 
L 1274 3584 
L 506 3584 
L 506 0 
z
" transform="scale(0.015625)"/>
      <path id="NotoSansCJKjp-Bold-65" d="M 2067 -90 
C 2509 -90 2963 64 3315 307 
L 2995 883 
C 2733 723 2483 640 2195 640 
C 1658 640 1274 941 1197 1523 
L 3405 1523 
C 3430 1613 3450 1786 3450 1958 
C 3450 2957 2938 3674 1952 3674 
C 1101 3674 282 2950 282 1792 
C 282 608 1062 -90 2067 -90 
z
M 1178 2157 
C 1254 2675 1587 2944 1965 2944 
C 2432 2944 2643 2637 2643 2157 
L 1178 2157 
z
" transform="scale(0.015625)"/>
      <path id="NotoSansCJKjp-Bold-8fc7" d="M 365 4838 
C 710 4499 1120 4026 1286 3706 
L 1926 4154 
C 1741 4474 1306 4922 960 5242 
L 365 4838 
z
M 2317 2995 
C 2630 2592 3027 2042 3194 1696 
L 3853 2099 
C 3667 2445 3251 2970 2938 3347 
L 2317 2995 
z
M 1773 3066 
L 275 3066 
L 275 2349 
L 1018 2349 
L 1018 922 
C 742 800 429 563 128 250 
L 666 -531 
C 896 -154 1171 275 1357 275 
C 1504 275 1728 77 2029 -83 
C 2502 -346 3046 -416 3859 -416 
C 4518 -416 5562 -378 6010 -352 
C 6022 -122 6150 282 6246 499 
C 5600 403 4557 346 3891 346 
C 3181 346 2579 384 2144 627 
C 1990 710 1875 787 1773 851 
L 1773 3066 
z
M 4525 5395 
L 4525 4339 
L 2144 4339 
L 2144 3616 
L 4525 3616 
L 4525 1510 
C 4525 1402 4480 1363 4346 1363 
C 4218 1357 3750 1357 3341 1376 
C 3443 1165 3571 819 3603 602 
C 4198 602 4640 621 4922 736 
C 5210 858 5306 1062 5306 1504 
L 5306 3616 
L 6093 3616 
L 6093 4339 
L 5306 4339 
L 5306 5395 
L 4525 5395 
z
" transform="scale(0.015625)"/>
      <path id="NotoSansCJKjp-Bold-7a0b" d="M 3648 4550 
L 5146 4550 
L 5146 3667 
L 3648 3667 
L 3648 4550 
z
M 2938 5197 
L 2938 3021 
L 5888 3021 
L 5888 5197 
L 2938 5197 
z
M 2886 1446 
L 2886 800 
L 4006 800 
L 4006 237 
L 2483 237 
L 2483 -435 
L 6202 -435 
L 6202 237 
L 4774 237 
L 4774 800 
L 5907 800 
L 5907 1446 
L 4774 1446 
L 4774 1978 
L 6061 1978 
L 6061 2637 
L 2733 2637 
L 2733 1978 
L 4006 1978 
L 4006 1446 
L 2886 1446 
z
M 2176 5370 
C 1683 5152 896 4960 186 4845 
C 269 4685 365 4429 403 4256 
C 653 4288 915 4333 1184 4378 
L 1184 3635 
L 262 3635 
L 262 2925 
L 1082 2925 
C 851 2304 486 1613 128 1197 
C 250 1005 416 685 486 467 
C 736 787 979 1242 1184 1734 
L 1184 -570 
L 1926 -570 
L 1926 1939 
C 2080 1702 2234 1453 2310 1286 
L 2752 1894 
C 2630 2035 2099 2592 1926 2733 
L 1926 2925 
L 2611 2925 
L 2611 3635 
L 1926 3635 
L 1926 4544 
C 2202 4608 2464 4691 2694 4781 
L 2176 5370 
z
" transform="scale(0.015625)"/>
     </defs>
     <use xlink:href="#NotoSansCJKjp-Bold-5f02"/>
     <use xlink:href="#NotoSansCJKjp-Bold-6b65" transform="translate(99.999985 0)"/>
     <use xlink:href="#NotoSansCJKjp-Bold-20" transform="translate(199.999969 0)"/>
     <use xlink:href="#NotoSansCJKjp-Bold-41" transform="translate(222.699966 0)"/>
     <use xlink:href="#NotoSansCJKjp-Bold-75" transform="translate(286.799957 0)"/>
     <use xlink:href="#NotoSansCJKjp-Bold-74" transform="translate(350.499954 0)"/>
     <use xlink:href="#NotoSansCJKjp-Bold-6f" transform="translate(392.599945 0)"/>
     <use xlink:href="#NotoSansCJKjp-Bold-74" transform="translate(455.199936 0)"/>
     <use xlink:href="#NotoSansCJKjp-Bold-75" transform="translate(497.299927 0)"/>
     <use xlink:href="#NotoSansCJKjp-Bold-6e" transform="translate(560.999924 0)"/>
     <use xlink:href="#NotoSansCJKjp-Bold-65" transform="translate(625.099915 0)"/>
     <use xlink:href="#NotoSansCJKjp-Bold-20" transform="translate(683.199905 0)"/>
     <use xlink:href="#NotoSansCJKjp-Bold-8fc7" transform="translate(705.899902 0)"/>
     <use xlink:href="#NotoSansCJKjp-Bold-7a0b" transform="translate(805.899887 0)"/>
    </g>
   </g>
   <g id="text_2">
    <!-- 主进程 -->
    <g style="fill: #4caf50" transform="translate(108.45 61.119644) scale(0.1 -0.1)">
     <defs>
      <path id="NotoSansCJKjp-Bold-4e3b" d="M 2208 5005 
C 2522 4787 2893 4486 3162 4230 
L 608 4230 
L 608 3475 
L 2778 3475 
L 2778 2362 
L 947 2362 
L 947 1619 
L 2778 1619 
L 2778 384 
L 333 384 
L 333 -371 
L 6093 -371 
L 6093 384 
L 3622 384 
L 3622 1619 
L 5472 1619 
L 5472 2362 
L 3622 2362 
L 3622 3475 
L 5773 3475 
L 5773 4230 
L 3744 4230 
L 4083 4474 
C 3808 4774 3258 5184 2842 5446 
L 2208 5005 
z
" transform="scale(0.015625)"/>
      <path id="NotoSansCJKjp-Bold-8fdb" d="M 384 4890 
C 730 4563 1171 4096 1363 3802 
L 1952 4288 
C 1741 4576 1280 5018 934 5318 
L 384 4890 
z
M 4467 5261 
L 4467 4339 
L 3738 4339 
L 3738 5267 
L 2982 5267 
L 2982 4339 
L 2176 4339 
L 2176 3597 
L 2982 3597 
L 2982 3187 
C 2982 3034 2982 2874 2970 2707 
L 2125 2707 
L 2125 1971 
L 2848 1971 
C 2739 1606 2547 1254 2208 973 
C 2368 870 2675 582 2784 435 
C 3258 832 3507 1395 3629 1971 
L 4467 1971 
L 4467 531 
L 5229 531 
L 5229 1971 
L 6093 1971 
L 6093 2707 
L 5229 2707 
L 5229 3597 
L 5965 3597 
L 5965 4339 
L 5229 4339 
L 5229 5261 
L 4467 5261 
z
M 3738 3597 
L 4467 3597 
L 4467 2707 
L 3725 2707 
C 3731 2874 3738 3027 3738 3181 
L 3738 3597 
z
M 1773 3110 
L 275 3110 
L 275 2400 
L 1018 2400 
L 1018 832 
C 749 710 442 474 147 166 
L 659 -563 
C 890 -186 1171 237 1363 237 
C 1510 237 1728 38 2022 -122 
C 2490 -378 3040 -448 3846 -448 
C 4506 -448 5568 -410 6022 -384 
C 6029 -166 6157 211 6240 416 
C 5600 320 4557 269 3878 269 
C 3162 269 2573 301 2138 550 
C 1990 627 1869 704 1773 768 
L 1773 3110 
z
" transform="scale(0.015625)"/>
     </defs>
     <use xlink:href="#NotoSansCJKjp-Bold-4e3b"/>
     <use xlink:href="#NotoSansCJKjp-Bold-8fdb" transform="translate(99.999985 0)"/>
     <use xlink:href="#NotoSansCJKjp-Bold-7a0b" transform="translate(199.999969 0)"/>
    </g>
   </g>
   <g id="text_3">
    <!-- 提交 autotune 请求 -->
    <g style="fill: #4caf50" transform="translate(91.919375 100.287159) scale(0.07 -0.07)">
     <defs>
      <path id="NotoSansCJKjp-Bold-63d0" d="M 3309 3885 
L 5043 3885 
L 5043 3565 
L 3309 3565 
L 3309 3885 
z
M 3309 4691 
L 5043 4691 
L 5043 4378 
L 3309 4378 
L 3309 4691 
z
M 2611 5242 
L 2611 3021 
L 5779 3021 
L 5779 5242 
L 2611 5242 
z
M 2675 1907 
C 2586 1037 2317 320 1779 -102 
C 1939 -205 2227 -442 2342 -563 
C 2630 -301 2854 45 3027 454 
C 3456 -333 4102 -486 4954 -486 
L 6067 -486 
C 6093 -294 6189 32 6278 186 
C 5997 173 5197 173 4979 173 
C 4826 173 4678 179 4538 192 
L 4538 941 
L 5760 941 
L 5760 1542 
L 4538 1542 
L 4538 2099 
L 6106 2099 
L 6106 2720 
L 2298 2720 
L 2298 2099 
L 3814 2099 
L 3814 422 
C 3584 570 3392 800 3251 1171 
C 3302 1376 3341 1594 3373 1824 
L 2675 1907 
z
M 902 5434 
L 902 4224 
L 211 4224 
L 211 3520 
L 902 3520 
L 902 2374 
L 147 2189 
L 314 1453 
L 902 1619 
L 902 326 
C 902 243 877 218 800 218 
C 723 211 499 211 262 218 
C 358 19 442 -301 461 -486 
C 870 -486 1158 -461 1350 -339 
C 1549 -224 1606 -32 1606 320 
L 1606 1824 
L 2285 2022 
L 2182 2714 
L 1606 2560 
L 1606 3520 
L 2246 3520 
L 2246 4224 
L 1606 4224 
L 1606 5434 
L 902 5434 
z
" transform="scale(0.015625)"/>
      <path id="NotoSansCJKjp-Bold-4ea4" d="M 1894 3898 
C 1530 3405 877 2912 269 2611 
C 454 2470 768 2170 909 2010 
C 1510 2387 2234 2995 2688 3597 
L 1894 3898 
z
M 2470 2758 
L 1734 2541 
C 1971 1971 2259 1478 2618 1062 
C 1978 614 1158 320 192 134 
C 346 -38 595 -397 678 -589 
C 1651 -346 2496 0 3187 512 
C 3834 -19 4666 -378 5722 -576 
C 5824 -365 6048 -19 6221 154 
C 5229 307 4429 608 3802 1050 
C 4205 1472 4531 1965 4781 2560 
L 3962 2790 
C 3782 2317 3533 1914 3206 1574 
C 2893 1914 2650 2310 2470 2758 
z
M 3814 3501 
C 4390 3085 5120 2483 5446 2074 
L 6131 2598 
C 5773 3008 5024 3571 4461 3949 
L 6042 3949 
L 6042 4698 
L 3584 4698 
L 3584 5446 
L 2790 5446 
L 2790 4698 
L 365 4698 
L 365 3949 
L 4422 3949 
L 3814 3501 
z
" transform="scale(0.015625)"/>
      <path id="NotoSansCJKjp-Bold-61" d="M 1382 -90 
C 1798 -90 2157 109 2464 384 
L 2496 384 
L 2560 0 
L 3328 0 
L 3328 2093 
C 3328 3130 2861 3674 1952 3674 
C 1389 3674 877 3456 461 3200 
L 794 2573 
C 1126 2771 1446 2918 1779 2918 
C 2221 2918 2374 2650 2387 2298 
C 947 2144 326 1741 326 979 
C 326 365 742 -90 1382 -90 
z
M 1696 646 
C 1421 646 1222 768 1222 1050 
C 1222 1376 1510 1613 2387 1715 
L 2387 998 
C 2163 774 1965 646 1696 646 
z
" transform="scale(0.015625)"/>
      <path id="NotoSansCJKjp-Bold-8bf7" d="M 518 4877 
C 858 4563 1312 4128 1517 3840 
L 2042 4378 
C 1818 4646 1350 5056 1011 5344 
L 518 4877 
z
M 218 3462 
L 218 2726 
L 998 2726 
L 998 749 
C 998 448 819 230 678 134 
C 800 -6 992 -333 1050 -512 
C 1158 -358 1370 -179 2534 736 
C 2458 883 2336 1184 2291 1389 
L 1734 966 
L 1734 3462 
L 218 3462 
z
M 3360 1235 
L 5030 1235 
L 5030 870 
L 3360 870 
L 3360 1235 
z
M 3360 1728 
L 3360 2048 
L 5030 2048 
L 5030 1728 
L 3360 1728 
z
M 3808 5440 
L 3808 4998 
L 2406 4998 
L 2406 4454 
L 3808 4454 
L 3808 4192 
L 2586 4192 
L 2586 3680 
L 3808 3680 
L 3808 3411 
L 2214 3411 
L 2214 2861 
L 6195 2861 
L 6195 3411 
L 4570 3411 
L 4570 3680 
L 5805 3680 
L 5805 4192 
L 4570 4192 
L 4570 4454 
L 5997 4454 
L 5997 4998 
L 4570 4998 
L 4570 5440 
L 3808 5440 
z
M 2650 2611 
L 2650 -576 
L 3360 -576 
L 3360 365 
L 5030 365 
L 5030 173 
C 5030 96 4998 70 4915 70 
C 4826 70 4518 64 4262 83 
C 4346 -102 4442 -384 4467 -570 
C 4915 -576 5229 -570 5459 -461 
C 5690 -358 5754 -173 5754 160 
L 5754 2611 
L 2650 2611 
z
" transform="scale(0.015625)"/>
      <path id="NotoSansCJKjp-Bold-6c42" d="M 621 3104 
C 979 2758 1402 2266 1581 1939 
L 2208 2400 
C 2010 2726 1562 3187 1203 3514 
L 621 3104 
z
M 166 730 
L 646 26 
C 1203 352 1920 787 2560 1203 
L 2304 1901 
C 1530 1459 704 998 166 730 
z
M 2790 5427 
L 2790 4467 
L 371 4467 
L 371 3725 
L 2790 3725 
L 2790 371 
C 2790 256 2746 218 2624 218 
C 2496 218 2093 211 1702 230 
C 1818 0 1933 -358 1965 -576 
C 2541 -582 2957 -557 3219 -422 
C 3488 -294 3578 -83 3578 371 
L 3578 2080 
C 4096 1126 4787 346 5690 -134 
C 5818 83 6074 390 6259 550 
C 5613 845 5050 1299 4589 1856 
C 4986 2208 5472 2688 5862 3130 
L 5184 3603 
C 4934 3232 4538 2784 4179 2432 
C 3936 2816 3731 3226 3578 3654 
L 3578 3725 
L 6054 3725 
L 6054 4467 
L 5344 4467 
L 5638 4800 
C 5363 5011 4832 5293 4448 5472 
L 3994 4986 
C 4275 4845 4621 4646 4883 4467 
L 3578 4467 
L 3578 5427 
L 2790 5427 
z
" transform="scale(0.015625)"/>
     </defs>
     <use xlink:href="#NotoSansCJKjp-Bold-63d0"/>
     <use xlink:href="#NotoSansCJKjp-Bold-4ea4" transform="translate(99.999985 0)"/>
     <use xlink:href="#NotoSansCJKjp-Bold-20" transform="translate(199.999969 0)"/>
     <use xlink:href="#NotoSansCJKjp-Bold-61" transform="translate(222.699966 0)"/>
     <use xlink:href="#NotoSansCJKjp-Bold-75" transform="translate(281.799957 0)"/>
     <use xlink:href="#NotoSansCJKjp-Bold-74" transform="translate(345.499954 0)"/>
     <use xlink:href="#NotoSansCJKjp-Bold-6f" transform="translate(387.599945 0)"/>
     <use xlink:href="#NotoSansCJKjp-Bold-74" transform="translate(450.199936 0)"/>
     <use xlink:href="#NotoSansCJKjp-Bold-75" transform="translate(492.299927 0)"/>
     <use xlink:href="#NotoSansCJKjp-Bold-6e" transform="translate(555.999924 0)"/>
     <use xlink:href="#NotoSansCJKjp-Bold-65" transform="translate(620.099915 0)"/>
     <use xlink:href="#NotoSansCJKjp-Bold-20" transform="translate(678.199905 0)"/>
     <use xlink:href="#NotoSansCJKjp-Bold-8bf7" transform="translate(700.899902 0)"/>
     <use xlink:href="#NotoSansCJKjp-Bold-6c42" transform="translate(800.899887 0)"/>
    </g>
    <!-- (kernel 模板 + 输入信息) -->
    <g style="fill: #4caf50" transform="translate(84.303047 108.907222) scale(0.07 -0.07)">
     <defs>
      <path id="NotoSansCJKjp-Bold-28" d="M 1504 -1293 
L 2086 -1043 
C 1549 -109 1306 966 1306 2016 
C 1306 3066 1549 4147 2086 5082 
L 1504 5331 
C 896 4339 544 3296 544 2016 
C 544 736 896 -307 1504 -1293 
z
" transform="scale(0.015625)"/>
      <path id="NotoSansCJKjp-Bold-6b" d="M 506 0 
L 1434 0 
L 1434 909 
L 1933 1491 
L 2803 0 
L 3827 0 
L 2483 2106 
L 3712 3584 
L 2682 3584 
L 1459 2048 
L 1434 2048 
L 1434 5107 
L 506 5107 
L 506 0 
z
" transform="scale(0.015625)"/>
      <path id="NotoSansCJKjp-Bold-72" d="M 506 0 
L 1446 0 
L 1446 2138 
C 1651 2656 1984 2842 2259 2842 
C 2413 2842 2515 2822 2643 2784 
L 2797 3597 
C 2694 3642 2579 3674 2381 3674 
C 2010 3674 1626 3418 1363 2950 
L 1344 2950 
L 1274 3584 
L 506 3584 
L 506 0 
z
" transform="scale(0.015625)"/>
      <path id="NotoSansCJKjp-Bold-6c" d="M 1395 -90 
C 1613 -90 1766 -51 1875 -6 
L 1760 691 
C 1696 678 1670 678 1632 678 
C 1542 678 1446 749 1446 966 
L 1446 5107 
L 506 5107 
L 506 1005 
C 506 339 736 -90 1395 -90 
z
" transform="scale(0.015625)"/>
      <path id="NotoSansCJKjp-Bold-6a21" d="M 3277 2586 
L 5037 2586 
L 5037 2304 
L 3277 2304 
L 3277 2586 
z
M 3277 3360 
L 5037 3360 
L 5037 3085 
L 3277 3085 
L 3277 3360 
z
M 4608 5440 
L 4608 4998 
L 3866 4998 
L 3866 5440 
L 3136 5440 
L 3136 4998 
L 2387 4998 
L 2387 4371 
L 3136 4371 
L 3136 4006 
L 3866 4006 
L 3866 4371 
L 4608 4371 
L 4608 4006 
L 5350 4006 
L 5350 4371 
L 6074 4371 
L 6074 4998 
L 5350 4998 
L 5350 5440 
L 4608 5440 
z
M 2566 3891 
L 2566 1773 
L 3795 1773 
C 3782 1645 3763 1517 3744 1402 
L 2272 1402 
L 2272 768 
L 3494 768 
C 3258 435 2829 198 2029 38 
C 2176 -109 2355 -390 2419 -576 
C 3475 -320 4000 77 4269 634 
C 4589 45 5075 -365 5798 -563 
C 5901 -371 6112 -77 6272 70 
C 5696 186 5267 422 4979 768 
L 6099 768 
L 6099 1402 
L 4499 1402 
L 4544 1773 
L 5779 1773 
L 5779 3891 
L 2566 3891 
z
M 966 5440 
L 966 4243 
L 269 4243 
L 269 3533 
L 966 3533 
L 966 3373 
C 787 2643 474 1818 115 1357 
C 243 1152 410 800 486 582 
C 659 851 826 1216 966 1626 
L 966 -570 
L 1690 -570 
L 1690 2336 
C 1824 2067 1946 1792 2016 1600 
L 2470 2138 
C 2362 2323 1875 3066 1690 3309 
L 1690 3533 
L 2272 3533 
L 2272 4243 
L 1690 4243 
L 1690 5440 
L 966 5440 
z
" transform="scale(0.015625)"/>
      <path id="NotoSansCJKjp-Bold-677f" d="M 2854 5062 
L 2854 3238 
C 2854 2234 2790 845 2067 -109 
C 2240 -192 2554 -435 2682 -570 
C 3258 179 3475 1254 3558 2214 
C 3731 1696 3942 1222 4205 813 
C 3904 474 3558 205 3168 26 
C 3328 -109 3526 -397 3629 -576 
C 4013 -365 4365 -102 4666 211 
C 4973 -122 5331 -397 5754 -602 
C 5869 -403 6099 -102 6272 45 
C 5837 224 5459 486 5146 813 
C 5581 1466 5882 2291 6042 3315 
L 5568 3462 
L 5440 3437 
L 3597 3437 
L 3597 4352 
L 6086 4352 
L 6086 5062 
L 2854 5062 
z
M 4083 2739 
L 5190 2739 
C 5069 2259 4890 1824 4659 1440 
C 4416 1830 4224 2266 4083 2739 
z
M 1133 5440 
L 1133 4115 
L 288 4115 
L 288 3405 
L 1062 3405 
C 877 2637 518 1760 122 1248 
C 243 1062 416 755 486 538 
C 730 877 947 1357 1133 1888 
L 1133 -570 
L 1856 -570 
L 1856 2138 
C 2016 1843 2182 1536 2272 1325 
L 2701 1920 
C 2586 2099 2042 2848 1856 3059 
L 1856 3405 
L 2573 3405 
L 2573 4115 
L 1856 4115 
L 1856 5440 
L 1133 5440 
z
" transform="scale(0.015625)"/>
      <path id="NotoSansCJKjp-Bold-2b" d="M 1536 704 
L 2234 704 
L 2234 2061 
L 3526 2061 
L 3526 2733 
L 2234 2733 
L 2234 4096 
L 1536 4096 
L 1536 2733 
L 250 2733 
L 250 2061 
L 1536 2061 
L 1536 704 
z
" transform="scale(0.015625)"/>
      <path id="NotoSansCJKjp-Bold-8f93" d="M 4627 2842 
L 4627 493 
L 5190 493 
L 5190 2842 
L 4627 2842 
z
M 5446 3085 
L 5446 186 
C 5446 115 5421 96 5338 90 
C 5254 90 4979 90 4698 96 
C 4781 -77 4858 -333 4883 -506 
C 5286 -506 5581 -486 5779 -397 
C 5984 -301 6029 -122 6029 186 
L 6029 3085 
L 5446 3085 
z
M 4198 5485 
C 3795 4896 3072 4384 2368 4051 
L 2368 4730 
L 1510 4730 
C 1549 4934 1581 5133 1606 5331 
L 909 5427 
C 896 5197 864 4960 832 4730 
L 224 4730 
L 224 4038 
L 710 4038 
C 621 3590 525 3232 480 3091 
C 384 2803 307 2611 186 2573 
C 262 2406 371 2093 403 1965 
C 454 2022 685 2061 877 2061 
L 1293 2061 
L 1293 1376 
C 883 1299 506 1229 205 1184 
L 358 474 
L 1293 685 
L 1293 -557 
L 1939 -557 
L 1939 832 
L 2413 947 
L 2355 1581 
L 1939 1498 
L 1939 2061 
L 2342 2061 
L 2342 2752 
L 1939 2752 
L 1939 3635 
L 1293 3635 
L 1293 2752 
L 966 2752 
C 1101 3136 1242 3578 1357 4038 
L 2342 4038 
L 2150 3955 
C 2336 3795 2534 3552 2637 3373 
L 2957 3546 
L 2957 3315 
L 5530 3315 
L 5530 3584 
L 5875 3398 
C 5958 3597 6157 3827 6330 3994 
C 5715 4237 5158 4544 4685 5018 
L 4819 5203 
L 4198 5485 
z
M 3533 3917 
C 3795 4109 4051 4326 4282 4563 
C 4518 4314 4762 4102 5018 3917 
L 3533 3917 
z
M 3808 2432 
L 3808 2106 
L 3187 2106 
L 3187 2432 
L 3808 2432 
z
M 2586 3014 
L 2586 -550 
L 3187 -550 
L 3187 691 
L 3808 691 
L 3808 134 
C 3808 77 3789 58 3738 58 
C 3680 58 3514 58 3347 64 
C 3430 -102 3501 -365 3514 -538 
C 3814 -538 4032 -525 4205 -429 
C 4371 -326 4410 -147 4410 128 
L 4410 3014 
L 2586 3014 
z
M 3187 1562 
L 3808 1562 
L 3808 1235 
L 3187 1235 
L 3187 1562 
z
" transform="scale(0.015625)"/>
      <path id="NotoSansCJKjp-Bold-5165" d="M 2630 3674 
C 2278 1984 1510 736 173 64 
C 378 -83 736 -403 877 -563 
C 1997 109 2765 1184 3251 2618 
C 3603 1466 4288 250 5619 -550 
C 5754 -358 6067 -19 6240 115 
C 3872 1510 3699 3859 3699 5082 
L 1466 5082 
L 1466 4301 
L 2938 4301 
C 2957 4083 2982 3846 3027 3603 
L 2630 3674 
z
" transform="scale(0.015625)"/>
      <path id="NotoSansCJKjp-Bold-4fe1" d="M 2707 5184 
L 2707 4582 
L 5658 4582 
L 5658 5184 
L 2707 5184 
z
M 2611 3341 
L 2611 2739 
L 5773 2739 
L 5773 3341 
L 2611 3341 
z
M 2611 2426 
L 2611 1824 
L 5747 1824 
L 5747 2426 
L 2611 2426 
z
M 2099 4275 
L 2099 3654 
L 6221 3654 
L 6221 4275 
L 2099 4275 
z
M 2509 1510 
L 2509 -570 
L 3245 -570 
L 3245 -320 
L 5088 -320 
L 5088 -550 
L 5862 -550 
L 5862 1510 
L 2509 1510 
z
M 3245 288 
L 3245 915 
L 5088 915 
L 5088 288 
L 3245 288 
z
M 1632 5421 
C 1280 4506 685 3597 77 3021 
C 205 2835 410 2419 480 2234 
C 659 2413 838 2618 1011 2842 
L 1011 -557 
L 1741 -557 
L 1741 3949 
C 1971 4352 2176 4781 2342 5190 
L 1632 5421 
z
" transform="scale(0.015625)"/>
      <path id="NotoSansCJKjp-Bold-606f" d="M 1830 1248 
L 1830 320 
C 1830 -346 2022 -557 2861 -557 
C 3027 -557 3731 -557 3904 -557 
C 4531 -557 4742 -365 4832 403 
C 4627 448 4307 557 4147 672 
C 4122 192 4077 122 3834 122 
C 3661 122 3078 122 2944 122 
C 2637 122 2586 147 2586 333 
L 2586 1248 
L 1830 1248 
z
M 4531 1062 
C 4979 640 5440 45 5613 -371 
L 6272 64 
C 6080 493 5594 1056 5146 1453 
L 4531 1062 
z
M 877 1370 
C 749 890 493 403 141 90 
L 787 -358 
C 1171 19 1408 595 1562 1126 
L 877 1370 
z
M 1926 3494 
L 4518 3494 
L 4518 3174 
L 1926 3174 
L 1926 3494 
z
M 1926 2624 
L 4518 2624 
L 4518 2304 
L 1926 2304 
L 1926 2624 
z
M 1926 4365 
L 4518 4365 
L 4518 4045 
L 1926 4045 
L 1926 4365 
z
M 2803 5504 
C 2778 5344 2720 5133 2662 4947 
L 1190 4947 
L 1190 1715 
L 3014 1715 
L 2534 1402 
C 2874 1126 3251 730 3405 448 
L 4006 864 
C 3846 1133 3494 1466 3181 1715 
L 5299 1715 
L 5299 4947 
L 3507 4947 
C 3584 5082 3661 5229 3738 5389 
L 2803 5504 
z
" transform="scale(0.015625)"/>
      <path id="NotoSansCJKjp-Bold-29" d="M 915 -1293 
C 1523 -307 1875 736 1875 2016 
C 1875 3296 1523 4339 915 5331 
L 333 5082 
C 870 4147 1114 3066 1114 2016 
C 1114 966 870 -109 333 -1043 
L 915 -1293 
z
" transform="scale(0.015625)"/>
     </defs>
     <use xlink:href="#NotoSansCJKjp-Bold-28"/>
     <use xlink:href="#NotoSansCJKjp-Bold-6b" transform="translate(37.799988 0)"/>
     <use xlink:href="#NotoSansCJKjp-Bold-65" transform="translate(98.199982 0)"/>
     <use xlink:href="#NotoSansCJKjp-Bold-72" transform="translate(156.299973 0)"/>
     <use xlink:href="#NotoSansCJKjp-Bold-6e" transform="translate(199.899963 0)"/>
     <use xlink:href="#NotoSansCJKjp-Bold-65" transform="translate(263.999954 0)"/>
     <use xlink:href="#NotoSansCJKjp-Bold-6c" transform="translate(322.099945 0)"/>
     <use xlink:href="#NotoSansCJKjp-Bold-20" transform="translate(353.59993 0)"/>
     <use xlink:href="#NotoSansCJKjp-Bold-6a21" transform="translate(376.299927 0)"/>
     <use xlink:href="#NotoSansCJKjp-Bold-677f" transform="translate(476.299911 0)"/>
     <use xlink:href="#NotoSansCJKjp-Bold-20" transform="translate(576.299896 0)"/>
     <use xlink:href="#NotoSansCJKjp-Bold-2b" transform="translate(598.999893 0)"/>
     <use xlink:href="#NotoSansCJKjp-Bold-20" transform="translate(657.999878 0)"/>
     <use xlink:href="#NotoSansCJKjp-Bold-8f93" transform="translate(680.699875 0)"/>
     <use xlink:href="#NotoSansCJKjp-Bold-5165" transform="translate(780.69986 0)"/>
     <use xlink:href="#NotoSansCJKjp-Bold-4fe1" transform="translate(880.699844 0)"/>
     <use xlink:href="#NotoSansCJKjp-Bold-606f" transform="translate(980.699829 0)"/>
     <use xlink:href="#NotoSansCJKjp-Bold-29" transform="translate(1080.699814 0)"/>
    </g>
   </g>
   <g id="text_4">
    <!-- 继续执行其他 kernel -->
    <g style="fill: #4caf50" transform="translate(90.603047 229.114022) scale(0.07 -0.07)">
     <defs>
      <path id="NotoSansCJKjp-Bold-7ee7" d="M 198 480 
L 326 -224 
C 922 -70 1683 122 2406 307 
L 2330 928 
C 1549 755 736 576 198 480 
z
M 5498 4973 
C 5421 4627 5261 4128 5120 3808 
L 5555 3661 
C 5715 3962 5920 4422 6099 4832 
L 5498 4973 
z
M 3398 4838 
C 3520 4474 3661 3994 3712 3686 
L 4224 3821 
C 4160 4128 4013 4595 3885 4960 
L 3398 4838 
z
M 2534 5210 
L 2534 3757 
L 1933 4122 
C 1824 3891 1702 3661 1574 3437 
L 1037 3398 
C 1389 3917 1728 4563 1952 5158 
L 1235 5491 
C 1037 4742 627 3936 493 3731 
C 365 3520 256 3386 122 3341 
C 211 3155 333 2790 371 2643 
L 371 2650 
C 467 2694 621 2739 1171 2803 
C 960 2496 781 2253 685 2150 
C 486 1914 346 1773 186 1734 
C 262 1549 371 1222 410 1082 
C 570 1178 826 1254 2317 1542 
C 2310 1696 2317 1978 2342 2176 
L 1376 2016 
C 1798 2534 2202 3142 2534 3738 
L 2534 -326 
L 6195 -326 
L 6195 339 
L 3232 339 
L 3232 5210 
L 2534 5210 
z
M 4384 5389 
L 4384 3494 
L 3354 3494 
L 3354 2854 
L 4198 2854 
C 3981 2355 3661 1843 3334 1536 
C 3437 1363 3584 1082 3642 890 
C 3917 1171 4173 1600 4384 2067 
L 4384 493 
L 5011 493 
L 5011 2189 
C 5267 1792 5555 1325 5690 1043 
L 6157 1542 
C 6010 1754 5414 2509 5114 2854 
L 6125 2854 
L 6125 3494 
L 5011 3494 
L 5011 5389 
L 4384 5389 
z
" transform="scale(0.015625)"/>
      <path id="NotoSansCJKjp-Bold-7eed" d="M 4390 576 
C 4864 243 5434 -250 5702 -576 
L 6195 -115 
C 5914 218 5312 678 4845 986 
L 4390 576 
z
M 211 499 
L 378 -211 
C 960 19 1690 307 2368 595 
L 2240 1210 
C 1491 934 717 653 211 499 
z
M 2560 3904 
L 2560 3258 
L 5286 3258 
C 5222 3008 5152 2765 5094 2586 
L 5690 2451 
C 5830 2797 5984 3341 6106 3827 
L 5619 3923 
L 5504 3904 
L 4621 3904 
L 4621 4301 
L 5734 4301 
L 5734 4934 
L 4621 4934 
L 4621 5440 
L 3872 5440 
L 3872 4934 
L 2784 4934 
L 2784 4301 
L 3872 4301 
L 3872 3904 
L 2560 3904 
z
M 4019 3091 
L 4019 2707 
C 3846 2861 3520 3053 3264 3168 
L 2957 2810 
C 3232 2662 3558 2445 3725 2285 
L 4019 2650 
L 4019 2413 
C 4019 2208 4006 1978 3949 1734 
L 3347 1734 
L 3642 2074 
C 3462 2246 3104 2477 2816 2624 
L 2483 2259 
C 2733 2112 3034 1901 3219 1734 
L 2426 1734 
L 2426 1075 
L 3686 1075 
C 3437 672 3008 282 2272 -26 
C 2419 -160 2630 -422 2726 -589 
C 3738 -141 4250 461 4499 1075 
L 6016 1075 
L 6016 1734 
L 4678 1734 
C 4717 1965 4730 2189 4730 2394 
L 4730 3091 
L 4019 3091 
z
M 378 2643 
C 474 2694 627 2733 1184 2797 
C 973 2477 794 2227 698 2118 
C 499 1882 365 1734 211 1696 
C 288 1523 397 1216 429 1082 
C 576 1190 832 1286 2285 1690 
C 2259 1843 2246 2131 2253 2323 
L 1440 2125 
C 1818 2630 2182 3200 2477 3763 
L 1907 4115 
C 1805 3885 1683 3654 1562 3430 
L 1043 3392 
C 1402 3910 1741 4538 1978 5133 
L 1325 5440 
C 1101 4691 666 3878 525 3674 
C 390 3469 282 3328 154 3296 
C 230 3110 346 2784 378 2643 
z
" transform="scale(0.015625)"/>
      <path id="NotoSansCJKjp-Bold-6267" d="M 3206 5440 
C 3219 4992 3226 4570 3219 4166 
L 2381 4166 
L 2381 3475 
L 3200 3475 
C 3187 3181 3168 2899 3130 2630 
L 2682 2880 
L 2304 2413 
L 2240 2771 
L 1690 2598 
L 1690 3494 
L 2259 3494 
L 2259 4205 
L 1690 4205 
L 1690 5440 
L 954 5440 
L 954 4205 
L 269 4205 
L 269 3494 
L 954 3494 
L 954 2374 
C 659 2291 390 2214 173 2163 
L 346 1427 
L 954 1626 
L 954 288 
C 954 198 928 173 851 173 
C 774 173 544 173 320 186 
C 410 -32 499 -352 525 -557 
C 941 -557 1222 -525 1421 -403 
C 1626 -282 1690 -77 1690 288 
L 1690 1862 
L 2362 2086 
L 2323 2310 
L 2995 1901 
C 2797 1088 2426 461 1766 13 
C 1939 -134 2227 -467 2310 -614 
C 3002 -77 3405 614 3648 1478 
C 3885 1318 4096 1165 4250 1037 
L 4576 1472 
C 4608 179 4787 -582 5453 -582 
C 5965 -582 6182 -326 6259 608 
C 6080 666 5792 819 5645 960 
C 5626 384 5574 141 5491 141 
C 5235 141 5267 1696 5376 4166 
L 3955 4166 
C 3962 4570 3962 4998 3955 5446 
L 3206 5440 
z
M 4595 3475 
C 4582 2835 4570 2259 4570 1754 
C 4365 1901 4096 2074 3808 2240 
C 3866 2624 3904 3034 3930 3475 
L 4595 3475 
z
" transform="scale(0.015625)"/>
      <path id="NotoSansCJKjp-Bold-884c" d="M 2861 5075 
L 2861 4339 
L 5984 4339 
L 5984 5075 
L 2861 5075 
z
M 1626 5440 
C 1318 4992 698 4410 166 4070 
C 301 3917 499 3610 595 3437 
C 1210 3866 1901 4525 2368 5133 
L 1626 5440 
z
M 2586 3296 
L 2586 2566 
L 4480 2566 
L 4480 333 
C 4480 237 4442 211 4326 211 
C 4211 205 3782 205 3418 224 
C 3520 0 3622 -333 3654 -557 
C 4224 -557 4634 -544 4909 -429 
C 5190 -314 5267 -96 5267 314 
L 5267 2566 
L 6150 2566 
L 6150 3296 
L 2586 3296 
z
M 1869 4045 
C 1453 3315 749 2573 96 2118 
C 250 1958 512 1613 621 1453 
C 794 1594 966 1754 1146 1926 
L 1146 -582 
L 1914 -582 
L 1914 2784 
C 2170 3104 2406 3437 2598 3763 
L 1869 4045 
z
" transform="scale(0.015625)"/>
      <path id="NotoSansCJKjp-Bold-5176" d="M 3526 294 
C 4230 38 4960 -307 5376 -550 
L 6112 -64 
C 5626 179 4800 525 4070 768 
L 3526 294 
z
M 4198 5421 
L 4198 4800 
L 2170 4800 
L 2170 5421 
L 1408 5421 
L 1408 4800 
L 512 4800 
L 512 4096 
L 1408 4096 
L 1408 1523 
L 320 1523 
L 320 813 
L 2195 813 
C 1741 531 902 179 237 6 
C 403 -147 621 -403 736 -563 
C 1414 -358 2285 0 2867 333 
L 2253 813 
L 6080 813 
L 6080 1523 
L 4979 1523 
L 4979 4096 
L 5914 4096 
L 5914 4800 
L 4979 4800 
L 4979 5421 
L 4198 5421 
z
M 2170 1523 
L 2170 1984 
L 4198 1984 
L 4198 1523 
L 2170 1523 
z
M 2170 4096 
L 4198 4096 
L 4198 3693 
L 2170 3693 
L 2170 4096 
z
M 2170 3053 
L 4198 3053 
L 4198 2624 
L 2170 2624 
L 2170 3053 
z
" transform="scale(0.015625)"/>
      <path id="NotoSansCJKjp-Bold-4ed6" d="M 2509 4723 
L 2509 3206 
L 1722 2899 
L 2022 2221 
L 2509 2413 
L 2509 659 
C 2509 -230 2765 -480 3686 -480 
C 3891 -480 4890 -480 5107 -480 
C 5914 -480 6138 -160 6240 800 
C 6029 845 5722 973 5549 1094 
C 5491 365 5421 211 5043 211 
C 4826 211 3942 211 3750 211 
C 3328 211 3264 269 3264 659 
L 3264 2714 
L 3885 2957 
L 3885 947 
L 4608 947 
L 4608 3238 
L 5267 3501 
C 5261 2662 5248 2234 5229 2125 
C 5203 2003 5152 1978 5069 1978 
C 4992 1978 4813 1984 4672 1990 
C 4762 1824 4826 1498 4838 1286 
C 5069 1280 5376 1286 5568 1376 
C 5779 1466 5901 1638 5926 1958 
C 5965 2234 5978 3008 5984 4128 
L 6010 4250 
L 5485 4448 
L 5350 4352 
L 5242 4275 
L 4608 4026 
L 4608 5408 
L 3885 5408 
L 3885 3744 
L 3264 3501 
L 3264 4723 
L 2509 4723 
z
M 1549 5414 
C 1222 4499 666 3584 90 3008 
C 211 2822 422 2406 493 2227 
C 634 2374 768 2534 902 2714 
L 902 -563 
L 1658 -563 
L 1658 3885 
C 1888 4307 2093 4755 2259 5184 
L 1549 5414 
z
" transform="scale(0.015625)"/>
     </defs>
     <use xlink:href="#NotoSansCJKjp-Bold-7ee7"/>
     <use xlink:href="#NotoSansCJKjp-Bold-7eed" transform="translate(99.999985 0)"/>
     <use xlink:href="#NotoSansCJKjp-Bold-6267" transform="translate(199.999969 0)"/>
     <use xlink:href="#NotoSansCJKjp-Bold-884c" transform="translate(299.999954 0)"/>
     <use xlink:href="#NotoSansCJKjp-Bold-5176" transform="translate(399.999939 0)"/>
     <use xlink:href="#NotoSansCJKjp-Bold-4ed6" transform="translate(499.999924 0)"/>
     <use xlink:href="#NotoSansCJKjp-Bold-20" transform="translate(599.999908 0)"/>
     <use xlink:href="#NotoSansCJKjp-Bold-6b" transform="translate(622.699905 0)"/>
     <use xlink:href="#NotoSansCJKjp-Bold-65" transform="translate(683.099899 0)"/>
     <use xlink:href="#NotoSansCJKjp-Bold-72" transform="translate(741.19989 0)"/>
     <use xlink:href="#NotoSansCJKjp-Bold-6e" transform="translate(784.799881 0)"/>
     <use xlink:href="#NotoSansCJKjp-Bold-65" transform="translate(848.899872 0)"/>
     <use xlink:href="#NotoSansCJKjp-Bold-6c" transform="translate(906.999863 0)"/>
    </g>
    <!-- 的代码生成和编译 -->
    <g style="fill: #4caf50" transform="translate(95.45 237.321959) scale(0.07 -0.07)">
     <defs>
      <path id="NotoSansCJKjp-Bold-7684" d="M 3430 2598 
C 3744 2131 4141 1498 4320 1107 
L 4973 1504 
C 4774 1882 4346 2496 4032 2938 
L 3430 2598 
z
M 3744 5434 
C 3558 4672 3251 3898 2880 3347 
L 2880 4397 
L 1888 4397 
C 1997 4666 2112 4998 2214 5318 
L 1382 5440 
C 1357 5133 1280 4717 1197 4397 
L 467 4397 
L 467 -384 
L 1165 -384 
L 1165 90 
L 2880 90 
L 2880 3098 
C 3053 2989 3270 2829 3379 2726 
C 3578 3002 3770 3354 3942 3744 
L 5318 3744 
C 5254 1478 5171 512 4973 307 
C 4896 218 4826 198 4698 198 
C 4531 198 4147 198 3738 237 
C 3872 26 3974 -301 3987 -512 
C 4365 -525 4755 -531 4998 -499 
C 5261 -454 5440 -384 5613 -141 
C 5882 198 5952 1222 6035 4102 
C 6042 4192 6042 4448 6042 4448 
L 4230 4448 
C 4326 4717 4416 4992 4486 5261 
L 3744 5434 
z
M 1165 3731 
L 2189 3731 
L 2189 2688 
L 1165 2688 
L 1165 3731 
z
M 1165 762 
L 1165 2022 
L 2189 2022 
L 2189 762 
L 1165 762 
z
" transform="scale(0.015625)"/>
      <path id="NotoSansCJKjp-Bold-4ee3" d="M 4582 5030 
C 4915 4710 5299 4256 5459 3962 
L 6080 4352 
C 5894 4653 5491 5088 5158 5389 
L 4582 5030 
z
M 3373 5338 
C 3392 4659 3424 4032 3475 3450 
L 2176 3277 
L 2285 2541 
L 3546 2714 
C 3782 749 4282 -461 5376 -557 
C 5734 -582 6086 -288 6246 954 
C 6106 1030 5766 1229 5619 1395 
C 5568 685 5491 358 5344 371 
C 4826 442 4493 1389 4314 2816 
L 6176 3072 
L 6067 3795 
L 4237 3552 
C 4192 4102 4166 4704 4154 5338 
L 3373 5338 
z
M 1818 5382 
C 1427 4416 755 3469 58 2874 
C 192 2688 416 2278 486 2093 
C 717 2304 941 2547 1158 2816 
L 1158 -563 
L 1952 -563 
L 1952 3968 
C 2182 4352 2387 4755 2554 5146 
L 1818 5382 
z
" transform="scale(0.015625)"/>
      <path id="NotoSansCJKjp-Bold-7801" d="M 2682 1395 
L 2682 717 
L 4966 717 
L 4966 1395 
L 2682 1395 
z
M 3117 4173 
C 3072 3475 2976 2573 2886 2016 
L 3091 2016 
L 5299 2010 
C 5203 838 5082 333 4941 198 
C 4877 128 4813 115 4710 115 
C 4589 115 4339 115 4077 141 
C 4186 -45 4269 -339 4282 -544 
C 4589 -557 4870 -550 5050 -531 
C 5261 -506 5408 -442 5562 -269 
C 5786 -26 5926 666 6054 2362 
C 6067 2451 6080 2662 6080 2662 
L 5370 2662 
C 5466 3462 5562 4371 5606 5088 
L 5069 5139 
L 4947 5107 
L 2810 5107 
L 2810 4416 
L 4819 4416 
C 4774 3891 4710 3245 4640 2662 
L 3686 2662 
C 3744 3130 3795 3667 3834 4128 
L 3117 4173 
z
M 275 5152 
L 275 4461 
L 960 4461 
C 800 3610 538 2822 134 2291 
C 237 2067 378 1581 403 1382 
C 493 1491 582 1613 666 1741 
L 666 -269 
L 1312 -269 
L 1312 211 
L 2445 211 
L 2445 3162 
L 1331 3162 
C 1472 3578 1587 4019 1677 4461 
L 2586 4461 
L 2586 5152 
L 275 5152 
z
M 1312 2490 
L 1786 2490 
L 1786 877 
L 1312 877 
L 1312 2490 
z
" transform="scale(0.015625)"/>
      <path id="NotoSansCJKjp-Bold-751f" d="M 1331 5357 
C 1107 4474 691 3597 192 3053 
C 384 2950 730 2720 883 2592 
C 1094 2848 1293 3168 1478 3526 
L 2810 3526 
L 2810 2394 
L 1062 2394 
L 1062 1651 
L 2810 1651 
L 2810 358 
L 326 358 
L 326 -390 
L 6112 -390 
L 6112 358 
L 3616 358 
L 3616 1651 
L 5536 1651 
L 5536 2394 
L 3616 2394 
L 3616 3526 
L 5786 3526 
L 5786 4275 
L 3616 4275 
L 3616 5440 
L 2810 5440 
L 2810 4275 
L 1818 4275 
C 1939 4570 2042 4870 2125 5178 
L 1331 5357 
z
" transform="scale(0.015625)"/>
      <path id="NotoSansCJKjp-Bold-6210" d="M 3290 5427 
C 3290 5114 3302 4794 3315 4480 
L 691 4480 
L 691 2598 
C 691 1766 653 640 160 -128 
C 333 -218 678 -499 813 -653 
C 1344 134 1478 1389 1498 2330 
L 2336 2330 
C 2323 1523 2298 1210 2227 1120 
C 2182 1062 2118 1043 2035 1043 
C 1926 1043 1715 1050 1485 1069 
C 1594 877 1677 576 1690 352 
C 1990 346 2266 352 2438 378 
C 2624 410 2758 467 2886 627 
C 3034 819 3066 1395 3091 2746 
C 3091 2835 3091 3027 3091 3027 
L 1498 3027 
L 1498 3725 
L 3360 3725 
C 3443 2758 3584 1856 3808 1126 
C 3437 704 2995 352 2496 83 
C 2662 -64 2944 -384 3053 -550 
C 3450 -307 3808 -19 4134 320 
C 4416 -205 4781 -525 5229 -525 
C 5824 -525 6080 -243 6202 954 
C 5997 1030 5722 1210 5549 1382 
C 5517 576 5440 256 5293 256 
C 5082 256 4877 525 4698 986 
C 5165 1619 5536 2362 5805 3200 
L 5030 3386 
C 4877 2867 4672 2387 4416 1958 
C 4301 2477 4211 3078 4154 3725 
L 6144 3725 
L 6144 4480 
L 5478 4480 
L 5792 4806 
C 5555 5024 5088 5312 4736 5498 
L 4269 5037 
C 4531 4883 4858 4666 5088 4480 
L 4109 4480 
C 4096 4794 4090 5107 4096 5427 
L 3290 5427 
z
" transform="scale(0.015625)"/>
      <path id="NotoSansCJKjp-Bold-548c" d="M 3302 4838 
L 3302 -262 
L 4051 -262 
L 4051 250 
L 5082 250 
L 5082 -218 
L 5875 -218 
L 5875 4838 
L 3302 4838 
z
M 4051 986 
L 4051 4102 
L 5082 4102 
L 5082 986 
L 4051 986 
z
M 2662 5382 
C 2074 5146 1139 4947 301 4832 
C 384 4666 480 4397 512 4230 
C 806 4262 1114 4307 1427 4358 
L 1427 3533 
L 282 3533 
L 282 2822 
L 1242 2822 
C 992 2112 582 1376 141 909 
C 269 717 454 410 531 192 
C 870 563 1178 1114 1427 1715 
L 1427 -563 
L 2195 -563 
L 2195 1811 
C 2406 1510 2618 1184 2739 966 
L 3181 1606 
C 3040 1779 2445 2470 2195 2720 
L 2195 2822 
L 3136 2822 
L 3136 3533 
L 2195 3533 
L 2195 4512 
C 2541 4589 2874 4678 3162 4781 
L 2662 5382 
z
" transform="scale(0.015625)"/>
      <path id="NotoSansCJKjp-Bold-7f16" d="M 378 2643 
C 474 2694 621 2733 1114 2797 
C 928 2483 762 2246 678 2138 
C 493 1901 358 1747 205 1715 
C 282 1536 397 1216 429 1082 
C 570 1178 813 1261 2182 1594 
C 2157 1741 2138 2016 2144 2208 
L 1350 2042 
C 1741 2579 2112 3200 2406 3802 
L 1818 4154 
C 1722 3917 1606 3680 1485 3450 
L 1030 3418 
C 1363 3949 1683 4595 1907 5216 
L 1190 5466 
C 1005 4710 621 3898 499 3693 
C 371 3482 275 3341 147 3309 
C 230 3123 339 2784 378 2643 
z
M 3776 5280 
C 3840 5133 3917 4954 3974 4787 
L 2579 4787 
L 2579 3392 
C 2579 2611 2541 1530 2214 614 
L 2074 1197 
C 1376 909 653 614 173 448 
L 352 -250 
L 2208 589 
C 2125 358 2022 141 1901 -58 
C 2054 -128 2362 -358 2477 -486 
C 2816 58 3014 762 3130 1466 
L 3130 -512 
L 3712 -512 
L 3712 832 
L 4006 832 
L 4006 -384 
L 4474 -384 
L 4474 832 
L 4736 832 
L 4736 -371 
L 5197 -371 
L 5197 832 
L 5466 832 
L 5466 90 
C 5466 38 5453 26 5414 26 
C 5382 26 5299 26 5203 26 
C 5274 -115 5344 -352 5357 -518 
C 5574 -518 5734 -506 5875 -410 
C 6016 -314 6042 -160 6042 77 
L 6042 2714 
L 3258 2714 
L 3270 3091 
L 5939 3091 
L 5939 4787 
L 4819 4787 
C 4749 4998 4627 5280 4518 5491 
L 3776 5280 
z
M 4006 2099 
L 4006 1414 
L 3712 1414 
L 3712 2099 
L 4006 2099 
z
M 4474 2099 
L 4736 2099 
L 4736 1414 
L 4474 1414 
L 4474 2099 
z
M 5197 2099 
L 5466 2099 
L 5466 1414 
L 5197 1414 
L 5197 2099 
z
M 3270 4166 
L 5229 4166 
L 5229 3706 
L 3270 3706 
L 3270 4166 
z
" transform="scale(0.015625)"/>
      <path id="NotoSansCJKjp-Bold-8bd1" d="M 480 4973 
C 742 4608 1062 4102 1190 3782 
L 1818 4211 
C 1677 4518 1344 4998 1069 5350 
L 480 4973 
z
M 3718 2662 
L 3718 2157 
L 2573 2157 
L 2573 1491 
L 3718 1491 
L 3718 1011 
L 2240 1011 
C 2182 1133 2131 1267 2093 1376 
L 1722 1069 
L 1722 3482 
L 250 3482 
L 250 2746 
L 979 2746 
L 979 774 
C 979 429 787 186 653 64 
C 768 -51 973 -326 1043 -480 
C 1139 -333 1318 -160 2214 589 
L 2214 333 
L 3718 333 
L 3718 -576 
L 4474 -576 
L 4474 333 
L 6125 333 
L 6125 1011 
L 4474 1011 
L 4474 1491 
L 5696 1491 
L 5696 2157 
L 4474 2157 
L 4474 2662 
L 3718 2662 
z
M 4813 4518 
C 4627 4301 4403 4096 4147 3910 
C 3891 4090 3667 4294 3482 4518 
L 4813 4518 
z
M 2234 5178 
L 2234 4518 
L 2714 4518 
C 2944 4154 3219 3821 3546 3539 
C 3034 3264 2458 3059 1875 2925 
C 2022 2771 2195 2464 2278 2272 
C 2944 2458 3590 2726 4160 3078 
C 4646 2778 5197 2547 5811 2400 
C 5914 2592 6125 2893 6285 3046 
C 5741 3149 5235 3315 4794 3526 
C 5267 3923 5658 4390 5926 4941 
L 5434 5210 
L 5306 5178 
L 2234 5178 
z
" transform="scale(0.015625)"/>
     </defs>
     <use xlink:href="#NotoSansCJKjp-Bold-7684"/>
     <use xlink:href="#NotoSansCJKjp-Bold-4ee3" transform="translate(99.999985 0)"/>
     <use xlink:href="#NotoSansCJKjp-Bold-7801" transform="translate(199.999969 0)"/>
     <use xlink:href="#NotoSansCJKjp-Bold-751f" transform="translate(299.999954 0)"/>
     <use xlink:href="#NotoSansCJKjp-Bold-6210" transform="translate(399.999939 0)"/>
     <use xlink:href="#NotoSansCJKjp-Bold-548c" transform="translate(499.999924 0)"/>
     <use xlink:href="#NotoSansCJKjp-Bold-7f16" transform="translate(599.999908 0)"/>
     <use xlink:href="#NotoSansCJKjp-Bold-8bd1" transform="translate(699.999893 0)"/>
    </g>
   </g>
   <g id="patch_11">
    <path d="M 123.45 75.725789 
Q 123.45 80.378942 123.45 83.355044 
" style="fill: none; stroke: #616161; stroke-width: 1.5; stroke-linecap: round"/>
    <path d="M 125.65 78.955044 
L 123.45 83.355044 
L 121.25 78.955044 
" style="fill: none; stroke: #616161; stroke-width: 1.5; stroke-linecap: round"/>
   </g>
   <g id="text_5">
    <!-- AutoTuneProcess -->
    <g style="fill: #9c27b0" transform="translate(405.771875 61.119644) scale(0.1 -0.1)">
     <defs>
      <path id="NotoSansCJKjp-Bold-54" d="M 1523 0 
L 2470 0 
L 2470 3949 
L 3808 3949 
L 3808 4742 
L 192 4742 
L 192 3949 
L 1523 3949 
L 1523 0 
z
" transform="scale(0.015625)"/>
      <path id="NotoSansCJKjp-Bold-50" d="M 582 0 
L 1530 0 
L 1530 1683 
L 2163 1683 
C 3181 1683 3994 2170 3994 3251 
C 3994 4371 3187 4742 2138 4742 
L 582 4742 
L 582 0 
z
M 1530 2432 
L 1530 3987 
L 2067 3987 
C 2720 3987 3066 3802 3066 3251 
C 3066 2707 2752 2432 2099 2432 
L 1530 2432 
z
" transform="scale(0.015625)"/>
      <path id="NotoSansCJKjp-Bold-63" d="M 2029 -90 
C 2426 -90 2861 45 3200 346 
L 2829 966 
C 2630 800 2394 678 2131 678 
C 1613 678 1242 1114 1242 1792 
C 1242 2464 1613 2906 2163 2906 
C 2362 2906 2528 2822 2707 2675 
L 3155 3270 
C 2893 3507 2554 3674 2112 3674 
C 1139 3674 282 2982 282 1792 
C 282 602 1043 -90 2029 -90 
z
" transform="scale(0.015625)"/>
      <path id="NotoSansCJKjp-Bold-73" d="M 1530 -90 
C 2458 -90 2957 410 2957 1043 
C 2957 1702 2432 1946 1958 2125 
C 1574 2266 1248 2362 1248 2624 
C 1248 2829 1402 2970 1728 2970 
C 1990 2970 2240 2842 2496 2662 
L 2918 3232 
C 2624 3462 2221 3674 1702 3674 
C 883 3674 365 3219 365 2579 
C 365 1978 870 1702 1325 1530 
C 1702 1382 2074 1261 2074 992 
C 2074 768 1914 614 1555 614 
C 1216 614 915 762 595 1005 
L 166 410 
C 525 115 1050 -90 1530 -90 
z
" transform="scale(0.015625)"/>
     </defs>
     <use xlink:href="#NotoSansCJKjp-Bold-41"/>
     <use xlink:href="#NotoSansCJKjp-Bold-75" transform="translate(64.099991 0)"/>
     <use xlink:href="#NotoSansCJKjp-Bold-74" transform="translate(127.799988 0)"/>
     <use xlink:href="#NotoSansCJKjp-Bold-6f" transform="translate(169.899979 0)"/>
     <use xlink:href="#NotoSansCJKjp-Bold-54" transform="translate(232.499969 0)"/>
     <use xlink:href="#NotoSansCJKjp-Bold-75" transform="translate(294.999954 0)"/>
     <use xlink:href="#NotoSansCJKjp-Bold-6e" transform="translate(358.699951 0)"/>
     <use xlink:href="#NotoSansCJKjp-Bold-65" transform="translate(422.799942 0)"/>
     <use xlink:href="#NotoSansCJKjp-Bold-50" transform="translate(480.899933 0)"/>
     <use xlink:href="#NotoSansCJKjp-Bold-72" transform="translate(547.59993 0)"/>
     <use xlink:href="#NotoSansCJKjp-Bold-6f" transform="translate(591.199921 0)"/>
     <use xlink:href="#NotoSansCJKjp-Bold-63" transform="translate(653.799911 0)"/>
     <use xlink:href="#NotoSansCJKjp-Bold-65" transform="translate(706.499908 0)"/>
     <use xlink:href="#NotoSansCJKjp-Bold-73" transform="translate(764.599899 0)"/>
     <use xlink:href="#NotoSansCJKjp-Bold-73" transform="translate(814.099884 0)"/>
    </g>
   </g>
   <g id="text_6">
    <!-- 生成 config 组合列表 -->
    <g style="fill: #9c27b0" transform="translate(415.626172 135.759528) scale(0.07 -0.07)">
     <defs>
      <path id="NotoSansCJKjp-Bold-66" d="M 179 2842 
L 666 2842 
L 666 0 
L 1600 0 
L 1600 2842 
L 2285 2842 
L 2285 3584 
L 1600 3584 
L 1600 3891 
C 1600 4288 1760 4454 2035 4454 
C 2163 4454 2298 4429 2419 4371 
L 2592 5075 
C 2432 5139 2189 5197 1907 5197 
C 1011 5197 666 4614 666 3872 
L 666 3578 
L 179 3539 
L 179 2842 
z
" transform="scale(0.015625)"/>
      <path id="NotoSansCJKjp-Bold-69" d="M 506 0 
L 1446 0 
L 1446 3584 
L 506 3584 
L 506 0 
z
M 979 4166 
C 1299 4166 1523 4365 1523 4678 
C 1523 4986 1299 5190 979 5190 
C 646 5190 435 4986 435 4678 
C 435 4365 646 4166 979 4166 
z
" transform="scale(0.015625)"/>
      <path id="NotoSansCJKjp-Bold-67" d="M 1766 -1555 
C 2963 -1555 3718 -1005 3718 -282 
C 3718 346 3245 614 2381 614 
L 1766 614 
C 1350 614 1203 717 1203 902 
C 1203 1056 1267 1133 1357 1216 
C 1517 1158 1683 1133 1818 1133 
C 2592 1133 3206 1536 3206 2349 
C 3206 2573 3136 2771 3046 2893 
L 3654 2893 
L 3654 3584 
L 2368 3584 
C 2214 3635 2029 3674 1818 3674 
C 1062 3674 378 3219 378 2381 
C 378 1958 608 1619 858 1440 
L 858 1414 
C 640 1261 461 1011 461 749 
C 461 448 595 262 787 141 
L 787 109 
C 448 -77 275 -333 275 -634 
C 275 -1267 922 -1555 1766 -1555 
z
M 1818 1715 
C 1510 1715 1261 1952 1261 2381 
C 1261 2797 1504 3027 1818 3027 
C 2138 3027 2387 2797 2387 2381 
C 2387 1952 2138 1715 1818 1715 
z
M 1907 -954 
C 1389 -954 1056 -787 1056 -493 
C 1056 -339 1126 -198 1286 -70 
C 1421 -102 1568 -115 1779 -115 
L 2221 -115 
C 2605 -115 2816 -186 2816 -442 
C 2816 -717 2451 -954 1907 -954 
z
" transform="scale(0.015625)"/>
      <path id="NotoSansCJKjp-Bold-7ec4" d="M 288 499 
L 422 -230 
C 1043 -64 1830 141 2586 352 
L 2502 986 
C 1690 800 845 602 288 499 
z
M 3040 5120 
L 3040 237 
L 2477 237 
L 2477 -454 
L 6189 -454 
L 6189 237 
L 5677 237 
L 5677 5120 
L 3040 5120 
z
M 3770 237 
L 3770 1203 
L 4915 1203 
L 4915 237 
L 3770 237 
z
M 3770 2822 
L 4915 2822 
L 4915 1875 
L 3770 1875 
L 3770 2822 
z
M 3770 3507 
L 3770 4429 
L 4915 4429 
L 4915 3507 
L 3770 3507 
z
M 448 2643 
C 550 2694 710 2739 1331 2810 
C 1101 2483 896 2240 794 2131 
C 582 1901 435 1760 275 1722 
C 352 1542 461 1222 493 1082 
C 666 1178 934 1254 2605 1574 
C 2592 1722 2598 2003 2624 2195 
L 1485 2003 
C 1933 2522 2374 3130 2733 3731 
L 2144 4109 
C 2029 3885 1901 3661 1766 3450 
L 1133 3398 
C 1504 3917 1862 4544 2118 5139 
L 1434 5466 
C 1190 4710 742 3904 602 3706 
C 454 3494 346 3360 211 3328 
C 294 3136 410 2784 448 2643 
z
" transform="scale(0.015625)"/>
      <path id="NotoSansCJKjp-Bold-5408" d="M 1606 3142 
L 1606 2694 
L 4813 2694 
L 4813 3142 
C 5133 2906 5472 2701 5798 2528 
C 5933 2765 6112 3021 6298 3219 
C 5274 3629 4237 4448 3546 5427 
L 2746 5427 
C 2272 4640 1235 3674 128 3136 
C 294 2976 512 2694 614 2515 
C 954 2701 1293 2912 1606 3142 
z
M 3181 4678 
C 3494 4250 3968 3789 4499 3373 
L 1907 3373 
C 2432 3789 2880 4250 3181 4678 
z
M 1184 2054 
L 1184 -582 
L 1939 -582 
L 1939 -346 
L 4474 -346 
L 4474 -582 
L 5267 -582 
L 5267 2054 
L 1184 2054 
z
M 1939 333 
L 1939 1382 
L 4474 1382 
L 4474 333 
L 1939 333 
z
" transform="scale(0.015625)"/>
      <path id="NotoSansCJKjp-Bold-5217" d="M 3699 4717 
L 3699 1190 
L 4454 1190 
L 4454 4717 
L 3699 4717 
z
M 5197 5318 
L 5197 346 
C 5197 230 5152 192 5030 186 
C 4902 186 4506 186 4115 198 
C 4224 -13 4339 -358 4371 -570 
C 4954 -570 5350 -544 5613 -422 
C 5869 -301 5958 -96 5958 339 
L 5958 5318 
L 5197 5318 
z
M 2573 3027 
C 2490 2643 2381 2291 2253 1978 
C 2016 2150 1670 2368 1382 2541 
C 1472 2694 1549 2861 1626 3027 
L 2573 3027 
z
M 352 5152 
L 352 4442 
L 1331 4442 
C 1114 3571 698 2592 83 2003 
C 250 1888 499 1651 634 1510 
C 768 1645 896 1792 1018 1958 
C 1325 1760 1683 1510 1914 1312 
C 1542 717 1062 275 486 -32 
C 666 -141 947 -429 1062 -589 
C 2246 96 3104 1478 3424 3597 
L 2944 3757 
L 2810 3731 
L 1901 3731 
C 1984 3968 2061 4205 2125 4442 
L 3533 4442 
L 3533 5152 
L 352 5152 
z
" transform="scale(0.015625)"/>
      <path id="NotoSansCJKjp-Bold-8868" d="M 787 147 
L 1018 -563 
C 1818 -390 2906 -160 3904 77 
L 3834 768 
L 2438 467 
L 2438 1670 
C 2746 1869 3034 2086 3277 2317 
C 3706 890 4410 -90 5766 -557 
C 5875 -346 6099 -32 6266 128 
C 5626 307 5133 621 4749 1043 
C 5152 1261 5619 1555 6022 1843 
L 5382 2323 
C 5126 2080 4736 1786 4378 1549 
C 4224 1811 4096 2099 3994 2413 
L 6035 2413 
L 6035 3066 
L 3571 3066 
L 3571 3424 
L 5587 3424 
L 5587 4032 
L 3571 4032 
L 3571 4365 
L 5837 4365 
L 5837 5011 
L 3571 5011 
L 3571 5440 
L 2797 5440 
L 2797 5011 
L 589 5011 
L 589 4365 
L 2797 4365 
L 2797 4032 
L 890 4032 
L 890 3424 
L 2797 3424 
L 2797 3066 
L 352 3066 
L 352 2413 
L 2304 2413 
C 1709 1990 883 1632 109 1427 
C 269 1274 493 986 602 806 
C 954 915 1312 1062 1664 1235 
L 1664 314 
L 787 147 
z
" transform="scale(0.015625)"/>
     </defs>
     <use xlink:href="#NotoSansCJKjp-Bold-751f"/>
     <use xlink:href="#NotoSansCJKjp-Bold-6210" transform="translate(99.999985 0)"/>
     <use xlink:href="#NotoSansCJKjp-Bold-20" transform="translate(199.999969 0)"/>
     <use xlink:href="#NotoSansCJKjp-Bold-63" transform="translate(222.699966 0)"/>
     <use xlink:href="#NotoSansCJKjp-Bold-6f" transform="translate(275.399963 0)"/>
     <use xlink:href="#NotoSansCJKjp-Bold-6e" transform="translate(337.999954 0)"/>
     <use xlink:href="#NotoSansCJKjp-Bold-66" transform="translate(402.099945 0)"/>
     <use xlink:href="#NotoSansCJKjp-Bold-69" transform="translate(439.299942 0)"/>
     <use xlink:href="#NotoSansCJKjp-Bold-67" transform="translate(469.699936 0)"/>
     <use xlink:href="#NotoSansCJKjp-Bold-20" transform="translate(529.399933 0)"/>
     <use xlink:href="#NotoSansCJKjp-Bold-7ec4" transform="translate(552.09993 0)"/>
     <use xlink:href="#NotoSansCJKjp-Bold-5408" transform="translate(652.099915 0)"/>
     <use xlink:href="#NotoSansCJKjp-Bold-5217" transform="translate(752.099899 0)"/>
     <use xlink:href="#NotoSansCJKjp-Bold-8868" transform="translate(852.099884 0)"/>
    </g>
   </g>
   <g id="patch_12">
    <path d="M 448.95 75.728496 
Q 448.95 95.905172 448.95 114.404798 
" style="fill: none; stroke: #616161; stroke-width: 1.5; stroke-linecap: round"/>
    <path d="M 451.15 110.004798 
L 448.95 114.404798 
L 446.75 110.004798 
" style="fill: none; stroke: #616161; stroke-width: 1.5; stroke-linecap: round"/>
   </g>
   <g id="text_7">
    <!-- 每个 config -->
    <g style="fill: #2c5f8a" transform="translate(427.77375 182.624675) scale(0.08 -0.08)">
     <defs>
      <path id="NotoSansCJKjp-Bold-6bcf" d="M 4531 3008 
L 4512 2304 
L 3744 2304 
L 3962 2522 
C 3795 2675 3514 2861 3232 3008 
L 4531 3008 
z
M 224 2330 
L 224 1645 
L 1120 1645 
C 1030 1062 941 512 851 83 
L 1632 26 
L 1677 282 
L 4346 282 
C 4320 192 4294 134 4269 96 
C 4205 6 4147 -6 4038 -6 
C 3904 -13 3654 -6 3366 19 
C 3462 -147 3539 -403 3546 -570 
C 3878 -589 4198 -589 4410 -557 
C 4627 -525 4800 -461 4941 -250 
C 5011 -154 5069 6 5114 282 
L 5907 282 
L 5907 947 
L 5190 947 
L 5235 1645 
L 6189 1645 
L 6189 2330 
L 5267 2330 
L 5299 3341 
C 5299 3437 5306 3680 5306 3680 
L 1562 3680 
L 1830 4077 
L 5939 4077 
L 5939 4762 
L 2234 4762 
C 2317 4922 2394 5082 2464 5242 
L 1658 5478 
C 1338 4685 781 3866 198 3373 
C 403 3264 762 3040 922 2906 
C 1056 3046 1197 3200 1331 3379 
L 1210 2330 
L 224 2330 
z
M 2496 2752 
C 2746 2637 3021 2464 3238 2304 
L 1971 2304 
L 2054 3008 
L 2758 3008 
L 2496 2752 
z
M 4435 947 
L 3686 947 
L 3898 1165 
C 3731 1325 3443 1510 3162 1670 
L 4486 1670 
L 4435 947 
z
M 2413 1427 
C 2669 1299 2957 1120 3181 947 
L 1779 947 
L 1888 1670 
L 2662 1670 
L 2413 1427 
z
" transform="scale(0.015625)"/>
      <path id="NotoSansCJKjp-Bold-4e2a" d="M 3174 4627 
C 3718 3827 4800 2893 5824 2323 
C 5971 2560 6150 2829 6355 3027 
C 5299 3482 4243 4371 3552 5421 
L 2726 5421 
C 2259 4589 1216 3533 77 2944 
C 250 2784 474 2490 576 2304 
C 1658 2918 2656 3834 3174 4627 
z
M 2771 3258 
L 2771 -576 
L 3584 -576 
L 3584 3258 
L 2771 3258 
z
" transform="scale(0.015625)"/>
     </defs>
     <use xlink:href="#NotoSansCJKjp-Bold-6bcf"/>
     <use xlink:href="#NotoSansCJKjp-Bold-4e2a" transform="translate(99.999985 0)"/>
     <use xlink:href="#NotoSansCJKjp-Bold-20" transform="translate(199.999969 0)"/>
     <use xlink:href="#NotoSansCJKjp-Bold-63" transform="translate(222.699966 0)"/>
     <use xlink:href="#NotoSansCJKjp-Bold-6f" transform="translate(275.399963 0)"/>
     <use xlink:href="#NotoSansCJKjp-Bold-6e" transform="translate(337.999954 0)"/>
     <use xlink:href="#NotoSansCJKjp-Bold-66" transform="translate(402.099945 0)"/>
     <use xlink:href="#NotoSansCJKjp-Bold-69" transform="translate(439.299942 0)"/>
     <use xlink:href="#NotoSansCJKjp-Bold-67" transform="translate(469.699936 0)"/>
    </g>
   </g>
   <g id="text_8">
    <!-- 编译 kernel（特定 config） -->
    <g style="fill: #9c27b0" transform="translate(410.913281 206.417494) scale(0.06 -0.06)">
     <defs>
      <path id="NotoSansCJKjp-Bold-ff08" d="M 4243 2432 
C 4243 1062 4813 38 5504 -640 
L 6112 -371 
C 5472 320 4966 1203 4966 2432 
C 4966 3661 5472 4544 6112 5235 
L 5504 5504 
C 4813 4826 4243 3802 4243 2432 
z
" transform="scale(0.015625)"/>
      <path id="NotoSansCJKjp-Bold-7279" d="M 474 5107 
C 422 4346 314 3546 109 3034 
C 256 2950 538 2778 653 2682 
C 742 2912 826 3194 890 3501 
L 1318 3501 
L 1318 2323 
C 890 2202 486 2099 173 2029 
L 358 1293 
L 1318 1574 
L 1318 -576 
L 2022 -576 
L 2022 1786 
L 2586 1965 
L 2586 1632 
L 3366 1632 
L 2816 1286 
C 3091 979 3418 550 3546 275 
L 4154 672 
C 4006 947 3674 1344 3386 1632 
L 4730 1632 
L 4730 294 
C 4730 211 4698 192 4595 186 
C 4493 186 4141 186 3827 198 
C 3930 -13 4026 -346 4058 -563 
C 4538 -563 4902 -550 5165 -435 
C 5421 -314 5491 -102 5491 282 
L 5491 1632 
L 6138 1632 
L 6138 2336 
L 5491 2336 
L 5491 2918 
L 6195 2918 
L 6195 3629 
L 4736 3629 
L 4736 4173 
L 5914 4173 
L 5914 4870 
L 4736 4870 
L 4736 5440 
L 3974 5440 
L 3974 4870 
L 2829 4870 
L 2829 4173 
L 3974 4173 
L 3974 3629 
L 2560 3629 
L 2560 4230 
L 2022 4230 
L 2022 5434 
L 1318 5434 
L 1318 4230 
L 1024 4230 
C 1062 4486 1094 4742 1120 4998 
L 474 5107 
z
M 4730 2918 
L 4730 2336 
L 2669 2336 
L 2618 2682 
L 2022 2515 
L 2022 3501 
L 2451 3501 
L 2451 2918 
L 4730 2918 
z
" transform="scale(0.015625)"/>
      <path id="NotoSansCJKjp-Bold-5b9a" d="M 1267 2419 
C 1152 1312 838 422 141 -90 
C 320 -205 646 -474 774 -614 
C 1139 -301 1421 109 1632 608 
C 2214 -314 3098 -512 4288 -512 
L 5894 -512 
C 5933 -275 6054 90 6170 275 
C 5734 256 4672 256 4326 256 
C 4070 256 3827 269 3597 294 
L 3597 1254 
L 5357 1254 
L 5357 1971 
L 3597 1971 
L 3597 2771 
L 4966 2771 
L 4966 3507 
L 1427 3507 
L 1427 2771 
L 2797 2771 
L 2797 518 
C 2419 698 2118 1005 1920 1517 
C 1984 1773 2029 2048 2067 2336 
L 1267 2419 
z
M 454 4781 
L 454 3174 
L 1210 3174 
L 1210 4058 
L 5165 4058 
L 5165 3174 
L 5952 3174 
L 5952 4781 
L 3603 4781 
L 3603 5427 
L 2784 5427 
L 2784 4781 
L 454 4781 
z
" transform="scale(0.015625)"/>
      <path id="NotoSansCJKjp-Bold-ff09" d="M 2157 2432 
C 2157 3802 1587 4826 896 5504 
L 288 5235 
C 928 4544 1434 3661 1434 2432 
C 1434 1203 928 320 288 -371 
L 896 -640 
C 1587 38 2157 1062 2157 2432 
z
" transform="scale(0.015625)"/>
     </defs>
     <use xlink:href="#NotoSansCJKjp-Bold-7f16"/>
     <use xlink:href="#NotoSansCJKjp-Bold-8bd1" transform="translate(99.999985 0)"/>
     <use xlink:href="#NotoSansCJKjp-Bold-20" transform="translate(199.999969 0)"/>
     <use xlink:href="#NotoSansCJKjp-Bold-6b" transform="translate(222.699966 0)"/>
     <use xlink:href="#NotoSansCJKjp-Bold-65" transform="translate(283.09996 0)"/>
     <use xlink:href="#NotoSansCJKjp-Bold-72" transform="translate(341.199951 0)"/>
     <use xlink:href="#NotoSansCJKjp-Bold-6e" transform="translate(384.799942 0)"/>
     <use xlink:href="#NotoSansCJKjp-Bold-65" transform="translate(448.899933 0)"/>
     <use xlink:href="#NotoSansCJKjp-Bold-6c" transform="translate(506.999924 0)"/>
     <use xlink:href="#NotoSansCJKjp-Bold-ff08" transform="translate(538.499908 0)"/>
     <use xlink:href="#NotoSansCJKjp-Bold-7279" transform="translate(638.499893 0)"/>
     <use xlink:href="#NotoSansCJKjp-Bold-5b9a" transform="translate(738.499878 0)"/>
     <use xlink:href="#NotoSansCJKjp-Bold-20" transform="translate(838.499863 0)"/>
     <use xlink:href="#NotoSansCJKjp-Bold-63" transform="translate(861.19986 0)"/>
     <use xlink:href="#NotoSansCJKjp-Bold-6f" transform="translate(913.899857 0)"/>
     <use xlink:href="#NotoSansCJKjp-Bold-6e" transform="translate(976.499847 0)"/>
     <use xlink:href="#NotoSansCJKjp-Bold-66" transform="translate(1040.599838 0)"/>
     <use xlink:href="#NotoSansCJKjp-Bold-69" transform="translate(1077.799835 0)"/>
     <use xlink:href="#NotoSansCJKjp-Bold-67" transform="translate(1108.199829 0)"/>
     <use xlink:href="#NotoSansCJKjp-Bold-ff09" transform="translate(1167.899826 0)"/>
    </g>
   </g>
   <g id="text_9">
    <!-- 执行基准测试 → 延迟数据 -->
    <g style="fill: #9c27b0" transform="translate(414.587812 241.796906) scale(0.06 -0.06)">
     <defs>
      <path id="NotoSansCJKjp-Bold-57fa" d="M 4218 5434 
L 4218 4954 
L 2202 4954 
L 2202 5440 
L 1434 5440 
L 1434 4954 
L 550 4954 
L 550 4333 
L 1434 4333 
L 1434 2413 
L 205 2413 
L 205 1786 
L 1440 1786 
C 1088 1446 621 1152 147 979 
C 307 838 531 570 640 397 
C 998 557 1350 781 1664 1056 
L 1664 646 
L 2797 646 
L 2797 230 
L 781 230 
L 781 -397 
L 5683 -397 
L 5683 230 
L 3578 230 
L 3578 646 
L 4749 646 
L 4749 1120 
C 5056 845 5408 614 5760 454 
C 5869 634 6099 909 6266 1043 
C 5811 1203 5363 1478 5011 1786 
L 6195 1786 
L 6195 2413 
L 5005 2413 
L 5005 4333 
L 5882 4333 
L 5882 4954 
L 5005 4954 
L 5005 5434 
L 4218 5434 
z
M 2202 4333 
L 4218 4333 
L 4218 4058 
L 2202 4058 
L 2202 4333 
z
M 2202 3520 
L 4218 3520 
L 4218 3238 
L 2202 3238 
L 2202 3520 
z
M 2202 2701 
L 4218 2701 
L 4218 2413 
L 2202 2413 
L 2202 2701 
z
M 2797 1658 
L 2797 1254 
L 1875 1254 
C 2048 1421 2202 1600 2330 1786 
L 4147 1786 
C 4282 1600 4435 1421 4608 1254 
L 3578 1254 
L 3578 1658 
L 2797 1658 
z
" transform="scale(0.015625)"/>
      <path id="NotoSansCJKjp-Bold-51c6" d="M 326 4538 
C 723 4269 1229 3866 1453 3590 
L 1971 4198 
C 1722 4467 1203 4838 800 5082 
L 326 4538 
z
M 166 390 
L 806 -128 
C 1190 435 1587 1094 1933 1702 
L 1370 2221 
C 986 1542 499 826 166 390 
z
M 4083 2291 
L 4083 1696 
L 3187 1696 
L 3187 2291 
L 4083 2291 
z
M 2982 5440 
C 2669 4506 2125 3590 1523 3021 
C 1683 2874 1958 2554 2067 2394 
C 2202 2528 2330 2682 2458 2854 
L 2458 -576 
L 3187 -576 
L 3187 -314 
L 6208 -314 
L 6208 397 
L 4819 397 
L 4819 1018 
L 5914 1018 
L 5914 1696 
L 4819 1696 
L 4819 2291 
L 5914 2291 
L 5914 2963 
L 4819 2963 
L 4819 3533 
L 6093 3533 
L 6093 4218 
L 4973 4218 
C 5107 4518 5254 4864 5389 5197 
L 4595 5402 
C 4518 5043 4371 4589 4230 4218 
L 3302 4218 
C 3462 4544 3610 4883 3731 5222 
L 2982 5440 
z
M 4083 2963 
L 3187 2963 
L 3187 3533 
L 4083 3533 
L 4083 2963 
z
M 4083 1018 
L 4083 397 
L 3187 397 
L 3187 1018 
L 4083 1018 
z
" transform="scale(0.015625)"/>
      <path id="NotoSansCJKjp-Bold-6d4b" d="M 1952 5101 
L 1952 890 
L 2528 890 
L 2528 4550 
L 3635 4550 
L 3635 928 
L 4237 928 
L 4237 5101 
L 1952 5101 
z
M 5414 5331 
L 5414 198 
C 5414 102 5382 70 5286 70 
C 5190 70 4890 64 4576 77 
C 4653 -102 4742 -384 4768 -550 
C 5229 -550 5549 -531 5747 -429 
C 5952 -326 6016 -147 6016 198 
L 6016 5331 
L 5414 5331 
z
M 4538 4851 
L 4538 902 
L 5120 902 
L 5120 4851 
L 4538 4851 
z
M 422 4826 
C 774 4627 1254 4333 1478 4134 
L 1946 4755 
C 1702 4947 1216 5216 877 5382 
L 422 4826 
z
M 179 3110 
C 525 2925 998 2637 1229 2451 
L 1690 3066 
C 1434 3245 947 3507 614 3667 
L 179 3110 
z
M 288 -115 
L 979 -506 
C 1242 122 1517 864 1734 1555 
L 1114 1952 
C 864 1203 531 390 288 -115 
z
M 2790 4198 
L 2790 1747 
C 2790 1030 2688 346 1683 -109 
C 1779 -205 1958 -448 2010 -576 
C 2592 -314 2925 58 3117 474 
C 3398 160 3731 -262 3885 -525 
L 4371 -218 
C 4205 58 3846 474 3552 774 
L 3142 531 
C 3309 922 3347 1344 3347 1741 
L 3347 4198 
L 2790 4198 
z
" transform="scale(0.015625)"/>
      <path id="NotoSansCJKjp-Bold-8bd5" d="M 621 4890 
C 966 4582 1408 4154 1606 3866 
L 2138 4390 
C 1920 4666 1459 5075 1120 5350 
L 621 4890 
z
M 2438 2739 
L 2438 2035 
L 2957 2035 
L 2957 659 
L 2554 557 
L 2560 563 
C 2490 710 2406 1011 2368 1216 
L 1798 858 
L 1798 3462 
L 314 3462 
L 314 2726 
L 1069 2726 
L 1069 787 
C 1069 506 870 294 723 205 
C 851 51 1030 -282 1082 -467 
C 1197 -339 1389 -211 2349 422 
L 2522 -205 
C 3072 -45 3763 154 4410 346 
L 4301 1011 
L 3661 838 
L 3661 2035 
L 4141 2035 
L 4141 2739 
L 2438 2739 
z
M 4211 5389 
L 4237 4205 
L 2246 4205 
L 2246 3475 
L 4262 3475 
C 4371 979 4666 -518 5472 -531 
C 5734 -531 6099 -288 6259 954 
C 6138 1024 5786 1235 5658 1395 
C 5632 819 5581 499 5498 506 
C 5274 512 5101 1779 5024 3475 
L 6182 3475 
L 6182 4205 
L 5702 4205 
L 6176 4512 
C 6061 4749 5786 5107 5549 5370 
L 5037 5056 
C 5248 4800 5485 4454 5600 4205 
L 5005 4205 
C 4992 4589 4992 4986 4992 5389 
L 4211 5389 
z
" transform="scale(0.015625)"/>
      <path id="NotoSansCJKjp-Bold-2192" d="M 4781 2758 
L 256 2758 
L 256 2106 
L 4781 2106 
C 4506 1907 4166 1555 3930 1229 
L 4506 909 
C 4947 1472 5600 2054 6176 2432 
C 5600 2810 4947 3392 4506 3955 
L 3930 3635 
C 4166 3309 4506 2957 4781 2758 
z
" transform="scale(0.015625)"/>
      <path id="NotoSansCJKjp-Bold-5ef6" d="M 5530 5427 
C 4768 5197 3546 5005 2458 4909 
C 2541 4742 2643 4454 2662 4275 
C 3098 4307 3565 4358 4026 4416 
L 4026 1555 
L 3507 1555 
L 3507 3757 
L 2790 3757 
L 2790 1555 
L 2342 1555 
L 2342 858 
L 6131 858 
L 6131 1555 
L 4787 1555 
L 4787 2765 
L 5990 2765 
L 5990 3437 
L 4787 3437 
L 4787 4531 
C 5242 4608 5670 4698 6048 4806 
L 5530 5427 
z
M 947 2246 
L 346 2035 
C 518 1504 723 1082 973 749 
C 749 390 474 115 141 -90 
C 307 -186 602 -454 717 -614 
C 1018 -410 1286 -134 1510 205 
C 2189 -301 3066 -429 4134 -429 
L 5978 -429 
C 6022 -205 6150 147 6272 320 
C 5805 301 4538 301 4160 301 
C 3245 307 2451 403 1850 851 
C 2112 1459 2285 2221 2374 3155 
L 1920 3264 
L 1792 3245 
L 1376 3245 
C 1670 3840 1965 4448 2182 4954 
L 1651 5114 
L 1530 5082 
L 211 5082 
L 211 4410 
L 1158 4410 
C 890 3846 538 3136 224 2566 
L 928 2368 
L 1037 2573 
L 1581 2573 
C 1523 2150 1427 1773 1312 1440 
C 1165 1664 1043 1933 947 2246 
z
" transform="scale(0.015625)"/>
      <path id="NotoSansCJKjp-Bold-8fdf" d="M 371 4986 
C 730 4627 1158 4128 1331 3795 
L 1965 4237 
C 1766 4570 1325 5037 960 5376 
L 371 4986 
z
M 1773 3123 
L 262 3123 
L 262 2413 
L 1005 2413 
L 1005 883 
C 736 762 429 531 141 224 
L 666 -531 
C 896 -160 1171 262 1357 262 
C 1504 262 1728 64 2029 -90 
C 2496 -346 3040 -429 3859 -429 
C 4518 -429 5568 -384 6016 -352 
C 6029 -134 6157 256 6246 474 
C 5600 371 4557 314 3891 314 
C 3174 314 2573 352 2144 602 
C 1990 685 1875 762 1773 826 
L 1773 3123 
z
M 3386 3578 
L 3386 3648 
L 3386 4435 
L 5101 4435 
L 5101 3578 
L 3386 3578 
z
M 3750 2438 
C 4320 1888 5069 1120 5402 627 
L 6061 1152 
C 5702 1626 4947 2330 4397 2848 
L 5882 2848 
L 5882 5165 
L 2573 5165 
L 2573 3661 
C 2573 2861 2515 1792 1882 1056 
C 2074 966 2438 736 2579 595 
C 3085 1190 3283 2061 3354 2848 
L 4307 2848 
L 3750 2438 
z
" transform="scale(0.015625)"/>
      <path id="NotoSansCJKjp-Bold-6570" d="M 3917 5440 
C 3770 4294 3456 3200 2918 2541 
C 3053 2445 3277 2246 3424 2099 
L 3520 1997 
C 3629 2138 3725 2291 3821 2464 
C 3936 2003 4077 1574 4250 1190 
C 3968 794 3603 474 3123 224 
C 2970 333 2790 448 2592 563 
C 2746 813 2861 1114 2931 1478 
L 3424 1478 
L 3424 2099 
L 1901 2099 
L 2054 2406 
L 1779 2464 
L 2189 2464 
L 2189 3245 
C 2438 3046 2714 2822 2854 2682 
L 3258 3213 
C 3123 3309 2669 3578 2355 3750 
L 3405 3750 
L 3405 4358 
L 2797 4358 
C 2957 4550 3149 4832 3347 5101 
L 2701 5363 
C 2605 5120 2419 4768 2278 4544 
L 2701 4358 
L 2189 4358 
L 2189 5440 
L 1485 5440 
L 1485 4358 
L 954 4358 
L 1363 4538 
C 1306 4762 1139 5088 973 5331 
L 422 5101 
C 557 4870 698 4576 755 4358 
L 262 4358 
L 262 3750 
L 1261 3750 
C 960 3418 525 3110 134 2950 
C 275 2810 442 2560 525 2394 
C 845 2573 1190 2835 1485 3130 
L 1485 2522 
L 1344 2554 
L 1126 2099 
L 192 2099 
L 192 1478 
L 806 1478 
C 646 1171 486 883 346 659 
L 1018 454 
L 1088 576 
L 1446 403 
C 1139 230 736 122 218 51 
C 346 -102 480 -365 525 -582 
C 1210 -442 1728 -256 2106 32 
C 2368 -134 2598 -301 2771 -454 
L 3066 -160 
C 3168 -314 3270 -486 3315 -595 
C 3872 -320 4314 26 4666 448 
C 4954 38 5306 -307 5747 -563 
C 5862 -352 6106 -51 6278 102 
C 5811 346 5440 710 5146 1165 
C 5491 1818 5709 2611 5843 3571 
L 6202 3571 
L 6202 4282 
L 4493 4282 
C 4576 4621 4640 4973 4698 5331 
L 3917 5440 
z
M 1581 1478 
L 2202 1478 
C 2144 1248 2067 1056 1965 896 
C 1779 979 1587 1062 1402 1139 
L 1581 1478 
z
M 5050 3571 
C 4979 3002 4864 2496 4704 2061 
C 4525 2522 4397 3027 4307 3571 
L 5050 3571 
z
" transform="scale(0.015625)"/>
      <path id="NotoSansCJKjp-Bold-636e" d="M 3104 1491 
L 3104 -570 
L 3763 -570 
L 3763 -384 
L 5312 -384 
L 5312 -563 
L 6003 -563 
L 6003 1491 
L 4851 1491 
L 4851 2106 
L 6150 2106 
L 6150 2752 
L 4851 2752 
L 4851 3322 
L 5971 3322 
L 5971 5184 
L 2445 5184 
L 2445 3219 
C 2445 2214 2394 806 1754 -141 
C 1920 -224 2246 -454 2374 -589 
C 2867 134 3066 1171 3142 2106 
L 4134 2106 
L 4134 1491 
L 3104 1491 
z
M 3187 4525 
L 5248 4525 
L 5248 3974 
L 3187 3974 
L 3187 4525 
z
M 3187 3322 
L 4134 3322 
L 4134 2752 
L 3181 2752 
L 3187 3219 
L 3187 3322 
z
M 3763 224 
L 3763 864 
L 5312 864 
L 5312 224 
L 3763 224 
z
M 909 5434 
L 909 4224 
L 237 4224 
L 237 3520 
L 909 3520 
L 909 2374 
L 134 2189 
L 307 1453 
L 909 1626 
L 909 326 
C 909 243 883 218 806 218 
C 730 211 506 211 269 218 
C 365 19 448 -301 467 -486 
C 883 -486 1165 -461 1357 -339 
C 1555 -224 1613 -32 1613 320 
L 1613 1824 
L 2272 2022 
L 2176 2714 
L 1613 2560 
L 1613 3520 
L 2259 3520 
L 2259 4224 
L 1613 4224 
L 1613 5434 
L 909 5434 
z
" transform="scale(0.015625)"/>
     </defs>
     <use xlink:href="#NotoSansCJKjp-Bold-6267"/>
     <use xlink:href="#NotoSansCJKjp-Bold-884c" transform="translate(99.999985 0)"/>
     <use xlink:href="#NotoSansCJKjp-Bold-57fa" transform="translate(199.999969 0)"/>
     <use xlink:href="#NotoSansCJKjp-Bold-51c6" transform="translate(299.999954 0)"/>
     <use xlink:href="#NotoSansCJKjp-Bold-6d4b" transform="translate(399.999939 0)"/>
     <use xlink:href="#NotoSansCJKjp-Bold-8bd5" transform="translate(499.999924 0)"/>
     <use xlink:href="#NotoSansCJKjp-Bold-20" transform="translate(599.999908 0)"/>
     <use xlink:href="#NotoSansCJKjp-Bold-2192" transform="translate(622.699905 0)"/>
     <use xlink:href="#NotoSansCJKjp-Bold-20" transform="translate(722.69989 0)"/>
     <use xlink:href="#NotoSansCJKjp-Bold-5ef6" transform="translate(745.399887 0)"/>
     <use xlink:href="#NotoSansCJKjp-Bold-8fdf" transform="translate(845.399872 0)"/>
     <use xlink:href="#NotoSansCJKjp-Bold-6570" transform="translate(945.399857 0)"/>
     <use xlink:href="#NotoSansCJKjp-Bold-636e" transform="translate(1045.399841 0)"/>
    </g>
   </g>
   <g id="patch_13">
    <path d="M 448.95 217.652189 
Q 448.95 222.305342 448.95 225.281444 
" style="fill: none; stroke: #616161; stroke-width: 1.5; stroke-linecap: round"/>
    <path d="M 451.15 220.881444 
L 448.95 225.281444 
L 446.75 220.881444 
" style="fill: none; stroke: #616161; stroke-width: 1.5; stroke-linecap: round"/>
   </g>
   <g id="patch_14">
    <path d="M 446.948405 273.39382 
Q 286.198782 279.96485 127.12481 286.467383 
" style="fill: none; stroke: #616161; stroke-width: 1.5; stroke-linecap: round"/>
    <path d="M 131.610994 288.485837 
L 127.12481 286.467383 
L 131.431283 284.089508 
" style="fill: none; stroke: #616161; stroke-width: 1.5; stroke-linecap: round"/>
   </g>
   <g id="text_10">
    <!-- 返回最优 config -->
    <g style="fill: #616161" transform="translate(261.300781 288.675491) scale(0.07 -0.07)">
     <defs>
      <path id="NotoSansCJKjp-Regular-8fd4" d="M 365 4941 
C 762 4646 1210 4198 1402 3885 
L 1779 4192 
C 1581 4506 1120 4934 723 5222 
L 365 4941 
z
M 1594 2848 
L 314 2848 
L 314 2400 
L 1126 2400 
L 1126 768 
C 826 499 493 230 211 32 
L 467 -461 
C 794 -173 1094 102 1389 378 
C 1805 -134 2394 -358 3258 -390 
C 3968 -416 5299 -403 6010 -371 
C 6029 -224 6106 6 6163 115 
C 5402 64 3955 45 3258 77 
C 2490 102 1907 320 1594 794 
L 1594 2848 
z
M 2458 5056 
L 2458 3578 
C 2458 2752 2387 1632 1766 832 
C 1875 781 2080 646 2157 563 
C 2746 1325 2893 2413 2912 3277 
L 3059 3277 
C 3277 2618 3584 2048 3981 1574 
C 3584 1229 3130 966 2656 806 
C 2752 710 2874 525 2931 403 
C 3424 595 3898 870 4307 1235 
C 4723 845 5229 544 5824 352 
C 5894 480 6035 666 6138 768 
C 5549 928 5056 1203 4640 1568 
C 5126 2093 5498 2778 5702 3629 
L 5402 3731 
L 5312 3718 
L 2918 3718 
L 2918 4608 
L 5914 4608 
L 5914 5056 
L 2458 5056 
z
M 5120 3277 
C 4934 2746 4653 2285 4307 1901 
C 3968 2291 3706 2752 3520 3277 
L 5120 3277 
z
" transform="scale(0.015625)"/>
      <path id="NotoSansCJKjp-Regular-56de" d="M 2394 3200 
L 3955 3200 
L 3955 1734 
L 2394 1734 
L 2394 3200 
z
M 1939 3635 
L 1939 1306 
L 4429 1306 
L 4429 3635 
L 1939 3635 
z
M 525 5114 
L 525 -506 
L 1018 -506 
L 1018 -160 
L 5370 -160 
L 5370 -506 
L 5882 -506 
L 5882 5114 
L 525 5114 
z
M 1018 294 
L 1018 4634 
L 5370 4634 
L 5370 294 
L 1018 294 
z
" transform="scale(0.015625)"/>
      <path id="NotoSansCJKjp-Regular-6700" d="M 1600 4064 
L 4813 4064 
L 4813 3610 
L 1600 3610 
L 1600 4064 
z
M 1600 4832 
L 4813 4832 
L 4813 4384 
L 1600 4384 
L 1600 4832 
z
M 1139 5171 
L 1139 3270 
L 5293 3270 
L 5293 5171 
L 1139 5171 
z
M 2534 2509 
L 2534 2074 
L 1370 2074 
L 1370 2509 
L 2534 2509 
z
M 314 282 
L 358 -147 
L 2534 115 
L 2534 -512 
L 2995 -512 
L 2995 -109 
C 3091 -198 3200 -365 3251 -474 
C 3699 -320 4141 -96 4531 205 
C 4909 -115 5363 -358 5875 -506 
C 5939 -397 6061 -218 6163 -134 
C 5664 -6 5229 205 4858 486 
C 5280 883 5613 1389 5811 2010 
L 5517 2131 
L 5434 2112 
L 3219 2112 
L 3219 1722 
L 3776 1722 
L 3501 1638 
C 3674 1216 3910 832 4205 512 
C 3840 237 3418 32 2995 -90 
L 2995 2509 
L 6016 2509 
L 6016 2912 
L 371 2912 
L 371 2509 
L 928 2509 
L 928 339 
L 314 282 
z
M 3898 1722 
L 5222 1722 
C 5056 1363 4813 1050 4531 781 
C 4262 1050 4045 1370 3898 1722 
z
M 2534 1709 
L 2534 1261 
L 1370 1261 
L 1370 1709 
L 2534 1709 
z
M 2534 902 
L 2534 518 
L 1370 384 
L 1370 902 
L 2534 902 
z
" transform="scale(0.015625)"/>
      <path id="NotoSansCJKjp-Regular-4f18" d="M 4083 2899 
L 4083 339 
C 4083 -186 4211 -339 4717 -339 
C 4826 -339 5357 -339 5466 -339 
C 5933 -339 6054 -70 6099 896 
C 5971 928 5773 1011 5670 1094 
C 5651 250 5619 102 5427 102 
C 5306 102 4870 102 4774 102 
C 4582 102 4550 147 4550 339 
L 4550 2899 
L 4083 2899 
z
M 4474 4979 
C 4787 4678 5165 4256 5338 3994 
L 5690 4262 
C 5504 4525 5120 4928 4806 5210 
L 4474 4979 
z
M 3334 5299 
C 3334 4819 3328 4333 3309 3859 
L 1862 3859 
L 1862 3398 
L 3283 3398 
C 3181 1952 2854 634 1760 -134 
C 1882 -218 2035 -371 2112 -486 
C 3290 365 3648 1818 3763 3398 
L 6080 3398 
L 6080 3859 
L 3789 3859 
C 3808 4339 3814 4819 3814 5299 
L 3334 5299 
z
M 1734 5363 
C 1395 4390 832 3430 237 2810 
C 326 2694 467 2445 512 2330 
C 698 2534 883 2765 1056 3014 
L 1056 -512 
L 1517 -512 
L 1517 3757 
C 1779 4224 2003 4723 2189 5222 
L 1734 5363 
z
" transform="scale(0.015625)"/>
      <path id="NotoSansCJKjp-Regular-20" transform="scale(0.015625)"/>
      <path id="NotoSansCJKjp-Regular-63" d="M 1958 -83 
C 2374 -83 2771 83 3085 352 
L 2829 749 
C 2611 557 2330 403 2010 403 
C 1370 403 934 934 934 1734 
C 934 2534 1395 3072 2029 3072 
C 2298 3072 2522 2950 2720 2771 
L 3014 3155 
C 2771 3373 2458 3565 2003 3565 
C 1107 3565 333 2893 333 1734 
C 333 582 1037 -83 1958 -83 
z
" transform="scale(0.015625)"/>
      <path id="NotoSansCJKjp-Regular-6f" d="M 1939 -83 
C 2790 -83 3546 582 3546 1734 
C 3546 2893 2790 3565 1939 3565 
C 1088 3565 333 2893 333 1734 
C 333 582 1088 -83 1939 -83 
z
M 1939 403 
C 1338 403 934 934 934 1734 
C 934 2534 1338 3072 1939 3072 
C 2541 3072 2950 2534 2950 1734 
C 2950 934 2541 403 1939 403 
z
" transform="scale(0.015625)"/>
      <path id="NotoSansCJKjp-Regular-6e" d="M 589 0 
L 1178 0 
L 1178 2522 
C 1523 2874 1766 3053 2125 3053 
C 2586 3053 2784 2778 2784 2125 
L 2784 0 
L 3366 0 
L 3366 2202 
C 3366 3085 3034 3565 2304 3565 
C 1830 3565 1466 3302 1139 2970 
L 1126 2970 
L 1069 3475 
L 589 3475 
L 589 0 
z
" transform="scale(0.015625)"/>
      <path id="NotoSansCJKjp-Regular-66" d="M 211 3002 
L 685 3002 
L 685 0 
L 1267 0 
L 1267 3002 
L 2003 3002 
L 2003 3475 
L 1267 3475 
L 1267 4026 
C 1267 4474 1427 4710 1760 4710 
C 1882 4710 2022 4678 2150 4614 
L 2278 5069 
C 2118 5133 1914 5178 1696 5178 
C 1005 5178 685 4736 685 4032 
L 685 3475 
L 211 3443 
L 211 3002 
z
" transform="scale(0.015625)"/>
      <path id="NotoSansCJKjp-Regular-69" d="M 589 0 
L 1178 0 
L 1178 3475 
L 589 3475 
L 589 0 
z
M 883 4192 
C 1114 4192 1274 4346 1274 4582 
C 1274 4806 1114 4960 883 4960 
C 653 4960 499 4806 499 4582 
C 499 4346 653 4192 883 4192 
z
" transform="scale(0.015625)"/>
      <path id="NotoSansCJKjp-Regular-67" d="M 1760 -1600 
C 2835 -1600 3520 -1043 3520 -397 
C 3520 179 3110 429 2310 429 
L 1626 429 
C 1158 429 1018 589 1018 806 
C 1018 998 1114 1114 1242 1222 
C 1395 1146 1587 1101 1754 1101 
C 2470 1101 3027 1568 3027 2310 
C 3027 2611 2912 2867 2746 3027 
L 3456 3027 
L 3456 3475 
L 2246 3475 
C 2125 3526 1952 3565 1754 3565 
C 1056 3565 454 3085 454 2323 
C 454 1907 678 1568 909 1389 
L 909 1363 
C 723 1235 525 1005 525 717 
C 525 442 659 256 838 147 
L 838 115 
C 512 -83 326 -371 326 -672 
C 326 -1267 915 -1600 1760 -1600 
z
M 1754 1498 
C 1357 1498 1018 1818 1018 2323 
C 1018 2835 1350 3136 1754 3136 
C 2170 3136 2496 2835 2496 2323 
C 2496 1818 2157 1498 1754 1498 
z
M 1843 -1197 
C 1210 -1197 838 -960 838 -589 
C 838 -390 941 -179 1190 0 
C 1344 -38 1510 -51 1638 -51 
L 2240 -51 
C 2701 -51 2944 -166 2944 -493 
C 2944 -851 2515 -1197 1843 -1197 
z
" transform="scale(0.015625)"/>
     </defs>
     <use xlink:href="#NotoSansCJKjp-Regular-8fd4"/>
     <use xlink:href="#NotoSansCJKjp-Regular-56de" transform="translate(99.999985 0)"/>
     <use xlink:href="#NotoSansCJKjp-Regular-6700" transform="translate(199.999969 0)"/>
     <use xlink:href="#NotoSansCJKjp-Regular-4f18" transform="translate(299.999954 0)"/>
     <use xlink:href="#NotoSansCJKjp-Regular-20" transform="translate(399.999939 0)"/>
     <use xlink:href="#NotoSansCJKjp-Regular-63" transform="translate(422.399933 0)"/>
     <use xlink:href="#NotoSansCJKjp-Regular-6f" transform="translate(473.399918 0)"/>
     <use xlink:href="#NotoSansCJKjp-Regular-6e" transform="translate(533.999908 0)"/>
     <use xlink:href="#NotoSansCJKjp-Regular-66" transform="translate(594.999893 0)"/>
     <use xlink:href="#NotoSansCJKjp-Regular-69" transform="translate(627.499878 0)"/>
     <use xlink:href="#NotoSansCJKjp-Regular-67" transform="translate(654.999863 0)"/>
    </g>
   </g>
   <g id="text_11">
    <!-- Triton Compiler -->
    <g style="fill: #9c27b0" transform="translate(264.09 121.998225) scale(0.06 -0.06)">
     <defs>
      <path id="NotoSansCJKjp-Regular-54" d="M 1619 0 
L 2214 0 
L 2214 4192 
L 3635 4192 
L 3635 4691 
L 198 4691 
L 198 4192 
L 1619 4192 
L 1619 0 
z
" transform="scale(0.015625)"/>
      <path id="NotoSansCJKjp-Regular-72" d="M 589 0 
L 1178 0 
L 1178 2234 
C 1408 2822 1760 3040 2048 3040 
C 2195 3040 2272 3021 2387 2982 
L 2496 3488 
C 2387 3546 2278 3565 2125 3565 
C 1741 3565 1382 3283 1139 2842 
L 1126 2842 
L 1069 3475 
L 589 3475 
L 589 0 
z
" transform="scale(0.015625)"/>
      <path id="NotoSansCJKjp-Regular-74" d="M 1677 -83 
C 1894 -83 2125 -19 2323 45 
L 2208 486 
C 2093 435 1939 390 1811 390 
C 1408 390 1274 634 1274 1056 
L 1274 3002 
L 2221 3002 
L 2221 3475 
L 1274 3475 
L 1274 4454 
L 787 4454 
L 723 3475 
L 173 3443 
L 173 3002 
L 691 3002 
L 691 1075 
C 691 378 941 -83 1677 -83 
z
" transform="scale(0.015625)"/>
      <path id="NotoSansCJKjp-Regular-43" d="M 2413 -83 
C 3021 -83 3482 160 3853 589 
L 3526 966 
C 3226 634 2886 435 2438 435 
C 1542 435 979 1178 979 2362 
C 979 3533 1574 4256 2458 4256 
C 2861 4256 3168 4077 3418 3814 
L 3738 4198 
C 3469 4499 3021 4774 2451 4774 
C 1261 4774 371 3859 371 2342 
C 371 819 1242 -83 2413 -83 
z
" transform="scale(0.015625)"/>
      <path id="NotoSansCJKjp-Regular-6d" d="M 589 0 
L 1178 0 
L 1178 2522 
C 1491 2880 1786 3053 2048 3053 
C 2490 3053 2694 2778 2694 2125 
L 2694 0 
L 3277 0 
L 3277 2522 
C 3603 2880 3885 3053 4154 3053 
C 4595 3053 4800 2778 4800 2125 
L 4800 0 
L 5382 0 
L 5382 2202 
C 5382 3085 5043 3565 4333 3565 
C 3904 3565 3546 3290 3181 2899 
C 3040 3309 2758 3565 2221 3565 
C 1805 3565 1446 3302 1139 2970 
L 1126 2970 
L 1069 3475 
L 589 3475 
L 589 0 
z
" transform="scale(0.015625)"/>
      <path id="NotoSansCJKjp-Regular-70" d="M 589 -1466 
L 1178 -1466 
L 1178 -288 
L 1158 320 
C 1472 58 1805 -83 2118 -83 
C 2912 -83 3629 602 3629 1792 
C 3629 2867 3142 3565 2246 3565 
C 1843 3565 1453 3334 1139 3072 
L 1126 3072 
L 1069 3475 
L 589 3475 
L 589 -1466 
z
M 2022 410 
C 1792 410 1485 499 1178 768 
L 1178 2598 
C 1510 2906 1811 3072 2099 3072 
C 2765 3072 3021 2560 3021 1786 
C 3021 928 2598 410 2022 410 
z
" transform="scale(0.015625)"/>
      <path id="NotoSansCJKjp-Regular-6c" d="M 1203 -83 
C 1363 -83 1459 -58 1542 -32 
L 1459 416 
C 1395 403 1370 403 1338 403 
C 1248 403 1178 474 1178 653 
L 1178 5094 
L 589 5094 
L 589 691 
C 589 198 768 -83 1203 -83 
z
" transform="scale(0.015625)"/>
      <path id="NotoSansCJKjp-Regular-65" d="M 1997 -83 
C 2464 -83 2835 70 3136 269 
L 2931 659 
C 2669 486 2400 384 2061 384 
C 1402 384 947 858 909 1600 
L 3251 1600 
C 3264 1690 3277 1805 3277 1933 
C 3277 2925 2778 3565 1888 3565 
C 1094 3565 333 2867 333 1734 
C 333 589 1069 -83 1997 -83 
z
M 902 2016 
C 973 2707 1408 3098 1901 3098 
C 2445 3098 2765 2720 2765 2016 
L 902 2016 
z
" transform="scale(0.015625)"/>
     </defs>
     <use xlink:href="#NotoSansCJKjp-Regular-54"/>
     <use xlink:href="#NotoSansCJKjp-Regular-72" transform="translate(59.899994 0)"/>
     <use xlink:href="#NotoSansCJKjp-Regular-69" transform="translate(98.699982 0)"/>
     <use xlink:href="#NotoSansCJKjp-Regular-74" transform="translate(126.199966 0)"/>
     <use xlink:href="#NotoSansCJKjp-Regular-6f" transform="translate(163.899963 0)"/>
     <use xlink:href="#NotoSansCJKjp-Regular-6e" transform="translate(224.499954 0)"/>
     <use xlink:href="#NotoSansCJKjp-Regular-20" transform="translate(285.499939 0)"/>
     <use xlink:href="#NotoSansCJKjp-Regular-43" transform="translate(307.899933 0)"/>
     <use xlink:href="#NotoSansCJKjp-Regular-6f" transform="translate(371.699921 0)"/>
     <use xlink:href="#NotoSansCJKjp-Regular-6d" transform="translate(432.299911 0)"/>
     <use xlink:href="#NotoSansCJKjp-Regular-70" transform="translate(524.899902 0)"/>
     <use xlink:href="#NotoSansCJKjp-Regular-69" transform="translate(586.899887 0)"/>
     <use xlink:href="#NotoSansCJKjp-Regular-6c" transform="translate(614.399872 0)"/>
     <use xlink:href="#NotoSansCJKjp-Regular-65" transform="translate(642.799866 0)"/>
     <use xlink:href="#NotoSansCJKjp-Regular-72" transform="translate(698.19986 0)"/>
    </g>
   </g>
  </g>
 </g>
 <defs>
  <clipPath id="pc96a3ae82c">
   <rect x="7.2" y="7.2" width="558" height="332.64"/>
  </clipPath>
 </defs>
</svg>
