<?xml version="1.0" encoding="utf-8" standalone="no"?>
<!DOCTYPE svg PUBLIC "-//W3C//DTD SVG 1.1//EN"
  "http://www.w3.org/Graphics/SVG/1.1/DTD/svg11.dtd">
<svg xmlns:xlink="http://www.w3.org/1999/xlink" width="572.4pt" height="374.76pt" viewBox="0 0 572.4 374.76" xmlns="http://www.w3.org/2000/svg" version="1.1">
 <metadata>
  <rdf:RDF xmlns:dc="http://purl.org/dc/elements/1.1/" xmlns:cc="http://creativecommons.org/ns#" xmlns:rdf="http://www.w3.org/1999/02/22-rdf-syntax-ns#">
   <cc:Work>
    <dc:type rdf:resource="http://purl.org/dc/dcmitype/StillImage"/>
    <dc:date>2026-07-11T14:05:09.055096</dc:date>
    <dc:format>image/svg+xml</dc:format>
    <dc:creator>
     <cc:Agent>
      <dc:title>Matplotlib v3.10.9, https://matplotlib.org/</dc:title>
     </cc:Agent>
    </dc:creator>
   </cc:Work>
  </rdf:RDF>
 </metadata>
 <defs>
  <style type="text/css">*{stroke-linejoin: round; stroke-linecap: butt}</style>
 </defs>
 <g id="figure_1">
  <g id="patch_1">
   <path d="M 0 374.76 
L 572.4 374.76 
L 572.4 0 
L 0 0 
z
" style="fill: #ffffff"/>
  </g>
  <g id="axes_1">
   <g id="patch_2">
    <path d="M 16.5 64.8576 
L 90.9 64.8576 
Q 94.62 64.8576 94.62 61.254 
L 94.62 29.7225 
Q 94.62 26.1189 90.9 26.1189 
L 16.5 26.1189 
Q 12.78 26.1189 12.78 29.7225 
L 12.78 61.254 
Q 12.78 64.8576 16.5 64.8576 
z
" clip-path="url(#p024f65f007)" style="fill: #e2882c; opacity: 0.1; stroke: #e2882c; stroke-width: 2; stroke-linejoin: miter"/>
   </g>
   <g id="patch_3">
    <path d="M 132.75 64.8576 
L 207.15 64.8576 
Q 210.87 64.8576 210.87 61.254 
L 210.87 29.7225 
Q 210.87 26.1189 207.15 26.1189 
L 132.75 26.1189 
Q 129.03 26.1189 129.03 29.7225 
L 129.03 61.254 
Q 129.03 64.8576 132.75 64.8576 
z
" clip-path="url(#p024f65f007)" style="fill: #757575; opacity: 0.1; stroke: #757575; stroke-width: 2; stroke-linejoin: miter"/>
   </g>
   <g id="patch_4">
    <path d="M 225.75 64.8576 
L 300.15 64.8576 
Q 303.87 64.8576 303.87 61.254 
L 303.87 29.7225 
Q 303.87 26.1189 300.15 26.1189 
L 225.75 26.1189 
Q 222.03 26.1189 222.03 29.7225 
L 222.03 61.254 
Q 222.03 64.8576 225.75 64.8576 
z
" clip-path="url(#p024f65f007)" style="fill: #e2882c; opacity: 0.1; stroke: #e2882c; stroke-width: 2; stroke-linejoin: miter"/>
   </g>
   <g id="patch_5">
    <path d="M 318.75 64.8576 
L 393.15 64.8576 
Q 396.87 64.8576 396.87 61.254 
L 396.87 29.7225 
Q 396.87 26.1189 393.15 26.1189 
L 318.75 26.1189 
Q 315.03 26.1189 315.03 29.7225 
L 315.03 61.254 
Q 315.03 64.8576 318.75 64.8576 
z
" clip-path="url(#p024f65f007)" style="fill: #4caf50; opacity: 0.1; stroke: #4caf50; stroke-width: 2; stroke-linejoin: miter"/>
   </g>
   <g id="patch_6">
    <path d="M 411.75 64.8576 
L 486.15 64.8576 
Q 489.87 64.8576 489.87 61.254 
L 489.87 29.7225 
Q 489.87 26.1189 486.15 26.1189 
L 411.75 26.1189 
Q 408.03 26.1189 408.03 29.7225 
L 408.03 61.254 
Q 408.03 64.8576 411.75 64.8576 
z
" clip-path="url(#p024f65f007)" style="fill: #2c5f8a; opacity: 0.1; stroke: #2c5f8a; stroke-width: 2; stroke-linejoin: miter"/>
   </g>
   <g id="patch_7">
    <path d="M 30.45 362.1546 
L 123.45 362.1546 
Q 127.17 362.1546 127.17 358.551 
L 127.17 340.533 
Q 127.17 336.9294 123.45 336.9294 
L 30.45 336.9294 
Q 26.73 336.9294 26.73 340.533 
L 26.73 358.551 
Q 26.73 362.1546 30.45 362.1546 
z
" clip-path="url(#p024f65f007)" style="fill: #9c27b0; opacity: 0.1; stroke: #9c27b0; stroke-width: 2; stroke-linejoin: miter"/>
   </g>
   <g id="patch_8">
    <path d="M 132.75 362.1546 
L 225.75 362.1546 
Q 229.47 362.1546 229.47 358.551 
L 229.47 340.533 
Q 229.47 336.9294 225.75 336.9294 
L 132.75 336.9294 
Q 129.03 336.9294 129.03 340.533 
L 129.03 358.551 
Q 129.03 362.1546 132.75 362.1546 
z
" clip-path="url(#p024f65f007)" style="fill: #9c27b0; opacity: 0.1; stroke: #9c27b0; stroke-width: 2; stroke-linejoin: miter"/>
   </g>
   <g id="patch_9">
    <path d="M 235.05 362.1546 
L 328.05 362.1546 
Q 331.77 362.1546 331.77 358.551 
L 331.77 340.533 
Q 331.77 336.9294 328.05 336.9294 
L 235.05 336.9294 
Q 231.33 336.9294 231.33 340.533 
L 231.33 358.551 
Q 231.33 362.1546 235.05 362.1546 
z
" clip-path="url(#p024f65f007)" style="fill: #9c27b0; opacity: 0.1; stroke: #9c27b0; stroke-width: 2; stroke-linejoin: miter"/>
   </g>
   <g id="patch_10">
    <path d="M 337.35 362.1546 
L 430.35 362.1546 
Q 434.07 362.1546 434.07 358.551 
L 434.07 340.533 
Q 434.07 336.9294 430.35 336.9294 
L 337.35 336.9294 
Q 333.63 336.9294 333.63 340.533 
L 333.63 358.551 
Q 333.63 362.1546 337.35 362.1546 
z
" clip-path="url(#p024f65f007)" style="fill: #9c27b0; opacity: 0.1; stroke: #9c27b0; stroke-width: 2; stroke-linejoin: miter"/>
   </g>
   <g id="patch_11">
    <path d="M 439.65 362.1546 
L 532.65 362.1546 
Q 536.37 362.1546 536.37 358.551 
L 536.37 340.533 
Q 536.37 336.9294 532.65 336.9294 
L 439.65 336.9294 
Q 435.93 336.9294 435.93 340.533 
L 435.93 358.551 
Q 435.93 362.1546 439.65 362.1546 
z
" clip-path="url(#p024f65f007)" style="fill: #9c27b0; opacity: 0.1; stroke: #9c27b0; stroke-width: 2; stroke-linejoin: miter"/>
   </g>
   <g id="line2d_1">
    <path d="M 53.7 354.0465 
L 53.7 74.7675 
" clip-path="url(#p024f65f007)" style="fill: none; stroke-dasharray: 1,1.65; stroke-dashoffset: 0; stroke: #e0e0e0"/>
   </g>
   <g id="line2d_2">
    <path d="M 169.95 354.0465 
L 169.95 74.7675 
" clip-path="url(#p024f65f007)" style="fill: none; stroke-dasharray: 1,1.65; stroke-dashoffset: 0; stroke: #e0e0e0"/>
   </g>
   <g id="line2d_3">
    <path d="M 262.95 354.0465 
L 262.95 74.7675 
" clip-path="url(#p024f65f007)" style="fill: none; stroke-dasharray: 1,1.65; stroke-dashoffset: 0; stroke: #e0e0e0"/>
   </g>
   <g id="line2d_4">
    <path d="M 355.95 354.0465 
L 355.95 74.7675 
" clip-path="url(#p024f65f007)" style="fill: none; stroke-dasharray: 1,1.65; stroke-dashoffset: 0; stroke: #e0e0e0"/>
   </g>
   <g id="line2d_5">
    <path d="M 448.95 354.0465 
L 448.95 74.7675 
" clip-path="url(#p024f65f007)" style="fill: none; stroke-dasharray: 1,1.65; stroke-dashoffset: 0; stroke: #e0e0e0"/>
   </g>
   <g id="text_1">
    <!-- 调试报告生成流程 -->
    <g style="fill: #2c5f8a" transform="translate(230.2 24.794281) scale(0.14 -0.14)">
     <defs>
      <path id="NotoSansCJKjp-Bold-8c03" d="M 512 4877 
C 864 4570 1318 4128 1517 3840 
L 2042 4371 
C 1824 4653 1357 5062 1005 5344 
L 512 4877 
z
M 224 3462 
L 224 2726 
L 979 2726 
L 979 883 
C 979 486 742 179 582 32 
C 710 -64 960 -314 1043 -461 
C 1146 -326 1318 -166 2125 538 
C 2048 288 1939 58 1798 -154 
C 1946 -230 2234 -448 2342 -570 
C 2957 294 3046 1709 3046 2714 
L 3046 4538 
L 5293 4538 
L 5293 243 
C 5293 154 5261 122 5178 115 
C 5088 115 4806 109 4531 128 
C 4634 -51 4736 -378 4755 -563 
C 5197 -570 5491 -550 5696 -435 
C 5914 -314 5971 -109 5971 230 
L 5971 5203 
L 2381 5203 
L 2381 2714 
C 2381 2176 2368 1542 2240 954 
C 2176 1094 2112 1254 2067 1382 
L 1728 1094 
L 1728 3462 
L 224 3462 
z
M 3859 4416 
L 3859 3994 
L 3341 3994 
L 3341 3450 
L 3859 3450 
L 3859 3014 
L 3226 3014 
L 3226 2470 
L 5139 2470 
L 5139 3014 
L 4454 3014 
L 4454 3450 
L 5011 3450 
L 5011 3994 
L 4454 3994 
L 4454 4416 
L 3859 4416 
z
M 3270 2086 
L 3270 205 
L 3827 205 
L 3827 486 
L 5005 486 
L 5005 2086 
L 3270 2086 
z
M 3827 1549 
L 4448 1549 
L 4448 1024 
L 3827 1024 
L 3827 1549 
z
" transform="scale(0.015625)"/>
      <path id="NotoSansCJKjp-Bold-8bd5" d="M 621 4890 
C 966 4582 1408 4154 1606 3866 
L 2138 4390 
C 1920 4666 1459 5075 1120 5350 
L 621 4890 
z
M 2438 2739 
L 2438 2035 
L 2957 2035 
L 2957 659 
L 2554 557 
L 2560 563 
C 2490 710 2406 1011 2368 1216 
L 1798 858 
L 1798 3462 
L 314 3462 
L 314 2726 
L 1069 2726 
L 1069 787 
C 1069 506 870 294 723 205 
C 851 51 1030 -282 1082 -467 
C 1197 -339 1389 -211 2349 422 
L 2522 -205 
C 3072 -45 3763 154 4410 346 
L 4301 1011 
L 3661 838 
L 3661 2035 
L 4141 2035 
L 4141 2739 
L 2438 2739 
z
M 4211 5389 
L 4237 4205 
L 2246 4205 
L 2246 3475 
L 4262 3475 
C 4371 979 4666 -518 5472 -531 
C 5734 -531 6099 -288 6259 954 
C 6138 1024 5786 1235 5658 1395 
C 5632 819 5581 499 5498 506 
C 5274 512 5101 1779 5024 3475 
L 6182 3475 
L 6182 4205 
L 5702 4205 
L 6176 4512 
C 6061 4749 5786 5107 5549 5370 
L 5037 5056 
C 5248 4800 5485 4454 5600 4205 
L 5005 4205 
C 4992 4589 4992 4986 4992 5389 
L 4211 5389 
z
" transform="scale(0.015625)"/>
      <path id="NotoSansCJKjp-Bold-62a5" d="M 3424 2291 
C 3635 1683 3904 1133 4250 666 
C 4006 422 3718 218 3386 45 
L 3386 2291 
L 3424 2291 
z
M 4154 2291 
L 5152 2291 
C 5056 1920 4915 1581 4723 1274 
C 4493 1581 4301 1926 4154 2291 
z
M 2624 5210 
L 2624 -550 
L 3386 -550 
L 3386 -141 
C 3533 -275 3680 -454 3770 -595 
C 4141 -403 4461 -173 4742 102 
C 5024 -166 5344 -397 5709 -570 
C 5830 -365 6061 -64 6240 90 
C 5869 237 5536 448 5242 710 
C 5645 1299 5907 2022 6035 2854 
L 5542 3002 
L 5408 2976 
L 3386 2976 
L 3386 4499 
L 5075 4499 
C 5050 4122 5018 3942 4954 3878 
C 4896 3821 4826 3814 4704 3814 
C 4563 3814 4211 3821 3840 3853 
C 3942 3686 4032 3418 4038 3226 
C 4435 3213 4819 3206 5037 3226 
C 5274 3245 5472 3290 5626 3456 
C 5773 3622 5843 4026 5869 4928 
C 5875 5018 5882 5210 5882 5210 
L 2624 5210 
z
M 1050 5440 
L 1050 4218 
L 237 4218 
L 237 3475 
L 1050 3475 
L 1050 2387 
C 717 2304 410 2240 154 2189 
L 320 1402 
L 1050 1587 
L 1050 294 
C 1050 186 1011 160 902 154 
C 806 154 486 154 186 166 
C 288 -45 390 -365 422 -563 
C 928 -570 1274 -550 1517 -429 
C 1754 -307 1830 -109 1830 288 
L 1830 1792 
L 2509 1978 
L 2413 2726 
L 1830 2579 
L 1830 3475 
L 2445 3475 
L 2445 4218 
L 1830 4218 
L 1830 5440 
L 1050 5440 
z
" transform="scale(0.015625)"/>
      <path id="NotoSansCJKjp-Bold-544a" d="M 1414 5421 
C 1190 4730 794 4019 326 3590 
C 518 3501 870 3302 1030 3181 
C 1210 3379 1389 3629 1562 3904 
L 2957 3904 
L 2957 3168 
L 371 3168 
L 371 2458 
L 6035 2458 
L 6035 3168 
L 3770 3168 
L 3770 3904 
L 5645 3904 
L 5645 4608 
L 3770 4608 
L 3770 5440 
L 2957 5440 
L 2957 4608 
L 1933 4608 
C 2029 4813 2112 5024 2182 5235 
L 1414 5421 
z
M 1107 1997 
L 1107 -595 
L 1894 -595 
L 1894 -282 
L 4595 -282 
L 4595 -576 
L 5414 -576 
L 5414 1997 
L 1107 1997 
z
M 1894 429 
L 1894 1293 
L 4595 1293 
L 4595 429 
L 1894 429 
z
" transform="scale(0.015625)"/>
      <path id="NotoSansCJKjp-Bold-751f" d="M 1331 5357 
C 1107 4474 691 3597 192 3053 
C 384 2950 730 2720 883 2592 
C 1094 2848 1293 3168 1478 3526 
L 2810 3526 
L 2810 2394 
L 1062 2394 
L 1062 1651 
L 2810 1651 
L 2810 358 
L 326 358 
L 326 -390 
L 6112 -390 
L 6112 358 
L 3616 358 
L 3616 1651 
L 5536 1651 
L 5536 2394 
L 3616 2394 
L 3616 3526 
L 5786 3526 
L 5786 4275 
L 3616 4275 
L 3616 5440 
L 2810 5440 
L 2810 4275 
L 1818 4275 
C 1939 4570 2042 4870 2125 5178 
L 1331 5357 
z
" transform="scale(0.015625)"/>
      <path id="NotoSansCJKjp-Bold-6210" d="M 3290 5427 
C 3290 5114 3302 4794 3315 4480 
L 691 4480 
L 691 2598 
C 691 1766 653 640 160 -128 
C 333 -218 678 -499 813 -653 
C 1344 134 1478 1389 1498 2330 
L 2336 2330 
C 2323 1523 2298 1210 2227 1120 
C 2182 1062 2118 1043 2035 1043 
C 1926 1043 1715 1050 1485 1069 
C 1594 877 1677 576 1690 352 
C 1990 346 2266 352 2438 378 
C 2624 410 2758 467 2886 627 
C 3034 819 3066 1395 3091 2746 
C 3091 2835 3091 3027 3091 3027 
L 1498 3027 
L 1498 3725 
L 3360 3725 
C 3443 2758 3584 1856 3808 1126 
C 3437 704 2995 352 2496 83 
C 2662 -64 2944 -384 3053 -550 
C 3450 -307 3808 -19 4134 320 
C 4416 -205 4781 -525 5229 -525 
C 5824 -525 6080 -243 6202 954 
C 5997 1030 5722 1210 5549 1382 
C 5517 576 5440 256 5293 256 
C 5082 256 4877 525 4698 986 
C 5165 1619 5536 2362 5805 3200 
L 5030 3386 
C 4877 2867 4672 2387 4416 1958 
C 4301 2477 4211 3078 4154 3725 
L 6144 3725 
L 6144 4480 
L 5478 4480 
L 5792 4806 
C 5555 5024 5088 5312 4736 5498 
L 4269 5037 
C 4531 4883 4858 4666 5088 4480 
L 4109 4480 
C 4096 4794 4090 5107 4096 5427 
L 3290 5427 
z
" transform="scale(0.015625)"/>
      <path id="NotoSansCJKjp-Bold-6d41" d="M 3661 2278 
L 3661 -294 
L 4333 -294 
L 4333 2278 
L 3661 2278 
z
M 2598 2342 
L 2598 1734 
C 2598 1184 2515 480 1773 -51 
C 1946 -160 2208 -397 2317 -550 
C 3181 96 3283 998 3283 1709 
L 3283 2342 
L 2598 2342 
z
M 550 4845 
C 954 4666 1453 4371 1690 4141 
L 2131 4768 
C 1875 4986 1363 5254 966 5408 
L 550 4845 
z
M 179 3098 
C 582 2931 1101 2643 1338 2426 
L 1779 3066 
C 1517 3277 986 3539 589 3680 
L 179 3098 
z
M 365 -6 
L 1037 -486 
C 1395 141 1773 883 2093 1568 
L 1510 2048 
C 1152 1293 685 486 365 -6 
z
M 4717 2342 
L 4717 365 
C 4717 -77 4762 -211 4877 -320 
C 4979 -429 5152 -480 5306 -480 
C 5395 -480 5536 -480 5638 -480 
C 5760 -480 5907 -448 5990 -397 
C 6099 -333 6163 -243 6208 -102 
C 6246 32 6272 365 6285 646 
C 6112 710 5894 826 5766 934 
C 5760 646 5754 422 5747 320 
C 5734 218 5722 166 5696 154 
C 5677 134 5645 128 5613 128 
C 5581 128 5542 128 5510 128 
C 5485 128 5459 141 5446 160 
C 5427 186 5427 237 5427 346 
L 5427 2342 
L 4717 2342 
z
M 2138 3219 
L 2214 2502 
C 3066 2534 4243 2592 5363 2662 
C 5466 2515 5549 2374 5606 2253 
L 6253 2598 
C 6048 3002 5568 3558 5146 3949 
L 4557 3642 
C 4659 3533 4768 3418 4877 3296 
L 3654 3258 
C 3789 3482 3930 3738 4064 3981 
L 6150 3981 
L 6150 4666 
L 4442 4666 
L 4442 5440 
L 3661 5440 
L 3661 4666 
L 2099 4666 
L 2099 3981 
L 3194 3981 
C 3104 3731 2982 3462 2867 3232 
L 2138 3219 
z
" transform="scale(0.015625)"/>
      <path id="NotoSansCJKjp-Bold-7a0b" d="M 3648 4550 
L 5146 4550 
L 5146 3667 
L 3648 3667 
L 3648 4550 
z
M 2938 5197 
L 2938 3021 
L 5888 3021 
L 5888 5197 
L 2938 5197 
z
M 2886 1446 
L 2886 800 
L 4006 800 
L 4006 237 
L 2483 237 
L 2483 -435 
L 6202 -435 
L 6202 237 
L 4774 237 
L 4774 800 
L 5907 800 
L 5907 1446 
L 4774 1446 
L 4774 1978 
L 6061 1978 
L 6061 2637 
L 2733 2637 
L 2733 1978 
L 4006 1978 
L 4006 1446 
L 2886 1446 
z
M 2176 5370 
C 1683 5152 896 4960 186 4845 
C 269 4685 365 4429 403 4256 
C 653 4288 915 4333 1184 4378 
L 1184 3635 
L 262 3635 
L 262 2925 
L 1082 2925 
C 851 2304 486 1613 128 1197 
C 250 1005 416 685 486 467 
C 736 787 979 1242 1184 1734 
L 1184 -570 
L 1926 -570 
L 1926 1939 
C 2080 1702 2234 1453 2310 1286 
L 2752 1894 
C 2630 2035 2099 2592 1926 2733 
L 1926 2925 
L 2611 2925 
L 2611 3635 
L 1926 3635 
L 1926 4544 
C 2202 4608 2464 4691 2694 4781 
L 2176 5370 
z
" transform="scale(0.015625)"/>
     </defs>
     <use xlink:href="#NotoSansCJKjp-Bold-8c03"/>
     <use xlink:href="#NotoSansCJKjp-Bold-8bd5" transform="translate(99.999985 0)"/>
     <use xlink:href="#NotoSansCJKjp-Bold-62a5" transform="translate(199.999969 0)"/>
     <use xlink:href="#NotoSansCJKjp-Bold-544a" transform="translate(299.999954 0)"/>
     <use xlink:href="#NotoSansCJKjp-Bold-751f" transform="translate(399.999939 0)"/>
     <use xlink:href="#NotoSansCJKjp-Bold-6210" transform="translate(499.999924 0)"/>
     <use xlink:href="#NotoSansCJKjp-Bold-6d41" transform="translate(599.999908 0)"/>
     <use xlink:href="#NotoSansCJKjp-Bold-7a0b" transform="translate(699.999893 0)"/>
    </g>
   </g>
   <g id="text_2">
    <!-- 用户代码 -->
    <g style="fill: #e2882c" transform="translate(39.7 47.528641) scale(0.07 -0.07)">
     <defs>
      <path id="NotoSansCJKjp-Bold-7528" d="M 909 5011 
L 909 2714 
C 909 1811 851 666 147 -109 
C 320 -205 634 -467 755 -608 
C 1216 -109 1453 595 1562 1299 
L 2880 1299 
L 2880 -493 
L 3654 -493 
L 3654 1299 
L 5005 1299 
L 5005 339 
C 5005 224 4960 186 4845 186 
C 4723 186 4301 179 3936 198 
C 4038 0 4160 -333 4186 -538 
C 4768 -544 5158 -525 5421 -403 
C 5683 -288 5773 -77 5773 333 
L 5773 5011 
L 909 5011 
z
M 1664 4275 
L 2880 4275 
L 2880 3533 
L 1664 3533 
L 1664 4275 
z
M 5005 4275 
L 5005 3533 
L 3654 3533 
L 3654 4275 
L 5005 4275 
z
M 1664 2816 
L 2880 2816 
L 2880 2022 
L 1645 2022 
C 1658 2266 1664 2496 1664 2707 
L 1664 2816 
z
M 5005 2816 
L 5005 2022 
L 3654 2022 
L 3654 2816 
L 5005 2816 
z
" transform="scale(0.015625)"/>
      <path id="NotoSansCJKjp-Bold-6237" d="M 1728 3757 
L 4762 3757 
L 4762 2752 
L 1728 2752 
L 1728 3021 
L 1728 3757 
z
M 2682 5280 
C 2790 5037 2918 4710 2995 4474 
L 922 4474 
L 922 3021 
C 922 2086 858 755 166 -154 
C 352 -237 698 -480 845 -621 
C 1389 90 1606 1120 1690 2035 
L 4762 2035 
L 4762 1702 
L 5549 1702 
L 5549 4474 
L 3430 4474 
L 3814 4582 
C 3738 4832 3590 5197 3450 5472 
L 2682 5280 
z
" transform="scale(0.015625)"/>
      <path id="NotoSansCJKjp-Bold-4ee3" d="M 4582 5030 
C 4915 4710 5299 4256 5459 3962 
L 6080 4352 
C 5894 4653 5491 5088 5158 5389 
L 4582 5030 
z
M 3373 5338 
C 3392 4659 3424 4032 3475 3450 
L 2176 3277 
L 2285 2541 
L 3546 2714 
C 3782 749 4282 -461 5376 -557 
C 5734 -582 6086 -288 6246 954 
C 6106 1030 5766 1229 5619 1395 
C 5568 685 5491 358 5344 371 
C 4826 442 4493 1389 4314 2816 
L 6176 3072 
L 6067 3795 
L 4237 3552 
C 4192 4102 4166 4704 4154 5338 
L 3373 5338 
z
M 1818 5382 
C 1427 4416 755 3469 58 2874 
C 192 2688 416 2278 486 2093 
C 717 2304 941 2547 1158 2816 
L 1158 -563 
L 1952 -563 
L 1952 3968 
C 2182 4352 2387 4755 2554 5146 
L 1818 5382 
z
" transform="scale(0.015625)"/>
      <path id="NotoSansCJKjp-Bold-7801" d="M 2682 1395 
L 2682 717 
L 4966 717 
L 4966 1395 
L 2682 1395 
z
M 3117 4173 
C 3072 3475 2976 2573 2886 2016 
L 3091 2016 
L 5299 2010 
C 5203 838 5082 333 4941 198 
C 4877 128 4813 115 4710 115 
C 4589 115 4339 115 4077 141 
C 4186 -45 4269 -339 4282 -544 
C 4589 -557 4870 -550 5050 -531 
C 5261 -506 5408 -442 5562 -269 
C 5786 -26 5926 666 6054 2362 
C 6067 2451 6080 2662 6080 2662 
L 5370 2662 
C 5466 3462 5562 4371 5606 5088 
L 5069 5139 
L 4947 5107 
L 2810 5107 
L 2810 4416 
L 4819 4416 
C 4774 3891 4710 3245 4640 2662 
L 3686 2662 
C 3744 3130 3795 3667 3834 4128 
L 3117 4173 
z
M 275 5152 
L 275 4461 
L 960 4461 
C 800 3610 538 2822 134 2291 
C 237 2067 378 1581 403 1382 
C 493 1491 582 1613 666 1741 
L 666 -269 
L 1312 -269 
L 1312 211 
L 2445 211 
L 2445 3162 
L 1331 3162 
C 1472 3578 1587 4019 1677 4461 
L 2586 4461 
L 2586 5152 
L 275 5152 
z
M 1312 2490 
L 1786 2490 
L 1786 877 
L 1312 877 
L 1312 2490 
z
" transform="scale(0.015625)"/>
     </defs>
     <use xlink:href="#NotoSansCJKjp-Bold-7528"/>
     <use xlink:href="#NotoSansCJKjp-Bold-6237" transform="translate(99.999985 0)"/>
     <use xlink:href="#NotoSansCJKjp-Bold-4ee3" transform="translate(199.999969 0)"/>
     <use xlink:href="#NotoSansCJKjp-Bold-7801" transform="translate(299.999954 0)"/>
    </g>
   </g>
   <g id="text_3">
    <!-- TORCH_COMPILE_DEBUG -->
    <g style="fill: #757575" transform="translate(125.962109 47.528641) scale(0.07 -0.07)">
     <defs>
      <path id="NotoSansCJKjp-Bold-54" d="M 1523 0 
L 2470 0 
L 2470 3949 
L 3808 3949 
L 3808 4742 
L 192 4742 
L 192 3949 
L 1523 3949 
L 1523 0 
z
" transform="scale(0.015625)"/>
      <path id="NotoSansCJKjp-Bold-4f" d="M 2464 -90 
C 3718 -90 4582 851 4582 2394 
C 4582 3930 3718 4826 2464 4826 
C 1210 4826 346 3930 346 2394 
C 346 851 1210 -90 2464 -90 
z
M 2464 730 
C 1760 730 1318 1382 1318 2394 
C 1318 3405 1760 4013 2464 4013 
C 3168 4013 3616 3405 3616 2394 
C 3616 1382 3168 730 2464 730 
z
" transform="scale(0.015625)"/>
      <path id="NotoSansCJKjp-Bold-52" d="M 1530 2541 
L 1530 3987 
L 2144 3987 
C 2752 3987 3085 3814 3085 3302 
C 3085 2797 2752 2541 2144 2541 
L 1530 2541 
z
M 3162 0 
L 4218 0 
L 3110 1939 
C 3654 2150 4013 2592 4013 3302 
C 4013 4390 3226 4742 2227 4742 
L 582 4742 
L 582 0 
L 1530 0 
L 1530 1792 
L 2189 1792 
L 3162 0 
z
" transform="scale(0.015625)"/>
      <path id="NotoSansCJKjp-Bold-43" d="M 2509 -90 
C 3130 -90 3635 154 4026 608 
L 3520 1197 
C 3270 922 2957 730 2547 730 
C 1798 730 1318 1350 1318 2381 
C 1318 3398 1850 4013 2566 4013 
C 2925 4013 3200 3846 3443 3616 
L 3936 4218 
C 3629 4538 3155 4826 2547 4826 
C 1350 4826 346 3910 346 2349 
C 346 768 1318 -90 2509 -90 
z
" transform="scale(0.015625)"/>
      <path id="NotoSansCJKjp-Bold-48" d="M 582 0 
L 1530 0 
L 1530 2048 
L 3322 2048 
L 3322 0 
L 4262 0 
L 4262 4742 
L 3322 4742 
L 3322 2867 
L 1530 2867 
L 1530 4742 
L 582 4742 
L 582 0 
z
" transform="scale(0.015625)"/>
      <path id="NotoSansCJKjp-Bold-5f" d="M 90 -992 
L 3539 -992 
L 3539 -448 
L 90 -448 
L 90 -992 
z
" transform="scale(0.015625)"/>
      <path id="NotoSansCJKjp-Bold-4d" d="M 582 0 
L 1434 0 
L 1434 1978 
C 1434 2432 1357 3085 1312 3533 
L 1338 3533 
L 1715 2419 
L 2451 429 
L 2995 429 
L 3725 2419 
L 4109 3533 
L 4141 3533 
C 4090 3085 4019 2432 4019 1978 
L 4019 0 
L 4883 0 
L 4883 4742 
L 3834 4742 
L 3040 2515 
C 2944 2227 2861 1914 2758 1613 
L 2726 1613 
C 2630 1914 2541 2227 2438 2515 
L 1632 4742 
L 582 4742 
L 582 0 
z
" transform="scale(0.015625)"/>
      <path id="NotoSansCJKjp-Bold-50" d="M 582 0 
L 1530 0 
L 1530 1683 
L 2163 1683 
C 3181 1683 3994 2170 3994 3251 
C 3994 4371 3187 4742 2138 4742 
L 582 4742 
L 582 0 
z
M 1530 2432 
L 1530 3987 
L 2067 3987 
C 2720 3987 3066 3802 3066 3251 
C 3066 2707 2752 2432 2099 2432 
L 1530 2432 
z
" transform="scale(0.015625)"/>
      <path id="NotoSansCJKjp-Bold-49" d="M 582 0 
L 1530 0 
L 1530 4742 
L 582 4742 
L 582 0 
z
" transform="scale(0.015625)"/>
      <path id="NotoSansCJKjp-Bold-4c" d="M 582 0 
L 3456 0 
L 3456 794 
L 1530 794 
L 1530 4742 
L 582 4742 
L 582 0 
z
" transform="scale(0.015625)"/>
      <path id="NotoSansCJKjp-Bold-45" d="M 582 0 
L 3558 0 
L 3558 794 
L 1530 794 
L 1530 2061 
L 3187 2061 
L 3187 2854 
L 1530 2854 
L 1530 3949 
L 3488 3949 
L 3488 4742 
L 582 4742 
L 582 0 
z
" transform="scale(0.015625)"/>
      <path id="NotoSansCJKjp-Bold-44" d="M 582 0 
L 1933 0 
C 3334 0 4224 794 4224 2394 
C 4224 3987 3334 4742 1882 4742 
L 582 4742 
L 582 0 
z
M 1530 768 
L 1530 3981 
L 1818 3981 
C 2707 3981 3258 3546 3258 2394 
C 3258 1242 2707 768 1818 768 
L 1530 768 
z
" transform="scale(0.015625)"/>
      <path id="NotoSansCJKjp-Bold-42" d="M 582 0 
L 2272 0 
C 3315 0 4102 442 4102 1395 
C 4102 2029 3731 2394 3219 2515 
L 3219 2541 
C 3622 2688 3866 3130 3866 3571 
C 3866 4454 3123 4742 2150 4742 
L 582 4742 
L 582 0 
z
M 1530 2810 
L 1530 4013 
L 2093 4013 
C 2662 4013 2944 3846 2944 3430 
C 2944 3053 2688 2810 2086 2810 
L 1530 2810 
z
M 1530 730 
L 1530 2112 
L 2189 2112 
C 2842 2112 3181 1914 3181 1453 
C 3181 960 2829 730 2189 730 
L 1530 730 
z
" transform="scale(0.015625)"/>
      <path id="NotoSansCJKjp-Bold-55" d="M 2406 -90 
C 3558 -90 4230 563 4230 2131 
L 4230 4742 
L 3322 4742 
L 3322 2048 
C 3322 1062 2957 730 2406 730 
C 1850 730 1504 1062 1504 2048 
L 1504 4742 
L 563 4742 
L 563 2131 
C 563 563 1242 -90 2406 -90 
z
" transform="scale(0.015625)"/>
      <path id="NotoSansCJKjp-Bold-47" d="M 2618 -90 
C 3270 -90 3834 160 4160 480 
L 4160 2618 
L 2470 2618 
L 2470 1843 
L 3309 1843 
L 3309 909 
C 3181 794 2944 730 2720 730 
C 1786 730 1318 1350 1318 2381 
C 1318 3398 1856 4013 2650 4013 
C 3072 4013 3341 3840 3578 3616 
L 4083 4218 
C 3776 4531 3302 4826 2618 4826 
C 1357 4826 346 3910 346 2349 
C 346 768 1331 -90 2618 -90 
z
" transform="scale(0.015625)"/>
     </defs>
     <use xlink:href="#NotoSansCJKjp-Bold-54"/>
     <use xlink:href="#NotoSansCJKjp-Bold-4f" transform="translate(62.499985 0)"/>
     <use xlink:href="#NotoSansCJKjp-Bold-52" transform="translate(139.499969 0)"/>
     <use xlink:href="#NotoSansCJKjp-Bold-43" transform="translate(207.699951 0)"/>
     <use xlink:href="#NotoSansCJKjp-Bold-48" transform="translate(273.299942 0)"/>
     <use xlink:href="#NotoSansCJKjp-Bold-5f" transform="translate(348.999924 0)"/>
     <use xlink:href="#NotoSansCJKjp-Bold-43" transform="translate(405.699921 0)"/>
     <use xlink:href="#NotoSansCJKjp-Bold-4f" transform="translate(471.299911 0)"/>
     <use xlink:href="#NotoSansCJKjp-Bold-4d" transform="translate(548.299896 0)"/>
     <use xlink:href="#NotoSansCJKjp-Bold-50" transform="translate(633.599884 0)"/>
     <use xlink:href="#NotoSansCJKjp-Bold-49" transform="translate(700.299881 0)"/>
     <use xlink:href="#NotoSansCJKjp-Bold-4c" transform="translate(733.299866 0)"/>
     <use xlink:href="#NotoSansCJKjp-Bold-45" transform="translate(791.099854 0)"/>
     <use xlink:href="#NotoSansCJKjp-Bold-5f" transform="translate(852.599838 0)"/>
     <use xlink:href="#NotoSansCJKjp-Bold-44" transform="translate(909.299835 0)"/>
     <use xlink:href="#NotoSansCJKjp-Bold-45" transform="translate(980.699829 0)"/>
     <use xlink:href="#NotoSansCJKjp-Bold-42" transform="translate(1042.199814 0)"/>
     <use xlink:href="#NotoSansCJKjp-Bold-55" transform="translate(1110.299805 0)"/>
     <use xlink:href="#NotoSansCJKjp-Bold-47" transform="translate(1185.099792 0)"/>
    </g>
   </g>
   <g id="text_4">
    <!-- TorchDynamo -->
    <g style="fill: #e2882c" transform="translate(238.576328 47.496922) scale(0.07 -0.07)">
     <defs>
      <path id="NotoSansCJKjp-Bold-6f" d="M 2003 -90 
C 2899 -90 3725 602 3725 1792 
C 3725 2982 2899 3674 2003 3674 
C 1101 3674 282 2982 282 1792 
C 282 602 1101 -90 2003 -90 
z
M 2003 678 
C 1510 678 1242 1114 1242 1792 
C 1242 2464 1510 2906 2003 2906 
C 2490 2906 2765 2464 2765 1792 
C 2765 1114 2490 678 2003 678 
z
" transform="scale(0.015625)"/>
      <path id="NotoSansCJKjp-Bold-72" d="M 506 0 
L 1446 0 
L 1446 2138 
C 1651 2656 1984 2842 2259 2842 
C 2413 2842 2515 2822 2643 2784 
L 2797 3597 
C 2694 3642 2579 3674 2381 3674 
C 2010 3674 1626 3418 1363 2950 
L 1344 2950 
L 1274 3584 
L 506 3584 
L 506 0 
z
" transform="scale(0.015625)"/>
      <path id="NotoSansCJKjp-Bold-63" d="M 2029 -90 
C 2426 -90 2861 45 3200 346 
L 2829 966 
C 2630 800 2394 678 2131 678 
C 1613 678 1242 1114 1242 1792 
C 1242 2464 1613 2906 2163 2906 
C 2362 2906 2528 2822 2707 2675 
L 3155 3270 
C 2893 3507 2554 3674 2112 3674 
C 1139 3674 282 2982 282 1792 
C 282 602 1043 -90 2029 -90 
z
" transform="scale(0.015625)"/>
      <path id="NotoSansCJKjp-Bold-68" d="M 506 0 
L 1446 0 
L 1446 2464 
C 1709 2726 1901 2867 2189 2867 
C 2541 2867 2694 2675 2694 2118 
L 2694 0 
L 3635 0 
L 3635 2234 
C 3635 3136 3302 3674 2528 3674 
C 2042 3674 1683 3418 1402 3149 
L 1446 3821 
L 1446 5107 
L 506 5107 
L 506 0 
z
" transform="scale(0.015625)"/>
      <path id="NotoSansCJKjp-Bold-79" d="M 819 -1434 
C 1619 -1434 2003 -954 2317 -109 
L 3590 3584 
L 2688 3584 
L 2195 1920 
C 2106 1587 2016 1242 1939 909 
L 1907 909 
C 1805 1254 1715 1600 1606 1920 
L 1037 3584 
L 90 3584 
L 1485 70 
L 1421 -147 
C 1318 -461 1114 -691 749 -691 
C 666 -691 563 -666 499 -646 
L 326 -1370 
C 467 -1408 608 -1434 819 -1434 
z
" transform="scale(0.015625)"/>
      <path id="NotoSansCJKjp-Bold-6e" d="M 506 0 
L 1446 0 
L 1446 2464 
C 1709 2726 1901 2867 2189 2867 
C 2541 2867 2694 2675 2694 2118 
L 2694 0 
L 3635 0 
L 3635 2234 
C 3635 3136 3302 3674 2528 3674 
C 2042 3674 1677 3418 1363 3110 
L 1344 3110 
L 1274 3584 
L 506 3584 
L 506 0 
z
" transform="scale(0.015625)"/>
      <path id="NotoSansCJKjp-Bold-61" d="M 1382 -90 
C 1798 -90 2157 109 2464 384 
L 2496 384 
L 2560 0 
L 3328 0 
L 3328 2093 
C 3328 3130 2861 3674 1952 3674 
C 1389 3674 877 3456 461 3200 
L 794 2573 
C 1126 2771 1446 2918 1779 2918 
C 2221 2918 2374 2650 2387 2298 
C 947 2144 326 1741 326 979 
C 326 365 742 -90 1382 -90 
z
M 1696 646 
C 1421 646 1222 768 1222 1050 
C 1222 1376 1510 1613 2387 1715 
L 2387 998 
C 2163 774 1965 646 1696 646 
z
" transform="scale(0.015625)"/>
      <path id="NotoSansCJKjp-Bold-6d" d="M 506 0 
L 1446 0 
L 1446 2464 
C 1696 2739 1926 2867 2131 2867 
C 2477 2867 2637 2675 2637 2118 
L 2637 0 
L 3571 0 
L 3571 2464 
C 3827 2739 4058 2867 4262 2867 
C 4602 2867 4762 2675 4762 2118 
L 4762 0 
L 5696 0 
L 5696 2234 
C 5696 3136 5350 3674 4589 3674 
C 4128 3674 3776 3392 3443 3046 
C 3277 3443 2976 3674 2464 3674 
C 1997 3674 1664 3418 1363 3104 
L 1344 3104 
L 1274 3584 
L 506 3584 
L 506 0 
z
" transform="scale(0.015625)"/>
     </defs>
     <use xlink:href="#NotoSansCJKjp-Bold-54"/>
     <use xlink:href="#NotoSansCJKjp-Bold-6f" transform="translate(62.499985 0)"/>
     <use xlink:href="#NotoSansCJKjp-Bold-72" transform="translate(125.099976 0)"/>
     <use xlink:href="#NotoSansCJKjp-Bold-63" transform="translate(168.699966 0)"/>
     <use xlink:href="#NotoSansCJKjp-Bold-68" transform="translate(221.399963 0)"/>
     <use xlink:href="#NotoSansCJKjp-Bold-44" transform="translate(285.399948 0)"/>
     <use xlink:href="#NotoSansCJKjp-Bold-79" transform="translate(356.799942 0)"/>
     <use xlink:href="#NotoSansCJKjp-Bold-6e" transform="translate(414.199936 0)"/>
     <use xlink:href="#NotoSansCJKjp-Bold-61" transform="translate(478.299927 0)"/>
     <use xlink:href="#NotoSansCJKjp-Bold-6d" transform="translate(537.399918 0)"/>
     <use xlink:href="#NotoSansCJKjp-Bold-6f" transform="translate(633.799911 0)"/>
    </g>
   </g>
   <g id="text_5">
    <!-- TorchInductor -->
    <g style="fill: #4caf50" transform="translate(331.044766 47.528641) scale(0.07 -0.07)">
     <defs>
      <path id="NotoSansCJKjp-Bold-64" d="M 1766 -90 
C 2138 -90 2496 109 2758 371 
L 2784 371 
L 2854 0 
L 3622 0 
L 3622 5107 
L 2682 5107 
L 2682 3846 
L 2714 3283 
C 2458 3520 2208 3674 1805 3674 
C 1037 3674 301 2957 301 1792 
C 301 614 870 -90 1766 -90 
z
M 2010 685 
C 1536 685 1267 1056 1267 1805 
C 1267 2515 1606 2899 2010 2899 
C 2240 2899 2464 2829 2682 2630 
L 2682 1056 
C 2477 787 2259 685 2010 685 
z
" transform="scale(0.015625)"/>
      <path id="NotoSansCJKjp-Bold-75" d="M 1574 -90 
C 2067 -90 2406 154 2714 518 
L 2739 518 
L 2810 0 
L 3578 0 
L 3578 3584 
L 2637 3584 
L 2637 1165 
C 2394 845 2202 717 1914 717 
C 1562 717 1402 909 1402 1466 
L 1402 3584 
L 467 3584 
L 467 1350 
C 467 448 800 -90 1574 -90 
z
" transform="scale(0.015625)"/>
      <path id="NotoSansCJKjp-Bold-74" d="M 1818 -90 
C 2131 -90 2381 -13 2579 45 
L 2419 730 
C 2323 691 2182 653 2067 653 
C 1747 653 1574 845 1574 1254 
L 1574 2842 
L 2464 2842 
L 2464 3584 
L 1574 3584 
L 1574 4550 
L 800 4550 
L 691 3584 
L 134 3539 
L 134 2842 
L 640 2842 
L 640 1248 
C 640 454 966 -90 1818 -90 
z
" transform="scale(0.015625)"/>
     </defs>
     <use xlink:href="#NotoSansCJKjp-Bold-54"/>
     <use xlink:href="#NotoSansCJKjp-Bold-6f" transform="translate(62.499985 0)"/>
     <use xlink:href="#NotoSansCJKjp-Bold-72" transform="translate(125.099976 0)"/>
     <use xlink:href="#NotoSansCJKjp-Bold-63" transform="translate(168.699966 0)"/>
     <use xlink:href="#NotoSansCJKjp-Bold-68" transform="translate(221.399963 0)"/>
     <use xlink:href="#NotoSansCJKjp-Bold-49" transform="translate(285.399948 0)"/>
     <use xlink:href="#NotoSansCJKjp-Bold-6e" transform="translate(318.399933 0)"/>
     <use xlink:href="#NotoSansCJKjp-Bold-64" transform="translate(382.499924 0)"/>
     <use xlink:href="#NotoSansCJKjp-Bold-75" transform="translate(446.899918 0)"/>
     <use xlink:href="#NotoSansCJKjp-Bold-63" transform="translate(510.599915 0)"/>
     <use xlink:href="#NotoSansCJKjp-Bold-74" transform="translate(563.299911 0)"/>
     <use xlink:href="#NotoSansCJKjp-Bold-6f" transform="translate(605.399902 0)"/>
     <use xlink:href="#NotoSansCJKjp-Bold-72" transform="translate(667.999893 0)"/>
    </g>
   </g>
   <g id="text_6">
    <!-- 报告生成器 -->
    <g style="fill: #2c5f8a" transform="translate(431.45 47.528641) scale(0.07 -0.07)">
     <defs>
      <path id="NotoSansCJKjp-Bold-5668" d="M 1389 4589 
L 2163 4589 
L 2163 3923 
L 1389 3923 
L 1389 4589 
z
M 4192 4589 
L 4973 4589 
L 4973 3923 
L 4192 3923 
L 4192 4589 
z
M 3430 1581 
L 3430 -589 
L 4102 -589 
L 4102 -378 
L 4870 -378 
L 4870 -576 
L 5581 -576 
L 5581 973 
L 5856 883 
C 5965 1069 6176 1350 6342 1498 
C 5690 1651 5082 1939 4634 2298 
L 6125 2298 
L 6125 2970 
L 3302 2970 
C 3373 3085 3437 3200 3494 3322 
L 5702 3322 
L 5702 5190 
L 3494 5190 
L 3494 3354 
L 2899 3552 
L 2899 5190 
L 698 5190 
L 698 3322 
L 2618 3322 
C 2547 3200 2464 3085 2374 2970 
L 294 2970 
L 294 2298 
L 1677 2298 
C 1229 1958 678 1690 77 1491 
C 224 1363 442 1069 531 896 
L 806 998 
L 806 -589 
L 1472 -589 
L 1472 -378 
L 2234 -378 
L 2234 -576 
L 2931 -576 
L 2931 1581 
L 1933 1581 
C 2253 1792 2541 2029 2790 2298 
L 3622 2298 
C 3846 2029 4109 1792 4403 1581 
L 3430 1581 
z
M 1472 250 
L 1472 954 
L 2234 954 
L 2234 250 
L 1472 250 
z
M 4102 250 
L 4102 954 
L 4870 954 
L 4870 250 
L 4102 250 
z
" transform="scale(0.015625)"/>
     </defs>
     <use xlink:href="#NotoSansCJKjp-Bold-62a5"/>
     <use xlink:href="#NotoSansCJKjp-Bold-544a" transform="translate(99.999985 0)"/>
     <use xlink:href="#NotoSansCJKjp-Bold-751f" transform="translate(199.999969 0)"/>
     <use xlink:href="#NotoSansCJKjp-Bold-6210" transform="translate(299.999954 0)"/>
     <use xlink:href="#NotoSansCJKjp-Bold-5668" transform="translate(399.999939 0)"/>
    </g>
   </g>
   <g id="patch_12">
    <path d="M 55.697337 83.7765 
Q 111.824725 83.7765 166.275062 83.7765 
" style="fill: none; stroke: #e2882c; stroke-width: 1.5; stroke-linecap: round"/>
    <path d="M 161.875062 81.5765 
L 166.275062 83.7765 
L 161.875062 85.9765 
" style="fill: none; stroke: #e2882c; stroke-width: 1.5; stroke-linecap: round"/>
   </g>
   <g id="text_7">
    <!-- 设置环境变量 -->
    <g style="fill: #757575" transform="translate(93.825 78.720375) scale(0.06 -0.06)">
     <defs>
      <path id="NotoSansCJKjp-Regular-8bbe" d="M 781 4966 
C 1120 4666 1549 4237 1747 3962 
L 2074 4301 
C 1869 4563 1440 4979 1094 5261 
L 781 4966 
z
M 275 3366 
L 275 2906 
L 1178 2906 
L 1178 608 
C 1178 314 979 102 858 26 
C 947 -70 1075 -269 1120 -384 
C 1216 -256 1389 -128 2528 717 
C 2470 813 2394 992 2355 1120 
L 1645 602 
L 1645 3366 
L 275 3366 
z
M 3142 5146 
L 3142 4435 
C 3142 3962 3002 3430 2157 3046 
C 2246 2970 2413 2784 2470 2688 
C 3392 3130 3597 3821 3597 4422 
L 3597 4698 
L 4730 4698 
L 4730 3667 
C 4730 3181 4819 3002 5267 3002 
C 5338 3002 5651 3002 5747 3002 
C 5875 3002 6010 3008 6086 3034 
C 6067 3142 6054 3328 6042 3450 
C 5965 3430 5830 3418 5741 3418 
C 5658 3418 5370 3418 5299 3418 
C 5197 3418 5184 3475 5184 3661 
L 5184 5146 
L 3142 5146 
z
M 5152 2099 
C 4922 1587 4576 1165 4154 826 
C 3725 1178 3386 1606 3155 2099 
L 5152 2099 
z
M 2458 2547 
L 2458 2099 
L 2790 2099 
L 2701 2067 
C 2957 1478 3322 966 3776 550 
C 3296 243 2746 32 2182 -96 
C 2272 -198 2374 -390 2413 -512 
C 3034 -346 3622 -102 4141 250 
C 4627 -109 5210 -371 5869 -531 
C 5926 -397 6061 -205 6163 -102 
C 5549 26 4998 250 4531 550 
C 5075 1024 5510 1638 5766 2438 
L 5472 2566 
L 5389 2547 
L 2458 2547 
z
" transform="scale(0.015625)"/>
      <path id="NotoSansCJKjp-Regular-7f6e" d="M 4154 4762 
L 5235 4762 
L 5235 4186 
L 4154 4186 
L 4154 4762 
z
M 2656 4762 
L 3712 4762 
L 3712 4186 
L 2656 4186 
L 2656 4762 
z
M 1197 4762 
L 2214 4762 
L 2214 4186 
L 1197 4186 
L 1197 4762 
z
M 2374 1798 
L 4979 1798 
L 4979 1440 
L 2374 1440 
L 2374 1798 
z
M 2374 1152 
L 4979 1152 
L 4979 794 
L 2374 794 
L 2374 1152 
z
M 2374 2432 
L 4979 2432 
L 4979 2086 
L 2374 2086 
L 2374 2432 
z
M 1920 2726 
L 1920 499 
L 5440 499 
L 5440 2726 
L 3347 2726 
L 3418 3104 
L 5971 3104 
L 5971 3482 
L 3482 3482 
L 3533 3834 
L 5715 3834 
L 5715 5107 
L 736 5107 
L 736 3834 
L 3046 3834 
L 3002 3482 
L 435 3482 
L 435 3104 
L 2944 3104 
L 2880 2726 
L 1920 2726 
z
M 787 2630 
L 787 -518 
L 1274 -518 
L 1274 -243 
L 6138 -243 
L 6138 141 
L 1274 141 
L 1274 2630 
L 787 2630 
z
" transform="scale(0.015625)"/>
      <path id="NotoSansCJKjp-Regular-73af" d="M 4333 3162 
C 4813 2624 5382 1888 5638 1434 
L 6029 1734 
C 5760 2176 5171 2893 4698 3418 
L 4333 3162 
z
M 230 653 
L 352 198 
C 877 390 1555 627 2195 864 
L 2118 1299 
L 1472 1069 
L 1472 2643 
L 2042 2643 
L 2042 3091 
L 1472 3091 
L 1472 4493 
L 2176 4493 
L 2176 4941 
L 262 4941 
L 262 4493 
L 1024 4493 
L 1024 3091 
L 358 3091 
L 358 2643 
L 1024 2643 
L 1024 915 
L 230 653 
z
M 2502 4966 
L 2502 4499 
L 4134 4499 
C 3731 3373 3066 2374 2266 1734 
C 2381 1645 2566 1453 2643 1357 
C 3085 1747 3494 2246 3853 2816 
L 3853 -493 
L 4326 -493 
L 4326 3693 
C 4448 3955 4563 4224 4659 4499 
L 6042 4499 
L 6042 4966 
L 2502 4966 
z
" transform="scale(0.015625)"/>
      <path id="NotoSansCJKjp-Regular-5883" d="M 3104 1888 
L 5312 1888 
L 5312 1402 
L 3104 1402 
L 3104 1888 
z
M 3104 2675 
L 5312 2675 
L 5312 2202 
L 3104 2202 
L 3104 2675 
z
M 218 992 
L 390 512 
C 954 774 1690 1126 2381 1459 
L 2272 1894 
L 1536 1555 
L 1536 3360 
L 2195 3360 
L 2195 3334 
L 6144 3334 
L 6144 3744 
L 5056 3744 
C 5158 3923 5280 4166 5395 4403 
L 5037 4486 
L 5997 4486 
L 5997 4877 
L 4390 4877 
L 4390 5370 
L 3917 5370 
L 3917 4877 
L 2406 4877 
L 2406 4486 
L 3354 4486 
L 3021 4403 
C 3130 4198 3232 3936 3277 3744 
L 2208 3744 
L 2208 3814 
L 1536 3814 
L 1536 5306 
L 1082 5306 
L 1082 3814 
L 339 3814 
L 339 3360 
L 1082 3360 
L 1082 1357 
C 755 1210 461 1082 218 992 
z
M 4922 4486 
C 4851 4282 4717 3987 4614 3795 
L 4819 3744 
L 3450 3744 
L 3718 3814 
C 3674 4000 3565 4282 3443 4486 
L 4922 4486 
z
M 2656 3008 
L 2656 1075 
L 3296 1075 
C 3162 474 2803 102 1760 -109 
C 1850 -205 1984 -403 2029 -512 
C 3200 -224 3610 275 3770 1075 
L 4442 1075 
L 4442 102 
C 4442 -339 4550 -474 5018 -474 
C 5114 -474 5549 -474 5651 -474 
C 6029 -474 6150 -301 6195 416 
C 6067 442 5875 518 5786 595 
C 5766 19 5741 -51 5600 -51 
C 5504 -51 5152 -51 5082 -51 
C 4922 -51 4896 -26 4896 109 
L 4896 1075 
L 5779 1075 
L 5779 3008 
L 2656 3008 
z
" transform="scale(0.015625)"/>
      <path id="NotoSansCJKjp-Regular-53d8" d="M 1427 4026 
C 1235 3571 915 3110 563 2803 
C 672 2746 851 2618 941 2541 
C 1280 2880 1645 3392 1856 3910 
L 1427 4026 
z
M 4422 3782 
C 4813 3418 5280 2880 5510 2534 
L 5888 2784 
C 5664 3117 5197 3629 4781 3987 
L 4422 3782 
z
M 2765 5318 
C 2880 5139 3008 4909 3091 4723 
L 448 4723 
L 448 4294 
L 2221 4294 
L 2221 2349 
L 2701 2349 
L 2701 4294 
L 3686 4294 
L 3686 2355 
L 4166 2355 
L 4166 4294 
L 5952 4294 
L 5952 4723 
L 3629 4723 
C 3546 4922 3373 5222 3226 5434 
L 2765 5318 
z
M 851 2170 
L 851 1741 
L 1363 1741 
C 1702 1235 2163 819 2714 480 
C 1997 192 1171 6 333 -102 
C 416 -205 531 -403 570 -525 
C 1491 -378 2400 -141 3194 218 
C 3949 -154 4851 -397 5843 -525 
C 5901 -397 6016 -211 6118 -102 
C 5216 -6 4390 186 3686 474 
C 4352 851 4902 1344 5267 1978 
L 4960 2189 
L 4877 2170 
L 851 2170 
z
M 1894 1741 
L 4538 1741 
C 4211 1318 3744 973 3200 698 
C 2662 979 2221 1325 1894 1741 
z
" transform="scale(0.015625)"/>
      <path id="NotoSansCJKjp-Regular-91cf" d="M 1600 4256 
L 4781 4256 
L 4781 3904 
L 1600 3904 
L 1600 4256 
z
M 1600 4883 
L 4781 4883 
L 4781 4538 
L 1600 4538 
L 1600 4883 
z
M 1133 5171 
L 1133 3616 
L 5261 3616 
L 5261 5171 
L 1133 5171 
z
M 333 3341 
L 333 2976 
L 6074 2976 
L 6074 3341 
L 333 3341 
z
M 1472 1747 
L 2957 1747 
L 2957 1376 
L 1472 1376 
L 1472 1747 
z
M 3424 1747 
L 4973 1747 
L 4973 1376 
L 3424 1376 
L 3424 1747 
z
M 1472 2387 
L 2957 2387 
L 2957 2029 
L 1472 2029 
L 1472 2387 
z
M 3424 2387 
L 4973 2387 
L 4973 2029 
L 3424 2029 
L 3424 2387 
z
M 301 19 
L 301 -352 
L 6112 -352 
L 6112 19 
L 3424 19 
L 3424 390 
L 5587 390 
L 5587 730 
L 3424 730 
L 3424 1082 
L 5446 1082 
L 5446 2688 
L 1018 2688 
L 1018 1082 
L 2957 1082 
L 2957 730 
L 838 730 
L 838 390 
L 2957 390 
L 2957 19 
L 301 19 
z
" transform="scale(0.015625)"/>
     </defs>
     <use xlink:href="#NotoSansCJKjp-Regular-8bbe"/>
     <use xlink:href="#NotoSansCJKjp-Regular-7f6e" transform="translate(99.999985 0)"/>
     <use xlink:href="#NotoSansCJKjp-Regular-73af" transform="translate(199.999969 0)"/>
     <use xlink:href="#NotoSansCJKjp-Regular-5883" transform="translate(299.999954 0)"/>
     <use xlink:href="#NotoSansCJKjp-Regular-53d8" transform="translate(399.999939 0)"/>
     <use xlink:href="#NotoSansCJKjp-Regular-91cf" transform="translate(499.999924 0)"/>
    </g>
   </g>
   <g id="patch_13">
    <path d="M 171.950885 110.8035 
Q 216.449308 110.8035 259.27068 110.8035 
" style="fill: none; stroke: #757575; stroke-width: 1.5; stroke-linecap: round"/>
    <path d="M 254.87068 108.6035 
L 259.27068 110.8035 
L 254.87068 113.0035 
" style="fill: none; stroke: #757575; stroke-width: 1.5; stroke-linecap: round"/>
   </g>
   <g id="text_8">
    <!-- 详细记录模式 -->
    <g style="fill: #757575" transform="translate(198.45 105.747375) scale(0.06 -0.06)">
     <defs>
      <path id="NotoSansCJKjp-Regular-8be6" d="M 685 4915 
C 1030 4621 1466 4205 1677 3936 
L 1997 4288 
C 1792 4550 1344 4947 992 5229 
L 685 4915 
z
M 2906 5190 
C 3123 4864 3360 4429 3450 4154 
L 3891 4339 
C 3795 4614 3552 5030 3328 5350 
L 2906 5190 
z
M 1197 -384 
L 1197 -378 
C 1293 -250 1466 -109 2502 710 
C 2451 800 2381 979 2336 1114 
L 1702 634 
L 1702 3366 
L 256 3366 
L 256 2899 
L 1248 2899 
L 1248 582 
C 1248 269 1050 58 934 -38 
C 1018 -109 1152 -282 1197 -384 
z
M 5286 5395 
C 5146 5018 4909 4506 4685 4147 
L 2554 4147 
L 2554 3706 
L 4032 3706 
L 4032 2822 
L 2752 2822 
L 2752 2381 
L 4032 2381 
L 4032 1478 
L 2400 1478 
L 2400 1024 
L 4032 1024 
L 4032 -506 
L 4512 -506 
L 4512 1024 
L 6099 1024 
L 6099 1478 
L 4512 1478 
L 4512 2381 
L 5754 2381 
L 5754 2822 
L 4512 2822 
L 4512 3706 
L 5958 3706 
L 5958 4147 
L 5197 4147 
C 5389 4467 5600 4870 5773 5229 
L 5286 5395 
z
" transform="scale(0.015625)"/>
      <path id="NotoSansCJKjp-Regular-7ec6" d="M 237 339 
L 320 -134 
C 947 -6 1798 154 2624 320 
L 2592 755 
C 1728 595 832 429 237 339 
z
M 371 2714 
C 474 2765 634 2797 1555 2906 
C 1222 2490 922 2150 787 2029 
C 563 1805 397 1658 256 1626 
C 314 1504 384 1274 410 1178 
C 550 1254 781 1306 2611 1600 
C 2592 1696 2586 1882 2586 2010 
L 1139 1805 
C 1683 2342 2227 3008 2701 3686 
L 2285 3942 
C 2163 3738 2022 3533 1882 3341 
L 902 3251 
C 1318 3802 1741 4506 2074 5203 
L 1606 5402 
C 1286 4621 774 3795 608 3584 
C 448 3360 333 3213 211 3187 
C 262 3059 346 2816 371 2714 
z
M 4141 448 
L 3219 448 
L 3219 2259 
L 4141 2259 
L 4141 448 
z
M 4582 448 
L 4582 2259 
L 5491 2259 
L 5491 448 
L 4582 448 
z
M 2771 5043 
L 2771 -416 
L 3219 -416 
L 3219 0 
L 5491 0 
L 5491 -365 
L 5952 -365 
L 5952 5043 
L 2771 5043 
z
M 4141 2714 
L 3219 2714 
L 3219 4563 
L 4141 4563 
L 4141 2714 
z
M 4582 2714 
L 4582 4563 
L 5491 4563 
L 5491 2714 
L 4582 2714 
z
" transform="scale(0.015625)"/>
      <path id="NotoSansCJKjp-Regular-8bb0" d="M 794 4922 
C 1146 4608 1594 4173 1792 3891 
L 2144 4230 
C 1920 4499 1472 4922 1126 5216 
L 794 4922 
z
M 1280 -390 
L 1280 -384 
C 1370 -262 1549 -128 2611 627 
C 2560 723 2490 915 2458 1043 
L 1792 589 
L 1792 3366 
L 294 3366 
L 294 2899 
L 1318 2899 
L 1318 595 
C 1318 282 1120 64 1005 -26 
C 1094 -109 1229 -288 1280 -390 
z
M 2682 4928 
L 2682 4448 
L 5222 4448 
L 5222 2829 
L 2803 2829 
L 2803 365 
C 2803 -262 3034 -416 3750 -416 
C 3910 -416 5056 -416 5222 -416 
C 5920 -416 6086 -128 6157 915 
C 6016 947 5811 1030 5690 1120 
C 5658 211 5594 45 5197 45 
C 4947 45 3974 45 3782 45 
C 3373 45 3296 102 3296 358 
L 3296 2368 
L 5222 2368 
L 5222 2035 
L 5702 2035 
L 5702 4928 
L 2682 4928 
z
" transform="scale(0.015625)"/>
      <path id="NotoSansCJKjp-Regular-5f55" d="M 858 2029 
C 1274 1798 1779 1434 2022 1190 
L 2362 1523 
C 2106 1766 1587 2106 1184 2323 
L 858 2029 
z
M 858 5018 
L 858 4576 
L 4736 4576 
L 4710 3987 
L 1050 3987 
L 1050 3546 
L 4685 3546 
L 4646 2957 
L 429 2957 
L 429 2528 
L 2950 2528 
L 2950 1357 
C 2022 973 1056 582 435 346 
L 691 -83 
C 1318 186 2157 544 2950 896 
L 2950 13 
C 2950 -77 2918 -102 2816 -109 
C 2714 -115 2355 -115 1978 -102 
C 2042 -224 2118 -403 2144 -525 
C 2643 -525 2970 -525 3168 -454 
C 3373 -384 3437 -269 3437 6 
L 3437 1510 
C 3987 678 4787 58 5786 -256 
C 5850 -128 5997 58 6099 160 
C 5408 346 4806 685 4320 1133 
C 4730 1382 5210 1741 5594 2067 
L 5184 2368 
C 4896 2080 4422 1702 4026 1434 
C 3789 1702 3590 2010 3437 2336 
L 3437 2528 
L 6016 2528 
L 6016 2957 
L 5146 2957 
C 5203 3616 5248 4403 5261 5018 
L 4883 5043 
L 4800 5018 
L 858 5018 
z
" transform="scale(0.015625)"/>
      <path id="NotoSansCJKjp-Regular-6a21" d="M 3021 2669 
L 5248 2669 
L 5248 2208 
L 3021 2208 
L 3021 2669 
z
M 3021 3469 
L 5248 3469 
L 5248 3021 
L 3021 3021 
L 3021 3469 
z
M 4685 5376 
L 4685 4845 
L 3699 4845 
L 3699 5376 
L 3245 5376 
L 3245 4845 
L 2304 4845 
L 2304 4435 
L 3245 4435 
L 3245 3955 
L 3699 3955 
L 3699 4435 
L 4685 4435 
L 4685 3955 
L 5152 3955 
L 5152 4435 
L 6048 4435 
L 6048 4845 
L 5152 4845 
L 5152 5376 
L 4685 5376 
z
M 2573 3834 
L 2573 1850 
L 3878 1850 
C 3853 1658 3827 1485 3782 1318 
L 2176 1318 
L 2176 909 
L 3642 909 
C 3398 416 2938 77 1997 -128 
C 2086 -224 2208 -403 2253 -512 
C 3366 -243 3885 218 4141 896 
C 4461 192 5056 -288 5888 -512 
C 5952 -390 6080 -211 6182 -115 
C 5459 38 4909 390 4602 909 
L 6035 909 
L 6035 1318 
L 4262 1318 
C 4294 1485 4326 1664 4346 1850 
L 5715 1850 
L 5715 3834 
L 2573 3834 
z
M 1120 5376 
L 1120 4141 
L 320 4141 
L 320 3693 
L 1120 3693 
L 1120 3686 
C 947 2816 576 1798 205 1261 
C 288 1146 403 934 461 794 
C 704 1171 934 1754 1120 2381 
L 1120 -506 
L 1581 -506 
L 1581 2790 
C 1754 2451 1952 2042 2035 1830 
L 2342 2176 
C 2234 2374 1747 3174 1581 3424 
L 1581 3693 
L 2240 3693 
L 2240 4141 
L 1581 4141 
L 1581 5376 
L 1120 5376 
z
" transform="scale(0.015625)"/>
      <path id="NotoSansCJKjp-Regular-5f0f" d="M 4538 5062 
C 4870 4832 5267 4486 5459 4256 
L 5792 4557 
C 5600 4781 5190 5107 4864 5331 
L 4538 5062 
z
M 3616 5350 
C 3616 4954 3629 4563 3648 4179 
L 352 4179 
L 352 3712 
L 3680 3712 
C 3846 1331 4384 -525 5434 -525 
C 5926 -525 6106 -198 6189 922 
C 6054 973 5875 1082 5766 1190 
C 5722 333 5651 -26 5472 -26 
C 4838 -26 4339 1542 4179 3712 
L 6061 3712 
L 6061 4179 
L 4154 4179 
C 4134 4557 4128 4947 4128 5350 
L 3616 5350 
z
M 378 154 
L 531 -320 
C 1350 -141 2528 128 3616 384 
L 3578 819 
L 2208 525 
L 2208 2291 
L 3405 2291 
L 3405 2758 
L 576 2758 
L 576 2291 
L 1728 2291 
L 1728 429 
L 378 154 
z
" transform="scale(0.015625)"/>
     </defs>
     <use xlink:href="#NotoSansCJKjp-Regular-8be6"/>
     <use xlink:href="#NotoSansCJKjp-Regular-7ec6" transform="translate(99.999985 0)"/>
     <use xlink:href="#NotoSansCJKjp-Regular-8bb0" transform="translate(199.999969 0)"/>
     <use xlink:href="#NotoSansCJKjp-Regular-5f55" transform="translate(299.999954 0)"/>
     <use xlink:href="#NotoSansCJKjp-Regular-6a21" transform="translate(399.999939 0)"/>
     <use xlink:href="#NotoSansCJKjp-Regular-5f0f" transform="translate(499.999924 0)"/>
    </g>
   </g>
   <g id="patch_14">
    <path d="M 171.950885 133.326 
Q 262.949532 133.326 352.271128 133.326 
" style="fill: none; stroke: #757575; stroke-width: 1.5; stroke-linecap: round"/>
    <path d="M 347.871128 131.126 
L 352.271128 133.326 
L 347.871128 135.526 
" style="fill: none; stroke: #757575; stroke-width: 1.5; stroke-linecap: round"/>
   </g>
   <g id="text_9">
    <!-- 详细记录模式 -->
    <g style="fill: #757575" transform="translate(244.95 128.269875) scale(0.06 -0.06)">
     <use xlink:href="#NotoSansCJKjp-Regular-8be6"/>
     <use xlink:href="#NotoSansCJKjp-Regular-7ec6" transform="translate(99.999985 0)"/>
     <use xlink:href="#NotoSansCJKjp-Regular-8bb0" transform="translate(199.999969 0)"/>
     <use xlink:href="#NotoSansCJKjp-Regular-5f55" transform="translate(299.999954 0)"/>
     <use xlink:href="#NotoSansCJKjp-Regular-6a21" transform="translate(399.999939 0)"/>
     <use xlink:href="#NotoSansCJKjp-Regular-5f0f" transform="translate(499.999924 0)"/>
    </g>
   </g>
   <g id="patch_15">
    <path d="M 264.950885 155.8485 
Q 355.949532 155.8485 445.271128 155.8485 
" style="fill: none; stroke: #e2882c; stroke-width: 1.5; stroke-linecap: round"/>
    <path d="M 440.871128 153.6485 
L 445.271128 155.8485 
L 440.871128 158.0485 
" style="fill: none; stroke: #e2882c; stroke-width: 1.5; stroke-linecap: round"/>
   </g>
   <g id="text_10">
    <!-- Graph Break 位置 -->
    <g style="fill: #757575" transform="translate(331.862344 150.915656) scale(0.06 -0.06)">
     <defs>
      <path id="NotoSansCJKjp-Regular-47" d="M 2490 -83 
C 3117 -83 3635 147 3936 461 
L 3936 2432 
L 2394 2432 
L 2394 1939 
L 3392 1939 
L 3392 710 
C 3206 538 2880 435 2547 435 
C 1542 435 979 1178 979 2362 
C 979 3533 1594 4256 2541 4256 
C 3008 4256 3315 4058 3552 3814 
L 3872 4198 
C 3603 4480 3174 4774 2522 4774 
C 1280 4774 371 3859 371 2342 
C 371 819 1254 -83 2490 -83 
z
" transform="scale(0.015625)"/>
      <path id="NotoSansCJKjp-Regular-72" d="M 589 0 
L 1178 0 
L 1178 2234 
C 1408 2822 1760 3040 2048 3040 
C 2195 3040 2272 3021 2387 2982 
L 2496 3488 
C 2387 3546 2278 3565 2125 3565 
C 1741 3565 1382 3283 1139 2842 
L 1126 2842 
L 1069 3475 
L 589 3475 
L 589 0 
z
" transform="scale(0.015625)"/>
      <path id="NotoSansCJKjp-Regular-61" d="M 1389 -83 
C 1818 -83 2208 141 2541 416 
L 2560 416 
L 2611 0 
L 3091 0 
L 3091 2138 
C 3091 3002 2739 3565 1888 3565 
C 1325 3565 838 3315 525 3110 
L 749 2707 
C 1024 2893 1389 3078 1792 3078 
C 2362 3078 2509 2650 2509 2202 
C 1030 2035 378 1658 378 902 
C 378 275 806 -83 1389 -83 
z
M 1555 390 
C 1210 390 941 544 941 941 
C 941 1389 1338 1677 2509 1811 
L 2509 845 
C 2170 544 1888 390 1555 390 
z
" transform="scale(0.015625)"/>
      <path id="NotoSansCJKjp-Regular-70" d="M 589 -1466 
L 1178 -1466 
L 1178 -288 
L 1158 320 
C 1472 58 1805 -83 2118 -83 
C 2912 -83 3629 602 3629 1792 
C 3629 2867 3142 3565 2246 3565 
C 1843 3565 1453 3334 1139 3072 
L 1126 3072 
L 1069 3475 
L 589 3475 
L 589 -1466 
z
M 2022 410 
C 1792 410 1485 499 1178 768 
L 1178 2598 
C 1510 2906 1811 3072 2099 3072 
C 2765 3072 3021 2560 3021 1786 
C 3021 928 2598 410 2022 410 
z
" transform="scale(0.015625)"/>
      <path id="NotoSansCJKjp-Regular-68" d="M 589 0 
L 1178 0 
L 1178 2522 
C 1523 2874 1766 3053 2125 3053 
C 2586 3053 2784 2778 2784 2125 
L 2784 0 
L 3366 0 
L 3366 2202 
C 3366 3085 3034 3565 2304 3565 
C 1830 3565 1472 3302 1152 2982 
L 1178 3699 
L 1178 5094 
L 589 5094 
L 589 0 
z
" transform="scale(0.015625)"/>
      <path id="NotoSansCJKjp-Regular-20" transform="scale(0.015625)"/>
      <path id="NotoSansCJKjp-Regular-42" d="M 646 0 
L 2138 0 
C 3187 0 3917 454 3917 1376 
C 3917 2016 3520 2387 2963 2496 
L 2963 2528 
C 3405 2669 3648 3078 3648 3546 
C 3648 4371 2982 4691 2035 4691 
L 646 4691 
L 646 0 
z
M 1235 2701 
L 1235 4224 
L 1958 4224 
C 2694 4224 3066 4019 3066 3469 
C 3066 2989 2739 2701 1933 2701 
L 1235 2701 
z
M 1235 474 
L 1235 2240 
L 2054 2240 
C 2880 2240 3334 1978 3334 1395 
C 3334 762 2861 474 2054 474 
L 1235 474 
z
" transform="scale(0.015625)"/>
      <path id="NotoSansCJKjp-Regular-65" d="M 1997 -83 
C 2464 -83 2835 70 3136 269 
L 2931 659 
C 2669 486 2400 384 2061 384 
C 1402 384 947 858 909 1600 
L 3251 1600 
C 3264 1690 3277 1805 3277 1933 
C 3277 2925 2778 3565 1888 3565 
C 1094 3565 333 2867 333 1734 
C 333 589 1069 -83 1997 -83 
z
M 902 2016 
C 973 2707 1408 3098 1901 3098 
C 2445 3098 2765 2720 2765 2016 
L 902 2016 
z
" transform="scale(0.015625)"/>
      <path id="NotoSansCJKjp-Regular-6b" d="M 589 0 
L 1165 0 
L 1165 915 
L 1818 1677 
L 2835 0 
L 3469 0 
L 2157 2074 
L 3315 3475 
L 2662 3475 
L 1190 1645 
L 1165 1645 
L 1165 5094 
L 589 5094 
L 589 0 
z
" transform="scale(0.015625)"/>
      <path id="NotoSansCJKjp-Regular-4f4d" d="M 2630 3155 
C 2867 2304 3066 1190 3110 544 
L 3578 646 
C 3526 1280 3302 2381 3059 3232 
L 2630 3155 
z
M 2106 4115 
L 2106 3661 
L 6016 3661 
L 6016 4115 
L 4250 4115 
L 4250 5299 
L 3770 5299 
L 3770 4115 
L 2106 4115 
z
M 1946 243 
L 1946 -211 
L 6176 -211 
L 6176 243 
L 4634 243 
C 4928 1043 5261 2246 5485 3194 
L 4966 3283 
C 4800 2362 4461 1056 4166 243 
L 1946 243 
z
M 1773 5357 
C 1395 4390 774 3443 128 2835 
C 211 2720 352 2470 397 2355 
C 640 2598 877 2880 1107 3194 
L 1107 -493 
L 1568 -493 
L 1568 3891 
C 1818 4314 2048 4762 2227 5216 
L 1773 5357 
z
" transform="scale(0.015625)"/>
     </defs>
     <use xlink:href="#NotoSansCJKjp-Regular-47"/>
     <use xlink:href="#NotoSansCJKjp-Regular-72" transform="translate(68.899994 0)"/>
     <use xlink:href="#NotoSansCJKjp-Regular-61" transform="translate(107.699982 0)"/>
     <use xlink:href="#NotoSansCJKjp-Regular-70" transform="translate(163.999969 0)"/>
     <use xlink:href="#NotoSansCJKjp-Regular-68" transform="translate(225.999954 0)"/>
     <use xlink:href="#NotoSansCJKjp-Regular-20" transform="translate(286.699951 0)"/>
     <use xlink:href="#NotoSansCJKjp-Regular-42" transform="translate(309.099945 0)"/>
     <use xlink:href="#NotoSansCJKjp-Regular-72" transform="translate(374.799942 0)"/>
     <use xlink:href="#NotoSansCJKjp-Regular-65" transform="translate(413.59993 0)"/>
     <use xlink:href="#NotoSansCJKjp-Regular-61" transform="translate(468.999924 0)"/>
     <use xlink:href="#NotoSansCJKjp-Regular-6b" transform="translate(525.299911 0)"/>
     <use xlink:href="#NotoSansCJKjp-Regular-20" transform="translate(580.499908 0)"/>
     <use xlink:href="#NotoSansCJKjp-Regular-4f4d" transform="translate(602.899902 0)"/>
     <use xlink:href="#NotoSansCJKjp-Regular-7f6e" transform="translate(702.899887 0)"/>
    </g>
   </g>
   <g id="patch_16">
    <path d="M 264.950885 178.371 
Q 355.949532 178.371 445.271128 178.371 
" style="fill: none; stroke: #e2882c; stroke-width: 1.5; stroke-linecap: round"/>
    <path d="M 440.871128 176.171 
L 445.271128 178.371 
L 440.871128 180.571 
" style="fill: none; stroke: #e2882c; stroke-width: 1.5; stroke-linecap: round"/>
   </g>
   <g id="text_11">
    <!-- Guard 表达式 -->
    <g style="fill: #757575" transform="translate(337.676719 173.314875) scale(0.06 -0.06)">
     <defs>
      <path id="NotoSansCJKjp-Regular-75" d="M 1606 -83 
C 2080 -83 2426 166 2752 544 
L 2771 544 
L 2816 0 
L 3302 0 
L 3302 3475 
L 2720 3475 
L 2720 1011 
C 2387 602 2138 422 1779 422 
C 1318 422 1126 698 1126 1344 
L 1126 3475 
L 538 3475 
L 538 1274 
C 538 384 870 -83 1606 -83 
z
" transform="scale(0.015625)"/>
      <path id="NotoSansCJKjp-Regular-64" d="M 1773 -83 
C 2189 -83 2560 141 2829 410 
L 2848 410 
L 2899 0 
L 3379 0 
L 3379 5094 
L 2790 5094 
L 2790 3757 
L 2822 3162 
C 2515 3411 2253 3565 1843 3565 
C 1050 3565 339 2861 339 1734 
C 339 576 902 -83 1773 -83 
z
M 1901 410 
C 1293 410 941 902 941 1741 
C 941 2534 1389 3072 1946 3072 
C 2234 3072 2502 2970 2790 2707 
L 2790 883 
C 2502 563 2221 410 1901 410 
z
" transform="scale(0.015625)"/>
      <path id="NotoSansCJKjp-Regular-8868" d="M 896 -64 
L 1050 -512 
C 1811 -320 2912 -45 3923 224 
L 3872 653 
L 2272 256 
L 2272 1715 
C 2637 1946 2970 2208 3232 2470 
C 3680 1005 4512 -26 5875 -493 
C 5946 -358 6086 -166 6195 -70 
C 5472 147 4896 538 4461 1062 
C 4896 1312 5421 1664 5824 1990 
L 5446 2285 
C 5133 1997 4640 1638 4224 1376 
C 4000 1709 3821 2086 3686 2502 
L 5997 2502 
L 5997 2918 
L 3430 2918 
L 3430 3501 
L 5523 3501 
L 5523 3898 
L 3430 3898 
L 3430 4422 
L 5773 4422 
L 5773 4845 
L 3430 4845 
L 3430 5376 
L 2944 5376 
L 2944 4845 
L 640 4845 
L 640 4422 
L 2944 4422 
L 2944 3898 
L 928 3898 
L 928 3501 
L 2944 3501 
L 2944 2918 
L 403 2918 
L 403 2502 
L 2630 2502 
C 1990 1971 1024 1491 179 1254 
C 282 1152 422 979 493 858 
C 909 998 1363 1197 1798 1434 
L 1798 141 
L 896 -64 
z
" transform="scale(0.015625)"/>
      <path id="NotoSansCJKjp-Regular-8fbe" d="M 627 4998 
C 1024 4781 1478 4435 1690 4179 
L 2029 4506 
C 1811 4762 1344 5088 954 5293 
L 627 4998 
z
M 365 3699 
C 781 3488 1274 3155 1504 2893 
L 1830 3238 
C 1594 3494 1094 3814 678 4006 
L 365 3699 
z
M 3693 5357 
C 3686 4819 3680 4320 3648 3866 
L 1984 3866 
L 1984 3411 
L 3603 3411 
C 3462 2240 3072 1389 1920 877 
C 2035 800 2176 627 2240 512 
C 3277 992 3744 1741 3962 2733 
C 4275 1651 4819 922 5805 531 
C 5862 659 6003 845 6106 941 
C 5024 1318 4486 2163 4237 3411 
L 5990 3411 
L 5990 3866 
L 4115 3866 
C 4147 4326 4160 4826 4166 5357 
L 3693 5357 
z
M 1702 2400 
L 326 2400 
L 326 1952 
L 1235 1952 
L 1235 742 
C 909 486 538 218 237 26 
L 480 -454 
C 838 -179 1178 96 1491 371 
C 1901 -128 2477 -358 3309 -390 
C 4013 -416 5331 -403 6029 -371 
C 6048 -230 6131 -6 6182 109 
C 5434 58 4000 38 3309 64 
C 2566 96 2010 314 1702 781 
L 1702 2400 
z
" transform="scale(0.015625)"/>
     </defs>
     <use xlink:href="#NotoSansCJKjp-Regular-47"/>
     <use xlink:href="#NotoSansCJKjp-Regular-75" transform="translate(68.899994 0)"/>
     <use xlink:href="#NotoSansCJKjp-Regular-61" transform="translate(129.599991 0)"/>
     <use xlink:href="#NotoSansCJKjp-Regular-72" transform="translate(185.899979 0)"/>
     <use xlink:href="#NotoSansCJKjp-Regular-64" transform="translate(224.699966 0)"/>
     <use xlink:href="#NotoSansCJKjp-Regular-20" transform="translate(286.699951 0)"/>
     <use xlink:href="#NotoSansCJKjp-Regular-8868" transform="translate(309.099945 0)"/>
     <use xlink:href="#NotoSansCJKjp-Regular-8fbe" transform="translate(409.09993 0)"/>
     <use xlink:href="#NotoSansCJKjp-Regular-5f0f" transform="translate(509.099915 0)"/>
    </g>
   </g>
   <g id="patch_17">
    <path d="M 264.950885 200.8935 
Q 355.949532 200.8935 445.271128 200.8935 
" style="fill: none; stroke: #e2882c; stroke-width: 1.5; stroke-linecap: round"/>
    <path d="M 440.871128 198.6935 
L 445.271128 200.8935 
L 440.871128 203.0935 
" style="fill: none; stroke: #e2882c; stroke-width: 1.5; stroke-linecap: round"/>
   </g>
   <g id="text_12">
    <!-- 子图 FX Graph -->
    <g style="fill: #757575" transform="translate(336.629531 195.837375) scale(0.06 -0.06)">
     <defs>
      <path id="NotoSansCJKjp-Regular-5b50" d="M 966 4934 
L 966 4454 
L 4595 4454 
C 4211 4134 3718 3795 3264 3546 
L 2963 3546 
L 2963 2515 
L 301 2515 
L 301 2035 
L 2963 2035 
L 2963 115 
C 2963 0 2925 -32 2790 -45 
C 2643 -45 2170 -51 1658 -32 
C 1734 -173 1830 -384 1862 -525 
C 2477 -531 2893 -518 3136 -435 
C 3379 -358 3462 -218 3462 109 
L 3462 2035 
L 6112 2035 
L 6112 2515 
L 3462 2515 
L 3462 3149 
C 4179 3539 5024 4134 5574 4685 
L 5210 4960 
L 5101 4934 
L 966 4934 
z
" transform="scale(0.015625)"/>
      <path id="NotoSansCJKjp-Regular-56fe" d="M 2400 1786 
C 2912 1677 3565 1453 3923 1274 
L 4122 1600 
C 3763 1766 3117 1978 2605 2080 
L 2400 1786 
z
M 1760 973 
C 2643 864 3750 608 4365 390 
L 4576 749 
C 3955 954 2848 1203 1984 1299 
L 1760 973 
z
M 538 5094 
L 538 -512 
L 998 -512 
L 998 -243 
L 5389 -243 
L 5389 -512 
L 5869 -512 
L 5869 5094 
L 538 5094 
z
M 998 186 
L 998 4659 
L 5389 4659 
L 5389 186 
L 998 186 
z
M 2650 4531 
C 2330 4006 1779 3507 1229 3181 
C 1331 3117 1498 2970 1568 2893 
C 1760 3021 1958 3174 2157 3347 
C 2349 3142 2586 2950 2842 2778 
C 2298 2522 1683 2330 1114 2214 
C 1197 2125 1299 1939 1344 1824 
C 1971 1971 2643 2208 3251 2534 
C 3782 2246 4390 2029 4998 1894 
C 5056 2010 5178 2176 5267 2259 
C 4704 2362 4141 2534 3642 2765 
C 4122 3078 4525 3443 4794 3878 
L 4518 4038 
L 4448 4019 
L 2790 4019 
C 2886 4141 2976 4262 3053 4390 
L 2650 4531 
z
M 2419 3603 
L 2464 3648 
L 4122 3648 
C 3891 3398 3584 3174 3238 2976 
C 2912 3162 2630 3373 2419 3603 
z
" transform="scale(0.015625)"/>
      <path id="NotoSansCJKjp-Regular-46" d="M 646 0 
L 1235 0 
L 1235 2106 
L 3027 2106 
L 3027 2605 
L 1235 2605 
L 1235 4192 
L 3347 4192 
L 3347 4691 
L 646 4691 
L 646 0 
z
" transform="scale(0.015625)"/>
      <path id="NotoSansCJKjp-Regular-58" d="M 109 0 
L 736 0 
L 1408 1267 
C 1530 1504 1651 1741 1786 2029 
L 1811 2029 
C 1965 1741 2093 1504 2214 1267 
L 2912 0 
L 3565 0 
L 2189 2394 
L 3469 4691 
L 2848 4691 
L 2221 3494 
C 2106 3277 2016 3078 1888 2803 
L 1862 2803 
C 1709 3078 1613 3277 1491 3494 
L 851 4691 
L 198 4691 
L 1478 2426 
L 109 0 
z
" transform="scale(0.015625)"/>
     </defs>
     <use xlink:href="#NotoSansCJKjp-Regular-5b50"/>
     <use xlink:href="#NotoSansCJKjp-Regular-56fe" transform="translate(99.999985 0)"/>
     <use xlink:href="#NotoSansCJKjp-Regular-20" transform="translate(199.999969 0)"/>
     <use xlink:href="#NotoSansCJKjp-Regular-46" transform="translate(222.399963 0)"/>
     <use xlink:href="#NotoSansCJKjp-Regular-58" transform="translate(277.59996 0)"/>
     <use xlink:href="#NotoSansCJKjp-Regular-20" transform="translate(334.899948 0)"/>
     <use xlink:href="#NotoSansCJKjp-Regular-47" transform="translate(357.299942 0)"/>
     <use xlink:href="#NotoSansCJKjp-Regular-72" transform="translate(426.199936 0)"/>
     <use xlink:href="#NotoSansCJKjp-Regular-61" transform="translate(464.999924 0)"/>
     <use xlink:href="#NotoSansCJKjp-Regular-70" transform="translate(521.299911 0)"/>
     <use xlink:href="#NotoSansCJKjp-Regular-68" transform="translate(583.299896 0)"/>
    </g>
   </g>
   <g id="patch_18">
    <path d="M 357.950885 223.416 
Q 402.449308 223.416 445.27068 223.416 
" style="fill: none; stroke: #4caf50; stroke-width: 1.5; stroke-linecap: round"/>
    <path d="M 440.87068 221.216 
L 445.27068 223.416 
L 440.87068 225.616 
" style="fill: none; stroke: #4caf50; stroke-width: 1.5; stroke-linecap: round"/>
   </g>
   <g id="text_13">
    <!-- Lowering 过程 -->
    <g style="fill: #757575" transform="translate(382.751719 218.420344) scale(0.06 -0.06)">
     <defs>
      <path id="NotoSansCJKjp-Regular-4c" d="M 646 0 
L 3290 0 
L 3290 506 
L 1235 506 
L 1235 4691 
L 646 4691 
L 646 0 
z
" transform="scale(0.015625)"/>
      <path id="NotoSansCJKjp-Regular-6f" d="M 1939 -83 
C 2790 -83 3546 582 3546 1734 
C 3546 2893 2790 3565 1939 3565 
C 1088 3565 333 2893 333 1734 
C 333 582 1088 -83 1939 -83 
z
M 1939 403 
C 1338 403 934 934 934 1734 
C 934 2534 1338 3072 1939 3072 
C 2541 3072 2950 2534 2950 1734 
C 2950 934 2541 403 1939 403 
z
" transform="scale(0.015625)"/>
      <path id="NotoSansCJKjp-Regular-77" d="M 1139 0 
L 1818 0 
L 2310 1862 
C 2400 2195 2470 2522 2547 2874 
L 2579 2874 
C 2662 2522 2726 2202 2816 1875 
L 3315 0 
L 4026 0 
L 4966 3475 
L 4403 3475 
L 3898 1466 
C 3821 1133 3757 819 3686 499 
L 3654 499 
C 3571 819 3494 1133 3411 1466 
L 2867 3475 
L 2298 3475 
L 1754 1466 
C 1670 1133 1594 819 1523 499 
L 1491 499 
C 1421 819 1357 1133 1286 1466 
L 768 3475 
L 173 3475 
L 1139 0 
z
" transform="scale(0.015625)"/>
      <path id="NotoSansCJKjp-Regular-69" d="M 589 0 
L 1178 0 
L 1178 3475 
L 589 3475 
L 589 0 
z
M 883 4192 
C 1114 4192 1274 4346 1274 4582 
C 1274 4806 1114 4960 883 4960 
C 653 4960 499 4806 499 4582 
C 499 4346 653 4192 883 4192 
z
" transform="scale(0.015625)"/>
      <path id="NotoSansCJKjp-Regular-6e" d="M 589 0 
L 1178 0 
L 1178 2522 
C 1523 2874 1766 3053 2125 3053 
C 2586 3053 2784 2778 2784 2125 
L 2784 0 
L 3366 0 
L 3366 2202 
C 3366 3085 3034 3565 2304 3565 
C 1830 3565 1466 3302 1139 2970 
L 1126 2970 
L 1069 3475 
L 589 3475 
L 589 0 
z
" transform="scale(0.015625)"/>
      <path id="NotoSansCJKjp-Regular-67" d="M 1760 -1600 
C 2835 -1600 3520 -1043 3520 -397 
C 3520 179 3110 429 2310 429 
L 1626 429 
C 1158 429 1018 589 1018 806 
C 1018 998 1114 1114 1242 1222 
C 1395 1146 1587 1101 1754 1101 
C 2470 1101 3027 1568 3027 2310 
C 3027 2611 2912 2867 2746 3027 
L 3456 3027 
L 3456 3475 
L 2246 3475 
C 2125 3526 1952 3565 1754 3565 
C 1056 3565 454 3085 454 2323 
C 454 1907 678 1568 909 1389 
L 909 1363 
C 723 1235 525 1005 525 717 
C 525 442 659 256 838 147 
L 838 115 
C 512 -83 326 -371 326 -672 
C 326 -1267 915 -1600 1760 -1600 
z
M 1754 1498 
C 1357 1498 1018 1818 1018 2323 
C 1018 2835 1350 3136 1754 3136 
C 2170 3136 2496 2835 2496 2323 
C 2496 1818 2157 1498 1754 1498 
z
M 1843 -1197 
C 1210 -1197 838 -960 838 -589 
C 838 -390 941 -179 1190 0 
C 1344 -38 1510 -51 1638 -51 
L 2240 -51 
C 2701 -51 2944 -166 2944 -493 
C 2944 -851 2515 -1197 1843 -1197 
z
" transform="scale(0.015625)"/>
      <path id="NotoSansCJKjp-Regular-8fc7" d="M 506 4954 
C 864 4621 1274 4154 1453 3853 
L 1856 4134 
C 1658 4435 1235 4883 877 5203 
L 506 4954 
z
M 2438 3053 
C 2765 2656 3155 2093 3334 1760 
L 3738 2003 
C 3552 2336 3149 2874 2822 3264 
L 2438 3053 
z
M 1677 2976 
L 320 2976 
L 320 2528 
L 1203 2528 
L 1203 851 
C 915 749 582 461 237 90 
L 570 -365 
C 896 77 1210 454 1421 454 
C 1568 454 1773 237 2042 70 
C 2490 -211 3027 -275 3821 -275 
C 4435 -275 5568 -243 6022 -218 
C 6029 -70 6112 173 6170 301 
C 5549 237 4582 179 3834 179 
C 3117 179 2573 230 2150 486 
C 1933 614 1798 742 1677 819 
L 1677 2976 
z
M 4608 5357 
L 4608 4224 
L 2125 4224 
L 2125 3770 
L 4608 3770 
L 4608 1229 
C 4608 1114 4563 1082 4435 1075 
C 4307 1069 3859 1069 3392 1088 
C 3462 947 3539 736 3565 595 
C 4166 595 4557 602 4781 685 
C 5011 762 5094 902 5094 1229 
L 5094 3770 
L 5984 3770 
L 5984 4224 
L 5094 4224 
L 5094 5357 
L 4608 5357 
z
" transform="scale(0.015625)"/>
      <path id="NotoSansCJKjp-Regular-7a0b" d="M 3405 4691 
L 5338 4691 
L 5338 3514 
L 3405 3514 
L 3405 4691 
z
M 2957 5107 
L 2957 3098 
L 5805 3098 
L 5805 5107 
L 2957 5107 
z
M 2867 1338 
L 2867 922 
L 4122 922 
L 4122 83 
L 2438 83 
L 2438 -339 
L 6163 -339 
L 6163 83 
L 4595 83 
L 4595 922 
L 5882 922 
L 5882 1338 
L 4595 1338 
L 4595 2112 
L 6022 2112 
L 6022 2534 
L 2720 2534 
L 2720 2112 
L 4122 2112 
L 4122 1338 
L 2867 1338 
z
M 2310 5286 
C 1837 5069 992 4883 275 4762 
C 333 4659 397 4499 416 4397 
C 717 4435 1037 4493 1357 4557 
L 1357 3571 
L 314 3571 
L 314 3123 
L 1293 3123 
C 1037 2387 595 1555 179 1101 
C 262 986 378 794 429 659 
C 755 1056 1094 1690 1357 2336 
L 1357 -499 
L 1830 -499 
L 1830 2259 
C 2048 1990 2304 1645 2413 1466 
L 2701 1843 
C 2573 1990 2016 2566 1830 2726 
L 1830 3123 
L 2630 3123 
L 2630 3571 
L 1830 3571 
L 1830 4666 
C 2131 4736 2413 4819 2643 4915 
L 2310 5286 
z
" transform="scale(0.015625)"/>
     </defs>
     <use xlink:href="#NotoSansCJKjp-Regular-4c"/>
     <use xlink:href="#NotoSansCJKjp-Regular-6f" transform="translate(54.299988 0)"/>
     <use xlink:href="#NotoSansCJKjp-Regular-77" transform="translate(114.899979 0)"/>
     <use xlink:href="#NotoSansCJKjp-Regular-65" transform="translate(195.09996 0)"/>
     <use xlink:href="#NotoSansCJKjp-Regular-72" transform="translate(250.499954 0)"/>
     <use xlink:href="#NotoSansCJKjp-Regular-69" transform="translate(289.299942 0)"/>
     <use xlink:href="#NotoSansCJKjp-Regular-6e" transform="translate(316.799927 0)"/>
     <use xlink:href="#NotoSansCJKjp-Regular-67" transform="translate(377.799911 0)"/>
     <use xlink:href="#NotoSansCJKjp-Regular-20" transform="translate(434.199905 0)"/>
     <use xlink:href="#NotoSansCJKjp-Regular-8fc7" transform="translate(456.599899 0)"/>
     <use xlink:href="#NotoSansCJKjp-Regular-7a0b" transform="translate(556.599884 0)"/>
    </g>
   </g>
   <g id="patch_19">
    <path d="M 357.950885 245.9385 
Q 402.449308 245.9385 445.27068 245.9385 
" style="fill: none; stroke: #4caf50; stroke-width: 1.5; stroke-linecap: round"/>
    <path d="M 440.87068 243.7385 
L 445.27068 245.9385 
L 440.87068 248.1385 
" style="fill: none; stroke: #4caf50; stroke-width: 1.5; stroke-linecap: round"/>
   </g>
   <g id="text_14">
    <!-- 融合决策 -->
    <g style="fill: #757575" transform="translate(390.45 240.882375) scale(0.06 -0.06)">
     <defs>
      <path id="NotoSansCJKjp-Regular-878d" d="M 1139 3974 
L 2624 3974 
L 2624 3360 
L 1139 3360 
L 1139 3974 
z
M 723 4320 
L 723 3014 
L 3066 3014 
L 3066 4320 
L 723 4320 
z
M 384 5094 
L 384 4685 
L 3398 4685 
L 3398 5094 
L 384 5094 
z
M 3603 4102 
L 3603 1677 
L 4518 1677 
L 4518 224 
L 3430 58 
L 3546 -403 
L 5683 -13 
C 5728 -198 5760 -371 5779 -518 
L 6182 -403 
C 6118 51 5875 781 5606 1331 
L 5235 1235 
C 5357 979 5472 678 5562 390 
L 4947 288 
L 4947 1677 
L 5926 1677 
L 5926 4102 
L 4947 4102 
L 4947 5331 
L 4518 5331 
L 4518 4102 
L 3603 4102 
z
M 1120 1146 
L 1120 800 
L 1683 800 
L 1683 -333 
L 2048 -333 
L 2048 800 
L 2650 800 
L 2650 1146 
L 1120 1146 
z
M 3994 3686 
L 4544 3686 
L 4544 2106 
L 3994 2106 
L 3994 3686 
z
M 4922 3686 
L 5510 3686 
L 5510 2106 
L 4922 2106 
L 4922 3686 
z
M 2912 2285 
L 2912 1728 
C 2893 1702 2880 1696 2797 1696 
C 2739 1696 2528 1696 2490 1696 
C 2394 1696 2381 1702 2381 1798 
L 2381 2285 
L 2912 2285 
z
M 454 2650 
L 454 -499 
L 838 -499 
L 838 2285 
L 1363 2285 
L 1363 2266 
C 1363 2003 1312 1626 845 1389 
C 922 1344 1043 1242 1101 1171 
C 1606 1472 1670 1901 1670 2253 
L 1670 2285 
L 2067 2285 
L 2067 1792 
C 2067 1466 2144 1395 2458 1395 
C 2509 1395 2797 1395 2861 1395 
L 2912 1395 
L 2912 -45 
C 2912 -109 2893 -128 2829 -128 
C 2758 -134 2547 -134 2298 -128 
C 2349 -237 2400 -397 2413 -499 
C 2765 -499 2989 -493 3130 -435 
C 3277 -365 3309 -256 3309 -45 
L 3309 2650 
L 454 2650 
z
" transform="scale(0.015625)"/>
      <path id="NotoSansCJKjp-Regular-5408" d="M 1587 3283 
L 1587 2854 
L 4819 2854 
L 4819 3283 
L 1587 3283 
z
M 3187 4890 
C 3789 4070 4915 3168 5914 2637 
C 5997 2778 6118 2944 6234 3066 
C 5216 3520 4090 4410 3405 5363 
L 2912 5363 
C 2413 4531 1338 3552 218 2982 
C 320 2880 454 2714 518 2605 
C 1613 3194 2656 4109 3187 4890 
z
M 1254 2048 
L 1254 -518 
L 1728 -518 
L 1728 -250 
L 4685 -250 
L 4685 -518 
L 5171 -518 
L 5171 2048 
L 1254 2048 
z
M 1728 179 
L 1728 1613 
L 4685 1613 
L 4685 179 
L 1728 179 
z
" transform="scale(0.015625)"/>
      <path id="NotoSansCJKjp-Regular-51b3" d="M 326 4890 
C 691 4486 1126 3936 1312 3578 
L 1722 3853 
C 1517 4205 1069 4736 698 5120 
L 326 4890 
z
M 243 70 
L 659 -218 
C 1005 390 1408 1203 1715 1901 
L 1357 2195 
C 1018 1446 557 582 243 70 
z
M 5050 2426 
L 4038 2426 
C 4070 2701 4077 2976 4077 3238 
L 4077 3904 
L 5050 3904 
L 5050 2426 
z
M 3571 5363 
L 3571 4365 
L 2291 4365 
L 2291 3904 
L 3571 3904 
L 3571 3238 
C 3571 2976 3565 2707 3539 2426 
L 1958 2426 
L 1958 1965 
L 3462 1965 
C 3290 1184 2822 416 1594 -141 
C 1709 -237 1869 -422 1939 -525 
C 3174 90 3699 928 3923 1786 
C 4275 691 4883 -102 5869 -499 
C 5946 -371 6086 -186 6195 -83 
C 5248 243 4646 979 4333 1965 
L 6157 1965 
L 6157 2426 
L 5510 2426 
L 5510 4365 
L 4077 4365 
L 4077 5363 
L 3571 5363 
z
" transform="scale(0.015625)"/>
      <path id="NotoSansCJKjp-Regular-7b56" d="M 3699 5402 
C 3494 4826 3117 4288 2669 3936 
C 2752 3891 2880 3808 2976 3738 
L 2976 3514 
L 435 3514 
L 435 3091 
L 2976 3091 
L 2976 2592 
L 896 2592 
L 896 934 
L 1395 934 
L 1395 2176 
L 2976 2176 
L 2976 1619 
C 2406 915 1338 346 275 96 
C 384 0 512 -186 582 -307 
C 1459 -58 2349 422 2976 1043 
L 2976 -512 
L 3488 -512 
L 3488 1030 
C 4045 512 4890 -13 5888 -275 
C 5958 -154 6099 38 6195 141 
C 5018 403 4000 998 3488 1568 
L 3488 2176 
L 5088 2176 
L 5088 1402 
C 5088 1338 5069 1318 4998 1318 
C 4922 1312 4678 1312 4416 1318 
C 4474 1216 4550 1062 4576 941 
C 4941 941 5197 941 5363 1005 
C 5536 1075 5581 1178 5581 1402 
L 5581 2592 
L 3488 2592 
L 3488 3091 
L 5946 3091 
L 5946 3514 
L 3488 3514 
L 3488 3923 
L 3347 3923 
C 3475 4070 3603 4230 3718 4403 
L 4198 4403 
C 4365 4154 4518 3866 4582 3661 
L 5011 3814 
C 4954 3974 4832 4198 4698 4403 
L 6029 4403 
L 6029 4813 
L 3962 4813 
C 4038 4966 4109 5126 4173 5286 
L 3699 5402 
z
M 1222 5402 
C 1005 4838 627 4288 211 3923 
C 326 3859 525 3725 614 3654 
C 819 3859 1024 4115 1216 4403 
L 1523 4403 
C 1664 4147 1798 3846 1862 3648 
L 2285 3808 
C 2234 3968 2125 4192 2010 4403 
L 3104 4403 
L 3104 4813 
L 1453 4813 
C 1536 4966 1613 5120 1677 5280 
L 1222 5402 
z
" transform="scale(0.015625)"/>
     </defs>
     <use xlink:href="#NotoSansCJKjp-Regular-878d"/>
     <use xlink:href="#NotoSansCJKjp-Regular-5408" transform="translate(99.999985 0)"/>
     <use xlink:href="#NotoSansCJKjp-Regular-51b3" transform="translate(199.999969 0)"/>
     <use xlink:href="#NotoSansCJKjp-Regular-7b56" transform="translate(299.999954 0)"/>
    </g>
   </g>
   <g id="patch_20">
    <path d="M 357.950885 268.461 
Q 402.449308 268.461 445.27068 268.461 
" style="fill: none; stroke: #4caf50; stroke-width: 1.5; stroke-linecap: round"/>
    <path d="M 440.87068 266.261 
L 445.27068 268.461 
L 440.87068 270.661 
" style="fill: none; stroke: #4caf50; stroke-width: 1.5; stroke-linecap: round"/>
   </g>
   <g id="text_15">
    <!-- 生成的 Kernel 代码 -->
    <g style="fill: #757575" transform="translate(376.997344 263.404875) scale(0.06 -0.06)">
     <defs>
      <path id="NotoSansCJKjp-Regular-751f" d="M 1530 5274 
C 1286 4358 870 3469 346 2899 
C 467 2835 678 2694 774 2611 
C 1018 2899 1242 3264 1446 3667 
L 2963 3667 
L 2963 2253 
L 1056 2253 
L 1056 1792 
L 2963 1792 
L 2963 160 
L 352 160 
L 352 -307 
L 6074 -307 
L 6074 160 
L 3462 160 
L 3462 1792 
L 5536 1792 
L 5536 2253 
L 3462 2253 
L 3462 3667 
L 5766 3667 
L 5766 4134 
L 3462 4134 
L 3462 5376 
L 2963 5376 
L 2963 4134 
L 1658 4134 
C 1798 4461 1920 4813 2016 5165 
L 1530 5274 
z
" transform="scale(0.015625)"/>
      <path id="NotoSansCJKjp-Regular-6210" d="M 3482 5370 
C 3482 5005 3494 4640 3514 4288 
L 819 4288 
L 819 2490 
C 819 1658 762 550 230 -237 
C 346 -294 550 -461 634 -557 
C 1222 288 1318 1581 1318 2483 
L 1318 2528 
L 2490 2528 
C 2464 1427 2432 1018 2349 922 
C 2298 864 2240 851 2144 851 
C 2035 851 1760 851 1466 883 
C 1542 762 1594 570 1600 435 
C 1914 416 2208 416 2374 429 
C 2547 448 2656 493 2758 614 
C 2893 787 2925 1331 2957 2771 
C 2957 2835 2963 2976 2963 2976 
L 1318 2976 
L 1318 3821 
L 3546 3821 
C 3622 2784 3776 1837 4019 1101 
C 3597 614 3104 218 2534 -83 
C 2637 -179 2810 -378 2886 -480 
C 3379 -186 3821 166 4211 589 
C 4506 -70 4890 -467 5382 -467 
C 5875 -467 6054 -147 6138 947 
C 6010 992 5830 1101 5722 1210 
C 5683 358 5606 26 5421 26 
C 5094 26 4806 390 4570 1018 
C 5043 1632 5421 2362 5696 3200 
L 5216 3322 
C 5011 2675 4736 2093 4390 1581 
C 4224 2202 4102 2963 4032 3821 
L 6086 3821 
L 6086 4288 
L 4006 4288 
C 3987 4640 3981 4998 3981 5370 
L 3482 5370 
z
M 4294 5056 
C 4704 4845 5197 4518 5440 4288 
L 5741 4621 
C 5491 4838 4986 5152 4582 5350 
L 4294 5056 
z
" transform="scale(0.015625)"/>
      <path id="NotoSansCJKjp-Regular-7684" d="M 3533 2707 
C 3885 2240 4320 1600 4512 1210 
L 4922 1466 
C 4710 1843 4269 2464 3904 2918 
L 3533 2707 
z
M 1536 5389 
C 1485 5082 1376 4659 1274 4346 
L 557 4346 
L 557 -346 
L 998 -346 
L 998 160 
L 2784 160 
L 2784 4346 
L 1715 4346 
C 1824 4621 1946 4979 2054 5299 
L 1536 5389 
z
M 998 3917 
L 2342 3917 
L 2342 2566 
L 998 2566 
L 998 3917 
z
M 998 595 
L 998 2144 
L 2342 2144 
L 2342 595 
L 998 595 
z
M 3827 5402 
C 3622 4518 3277 3635 2835 3066 
C 2950 3002 3149 2867 3238 2790 
C 3456 3098 3661 3488 3840 3923 
L 5478 3923 
C 5402 1357 5299 371 5094 154 
C 5018 64 4947 45 4819 45 
C 4672 45 4288 51 3866 83 
C 3955 -38 4013 -243 4026 -378 
C 4384 -397 4762 -410 4979 -390 
C 5210 -365 5350 -314 5498 -122 
C 5754 192 5843 1184 5939 4122 
C 5946 4186 5946 4365 5946 4365 
L 4013 4365 
C 4115 4666 4211 4986 4288 5299 
L 3827 5402 
z
" transform="scale(0.015625)"/>
      <path id="NotoSansCJKjp-Regular-4b" d="M 646 0 
L 1235 0 
L 1235 1485 
L 2042 2445 
L 3450 0 
L 4109 0 
L 2413 2912 
L 3885 4691 
L 3213 4691 
L 1248 2336 
L 1235 2336 
L 1235 4691 
L 646 4691 
L 646 0 
z
" transform="scale(0.015625)"/>
      <path id="NotoSansCJKjp-Regular-6c" d="M 1203 -83 
C 1363 -83 1459 -58 1542 -32 
L 1459 416 
C 1395 403 1370 403 1338 403 
C 1248 403 1178 474 1178 653 
L 1178 5094 
L 589 5094 
L 589 691 
C 589 198 768 -83 1203 -83 
z
" transform="scale(0.015625)"/>
      <path id="NotoSansCJKjp-Regular-4ee3" d="M 4576 5011 
C 4954 4691 5402 4243 5613 3955 
L 5984 4211 
C 5766 4499 5306 4934 4922 5242 
L 4576 5011 
z
M 3507 5286 
C 3533 4608 3578 3968 3635 3379 
L 2074 3181 
L 2144 2726 
L 3686 2918 
C 3930 909 4442 -429 5504 -506 
C 5843 -525 6099 -192 6240 915 
C 6144 960 5933 1075 5837 1171 
C 5773 429 5670 51 5485 58 
C 4800 128 4378 1280 4160 2982 
L 6112 3226 
L 6042 3680 
L 4109 3437 
C 4045 4006 4006 4634 3987 5286 
L 3507 5286 
z
M 2003 5312 
C 1581 4294 870 3315 134 2688 
C 218 2579 365 2336 416 2227 
C 710 2490 998 2810 1274 3162 
L 1274 -499 
L 1766 -499 
L 1766 3866 
C 2029 4275 2266 4717 2458 5165 
L 2003 5312 
z
" transform="scale(0.015625)"/>
      <path id="NotoSansCJKjp-Regular-7801" d="M 2624 1312 
L 2624 877 
L 5069 877 
L 5069 1312 
L 2624 1312 
z
M 3142 4160 
C 3098 3526 3014 2669 2931 2157 
L 3059 2157 
L 5523 2150 
C 5402 749 5261 179 5094 13 
C 5030 -51 4966 -64 4851 -58 
C 4736 -58 4448 -58 4141 -26 
C 4218 -147 4262 -333 4275 -467 
C 4582 -486 4877 -486 5043 -474 
C 5235 -461 5357 -416 5478 -275 
C 5709 -45 5856 627 6003 2355 
C 6010 2426 6016 2566 6016 2566 
L 5222 2566 
C 5325 3360 5427 4320 5478 4986 
L 5139 5024 
L 5062 4998 
L 2835 4998 
L 2835 4557 
L 4979 4557 
C 4928 3994 4845 3213 4768 2566 
L 3437 2566 
C 3494 3040 3558 3642 3590 4128 
L 3142 4160 
z
M 326 5037 
L 326 4595 
L 1107 4595 
C 928 3616 640 2707 186 2099 
C 262 1971 371 1702 403 1581 
C 525 1741 640 1914 742 2106 
L 742 -218 
L 1158 -218 
L 1158 294 
L 2336 294 
L 2336 3066 
L 1165 3066 
C 1331 3546 1466 4064 1568 4595 
L 2522 4595 
L 2522 5037 
L 326 5037 
z
M 1158 2630 
L 1914 2630 
L 1914 723 
L 1158 723 
L 1158 2630 
z
" transform="scale(0.015625)"/>
     </defs>
     <use xlink:href="#NotoSansCJKjp-Regular-751f"/>
     <use xlink:href="#NotoSansCJKjp-Regular-6210" transform="translate(99.999985 0)"/>
     <use xlink:href="#NotoSansCJKjp-Regular-7684" transform="translate(199.999969 0)"/>
     <use xlink:href="#NotoSansCJKjp-Regular-20" transform="translate(299.999954 0)"/>
     <use xlink:href="#NotoSansCJKjp-Regular-4b" transform="translate(322.399948 0)"/>
     <use xlink:href="#NotoSansCJKjp-Regular-65" transform="translate(386.999939 0)"/>
     <use xlink:href="#NotoSansCJKjp-Regular-72" transform="translate(442.399933 0)"/>
     <use xlink:href="#NotoSansCJKjp-Regular-6e" transform="translate(481.199921 0)"/>
     <use xlink:href="#NotoSansCJKjp-Regular-65" transform="translate(542.199905 0)"/>
     <use xlink:href="#NotoSansCJKjp-Regular-6c" transform="translate(597.599899 0)"/>
     <use xlink:href="#NotoSansCJKjp-Regular-20" transform="translate(625.999893 0)"/>
     <use xlink:href="#NotoSansCJKjp-Regular-4ee3" transform="translate(648.399887 0)"/>
     <use xlink:href="#NotoSansCJKjp-Regular-7801" transform="translate(748.399872 0)"/>
    </g>
   </g>
   <g id="patch_21">
    <path d="M 446.950711 299.9925 
Q 251.325944 299.9925 57.378228 299.9925 
" style="fill: none; stroke: #2c5f8a; stroke-width: 1.5; stroke-linecap: round"/>
    <path d="M 61.778228 302.1925 
L 57.378228 299.9925 
L 61.778228 297.7925 
" style="fill: none; stroke: #2c5f8a; stroke-width: 1.5; stroke-linecap: round"/>
   </g>
   <g id="text_16">
    <!-- 输出文件（HTML/TXT/PY） -->
    <g style="fill: #757575" transform="translate(214.121719 294.966375) scale(0.06 -0.06)">
     <defs>
      <path id="NotoSansCJKjp-Regular-8f93" d="M 4698 2861 
L 4698 544 
L 5075 544 
L 5075 2861 
L 4698 2861 
z
M 5510 3098 
L 5510 32 
C 5510 -38 5485 -58 5414 -64 
C 5331 -64 5075 -64 4781 -58 
C 4845 -173 4896 -346 4909 -454 
C 5286 -454 5542 -448 5696 -384 
C 5856 -314 5901 -198 5901 32 
L 5901 3098 
L 5510 3098 
z
M 454 2112 
C 506 2163 691 2202 896 2202 
L 1402 2202 
L 1402 1318 
C 973 1216 576 1126 269 1069 
L 378 614 
L 1402 877 
L 1402 -506 
L 1824 -506 
L 1824 986 
L 2355 1126 
L 2317 1530 
L 1824 1414 
L 1824 2202 
L 2336 2202 
L 2336 2643 
L 1824 2643 
L 1824 3616 
L 1402 3616 
L 1402 2643 
L 845 2643 
C 1011 3091 1171 3622 1299 4173 
L 2349 4173 
L 2349 4608 
L 1389 4608 
C 1440 4838 1478 5069 1510 5293 
L 1062 5370 
C 1037 5120 1005 4858 960 4608 
L 301 4608 
L 301 4173 
L 877 4173 
C 762 3642 640 3206 582 3040 
C 493 2752 416 2547 307 2515 
C 358 2406 429 2202 454 2112 
z
M 4218 5395 
C 3795 4723 3002 4090 2227 3731 
C 2342 3635 2470 3488 2541 3373 
C 2714 3462 2886 3565 3053 3674 
L 3053 3405 
L 5421 3405 
L 5421 3718 
C 5581 3622 5754 3526 5926 3437 
C 5984 3565 6118 3718 6234 3814 
C 5562 4102 4954 4467 4467 5011 
L 4608 5222 
L 4218 5395 
z
M 3238 3802 
C 3597 4064 3936 4371 4218 4698 
C 4544 4339 4896 4051 5286 3802 
L 3238 3802 
z
M 3930 2598 
L 3930 2093 
L 3053 2093 
L 3053 2598 
L 3930 2598 
z
M 2656 2982 
L 2656 -486 
L 3053 -486 
L 3053 832 
L 3930 832 
L 3930 -6 
C 3930 -64 3917 -77 3866 -83 
C 3802 -83 3635 -83 3437 -77 
C 3494 -192 3546 -365 3558 -474 
C 3834 -474 4032 -474 4166 -403 
C 4301 -333 4333 -211 4333 -6 
L 4333 2982 
L 2656 2982 
z
M 3053 1722 
L 3930 1722 
L 3930 1197 
L 3053 1197 
L 3053 1722 
z
" transform="scale(0.015625)"/>
      <path id="NotoSansCJKjp-Regular-51fa" d="M 966 4768 
L 966 2560 
L 2918 2560 
L 2918 365 
L 1203 365 
L 1203 2144 
L 723 2144 
L 723 -512 
L 1203 -512 
L 1203 -109 
L 5222 -109 
L 5222 -499 
L 5715 -499 
L 5715 2144 
L 5222 2144 
L 5222 365 
L 3418 365 
L 3418 2560 
L 5459 2560 
L 5459 4768 
L 4960 4768 
L 4960 3021 
L 3418 3021 
L 3418 5344 
L 2918 5344 
L 2918 3021 
L 1446 3021 
L 1446 4768 
L 966 4768 
z
" transform="scale(0.015625)"/>
      <path id="NotoSansCJKjp-Regular-6587" d="M 2944 5376 
L 2944 4288 
L 320 4288 
L 320 3821 
L 1274 3821 
C 1638 2797 2138 1920 2803 1216 
C 2118 653 1274 237 250 -58 
C 346 -173 499 -403 557 -518 
C 1594 -186 2458 262 3162 864 
C 3878 230 4755 -237 5824 -512 
C 5907 -378 6061 -154 6176 -45 
C 5133 198 4262 640 3558 1229 
C 4230 1914 4742 2758 5120 3821 
L 6106 3821 
L 6106 4288 
L 3437 4288 
L 3437 5376 
L 2944 5376 
z
M 3187 1574 
C 2579 2195 2118 2950 1798 3821 
L 4563 3821 
C 4230 2912 3782 2170 3187 1574 
z
" transform="scale(0.015625)"/>
      <path id="NotoSansCJKjp-Regular-4ef6" d="M 2029 2182 
L 2029 1715 
L 3866 1715 
L 3866 -512 
L 4346 -512 
L 4346 1715 
L 6099 1715 
L 6099 2182 
L 4346 2182 
L 4346 3597 
L 5818 3597 
L 5818 4064 
L 4346 4064 
L 4346 5299 
L 3866 5299 
L 3866 4064 
L 3008 4064 
C 3091 4352 3162 4659 3226 4960 
L 2765 5056 
C 2618 4218 2349 3392 1978 2861 
C 2093 2803 2298 2688 2387 2618 
C 2560 2886 2720 3226 2854 3597 
L 3866 3597 
L 3866 2182 
L 2029 2182 
z
M 1715 5350 
C 1370 4384 806 3424 205 2797 
C 288 2688 429 2438 480 2323 
C 685 2541 877 2797 1069 3072 
L 1069 -499 
L 1530 -499 
L 1530 3821 
C 1773 4269 1990 4742 2170 5216 
L 1715 5350 
z
" transform="scale(0.015625)"/>
      <path id="NotoSansCJKjp-Regular-ff08" d="M 4448 2432 
C 4448 1184 4954 166 5722 -614 
L 6106 -416 
C 5370 346 4915 1293 4915 2432 
C 4915 3571 5370 4518 6106 5280 
L 5722 5478 
C 4954 4698 4448 3680 4448 2432 
z
" transform="scale(0.015625)"/>
      <path id="NotoSansCJKjp-Regular-48" d="M 646 0 
L 1235 0 
L 1235 2214 
L 3424 2214 
L 3424 0 
L 4019 0 
L 4019 4691 
L 3424 4691 
L 3424 2726 
L 1235 2726 
L 1235 4691 
L 646 4691 
L 646 0 
z
" transform="scale(0.015625)"/>
      <path id="NotoSansCJKjp-Regular-54" d="M 1619 0 
L 2214 0 
L 2214 4192 
L 3635 4192 
L 3635 4691 
L 198 4691 
L 198 4192 
L 1619 4192 
L 1619 0 
z
" transform="scale(0.015625)"/>
      <path id="NotoSansCJKjp-Regular-4d" d="M 646 0 
L 1178 0 
L 1178 2598 
C 1178 3002 1139 3571 1101 3981 
L 1126 3981 
L 1504 2912 
L 2394 474 
L 2790 474 
L 3674 2912 
L 4051 3981 
L 4077 3981 
C 4045 3571 4000 3002 4000 2598 
L 4000 0 
L 4550 0 
L 4550 4691 
L 3840 4691 
L 2944 2182 
C 2835 1862 2739 1530 2618 1203 
L 2592 1203 
C 2477 1530 2374 1862 2253 2182 
L 1357 4691 
L 646 4691 
L 646 0 
z
" transform="scale(0.015625)"/>
      <path id="NotoSansCJKjp-Regular-2f" d="M 70 -1146 
L 499 -1146 
L 2413 5082 
L 1990 5082 
L 70 -1146 
z
" transform="scale(0.015625)"/>
      <path id="NotoSansCJKjp-Regular-50" d="M 646 0 
L 1235 0 
L 1235 1869 
L 2010 1869 
C 3040 1869 3738 2323 3738 3315 
C 3738 4339 3034 4691 1984 4691 
L 646 4691 
L 646 0 
z
M 1235 2349 
L 1235 4211 
L 1907 4211 
C 2733 4211 3149 4000 3149 3315 
C 3149 2643 2758 2349 1933 2349 
L 1235 2349 
z
" transform="scale(0.015625)"/>
      <path id="NotoSansCJKjp-Regular-59" d="M 1402 0 
L 1990 0 
L 1990 1818 
L 3405 4691 
L 2790 4691 
L 2189 3366 
C 2042 3021 1882 2688 1715 2336 
L 1690 2336 
C 1523 2688 1382 3021 1229 3366 
L 621 4691 
L -6 4691 
L 1402 1818 
L 1402 0 
z
" transform="scale(0.015625)"/>
      <path id="NotoSansCJKjp-Regular-ff09" d="M 1952 2432 
C 1952 3680 1446 4698 678 5478 
L 294 5280 
C 1030 4518 1485 3571 1485 2432 
C 1485 1293 1030 346 294 -416 
L 678 -614 
C 1446 166 1952 1184 1952 2432 
z
" transform="scale(0.015625)"/>
     </defs>
     <use xlink:href="#NotoSansCJKjp-Regular-8f93"/>
     <use xlink:href="#NotoSansCJKjp-Regular-51fa" transform="translate(99.999985 0)"/>
     <use xlink:href="#NotoSansCJKjp-Regular-6587" transform="translate(199.999969 0)"/>
     <use xlink:href="#NotoSansCJKjp-Regular-4ef6" transform="translate(299.999954 0)"/>
     <use xlink:href="#NotoSansCJKjp-Regular-ff08" transform="translate(399.999939 0)"/>
     <use xlink:href="#NotoSansCJKjp-Regular-48" transform="translate(499.999924 0)"/>
     <use xlink:href="#NotoSansCJKjp-Regular-54" transform="translate(572.799911 0)"/>
     <use xlink:href="#NotoSansCJKjp-Regular-4d" transform="translate(632.699905 0)"/>
     <use xlink:href="#NotoSansCJKjp-Regular-4c" transform="translate(713.899887 0)"/>
     <use xlink:href="#NotoSansCJKjp-Regular-2f" transform="translate(768.199875 0)"/>
     <use xlink:href="#NotoSansCJKjp-Regular-54" transform="translate(807.399872 0)"/>
     <use xlink:href="#NotoSansCJKjp-Regular-58" transform="translate(867.299866 0)"/>
     <use xlink:href="#NotoSansCJKjp-Regular-54" transform="translate(924.599854 0)"/>
     <use xlink:href="#NotoSansCJKjp-Regular-2f" transform="translate(984.499847 0)"/>
     <use xlink:href="#NotoSansCJKjp-Regular-50" transform="translate(1023.699844 0)"/>
     <use xlink:href="#NotoSansCJKjp-Regular-59" transform="translate(1086.999832 0)"/>
     <use xlink:href="#NotoSansCJKjp-Regular-ff09" transform="translate(1140.099823 0)"/>
    </g>
   </g>
   <g id="text_17">
    <!-- torchdynamo_debug.html -->
    <g style="fill: #9c27b0" transform="translate(39.966094 351.179812) scale(0.06 -0.06)">
     <defs>
      <path id="NotoSansCJKjp-Regular-74" d="M 1677 -83 
C 1894 -83 2125 -19 2323 45 
L 2208 486 
C 2093 435 1939 390 1811 390 
C 1408 390 1274 634 1274 1056 
L 1274 3002 
L 2221 3002 
L 2221 3475 
L 1274 3475 
L 1274 4454 
L 787 4454 
L 723 3475 
L 173 3443 
L 173 3002 
L 691 3002 
L 691 1075 
C 691 378 941 -83 1677 -83 
z
" transform="scale(0.015625)"/>
      <path id="NotoSansCJKjp-Regular-63" d="M 1958 -83 
C 2374 -83 2771 83 3085 352 
L 2829 749 
C 2611 557 2330 403 2010 403 
C 1370 403 934 934 934 1734 
C 934 2534 1395 3072 2029 3072 
C 2298 3072 2522 2950 2720 2771 
L 3014 3155 
C 2771 3373 2458 3565 2003 3565 
C 1107 3565 333 2893 333 1734 
C 333 582 1037 -83 1958 -83 
z
" transform="scale(0.015625)"/>
      <path id="NotoSansCJKjp-Regular-79" d="M 646 -1498 
C 1338 -1498 1702 -973 1946 -294 
L 3251 3475 
L 2682 3475 
L 2054 1549 
C 1965 1235 1862 883 1773 563 
L 1741 563 
C 1619 890 1504 1242 1395 1549 
L 691 3475 
L 83 3475 
L 1478 -6 
L 1402 -269 
C 1254 -698 1011 -1018 621 -1018 
C 525 -1018 422 -986 352 -960 
L 237 -1427 
C 346 -1472 486 -1498 646 -1498 
z
" transform="scale(0.015625)"/>
      <path id="NotoSansCJKjp-Regular-6d" d="M 589 0 
L 1178 0 
L 1178 2522 
C 1491 2880 1786 3053 2048 3053 
C 2490 3053 2694 2778 2694 2125 
L 2694 0 
L 3277 0 
L 3277 2522 
C 3603 2880 3885 3053 4154 3053 
C 4595 3053 4800 2778 4800 2125 
L 4800 0 
L 5382 0 
L 5382 2202 
C 5382 3085 5043 3565 4333 3565 
C 3904 3565 3546 3290 3181 2899 
C 3040 3309 2758 3565 2221 3565 
C 1805 3565 1446 3302 1139 2970 
L 1126 2970 
L 1069 3475 
L 589 3475 
L 589 0 
z
" transform="scale(0.015625)"/>
      <path id="NotoSansCJKjp-Regular-5f" d="M 83 -896 
L 3488 -896 
L 3488 -512 
L 83 -512 
L 83 -896 
z
" transform="scale(0.015625)"/>
      <path id="NotoSansCJKjp-Regular-62" d="M 2118 -83 
C 2912 -83 3629 602 3629 1792 
C 3629 2867 3142 3565 2246 3565 
C 1856 3565 1472 3347 1152 3078 
L 1178 3699 
L 1178 5094 
L 589 5094 
L 589 0 
L 1056 0 
L 1107 358 
L 1133 358 
C 1434 83 1798 -83 2118 -83 
z
M 2022 410 
C 1792 410 1478 499 1178 768 
L 1178 2598 
C 1504 2906 1811 3072 2099 3072 
C 2765 3072 3021 2560 3021 1786 
C 3021 928 2598 410 2022 410 
z
" transform="scale(0.015625)"/>
      <path id="NotoSansCJKjp-Regular-2e" d="M 890 -83 
C 1120 -83 1312 96 1312 358 
C 1312 627 1120 806 890 806 
C 653 806 467 627 467 358 
C 467 96 653 -83 890 -83 
z
" transform="scale(0.015625)"/>
     </defs>
     <use xlink:href="#NotoSansCJKjp-Regular-74"/>
     <use xlink:href="#NotoSansCJKjp-Regular-6f" transform="translate(37.699997 0)"/>
     <use xlink:href="#NotoSansCJKjp-Regular-72" transform="translate(98.299988 0)"/>
     <use xlink:href="#NotoSansCJKjp-Regular-63" transform="translate(137.099976 0)"/>
     <use xlink:href="#NotoSansCJKjp-Regular-68" transform="translate(188.09996 0)"/>
     <use xlink:href="#NotoSansCJKjp-Regular-64" transform="translate(248.799957 0)"/>
     <use xlink:href="#NotoSansCJKjp-Regular-79" transform="translate(310.799942 0)"/>
     <use xlink:href="#NotoSansCJKjp-Regular-6e" transform="translate(362.899933 0)"/>
     <use xlink:href="#NotoSansCJKjp-Regular-61" transform="translate(423.899918 0)"/>
     <use xlink:href="#NotoSansCJKjp-Regular-6d" transform="translate(480.199905 0)"/>
     <use xlink:href="#NotoSansCJKjp-Regular-6f" transform="translate(572.799896 0)"/>
     <use xlink:href="#NotoSansCJKjp-Regular-5f" transform="translate(633.399887 0)"/>
     <use xlink:href="#NotoSansCJKjp-Regular-64" transform="translate(689.299881 0)"/>
     <use xlink:href="#NotoSansCJKjp-Regular-65" transform="translate(751.299866 0)"/>
     <use xlink:href="#NotoSansCJKjp-Regular-62" transform="translate(806.69986 0)"/>
     <use xlink:href="#NotoSansCJKjp-Regular-75" transform="translate(868.499847 0)"/>
     <use xlink:href="#NotoSansCJKjp-Regular-67" transform="translate(929.199844 0)"/>
     <use xlink:href="#NotoSansCJKjp-Regular-2e" transform="translate(985.599838 0)"/>
     <use xlink:href="#NotoSansCJKjp-Regular-68" transform="translate(1013.399826 0)"/>
     <use xlink:href="#NotoSansCJKjp-Regular-74" transform="translate(1074.099823 0)"/>
     <use xlink:href="#NotoSansCJKjp-Regular-6d" transform="translate(1111.79982 0)"/>
     <use xlink:href="#NotoSansCJKjp-Regular-6c" transform="translate(1204.399811 0)"/>
    </g>
   </g>
   <g id="text_18">
    <!-- inductor.html -->
    <g style="fill: #9c27b0" transform="translate(159.855 351.242625) scale(0.06 -0.06)">
     <use xlink:href="#NotoSansCJKjp-Regular-69"/>
     <use xlink:href="#NotoSansCJKjp-Regular-6e" transform="translate(27.499985 0)"/>
     <use xlink:href="#NotoSansCJKjp-Regular-64" transform="translate(88.499969 0)"/>
     <use xlink:href="#NotoSansCJKjp-Regular-75" transform="translate(150.499954 0)"/>
     <use xlink:href="#NotoSansCJKjp-Regular-63" transform="translate(211.199951 0)"/>
     <use xlink:href="#NotoSansCJKjp-Regular-74" transform="translate(262.199936 0)"/>
     <use xlink:href="#NotoSansCJKjp-Regular-6f" transform="translate(299.899933 0)"/>
     <use xlink:href="#NotoSansCJKjp-Regular-72" transform="translate(360.499924 0)"/>
     <use xlink:href="#NotoSansCJKjp-Regular-2e" transform="translate(399.299911 0)"/>
     <use xlink:href="#NotoSansCJKjp-Regular-68" transform="translate(427.099899 0)"/>
     <use xlink:href="#NotoSansCJKjp-Regular-74" transform="translate(487.799896 0)"/>
     <use xlink:href="#NotoSansCJKjp-Regular-6d" transform="translate(525.499893 0)"/>
     <use xlink:href="#NotoSansCJKjp-Regular-6c" transform="translate(618.099884 0)"/>
    </g>
   </g>
   <g id="text_19">
    <!-- fx_graph_readable.txt -->
    <g style="fill: #9c27b0" transform="translate(250.478438 351.219187) scale(0.06 -0.06)">
     <defs>
      <path id="NotoSansCJKjp-Regular-66" d="M 211 3002 
L 685 3002 
L 685 0 
L 1267 0 
L 1267 3002 
L 2003 3002 
L 2003 3475 
L 1267 3475 
L 1267 4026 
C 1267 4474 1427 4710 1760 4710 
C 1882 4710 2022 4678 2150 4614 
L 2278 5069 
C 2118 5133 1914 5178 1696 5178 
C 1005 5178 685 4736 685 4032 
L 685 3475 
L 211 3443 
L 211 3002 
z
" transform="scale(0.015625)"/>
      <path id="NotoSansCJKjp-Regular-78" d="M 96 0 
L 710 0 
L 1178 813 
C 1299 1024 1408 1235 1530 1434 
L 1562 1434 
C 1696 1235 1824 1024 1939 813 
L 2451 0 
L 3091 0 
L 1946 1754 
L 3002 3475 
L 2394 3475 
L 1965 2714 
C 1856 2515 1760 2330 1658 2131 
L 1626 2131 
C 1510 2330 1389 2515 1286 2714 
L 819 3475 
L 186 3475 
L 1242 1811 
L 96 0 
z
" transform="scale(0.015625)"/>
     </defs>
     <use xlink:href="#NotoSansCJKjp-Regular-66"/>
     <use xlink:href="#NotoSansCJKjp-Regular-78" transform="translate(32.499985 0)"/>
     <use xlink:href="#NotoSansCJKjp-Regular-5f" transform="translate(82.299973 0)"/>
     <use xlink:href="#NotoSansCJKjp-Regular-67" transform="translate(138.199966 0)"/>
     <use xlink:href="#NotoSansCJKjp-Regular-72" transform="translate(194.59996 0)"/>
     <use xlink:href="#NotoSansCJKjp-Regular-61" transform="translate(233.399948 0)"/>
     <use xlink:href="#NotoSansCJKjp-Regular-70" transform="translate(289.699936 0)"/>
     <use xlink:href="#NotoSansCJKjp-Regular-68" transform="translate(351.699921 0)"/>
     <use xlink:href="#NotoSansCJKjp-Regular-5f" transform="translate(412.399918 0)"/>
     <use xlink:href="#NotoSansCJKjp-Regular-72" transform="translate(468.299911 0)"/>
     <use xlink:href="#NotoSansCJKjp-Regular-65" transform="translate(507.099899 0)"/>
     <use xlink:href="#NotoSansCJKjp-Regular-61" transform="translate(562.499893 0)"/>
     <use xlink:href="#NotoSansCJKjp-Regular-64" transform="translate(618.799881 0)"/>
     <use xlink:href="#NotoSansCJKjp-Regular-61" transform="translate(680.799866 0)"/>
     <use xlink:href="#NotoSansCJKjp-Regular-62" transform="translate(737.099854 0)"/>
     <use xlink:href="#NotoSansCJKjp-Regular-6c" transform="translate(798.899841 0)"/>
     <use xlink:href="#NotoSansCJKjp-Regular-65" transform="translate(827.299835 0)"/>
     <use xlink:href="#NotoSansCJKjp-Regular-2e" transform="translate(882.699829 0)"/>
     <use xlink:href="#NotoSansCJKjp-Regular-74" transform="translate(910.499817 0)"/>
     <use xlink:href="#NotoSansCJKjp-Regular-78" transform="translate(948.199814 0)"/>
     <use xlink:href="#NotoSansCJKjp-Regular-74" transform="translate(997.999802 0)"/>
    </g>
   </g>
   <g id="text_20">
    <!-- fx_graph_runnable.py -->
    <g style="fill: #9c27b0" transform="translate(352.841719 351.219187) scale(0.06 -0.06)">
     <use xlink:href="#NotoSansCJKjp-Regular-66"/>
     <use xlink:href="#NotoSansCJKjp-Regular-78" transform="translate(32.499985 0)"/>
     <use xlink:href="#NotoSansCJKjp-Regular-5f" transform="translate(82.299973 0)"/>
     <use xlink:href="#NotoSansCJKjp-Regular-67" transform="translate(138.199966 0)"/>
     <use xlink:href="#NotoSansCJKjp-Regular-72" transform="translate(194.59996 0)"/>
     <use xlink:href="#NotoSansCJKjp-Regular-61" transform="translate(233.399948 0)"/>
     <use xlink:href="#NotoSansCJKjp-Regular-70" transform="translate(289.699936 0)"/>
     <use xlink:href="#NotoSansCJKjp-Regular-68" transform="translate(351.699921 0)"/>
     <use xlink:href="#NotoSansCJKjp-Regular-5f" transform="translate(412.399918 0)"/>
     <use xlink:href="#NotoSansCJKjp-Regular-72" transform="translate(468.299911 0)"/>
     <use xlink:href="#NotoSansCJKjp-Regular-75" transform="translate(507.099899 0)"/>
     <use xlink:href="#NotoSansCJKjp-Regular-6e" transform="translate(567.799896 0)"/>
     <use xlink:href="#NotoSansCJKjp-Regular-6e" transform="translate(628.799881 0)"/>
     <use xlink:href="#NotoSansCJKjp-Regular-61" transform="translate(689.799866 0)"/>
     <use xlink:href="#NotoSansCJKjp-Regular-62" transform="translate(746.099854 0)"/>
     <use xlink:href="#NotoSansCJKjp-Regular-6c" transform="translate(807.899841 0)"/>
     <use xlink:href="#NotoSansCJKjp-Regular-65" transform="translate(836.299835 0)"/>
     <use xlink:href="#NotoSansCJKjp-Regular-2e" transform="translate(891.699829 0)"/>
     <use xlink:href="#NotoSansCJKjp-Regular-70" transform="translate(919.499817 0)"/>
     <use xlink:href="#NotoSansCJKjp-Regular-79" transform="translate(981.499802 0)"/>
    </g>
   </g>
   <g id="text_21">
    <!-- replay.py -->
    <g style="fill: #9c27b0" transform="translate(473.103281 351.227625) scale(0.06 -0.06)">
     <use xlink:href="#NotoSansCJKjp-Regular-72"/>
     <use xlink:href="#NotoSansCJKjp-Regular-65" transform="translate(38.799988 0)"/>
     <use xlink:href="#NotoSansCJKjp-Regular-70" transform="translate(94.199982 0)"/>
     <use xlink:href="#NotoSansCJKjp-Regular-6c" transform="translate(156.199966 0)"/>
     <use xlink:href="#NotoSansCJKjp-Regular-61" transform="translate(184.59996 0)"/>
     <use xlink:href="#NotoSansCJKjp-Regular-79" transform="translate(240.899948 0)"/>
     <use xlink:href="#NotoSansCJKjp-Regular-2e" transform="translate(292.999939 0)"/>
     <use xlink:href="#NotoSansCJKjp-Regular-70" transform="translate(320.799927 0)"/>
     <use xlink:href="#NotoSansCJKjp-Regular-79" transform="translate(382.799911 0)"/>
    </g>
   </g>
  </g>
 </g>
 <defs>
  <clipPath id="p024f65f007">
   <rect x="7.2" y="7.2" width="558" height="360.36"/>
  </clipPath>
 </defs>
</svg>
