<?xml version="1.0" encoding="utf-8" standalone="no"?>
<!DOCTYPE svg PUBLIC "-//W3C//DTD SVG 1.1//EN"
  "http://www.w3.org/Graphics/SVG/1.1/DTD/svg11.dtd">
<svg xmlns:xlink="http://www.w3.org/1999/xlink" width="516.6pt" height="291.6pt" viewBox="0 0 516.6 291.6" xmlns="http://www.w3.org/2000/svg" version="1.1">
 <metadata>
  <rdf:RDF xmlns:dc="http://purl.org/dc/elements/1.1/" xmlns:cc="http://creativecommons.org/ns#" xmlns:rdf="http://www.w3.org/1999/02/22-rdf-syntax-ns#">
   <cc:Work>
    <dc:type rdf:resource="http://purl.org/dc/dcmitype/StillImage"/>
    <dc:date>2026-07-11T14:01:14.083655</dc:date>
    <dc:format>image/svg+xml</dc:format>
    <dc:creator>
     <cc:Agent>
      <dc:title>Matplotlib v3.10.9, https://matplotlib.org/</dc:title>
     </cc:Agent>
    </dc:creator>
   </cc:Work>
  </rdf:RDF>
 </metadata>
 <defs>
  <style type="text/css">*{stroke-linejoin: round; stroke-linecap: butt}</style>
 </defs>
 <g id="figure_1">
  <g id="patch_1">
   <path d="M 0 291.6 
L 516.6 291.6 
L 516.6 0 
L 0 0 
z
" style="fill: #ffffff"/>
  </g>
  <g id="axes_1">
   <g id="patch_2">
    <path d="M 7.2 284.4 
L 248.256 284.4 
L 248.256 53.4 
L 7.2 53.4 
z
" clip-path="url(#p68f23ad515)" style="fill: #e2882c; opacity: 0.04"/>
   </g>
   <g id="patch_3">
    <path d="M 40.68 47.856 
L 208.08 47.856 
Q 211.428 47.856 211.428 44.16 
L 211.428 16.44 
Q 211.428 12.744 208.08 12.744 
L 40.68 12.744 
Q 37.332 12.744 37.332 16.44 
L 37.332 44.16 
Q 37.332 47.856 40.68 47.856 
z
" clip-path="url(#p68f23ad515)" style="fill: #e2882c; opacity: 0.1; stroke: #e2882c; stroke-width: 2; stroke-linejoin: miter"/>
   </g>
   <g id="patch_4">
    <path d="M 28.125 112.536 
L 220.635 112.536 
Q 223.983 112.536 223.983 108.84 
L 223.983 71.88 
Q 223.983 68.184 220.635 68.184 
L 28.125 68.184 
Q 24.777 68.184 24.777 71.88 
L 24.777 108.84 
Q 24.777 112.536 28.125 112.536 
z
" clip-path="url(#p68f23ad515)" style="fill: #e2882c; opacity: 0.1; stroke: #e2882c; stroke-width: 2; stroke-linejoin: miter"/>
   </g>
   <g id="patch_5">
    <path d="M 28.125 172.596 
L 220.635 172.596 
Q 223.983 172.596 223.983 168.9 
L 223.983 131.94 
Q 223.983 128.244 220.635 128.244 
L 28.125 128.244 
Q 24.777 128.244 24.777 131.94 
L 24.777 168.9 
Q 24.777 172.596 28.125 172.596 
z
" clip-path="url(#p68f23ad515)" style="fill: #e2882c; opacity: 0.1; stroke: #e2882c; stroke-width: 2; stroke-linejoin: miter"/>
   </g>
   <g id="patch_6">
    <path d="M 28.125 251.136 
L 220.635 251.136 
Q 223.983 251.136 223.983 247.44 
L 223.983 192 
Q 223.983 188.304 220.635 188.304 
L 28.125 188.304 
Q 24.777 188.304 24.777 192 
L 24.777 247.44 
Q 24.777 251.136 28.125 251.136 
z
" clip-path="url(#p68f23ad515)" style="fill: #757575; opacity: 0.1; stroke: #757575; stroke-width: 2; stroke-linejoin: miter"/>
   </g>
   <g id="patch_7">
    <path d="M 268.344 284.4 
L 509.4 284.4 
L 509.4 53.4 
L 268.344 53.4 
z
" clip-path="url(#p68f23ad515)" style="fill: #4caf50; opacity: 0.04"/>
   </g>
   <g id="patch_8">
    <path d="M 283.41 47.856 
L 484.29 47.856 
Q 487.638 47.856 487.638 44.16 
L 487.638 16.44 
Q 487.638 12.744 484.29 12.744 
L 283.41 12.744 
Q 280.062 12.744 280.062 16.44 
L 280.062 44.16 
Q 280.062 47.856 283.41 47.856 
z
" clip-path="url(#p68f23ad515)" style="fill: #4caf50; opacity: 0.1; stroke: #4caf50; stroke-width: 2; stroke-linejoin: miter"/>
   </g>
   <g id="patch_9">
    <path d="M 283.41 112.536 
L 484.29 112.536 
Q 487.638 112.536 487.638 108.84 
L 487.638 71.88 
Q 487.638 68.184 484.29 68.184 
L 283.41 68.184 
Q 280.062 68.184 280.062 71.88 
L 280.062 108.84 
Q 280.062 112.536 283.41 112.536 
z
" clip-path="url(#p68f23ad515)" style="fill: #4caf50; opacity: 0.1; stroke: #4caf50; stroke-width: 2; stroke-linejoin: miter"/>
   </g>
   <g id="patch_10">
    <path d="M 283.41 172.596 
L 484.29 172.596 
Q 487.638 172.596 487.638 168.9 
L 487.638 131.94 
Q 487.638 128.244 484.29 128.244 
L 283.41 128.244 
Q 280.062 128.244 280.062 131.94 
L 280.062 168.9 
Q 280.062 172.596 283.41 172.596 
z
" clip-path="url(#p68f23ad515)" style="fill: #4caf50; opacity: 0.1; stroke: #4caf50; stroke-width: 2; stroke-linejoin: miter"/>
   </g>
   <g id="patch_11">
    <path d="M 283.41 232.656 
L 484.29 232.656 
Q 487.638 232.656 487.638 228.96 
L 487.638 192 
Q 487.638 188.304 484.29 188.304 
L 283.41 188.304 
Q 280.062 188.304 280.062 192 
L 280.062 228.96 
Q 280.062 232.656 283.41 232.656 
z
" clip-path="url(#p68f23ad515)" style="fill: #4caf50; opacity: 0.1; stroke: #4caf50; stroke-width: 2; stroke-linejoin: miter"/>
   </g>
   <g id="patch_12">
    <path d="M 283.41 274.236 
L 484.29 274.236 
Q 487.638 274.236 487.638 270.54 
L 487.638 238.2 
Q 487.638 234.504 484.29 234.504 
L 283.41 234.504 
Q 280.062 234.504 280.062 238.2 
L 280.062 270.54 
Q 280.062 274.236 283.41 274.236 
z
" clip-path="url(#p68f23ad515)" style="fill: #9c27b0; opacity: 0.1; stroke: #9c27b0; stroke-width: 2; stroke-linejoin: miter"/>
   </g>
   <g id="text_1">
    <!-- Eager Autograd -->
    <g style="fill: #e2882c" transform="translate(82.361719 33.3525) scale(0.11 -0.11)">
     <defs>
      <path id="NotoSansCJKjp-Bold-45" d="M 582 0 
L 3558 0 
L 3558 794 
L 1530 794 
L 1530 2061 
L 3187 2061 
L 3187 2854 
L 1530 2854 
L 1530 3949 
L 3488 3949 
L 3488 4742 
L 582 4742 
L 582 0 
z
" transform="scale(0.015625)"/>
      <path id="NotoSansCJKjp-Bold-61" d="M 1382 -90 
C 1798 -90 2157 109 2464 384 
L 2496 384 
L 2560 0 
L 3328 0 
L 3328 2093 
C 3328 3130 2861 3674 1952 3674 
C 1389 3674 877 3456 461 3200 
L 794 2573 
C 1126 2771 1446 2918 1779 2918 
C 2221 2918 2374 2650 2387 2298 
C 947 2144 326 1741 326 979 
C 326 365 742 -90 1382 -90 
z
M 1696 646 
C 1421 646 1222 768 1222 1050 
C 1222 1376 1510 1613 2387 1715 
L 2387 998 
C 2163 774 1965 646 1696 646 
z
" transform="scale(0.015625)"/>
      <path id="NotoSansCJKjp-Bold-67" d="M 1766 -1555 
C 2963 -1555 3718 -1005 3718 -282 
C 3718 346 3245 614 2381 614 
L 1766 614 
C 1350 614 1203 717 1203 902 
C 1203 1056 1267 1133 1357 1216 
C 1517 1158 1683 1133 1818 1133 
C 2592 1133 3206 1536 3206 2349 
C 3206 2573 3136 2771 3046 2893 
L 3654 2893 
L 3654 3584 
L 2368 3584 
C 2214 3635 2029 3674 1818 3674 
C 1062 3674 378 3219 378 2381 
C 378 1958 608 1619 858 1440 
L 858 1414 
C 640 1261 461 1011 461 749 
C 461 448 595 262 787 141 
L 787 109 
C 448 -77 275 -333 275 -634 
C 275 -1267 922 -1555 1766 -1555 
z
M 1818 1715 
C 1510 1715 1261 1952 1261 2381 
C 1261 2797 1504 3027 1818 3027 
C 2138 3027 2387 2797 2387 2381 
C 2387 1952 2138 1715 1818 1715 
z
M 1907 -954 
C 1389 -954 1056 -787 1056 -493 
C 1056 -339 1126 -198 1286 -70 
C 1421 -102 1568 -115 1779 -115 
L 2221 -115 
C 2605 -115 2816 -186 2816 -442 
C 2816 -717 2451 -954 1907 -954 
z
" transform="scale(0.015625)"/>
      <path id="NotoSansCJKjp-Bold-65" d="M 2067 -90 
C 2509 -90 2963 64 3315 307 
L 2995 883 
C 2733 723 2483 640 2195 640 
C 1658 640 1274 941 1197 1523 
L 3405 1523 
C 3430 1613 3450 1786 3450 1958 
C 3450 2957 2938 3674 1952 3674 
C 1101 3674 282 2950 282 1792 
C 282 608 1062 -90 2067 -90 
z
M 1178 2157 
C 1254 2675 1587 2944 1965 2944 
C 2432 2944 2643 2637 2643 2157 
L 1178 2157 
z
" transform="scale(0.015625)"/>
      <path id="NotoSansCJKjp-Bold-72" d="M 506 0 
L 1446 0 
L 1446 2138 
C 1651 2656 1984 2842 2259 2842 
C 2413 2842 2515 2822 2643 2784 
L 2797 3597 
C 2694 3642 2579 3674 2381 3674 
C 2010 3674 1626 3418 1363 2950 
L 1344 2950 
L 1274 3584 
L 506 3584 
L 506 0 
z
" transform="scale(0.015625)"/>
      <path id="NotoSansCJKjp-Bold-20" transform="scale(0.015625)"/>
      <path id="NotoSansCJKjp-Bold-41" d="M -26 0 
L 934 0 
L 1267 1216 
L 2797 1216 
L 3130 0 
L 4128 0 
L 2611 4742 
L 1491 4742 
L -26 0 
z
M 1472 1952 
L 1613 2470 
C 1754 2963 1888 3501 2016 4019 
L 2042 4019 
C 2182 3514 2310 2963 2458 2470 
L 2598 1952 
L 1472 1952 
z
" transform="scale(0.015625)"/>
      <path id="NotoSansCJKjp-Bold-75" d="M 1574 -90 
C 2067 -90 2406 154 2714 518 
L 2739 518 
L 2810 0 
L 3578 0 
L 3578 3584 
L 2637 3584 
L 2637 1165 
C 2394 845 2202 717 1914 717 
C 1562 717 1402 909 1402 1466 
L 1402 3584 
L 467 3584 
L 467 1350 
C 467 448 800 -90 1574 -90 
z
" transform="scale(0.015625)"/>
      <path id="NotoSansCJKjp-Bold-74" d="M 1818 -90 
C 2131 -90 2381 -13 2579 45 
L 2419 730 
C 2323 691 2182 653 2067 653 
C 1747 653 1574 845 1574 1254 
L 1574 2842 
L 2464 2842 
L 2464 3584 
L 1574 3584 
L 1574 4550 
L 800 4550 
L 691 3584 
L 134 3539 
L 134 2842 
L 640 2842 
L 640 1248 
C 640 454 966 -90 1818 -90 
z
" transform="scale(0.015625)"/>
      <path id="NotoSansCJKjp-Bold-6f" d="M 2003 -90 
C 2899 -90 3725 602 3725 1792 
C 3725 2982 2899 3674 2003 3674 
C 1101 3674 282 2982 282 1792 
C 282 602 1101 -90 2003 -90 
z
M 2003 678 
C 1510 678 1242 1114 1242 1792 
C 1242 2464 1510 2906 2003 2906 
C 2490 2906 2765 2464 2765 1792 
C 2765 1114 2490 678 2003 678 
z
" transform="scale(0.015625)"/>
      <path id="NotoSansCJKjp-Bold-64" d="M 1766 -90 
C 2138 -90 2496 109 2758 371 
L 2784 371 
L 2854 0 
L 3622 0 
L 3622 5107 
L 2682 5107 
L 2682 3846 
L 2714 3283 
C 2458 3520 2208 3674 1805 3674 
C 1037 3674 301 2957 301 1792 
C 301 614 870 -90 1766 -90 
z
M 2010 685 
C 1536 685 1267 1056 1267 1805 
C 1267 2515 1606 2899 2010 2899 
C 2240 2899 2464 2829 2682 2630 
L 2682 1056 
C 2477 787 2259 685 2010 685 
z
" transform="scale(0.015625)"/>
     </defs>
     <use xlink:href="#NotoSansCJKjp-Bold-45"/>
     <use xlink:href="#NotoSansCJKjp-Bold-61" transform="translate(61.499985 0)"/>
     <use xlink:href="#NotoSansCJKjp-Bold-67" transform="translate(120.599976 0)"/>
     <use xlink:href="#NotoSansCJKjp-Bold-65" transform="translate(180.299973 0)"/>
     <use xlink:href="#NotoSansCJKjp-Bold-72" transform="translate(238.399963 0)"/>
     <use xlink:href="#NotoSansCJKjp-Bold-20" transform="translate(281.999954 0)"/>
     <use xlink:href="#NotoSansCJKjp-Bold-41" transform="translate(304.699951 0)"/>
     <use xlink:href="#NotoSansCJKjp-Bold-75" transform="translate(368.799942 0)"/>
     <use xlink:href="#NotoSansCJKjp-Bold-74" transform="translate(432.499939 0)"/>
     <use xlink:href="#NotoSansCJKjp-Bold-6f" transform="translate(474.59993 0)"/>
     <use xlink:href="#NotoSansCJKjp-Bold-67" transform="translate(537.199921 0)"/>
     <use xlink:href="#NotoSansCJKjp-Bold-72" transform="translate(596.899918 0)"/>
     <use xlink:href="#NotoSansCJKjp-Bold-61" transform="translate(640.499908 0)"/>
     <use xlink:href="#NotoSansCJKjp-Bold-64" transform="translate(699.599899 0)"/>
    </g>
   </g>
   <g id="text_2">
    <!-- Eager Autograd -->
    <g style="fill: #e2882c" transform="translate(82.361719 33.3525) scale(0.11 -0.11)">
     <use xlink:href="#NotoSansCJKjp-Bold-45"/>
     <use xlink:href="#NotoSansCJKjp-Bold-61" transform="translate(61.499985 0)"/>
     <use xlink:href="#NotoSansCJKjp-Bold-67" transform="translate(120.599976 0)"/>
     <use xlink:href="#NotoSansCJKjp-Bold-65" transform="translate(180.299973 0)"/>
     <use xlink:href="#NotoSansCJKjp-Bold-72" transform="translate(238.399963 0)"/>
     <use xlink:href="#NotoSansCJKjp-Bold-20" transform="translate(281.999954 0)"/>
     <use xlink:href="#NotoSansCJKjp-Bold-41" transform="translate(304.699951 0)"/>
     <use xlink:href="#NotoSansCJKjp-Bold-75" transform="translate(368.799942 0)"/>
     <use xlink:href="#NotoSansCJKjp-Bold-74" transform="translate(432.499939 0)"/>
     <use xlink:href="#NotoSansCJKjp-Bold-6f" transform="translate(474.59993 0)"/>
     <use xlink:href="#NotoSansCJKjp-Bold-67" transform="translate(537.199921 0)"/>
     <use xlink:href="#NotoSansCJKjp-Bold-72" transform="translate(596.899918 0)"/>
     <use xlink:href="#NotoSansCJKjp-Bold-61" transform="translate(640.499908 0)"/>
     <use xlink:href="#NotoSansCJKjp-Bold-64" transform="translate(699.599899 0)"/>
    </g>
   </g>
   <g id="text_3">
    <!-- 前向执行 -->
    <g style="fill: #e2882c" transform="translate(108.38 87.694125) scale(0.08 -0.08)">
     <defs>
      <path id="NotoSansCJKjp-Bold-524d" d="M 3731 3283 
L 3731 659 
L 4435 659 
L 4435 3283 
L 3731 3283 
z
M 5011 3462 
L 5011 275 
C 5011 192 4979 166 4877 166 
C 4774 160 4435 160 4109 173 
C 4224 -26 4346 -346 4384 -550 
C 4851 -557 5197 -538 5446 -422 
C 5696 -301 5766 -109 5766 269 
L 5766 3462 
L 5011 3462 
z
M 4461 5459 
C 4333 5158 4128 4781 3936 4486 
L 2150 4486 
L 2502 4608 
C 2394 4851 2131 5197 1901 5446 
L 1171 5190 
C 1350 4979 1542 4704 1658 4486 
L 288 4486 
L 288 3789 
L 6112 3789 
L 6112 4486 
L 4813 4486 
C 4966 4710 5139 4960 5293 5210 
L 4461 5459 
z
M 2445 1741 
L 2445 1325 
L 1363 1325 
L 1363 1741 
L 2445 1741 
z
M 2445 2310 
L 1363 2310 
L 1363 2707 
L 2445 2707 
L 2445 2310 
z
M 640 3354 
L 640 -538 
L 1363 -538 
L 1363 762 
L 2445 762 
L 2445 192 
C 2445 115 2419 90 2336 90 
C 2253 83 1990 83 1760 96 
C 1856 -77 1965 -365 2003 -557 
C 2400 -557 2688 -544 2906 -435 
C 3117 -326 3181 -141 3181 179 
L 3181 3354 
L 640 3354 
z
" transform="scale(0.015625)"/>
      <path id="NotoSansCJKjp-Bold-5411" d="M 2662 5440 
C 2586 5114 2464 4710 2323 4365 
L 550 4365 
L 550 -570 
L 1318 -570 
L 1318 3610 
L 5101 3610 
L 5101 326 
C 5101 218 5056 186 4941 186 
C 4813 179 4371 173 4000 198 
C 4109 -6 4224 -358 4250 -576 
C 4832 -576 5235 -563 5510 -442 
C 5779 -320 5869 -96 5869 314 
L 5869 4365 
L 3194 4365 
C 3341 4646 3501 4973 3642 5299 
L 2662 5440 
z
M 2637 2323 
L 3750 2323 
L 3750 1466 
L 2637 1466 
L 2637 2323 
z
M 1939 2989 
L 1939 346 
L 2637 346 
L 2637 794 
L 4454 794 
L 4454 2989 
L 1939 2989 
z
" transform="scale(0.015625)"/>
      <path id="NotoSansCJKjp-Bold-6267" d="M 3206 5440 
C 3219 4992 3226 4570 3219 4166 
L 2381 4166 
L 2381 3475 
L 3200 3475 
C 3187 3181 3168 2899 3130 2630 
L 2682 2880 
L 2304 2413 
L 2240 2771 
L 1690 2598 
L 1690 3494 
L 2259 3494 
L 2259 4205 
L 1690 4205 
L 1690 5440 
L 954 5440 
L 954 4205 
L 269 4205 
L 269 3494 
L 954 3494 
L 954 2374 
C 659 2291 390 2214 173 2163 
L 346 1427 
L 954 1626 
L 954 288 
C 954 198 928 173 851 173 
C 774 173 544 173 320 186 
C 410 -32 499 -352 525 -557 
C 941 -557 1222 -525 1421 -403 
C 1626 -282 1690 -77 1690 288 
L 1690 1862 
L 2362 2086 
L 2323 2310 
L 2995 1901 
C 2797 1088 2426 461 1766 13 
C 1939 -134 2227 -467 2310 -614 
C 3002 -77 3405 614 3648 1478 
C 3885 1318 4096 1165 4250 1037 
L 4576 1472 
C 4608 179 4787 -582 5453 -582 
C 5965 -582 6182 -326 6259 608 
C 6080 666 5792 819 5645 960 
C 5626 384 5574 141 5491 141 
C 5235 141 5267 1696 5376 4166 
L 3955 4166 
C 3962 4570 3962 4998 3955 5446 
L 3206 5440 
z
M 4595 3475 
C 4582 2835 4570 2259 4570 1754 
C 4365 1901 4096 2074 3808 2240 
C 3866 2624 3904 3034 3930 3475 
L 4595 3475 
z
" transform="scale(0.015625)"/>
      <path id="NotoSansCJKjp-Bold-884c" d="M 2861 5075 
L 2861 4339 
L 5984 4339 
L 5984 5075 
L 2861 5075 
z
M 1626 5440 
C 1318 4992 698 4410 166 4070 
C 301 3917 499 3610 595 3437 
C 1210 3866 1901 4525 2368 5133 
L 1626 5440 
z
M 2586 3296 
L 2586 2566 
L 4480 2566 
L 4480 333 
C 4480 237 4442 211 4326 211 
C 4211 205 3782 205 3418 224 
C 3520 0 3622 -333 3654 -557 
C 4224 -557 4634 -544 4909 -429 
C 5190 -314 5267 -96 5267 314 
L 5267 2566 
L 6150 2566 
L 6150 3296 
L 2586 3296 
z
M 1869 4045 
C 1453 3315 749 2573 96 2118 
C 250 1958 512 1613 621 1453 
C 794 1594 966 1754 1146 1926 
L 1146 -582 
L 1914 -582 
L 1914 2784 
C 2170 3104 2406 3437 2598 3763 
L 1869 4045 
z
" transform="scale(0.015625)"/>
     </defs>
     <use xlink:href="#NotoSansCJKjp-Bold-524d"/>
     <use xlink:href="#NotoSansCJKjp-Bold-5411" transform="translate(99.999985 0)"/>
     <use xlink:href="#NotoSansCJKjp-Bold-6267" transform="translate(199.999969 0)"/>
     <use xlink:href="#NotoSansCJKjp-Bold-884c" transform="translate(299.999954 0)"/>
    </g>
    <!-- 实时写 tape -->
    <g style="fill: #e2882c" transform="translate(102.524375 97.689625) scale(0.08 -0.08)">
     <defs>
      <path id="NotoSansCJKjp-Bold-5b9e" d="M 3392 422 
C 4211 179 5050 -211 5542 -544 
L 6010 64 
C 5491 378 4582 755 3750 992 
L 3392 422 
z
M 1485 3488 
C 1818 3296 2227 2989 2406 2778 
L 2886 3328 
C 2682 3546 2266 3821 1933 3987 
L 1485 3488 
z
M 832 2528 
C 1171 2342 1594 2054 1786 1837 
L 2246 2413 
C 2035 2618 1606 2886 1267 3040 
L 832 2528 
z
M 493 4838 
L 493 3366 
L 1254 3366 
L 1254 4122 
L 5126 4122 
L 5126 3366 
L 5933 3366 
L 5933 4838 
L 3763 4838 
C 3667 5056 3526 5312 3398 5517 
L 2624 5280 
C 2701 5146 2778 4992 2848 4838 
L 493 4838 
z
M 435 1754 
L 435 1114 
L 2509 1114 
C 2138 659 1523 326 486 96 
C 646 -70 838 -365 915 -563 
C 2330 -218 3059 339 3450 1114 
L 6003 1114 
L 6003 1754 
L 3680 1754 
C 3840 2349 3878 3046 3904 3846 
L 3091 3846 
C 3066 3008 3046 2317 2854 1754 
L 435 1754 
z
" transform="scale(0.015625)"/>
      <path id="NotoSansCJKjp-Bold-65f6" d="M 2938 2739 
C 3245 2272 3661 1638 3846 1267 
L 4531 1664 
C 4320 2029 3885 2630 3571 3072 
L 2938 2739 
z
M 1914 2464 
L 1914 1299 
L 1139 1299 
L 1139 2464 
L 1914 2464 
z
M 1914 3136 
L 1139 3136 
L 1139 4250 
L 1914 4250 
L 1914 3136 
z
M 422 4934 
L 422 102 
L 1139 102 
L 1139 614 
L 2630 614 
L 2630 4934 
L 422 4934 
z
M 4781 5395 
L 4781 4256 
L 2867 4256 
L 2867 3494 
L 4781 3494 
L 4781 454 
C 4781 326 4730 282 4589 282 
C 4448 282 3974 282 3526 301 
C 3642 83 3763 -262 3795 -474 
C 4435 -480 4890 -461 5171 -339 
C 5459 -218 5562 -13 5562 448 
L 5562 3494 
L 6214 3494 
L 6214 4256 
L 5562 4256 
L 5562 5395 
L 4781 5395 
z
" transform="scale(0.015625)"/>
      <path id="NotoSansCJKjp-Bold-5199" d="M 314 1498 
L 314 794 
L 4019 794 
C 3949 461 3866 275 3776 198 
C 3693 128 3603 115 3469 115 
C 3290 115 2861 122 2438 160 
C 2579 -45 2682 -352 2694 -563 
C 3110 -582 3520 -589 3757 -563 
C 4045 -538 4237 -480 4422 -282 
C 4582 -122 4698 198 4800 794 
L 6099 794 
L 6099 1498 
L 4890 1498 
L 4973 2355 
C 4992 2458 5005 2675 5005 2675 
L 2272 2675 
L 2381 3219 
L 4877 3219 
L 4877 3878 
L 2509 3878 
L 2598 4390 
L 2182 4429 
L 5203 4429 
L 5203 3584 
L 6003 3584 
L 6003 5139 
L 416 5139 
L 416 3584 
L 1184 3584 
L 1184 4429 
L 1824 4429 
C 1696 3603 1485 2541 1306 1882 
L 2080 1818 
L 2125 2010 
L 4179 2010 
L 4128 1498 
L 314 1498 
z
" transform="scale(0.015625)"/>
      <path id="NotoSansCJKjp-Bold-70" d="M 506 -1376 
L 1446 -1376 
L 1446 -282 
L 1414 301 
C 1683 51 1990 -90 2304 -90 
C 3091 -90 3827 621 3827 1850 
C 3827 2950 3296 3674 2419 3674 
C 2029 3674 1664 3469 1363 3213 
L 1344 3213 
L 1274 3584 
L 506 3584 
L 506 -1376 
z
M 2099 685 
C 1901 685 1677 755 1446 954 
L 1446 2534 
C 1690 2778 1907 2899 2150 2899 
C 2643 2899 2861 2522 2861 1837 
C 2861 1056 2522 685 2099 685 
z
" transform="scale(0.015625)"/>
     </defs>
     <use xlink:href="#NotoSansCJKjp-Bold-5b9e"/>
     <use xlink:href="#NotoSansCJKjp-Bold-65f6" transform="translate(99.999985 0)"/>
     <use xlink:href="#NotoSansCJKjp-Bold-5199" transform="translate(199.999969 0)"/>
     <use xlink:href="#NotoSansCJKjp-Bold-20" transform="translate(299.999954 0)"/>
     <use xlink:href="#NotoSansCJKjp-Bold-74" transform="translate(322.699951 0)"/>
     <use xlink:href="#NotoSansCJKjp-Bold-61" transform="translate(364.799942 0)"/>
     <use xlink:href="#NotoSansCJKjp-Bold-70" transform="translate(423.899933 0)"/>
     <use xlink:href="#NotoSansCJKjp-Bold-65" transform="translate(488.299927 0)"/>
    </g>
   </g>
   <g id="text_4">
    <!-- backward -->
    <g style="fill: #e2882c" transform="translate(104.78 148.061625) scale(0.08 -0.08)">
     <defs>
      <path id="NotoSansCJKjp-Bold-62" d="M 2304 -90 
C 3091 -90 3827 621 3827 1856 
C 3827 2950 3296 3674 2413 3674 
C 2061 3674 1702 3501 1414 3245 
L 1446 3821 
L 1446 5107 
L 506 5107 
L 506 0 
L 1242 0 
L 1318 378 
L 1350 378 
C 1638 77 1984 -90 2304 -90 
z
M 2099 685 
C 1901 685 1664 755 1446 954 
L 1446 2534 
C 1690 2778 1907 2899 2150 2899 
C 2643 2899 2861 2522 2861 1837 
C 2861 1056 2522 685 2099 685 
z
" transform="scale(0.015625)"/>
      <path id="NotoSansCJKjp-Bold-63" d="M 2029 -90 
C 2426 -90 2861 45 3200 346 
L 2829 966 
C 2630 800 2394 678 2131 678 
C 1613 678 1242 1114 1242 1792 
C 1242 2464 1613 2906 2163 2906 
C 2362 2906 2528 2822 2707 2675 
L 3155 3270 
C 2893 3507 2554 3674 2112 3674 
C 1139 3674 282 2982 282 1792 
C 282 602 1043 -90 2029 -90 
z
" transform="scale(0.015625)"/>
      <path id="NotoSansCJKjp-Bold-6b" d="M 506 0 
L 1434 0 
L 1434 909 
L 1933 1491 
L 2803 0 
L 3827 0 
L 2483 2106 
L 3712 3584 
L 2682 3584 
L 1459 2048 
L 1434 2048 
L 1434 5107 
L 506 5107 
L 506 0 
z
" transform="scale(0.015625)"/>
      <path id="NotoSansCJKjp-Bold-77" d="M 1101 0 
L 2176 0 
L 2541 1562 
C 2611 1894 2669 2227 2733 2611 
L 2765 2611 
C 2835 2227 2899 1901 2976 1562 
L 3354 0 
L 4461 0 
L 5344 3584 
L 4467 3584 
L 4083 1818 
C 4019 1466 3968 1120 3904 768 
L 3878 768 
C 3795 1120 3731 1466 3648 1818 
L 3200 3584 
L 2368 3584 
L 1933 1818 
C 1843 1472 1779 1120 1709 768 
L 1677 768 
C 1619 1120 1568 1466 1510 1818 
L 1114 3584 
L 179 3584 
L 1101 0 
z
" transform="scale(0.015625)"/>
     </defs>
     <use xlink:href="#NotoSansCJKjp-Bold-62"/>
     <use xlink:href="#NotoSansCJKjp-Bold-61" transform="translate(64.399994 0)"/>
     <use xlink:href="#NotoSansCJKjp-Bold-63" transform="translate(123.499985 0)"/>
     <use xlink:href="#NotoSansCJKjp-Bold-6b" transform="translate(176.199982 0)"/>
     <use xlink:href="#NotoSansCJKjp-Bold-77" transform="translate(236.599976 0)"/>
     <use xlink:href="#NotoSansCJKjp-Bold-61" transform="translate(322.899963 0)"/>
     <use xlink:href="#NotoSansCJKjp-Bold-72" transform="translate(381.999954 0)"/>
     <use xlink:href="#NotoSansCJKjp-Bold-64" transform="translate(425.599945 0)"/>
    </g>
    <!-- 逐段解释执行 -->
    <g style="fill: #e2882c" transform="translate(100.38 157.442125) scale(0.08 -0.08)">
     <defs>
      <path id="NotoSansCJKjp-Bold-9010" d="M 269 4838 
C 627 4531 1056 4083 1235 3770 
L 1869 4256 
C 1664 4563 1222 4986 851 5274 
L 269 4838 
z
M 1702 2944 
L 243 2944 
L 243 2234 
L 966 2234 
L 966 832 
C 704 614 416 410 166 243 
L 531 -518 
C 858 -243 1120 0 1376 256 
C 1766 -243 2278 -429 3046 -461 
C 3827 -493 5197 -480 5990 -442 
C 6029 -224 6144 128 6234 307 
C 5344 230 3821 218 3053 250 
C 2400 275 1946 461 1702 890 
L 1702 2944 
z
M 5312 4307 
C 5101 4019 4755 3661 4442 3379 
C 4301 3622 4128 3853 3904 4051 
C 4064 4192 4211 4333 4346 4486 
L 6067 4486 
L 6067 5120 
L 1946 5120 
L 1946 4486 
L 3392 4486 
C 2957 4122 2362 3827 1760 3635 
C 1914 3507 2163 3226 2272 3078 
C 2656 3238 3053 3443 3424 3686 
L 3590 3494 
C 3187 3123 2502 2765 1926 2573 
C 2067 2451 2272 2208 2368 2061 
C 2874 2266 3450 2618 3898 3002 
C 3949 2906 3987 2803 4019 2707 
C 3539 2157 2630 1664 1779 1434 
C 1920 1293 2125 1043 2221 877 
C 2912 1107 3616 1517 4160 1997 
C 4173 1664 4102 1402 3987 1280 
C 3898 1139 3789 1120 3648 1120 
C 3514 1120 3334 1126 3155 1152 
C 3277 947 3322 666 3322 474 
C 3494 467 3661 461 3795 467 
C 4096 474 4320 538 4531 768 
C 4800 1024 4928 1606 4838 2246 
C 5210 1920 5542 1562 5728 1280 
L 6240 1805 
C 5971 2170 5446 2643 4941 3027 
C 5267 3283 5645 3610 5984 3930 
L 5312 4307 
z
" transform="scale(0.015625)"/>
      <path id="NotoSansCJKjp-Bold-6bb5" d="M 4992 1914 
C 4845 1619 4653 1350 4422 1120 
C 4205 1357 4026 1619 3891 1914 
L 4992 1914 
z
M 3296 5203 
L 3296 4288 
C 3296 3859 3232 3405 2637 3072 
C 2765 2989 3008 2758 3123 2611 
L 2963 2611 
L 2963 1914 
L 3597 1914 
L 3194 1805 
C 3366 1370 3590 992 3859 659 
C 3450 397 2982 211 2458 90 
C 2605 -77 2784 -390 2867 -589 
C 3443 -422 3962 -192 4403 122 
C 4787 -179 5248 -410 5786 -563 
C 5888 -358 6112 -38 6285 122 
C 5792 230 5363 410 5005 640 
C 5440 1107 5773 1702 5971 2451 
L 5478 2637 
L 5350 2611 
L 3245 2611 
C 3878 3027 4006 3693 4006 4262 
L 4006 4531 
L 4672 4531 
L 4672 3667 
C 4672 3258 4717 3117 4832 3002 
C 4934 2893 5120 2848 5274 2848 
C 5370 2848 5517 2848 5626 2848 
C 5734 2848 5888 2867 5978 2918 
C 6086 2970 6163 3053 6208 3181 
C 6253 3296 6285 3578 6298 3834 
C 6112 3898 5856 4026 5728 4141 
C 5728 3898 5715 3706 5709 3616 
C 5690 3533 5677 3488 5651 3475 
C 5638 3462 5600 3456 5568 3456 
C 5536 3456 5498 3456 5466 3456 
C 5440 3456 5421 3469 5402 3488 
C 5389 3514 5389 3571 5389 3680 
L 5389 5203 
L 3296 5203 
z
M 2374 5434 
C 2054 5242 1530 5043 1018 4902 
L 672 5011 
L 672 1133 
L 141 1069 
L 262 320 
L 672 378 
L 672 -557 
L 1402 -557 
L 1402 486 
L 2925 717 
L 2899 1421 
L 1402 1222 
L 1402 1901 
L 2739 1901 
L 2739 2618 
L 1402 2618 
L 1402 3142 
L 2682 3142 
L 2682 3853 
L 1402 3853 
L 1402 4352 
C 1952 4486 2541 4666 3008 4890 
L 2374 5434 
z
" transform="scale(0.015625)"/>
      <path id="NotoSansCJKjp-Bold-89e3" d="M 1606 3226 
L 1606 2746 
L 1242 2746 
L 1242 3226 
L 1606 3226 
z
M 2112 3226 
L 2477 3226 
L 2477 2746 
L 2112 2746 
L 2112 3226 
z
M 1184 3789 
C 1261 3942 1338 4096 1408 4262 
L 1920 4262 
C 1869 4096 1805 3930 1741 3789 
L 1184 3789 
z
M 1075 5440 
C 896 4678 563 3930 122 3456 
C 256 3373 493 3174 627 3046 
L 627 2099 
C 627 1376 589 422 154 -243 
C 301 -307 582 -486 691 -589 
C 992 -128 1133 499 1197 1107 
L 2477 1107 
L 2477 179 
C 2477 96 2451 70 2374 70 
C 2291 70 2042 70 1786 83 
C 1875 -90 1984 -384 2003 -563 
C 2400 -563 2662 -550 2854 -442 
C 3053 -333 3110 -134 3110 166 
L 3110 1523 
C 3270 1453 3501 1331 3610 1254 
C 3699 1395 3789 1562 3866 1754 
L 4397 1754 
L 4397 1171 
L 3206 1171 
L 3206 512 
L 4397 512 
L 4397 -550 
L 5126 -550 
L 5126 512 
L 6221 512 
L 6221 1171 
L 5126 1171 
L 5126 1754 
L 6093 1754 
L 6093 2400 
L 5126 2400 
L 5126 2976 
L 4397 2976 
L 4397 2400 
L 4083 2400 
C 4122 2534 4154 2669 4179 2803 
L 3610 2918 
C 4256 3277 4499 3814 4608 4480 
L 5350 4480 
C 5325 3949 5293 3731 5235 3661 
C 5190 3603 5139 3597 5062 3597 
C 4979 3597 4806 3603 4602 3622 
C 4698 3456 4762 3194 4774 3002 
C 5037 2995 5286 2995 5427 3021 
C 5587 3040 5709 3098 5818 3226 
C 5958 3398 6010 3840 6042 4864 
C 6048 4947 6054 5114 6054 5114 
L 3200 5114 
L 3200 4480 
L 3917 4480 
C 3827 4019 3635 3648 3110 3392 
L 3110 3789 
L 2387 3789 
C 2515 4051 2650 4346 2739 4602 
L 2298 4870 
L 2202 4845 
L 1626 4845 
C 1677 4992 1722 5139 1760 5293 
L 1075 5440 
z
M 1606 2202 
L 1606 1670 
L 1235 1670 
L 1242 2093 
L 1242 2202 
L 1606 2202 
z
M 2112 2202 
L 2477 2202 
L 2477 1670 
L 2112 1670 
L 2112 2202 
z
M 3110 1645 
L 3110 3251 
C 3232 3130 3354 2950 3411 2822 
L 3546 2886 
C 3469 2432 3322 1978 3110 1645 
z
" transform="scale(0.015625)"/>
      <path id="NotoSansCJKjp-Bold-91ca" d="M 230 4122 
C 390 3853 544 3494 602 3258 
L 1126 3469 
C 1062 3699 896 4051 723 4307 
L 230 4122 
z
M 2330 4352 
C 2240 4083 2074 3693 1939 3450 
L 2464 3309 
C 2598 3546 2752 3872 2899 4205 
L 2330 4352 
z
M 2931 5139 
L 2931 4467 
L 3213 4467 
C 3405 4109 3642 3795 3910 3514 
C 3526 3296 3110 3123 2682 3002 
L 2682 3110 
L 1882 3110 
L 1882 4582 
C 2221 4634 2554 4691 2835 4762 
L 2483 5357 
C 1894 5197 992 5075 205 5005 
C 275 4851 358 4608 378 4448 
C 640 4461 915 4480 1197 4506 
L 1197 3110 
L 250 3110 
L 250 2470 
L 1075 2470 
C 845 1952 486 1389 141 1062 
C 256 851 416 499 480 269 
C 736 563 986 986 1197 1434 
L 1197 -582 
L 1882 -582 
L 1882 1626 
C 2061 1414 2234 1184 2336 1030 
L 2822 1536 
C 2682 1683 2086 2291 1882 2451 
L 1882 2470 
L 2682 2470 
L 2682 2810 
C 2790 2662 2893 2483 2950 2362 
C 3469 2528 3981 2758 4442 3053 
C 4877 2733 5370 2496 5920 2342 
C 6010 2534 6189 2835 6330 2982 
C 5856 3085 5414 3251 5024 3469 
C 5504 3872 5907 4352 6170 4922 
L 5702 5165 
L 5581 5139 
L 2931 5139 
z
M 5094 4467 
C 4915 4250 4691 4045 4448 3866 
C 4224 4045 4032 4250 3872 4467 
L 5094 4467 
z
M 4032 2611 
L 4032 2112 
L 2995 2112 
L 2995 1440 
L 4032 1440 
L 4032 992 
L 2726 992 
L 2726 314 
L 4032 314 
L 4032 -582 
L 4800 -582 
L 4800 314 
L 6112 314 
L 6112 992 
L 4800 992 
L 4800 1440 
L 5824 1440 
L 5824 2112 
L 4800 2112 
L 4800 2611 
L 4032 2611 
z
" transform="scale(0.015625)"/>
     </defs>
     <use xlink:href="#NotoSansCJKjp-Bold-9010"/>
     <use xlink:href="#NotoSansCJKjp-Bold-6bb5" transform="translate(99.999985 0)"/>
     <use xlink:href="#NotoSansCJKjp-Bold-89e3" transform="translate(199.999969 0)"/>
     <use xlink:href="#NotoSansCJKjp-Bold-91ca" transform="translate(299.999954 0)"/>
     <use xlink:href="#NotoSansCJKjp-Bold-6267" transform="translate(399.999939 0)"/>
     <use xlink:href="#NotoSansCJKjp-Bold-884c" transform="translate(499.999924 0)"/>
    </g>
   </g>
   <g id="text_5">
    <!-- 编译器看不到完整 -->
    <g style="fill: #757575" transform="translate(92.38 217.361625) scale(0.08 -0.08)">
     <defs>
      <path id="NotoSansCJKjp-Bold-7f16" d="M 378 2643 
C 474 2694 621 2733 1114 2797 
C 928 2483 762 2246 678 2138 
C 493 1901 358 1747 205 1715 
C 282 1536 397 1216 429 1082 
C 570 1178 813 1261 2182 1594 
C 2157 1741 2138 2016 2144 2208 
L 1350 2042 
C 1741 2579 2112 3200 2406 3802 
L 1818 4154 
C 1722 3917 1606 3680 1485 3450 
L 1030 3418 
C 1363 3949 1683 4595 1907 5216 
L 1190 5466 
C 1005 4710 621 3898 499 3693 
C 371 3482 275 3341 147 3309 
C 230 3123 339 2784 378 2643 
z
M 3776 5280 
C 3840 5133 3917 4954 3974 4787 
L 2579 4787 
L 2579 3392 
C 2579 2611 2541 1530 2214 614 
L 2074 1197 
C 1376 909 653 614 173 448 
L 352 -250 
L 2208 589 
C 2125 358 2022 141 1901 -58 
C 2054 -128 2362 -358 2477 -486 
C 2816 58 3014 762 3130 1466 
L 3130 -512 
L 3712 -512 
L 3712 832 
L 4006 832 
L 4006 -384 
L 4474 -384 
L 4474 832 
L 4736 832 
L 4736 -371 
L 5197 -371 
L 5197 832 
L 5466 832 
L 5466 90 
C 5466 38 5453 26 5414 26 
C 5382 26 5299 26 5203 26 
C 5274 -115 5344 -352 5357 -518 
C 5574 -518 5734 -506 5875 -410 
C 6016 -314 6042 -160 6042 77 
L 6042 2714 
L 3258 2714 
L 3270 3091 
L 5939 3091 
L 5939 4787 
L 4819 4787 
C 4749 4998 4627 5280 4518 5491 
L 3776 5280 
z
M 4006 2099 
L 4006 1414 
L 3712 1414 
L 3712 2099 
L 4006 2099 
z
M 4474 2099 
L 4736 2099 
L 4736 1414 
L 4474 1414 
L 4474 2099 
z
M 5197 2099 
L 5466 2099 
L 5466 1414 
L 5197 1414 
L 5197 2099 
z
M 3270 4166 
L 5229 4166 
L 5229 3706 
L 3270 3706 
L 3270 4166 
z
" transform="scale(0.015625)"/>
      <path id="NotoSansCJKjp-Bold-8bd1" d="M 480 4973 
C 742 4608 1062 4102 1190 3782 
L 1818 4211 
C 1677 4518 1344 4998 1069 5350 
L 480 4973 
z
M 3718 2662 
L 3718 2157 
L 2573 2157 
L 2573 1491 
L 3718 1491 
L 3718 1011 
L 2240 1011 
C 2182 1133 2131 1267 2093 1376 
L 1722 1069 
L 1722 3482 
L 250 3482 
L 250 2746 
L 979 2746 
L 979 774 
C 979 429 787 186 653 64 
C 768 -51 973 -326 1043 -480 
C 1139 -333 1318 -160 2214 589 
L 2214 333 
L 3718 333 
L 3718 -576 
L 4474 -576 
L 4474 333 
L 6125 333 
L 6125 1011 
L 4474 1011 
L 4474 1491 
L 5696 1491 
L 5696 2157 
L 4474 2157 
L 4474 2662 
L 3718 2662 
z
M 4813 4518 
C 4627 4301 4403 4096 4147 3910 
C 3891 4090 3667 4294 3482 4518 
L 4813 4518 
z
M 2234 5178 
L 2234 4518 
L 2714 4518 
C 2944 4154 3219 3821 3546 3539 
C 3034 3264 2458 3059 1875 2925 
C 2022 2771 2195 2464 2278 2272 
C 2944 2458 3590 2726 4160 3078 
C 4646 2778 5197 2547 5811 2400 
C 5914 2592 6125 2893 6285 3046 
C 5741 3149 5235 3315 4794 3526 
C 5267 3923 5658 4390 5926 4941 
L 5434 5210 
L 5306 5178 
L 2234 5178 
z
" transform="scale(0.015625)"/>
      <path id="NotoSansCJKjp-Bold-5668" d="M 1389 4589 
L 2163 4589 
L 2163 3923 
L 1389 3923 
L 1389 4589 
z
M 4192 4589 
L 4973 4589 
L 4973 3923 
L 4192 3923 
L 4192 4589 
z
M 3430 1581 
L 3430 -589 
L 4102 -589 
L 4102 -378 
L 4870 -378 
L 4870 -576 
L 5581 -576 
L 5581 973 
L 5856 883 
C 5965 1069 6176 1350 6342 1498 
C 5690 1651 5082 1939 4634 2298 
L 6125 2298 
L 6125 2970 
L 3302 2970 
C 3373 3085 3437 3200 3494 3322 
L 5702 3322 
L 5702 5190 
L 3494 5190 
L 3494 3354 
L 2899 3552 
L 2899 5190 
L 698 5190 
L 698 3322 
L 2618 3322 
C 2547 3200 2464 3085 2374 2970 
L 294 2970 
L 294 2298 
L 1677 2298 
C 1229 1958 678 1690 77 1491 
C 224 1363 442 1069 531 896 
L 806 998 
L 806 -589 
L 1472 -589 
L 1472 -378 
L 2234 -378 
L 2234 -576 
L 2931 -576 
L 2931 1581 
L 1933 1581 
C 2253 1792 2541 2029 2790 2298 
L 3622 2298 
C 3846 2029 4109 1792 4403 1581 
L 3430 1581 
z
M 1472 250 
L 1472 954 
L 2234 954 
L 2234 250 
L 1472 250 
z
M 4102 250 
L 4102 954 
L 4870 954 
L 4870 250 
L 4102 250 
z
" transform="scale(0.015625)"/>
      <path id="NotoSansCJKjp-Bold-770b" d="M 2355 1274 
L 4678 1274 
L 4678 992 
L 2355 992 
L 2355 1274 
z
M 2355 1754 
L 2355 2029 
L 4678 2029 
L 4678 1754 
L 2355 1754 
z
M 2355 512 
L 4678 512 
L 4678 224 
L 2355 224 
L 2355 512 
z
M 5235 5414 
C 4147 5235 2298 5158 723 5158 
C 794 5005 858 4755 870 4589 
C 1370 4582 1907 4589 2445 4608 
L 2362 4333 
L 794 4333 
L 794 3757 
L 2163 3757 
L 2042 3482 
L 346 3482 
L 346 2874 
L 1715 2874 
C 1331 2259 819 1728 147 1363 
C 294 1216 518 934 627 755 
C 1005 973 1338 1235 1626 1530 
L 1626 -589 
L 2355 -589 
L 2355 -358 
L 4678 -358 
L 4678 -589 
L 5446 -589 
L 5446 2605 
L 2445 2605 
L 2592 2874 
L 6054 2874 
L 6054 3482 
L 2880 3482 
L 2989 3757 
L 5702 3757 
L 5702 4333 
L 3187 4333 
L 3277 4640 
C 4154 4685 4998 4755 5677 4870 
L 5235 5414 
z
" transform="scale(0.015625)"/>
      <path id="NotoSansCJKjp-Bold-4e0d" d="M 416 5011 
L 416 4224 
L 2982 4224 
C 2387 3238 1382 2246 211 1690 
C 378 1517 621 1203 742 998 
C 1517 1402 2202 1952 2784 2579 
L 2784 -563 
L 3622 -563 
L 3622 2771 
C 4314 2240 5184 1510 5587 1024 
L 6240 1619 
C 5773 2125 4787 2867 4102 3360 
L 3622 2957 
L 3622 3629 
C 3757 3821 3878 4026 3994 4224 
L 5997 4224 
L 5997 5011 
L 416 5011 
z
" transform="scale(0.015625)"/>
      <path id="NotoSansCJKjp-Bold-5230" d="M 3770 4659 
L 3770 1037 
L 4506 1037 
L 4506 4659 
L 3770 4659 
z
M 5222 5261 
L 5222 346 
C 5222 230 5184 198 5069 192 
C 4941 192 4550 192 4166 211 
C 4275 -13 4390 -358 4416 -576 
C 4966 -576 5376 -550 5638 -429 
C 5888 -307 5978 -90 5978 346 
L 5978 5261 
L 5222 5261 
z
M 2221 3936 
C 2336 3782 2458 3616 2573 3443 
L 1574 3411 
C 1709 3706 1843 4038 1965 4352 
L 3533 4352 
L 3533 5030 
L 262 5030 
L 262 4352 
L 1107 4352 
C 1030 4045 922 3693 806 3392 
L 250 3379 
L 294 2669 
C 1018 2701 2003 2739 2957 2797 
C 3021 2682 3072 2566 3110 2470 
L 3718 2810 
C 3552 3213 3142 3802 2784 4237 
L 2221 3936 
z
M 192 339 
L 314 -429 
C 1190 -314 2413 -160 3558 0 
L 3539 710 
L 2285 563 
L 2285 1299 
L 3328 1299 
L 3328 1984 
L 2285 1984 
L 2285 2611 
L 1517 2611 
L 1517 1984 
L 454 1984 
L 454 1299 
L 1517 1299 
L 1517 474 
L 192 339 
z
" transform="scale(0.015625)"/>
      <path id="NotoSansCJKjp-Bold-5b8c" d="M 1523 3622 
L 1523 2925 
L 4845 2925 
L 4845 3622 
L 1523 3622 
z
M 333 2464 
L 333 1747 
L 1869 1747 
C 1766 954 1536 397 154 96 
C 320 -70 525 -384 602 -589 
C 2214 -160 2573 640 2701 1747 
L 3533 1747 
L 3533 442 
C 3533 -256 3718 -480 4461 -480 
C 4608 -480 5133 -480 5286 -480 
C 5894 -480 6093 -230 6176 698 
C 5971 755 5638 877 5485 992 
C 5459 320 5421 218 5216 218 
C 5088 218 4672 218 4576 218 
C 4346 218 4307 243 4307 448 
L 4307 1747 
L 6067 1747 
L 6067 2464 
L 333 2464 
z
M 448 4819 
L 448 3296 
L 1229 3296 
L 1229 4090 
L 5126 4090 
L 5126 3296 
L 5946 3296 
L 5946 4819 
L 3590 4819 
L 3590 5434 
L 2771 5434 
L 2771 4819 
L 448 4819 
z
" transform="scale(0.015625)"/>
      <path id="NotoSansCJKjp-Bold-6574" d="M 1222 1114 
L 1222 141 
L 282 141 
L 282 -480 
L 6138 -480 
L 6138 141 
L 3565 141 
L 3565 467 
L 5222 467 
L 5222 1024 
L 3565 1024 
L 3565 1325 
L 5734 1325 
L 5734 1933 
L 666 1933 
L 666 1325 
L 2810 1325 
L 2810 141 
L 1958 141 
L 1958 1114 
L 1222 1114 
z
M 3994 5434 
C 3846 4890 3571 4384 3206 4026 
L 3206 4378 
L 2150 4378 
L 2150 4595 
L 3296 4595 
L 3296 5114 
L 2150 5114 
L 2150 5440 
L 1485 5440 
L 1485 5114 
L 333 5114 
L 333 4595 
L 1485 4595 
L 1485 4378 
L 480 4378 
L 480 3136 
L 1222 3136 
C 941 2886 544 2643 205 2509 
C 339 2394 538 2182 634 2035 
C 909 2182 1222 2413 1485 2669 
L 1485 2061 
L 2150 2061 
L 2150 2733 
C 2400 2560 2688 2362 2842 2234 
L 3091 2560 
C 3226 2432 3437 2157 3514 2016 
C 3968 2176 4358 2374 4685 2637 
C 4992 2381 5357 2157 5792 2010 
C 5882 2189 6074 2470 6214 2611 
C 5792 2720 5440 2893 5146 3110 
C 5376 3405 5555 3763 5677 4186 
L 6106 4186 
L 6106 4781 
L 4506 4781 
C 4570 4941 4627 5107 4678 5274 
L 3994 5434 
z
M 1075 3930 
L 1485 3930 
L 1485 3584 
L 1075 3584 
L 1075 3930 
z
M 2150 3930 
L 2579 3930 
L 2579 3584 
L 2150 3584 
L 2150 3930 
z
M 2400 3136 
L 3206 3136 
L 3206 3782 
C 3341 3648 3494 3469 3571 3373 
C 3667 3462 3763 3565 3853 3674 
C 3955 3482 4083 3296 4230 3110 
C 3930 2874 3552 2694 3104 2573 
L 3213 2714 
L 2400 3136 
z
M 4954 4186 
C 4883 3949 4781 3744 4653 3558 
C 4480 3757 4339 3974 4237 4186 
L 4954 4186 
z
" transform="scale(0.015625)"/>
     </defs>
     <use xlink:href="#NotoSansCJKjp-Bold-7f16"/>
     <use xlink:href="#NotoSansCJKjp-Bold-8bd1" transform="translate(99.999985 0)"/>
     <use xlink:href="#NotoSansCJKjp-Bold-5668" transform="translate(199.999969 0)"/>
     <use xlink:href="#NotoSansCJKjp-Bold-770b" transform="translate(299.999954 0)"/>
     <use xlink:href="#NotoSansCJKjp-Bold-4e0d" transform="translate(399.999939 0)"/>
     <use xlink:href="#NotoSansCJKjp-Bold-5230" transform="translate(499.999924 0)"/>
     <use xlink:href="#NotoSansCJKjp-Bold-5b8c" transform="translate(599.999908 0)"/>
     <use xlink:href="#NotoSansCJKjp-Bold-6574" transform="translate(699.999893 0)"/>
    </g>
    <!-- 前向+反向 -->
    <g style="fill: #757575" transform="translate(106.02 226.742125) scale(0.08 -0.08)">
     <defs>
      <path id="NotoSansCJKjp-Bold-2b" d="M 1536 704 
L 2234 704 
L 2234 2061 
L 3526 2061 
L 3526 2733 
L 2234 2733 
L 2234 4096 
L 1536 4096 
L 1536 2733 
L 250 2733 
L 250 2061 
L 1536 2061 
L 1536 704 
z
" transform="scale(0.015625)"/>
      <path id="NotoSansCJKjp-Bold-53cd" d="M 992 5107 
L 992 3315 
C 992 2298 934 858 230 -109 
C 416 -198 742 -422 883 -563 
C 1510 320 1702 1638 1747 2701 
L 1990 2701 
C 2266 1978 2618 1363 3072 864 
C 2592 531 2035 288 1421 134 
C 1581 -38 1779 -365 1875 -576 
C 2547 -365 3155 -77 3680 307 
C 4205 -90 4838 -384 5606 -576 
C 5722 -358 5946 -26 6125 141 
C 5414 294 4819 538 4320 864 
C 4890 1466 5318 2253 5568 3258 
L 5024 3475 
L 4883 3443 
L 1760 3443 
L 1760 4346 
L 5862 4346 
L 5862 5107 
L 992 5107 
z
M 4544 2701 
C 4339 2189 4051 1747 3686 1376 
C 3315 1754 3021 2195 2810 2701 
L 4544 2701 
z
" transform="scale(0.015625)"/>
     </defs>
     <use xlink:href="#NotoSansCJKjp-Bold-524d"/>
     <use xlink:href="#NotoSansCJKjp-Bold-5411" transform="translate(99.999985 0)"/>
     <use xlink:href="#NotoSansCJKjp-Bold-2b" transform="translate(199.999969 0)"/>
     <use xlink:href="#NotoSansCJKjp-Bold-53cd" transform="translate(258.999954 0)"/>
     <use xlink:href="#NotoSansCJKjp-Bold-5411" transform="translate(358.999939 0)"/>
    </g>
   </g>
   <g id="patch_13">
    <path d="M 124.38 110.839255 
Q 124.38 120.388939 124.38 128.261572 
" style="fill: none; stroke: #616161; stroke-width: 1.5; stroke-linecap: round"/>
    <path d="M 126.58 123.861572 
L 124.38 128.261572 
L 122.18 123.861572 
" style="fill: none; stroke: #616161; stroke-width: 1.5; stroke-linecap: round"/>
   </g>
   <g id="text_6">
    <!-- AOTAutograd -->
    <g style="fill: #4caf50" transform="translate(347.391875 33.3525) scale(0.11 -0.11)">
     <defs>
      <path id="NotoSansCJKjp-Bold-4f" d="M 2464 -90 
C 3718 -90 4582 851 4582 2394 
C 4582 3930 3718 4826 2464 4826 
C 1210 4826 346 3930 346 2394 
C 346 851 1210 -90 2464 -90 
z
M 2464 730 
C 1760 730 1318 1382 1318 2394 
C 1318 3405 1760 4013 2464 4013 
C 3168 4013 3616 3405 3616 2394 
C 3616 1382 3168 730 2464 730 
z
" transform="scale(0.015625)"/>
      <path id="NotoSansCJKjp-Bold-54" d="M 1523 0 
L 2470 0 
L 2470 3949 
L 3808 3949 
L 3808 4742 
L 192 4742 
L 192 3949 
L 1523 3949 
L 1523 0 
z
" transform="scale(0.015625)"/>
     </defs>
     <use xlink:href="#NotoSansCJKjp-Bold-41"/>
     <use xlink:href="#NotoSansCJKjp-Bold-4f" transform="translate(64.099991 0)"/>
     <use xlink:href="#NotoSansCJKjp-Bold-54" transform="translate(141.099976 0)"/>
     <use xlink:href="#NotoSansCJKjp-Bold-41" transform="translate(203.59996 0)"/>
     <use xlink:href="#NotoSansCJKjp-Bold-75" transform="translate(267.699951 0)"/>
     <use xlink:href="#NotoSansCJKjp-Bold-74" transform="translate(331.399948 0)"/>
     <use xlink:href="#NotoSansCJKjp-Bold-6f" transform="translate(373.499939 0)"/>
     <use xlink:href="#NotoSansCJKjp-Bold-67" transform="translate(436.09993 0)"/>
     <use xlink:href="#NotoSansCJKjp-Bold-72" transform="translate(495.799927 0)"/>
     <use xlink:href="#NotoSansCJKjp-Bold-61" transform="translate(539.399918 0)"/>
     <use xlink:href="#NotoSansCJKjp-Bold-64" transform="translate(598.499908 0)"/>
    </g>
   </g>
   <g id="text_7">
    <!-- AOTAutograd -->
    <g style="fill: #4caf50" transform="translate(347.391875 33.3525) scale(0.11 -0.11)">
     <use xlink:href="#NotoSansCJKjp-Bold-41"/>
     <use xlink:href="#NotoSansCJKjp-Bold-4f" transform="translate(64.099991 0)"/>
     <use xlink:href="#NotoSansCJKjp-Bold-54" transform="translate(141.099976 0)"/>
     <use xlink:href="#NotoSansCJKjp-Bold-41" transform="translate(203.59996 0)"/>
     <use xlink:href="#NotoSansCJKjp-Bold-75" transform="translate(267.699951 0)"/>
     <use xlink:href="#NotoSansCJKjp-Bold-74" transform="translate(331.399948 0)"/>
     <use xlink:href="#NotoSansCJKjp-Bold-6f" transform="translate(373.499939 0)"/>
     <use xlink:href="#NotoSansCJKjp-Bold-67" transform="translate(436.09993 0)"/>
     <use xlink:href="#NotoSansCJKjp-Bold-72" transform="translate(495.799927 0)"/>
     <use xlink:href="#NotoSansCJKjp-Bold-61" transform="translate(539.399918 0)"/>
     <use xlink:href="#NotoSansCJKjp-Bold-64" transform="translate(598.499908 0)"/>
    </g>
   </g>
   <g id="text_8">
    <!-- 编译期 trace 联合图 -->
    <g style="fill: #4caf50" transform="translate(347.810625 92.691875) scale(0.08 -0.08)">
     <defs>
      <path id="NotoSansCJKjp-Bold-671f" d="M 986 909 
C 806 525 480 122 141 -134 
C 314 -237 614 -454 755 -589 
C 1101 -275 1478 224 1715 698 
L 986 909 
z
M 5261 4454 
L 5261 3706 
L 4339 3706 
L 4339 4454 
L 5261 4454 
z
M 1939 621 
C 2189 320 2502 -96 2630 -352 
L 3155 -51 
L 3098 -154 
C 3264 -224 3584 -454 3706 -589 
C 4051 -13 4211 787 4288 1555 
L 5261 1555 
L 5261 282 
C 5261 186 5222 154 5133 154 
C 5037 154 4723 147 4454 166 
C 4550 -26 4646 -365 4672 -563 
C 5152 -570 5478 -550 5702 -429 
C 5926 -307 5997 -102 5997 275 
L 5997 5152 
L 3616 5152 
L 3616 2797 
C 3616 1958 3584 877 3213 70 
C 3046 326 2758 678 2522 941 
L 1939 621 
z
M 5261 3027 
L 5261 2240 
L 4326 2240 
L 4339 2797 
L 4339 3027 
L 5261 3027 
z
M 2259 5363 
L 2259 4685 
L 1459 4685 
L 1459 5363 
L 768 5363 
L 768 4685 
L 269 4685 
L 269 4013 
L 768 4013 
L 768 1626 
L 192 1626 
L 192 954 
L 3360 954 
L 3360 1626 
L 2963 1626 
L 2963 4013 
L 3405 4013 
L 3405 4685 
L 2963 4685 
L 2963 5363 
L 2259 5363 
z
M 1459 4013 
L 2259 4013 
L 2259 3635 
L 1459 3635 
L 1459 4013 
z
M 1459 3053 
L 2259 3053 
L 2259 2643 
L 1459 2643 
L 1459 3053 
z
M 1459 2054 
L 2259 2054 
L 2259 1626 
L 1459 1626 
L 1459 2054 
z
" transform="scale(0.015625)"/>
      <path id="NotoSansCJKjp-Bold-8054" d="M 3040 5043 
C 3264 4762 3501 4390 3622 4115 
L 2938 4115 
L 2938 3418 
L 3994 3418 
L 3994 2592 
L 3994 2522 
L 2816 2522 
L 2816 1830 
L 3936 1830 
C 3821 1197 3482 461 2522 -102 
C 2720 -237 2970 -480 3091 -646 
C 3763 -211 4173 301 4416 819 
C 4730 205 5171 -275 5766 -563 
C 5875 -365 6099 -77 6272 70 
C 5504 378 4986 1037 4723 1830 
L 6170 1830 
L 6170 2522 
L 4774 2522 
L 4774 2579 
L 4774 3418 
L 5984 3418 
L 5984 4115 
L 5248 4115 
C 5434 4410 5632 4774 5818 5126 
L 5043 5325 
C 4922 4960 4691 4454 4493 4115 
L 3770 4115 
L 4288 4397 
C 4173 4666 3910 5056 3654 5338 
L 3040 5043 
z
M 179 973 
L 333 262 
L 1875 531 
L 1875 -576 
L 2522 -576 
L 2522 646 
L 3021 736 
L 2970 1395 
L 2522 1325 
L 2522 4512 
L 2758 4512 
L 2758 5197 
L 262 5197 
L 262 4512 
L 538 4512 
L 538 1018 
L 179 973 
z
M 1210 4512 
L 1875 4512 
L 1875 3834 
L 1210 3834 
L 1210 4512 
z
M 1210 3206 
L 1875 3206 
L 1875 2528 
L 1210 2528 
L 1210 3206 
z
M 1210 1901 
L 1875 1901 
L 1875 1222 
L 1210 1120 
L 1210 1901 
z
" transform="scale(0.015625)"/>
      <path id="NotoSansCJKjp-Bold-5408" d="M 1606 3142 
L 1606 2694 
L 4813 2694 
L 4813 3142 
C 5133 2906 5472 2701 5798 2528 
C 5933 2765 6112 3021 6298 3219 
C 5274 3629 4237 4448 3546 5427 
L 2746 5427 
C 2272 4640 1235 3674 128 3136 
C 294 2976 512 2694 614 2515 
C 954 2701 1293 2912 1606 3142 
z
M 3181 4678 
C 3494 4250 3968 3789 4499 3373 
L 1907 3373 
C 2432 3789 2880 4250 3181 4678 
z
M 1184 2054 
L 1184 -582 
L 1939 -582 
L 1939 -346 
L 4474 -346 
L 4474 -582 
L 5267 -582 
L 5267 2054 
L 1184 2054 
z
M 1939 333 
L 1939 1382 
L 4474 1382 
L 4474 333 
L 1939 333 
z
" transform="scale(0.015625)"/>
      <path id="NotoSansCJKjp-Bold-56fe" d="M 461 5190 
L 461 -576 
L 1197 -576 
L 1197 -346 
L 5178 -346 
L 5178 -576 
L 5952 -576 
L 5952 5190 
L 461 5190 
z
M 1702 890 
C 2560 794 3616 550 4256 326 
L 1197 326 
L 1197 2234 
C 1306 2080 1421 1862 1472 1715 
C 1824 1798 2176 1907 2528 2042 
L 2291 1709 
C 2829 1600 3507 1370 3885 1190 
L 4198 1664 
C 3834 1824 3232 2010 2720 2118 
C 2893 2195 3072 2272 3238 2362 
C 3731 2112 4282 1920 4838 1798 
C 4909 1939 5050 2138 5178 2278 
L 5178 326 
L 4339 326 
L 4666 845 
C 4006 1062 2925 1299 2048 1389 
L 1702 890 
z
M 2586 4506 
C 2278 4038 1741 3578 1222 3290 
C 1370 3181 1613 2957 1728 2829 
C 1856 2912 1984 3008 2118 3117 
C 2259 2989 2413 2867 2573 2752 
C 2138 2579 1658 2438 1197 2349 
L 1197 4506 
L 2586 4506 
z
M 2656 4506 
L 5178 4506 
L 5178 2381 
C 4736 2464 4288 2586 3885 2739 
C 4320 3040 4691 3392 4954 3789 
L 4525 4045 
L 4416 4013 
L 3008 4013 
C 3085 4109 3162 4211 3226 4307 
L 2656 4506 
z
M 3213 3046 
C 2982 3168 2778 3302 2605 3450 
L 3840 3450 
C 3661 3302 3443 3168 3213 3046 
z
" transform="scale(0.015625)"/>
     </defs>
     <use xlink:href="#NotoSansCJKjp-Bold-7f16"/>
     <use xlink:href="#NotoSansCJKjp-Bold-8bd1" transform="translate(99.999985 0)"/>
     <use xlink:href="#NotoSansCJKjp-Bold-671f" transform="translate(199.999969 0)"/>
     <use xlink:href="#NotoSansCJKjp-Bold-20" transform="translate(299.999954 0)"/>
     <use xlink:href="#NotoSansCJKjp-Bold-74" transform="translate(322.699951 0)"/>
     <use xlink:href="#NotoSansCJKjp-Bold-72" transform="translate(364.799942 0)"/>
     <use xlink:href="#NotoSansCJKjp-Bold-61" transform="translate(408.399933 0)"/>
     <use xlink:href="#NotoSansCJKjp-Bold-63" transform="translate(467.499924 0)"/>
     <use xlink:href="#NotoSansCJKjp-Bold-65" transform="translate(520.199921 0)"/>
     <use xlink:href="#NotoSansCJKjp-Bold-20" transform="translate(578.299911 0)"/>
     <use xlink:href="#NotoSansCJKjp-Bold-8054" transform="translate(600.999908 0)"/>
     <use xlink:href="#NotoSansCJKjp-Bold-5408" transform="translate(700.999893 0)"/>
     <use xlink:href="#NotoSansCJKjp-Bold-56fe" transform="translate(800.999878 0)"/>
    </g>
   </g>
   <g id="text_9">
    <!-- 图分区 -->
    <g style="fill: #4caf50" transform="translate(371.85 152.751875) scale(0.08 -0.08)">
     <defs>
      <path id="NotoSansCJKjp-Bold-5206" d="M 4403 5370 
L 3648 5069 
C 4006 4384 4493 3674 4998 3085 
L 1517 3085 
C 2022 3661 2477 4371 2797 5114 
L 1965 5357 
C 1581 4378 870 3482 70 2950 
C 256 2810 589 2502 730 2330 
C 902 2464 1082 2624 1248 2790 
L 1248 2342 
L 2330 2342 
C 2202 1408 1869 563 416 90 
C 602 -83 826 -403 915 -614 
C 2592 6 3014 1107 3168 2342 
L 4435 2342 
C 4378 1005 4307 429 4179 288 
C 4109 211 4032 198 3917 198 
C 3763 198 3424 205 3072 230 
C 3206 13 3309 -314 3322 -544 
C 3699 -557 4077 -557 4294 -525 
C 4544 -493 4717 -429 4883 -218 
C 5101 51 5184 813 5248 2752 
L 5254 2797 
C 5389 2650 5530 2509 5664 2387 
C 5811 2605 6112 2918 6317 3078 
C 5613 3622 4813 4550 4403 5370 
z
" transform="scale(0.015625)"/>
      <path id="NotoSansCJKjp-Bold-533a" d="M 1747 3386 
C 2176 3104 2637 2771 3078 2426 
C 2605 1939 2074 1517 1510 1203 
C 1690 1062 1984 755 2112 595 
C 2656 947 3187 1402 3674 1926 
C 4134 1523 4531 1120 4787 781 
L 5395 1357 
C 5107 1715 4672 2125 4179 2528 
C 4538 2989 4858 3494 5126 4019 
L 4371 4269 
C 4154 3821 3885 3392 3571 2995 
C 3136 3315 2694 3616 2285 3872 
L 1747 3386 
z
M 518 5094 
L 518 -576 
L 1280 -576 
L 1280 -275 
L 6157 -275 
L 6157 461 
L 1280 461 
L 1280 4358 
L 5997 4358 
L 5997 5094 
L 518 5094 
z
" transform="scale(0.015625)"/>
     </defs>
     <use xlink:href="#NotoSansCJKjp-Bold-56fe"/>
     <use xlink:href="#NotoSansCJKjp-Bold-5206" transform="translate(99.999985 0)"/>
     <use xlink:href="#NotoSansCJKjp-Bold-533a" transform="translate(199.999969 0)"/>
    </g>
   </g>
   <g id="text_10">
    <!-- 分别交给 Inductor -->
    <g style="fill: #4caf50" transform="translate(349.894375 212.811875) scale(0.08 -0.08)">
     <defs>
      <path id="NotoSansCJKjp-Bold-522b" d="M 3834 4659 
L 3834 1037 
L 4582 1037 
L 4582 4659 
L 3834 4659 
z
M 5178 5306 
L 5178 346 
C 5178 237 5133 198 5018 198 
C 4902 198 4538 198 4173 211 
C 4282 -6 4390 -358 4422 -576 
C 4973 -582 5357 -557 5606 -429 
C 5856 -301 5939 -83 5939 339 
L 5939 5306 
L 5178 5306 
z
M 1210 4486 
L 2445 4486 
L 2445 3603 
L 1210 3603 
L 1210 4486 
z
M 512 5158 
L 512 2925 
L 3187 2925 
L 3187 5158 
L 512 5158 
z
M 1312 2790 
L 1293 2394 
L 339 2394 
L 339 1696 
L 1235 1696 
C 1126 941 870 358 134 -26 
C 294 -160 499 -422 589 -602 
C 1504 -96 1824 691 1952 1696 
L 2579 1696 
C 2534 755 2483 378 2400 275 
C 2342 211 2291 198 2202 198 
C 2099 198 1901 198 1677 224 
C 1792 26 1869 -282 1882 -506 
C 2170 -512 2438 -506 2598 -480 
C 2784 -448 2918 -390 3046 -224 
C 3219 -6 3277 602 3334 2099 
C 3341 2195 3347 2394 3347 2394 
L 2016 2394 
L 2035 2790 
L 1312 2790 
z
" transform="scale(0.015625)"/>
      <path id="NotoSansCJKjp-Bold-4ea4" d="M 1894 3898 
C 1530 3405 877 2912 269 2611 
C 454 2470 768 2170 909 2010 
C 1510 2387 2234 2995 2688 3597 
L 1894 3898 
z
M 2470 2758 
L 1734 2541 
C 1971 1971 2259 1478 2618 1062 
C 1978 614 1158 320 192 134 
C 346 -38 595 -397 678 -589 
C 1651 -346 2496 0 3187 512 
C 3834 -19 4666 -378 5722 -576 
C 5824 -365 6048 -19 6221 154 
C 5229 307 4429 608 3802 1050 
C 4205 1472 4531 1965 4781 2560 
L 3962 2790 
C 3782 2317 3533 1914 3206 1574 
C 2893 1914 2650 2310 2470 2758 
z
M 3814 3501 
C 4390 3085 5120 2483 5446 2074 
L 6131 2598 
C 5773 3008 5024 3571 4461 3949 
L 6042 3949 
L 6042 4698 
L 3584 4698 
L 3584 5446 
L 2790 5446 
L 2790 4698 
L 365 4698 
L 365 3949 
L 4422 3949 
L 3814 3501 
z
" transform="scale(0.015625)"/>
      <path id="NotoSansCJKjp-Bold-7ed9" d="M 205 435 
L 346 -320 
C 966 -160 1766 45 2522 243 
L 2445 909 
C 1626 723 768 538 205 435 
z
M 371 2643 
C 474 2694 627 2739 1158 2803 
C 954 2509 781 2291 691 2189 
C 486 1958 346 1811 179 1773 
C 269 1581 384 1229 422 1082 
C 595 1184 864 1254 2470 1568 
C 2458 1728 2464 2022 2490 2221 
L 1427 2042 
C 1856 2566 2272 3168 2605 3770 
L 1958 4173 
C 1850 3942 1722 3706 1594 3482 
L 1107 3443 
C 1466 3942 1805 4538 2048 5101 
L 1312 5453 
C 1082 4723 646 3942 506 3750 
C 365 3546 256 3411 115 3373 
C 211 3168 333 2797 371 2643 
z
M 3949 5453 
C 3648 4544 3027 3661 2227 3136 
C 2394 3014 2656 2733 2765 2566 
C 2912 2675 3059 2790 3194 2912 
L 3194 2669 
L 5286 2669 
L 5286 2970 
C 5427 2842 5568 2726 5715 2630 
C 5837 2829 6080 3117 6259 3264 
C 5594 3629 4960 4314 4589 5018 
L 4672 5248 
L 3949 5453 
z
M 4902 3366 
L 3629 3366 
C 3866 3648 4077 3962 4256 4301 
C 4448 3962 4666 3648 4902 3366 
z
M 2822 2150 
L 2822 -582 
L 3571 -582 
L 3571 -275 
L 4806 -275 
L 4806 -576 
L 5594 -576 
L 5594 2150 
L 2822 2150 
z
M 3571 403 
L 3571 1478 
L 4806 1478 
L 4806 403 
L 3571 403 
z
" transform="scale(0.015625)"/>
      <path id="NotoSansCJKjp-Bold-49" d="M 582 0 
L 1530 0 
L 1530 4742 
L 582 4742 
L 582 0 
z
" transform="scale(0.015625)"/>
      <path id="NotoSansCJKjp-Bold-6e" d="M 506 0 
L 1446 0 
L 1446 2464 
C 1709 2726 1901 2867 2189 2867 
C 2541 2867 2694 2675 2694 2118 
L 2694 0 
L 3635 0 
L 3635 2234 
C 3635 3136 3302 3674 2528 3674 
C 2042 3674 1677 3418 1363 3110 
L 1344 3110 
L 1274 3584 
L 506 3584 
L 506 0 
z
" transform="scale(0.015625)"/>
     </defs>
     <use xlink:href="#NotoSansCJKjp-Bold-5206"/>
     <use xlink:href="#NotoSansCJKjp-Bold-522b" transform="translate(99.999985 0)"/>
     <use xlink:href="#NotoSansCJKjp-Bold-4ea4" transform="translate(199.999969 0)"/>
     <use xlink:href="#NotoSansCJKjp-Bold-7ed9" transform="translate(299.999954 0)"/>
     <use xlink:href="#NotoSansCJKjp-Bold-20" transform="translate(399.999939 0)"/>
     <use xlink:href="#NotoSansCJKjp-Bold-49" transform="translate(422.699936 0)"/>
     <use xlink:href="#NotoSansCJKjp-Bold-6e" transform="translate(455.699921 0)"/>
     <use xlink:href="#NotoSansCJKjp-Bold-64" transform="translate(519.799911 0)"/>
     <use xlink:href="#NotoSansCJKjp-Bold-75" transform="translate(584.199905 0)"/>
     <use xlink:href="#NotoSansCJKjp-Bold-63" transform="translate(647.899902 0)"/>
     <use xlink:href="#NotoSansCJKjp-Bold-74" transform="translate(700.599899 0)"/>
     <use xlink:href="#NotoSansCJKjp-Bold-6f" transform="translate(742.69989 0)"/>
     <use xlink:href="#NotoSansCJKjp-Bold-72" transform="translate(805.299881 0)"/>
    </g>
   </g>
   <g id="patch_14">
    <path d="M 383.85 110.839255 
Q 383.85 120.388939 383.85 128.261572 
" style="fill: none; stroke: #616161; stroke-width: 1.5; stroke-linecap: round"/>
    <path d="M 386.05 123.861572 
L 383.85 128.261572 
L 381.65 123.861572 
" style="fill: none; stroke: #616161; stroke-width: 1.5; stroke-linecap: round"/>
   </g>
   <g id="patch_15">
    <path d="M 383.85 170.899255 
Q 383.85 180.448939 383.85 188.321572 
" style="fill: none; stroke: #616161; stroke-width: 1.5; stroke-linecap: round"/>
    <path d="M 386.05 183.921572 
L 383.85 188.321572 
L 381.65 183.921572 
" style="fill: none; stroke: #616161; stroke-width: 1.5; stroke-linecap: round"/>
   </g>
   <g id="text_11">
    <!-- 编译器看到全局 -->
    <g style="fill: #9c27b0" transform="translate(355.85 251.911125) scale(0.08 -0.08)">
     <defs>
      <path id="NotoSansCJKjp-Bold-5168" d="M 486 262 
L 486 -422 
L 5958 -422 
L 5958 262 
L 3584 262 
L 3584 1037 
L 5382 1037 
L 5382 1702 
L 3584 1702 
L 3584 2445 
L 5088 2445 
L 5088 2944 
C 5318 2784 5549 2643 5779 2515 
C 5920 2752 6093 3002 6291 3200 
C 5267 3635 4224 4480 3539 5459 
L 2739 5459 
C 2272 4672 1235 3686 128 3123 
C 301 2970 518 2688 614 2509 
C 858 2643 1101 2797 1331 2957 
L 1331 2445 
L 2778 2445 
L 2778 1702 
L 1005 1702 
L 1005 1037 
L 2778 1037 
L 2778 262 
L 486 262 
z
M 3174 4710 
C 3552 4192 4173 3610 4838 3123 
L 1568 3123 
C 2234 3616 2816 4192 3174 4710 
z
" transform="scale(0.015625)"/>
      <path id="NotoSansCJKjp-Bold-5c40" d="M 1933 1843 
L 1933 -320 
L 2637 -320 
L 2637 64 
L 4160 64 
C 4250 -128 4307 -378 4320 -563 
C 4640 -576 4934 -570 5120 -538 
C 5325 -506 5472 -448 5613 -256 
C 5798 -19 5869 710 5933 2579 
C 5939 2669 5946 2893 5946 2893 
L 1638 2893 
L 1658 3296 
L 5472 3296 
L 5472 5139 
L 896 5139 
L 896 3571 
C 896 2547 838 1082 128 77 
C 301 -6 621 -262 749 -410 
C 1254 307 1485 1306 1587 2221 
L 5152 2221 
C 5107 877 5043 352 4934 224 
C 4877 154 4813 128 4717 134 
L 4467 134 
L 4467 1843 
L 1933 1843 
z
M 1658 4493 
L 4704 4493 
L 4704 3942 
L 1658 3942 
L 1658 4493 
z
M 2637 1242 
L 3757 1242 
L 3757 666 
L 2637 666 
L 2637 1242 
z
" transform="scale(0.015625)"/>
     </defs>
     <use xlink:href="#NotoSansCJKjp-Bold-7f16"/>
     <use xlink:href="#NotoSansCJKjp-Bold-8bd1" transform="translate(99.999985 0)"/>
     <use xlink:href="#NotoSansCJKjp-Bold-5668" transform="translate(199.999969 0)"/>
     <use xlink:href="#NotoSansCJKjp-Bold-770b" transform="translate(299.999954 0)"/>
     <use xlink:href="#NotoSansCJKjp-Bold-5230" transform="translate(399.999939 0)"/>
     <use xlink:href="#NotoSansCJKjp-Bold-5168" transform="translate(499.999924 0)"/>
     <use xlink:href="#NotoSansCJKjp-Bold-5c40" transform="translate(599.999908 0)"/>
    </g>
    <!-- 可做跨前向/反向优化 -->
    <g style="fill: #9c27b0" transform="translate(346.301875 261.492625) scale(0.08 -0.08)">
     <defs>
      <path id="NotoSansCJKjp-Bold-53ef" d="M 307 5011 
L 307 4230 
L 4557 4230 
L 4557 410 
C 4557 275 4506 230 4358 230 
C 4205 230 3642 224 3181 250 
C 3302 38 3462 -339 3507 -563 
C 4166 -563 4634 -550 4947 -422 
C 5254 -294 5363 -64 5363 397 
L 5363 4230 
L 6106 4230 
L 6106 5011 
L 307 5011 
z
M 1645 2784 
L 2874 2784 
L 2874 1754 
L 1645 1754 
L 1645 2784 
z
M 902 3514 
L 902 538 
L 1645 538 
L 1645 1024 
L 3629 1024 
L 3629 3514 
L 902 3514 
z
" transform="scale(0.015625)"/>
      <path id="NotoSansCJKjp-Bold-505a" d="M 4416 5434 
C 4282 4397 4032 3392 3590 2746 
L 3744 2534 
L 3258 2534 
L 3258 3584 
L 3930 3584 
L 3930 4275 
L 3258 4275 
L 3258 5357 
L 2534 5357 
L 2534 4275 
L 1798 4275 
L 1798 3584 
L 2534 3584 
L 2534 2534 
L 1894 2534 
L 1894 -320 
L 2554 -320 
L 2554 134 
L 3770 134 
C 3686 77 3603 19 3514 -32 
C 3654 -154 3898 -422 3981 -550 
C 4371 -288 4691 26 4947 390 
C 5165 26 5440 -294 5779 -550 
C 5875 -365 6099 -77 6227 51 
C 5837 301 5542 653 5318 1062 
C 5632 1754 5805 2598 5907 3610 
L 6208 3610 
L 6208 4250 
L 4896 4250 
C 4979 4595 5043 4960 5101 5318 
L 4416 5434 
z
M 2554 1882 
L 3213 1882 
L 3213 787 
L 2554 787 
L 2554 1882 
z
M 3878 2330 
L 4013 2093 
C 4090 2202 4166 2317 4237 2445 
C 4320 1984 4442 1523 4608 1088 
C 4422 749 4179 461 3878 218 
L 3878 2330 
z
M 4717 3610 
L 5254 3610 
C 5197 2982 5107 2426 4960 1933 
C 4806 2419 4717 2938 4659 3418 
L 4717 3610 
z
M 1344 5427 
C 1062 4493 589 3558 77 2957 
C 192 2752 384 2310 442 2125 
C 576 2278 704 2451 832 2643 
L 832 -570 
L 1536 -570 
L 1536 3904 
C 1734 4339 1914 4787 2054 5216 
L 1344 5427 
z
" transform="scale(0.015625)"/>
      <path id="NotoSansCJKjp-Bold-8de8" d="M 1120 4557 
L 1856 4557 
L 1856 3699 
L 1120 3699 
L 1120 4557 
z
M 4544 4173 
C 4659 3898 4800 3635 4954 3398 
L 3834 3398 
C 4019 3642 4166 3904 4282 4173 
L 4544 4173 
z
M 3885 5446 
C 3859 5248 3814 5050 3757 4851 
L 2675 4851 
L 2675 4173 
L 3469 4173 
C 3258 3795 2950 3450 2528 3168 
L 2528 5197 
L 486 5197 
L 486 3066 
L 1293 3066 
L 1293 627 
L 1043 576 
L 1043 2618 
L 442 2618 
L 442 448 
L 173 397 
L 320 -307 
C 1024 -134 1958 83 2829 307 
L 2758 954 
L 1939 768 
L 1939 1741 
L 2605 1741 
L 2605 2387 
L 1939 2387 
L 1939 3066 
L 2400 3066 
C 2554 2944 2771 2675 2854 2502 
C 3110 2662 3328 2842 3520 3040 
L 3520 2778 
L 5210 2778 
L 5210 3059 
C 5382 2848 5581 2662 5786 2522 
C 5901 2707 6131 2976 6298 3110 
C 5901 3341 5555 3731 5306 4173 
L 6170 4173 
L 6170 4851 
L 4518 4851 
C 4563 5024 4595 5197 4627 5370 
L 3885 5446 
z
M 2829 2445 
L 2829 1824 
L 3418 1824 
C 3315 1459 3200 1075 3091 794 
L 3795 672 
L 3878 909 
L 4947 909 
C 4883 454 4806 224 4717 141 
C 4653 90 4582 77 4474 77 
C 4333 77 4006 90 3686 115 
C 3808 -70 3898 -346 3910 -550 
C 4256 -563 4582 -563 4774 -544 
C 5005 -525 5178 -474 5325 -326 
C 5523 -141 5632 301 5734 1242 
C 5747 1338 5760 1530 5760 1530 
L 4070 1530 
L 4154 1824 
L 5958 1824 
L 5958 2445 
L 2829 2445 
z
" transform="scale(0.015625)"/>
      <path id="NotoSansCJKjp-Bold-2f" d="M 90 -1158 
L 717 -1158 
L 2304 5158 
L 1683 5158 
L 90 -1158 
z
" transform="scale(0.015625)"/>
      <path id="NotoSansCJKjp-Bold-4f18" d="M 4000 2861 
L 4000 538 
C 4000 -186 4160 -422 4800 -422 
C 4922 -422 5286 -422 5408 -422 
C 5971 -422 6150 -109 6214 960 
C 6022 1018 5696 1139 5542 1267 
C 5517 422 5491 282 5338 282 
C 5254 282 4986 282 4922 282 
C 4774 282 4749 314 4749 538 
L 4749 2861 
L 4000 2861 
z
M 4467 4928 
C 4749 4634 5094 4230 5254 3968 
L 3936 3968 
C 3949 4416 3955 4877 3955 5350 
L 3194 5350 
C 3194 4877 3194 4410 3181 3968 
L 1888 3968 
L 1888 3245 
L 3142 3245 
C 3040 1888 2714 755 1651 26 
C 1850 -115 2086 -378 2208 -582 
C 3405 288 3776 1651 3898 3245 
L 6118 3245 
L 6118 3968 
L 5306 3968 
L 5843 4371 
C 5664 4634 5286 5030 4998 5306 
L 4467 4928 
z
M 1562 5414 
C 1242 4499 710 3597 147 3008 
C 275 2822 486 2400 557 2214 
C 678 2342 800 2483 915 2637 
L 915 -570 
L 1645 -570 
L 1645 3782 
C 1894 4237 2112 4723 2285 5190 
L 1562 5414 
z
" transform="scale(0.015625)"/>
      <path id="NotoSansCJKjp-Bold-5316" d="M 5453 4198 
C 5024 3834 4435 3418 3834 3072 
L 3834 5274 
L 3059 5274 
L 3059 666 
C 3059 -237 3290 -499 4096 -499 
C 4269 -499 5011 -499 5197 -499 
C 5958 -499 6163 -90 6253 1018 
C 6042 1062 5722 1210 5542 1344 
C 5491 435 5440 218 5126 218 
C 4973 218 4333 218 4192 218 
C 3878 218 3834 275 3834 659 
L 3834 2285 
C 4589 2643 5382 3078 6016 3526 
L 5453 4198 
z
M 1818 5350 
C 1427 4384 755 3437 58 2848 
C 198 2656 422 2227 506 2035 
C 717 2234 934 2464 1139 2714 
L 1139 -563 
L 1907 -563 
L 1907 3802 
C 2163 4224 2394 4666 2579 5101 
L 1818 5350 
z
" transform="scale(0.015625)"/>
     </defs>
     <use xlink:href="#NotoSansCJKjp-Bold-53ef"/>
     <use xlink:href="#NotoSansCJKjp-Bold-505a" transform="translate(99.999985 0)"/>
     <use xlink:href="#NotoSansCJKjp-Bold-8de8" transform="translate(199.999969 0)"/>
     <use xlink:href="#NotoSansCJKjp-Bold-524d" transform="translate(299.999954 0)"/>
     <use xlink:href="#NotoSansCJKjp-Bold-5411" transform="translate(399.999939 0)"/>
     <use xlink:href="#NotoSansCJKjp-Bold-2f" transform="translate(499.999924 0)"/>
     <use xlink:href="#NotoSansCJKjp-Bold-53cd" transform="translate(538.699921 0)"/>
     <use xlink:href="#NotoSansCJKjp-Bold-5411" transform="translate(638.699905 0)"/>
     <use xlink:href="#NotoSansCJKjp-Bold-4f18" transform="translate(738.69989 0)"/>
     <use xlink:href="#NotoSansCJKjp-Bold-5316" transform="translate(838.699875 0)"/>
    </g>
   </g>
   <g id="patch_16">
    <path d="M 383.85 230.958691 
Q 383.85 233.580484 383.85 234.525225 
" style="fill: none; stroke: #616161; stroke-width: 1.5; stroke-linecap: round"/>
    <path d="M 386.05 230.125225 
L 383.85 234.525225 
L 381.65 230.125225 
" style="fill: none; stroke: #616161; stroke-width: 1.5; stroke-linecap: round"/>
   </g>
  </g>
 </g>
 <defs>
  <clipPath id="p68f23ad515">
   <rect x="7.2" y="7.2" width="502.2" height="277.2"/>
  </clipPath>
 </defs>
</svg>
