<?xml version="1.0" encoding="utf-8" standalone="no"?>
<!DOCTYPE svg PUBLIC "-//W3C//DTD SVG 1.1//EN"
  "http://www.w3.org/Graphics/SVG/1.1/DTD/svg11.dtd">
<svg xmlns:xlink="http://www.w3.org/1999/xlink" width="405pt" height="347.04pt" viewBox="0 0 405 347.04" xmlns="http://www.w3.org/2000/svg" version="1.1">
 <metadata>
  <rdf:RDF xmlns:dc="http://purl.org/dc/elements/1.1/" xmlns:cc="http://creativecommons.org/ns#" xmlns:rdf="http://www.w3.org/1999/02/22-rdf-syntax-ns#">
   <cc:Work>
    <dc:type rdf:resource="http://purl.org/dc/dcmitype/StillImage"/>
    <dc:date>2026-07-11T13:53:58.589599</dc:date>
    <dc:format>image/svg+xml</dc:format>
    <dc:creator>
     <cc:Agent>
      <dc:title>Matplotlib v3.10.9, https://matplotlib.org/</dc:title>
     </cc:Agent>
    </dc:creator>
   </cc:Work>
  </rdf:RDF>
 </metadata>
 <defs>
  <style type="text/css">*{stroke-linejoin: round; stroke-linecap: butt}</style>
 </defs>
 <g id="figure_1">
  <g id="patch_1">
   <path d="M 0 347.04 
L 405 347.04 
L 405 -0 
L 0 -0 
z
" style="fill: #ffffff"/>
  </g>
  <g id="axes_1">
   <g id="patch_2">
    <path d="M 115.7 86.14656 
L 289.3 86.14656 
Q 292.772 86.14656 292.772 82.5984 
L 292.772 47.1168 
Q 292.772 43.56864 289.3 43.56864 
L 115.7 43.56864 
Q 112.228 43.56864 112.228 47.1168 
L 112.228 82.5984 
Q 112.228 86.14656 115.7 86.14656 
z
" clip-path="url(#p1d2764ab2f)" style="fill: #e2882c; opacity: 0.1; stroke: #e2882c; stroke-width: 2; stroke-linejoin: miter"/>
   </g>
   <g id="patch_3">
    <path d="M 115.7 139.36896 
L 289.3 139.36896 
Q 292.772 139.36896 292.772 135.8208 
L 292.772 104.7744 
Q 292.772 101.22624 289.3 101.22624 
L 115.7 101.22624 
Q 112.228 101.22624 112.228 104.7744 
L 112.228 135.8208 
Q 112.228 139.36896 115.7 139.36896 
z
" clip-path="url(#p1d2764ab2f)" style="fill: #2c5f8a; opacity: 0.1; stroke: #2c5f8a; stroke-width: 2; stroke-linejoin: miter"/>
   </g>
   <g id="patch_4">
    <path d="M 28.9 201.46176 
L 180.8 201.46176 
Q 184.272 201.46176 184.272 197.9136 
L 184.272 166.8672 
Q 184.272 163.31904 180.8 163.31904 
L 28.9 163.31904 
Q 25.428 163.31904 25.428 166.8672 
L 25.428 197.9136 
Q 25.428 201.46176 28.9 201.46176 
z
" clip-path="url(#p1d2764ab2f)" style="fill: #4caf50; opacity: 0.1; stroke: #4caf50; stroke-width: 2; stroke-linejoin: miter"/>
   </g>
   <g id="patch_5">
    <path d="M 224.2 201.46176 
L 376.1 201.46176 
Q 379.572 201.46176 379.572 197.9136 
L 379.572 166.8672 
Q 379.572 163.31904 376.1 163.31904 
L 224.2 163.31904 
Q 220.728 163.31904 220.728 166.8672 
L 220.728 197.9136 
Q 220.728 201.46176 224.2 201.46176 
z
" clip-path="url(#p1d2764ab2f)" style="fill: #4caf50; opacity: 0.1; stroke: #4caf50; stroke-width: 2; stroke-linejoin: miter"/>
   </g>
   <g id="patch_6">
    <path d="M 28.9 263.55456 
L 180.8 263.55456 
Q 184.272 263.55456 184.272 260.0064 
L 184.272 228.96 
Q 184.272 225.41184 180.8 225.41184 
L 28.9 225.41184 
Q 25.428 225.41184 25.428 228.96 
L 25.428 260.0064 
Q 25.428 263.55456 28.9 263.55456 
z
" clip-path="url(#p1d2764ab2f)" style="fill: #4caf50; opacity: 0.1; stroke: #4caf50; stroke-width: 2; stroke-linejoin: miter"/>
   </g>
   <g id="patch_7">
    <path d="M 224.2 263.55456 
L 376.1 263.55456 
Q 379.572 263.55456 379.572 260.0064 
L 379.572 228.96 
Q 379.572 225.41184 376.1 225.41184 
L 224.2 225.41184 
Q 220.728 225.41184 220.728 228.96 
L 220.728 260.0064 
Q 220.728 263.55456 224.2 263.55456 
z
" clip-path="url(#p1d2764ab2f)" style="fill: #4caf50; opacity: 0.1; stroke: #4caf50; stroke-width: 2; stroke-linejoin: miter"/>
   </g>
   <g id="patch_8">
    <path d="M 94 334.51776 
L 311 334.51776 
Q 314.472 334.51776 314.472 330.9696 
L 314.472 295.488 
Q 314.472 291.93984 311 291.93984 
L 94 291.93984 
Q 90.528 291.93984 90.528 295.488 
L 90.528 330.9696 
Q 90.528 334.51776 94 334.51776 
z
" clip-path="url(#p1d2764ab2f)" style="fill: #9c27b0; opacity: 0.1; stroke: #9c27b0; stroke-width: 2; stroke-linejoin: miter"/>
   </g>
   <g id="text_1">
    <!-- FunctionalTensor 拦截 in-place 操作 -->
    <g style="fill: #2c5f8a" transform="translate(89.753437 24.6331) scale(0.13 -0.13)">
     <defs>
      <path id="NotoSansCJKjp-Bold-46" d="M 582 0 
L 1530 0 
L 1530 1920 
L 3213 1920 
L 3213 2714 
L 1530 2714 
L 1530 3949 
L 3501 3949 
L 3501 4742 
L 582 4742 
L 582 0 
z
" transform="scale(0.015625)"/>
      <path id="NotoSansCJKjp-Bold-75" d="M 1574 -90 
C 2067 -90 2406 154 2714 518 
L 2739 518 
L 2810 0 
L 3578 0 
L 3578 3584 
L 2637 3584 
L 2637 1165 
C 2394 845 2202 717 1914 717 
C 1562 717 1402 909 1402 1466 
L 1402 3584 
L 467 3584 
L 467 1350 
C 467 448 800 -90 1574 -90 
z
" transform="scale(0.015625)"/>
      <path id="NotoSansCJKjp-Bold-6e" d="M 506 0 
L 1446 0 
L 1446 2464 
C 1709 2726 1901 2867 2189 2867 
C 2541 2867 2694 2675 2694 2118 
L 2694 0 
L 3635 0 
L 3635 2234 
C 3635 3136 3302 3674 2528 3674 
C 2042 3674 1677 3418 1363 3110 
L 1344 3110 
L 1274 3584 
L 506 3584 
L 506 0 
z
" transform="scale(0.015625)"/>
      <path id="NotoSansCJKjp-Bold-63" d="M 2029 -90 
C 2426 -90 2861 45 3200 346 
L 2829 966 
C 2630 800 2394 678 2131 678 
C 1613 678 1242 1114 1242 1792 
C 1242 2464 1613 2906 2163 2906 
C 2362 2906 2528 2822 2707 2675 
L 3155 3270 
C 2893 3507 2554 3674 2112 3674 
C 1139 3674 282 2982 282 1792 
C 282 602 1043 -90 2029 -90 
z
" transform="scale(0.015625)"/>
      <path id="NotoSansCJKjp-Bold-74" d="M 1818 -90 
C 2131 -90 2381 -13 2579 45 
L 2419 730 
C 2323 691 2182 653 2067 653 
C 1747 653 1574 845 1574 1254 
L 1574 2842 
L 2464 2842 
L 2464 3584 
L 1574 3584 
L 1574 4550 
L 800 4550 
L 691 3584 
L 134 3539 
L 134 2842 
L 640 2842 
L 640 1248 
C 640 454 966 -90 1818 -90 
z
" transform="scale(0.015625)"/>
      <path id="NotoSansCJKjp-Bold-69" d="M 506 0 
L 1446 0 
L 1446 3584 
L 506 3584 
L 506 0 
z
M 979 4166 
C 1299 4166 1523 4365 1523 4678 
C 1523 4986 1299 5190 979 5190 
C 646 5190 435 4986 435 4678 
C 435 4365 646 4166 979 4166 
z
" transform="scale(0.015625)"/>
      <path id="NotoSansCJKjp-Bold-6f" d="M 2003 -90 
C 2899 -90 3725 602 3725 1792 
C 3725 2982 2899 3674 2003 3674 
C 1101 3674 282 2982 282 1792 
C 282 602 1101 -90 2003 -90 
z
M 2003 678 
C 1510 678 1242 1114 1242 1792 
C 1242 2464 1510 2906 2003 2906 
C 2490 2906 2765 2464 2765 1792 
C 2765 1114 2490 678 2003 678 
z
" transform="scale(0.015625)"/>
      <path id="NotoSansCJKjp-Bold-61" d="M 1382 -90 
C 1798 -90 2157 109 2464 384 
L 2496 384 
L 2560 0 
L 3328 0 
L 3328 2093 
C 3328 3130 2861 3674 1952 3674 
C 1389 3674 877 3456 461 3200 
L 794 2573 
C 1126 2771 1446 2918 1779 2918 
C 2221 2918 2374 2650 2387 2298 
C 947 2144 326 1741 326 979 
C 326 365 742 -90 1382 -90 
z
M 1696 646 
C 1421 646 1222 768 1222 1050 
C 1222 1376 1510 1613 2387 1715 
L 2387 998 
C 2163 774 1965 646 1696 646 
z
" transform="scale(0.015625)"/>
      <path id="NotoSansCJKjp-Bold-6c" d="M 1395 -90 
C 1613 -90 1766 -51 1875 -6 
L 1760 691 
C 1696 678 1670 678 1632 678 
C 1542 678 1446 749 1446 966 
L 1446 5107 
L 506 5107 
L 506 1005 
C 506 339 736 -90 1395 -90 
z
" transform="scale(0.015625)"/>
      <path id="NotoSansCJKjp-Bold-54" d="M 1523 0 
L 2470 0 
L 2470 3949 
L 3808 3949 
L 3808 4742 
L 192 4742 
L 192 3949 
L 1523 3949 
L 1523 0 
z
" transform="scale(0.015625)"/>
      <path id="NotoSansCJKjp-Bold-65" d="M 2067 -90 
C 2509 -90 2963 64 3315 307 
L 2995 883 
C 2733 723 2483 640 2195 640 
C 1658 640 1274 941 1197 1523 
L 3405 1523 
C 3430 1613 3450 1786 3450 1958 
C 3450 2957 2938 3674 1952 3674 
C 1101 3674 282 2950 282 1792 
C 282 608 1062 -90 2067 -90 
z
M 1178 2157 
C 1254 2675 1587 2944 1965 2944 
C 2432 2944 2643 2637 2643 2157 
L 1178 2157 
z
" transform="scale(0.015625)"/>
      <path id="NotoSansCJKjp-Bold-73" d="M 1530 -90 
C 2458 -90 2957 410 2957 1043 
C 2957 1702 2432 1946 1958 2125 
C 1574 2266 1248 2362 1248 2624 
C 1248 2829 1402 2970 1728 2970 
C 1990 2970 2240 2842 2496 2662 
L 2918 3232 
C 2624 3462 2221 3674 1702 3674 
C 883 3674 365 3219 365 2579 
C 365 1978 870 1702 1325 1530 
C 1702 1382 2074 1261 2074 992 
C 2074 768 1914 614 1555 614 
C 1216 614 915 762 595 1005 
L 166 410 
C 525 115 1050 -90 1530 -90 
z
" transform="scale(0.015625)"/>
      <path id="NotoSansCJKjp-Bold-72" d="M 506 0 
L 1446 0 
L 1446 2138 
C 1651 2656 1984 2842 2259 2842 
C 2413 2842 2515 2822 2643 2784 
L 2797 3597 
C 2694 3642 2579 3674 2381 3674 
C 2010 3674 1626 3418 1363 2950 
L 1344 2950 
L 1274 3584 
L 506 3584 
L 506 0 
z
" transform="scale(0.015625)"/>
      <path id="NotoSansCJKjp-Bold-20" transform="scale(0.015625)"/>
      <path id="NotoSansCJKjp-Bold-62e6" d="M 2758 2285 
L 2758 1555 
L 5683 1555 
L 5683 2285 
L 2758 2285 
z
M 2227 448 
L 2227 -288 
L 6131 -288 
L 6131 448 
L 2227 448 
z
M 2496 4070 
L 2496 3334 
L 5984 3334 
L 5984 4070 
L 5075 4070 
C 5280 4403 5504 4813 5696 5203 
L 4941 5421 
C 4800 5011 4538 4454 4314 4070 
L 3475 4070 
L 4013 4346 
C 3898 4634 3622 5069 3379 5389 
L 2778 5101 
C 3002 4781 3238 4358 3354 4070 
L 2496 4070 
z
M 1005 5434 
L 1005 4205 
L 320 4205 
L 320 3494 
L 1005 3494 
L 1005 2330 
L 141 2144 
L 288 1402 
L 1005 1581 
L 1005 243 
C 1005 160 973 134 896 134 
C 813 128 570 128 326 141 
C 416 -70 512 -384 531 -576 
C 960 -576 1248 -550 1446 -435 
C 1645 -314 1709 -115 1709 243 
L 1709 1760 
L 2400 1946 
L 2323 2637 
L 1709 2490 
L 1709 3494 
L 2310 3494 
L 2310 4205 
L 1709 4205 
L 1709 5434 
L 1005 5434 
z
" transform="scale(0.015625)"/>
      <path id="NotoSansCJKjp-Bold-622a" d="M 4602 4966 
C 4928 4685 5312 4275 5472 3994 
L 6054 4422 
C 5875 4710 5478 5088 5139 5357 
L 4602 4966 
z
M 5210 3059 
C 5062 2566 4870 2106 4634 1696 
C 4544 2138 4474 2662 4429 3232 
L 6125 3232 
L 6125 3910 
L 4390 3910 
C 4365 4397 4358 4909 4371 5427 
L 3603 5427 
C 3603 4915 3616 4403 3635 3910 
L 2349 3910 
L 2349 4339 
L 3366 4339 
L 3366 4960 
L 2349 4960 
L 2349 5440 
L 1619 5440 
L 1619 4960 
L 576 4960 
L 576 4339 
L 1619 4339 
L 1619 3910 
L 294 3910 
L 294 3232 
L 1082 3232 
C 877 2720 525 2202 141 1875 
C 294 1773 557 1549 672 1434 
L 742 1504 
L 742 -506 
L 1402 -506 
L 1402 -230 
L 3283 -230 
C 3392 -352 3488 -474 3552 -582 
C 3846 -378 4122 -147 4371 109 
C 4614 -326 4928 -576 5325 -576 
C 5894 -576 6138 -294 6246 819 
C 6054 890 5792 1062 5632 1229 
C 5600 480 5530 173 5389 173 
C 5203 173 5037 378 4896 736 
C 5331 1338 5664 2048 5914 2854 
L 5210 3059 
z
M 2259 3213 
C 2221 3059 2144 2861 2067 2675 
L 1562 2675 
C 1638 2816 1702 2963 1760 3104 
L 1286 3232 
L 3680 3232 
C 3744 2342 3866 1530 4058 890 
C 3846 653 3622 442 3373 262 
L 3373 371 
L 2554 371 
L 2554 659 
L 3270 659 
L 3270 1114 
L 2554 1114 
L 2554 1389 
L 3270 1389 
L 3270 1850 
L 2554 1850 
L 2554 2106 
L 3379 2106 
L 3379 2675 
L 2720 2675 
L 2944 3078 
L 2259 3213 
z
M 1939 1389 
L 1939 1114 
L 1402 1114 
L 1402 1389 
L 1939 1389 
z
M 1939 1850 
L 1402 1850 
L 1402 2106 
L 1939 2106 
L 1939 1850 
z
M 1939 659 
L 1939 371 
L 1402 371 
L 1402 659 
L 1939 659 
z
" transform="scale(0.015625)"/>
      <path id="NotoSansCJKjp-Bold-2d" d="M 314 1491 
L 2061 1491 
L 2061 2170 
L 314 2170 
L 314 1491 
z
" transform="scale(0.015625)"/>
      <path id="NotoSansCJKjp-Bold-70" d="M 506 -1376 
L 1446 -1376 
L 1446 -282 
L 1414 301 
C 1683 51 1990 -90 2304 -90 
C 3091 -90 3827 621 3827 1850 
C 3827 2950 3296 3674 2419 3674 
C 2029 3674 1664 3469 1363 3213 
L 1344 3213 
L 1274 3584 
L 506 3584 
L 506 -1376 
z
M 2099 685 
C 1901 685 1677 755 1446 954 
L 1446 2534 
C 1690 2778 1907 2899 2150 2899 
C 2643 2899 2861 2522 2861 1837 
C 2861 1056 2522 685 2099 685 
z
" transform="scale(0.015625)"/>
      <path id="NotoSansCJKjp-Bold-64cd" d="M 3558 4666 
L 4723 4666 
L 4723 4243 
L 3558 4243 
L 3558 4666 
z
M 2906 5197 
L 2906 3706 
L 5421 3706 
L 5421 5197 
L 2906 5197 
z
M 2899 2963 
L 3424 2963 
L 3424 2490 
L 2899 2490 
L 2899 2963 
z
M 4864 2963 
L 5414 2963 
L 5414 2490 
L 4864 2490 
L 4864 2963 
z
M 864 5440 
L 864 4224 
L 243 4224 
L 243 3520 
L 864 3520 
L 864 2368 
L 154 2163 
L 333 1421 
L 864 1600 
L 864 269 
C 864 198 845 173 774 173 
C 717 173 538 173 365 179 
C 448 -13 538 -314 557 -506 
C 915 -506 1165 -480 1344 -358 
C 1530 -250 1581 -58 1581 275 
L 1581 1850 
L 2170 2061 
L 2048 2739 
L 1581 2586 
L 1581 3520 
L 2118 3520 
L 2118 4224 
L 1581 4224 
L 1581 5440 
L 864 5440 
z
M 2240 1581 
L 2240 960 
L 3424 960 
C 3002 589 2387 275 1766 115 
C 1920 -32 2131 -307 2240 -480 
C 2810 -288 3354 38 3789 442 
L 3789 -582 
L 4518 -582 
L 4518 467 
C 4877 83 5325 -237 5779 -429 
C 5888 -250 6106 19 6266 154 
C 5747 314 5216 614 4851 960 
L 6138 960 
L 6138 1581 
L 4518 1581 
L 4518 1965 
L 6035 1965 
L 6035 3488 
L 4282 3488 
L 4282 1997 
L 4026 1997 
L 4026 3488 
L 2323 3488 
L 2323 1965 
L 3789 1965 
L 3789 1581 
L 2240 1581 
z
" transform="scale(0.015625)"/>
      <path id="NotoSansCJKjp-Bold-4f5c" d="M 3302 5376 
C 3008 4454 2502 3526 1933 2950 
C 2099 2829 2400 2554 2522 2413 
C 2816 2746 3104 3181 3366 3661 
L 3603 3661 
L 3603 -570 
L 4397 -570 
L 4397 851 
L 6144 851 
L 6144 1568 
L 4397 1568 
L 4397 2291 
L 6061 2291 
L 6061 2989 
L 4397 2989 
L 4397 3661 
L 6221 3661 
L 6221 4390 
L 3725 4390 
C 3840 4653 3949 4922 4038 5184 
L 3302 5376 
z
M 1606 5414 
C 1280 4499 723 3584 141 3008 
C 275 2816 493 2374 563 2189 
C 698 2330 832 2483 960 2650 
L 960 -563 
L 1734 -563 
L 1734 3840 
C 1971 4275 2182 4730 2349 5178 
L 1606 5414 
z
" transform="scale(0.015625)"/>
     </defs>
     <use xlink:href="#NotoSansCJKjp-Bold-46"/>
     <use xlink:href="#NotoSansCJKjp-Bold-75" transform="translate(58.499985 0)"/>
     <use xlink:href="#NotoSansCJKjp-Bold-6e" transform="translate(122.199982 0)"/>
     <use xlink:href="#NotoSansCJKjp-Bold-63" transform="translate(186.299973 0)"/>
     <use xlink:href="#NotoSansCJKjp-Bold-74" transform="translate(238.999969 0)"/>
     <use xlink:href="#NotoSansCJKjp-Bold-69" transform="translate(281.09996 0)"/>
     <use xlink:href="#NotoSansCJKjp-Bold-6f" transform="translate(311.499954 0)"/>
     <use xlink:href="#NotoSansCJKjp-Bold-6e" transform="translate(374.099945 0)"/>
     <use xlink:href="#NotoSansCJKjp-Bold-61" transform="translate(438.199936 0)"/>
     <use xlink:href="#NotoSansCJKjp-Bold-6c" transform="translate(497.299927 0)"/>
     <use xlink:href="#NotoSansCJKjp-Bold-54" transform="translate(528.799911 0)"/>
     <use xlink:href="#NotoSansCJKjp-Bold-65" transform="translate(591.299896 0)"/>
     <use xlink:href="#NotoSansCJKjp-Bold-6e" transform="translate(649.399887 0)"/>
     <use xlink:href="#NotoSansCJKjp-Bold-73" transform="translate(713.499878 0)"/>
     <use xlink:href="#NotoSansCJKjp-Bold-6f" transform="translate(762.999863 0)"/>
     <use xlink:href="#NotoSansCJKjp-Bold-72" transform="translate(825.599854 0)"/>
     <use xlink:href="#NotoSansCJKjp-Bold-20" transform="translate(869.199844 0)"/>
     <use xlink:href="#NotoSansCJKjp-Bold-62e6" transform="translate(891.899841 0)"/>
     <use xlink:href="#NotoSansCJKjp-Bold-622a" transform="translate(991.899826 0)"/>
     <use xlink:href="#NotoSansCJKjp-Bold-20" transform="translate(1091.899811 0)"/>
     <use xlink:href="#NotoSansCJKjp-Bold-69" transform="translate(1114.599808 0)"/>
     <use xlink:href="#NotoSansCJKjp-Bold-6e" transform="translate(1144.999802 0)"/>
     <use xlink:href="#NotoSansCJKjp-Bold-2d" transform="translate(1209.099792 0)"/>
     <use xlink:href="#NotoSansCJKjp-Bold-70" transform="translate(1246.099777 0)"/>
     <use xlink:href="#NotoSansCJKjp-Bold-6c" transform="translate(1310.499771 0)"/>
     <use xlink:href="#NotoSansCJKjp-Bold-61" transform="translate(1341.999756 0)"/>
     <use xlink:href="#NotoSansCJKjp-Bold-63" transform="translate(1401.099747 0)"/>
     <use xlink:href="#NotoSansCJKjp-Bold-65" transform="translate(1453.799744 0)"/>
     <use xlink:href="#NotoSansCJKjp-Bold-20" transform="translate(1511.899734 0)"/>
     <use xlink:href="#NotoSansCJKjp-Bold-64cd" transform="translate(1534.599731 0)"/>
     <use xlink:href="#NotoSansCJKjp-Bold-4f5c" transform="translate(1634.599716 0)"/>
    </g>
   </g>
   <g id="text_2">
    <!-- x.add_(1) -->
    <g style="fill: #e2882c" transform="translate(183.78375 62.58735) scale(0.08 -0.08)">
     <defs>
      <path id="NotoSansCJKjp-Bold-78" d="M 102 0 
L 1082 0 
L 1408 659 
C 1510 870 1606 1082 1709 1280 
L 1741 1280 
C 1856 1082 1978 870 2086 659 
L 2483 0 
L 3494 0 
L 2374 1760 
L 3424 3584 
L 2451 3584 
L 2150 2950 
C 2067 2746 1971 2541 1888 2342 
L 1862 2342 
C 1754 2541 1645 2746 1542 2950 
L 1184 3584 
L 173 3584 
L 1222 1862 
L 102 0 
z
" transform="scale(0.015625)"/>
      <path id="NotoSansCJKjp-Bold-2e" d="M 1043 -90 
C 1376 -90 1626 179 1626 525 
C 1626 877 1376 1139 1043 1139 
C 704 1139 454 877 454 525 
C 454 179 704 -90 1043 -90 
z
" transform="scale(0.015625)"/>
      <path id="NotoSansCJKjp-Bold-64" d="M 1766 -90 
C 2138 -90 2496 109 2758 371 
L 2784 371 
L 2854 0 
L 3622 0 
L 3622 5107 
L 2682 5107 
L 2682 3846 
L 2714 3283 
C 2458 3520 2208 3674 1805 3674 
C 1037 3674 301 2957 301 1792 
C 301 614 870 -90 1766 -90 
z
M 2010 685 
C 1536 685 1267 1056 1267 1805 
C 1267 2515 1606 2899 2010 2899 
C 2240 2899 2464 2829 2682 2630 
L 2682 1056 
C 2477 787 2259 685 2010 685 
z
" transform="scale(0.015625)"/>
      <path id="NotoSansCJKjp-Bold-5f" d="M 90 -992 
L 3539 -992 
L 3539 -448 
L 90 -448 
L 90 -992 
z
" transform="scale(0.015625)"/>
      <path id="NotoSansCJKjp-Bold-28" d="M 1504 -1293 
L 2086 -1043 
C 1549 -109 1306 966 1306 2016 
C 1306 3066 1549 4147 2086 5082 
L 1504 5331 
C 896 4339 544 3296 544 2016 
C 544 736 896 -307 1504 -1293 
z
" transform="scale(0.015625)"/>
      <path id="NotoSansCJKjp-Bold-31" d="M 525 0 
L 3373 0 
L 3373 768 
L 2483 768 
L 2483 4742 
L 1786 4742 
C 1485 4550 1165 4429 685 4346 
L 685 3757 
L 1549 3757 
L 1549 768 
L 525 768 
L 525 0 
z
" transform="scale(0.015625)"/>
      <path id="NotoSansCJKjp-Bold-29" d="M 915 -1293 
C 1523 -307 1875 736 1875 2016 
C 1875 3296 1523 4339 915 5331 
L 333 5082 
C 870 4147 1114 3066 1114 2016 
C 1114 966 870 -109 333 -1043 
L 915 -1293 
z
" transform="scale(0.015625)"/>
     </defs>
     <use xlink:href="#NotoSansCJKjp-Bold-78"/>
     <use xlink:href="#NotoSansCJKjp-Bold-2e" transform="translate(56.199997 0)"/>
     <use xlink:href="#NotoSansCJKjp-Bold-61" transform="translate(88.699982 0)"/>
     <use xlink:href="#NotoSansCJKjp-Bold-64" transform="translate(147.799973 0)"/>
     <use xlink:href="#NotoSansCJKjp-Bold-64" transform="translate(212.199966 0)"/>
     <use xlink:href="#NotoSansCJKjp-Bold-5f" transform="translate(276.59996 0)"/>
     <use xlink:href="#NotoSansCJKjp-Bold-28" transform="translate(333.299957 0)"/>
     <use xlink:href="#NotoSansCJKjp-Bold-31" transform="translate(371.099945 0)"/>
     <use xlink:href="#NotoSansCJKjp-Bold-29" transform="translate(430.09993 0)"/>
    </g>
    <!-- ← 被 FunctionalTensor 拦截 -->
    <g style="fill: #e2882c" transform="translate(149.009375 71.96785) scale(0.08 -0.08)">
     <defs>
      <path id="NotoSansCJKjp-Bold-2190" d="M 1619 2106 
L 6144 2106 
L 6144 2758 
L 1619 2758 
C 1894 2957 2234 3309 2470 3635 
L 1894 3955 
C 1453 3392 800 2810 224 2432 
C 800 2054 1453 1472 1894 909 
L 2470 1229 
C 2234 1555 1894 1907 1619 2106 
z
" transform="scale(0.015625)"/>
      <path id="NotoSansCJKjp-Bold-88ab" d="M 4090 2944 
L 3488 2944 
L 3488 3034 
L 3488 3834 
L 4090 3834 
L 4090 2944 
z
M 2355 3091 
C 2266 2918 2118 2688 1984 2490 
L 1843 2656 
C 2138 3098 2387 3578 2566 4064 
L 2163 4339 
L 2035 4307 
L 1741 4307 
L 1741 5414 
L 1018 5414 
L 1018 4307 
L 275 4307 
L 275 3622 
L 1651 3622 
C 1280 2912 691 2227 102 1837 
C 211 1702 390 1331 448 1133 
C 640 1274 832 1440 1018 1632 
L 1018 -570 
L 1747 -570 
L 1747 1875 
C 1914 1632 2074 1389 2170 1210 
L 2605 1722 
L 2291 2118 
C 2438 2291 2605 2502 2765 2720 
C 2746 1805 2624 646 1990 -173 
C 2163 -243 2483 -442 2611 -563 
C 2752 -378 2874 -166 2976 51 
C 3130 -96 3309 -384 3405 -570 
C 3846 -378 4237 -134 4582 173 
C 4928 -141 5325 -390 5798 -576 
C 5907 -365 6138 -64 6310 90 
C 5850 237 5453 461 5114 742 
C 5523 1280 5830 1958 6003 2797 
L 5504 2970 
L 5376 2944 
L 4832 2944 
L 4832 3834 
L 5344 3834 
C 5299 3590 5248 3360 5197 3187 
L 5856 3066 
C 5971 3418 6112 3962 6214 4442 
L 5664 4550 
L 5549 4525 
L 4832 4525 
L 4832 5421 
L 4090 5421 
L 4090 4525 
L 2771 4525 
L 2771 3040 
L 2771 2790 
L 2355 3091 
z
M 4038 2272 
L 5082 2272 
C 4954 1914 4787 1587 4576 1299 
C 4352 1587 4173 1920 4038 2272 
z
M 3437 1933 
C 3610 1491 3821 1088 4077 736 
C 3757 448 3392 224 2982 70 
C 3245 646 3373 1312 3437 1933 
z
" transform="scale(0.015625)"/>
     </defs>
     <use xlink:href="#NotoSansCJKjp-Bold-2190"/>
     <use xlink:href="#NotoSansCJKjp-Bold-20" transform="translate(99.999985 0)"/>
     <use xlink:href="#NotoSansCJKjp-Bold-88ab" transform="translate(122.699982 0)"/>
     <use xlink:href="#NotoSansCJKjp-Bold-20" transform="translate(222.699966 0)"/>
     <use xlink:href="#NotoSansCJKjp-Bold-46" transform="translate(245.399963 0)"/>
     <use xlink:href="#NotoSansCJKjp-Bold-75" transform="translate(303.899948 0)"/>
     <use xlink:href="#NotoSansCJKjp-Bold-6e" transform="translate(367.599945 0)"/>
     <use xlink:href="#NotoSansCJKjp-Bold-63" transform="translate(431.699936 0)"/>
     <use xlink:href="#NotoSansCJKjp-Bold-74" transform="translate(484.399933 0)"/>
     <use xlink:href="#NotoSansCJKjp-Bold-69" transform="translate(526.499924 0)"/>
     <use xlink:href="#NotoSansCJKjp-Bold-6f" transform="translate(556.899918 0)"/>
     <use xlink:href="#NotoSansCJKjp-Bold-6e" transform="translate(619.499908 0)"/>
     <use xlink:href="#NotoSansCJKjp-Bold-61" transform="translate(683.599899 0)"/>
     <use xlink:href="#NotoSansCJKjp-Bold-6c" transform="translate(742.69989 0)"/>
     <use xlink:href="#NotoSansCJKjp-Bold-54" transform="translate(774.199875 0)"/>
     <use xlink:href="#NotoSansCJKjp-Bold-65" transform="translate(836.69986 0)"/>
     <use xlink:href="#NotoSansCJKjp-Bold-6e" transform="translate(894.79985 0)"/>
     <use xlink:href="#NotoSansCJKjp-Bold-73" transform="translate(958.899841 0)"/>
     <use xlink:href="#NotoSansCJKjp-Bold-6f" transform="translate(1008.399826 0)"/>
     <use xlink:href="#NotoSansCJKjp-Bold-72" transform="translate(1070.999817 0)"/>
     <use xlink:href="#NotoSansCJKjp-Bold-20" transform="translate(1114.599808 0)"/>
     <use xlink:href="#NotoSansCJKjp-Bold-62e6" transform="translate(1137.299805 0)"/>
     <use xlink:href="#NotoSansCJKjp-Bold-622a" transform="translate(1237.299789 0)"/>
    </g>
   </g>
   <g id="text_3">
    <!-- FunctionalTensor 内部处理 -->
    <g style="fill: #2c5f8a" transform="translate(144.366328 122.920959) scale(0.09 -0.09)">
     <defs>
      <path id="NotoSansCJKjp-Bold-5185" d="M 570 4371 
L 570 -589 
L 1338 -589 
L 1338 1229 
C 1523 1082 1766 813 1875 659 
C 2573 1075 3002 1594 3251 2144 
C 3718 1670 4205 1152 4461 794 
L 5094 1293 
C 4749 1741 4051 2400 3507 2893 
C 3558 3142 3584 3386 3597 3622 
L 5094 3622 
L 5094 314 
C 5094 205 5050 173 4934 166 
C 4806 166 4378 160 4000 179 
C 4109 -19 4224 -365 4256 -582 
C 4826 -582 5229 -570 5498 -448 
C 5766 -326 5856 -109 5856 301 
L 5856 4371 
L 3603 4371 
L 3603 5440 
L 2810 5440 
L 2810 4371 
L 570 4371 
z
M 1338 1254 
L 1338 3622 
L 2803 3622 
C 2771 2835 2554 1882 1338 1254 
z
" transform="scale(0.015625)"/>
      <path id="NotoSansCJKjp-Bold-90e8" d="M 3725 5069 
L 3725 -576 
L 4474 -576 
L 4474 4352 
L 5254 4352 
C 5101 3859 4890 3200 4704 2746 
C 5222 2246 5357 1786 5357 1434 
C 5357 1216 5318 1069 5203 1005 
C 5139 960 5056 947 4973 941 
C 4870 934 4749 941 4608 954 
C 4723 736 4794 410 4800 198 
C 4979 198 5165 198 5306 218 
C 5478 237 5626 294 5747 378 
C 5990 550 6099 864 6099 1338 
C 6099 1760 5997 2266 5459 2842 
C 5709 3386 5997 4122 6221 4749 
L 5658 5101 
L 5542 5069 
L 3725 5069 
z
M 1530 5389 
L 1530 4819 
L 358 4819 
L 358 4154 
L 3450 4154 
L 3450 4819 
L 2278 4819 
L 2278 5389 
L 1530 5389 
z
M 2445 4134 
C 2387 3840 2272 3437 2176 3168 
L 2701 3034 
L 1005 3034 
L 1619 3174 
C 1587 3430 1485 3821 1357 4109 
L 723 3981 
C 838 3686 934 3290 947 3034 
L 218 3034 
L 218 2336 
L 3533 2336 
L 3533 3034 
L 2784 3034 
C 2899 3283 3027 3629 3162 3981 
L 2445 4134 
z
M 589 1914 
L 589 -576 
L 1299 -576 
L 1299 -262 
L 2496 -262 
L 2496 -557 
L 3245 -557 
L 3245 1914 
L 589 1914 
z
M 1299 403 
L 1299 1248 
L 2496 1248 
L 2496 403 
L 1299 403 
z
" transform="scale(0.015625)"/>
      <path id="NotoSansCJKjp-Bold-5904" d="M 2528 3718 
C 2438 3021 2285 2432 2067 1933 
C 1869 2291 1702 2733 1562 3258 
L 1709 3718 
L 2528 3718 
z
M 1254 5427 
C 1082 4147 710 2880 237 2240 
C 442 2138 723 1939 864 1811 
C 973 1958 1075 2125 1171 2317 
C 1312 1888 1478 1523 1664 1216 
C 1280 659 774 269 147 -6 
C 339 -122 659 -429 787 -608 
C 1331 -346 1792 32 2176 538 
C 2925 -243 3885 -448 4941 -448 
L 5984 -448 
C 6029 -224 6157 173 6285 365 
C 5978 358 5235 358 4979 358 
C 4090 358 3251 525 2592 1210 
C 3002 1997 3270 3021 3392 4320 
L 2874 4448 
L 2733 4422 
L 1894 4422 
C 1958 4698 2016 4979 2067 5261 
L 1254 5427 
z
M 3776 5440 
L 3776 646 
L 4595 646 
L 4595 3046 
C 4928 2598 5254 2125 5421 1786 
L 6112 2208 
C 5837 2688 5248 3424 4800 3955 
L 4595 3840 
L 4595 5440 
L 3776 5440 
z
" transform="scale(0.015625)"/>
      <path id="NotoSansCJKjp-Bold-7406" d="M 3290 3373 
L 3949 3373 
L 3949 2829 
L 3290 2829 
L 3290 3373 
z
M 4595 3373 
L 5222 3373 
L 5222 2829 
L 4595 2829 
L 4595 3373 
z
M 3290 4518 
L 3949 4518 
L 3949 3981 
L 3290 3981 
L 3290 4518 
z
M 4595 4518 
L 5222 4518 
L 5222 3981 
L 4595 3981 
L 4595 4518 
z
M 2106 326 
L 2106 -371 
L 6240 -371 
L 6240 326 
L 4666 326 
L 4666 934 
L 6022 934 
L 6022 1626 
L 4666 1626 
L 4666 2176 
L 5958 2176 
L 5958 5165 
L 2592 5165 
L 2592 2176 
L 3878 2176 
L 3878 1626 
L 2554 1626 
L 2554 934 
L 3878 934 
L 3878 326 
L 2106 326 
z
M 154 794 
L 326 13 
C 941 211 1715 467 2426 710 
L 2291 1440 
L 1670 1242 
L 1670 2522 
L 2246 2522 
L 2246 3226 
L 1670 3226 
L 1670 4358 
L 2355 4358 
L 2355 5069 
L 230 5069 
L 230 4358 
L 934 4358 
L 934 3226 
L 288 3226 
L 288 2522 
L 934 2522 
L 934 1018 
L 154 794 
z
" transform="scale(0.015625)"/>
     </defs>
     <use xlink:href="#NotoSansCJKjp-Bold-46"/>
     <use xlink:href="#NotoSansCJKjp-Bold-75" transform="translate(58.499985 0)"/>
     <use xlink:href="#NotoSansCJKjp-Bold-6e" transform="translate(122.199982 0)"/>
     <use xlink:href="#NotoSansCJKjp-Bold-63" transform="translate(186.299973 0)"/>
     <use xlink:href="#NotoSansCJKjp-Bold-74" transform="translate(238.999969 0)"/>
     <use xlink:href="#NotoSansCJKjp-Bold-69" transform="translate(281.09996 0)"/>
     <use xlink:href="#NotoSansCJKjp-Bold-6f" transform="translate(311.499954 0)"/>
     <use xlink:href="#NotoSansCJKjp-Bold-6e" transform="translate(374.099945 0)"/>
     <use xlink:href="#NotoSansCJKjp-Bold-61" transform="translate(438.199936 0)"/>
     <use xlink:href="#NotoSansCJKjp-Bold-6c" transform="translate(497.299927 0)"/>
     <use xlink:href="#NotoSansCJKjp-Bold-54" transform="translate(528.799911 0)"/>
     <use xlink:href="#NotoSansCJKjp-Bold-65" transform="translate(591.299896 0)"/>
     <use xlink:href="#NotoSansCJKjp-Bold-6e" transform="translate(649.399887 0)"/>
     <use xlink:href="#NotoSansCJKjp-Bold-73" transform="translate(713.499878 0)"/>
     <use xlink:href="#NotoSansCJKjp-Bold-6f" transform="translate(762.999863 0)"/>
     <use xlink:href="#NotoSansCJKjp-Bold-72" transform="translate(825.599854 0)"/>
     <use xlink:href="#NotoSansCJKjp-Bold-20" transform="translate(869.199844 0)"/>
     <use xlink:href="#NotoSansCJKjp-Bold-5185" transform="translate(891.899841 0)"/>
     <use xlink:href="#NotoSansCJKjp-Bold-90e8" transform="translate(991.899826 0)"/>
     <use xlink:href="#NotoSansCJKjp-Bold-5904" transform="translate(1091.899811 0)"/>
     <use xlink:href="#NotoSansCJKjp-Bold-7406" transform="translate(1191.899796 0)"/>
    </g>
   </g>
   <g id="text_4">
    <!-- 1. 读取 x 的当前值 -->
    <g style="fill: #4caf50" transform="translate(68.138437 185.013759) scale(0.09 -0.09)">
     <defs>
      <path id="NotoSansCJKjp-Bold-8bfb" d="M 4339 576 
C 4845 243 5472 -256 5760 -595 
L 6246 -109 
C 5933 230 5286 698 4794 1011 
L 4339 576 
z
M 506 4864 
C 864 4563 1338 4141 1549 3859 
L 2067 4422 
C 1837 4691 1350 5088 992 5357 
L 506 4864 
z
M 2298 3904 
L 2298 3258 
L 5286 3258 
C 5222 3008 5152 2765 5094 2586 
L 5690 2451 
C 5830 2797 5984 3341 6106 3827 
L 5619 3923 
L 5504 3904 
L 4525 3904 
L 4525 4301 
L 5786 4301 
L 5786 4934 
L 4525 4934 
L 4525 5440 
L 3776 5440 
L 3776 4934 
L 2515 4934 
L 2515 4301 
L 3776 4301 
L 3776 3904 
L 2298 3904 
z
M 205 3475 
L 205 2739 
L 986 2739 
L 986 678 
C 986 333 813 96 678 -19 
C 794 -128 986 -384 1050 -531 
C 1152 -378 1344 -192 2374 704 
C 2317 794 2253 934 2195 1075 
L 3571 1075 
C 3302 666 2835 269 2035 -26 
C 2189 -160 2406 -442 2496 -614 
C 3610 -179 4166 448 4429 1075 
L 6086 1075 
L 6086 1734 
L 4621 1734 
C 4659 1965 4672 2189 4672 2394 
L 4672 3091 
L 3936 3091 
L 3936 2643 
C 3718 2816 3341 3034 3046 3174 
L 2739 2810 
C 3066 2643 3475 2381 3674 2189 
L 3936 2522 
L 3936 2413 
C 3936 2208 3923 1978 3859 1734 
L 3354 1734 
L 3565 1984 
C 3360 2189 2931 2458 2592 2624 
L 2259 2259 
C 2515 2112 2816 1914 3040 1734 
L 2163 1734 
L 2163 1152 
L 2086 1357 
L 1690 1018 
L 1690 3475 
L 205 3475 
z
" transform="scale(0.015625)"/>
      <path id="NotoSansCJKjp-Bold-53d6" d="M 4077 3846 
L 3341 3706 
C 3546 2733 3814 1875 4205 1158 
C 3898 723 3526 378 3098 134 
L 3098 4365 
L 3322 4365 
L 3322 3866 
L 5222 3866 
C 5107 3149 4922 2502 4666 1946 
C 4397 2515 4205 3162 4077 3846 
z
M 122 883 
L 269 115 
C 858 211 1619 326 2362 454 
L 2362 -570 
L 3098 -570 
L 3098 32 
C 3251 -122 3424 -365 3526 -531 
C 3962 -269 4339 58 4666 454 
C 4973 64 5338 -269 5773 -531 
C 5888 -333 6131 -38 6304 102 
C 5837 352 5453 710 5133 1146 
C 5619 2003 5926 3104 6061 4512 
L 5562 4640 
L 5427 4614 
L 3507 4614 
L 3507 5075 
L 275 5075 
L 275 4365 
L 717 4365 
L 717 954 
L 122 883 
z
M 1446 4365 
L 2362 4365 
L 2362 3757 
L 1446 3757 
L 1446 4365 
z
M 1446 3072 
L 2362 3072 
L 2362 2426 
L 1446 2426 
L 1446 3072 
z
M 1446 1741 
L 2362 1741 
L 2362 1165 
L 1446 1043 
L 1446 1741 
z
" transform="scale(0.015625)"/>
      <path id="NotoSansCJKjp-Bold-7684" d="M 3430 2598 
C 3744 2131 4141 1498 4320 1107 
L 4973 1504 
C 4774 1882 4346 2496 4032 2938 
L 3430 2598 
z
M 3744 5434 
C 3558 4672 3251 3898 2880 3347 
L 2880 4397 
L 1888 4397 
C 1997 4666 2112 4998 2214 5318 
L 1382 5440 
C 1357 5133 1280 4717 1197 4397 
L 467 4397 
L 467 -384 
L 1165 -384 
L 1165 90 
L 2880 90 
L 2880 3098 
C 3053 2989 3270 2829 3379 2726 
C 3578 3002 3770 3354 3942 3744 
L 5318 3744 
C 5254 1478 5171 512 4973 307 
C 4896 218 4826 198 4698 198 
C 4531 198 4147 198 3738 237 
C 3872 26 3974 -301 3987 -512 
C 4365 -525 4755 -531 4998 -499 
C 5261 -454 5440 -384 5613 -141 
C 5882 198 5952 1222 6035 4102 
C 6042 4192 6042 4448 6042 4448 
L 4230 4448 
C 4326 4717 4416 4992 4486 5261 
L 3744 5434 
z
M 1165 3731 
L 2189 3731 
L 2189 2688 
L 1165 2688 
L 1165 3731 
z
M 1165 762 
L 1165 2022 
L 2189 2022 
L 2189 762 
L 1165 762 
z
" transform="scale(0.015625)"/>
      <path id="NotoSansCJKjp-Bold-5f53" d="M 678 4915 
C 992 4461 1306 3834 1427 3424 
L 2170 3738 
C 2029 4147 1715 4742 1376 5184 
L 678 4915 
z
M 4928 5248 
C 4774 4736 4474 4077 4218 3642 
L 4896 3398 
C 5171 3808 5504 4416 5786 4992 
L 4928 5248 
z
M 685 454 
L 685 -307 
L 4858 -307 
L 4858 -570 
L 5677 -570 
L 5677 3219 
L 3622 3219 
L 3622 5440 
L 2778 5440 
L 2778 3219 
L 826 3219 
L 826 2445 
L 4858 2445 
L 4858 1856 
L 1050 1856 
L 1050 1120 
L 4858 1120 
L 4858 454 
L 685 454 
z
" transform="scale(0.015625)"/>
      <path id="NotoSansCJKjp-Bold-524d" d="M 3731 3283 
L 3731 659 
L 4435 659 
L 4435 3283 
L 3731 3283 
z
M 5011 3462 
L 5011 275 
C 5011 192 4979 166 4877 166 
C 4774 160 4435 160 4109 173 
C 4224 -26 4346 -346 4384 -550 
C 4851 -557 5197 -538 5446 -422 
C 5696 -301 5766 -109 5766 269 
L 5766 3462 
L 5011 3462 
z
M 4461 5459 
C 4333 5158 4128 4781 3936 4486 
L 2150 4486 
L 2502 4608 
C 2394 4851 2131 5197 1901 5446 
L 1171 5190 
C 1350 4979 1542 4704 1658 4486 
L 288 4486 
L 288 3789 
L 6112 3789 
L 6112 4486 
L 4813 4486 
C 4966 4710 5139 4960 5293 5210 
L 4461 5459 
z
M 2445 1741 
L 2445 1325 
L 1363 1325 
L 1363 1741 
L 2445 1741 
z
M 2445 2310 
L 1363 2310 
L 1363 2707 
L 2445 2707 
L 2445 2310 
z
M 640 3354 
L 640 -538 
L 1363 -538 
L 1363 762 
L 2445 762 
L 2445 192 
C 2445 115 2419 90 2336 90 
C 2253 83 1990 83 1760 96 
C 1856 -77 1965 -365 2003 -557 
C 2400 -557 2688 -544 2906 -435 
C 3117 -326 3181 -141 3181 179 
L 3181 3354 
L 640 3354 
z
" transform="scale(0.015625)"/>
      <path id="NotoSansCJKjp-Bold-503c" d="M 3744 5427 
C 3731 5248 3718 5056 3693 4851 
L 2144 4851 
L 2144 4198 
L 3603 4198 
L 3526 3757 
L 2419 3757 
L 2419 192 
L 1862 192 
L 1862 -454 
L 6195 -454 
L 6195 192 
L 5702 192 
L 5702 3757 
L 4224 3757 
L 4333 4198 
L 6048 4198 
L 6048 4851 
L 4461 4851 
L 4557 5402 
L 3744 5427 
z
M 3091 192 
L 3091 557 
L 4998 557 
L 4998 192 
L 3091 192 
z
M 3091 2317 
L 4998 2317 
L 4998 1958 
L 3091 1958 
L 3091 2317 
z
M 3091 2842 
L 3091 3194 
L 4998 3194 
L 4998 2842 
L 3091 2842 
z
M 3091 1440 
L 4998 1440 
L 4998 1082 
L 3091 1082 
L 3091 1440 
z
M 1510 5421 
C 1203 4506 678 3597 128 3014 
C 256 2822 461 2400 531 2214 
C 653 2349 768 2496 883 2650 
L 883 -570 
L 1594 -570 
L 1594 3789 
C 1837 4243 2048 4723 2221 5190 
L 1510 5421 
z
" transform="scale(0.015625)"/>
     </defs>
     <use xlink:href="#NotoSansCJKjp-Bold-31"/>
     <use xlink:href="#NotoSansCJKjp-Bold-2e" transform="translate(58.999985 0)"/>
     <use xlink:href="#NotoSansCJKjp-Bold-20" transform="translate(91.499969 0)"/>
     <use xlink:href="#NotoSansCJKjp-Bold-8bfb" transform="translate(114.199966 0)"/>
     <use xlink:href="#NotoSansCJKjp-Bold-53d6" transform="translate(214.199951 0)"/>
     <use xlink:href="#NotoSansCJKjp-Bold-20" transform="translate(314.199936 0)"/>
     <use xlink:href="#NotoSansCJKjp-Bold-78" transform="translate(336.899933 0)"/>
     <use xlink:href="#NotoSansCJKjp-Bold-20" transform="translate(393.09993 0)"/>
     <use xlink:href="#NotoSansCJKjp-Bold-7684" transform="translate(415.799927 0)"/>
     <use xlink:href="#NotoSansCJKjp-Bold-5f53" transform="translate(515.799911 0)"/>
     <use xlink:href="#NotoSansCJKjp-Bold-524d" transform="translate(615.799896 0)"/>
     <use xlink:href="#NotoSansCJKjp-Bold-503c" transform="translate(715.799881 0)"/>
    </g>
   </g>
   <g id="text_5">
    <!-- 2. 执行 out-of-place -->
    <g style="fill: #4caf50" transform="translate(262.354375 180.0804) scale(0.08 -0.08)">
     <defs>
      <path id="NotoSansCJKjp-Bold-32" d="M 275 0 
L 3450 0 
L 3450 794 
L 2426 794 
C 2202 794 1888 768 1645 736 
C 2509 1587 3226 2509 3226 3366 
C 3226 4250 2630 4826 1734 4826 
C 1088 4826 666 4576 224 4102 
L 749 3597 
C 986 3859 1267 4083 1613 4083 
C 2067 4083 2323 3789 2323 3322 
C 2323 2586 1568 1696 275 544 
L 275 0 
z
" transform="scale(0.015625)"/>
      <path id="NotoSansCJKjp-Bold-6267" d="M 3206 5440 
C 3219 4992 3226 4570 3219 4166 
L 2381 4166 
L 2381 3475 
L 3200 3475 
C 3187 3181 3168 2899 3130 2630 
L 2682 2880 
L 2304 2413 
L 2240 2771 
L 1690 2598 
L 1690 3494 
L 2259 3494 
L 2259 4205 
L 1690 4205 
L 1690 5440 
L 954 5440 
L 954 4205 
L 269 4205 
L 269 3494 
L 954 3494 
L 954 2374 
C 659 2291 390 2214 173 2163 
L 346 1427 
L 954 1626 
L 954 288 
C 954 198 928 173 851 173 
C 774 173 544 173 320 186 
C 410 -32 499 -352 525 -557 
C 941 -557 1222 -525 1421 -403 
C 1626 -282 1690 -77 1690 288 
L 1690 1862 
L 2362 2086 
L 2323 2310 
L 2995 1901 
C 2797 1088 2426 461 1766 13 
C 1939 -134 2227 -467 2310 -614 
C 3002 -77 3405 614 3648 1478 
C 3885 1318 4096 1165 4250 1037 
L 4576 1472 
C 4608 179 4787 -582 5453 -582 
C 5965 -582 6182 -326 6259 608 
C 6080 666 5792 819 5645 960 
C 5626 384 5574 141 5491 141 
C 5235 141 5267 1696 5376 4166 
L 3955 4166 
C 3962 4570 3962 4998 3955 5446 
L 3206 5440 
z
M 4595 3475 
C 4582 2835 4570 2259 4570 1754 
C 4365 1901 4096 2074 3808 2240 
C 3866 2624 3904 3034 3930 3475 
L 4595 3475 
z
" transform="scale(0.015625)"/>
      <path id="NotoSansCJKjp-Bold-884c" d="M 2861 5075 
L 2861 4339 
L 5984 4339 
L 5984 5075 
L 2861 5075 
z
M 1626 5440 
C 1318 4992 698 4410 166 4070 
C 301 3917 499 3610 595 3437 
C 1210 3866 1901 4525 2368 5133 
L 1626 5440 
z
M 2586 3296 
L 2586 2566 
L 4480 2566 
L 4480 333 
C 4480 237 4442 211 4326 211 
C 4211 205 3782 205 3418 224 
C 3520 0 3622 -333 3654 -557 
C 4224 -557 4634 -544 4909 -429 
C 5190 -314 5267 -96 5267 314 
L 5267 2566 
L 6150 2566 
L 6150 3296 
L 2586 3296 
z
M 1869 4045 
C 1453 3315 749 2573 96 2118 
C 250 1958 512 1613 621 1453 
C 794 1594 966 1754 1146 1926 
L 1146 -582 
L 1914 -582 
L 1914 2784 
C 2170 3104 2406 3437 2598 3763 
L 1869 4045 
z
" transform="scale(0.015625)"/>
      <path id="NotoSansCJKjp-Bold-66" d="M 179 2842 
L 666 2842 
L 666 0 
L 1600 0 
L 1600 2842 
L 2285 2842 
L 2285 3584 
L 1600 3584 
L 1600 3891 
C 1600 4288 1760 4454 2035 4454 
C 2163 4454 2298 4429 2419 4371 
L 2592 5075 
C 2432 5139 2189 5197 1907 5197 
C 1011 5197 666 4614 666 3872 
L 666 3578 
L 179 3539 
L 179 2842 
z
" transform="scale(0.015625)"/>
     </defs>
     <use xlink:href="#NotoSansCJKjp-Bold-32"/>
     <use xlink:href="#NotoSansCJKjp-Bold-2e" transform="translate(58.999985 0)"/>
     <use xlink:href="#NotoSansCJKjp-Bold-20" transform="translate(91.499969 0)"/>
     <use xlink:href="#NotoSansCJKjp-Bold-6267" transform="translate(114.199966 0)"/>
     <use xlink:href="#NotoSansCJKjp-Bold-884c" transform="translate(214.199951 0)"/>
     <use xlink:href="#NotoSansCJKjp-Bold-20" transform="translate(314.199936 0)"/>
     <use xlink:href="#NotoSansCJKjp-Bold-6f" transform="translate(336.899933 0)"/>
     <use xlink:href="#NotoSansCJKjp-Bold-75" transform="translate(399.499924 0)"/>
     <use xlink:href="#NotoSansCJKjp-Bold-74" transform="translate(463.199921 0)"/>
     <use xlink:href="#NotoSansCJKjp-Bold-2d" transform="translate(505.299911 0)"/>
     <use xlink:href="#NotoSansCJKjp-Bold-6f" transform="translate(542.299896 0)"/>
     <use xlink:href="#NotoSansCJKjp-Bold-66" transform="translate(604.899887 0)"/>
     <use xlink:href="#NotoSansCJKjp-Bold-2d" transform="translate(642.099884 0)"/>
     <use xlink:href="#NotoSansCJKjp-Bold-70" transform="translate(679.099869 0)"/>
     <use xlink:href="#NotoSansCJKjp-Bold-6c" transform="translate(743.499863 0)"/>
     <use xlink:href="#NotoSansCJKjp-Bold-61" transform="translate(774.999847 0)"/>
     <use xlink:href="#NotoSansCJKjp-Bold-63" transform="translate(834.099838 0)"/>
     <use xlink:href="#NotoSansCJKjp-Bold-65" transform="translate(886.799835 0)"/>
    </g>
    <!-- torch.add(x, 1) -->
    <g style="fill: #4caf50" transform="translate(270.894375 189.7879) scale(0.08 -0.08)">
     <defs>
      <path id="NotoSansCJKjp-Bold-68" d="M 506 0 
L 1446 0 
L 1446 2464 
C 1709 2726 1901 2867 2189 2867 
C 2541 2867 2694 2675 2694 2118 
L 2694 0 
L 3635 0 
L 3635 2234 
C 3635 3136 3302 3674 2528 3674 
C 2042 3674 1683 3418 1402 3149 
L 1446 3821 
L 1446 5107 
L 506 5107 
L 506 0 
z
" transform="scale(0.015625)"/>
      <path id="NotoSansCJKjp-Bold-2c" d="M 538 -1370 
C 1312 -1107 1747 -538 1747 211 
C 1747 794 1504 1139 1075 1139 
C 736 1139 461 922 461 582 
C 461 224 742 26 1050 26 
L 1114 32 
C 1107 -339 832 -666 339 -858 
L 538 -1370 
z
" transform="scale(0.015625)"/>
     </defs>
     <use xlink:href="#NotoSansCJKjp-Bold-74"/>
     <use xlink:href="#NotoSansCJKjp-Bold-6f" transform="translate(42.099991 0)"/>
     <use xlink:href="#NotoSansCJKjp-Bold-72" transform="translate(104.699982 0)"/>
     <use xlink:href="#NotoSansCJKjp-Bold-63" transform="translate(148.299973 0)"/>
     <use xlink:href="#NotoSansCJKjp-Bold-68" transform="translate(200.999969 0)"/>
     <use xlink:href="#NotoSansCJKjp-Bold-2e" transform="translate(264.999954 0)"/>
     <use xlink:href="#NotoSansCJKjp-Bold-61" transform="translate(297.499939 0)"/>
     <use xlink:href="#NotoSansCJKjp-Bold-64" transform="translate(356.59993 0)"/>
     <use xlink:href="#NotoSansCJKjp-Bold-64" transform="translate(420.999924 0)"/>
     <use xlink:href="#NotoSansCJKjp-Bold-28" transform="translate(485.399918 0)"/>
     <use xlink:href="#NotoSansCJKjp-Bold-78" transform="translate(523.199905 0)"/>
     <use xlink:href="#NotoSansCJKjp-Bold-2c" transform="translate(579.399902 0)"/>
     <use xlink:href="#NotoSansCJKjp-Bold-20" transform="translate(611.899887 0)"/>
     <use xlink:href="#NotoSansCJKjp-Bold-31" transform="translate(634.599884 0)"/>
     <use xlink:href="#NotoSansCJKjp-Bold-29" transform="translate(693.599869 0)"/>
    </g>
   </g>
   <g id="text_6">
    <!-- 3. 将 x 的内部存储 -->
    <g style="fill: #4caf50" transform="translate(72.2175 242.124825) scale(0.08 -0.08)">
     <defs>
      <path id="NotoSansCJKjp-Bold-33" d="M 1747 -90 
C 2656 -90 3418 410 3418 1280 
C 3418 1907 3008 2304 2477 2451 
L 2477 2483 
C 2976 2682 3264 3053 3264 3565 
C 3264 4378 2643 4826 1728 4826 
C 1171 4826 717 4602 307 4250 
L 794 3667 
C 1069 3930 1344 4083 1683 4083 
C 2086 4083 2317 3866 2317 3494 
C 2317 3066 2035 2771 1171 2771 
L 1171 2093 
C 2195 2093 2470 1805 2470 1338 
C 2470 915 2144 678 1664 678 
C 1229 678 890 890 608 1165 
L 166 570 
C 499 192 1005 -90 1747 -90 
z
" transform="scale(0.015625)"/>
      <path id="NotoSansCJKjp-Bold-5c06" d="M 5363 5440 
C 4589 5210 3322 5024 2189 4915 
C 2272 4762 2368 4486 2394 4307 
C 3552 4397 4902 4570 5882 4851 
L 5363 5440 
z
M 2310 3955 
C 2509 3584 2707 3098 2765 2790 
L 3418 3046 
C 3347 3360 3130 3821 2925 4179 
L 2310 3955 
z
M 3533 4218 
C 3674 3846 3795 3373 3814 3078 
L 4518 3264 
C 4493 3565 4346 4032 4198 4384 
L 3533 4218 
z
M 2611 1331 
C 2899 986 3232 506 3354 192 
L 4026 563 
C 3878 877 3533 1331 3232 1658 
L 2611 1331 
z
M 5389 4461 
C 5158 3955 4723 3302 4397 2899 
L 4608 2790 
L 4608 2406 
L 2214 2406 
L 2214 1702 
L 4608 1702 
L 4608 275 
C 4608 192 4576 173 4474 166 
C 4365 160 4000 160 3674 179 
C 3776 -32 3878 -358 3910 -570 
C 4410 -570 4774 -563 5030 -442 
C 5299 -333 5370 -122 5370 262 
L 5370 1702 
L 6208 1702 
L 6208 2406 
L 5370 2406 
L 5370 2810 
L 5184 2810 
C 5485 3187 5824 3667 6106 4128 
L 5389 4461 
z
M 173 4390 
C 397 3936 627 3341 704 2963 
L 1267 3226 
L 1267 2003 
C 832 1734 410 1485 122 1331 
L 467 531 
C 723 717 998 928 1267 1139 
L 1267 -570 
L 2016 -570 
L 2016 5440 
L 1267 5440 
L 1267 3648 
C 1146 3974 966 4358 800 4666 
L 173 4390 
z
" transform="scale(0.015625)"/>
      <path id="NotoSansCJKjp-Bold-5b58" d="M 3866 2291 
L 3866 1760 
L 2234 1760 
L 2234 1043 
L 3866 1043 
L 3866 262 
C 3866 179 3834 160 3725 154 
C 3622 147 3245 147 2925 166 
C 3014 -45 3110 -352 3136 -576 
C 3654 -576 4032 -570 4301 -454 
C 4576 -346 4640 -141 4640 243 
L 4640 1043 
L 6157 1043 
L 6157 1760 
L 4640 1760 
L 4640 1926 
C 5056 2240 5491 2662 5811 3034 
L 5331 3411 
L 5171 3373 
L 2726 3373 
L 2726 2682 
L 4538 2682 
C 4403 2541 4256 2406 4109 2291 
L 3866 2291 
z
M 2355 5440 
C 2285 5165 2195 4883 2086 4602 
L 352 4602 
L 352 3866 
L 1760 3866 
C 1370 3098 826 2394 128 1939 
C 256 1747 435 1402 512 1184 
C 717 1318 902 1472 1082 1632 
L 1082 -563 
L 1856 -563 
L 1856 2502 
C 2170 2925 2432 3386 2650 3866 
L 6061 3866 
L 6061 4602 
L 2957 4602 
C 3034 4819 3110 5030 3174 5248 
L 2355 5440 
z
" transform="scale(0.015625)"/>
      <path id="NotoSansCJKjp-Bold-50a8" d="M 1773 4736 
C 2054 4448 2381 4045 2509 3776 
L 3053 4160 
C 2906 4422 2573 4806 2278 5075 
L 1773 4736 
z
M 2970 3597 
L 2970 2906 
L 4026 2906 
C 3667 2534 3264 2221 2822 1971 
C 2963 1837 3213 1542 3302 1389 
L 3584 1581 
L 3584 -557 
L 4230 -557 
L 4230 -294 
L 5280 -294 
L 5280 -531 
L 5958 -531 
L 5958 2342 
L 4454 2342 
C 4621 2522 4787 2707 4941 2906 
L 6195 2906 
L 6195 3597 
L 5421 3597 
C 5715 4077 5965 4595 6170 5152 
L 5491 5331 
C 5389 5037 5267 4755 5133 4480 
L 5133 4813 
L 4544 4813 
L 4544 5440 
L 3853 5440 
L 3853 4813 
L 3181 4813 
L 3181 4173 
L 3853 4173 
L 3853 3597 
L 2970 3597 
z
M 4544 4173 
L 4966 4173 
C 4851 3974 4730 3782 4602 3597 
L 4544 3597 
L 4544 4173 
z
M 4230 755 
L 5280 755 
L 5280 320 
L 4230 320 
L 4230 755 
z
M 4230 1299 
L 4230 1728 
L 5280 1728 
L 5280 1299 
L 4230 1299 
z
M 2176 -352 
C 2285 -230 2470 -90 3430 480 
C 3373 621 3290 883 3251 1075 
L 2765 806 
L 2765 3450 
L 1574 3450 
L 1574 2714 
L 2118 2714 
L 2118 838 
C 2118 550 1946 333 1824 250 
C 1939 109 2118 -186 2176 -352 
z
M 1184 5472 
C 947 4544 550 3610 96 2989 
C 205 2810 384 2406 435 2234 
C 538 2368 640 2522 736 2682 
L 736 -557 
L 1395 -557 
L 1395 4013 
C 1568 4435 1715 4870 1830 5293 
L 1184 5472 
z
" transform="scale(0.015625)"/>
     </defs>
     <use xlink:href="#NotoSansCJKjp-Bold-33"/>
     <use xlink:href="#NotoSansCJKjp-Bold-2e" transform="translate(58.999985 0)"/>
     <use xlink:href="#NotoSansCJKjp-Bold-20" transform="translate(91.499969 0)"/>
     <use xlink:href="#NotoSansCJKjp-Bold-5c06" transform="translate(114.199966 0)"/>
     <use xlink:href="#NotoSansCJKjp-Bold-20" transform="translate(214.199951 0)"/>
     <use xlink:href="#NotoSansCJKjp-Bold-78" transform="translate(236.899948 0)"/>
     <use xlink:href="#NotoSansCJKjp-Bold-20" transform="translate(293.099945 0)"/>
     <use xlink:href="#NotoSansCJKjp-Bold-7684" transform="translate(315.799942 0)"/>
     <use xlink:href="#NotoSansCJKjp-Bold-5185" transform="translate(415.799927 0)"/>
     <use xlink:href="#NotoSansCJKjp-Bold-90e8" transform="translate(515.799911 0)"/>
     <use xlink:href="#NotoSansCJKjp-Bold-5b58" transform="translate(615.799896 0)"/>
     <use xlink:href="#NotoSansCJKjp-Bold-50a8" transform="translate(715.799881 0)"/>
    </g>
    <!-- 替换为计算结果 -->
    <g style="fill: #4caf50" transform="translate(76.85 251.505325) scale(0.08 -0.08)">
     <defs>
      <path id="NotoSansCJKjp-Bold-66ff" d="M 1786 666 
L 4570 666 
L 4570 275 
L 1786 275 
L 1786 666 
z
M 1786 1222 
L 1786 1587 
L 4570 1587 
L 4570 1222 
L 1786 1222 
z
M 4186 5440 
L 4186 4941 
L 3302 4941 
L 3302 4352 
L 4186 4352 
L 4186 4333 
C 4186 4224 4179 4109 4160 3987 
L 3213 3987 
L 3213 3379 
L 3949 3379 
C 3776 3098 3475 2829 2963 2630 
C 3091 2534 3245 2368 3354 2227 
L 1139 2227 
C 1402 2432 1600 2650 1747 2880 
C 2022 2669 2310 2432 2470 2272 
L 2963 2784 
C 2778 2938 2451 3174 2163 3379 
L 3014 3379 
L 3014 3987 
L 2138 3987 
C 2150 4115 2163 4237 2163 4352 
L 2938 4352 
L 2938 4941 
L 2163 4941 
L 2163 5440 
L 1434 5440 
L 1434 4941 
L 518 4941 
L 518 4352 
L 1434 4352 
C 1427 4237 1421 4115 1402 3987 
L 307 3987 
L 307 3379 
L 1216 3379 
C 1037 3040 730 2707 179 2445 
C 352 2323 582 2080 685 1926 
C 813 1997 928 2074 1037 2150 
L 1037 -570 
L 1786 -570 
L 1786 -365 
L 4570 -365 
L 4570 -544 
L 5357 -544 
L 5357 2227 
L 3699 2227 
C 4147 2483 4435 2784 4621 3110 
C 4909 2618 5299 2208 5786 1965 
C 5894 2144 6106 2413 6266 2541 
C 5837 2714 5472 3014 5216 3379 
L 6099 3379 
L 6099 3987 
L 4902 3987 
C 4915 4102 4922 4218 4922 4326 
L 4922 4352 
L 5888 4352 
L 5888 4941 
L 4922 4941 
L 4922 5440 
L 4186 5440 
z
" transform="scale(0.015625)"/>
      <path id="NotoSansCJKjp-Bold-6362" d="M 2163 1914 
L 2163 1267 
L 3533 1267 
C 3270 806 2765 339 1805 -51 
C 1984 -179 2221 -429 2330 -582 
C 3245 -160 3789 339 4115 851 
C 4525 218 5114 -275 5830 -538 
C 5933 -358 6150 -83 6304 64 
C 5574 275 4960 717 4595 1267 
L 6176 1267 
L 6176 1914 
L 5805 1914 
L 5805 3795 
L 5152 3795 
C 5370 4058 5568 4346 5709 4589 
L 5197 4922 
L 5082 4890 
L 3923 4890 
C 3994 5024 4058 5152 4122 5286 
L 3366 5427 
C 3149 4922 2752 4320 2170 3859 
L 2170 4224 
L 1638 4224 
L 1638 5434 
L 896 5434 
L 896 4224 
L 243 4224 
L 243 3520 
L 896 3520 
L 896 2368 
C 621 2298 365 2234 154 2189 
L 320 1453 
L 896 1613 
L 896 320 
C 896 243 870 218 794 218 
C 723 211 506 211 288 218 
C 378 6 474 -320 499 -525 
C 896 -525 1178 -499 1376 -371 
C 1574 -250 1638 -45 1638 320 
L 1638 1830 
L 2272 2016 
L 2170 2707 
L 1638 2560 
L 1638 3520 
L 2170 3520 
L 2170 3782 
C 2298 3674 2458 3488 2560 3341 
L 2560 1914 
L 2163 1914 
z
M 3520 4250 
L 4627 4250 
C 4531 4096 4416 3936 4301 3795 
L 3155 3795 
C 3290 3942 3411 4096 3520 4250 
z
M 4646 3219 
L 5030 3219 
L 5030 1914 
L 4525 1914 
C 4557 2118 4570 2317 4570 2496 
L 4570 3219 
L 4646 3219 
z
M 3290 1914 
L 3290 3219 
L 3814 3219 
L 3814 2502 
C 3814 2323 3808 2125 3770 1914 
L 3290 1914 
z
" transform="scale(0.015625)"/>
      <path id="NotoSansCJKjp-Bold-4e3a" d="M 870 5005 
C 1094 4698 1363 4275 1466 4019 
L 2182 4320 
C 2061 4589 1779 4992 1542 5280 
L 870 5005 
z
M 3085 2266 
C 3366 1888 3686 1376 3821 1050 
L 4512 1395 
C 4365 1722 4019 2208 3731 2566 
L 3085 2266 
z
M 2464 5427 
L 2464 4557 
C 2464 4365 2458 4160 2445 3942 
L 474 3942 
L 474 3168 
L 2355 3168 
C 2170 2118 1658 954 314 115 
C 506 -6 800 -282 928 -454 
C 2445 544 2976 1939 3155 3168 
L 5024 3168 
C 4954 1338 4870 544 4698 365 
C 4621 282 4550 262 4422 262 
C 4250 262 3878 262 3482 294 
C 3629 70 3738 -275 3757 -512 
C 4141 -525 4538 -531 4781 -493 
C 5050 -454 5235 -378 5421 -141 
C 5677 179 5754 1107 5843 3578 
C 5850 3680 5850 3942 5850 3942 
L 3232 3942 
C 3238 4160 3245 4358 3245 4550 
L 3245 5427 
L 2464 5427 
z
" transform="scale(0.015625)"/>
      <path id="NotoSansCJKjp-Bold-8ba1" d="M 736 4877 
C 1101 4576 1574 4147 1792 3866 
L 2310 4422 
C 2080 4698 1581 5101 1229 5376 
L 736 4877 
z
M 243 3462 
L 243 2701 
L 1178 2701 
L 1178 768 
C 1178 480 973 269 826 173 
C 954 6 1146 -346 1203 -544 
C 1325 -384 1562 -205 2854 736 
C 2778 896 2656 1222 2611 1446 
L 1958 986 
L 1958 3462 
L 243 3462 
z
M 3885 5408 
L 3885 3418 
L 2349 3418 
L 2349 2618 
L 3885 2618 
L 3885 -576 
L 4710 -576 
L 4710 2618 
L 6189 2618 
L 6189 3418 
L 4710 3418 
L 4710 5408 
L 3885 5408 
z
" transform="scale(0.015625)"/>
      <path id="NotoSansCJKjp-Bold-7b97" d="M 1824 2829 
L 4678 2829 
L 4678 2592 
L 1824 2592 
L 1824 2829 
z
M 1824 2157 
L 4678 2157 
L 4678 1920 
L 1824 1920 
L 1824 2157 
z
M 1824 3482 
L 4678 3482 
L 4678 3258 
L 1824 3258 
L 1824 3482 
z
M 3725 5491 
C 3597 5139 3373 4787 3110 4512 
L 3110 5018 
L 1690 5018 
L 1830 5293 
L 1120 5491 
C 909 5005 531 4518 128 4211 
C 307 4115 608 3910 749 3789 
C 934 3955 1126 4173 1306 4416 
L 1440 4416 
C 1536 4262 1638 4083 1696 3942 
L 1050 3942 
L 1050 1466 
L 1837 1466 
L 1837 1082 
L 307 1082 
L 307 467 
L 1587 467 
C 1382 282 1018 109 390 -13 
C 557 -154 768 -410 870 -576 
C 1882 -314 2336 58 2515 467 
L 3955 467 
L 3955 -563 
L 4755 -563 
L 4755 467 
L 6106 467 
L 6106 1082 
L 4755 1082 
L 4755 1466 
L 5485 1466 
L 5485 3942 
L 4915 3942 
L 5350 4134 
C 5299 4218 5229 4314 5139 4416 
L 6086 4416 
L 6086 5018 
L 4320 5018 
C 4371 5114 4416 5216 4454 5312 
L 3725 5491 
z
M 3955 1082 
L 2611 1082 
L 2611 1466 
L 3955 1466 
L 3955 1082 
z
M 3354 3942 
L 1965 3942 
L 2394 4096 
C 2362 4186 2298 4301 2227 4416 
L 3021 4416 
C 2950 4346 2880 4288 2803 4230 
C 2950 4166 3187 4045 3354 3942 
z
M 3552 3942 
C 3686 4077 3827 4237 3955 4416 
L 4294 4416 
C 4422 4262 4557 4090 4646 3942 
L 3552 3942 
z
" transform="scale(0.015625)"/>
      <path id="NotoSansCJKjp-Bold-7ed3" d="M 166 467 
L 288 -320 
C 973 -173 1869 0 2707 186 
L 2643 902 
C 1747 736 800 563 166 467 
z
M 365 2682 
C 474 2726 634 2771 1210 2835 
C 992 2547 806 2323 704 2227 
C 486 1997 346 1862 166 1824 
C 256 1613 384 1242 422 1088 
C 608 1184 896 1261 2637 1568 
C 2611 1734 2592 2029 2598 2234 
L 1491 2067 
C 1946 2573 2387 3162 2746 3750 
L 2067 4192 
C 1952 3968 1818 3738 1683 3520 
L 1139 3482 
C 1498 3962 1843 4550 2099 5120 
L 1306 5446 
C 1069 4730 640 3981 499 3789 
C 358 3597 243 3469 102 3430 
C 198 3219 326 2842 365 2682 
z
M 3981 5440 
L 3981 4653 
L 2630 4653 
L 2630 3917 
L 3981 3917 
L 3981 3213 
L 2803 3213 
L 2803 2483 
L 5965 2483 
L 5965 3213 
L 4781 3213 
L 4781 3917 
L 6118 3917 
L 6118 4653 
L 4781 4653 
L 4781 5440 
L 3981 5440 
z
M 2957 2010 
L 2957 -570 
L 3706 -570 
L 3706 -294 
L 5062 -294 
L 5062 -544 
L 5850 -544 
L 5850 2010 
L 2957 2010 
z
M 3706 397 
L 3706 1318 
L 5062 1318 
L 5062 397 
L 3706 397 
z
" transform="scale(0.015625)"/>
      <path id="NotoSansCJKjp-Bold-679c" d="M 973 5139 
L 973 2451 
L 2810 2451 
L 2810 2067 
L 346 2067 
L 346 1370 
L 2246 1370 
C 1702 883 909 461 147 237 
C 320 77 550 -218 672 -403 
C 1440 -122 2221 378 2810 966 
L 2810 -576 
L 3622 -576 
L 3622 998 
C 4218 422 4998 -77 5741 -365 
C 5856 -166 6086 128 6259 288 
C 5530 506 4749 909 4186 1370 
L 6074 1370 
L 6074 2067 
L 3622 2067 
L 3622 2451 
L 5478 2451 
L 5478 5139 
L 973 5139 
z
M 1773 3501 
L 2810 3501 
L 2810 3091 
L 1773 3091 
L 1773 3501 
z
M 3622 3501 
L 4640 3501 
L 4640 3091 
L 3622 3091 
L 3622 3501 
z
M 1773 4499 
L 2810 4499 
L 2810 4096 
L 1773 4096 
L 1773 4499 
z
M 3622 4499 
L 4640 4499 
L 4640 4096 
L 3622 4096 
L 3622 4499 
z
" transform="scale(0.015625)"/>
     </defs>
     <use xlink:href="#NotoSansCJKjp-Bold-66ff"/>
     <use xlink:href="#NotoSansCJKjp-Bold-6362" transform="translate(99.999985 0)"/>
     <use xlink:href="#NotoSansCJKjp-Bold-4e3a" transform="translate(199.999969 0)"/>
     <use xlink:href="#NotoSansCJKjp-Bold-8ba1" transform="translate(299.999954 0)"/>
     <use xlink:href="#NotoSansCJKjp-Bold-7b97" transform="translate(399.999939 0)"/>
     <use xlink:href="#NotoSansCJKjp-Bold-7ed3" transform="translate(499.999924 0)"/>
     <use xlink:href="#NotoSansCJKjp-Bold-679c" transform="translate(599.999908 0)"/>
    </g>
   </g>
   <g id="text_7">
    <!-- 4. 递增版本号 -->
    <g style="fill: #4caf50" transform="translate(272.510859 247.106559) scale(0.09 -0.09)">
     <defs>
      <path id="NotoSansCJKjp-Bold-34" d="M 2157 0 
L 3034 0 
L 3034 1229 
L 3597 1229 
L 3597 1946 
L 3034 1946 
L 3034 4742 
L 1901 4742 
L 134 1869 
L 134 1229 
L 2157 1229 
L 2157 0 
z
M 2157 1946 
L 1050 1946 
L 1786 3123 
C 1920 3379 2048 3642 2163 3898 
L 2195 3898 
C 2176 3616 2157 3187 2157 2912 
L 2157 1946 
z
" transform="scale(0.015625)"/>
      <path id="NotoSansCJKjp-Bold-9012" d="M 384 4890 
C 666 4486 986 3942 1114 3597 
L 1830 3962 
C 1683 4301 1338 4819 1056 5203 
L 384 4890 
z
M 4710 5459 
C 4608 5222 4422 4896 4256 4659 
L 3392 4659 
L 3661 4774 
C 3590 4979 3411 5280 3238 5491 
L 2618 5235 
C 2739 5062 2861 4838 2938 4659 
L 2106 4659 
L 2106 4038 
L 3616 4038 
L 3616 3642 
L 2330 3642 
C 2278 3117 2176 2477 2080 2042 
L 3238 2042 
C 2886 1696 2387 1382 1869 1178 
C 2010 1062 2227 813 2330 666 
C 2803 883 3251 1171 3616 1523 
L 3616 493 
L 4378 493 
L 4378 2042 
L 5350 2042 
C 5325 1734 5299 1600 5248 1549 
C 5203 1498 5146 1485 5062 1485 
C 4966 1485 4762 1491 4538 1510 
C 4640 1344 4710 1088 4730 890 
C 4998 883 5248 883 5402 902 
C 5574 928 5702 973 5818 1107 
C 5952 1254 6003 1626 6035 2400 
C 6042 2483 6048 2643 6048 2643 
L 4378 2643 
L 4378 3027 
L 5779 3027 
L 5779 4659 
L 5043 4659 
C 5184 4845 5331 5056 5466 5274 
L 4710 5459 
z
M 2861 2643 
L 2925 3027 
L 3616 3027 
L 3616 2643 
L 2861 2643 
z
M 4378 4038 
L 5133 4038 
L 5133 3642 
L 4378 3642 
L 4378 4038 
z
M 1734 3059 
L 256 3059 
L 256 2310 
L 992 2310 
L 992 858 
C 742 736 454 512 179 211 
L 704 -563 
C 896 -198 1146 237 1318 237 
C 1466 237 1690 38 1984 -122 
C 2464 -378 3014 -448 3834 -448 
C 4499 -448 5574 -410 6035 -378 
C 6054 -160 6176 237 6266 448 
C 5606 352 4544 288 3866 288 
C 3142 288 2541 326 2106 576 
C 1952 653 1837 730 1734 787 
L 1734 3059 
z
" transform="scale(0.015625)"/>
      <path id="NotoSansCJKjp-Bold-589e" d="M 3046 3309 
C 3130 3110 3213 2842 3245 2669 
L 3686 2816 
C 3654 2970 3565 3232 3469 3424 
L 3046 3309 
z
M 4595 3430 
C 4557 3251 4467 2989 4397 2797 
L 4781 2682 
C 4877 2848 4986 3072 5107 3302 
L 4595 3430 
z
M 2861 5094 
C 2643 4634 2253 4186 1843 3891 
L 1850 3885 
L 1562 3885 
L 1562 5338 
L 819 5338 
L 819 3885 
L 230 3885 
L 230 3155 
L 819 3155 
L 819 1408 
C 557 1293 314 1197 115 1126 
L 371 358 
C 947 621 1658 954 2310 1280 
L 2118 1971 
L 1562 1722 
L 1562 3155 
L 2048 3155 
L 2048 3693 
C 2163 3571 2278 3437 2342 3354 
L 2381 3386 
L 2381 2042 
L 5811 2042 
L 5811 3450 
C 5920 3635 6138 3904 6285 4032 
C 5779 4314 5267 4813 4992 5306 
L 3437 5306 
L 3437 4928 
L 2861 5094 
z
M 2624 1818 
L 2624 -576 
L 3354 -576 
L 3354 -378 
L 4832 -378 
L 4832 -557 
L 5600 -557 
L 5600 1818 
L 2624 1818 
z
M 3354 192 
L 3354 480 
L 4832 480 
L 4832 192 
L 3354 192 
z
M 3354 986 
L 3354 1267 
L 4832 1267 
L 4832 986 
L 3354 986 
z
M 2976 3526 
L 3776 3526 
L 3776 2592 
L 2976 2592 
L 2976 3526 
z
M 4314 3526 
L 5184 3526 
L 5184 2592 
L 4314 2592 
L 4314 3526 
z
M 3027 4077 
C 3181 4275 3322 4486 3437 4698 
L 3437 4659 
L 4608 4659 
C 4749 4461 4909 4262 5082 4077 
L 3027 4077 
z
" transform="scale(0.015625)"/>
      <path id="NotoSansCJKjp-Bold-7248" d="M 576 5267 
L 576 2803 
C 576 1875 525 659 102 -115 
C 256 -218 506 -442 621 -582 
C 1011 19 1165 851 1222 1683 
L 1830 1683 
L 1830 -557 
L 2528 -557 
L 2528 -198 
C 2707 -269 3002 -442 3136 -557 
C 3546 250 3699 1389 3750 2374 
C 3910 1830 4109 1331 4358 890 
C 4090 538 3770 256 3418 58 
C 3584 -83 3808 -378 3904 -563 
C 4243 -346 4550 -83 4813 237 
C 5088 -96 5402 -371 5773 -582 
C 5888 -390 6125 -96 6298 45 
C 5894 243 5549 531 5261 877 
C 5651 1549 5920 2387 6061 3392 
L 5581 3539 
L 5453 3520 
L 3770 3520 
L 3770 4467 
L 6048 4467 
L 6048 5165 
L 3059 5165 
L 3059 3290 
C 3059 2285 3021 870 2528 -134 
L 2528 2355 
L 1248 2355 
L 1254 2797 
L 1254 3072 
L 2848 3072 
L 2848 3744 
L 2406 3744 
L 2406 5440 
L 1715 5440 
L 1715 3744 
L 1254 3744 
L 1254 5267 
L 576 5267 
z
M 5229 2822 
C 5126 2368 4973 1952 4787 1574 
C 4576 1952 4416 2374 4288 2822 
L 5229 2822 
z
" transform="scale(0.015625)"/>
      <path id="NotoSansCJKjp-Bold-672c" d="M 2790 5434 
L 2790 4192 
L 378 4192 
L 378 3411 
L 2336 3411 
C 1837 2419 1024 1498 122 1005 
C 301 851 550 557 685 365 
C 1043 589 1376 870 1690 1190 
L 1690 512 
L 2790 512 
L 2790 -576 
L 3603 -576 
L 3603 512 
L 4666 512 
L 4666 1248 
C 4986 909 5338 621 5715 390 
C 5850 608 6118 922 6310 1082 
C 5389 1568 4570 2451 4064 3411 
L 6035 3411 
L 6035 4192 
L 3603 4192 
L 3603 5434 
L 2790 5434 
z
M 2790 1293 
L 1786 1293 
C 2163 1702 2502 2176 2790 2694 
L 2790 1293 
z
M 3603 1293 
L 3603 2707 
C 3891 2182 4237 1709 4627 1293 
L 3603 1293 
z
" transform="scale(0.015625)"/>
      <path id="NotoSansCJKjp-Bold-53f7" d="M 1882 4544 
L 4525 4544 
L 4525 3853 
L 1882 3853 
L 1882 4544 
z
M 1126 5216 
L 1126 3187 
L 5331 3187 
L 5331 5216 
L 1126 5216 
z
M 307 2854 
L 307 2157 
L 1523 2157 
C 1376 1696 1203 1210 1062 877 
L 1894 749 
L 2016 1088 
L 4442 1088 
C 4352 570 4250 288 4122 192 
C 4038 134 3949 128 3802 128 
C 3616 128 3136 134 2707 179 
C 2854 -32 2963 -339 2976 -557 
C 3424 -576 3846 -576 4090 -563 
C 4390 -544 4595 -493 4794 -314 
C 5030 -96 5178 416 5312 1466 
C 5338 1568 5350 1786 5350 1786 
L 2253 1786 
L 2374 2157 
L 6074 2157 
L 6074 2854 
L 307 2854 
z
" transform="scale(0.015625)"/>
     </defs>
     <use xlink:href="#NotoSansCJKjp-Bold-34"/>
     <use xlink:href="#NotoSansCJKjp-Bold-2e" transform="translate(58.999985 0)"/>
     <use xlink:href="#NotoSansCJKjp-Bold-20" transform="translate(91.499969 0)"/>
     <use xlink:href="#NotoSansCJKjp-Bold-9012" transform="translate(114.199966 0)"/>
     <use xlink:href="#NotoSansCJKjp-Bold-589e" transform="translate(214.199951 0)"/>
     <use xlink:href="#NotoSansCJKjp-Bold-7248" transform="translate(314.199936 0)"/>
     <use xlink:href="#NotoSansCJKjp-Bold-672c" transform="translate(414.199921 0)"/>
     <use xlink:href="#NotoSansCJKjp-Bold-53f7" transform="translate(514.199905 0)"/>
    </g>
   </g>
   <g id="patch_9">
    <path d="M 202.5 84.598896 
Q 202.5 93.684276 202.5 101.092605 
" style="fill: none; stroke: #616161; stroke-width: 1.5; stroke-linecap: round"/>
    <path d="M 204.7 96.692605 
L 202.5 101.092605 
L 200.3 96.692605 
" style="fill: none; stroke: #616161; stroke-width: 1.5; stroke-linecap: round"/>
   </g>
   <g id="patch_10">
    <path d="M 104.85 137.818048 
Q 104.85 151.340868 104.85 163.186637 
" style="fill: none; stroke: #616161; stroke-width: 1.5; stroke-linecap: round"/>
    <path d="M 107.05 158.786637 
L 104.85 163.186637 
L 102.65 158.786637 
" style="fill: none; stroke: #616161; stroke-width: 1.5; stroke-linecap: round"/>
   </g>
   <g id="patch_11">
    <path d="M 300.15 137.818048 
Q 300.15 151.340868 300.15 163.186637 
" style="fill: none; stroke: #616161; stroke-width: 1.5; stroke-linecap: round"/>
    <path d="M 302.35 158.786637 
L 300.15 163.186637 
L 297.95 158.786637 
" style="fill: none; stroke: #616161; stroke-width: 1.5; stroke-linecap: round"/>
   </g>
   <g id="text_8">
    <!-- 并行 -->
    <g style="fill: #757575" transform="translate(165.12 184.374462) scale(0.07 -0.07)">
     <defs>
      <path id="NotoSansCJKjp-Regular-5e76" d="M 4538 5395 
C 4390 5043 4109 4544 3885 4237 
L 4301 4083 
C 4531 4371 4826 4826 5069 5229 
L 4538 5395 
z
M 4109 3597 
L 4109 2202 
L 2304 2202 
L 2304 2355 
L 2304 3597 
L 4109 3597 
z
M 333 2202 
L 333 1741 
L 1792 1741 
C 1696 1024 1376 326 333 -192 
C 442 -275 602 -448 666 -557 
C 1843 45 2189 883 2278 1741 
L 4109 1741 
L 4109 -512 
L 4595 -512 
L 4595 1741 
L 6074 1741 
L 6074 2202 
L 4595 2202 
L 4595 3597 
L 5875 3597 
L 5875 4058 
L 570 4058 
L 570 3597 
L 1824 3597 
L 1824 2368 
L 1824 2202 
L 333 2202 
z
M 1395 5203 
C 1664 4851 1952 4371 2054 4058 
L 2509 4262 
C 2387 4570 2093 5030 1818 5376 
L 1395 5203 
z
" transform="scale(0.015625)"/>
      <path id="NotoSansCJKjp-Regular-884c" d="M 2784 4992 
L 2784 4531 
L 5933 4531 
L 5933 4992 
L 2784 4992 
z
M 1709 5382 
C 1382 4915 762 4346 224 3981 
C 307 3891 442 3706 506 3597 
C 1082 4006 1741 4634 2170 5190 
L 1709 5382 
z
M 2502 3226 
L 2502 2765 
L 4659 2765 
L 4659 109 
C 4659 6 4614 -26 4493 -32 
C 4378 -38 3942 -38 3488 -19 
C 3558 -160 3629 -358 3648 -493 
C 4275 -493 4640 -493 4858 -422 
C 5069 -339 5146 -192 5146 102 
L 5146 2765 
L 6112 2765 
L 6112 3226 
L 2502 3226 
z
M 1965 4006 
C 1523 3277 819 2534 160 2061 
C 256 1965 429 1754 499 1658 
C 736 1850 986 2080 1229 2330 
L 1229 -531 
L 1702 -531 
L 1702 2854 
C 1971 3174 2214 3507 2419 3840 
L 1965 4006 
z
" transform="scale(0.015625)"/>
     </defs>
     <use xlink:href="#NotoSansCJKjp-Regular-5e76"/>
     <use xlink:href="#NotoSansCJKjp-Regular-884c" transform="translate(99.999985 0)"/>
    </g>
   </g>
   <g id="patch_12">
    <path d="M 182.799939 182.3904 
Q 202.500597 182.3904 221.08322 182.3904 
" style="fill: none; stroke: #757575; stroke-linecap: round"/>
    <path d="M 216.68322 180.1904 
L 221.08322 182.3904 
L 216.68322 184.5904 
" style="fill: none; stroke: #757575; stroke-linecap: round"/>
   </g>
   <g id="patch_13">
    <path d="M 104.85 199.910848 
Q 104.85 213.433668 104.85 225.279437 
" style="fill: none; stroke: #616161; stroke-width: 1.5; stroke-linecap: round"/>
    <path d="M 107.05 220.879437 
L 104.85 225.279437 
L 102.65 220.879437 
" style="fill: none; stroke: #616161; stroke-width: 1.5; stroke-linecap: round"/>
   </g>
   <g id="patch_14">
    <path d="M 300.15 199.910848 
Q 300.15 213.433668 300.15 225.279437 
" style="fill: none; stroke: #616161; stroke-width: 1.5; stroke-linecap: round"/>
    <path d="M 302.35 220.879437 
L 300.15 225.279437 
L 297.95 220.879437 
" style="fill: none; stroke: #616161; stroke-width: 1.5; stroke-linecap: round"/>
   </g>
   <g id="patch_15">
    <path d="M 106.773782 260.568109 
Q 142.826773 271.094918 177.269932 281.151685 
" style="fill: none; stroke: #616161; stroke-width: 1.5; stroke-linecap: round"/>
    <path d="M 173.662902 277.806638 
L 177.269932 281.151685 
L 172.429676 282.030281 
" style="fill: none; stroke: #616161; stroke-width: 1.5; stroke-linecap: round"/>
   </g>
   <g id="patch_16">
    <path d="M 298.226218 260.568109 
Q 262.173227 271.094918 227.730068 281.151685 
" style="fill: none; stroke: #616161; stroke-width: 1.5; stroke-linecap: round"/>
    <path d="M 232.570324 282.030281 
L 227.730068 281.151685 
L 231.337098 277.806638 
" style="fill: none; stroke: #616161; stroke-width: 1.5; stroke-linecap: round"/>
   </g>
   <g id="text_9">
    <!-- 从外部看: x 的值被更新了 -->
    <g style="fill: #9c27b0" transform="translate(162.806172 310.904691) scale(0.07 -0.07)">
     <defs>
      <path id="NotoSansCJKjp-Bold-4ece" d="M 3898 5171 
C 3859 3942 3859 1427 2317 83 
C 2592 -83 2854 -307 3034 -531 
C 3686 102 4077 941 4320 1811 
C 4576 890 4979 13 5638 -563 
C 5773 -326 6074 51 6253 218 
C 5229 973 4845 2547 4666 3898 
C 4704 4378 4717 4813 4730 5171 
L 3898 5171 
z
M 1498 5197 
C 1434 2912 1171 1005 160 -45 
C 371 -160 787 -448 928 -582 
C 1440 38 1773 864 1990 1843 
C 2272 1472 2522 1082 2662 794 
L 3226 1510 
C 3014 1901 2592 2445 2170 2899 
C 2266 3603 2317 4365 2355 5171 
L 1498 5197 
z
" transform="scale(0.015625)"/>
      <path id="NotoSansCJKjp-Bold-5916" d="M 1843 3776 
L 2784 3776 
C 2688 3270 2547 2816 2374 2406 
C 2118 2618 1773 2848 1459 3034 
C 1594 3270 1722 3514 1843 3776 
z
M 3808 3885 
L 3565 3795 
C 3603 3974 3635 4166 3667 4358 
L 3162 4531 
L 3027 4506 
L 2138 4506 
C 2227 4762 2304 5018 2374 5286 
L 1606 5440 
C 1325 4288 806 3213 96 2566 
C 282 2458 602 2202 736 2074 
C 851 2189 960 2317 1062 2451 
C 1408 2227 1773 1952 2022 1715 
C 1581 973 986 422 282 58 
C 474 -64 768 -352 896 -518 
C 2048 134 2938 1363 3424 3181 
C 3654 2816 3917 2464 4205 2144 
L 4205 -563 
L 5005 -563 
L 5005 1402 
C 5254 1203 5517 1030 5786 890 
C 5914 1094 6163 1402 6342 1555 
C 5869 1760 5414 2067 5005 2419 
L 5005 5421 
L 4205 5421 
L 4205 3270 
C 4051 3469 3917 3680 3808 3885 
z
" transform="scale(0.015625)"/>
      <path id="NotoSansCJKjp-Bold-770b" d="M 2355 1274 
L 4678 1274 
L 4678 992 
L 2355 992 
L 2355 1274 
z
M 2355 1754 
L 2355 2029 
L 4678 2029 
L 4678 1754 
L 2355 1754 
z
M 2355 512 
L 4678 512 
L 4678 224 
L 2355 224 
L 2355 512 
z
M 5235 5414 
C 4147 5235 2298 5158 723 5158 
C 794 5005 858 4755 870 4589 
C 1370 4582 1907 4589 2445 4608 
L 2362 4333 
L 794 4333 
L 794 3757 
L 2163 3757 
L 2042 3482 
L 346 3482 
L 346 2874 
L 1715 2874 
C 1331 2259 819 1728 147 1363 
C 294 1216 518 934 627 755 
C 1005 973 1338 1235 1626 1530 
L 1626 -589 
L 2355 -589 
L 2355 -358 
L 4678 -358 
L 4678 -589 
L 5446 -589 
L 5446 2605 
L 2445 2605 
L 2592 2874 
L 6054 2874 
L 6054 3482 
L 2880 3482 
L 2989 3757 
L 5702 3757 
L 5702 4333 
L 3187 4333 
L 3277 4640 
C 4154 4685 4998 4755 5677 4870 
L 5235 5414 
z
" transform="scale(0.015625)"/>
      <path id="NotoSansCJKjp-Bold-3a" d="M 1043 2342 
C 1376 2342 1626 2605 1626 2950 
C 1626 3302 1376 3565 1043 3565 
C 704 3565 454 3302 454 2950 
C 454 2605 704 2342 1043 2342 
z
M 1043 -90 
C 1376 -90 1626 179 1626 525 
C 1626 877 1376 1139 1043 1139 
C 704 1139 454 877 454 525 
C 454 179 704 -90 1043 -90 
z
" transform="scale(0.015625)"/>
      <path id="NotoSansCJKjp-Bold-66f4" d="M 941 4090 
L 941 1440 
L 1626 1440 
L 1037 1203 
C 1229 915 1453 678 1696 480 
C 1338 320 864 198 250 102 
C 416 -77 627 -403 717 -576 
C 1459 -429 2029 -224 2451 26 
C 3379 -384 4557 -480 5958 -506 
C 6003 -250 6144 77 6285 250 
C 4979 243 3917 269 3085 538 
C 3328 806 3475 1114 3558 1440 
L 5619 1440 
L 5619 4090 
L 3654 4090 
L 3654 4461 
L 6022 4461 
L 6022 5146 
L 384 5146 
L 384 4461 
L 2848 4461 
L 2848 4090 
L 941 4090 
z
M 1670 2477 
L 2848 2477 
L 2848 2278 
L 2842 2061 
L 1670 2061 
L 1670 2477 
z
M 3648 2061 
L 3654 2272 
L 3654 2477 
L 4858 2477 
L 4858 2061 
L 3648 2061 
z
M 1670 3469 
L 2848 3469 
L 2848 3053 
L 1670 3053 
L 1670 3469 
z
M 3654 3469 
L 4858 3469 
L 4858 3053 
L 3654 3053 
L 3654 3469 
z
M 2726 1440 
C 2650 1235 2534 1050 2349 877 
C 2118 1030 1914 1216 1728 1440 
L 2726 1440 
z
" transform="scale(0.015625)"/>
      <path id="NotoSansCJKjp-Bold-65b0" d="M 5555 5370 
C 5165 5158 4525 4954 3917 4806 
L 3469 4934 
L 3469 2701 
C 3469 1818 3392 723 2650 -64 
C 2829 -154 3104 -416 3200 -589 
C 4051 294 4192 1658 4198 2611 
L 4845 2611 
L 4845 -538 
L 5594 -538 
L 5594 2611 
L 6202 2611 
L 6202 3322 
L 4198 3322 
L 4198 4224 
C 4870 4358 5600 4557 6170 4813 
L 5555 5370 
z
M 659 4083 
C 749 3866 832 3584 858 3373 
L 262 3373 
L 262 2746 
L 1414 2746 
L 1414 2253 
L 282 2253 
L 282 1606 
L 1267 1606 
C 966 1120 525 646 102 371 
C 262 243 486 -6 602 -173 
C 877 51 1165 365 1414 723 
L 1414 -563 
L 2157 -563 
L 2157 806 
C 2342 627 2522 435 2624 307 
L 3072 858 
C 2931 973 2381 1395 2157 1549 
L 2157 1606 
L 3219 1606 
L 3219 2253 
L 2157 2253 
L 2157 2746 
L 3277 2746 
L 3277 3373 
L 2624 3373 
C 2720 3565 2822 3821 2938 4102 
L 2547 4179 
L 3226 4179 
L 3226 4800 
L 2157 4800 
L 2157 5382 
L 1414 5382 
L 1414 4800 
L 339 4800 
L 339 4179 
L 1062 4179 
L 659 4083 
z
M 1274 4179 
L 2240 4179 
C 2182 3955 2086 3667 1997 3469 
L 2458 3373 
L 1139 3373 
L 1485 3469 
C 1459 3661 1376 3955 1274 4179 
z
" transform="scale(0.015625)"/>
      <path id="NotoSansCJKjp-Bold-4e86" d="M 646 4992 
L 646 4230 
L 4371 4230 
C 4051 3885 3648 3520 3258 3245 
L 2829 3245 
L 2829 339 
C 2829 224 2784 192 2643 192 
C 2496 186 1971 186 1517 211 
C 1638 -6 1779 -346 1830 -576 
C 2445 -576 2906 -563 3219 -448 
C 3539 -333 3648 -122 3648 320 
L 3648 2605 
C 4422 3091 5248 3898 5824 4595 
L 5216 5037 
L 5037 4992 
L 646 4992 
z
" transform="scale(0.015625)"/>
     </defs>
     <use xlink:href="#NotoSansCJKjp-Bold-4ece"/>
     <use xlink:href="#NotoSansCJKjp-Bold-5916" transform="translate(99.999985 0)"/>
     <use xlink:href="#NotoSansCJKjp-Bold-90e8" transform="translate(199.999969 0)"/>
     <use xlink:href="#NotoSansCJKjp-Bold-770b" transform="translate(299.999954 0)"/>
     <use xlink:href="#NotoSansCJKjp-Bold-3a" transform="translate(399.999939 0)"/>
     <use xlink:href="#NotoSansCJKjp-Bold-20" transform="translate(432.499924 0)"/>
     <use xlink:href="#NotoSansCJKjp-Bold-78" transform="translate(455.199921 0)"/>
     <use xlink:href="#NotoSansCJKjp-Bold-20" transform="translate(511.399918 0)"/>
     <use xlink:href="#NotoSansCJKjp-Bold-7684" transform="translate(534.099915 0)"/>
     <use xlink:href="#NotoSansCJKjp-Bold-503c" transform="translate(634.099899 0)"/>
     <use xlink:href="#NotoSansCJKjp-Bold-88ab" transform="translate(734.099884 0)"/>
     <use xlink:href="#NotoSansCJKjp-Bold-66f4" transform="translate(834.099869 0)"/>
     <use xlink:href="#NotoSansCJKjp-Bold-65b0" transform="translate(934.099854 0)"/>
     <use xlink:href="#NotoSansCJKjp-Bold-4e86" transform="translate(1034.099838 0)"/>
    </g>
    <!-- FX Graph 记录: torch.add(x, 1)（out-of-place） -->
    <g style="fill: #9c27b0" transform="translate(123.260547 319.633691) scale(0.07 -0.07)">
     <defs>
      <path id="NotoSansCJKjp-Bold-58" d="M 96 0 
L 1094 0 
L 1600 1050 
C 1715 1293 1824 1542 1946 1830 
L 1971 1830 
C 2106 1542 2227 1293 2342 1050 
L 2874 0 
L 3923 0 
L 2592 2400 
L 3840 4742 
L 2842 4742 
L 2394 3757 
C 2291 3539 2189 3309 2074 3014 
L 2048 3014 
C 1907 3309 1811 3539 1696 3757 
L 1222 4742 
L 166 4742 
L 1421 2438 
L 96 0 
z
" transform="scale(0.015625)"/>
      <path id="NotoSansCJKjp-Bold-47" d="M 2618 -90 
C 3270 -90 3834 160 4160 480 
L 4160 2618 
L 2470 2618 
L 2470 1843 
L 3309 1843 
L 3309 909 
C 3181 794 2944 730 2720 730 
C 1786 730 1318 1350 1318 2381 
C 1318 3398 1856 4013 2650 4013 
C 3072 4013 3341 3840 3578 3616 
L 4083 4218 
C 3776 4531 3302 4826 2618 4826 
C 1357 4826 346 3910 346 2349 
C 346 768 1331 -90 2618 -90 
z
" transform="scale(0.015625)"/>
      <path id="NotoSansCJKjp-Bold-8bb0" d="M 653 4864 
C 1018 4538 1498 4064 1709 3763 
L 2259 4307 
C 2016 4595 1523 5037 1165 5338 
L 653 4864 
z
M 243 3475 
L 243 2739 
L 1178 2739 
L 1178 768 
C 1178 422 992 173 851 58 
C 973 -58 1178 -339 1248 -499 
C 1363 -358 1568 -186 2669 614 
C 2592 762 2483 1082 2438 1286 
L 1939 941 
L 1939 3475 
L 243 3475 
z
M 2643 5024 
L 2643 4262 
L 5062 4262 
L 5062 2957 
L 2778 2957 
L 2778 582 
C 2778 -243 3046 -467 3904 -467 
C 4083 -467 4915 -467 5107 -467 
C 5901 -467 6125 -154 6221 954 
C 6003 1011 5670 1139 5491 1274 
C 5446 416 5395 269 5050 269 
C 4851 269 4154 269 3987 269 
C 3629 269 3571 314 3571 589 
L 3571 2234 
L 5062 2234 
L 5062 1920 
L 5837 1920 
L 5837 5024 
L 2643 5024 
z
" transform="scale(0.015625)"/>
      <path id="NotoSansCJKjp-Bold-5f55" d="M 742 1888 
C 1146 1658 1664 1306 1901 1062 
L 2445 1587 
C 2182 1830 1651 2157 1254 2355 
L 742 1888 
z
M 774 5126 
L 774 4422 
L 4512 4422 
L 4499 4083 
L 986 4083 
L 986 3398 
L 4461 3398 
L 4442 3053 
L 390 3053 
L 390 2387 
L 2784 2387 
L 2784 1376 
C 1882 1024 941 672 333 467 
L 755 -224 
C 1344 13 2074 326 2784 640 
L 2784 166 
C 2784 77 2746 51 2643 51 
C 2547 45 2176 45 1869 64 
C 1971 -122 2086 -397 2131 -595 
C 2618 -602 2963 -589 3226 -493 
C 3488 -390 3571 -218 3571 147 
L 3571 1062 
C 4090 422 4762 -64 5606 -346 
C 5722 -134 5946 179 6118 333 
C 5517 493 4992 749 4563 1088 
C 4934 1318 5363 1626 5734 1926 
L 5101 2387 
L 6035 2387 
L 6035 3053 
L 5254 3053 
C 5318 3712 5363 4454 5370 5120 
L 4755 5152 
L 4614 5126 
L 774 5126 
z
M 3571 2387 
L 5056 2387 
C 4800 2125 4410 1798 4064 1549 
C 3872 1766 3706 1997 3571 2253 
L 3571 2387 
z
" transform="scale(0.015625)"/>
      <path id="NotoSansCJKjp-Bold-ff08" d="M 4243 2432 
C 4243 1062 4813 38 5504 -640 
L 6112 -371 
C 5472 320 4966 1203 4966 2432 
C 4966 3661 5472 4544 6112 5235 
L 5504 5504 
C 4813 4826 4243 3802 4243 2432 
z
" transform="scale(0.015625)"/>
      <path id="NotoSansCJKjp-Bold-ff09" d="M 2157 2432 
C 2157 3802 1587 4826 896 5504 
L 288 5235 
C 928 4544 1434 3661 1434 2432 
C 1434 1203 928 320 288 -371 
L 896 -640 
C 1587 38 2157 1062 2157 2432 
z
" transform="scale(0.015625)"/>
     </defs>
     <use xlink:href="#NotoSansCJKjp-Bold-46"/>
     <use xlink:href="#NotoSansCJKjp-Bold-58" transform="translate(58.499985 0)"/>
     <use xlink:href="#NotoSansCJKjp-Bold-20" transform="translate(121.199982 0)"/>
     <use xlink:href="#NotoSansCJKjp-Bold-47" transform="translate(143.899979 0)"/>
     <use xlink:href="#NotoSansCJKjp-Bold-72" transform="translate(215.59996 0)"/>
     <use xlink:href="#NotoSansCJKjp-Bold-61" transform="translate(259.199951 0)"/>
     <use xlink:href="#NotoSansCJKjp-Bold-70" transform="translate(318.299942 0)"/>
     <use xlink:href="#NotoSansCJKjp-Bold-68" transform="translate(382.699936 0)"/>
     <use xlink:href="#NotoSansCJKjp-Bold-20" transform="translate(446.699921 0)"/>
     <use xlink:href="#NotoSansCJKjp-Bold-8bb0" transform="translate(469.399918 0)"/>
     <use xlink:href="#NotoSansCJKjp-Bold-5f55" transform="translate(569.399902 0)"/>
     <use xlink:href="#NotoSansCJKjp-Bold-3a" transform="translate(669.399887 0)"/>
     <use xlink:href="#NotoSansCJKjp-Bold-20" transform="translate(701.899872 0)"/>
     <use xlink:href="#NotoSansCJKjp-Bold-74" transform="translate(724.599869 0)"/>
     <use xlink:href="#NotoSansCJKjp-Bold-6f" transform="translate(766.69986 0)"/>
     <use xlink:href="#NotoSansCJKjp-Bold-72" transform="translate(829.29985 0)"/>
     <use xlink:href="#NotoSansCJKjp-Bold-63" transform="translate(872.899841 0)"/>
     <use xlink:href="#NotoSansCJKjp-Bold-68" transform="translate(925.599838 0)"/>
     <use xlink:href="#NotoSansCJKjp-Bold-2e" transform="translate(989.599823 0)"/>
     <use xlink:href="#NotoSansCJKjp-Bold-61" transform="translate(1022.099808 0)"/>
     <use xlink:href="#NotoSansCJKjp-Bold-64" transform="translate(1081.199799 0)"/>
     <use xlink:href="#NotoSansCJKjp-Bold-64" transform="translate(1145.599792 0)"/>
     <use xlink:href="#NotoSansCJKjp-Bold-28" transform="translate(1209.999786 0)"/>
     <use xlink:href="#NotoSansCJKjp-Bold-78" transform="translate(1247.799774 0)"/>
     <use xlink:href="#NotoSansCJKjp-Bold-2c" transform="translate(1303.999771 0)"/>
     <use xlink:href="#NotoSansCJKjp-Bold-20" transform="translate(1336.499756 0)"/>
     <use xlink:href="#NotoSansCJKjp-Bold-31" transform="translate(1359.199753 0)"/>
     <use xlink:href="#NotoSansCJKjp-Bold-29" transform="translate(1418.199738 0)"/>
     <use xlink:href="#NotoSansCJKjp-Bold-ff08" transform="translate(1455.999725 0)"/>
     <use xlink:href="#NotoSansCJKjp-Bold-6f" transform="translate(1555.99971 0)"/>
     <use xlink:href="#NotoSansCJKjp-Bold-75" transform="translate(1618.599701 0)"/>
     <use xlink:href="#NotoSansCJKjp-Bold-74" transform="translate(1682.299698 0)"/>
     <use xlink:href="#NotoSansCJKjp-Bold-2d" transform="translate(1724.399689 0)"/>
     <use xlink:href="#NotoSansCJKjp-Bold-6f" transform="translate(1761.399673 0)"/>
     <use xlink:href="#NotoSansCJKjp-Bold-66" transform="translate(1823.999664 0)"/>
     <use xlink:href="#NotoSansCJKjp-Bold-2d" transform="translate(1861.199661 0)"/>
     <use xlink:href="#NotoSansCJKjp-Bold-70" transform="translate(1898.199646 0)"/>
     <use xlink:href="#NotoSansCJKjp-Bold-6c" transform="translate(1962.59964 0)"/>
     <use xlink:href="#NotoSansCJKjp-Bold-61" transform="translate(1994.099625 0)"/>
     <use xlink:href="#NotoSansCJKjp-Bold-63" transform="translate(2053.199615 0)"/>
     <use xlink:href="#NotoSansCJKjp-Bold-65" transform="translate(2105.899612 0)"/>
     <use xlink:href="#NotoSansCJKjp-Bold-ff09" transform="translate(2163.999603 0)"/>
    </g>
   </g>
   <g id="patch_17">
    <path d="M 202.5 293.049506 
Q 202.5 293.270971 202.5 291.815385 
" style="fill: none; stroke: #616161; stroke-width: 1.5; stroke-linecap: round"/>
    <path d="M 204.7 287.415385 
L 202.5 291.815385 
L 200.3 287.415385 
" style="fill: none; stroke: #616161; stroke-width: 1.5; stroke-linecap: round"/>
   </g>
  </g>
 </g>
 <defs>
  <clipPath id="p1d2764ab2f">
   <rect x="7.2" y="7.2" width="390.6" height="332.64"/>
  </clipPath>
 </defs>
</svg>
