<?xml version="1.0" encoding="utf-8" standalone="no"?>
<!DOCTYPE svg PUBLIC "-//W3C//DTD SVG 1.1//EN"
  "http://www.w3.org/Graphics/SVG/1.1/DTD/svg11.dtd">
<svg xmlns:xlink="http://www.w3.org/1999/xlink" width="516.6pt" height="303.204231pt" viewBox="0 0 516.6 303.204231" xmlns="http://www.w3.org/2000/svg" version="1.1">
 <metadata>
  <rdf:RDF xmlns:dc="http://purl.org/dc/elements/1.1/" xmlns:cc="http://creativecommons.org/ns#" xmlns:rdf="http://www.w3.org/1999/02/22-rdf-syntax-ns#">
   <cc:Work>
    <dc:type rdf:resource="http://purl.org/dc/dcmitype/StillImage"/>
    <dc:date>2026-07-11T14:05:09.995766</dc:date>
    <dc:format>image/svg+xml</dc:format>
    <dc:creator>
     <cc:Agent>
      <dc:title>Matplotlib v3.10.9, https://matplotlib.org/</dc:title>
     </cc:Agent>
    </dc:creator>
   </cc:Work>
  </rdf:RDF>
 </metadata>
 <defs>
  <style type="text/css">*{stroke-linejoin: round; stroke-linecap: butt}</style>
 </defs>
 <g id="figure_1">
  <g id="patch_1">
   <path d="M 0 303.204231 
L 516.6 303.204231 
L 516.6 0 
L 0 0 
z
" style="fill: #ffffff"/>
  </g>
  <g id="axes_1">
   <g id="patch_2">
    <path d="M 7.2 284.4 
L 243.234 284.4 
L 243.234 49.846154 
L 7.2 49.846154 
z
" clip-path="url(#p47aa4af4e6)" style="fill: #e2882c; opacity: 0.04"/>
   </g>
   <g id="patch_3">
    <path d="M 19.755 104.433231 
L 229.005 104.433231 
Q 232.353 104.433231 232.353 101.021538 
L 232.353 75.433846 
Q 232.353 72.022154 229.005 72.022154 
L 19.755 72.022154 
Q 16.407 72.022154 16.407 75.433846 
L 16.407 101.021538 
Q 16.407 104.433231 19.755 104.433231 
z
" clip-path="url(#p47aa4af4e6)" style="fill: #757575; opacity: 0.1; stroke: #757575; stroke-width: 2; stroke-linejoin: miter"/>
   </g>
   <g id="patch_4">
    <path d="M 32.31 151.344 
L 116.01 151.344 
Q 119.358 151.344 119.358 147.932308 
L 119.358 122.344615 
Q 119.358 118.932923 116.01 118.932923 
L 32.31 118.932923 
Q 28.962 118.932923 28.962 122.344615 
L 28.962 147.932308 
Q 28.962 151.344 32.31 151.344 
z
" clip-path="url(#p47aa4af4e6)" style="fill: #e2882c; opacity: 0.1; stroke: #e2882c; stroke-width: 2; stroke-linejoin: miter"/>
   </g>
   <g id="patch_5">
    <path d="M 74.16 198.254769 
L 174.6 198.254769 
Q 177.948 198.254769 177.948 194.843077 
L 177.948 169.255385 
Q 177.948 165.843692 174.6 165.843692 
L 74.16 165.843692 
Q 70.812 165.843692 70.812 169.255385 
L 70.812 194.843077 
Q 70.812 198.254769 74.16 198.254769 
z
" clip-path="url(#p47aa4af4e6)" style="fill: #e2882c; opacity: 0.1; stroke: #e2882c; stroke-width: 2; stroke-linejoin: miter"/>
   </g>
   <g id="patch_6">
    <path d="M 116.01 245.165538 
L 216.45 245.165538 
Q 219.798 245.165538 219.798 241.753846 
L 219.798 216.166154 
Q 219.798 212.754462 216.45 212.754462 
L 116.01 212.754462 
Q 112.662 212.754462 112.662 216.166154 
L 112.662 241.753846 
Q 112.662 245.165538 116.01 245.165538 
z
" clip-path="url(#p47aa4af4e6)" style="fill: #e2882c; opacity: 0.1; stroke: #e2882c; stroke-width: 2; stroke-linejoin: miter"/>
   </g>
   <g id="patch_7">
    <path d="M 32.31 283.547077 
L 216.45 283.547077 
Q 219.798 283.547077 219.798 280.135385 
L 219.798 254.547692 
Q 219.798 251.136 216.45 251.136 
L 32.31 251.136 
Q 28.962 251.136 28.962 254.547692 
L 28.962 280.135385 
Q 28.962 283.547077 32.31 283.547077 
z
" clip-path="url(#p47aa4af4e6)" style="fill: #757575; opacity: 0.1; stroke: #757575; stroke-width: 2; stroke-linejoin: miter"/>
   </g>
   <g id="patch_8">
    <path d="M 273.366 284.4 
L 509.4 284.4 
L 509.4 49.846154 
L 273.366 49.846154 
z
" clip-path="url(#p47aa4af4e6)" style="fill: #4caf50; opacity: 0.04"/>
   </g>
   <g id="patch_9">
    <path d="M 270.855 104.433231 
L 496.845 104.433231 
Q 500.193 104.433231 500.193 101.021538 
L 500.193 75.433846 
Q 500.193 72.022154 496.845 72.022154 
L 270.855 72.022154 
Q 267.507 72.022154 267.507 75.433846 
L 267.507 101.021538 
Q 267.507 104.433231 270.855 104.433231 
z
" clip-path="url(#p47aa4af4e6)" style="fill: #757575; opacity: 0.1; stroke: #757575; stroke-width: 2; stroke-linejoin: miter"/>
   </g>
   <g id="patch_10">
    <path d="M 283.41 151.344 
L 383.85 151.344 
Q 387.198 151.344 387.198 147.932308 
L 387.198 122.344615 
Q 387.198 118.932923 383.85 118.932923 
L 283.41 118.932923 
Q 280.062 118.932923 280.062 122.344615 
L 280.062 147.932308 
Q 280.062 151.344 283.41 151.344 
z
" clip-path="url(#p47aa4af4e6)" style="fill: #4caf50; opacity: 0.1; stroke: #4caf50; stroke-width: 2; stroke-linejoin: miter"/>
   </g>
   <g id="patch_11">
    <path d="M 300.15 198.254769 
L 417.33 198.254769 
Q 420.678 198.254769 420.678 194.843077 
L 420.678 169.255385 
Q 420.678 165.843692 417.33 165.843692 
L 300.15 165.843692 
Q 296.802 165.843692 296.802 169.255385 
L 296.802 194.843077 
Q 296.802 198.254769 300.15 198.254769 
z
" clip-path="url(#p47aa4af4e6)" style="fill: #e2882c; opacity: 0.1; stroke: #e2882c; stroke-width: 2; stroke-linejoin: miter"/>
   </g>
   <g id="patch_12">
    <path d="M 358.74 245.165538 
L 475.92 245.165538 
Q 479.268 245.165538 479.268 241.753846 
L 479.268 216.166154 
Q 479.268 212.754462 475.92 212.754462 
L 358.74 212.754462 
Q 355.392 212.754462 355.392 216.166154 
L 355.392 241.753846 
Q 355.392 245.165538 358.74 245.165538 
z
" clip-path="url(#p47aa4af4e6)" style="fill: #4caf50; opacity: 0.1; stroke: #4caf50; stroke-width: 2; stroke-linejoin: miter"/>
   </g>
   <g id="patch_13">
    <path d="M 270.855 283.547077 
L 488.475 283.547077 
Q 491.823 283.547077 491.823 280.135385 
L 491.823 254.547692 
Q 491.823 251.136 488.475 251.136 
L 270.855 251.136 
Q 267.507 251.136 267.507 254.547692 
L 267.507 280.135385 
Q 267.507 283.547077 270.855 283.547077 
z
" clip-path="url(#p47aa4af4e6)" style="fill: #757575; opacity: 0.1; stroke: #757575; stroke-width: 2; stroke-linejoin: miter"/>
   </g>
   <g id="patch_14">
    <path d="M 358.74 302.737846 
L 475.92 302.737846 
Q 479.268 302.737846 479.268 299.326154 
L 479.268 286.532308 
Q 479.268 283.120615 475.92 283.120615 
L 358.74 283.120615 
Q 355.392 283.120615 355.392 286.532308 
L 355.392 299.326154 
Q 355.392 302.737846 358.74 302.737846 
z
" clip-path="url(#p47aa4af4e6)" style="fill: #757575; opacity: 0.06; stroke: #757575; stroke-width: 2; stroke-linejoin: miter"/>
   </g>
   <g id="line2d_1">
    <path d="M 74.16 258.812308 
L 74.16 267.341538 
L 166.23 267.341538 
" clip-path="url(#p47aa4af4e6)" style="fill: none; stroke-dasharray: 1,1.65; stroke-dashoffset: 0; stroke: #616161"/>
   </g>
   <g id="line2d_2">
    <path d="M 124.38 258.812308 
L 124.38 267.341538 
L 166.23 267.341538 
" clip-path="url(#p47aa4af4e6)" style="fill: none; stroke-dasharray: 1,1.65; stroke-dashoffset: 0; stroke: #616161"/>
   </g>
   <g id="line2d_3">
    <path d="M 333.63 258.812308 
L 333.63 267.341538 
L 417.33 267.341538 
" clip-path="url(#p47aa4af4e6)" style="fill: none; stroke-dasharray: 1,1.65; stroke-dashoffset: 0; stroke: #616161"/>
   </g>
   <g id="line2d_4">
    <path d="M 417.33 267.341538 
L 417.33 292.929231 
L 417.33 299.326154 
" clip-path="url(#p47aa4af4e6)" style="fill: none; stroke-dasharray: 1,1.65; stroke-dashoffset: 0; stroke: #616161"/>
   </g>
   <g id="text_1">
    <!-- 朴素分区 vs Min-Cut 分区 -->
    <g style="fill: #2c5f8a" transform="translate(176.862656 24.074627) scale(0.14 -0.14)">
     <defs>
      <path id="NotoSansCJKjp-Bold-6734" d="M 3725 5440 
L 3725 -570 
L 4512 -570 
L 4512 2522 
C 5050 2214 5638 1869 5965 1626 
L 6298 2406 
C 5901 2675 5101 3085 4512 3386 
L 4512 5440 
L 3725 5440 
z
M 1459 5434 
L 1459 4096 
L 294 4096 
L 294 3366 
L 1357 3366 
C 1101 2566 634 1702 115 1184 
C 250 979 442 659 525 429 
C 877 813 1197 1382 1459 2003 
L 1459 -576 
L 2214 -576 
L 2214 2106 
C 2438 1792 2675 1446 2816 1210 
L 3283 1882 
C 3130 2061 2458 2816 2214 3046 
L 2214 3366 
L 3213 3366 
L 3213 4096 
L 2214 4096 
L 2214 5434 
L 1459 5434 
z
" transform="scale(0.015625)"/>
      <path id="NotoSansCJKjp-Bold-7d20" d="M 3962 448 
C 4454 198 5094 -192 5408 -448 
L 6010 -19 
C 5664 250 5005 614 4531 838 
L 3962 448 
z
M 1702 819 
C 1363 512 781 218 230 32 
C 397 -90 678 -352 806 -493 
C 1344 -256 1997 147 2413 550 
L 1702 819 
z
M 358 3501 
L 358 2918 
L 2182 2918 
C 2035 2778 1869 2637 1709 2515 
L 1376 2688 
L 877 2266 
C 1222 2086 1638 1830 1952 1600 
L 1741 1485 
L 378 1472 
L 416 864 
L 2803 909 
L 2803 -557 
L 3565 -557 
L 3565 922 
L 5357 973 
C 5466 864 5562 768 5632 678 
L 6208 1107 
C 5894 1466 5235 1952 4723 2266 
L 4192 1882 
C 4352 1773 4518 1658 4691 1530 
L 2912 1498 
C 3488 1824 4090 2214 4589 2586 
L 3981 2918 
L 6054 2918 
L 6054 3501 
L 3571 3501 
L 3571 3744 
L 5440 3744 
L 5440 4294 
L 3571 4294 
L 3571 4538 
L 5773 4538 
L 5773 5094 
L 3571 5094 
L 3571 5446 
L 2797 5446 
L 2797 5094 
L 704 5094 
L 704 4538 
L 2797 4538 
L 2797 4294 
L 1043 4294 
L 1043 3744 
L 2797 3744 
L 2797 3501 
L 358 3501 
z
M 2227 2214 
C 2515 2400 2861 2662 3181 2918 
L 3866 2918 
C 3520 2624 3059 2285 2579 1978 
L 2227 2214 
z
" transform="scale(0.015625)"/>
      <path id="NotoSansCJKjp-Bold-5206" d="M 4403 5370 
L 3648 5069 
C 4006 4384 4493 3674 4998 3085 
L 1517 3085 
C 2022 3661 2477 4371 2797 5114 
L 1965 5357 
C 1581 4378 870 3482 70 2950 
C 256 2810 589 2502 730 2330 
C 902 2464 1082 2624 1248 2790 
L 1248 2342 
L 2330 2342 
C 2202 1408 1869 563 416 90 
C 602 -83 826 -403 915 -614 
C 2592 6 3014 1107 3168 2342 
L 4435 2342 
C 4378 1005 4307 429 4179 288 
C 4109 211 4032 198 3917 198 
C 3763 198 3424 205 3072 230 
C 3206 13 3309 -314 3322 -544 
C 3699 -557 4077 -557 4294 -525 
C 4544 -493 4717 -429 4883 -218 
C 5101 51 5184 813 5248 2752 
L 5254 2797 
C 5389 2650 5530 2509 5664 2387 
C 5811 2605 6112 2918 6317 3078 
C 5613 3622 4813 4550 4403 5370 
z
" transform="scale(0.015625)"/>
      <path id="NotoSansCJKjp-Bold-533a" d="M 1747 3386 
C 2176 3104 2637 2771 3078 2426 
C 2605 1939 2074 1517 1510 1203 
C 1690 1062 1984 755 2112 595 
C 2656 947 3187 1402 3674 1926 
C 4134 1523 4531 1120 4787 781 
L 5395 1357 
C 5107 1715 4672 2125 4179 2528 
C 4538 2989 4858 3494 5126 4019 
L 4371 4269 
C 4154 3821 3885 3392 3571 2995 
C 3136 3315 2694 3616 2285 3872 
L 1747 3386 
z
M 518 5094 
L 518 -576 
L 1280 -576 
L 1280 -275 
L 6157 -275 
L 6157 461 
L 1280 461 
L 1280 4358 
L 5997 4358 
L 5997 5094 
L 518 5094 
z
" transform="scale(0.015625)"/>
      <path id="NotoSansCJKjp-Bold-20" transform="scale(0.015625)"/>
      <path id="NotoSansCJKjp-Bold-76" d="M 1312 0 
L 2400 0 
L 3597 3584 
L 2694 3584 
L 2170 1798 
C 2074 1446 1978 1075 1882 710 
L 1850 710 
C 1747 1075 1658 1446 1555 1798 
L 1037 3584 
L 90 3584 
L 1312 0 
z
" transform="scale(0.015625)"/>
      <path id="NotoSansCJKjp-Bold-73" d="M 1530 -90 
C 2458 -90 2957 410 2957 1043 
C 2957 1702 2432 1946 1958 2125 
C 1574 2266 1248 2362 1248 2624 
C 1248 2829 1402 2970 1728 2970 
C 1990 2970 2240 2842 2496 2662 
L 2918 3232 
C 2624 3462 2221 3674 1702 3674 
C 883 3674 365 3219 365 2579 
C 365 1978 870 1702 1325 1530 
C 1702 1382 2074 1261 2074 992 
C 2074 768 1914 614 1555 614 
C 1216 614 915 762 595 1005 
L 166 410 
C 525 115 1050 -90 1530 -90 
z
" transform="scale(0.015625)"/>
      <path id="NotoSansCJKjp-Bold-4d" d="M 582 0 
L 1434 0 
L 1434 1978 
C 1434 2432 1357 3085 1312 3533 
L 1338 3533 
L 1715 2419 
L 2451 429 
L 2995 429 
L 3725 2419 
L 4109 3533 
L 4141 3533 
C 4090 3085 4019 2432 4019 1978 
L 4019 0 
L 4883 0 
L 4883 4742 
L 3834 4742 
L 3040 2515 
C 2944 2227 2861 1914 2758 1613 
L 2726 1613 
C 2630 1914 2541 2227 2438 2515 
L 1632 4742 
L 582 4742 
L 582 0 
z
" transform="scale(0.015625)"/>
      <path id="NotoSansCJKjp-Bold-69" d="M 506 0 
L 1446 0 
L 1446 3584 
L 506 3584 
L 506 0 
z
M 979 4166 
C 1299 4166 1523 4365 1523 4678 
C 1523 4986 1299 5190 979 5190 
C 646 5190 435 4986 435 4678 
C 435 4365 646 4166 979 4166 
z
" transform="scale(0.015625)"/>
      <path id="NotoSansCJKjp-Bold-6e" d="M 506 0 
L 1446 0 
L 1446 2464 
C 1709 2726 1901 2867 2189 2867 
C 2541 2867 2694 2675 2694 2118 
L 2694 0 
L 3635 0 
L 3635 2234 
C 3635 3136 3302 3674 2528 3674 
C 2042 3674 1677 3418 1363 3110 
L 1344 3110 
L 1274 3584 
L 506 3584 
L 506 0 
z
" transform="scale(0.015625)"/>
      <path id="NotoSansCJKjp-Bold-2d" d="M 314 1491 
L 2061 1491 
L 2061 2170 
L 314 2170 
L 314 1491 
z
" transform="scale(0.015625)"/>
      <path id="NotoSansCJKjp-Bold-43" d="M 2509 -90 
C 3130 -90 3635 154 4026 608 
L 3520 1197 
C 3270 922 2957 730 2547 730 
C 1798 730 1318 1350 1318 2381 
C 1318 3398 1850 4013 2566 4013 
C 2925 4013 3200 3846 3443 3616 
L 3936 4218 
C 3629 4538 3155 4826 2547 4826 
C 1350 4826 346 3910 346 2349 
C 346 768 1318 -90 2509 -90 
z
" transform="scale(0.015625)"/>
      <path id="NotoSansCJKjp-Bold-75" d="M 1574 -90 
C 2067 -90 2406 154 2714 518 
L 2739 518 
L 2810 0 
L 3578 0 
L 3578 3584 
L 2637 3584 
L 2637 1165 
C 2394 845 2202 717 1914 717 
C 1562 717 1402 909 1402 1466 
L 1402 3584 
L 467 3584 
L 467 1350 
C 467 448 800 -90 1574 -90 
z
" transform="scale(0.015625)"/>
      <path id="NotoSansCJKjp-Bold-74" d="M 1818 -90 
C 2131 -90 2381 -13 2579 45 
L 2419 730 
C 2323 691 2182 653 2067 653 
C 1747 653 1574 845 1574 1254 
L 1574 2842 
L 2464 2842 
L 2464 3584 
L 1574 3584 
L 1574 4550 
L 800 4550 
L 691 3584 
L 134 3539 
L 134 2842 
L 640 2842 
L 640 1248 
C 640 454 966 -90 1818 -90 
z
" transform="scale(0.015625)"/>
     </defs>
     <use xlink:href="#NotoSansCJKjp-Bold-6734"/>
     <use xlink:href="#NotoSansCJKjp-Bold-7d20" transform="translate(99.999985 0)"/>
     <use xlink:href="#NotoSansCJKjp-Bold-5206" transform="translate(199.999969 0)"/>
     <use xlink:href="#NotoSansCJKjp-Bold-533a" transform="translate(299.999954 0)"/>
     <use xlink:href="#NotoSansCJKjp-Bold-20" transform="translate(399.999939 0)"/>
     <use xlink:href="#NotoSansCJKjp-Bold-76" transform="translate(422.699936 0)"/>
     <use xlink:href="#NotoSansCJKjp-Bold-73" transform="translate(480.299927 0)"/>
     <use xlink:href="#NotoSansCJKjp-Bold-20" transform="translate(529.799911 0)"/>
     <use xlink:href="#NotoSansCJKjp-Bold-4d" transform="translate(552.499908 0)"/>
     <use xlink:href="#NotoSansCJKjp-Bold-69" transform="translate(637.799896 0)"/>
     <use xlink:href="#NotoSansCJKjp-Bold-6e" transform="translate(668.19989 0)"/>
     <use xlink:href="#NotoSansCJKjp-Bold-2d" transform="translate(732.299881 0)"/>
     <use xlink:href="#NotoSansCJKjp-Bold-43" transform="translate(769.299866 0)"/>
     <use xlink:href="#NotoSansCJKjp-Bold-75" transform="translate(834.899857 0)"/>
     <use xlink:href="#NotoSansCJKjp-Bold-74" transform="translate(898.599854 0)"/>
     <use xlink:href="#NotoSansCJKjp-Bold-20" transform="translate(940.699844 0)"/>
     <use xlink:href="#NotoSansCJKjp-Bold-5206" transform="translate(963.399841 0)"/>
     <use xlink:href="#NotoSansCJKjp-Bold-533a" transform="translate(1063.399826 0)"/>
    </g>
   </g>
   <g id="text_2">
    <!-- 朴素分区 -->
    <g style="fill: #e2882c" transform="translate(102.38 61.581713) scale(0.11 -0.11)">
     <use xlink:href="#NotoSansCJKjp-Bold-6734"/>
     <use xlink:href="#NotoSansCJKjp-Bold-7d20" transform="translate(99.999985 0)"/>
     <use xlink:href="#NotoSansCJKjp-Bold-5206" transform="translate(199.999969 0)"/>
     <use xlink:href="#NotoSansCJKjp-Bold-533a" transform="translate(299.999954 0)"/>
    </g>
   </g>
   <g id="text_3">
    <!-- 前向保存所有中间结果 -->
    <g style="fill: #757575" transform="translate(89.38 90.268083) scale(0.07 -0.07)">
     <defs>
      <path id="NotoSansCJKjp-Bold-524d" d="M 3731 3283 
L 3731 659 
L 4435 659 
L 4435 3283 
L 3731 3283 
z
M 5011 3462 
L 5011 275 
C 5011 192 4979 166 4877 166 
C 4774 160 4435 160 4109 173 
C 4224 -26 4346 -346 4384 -550 
C 4851 -557 5197 -538 5446 -422 
C 5696 -301 5766 -109 5766 269 
L 5766 3462 
L 5011 3462 
z
M 4461 5459 
C 4333 5158 4128 4781 3936 4486 
L 2150 4486 
L 2502 4608 
C 2394 4851 2131 5197 1901 5446 
L 1171 5190 
C 1350 4979 1542 4704 1658 4486 
L 288 4486 
L 288 3789 
L 6112 3789 
L 6112 4486 
L 4813 4486 
C 4966 4710 5139 4960 5293 5210 
L 4461 5459 
z
M 2445 1741 
L 2445 1325 
L 1363 1325 
L 1363 1741 
L 2445 1741 
z
M 2445 2310 
L 1363 2310 
L 1363 2707 
L 2445 2707 
L 2445 2310 
z
M 640 3354 
L 640 -538 
L 1363 -538 
L 1363 762 
L 2445 762 
L 2445 192 
C 2445 115 2419 90 2336 90 
C 2253 83 1990 83 1760 96 
C 1856 -77 1965 -365 2003 -557 
C 2400 -557 2688 -544 2906 -435 
C 3117 -326 3181 -141 3181 179 
L 3181 3354 
L 640 3354 
z
" transform="scale(0.015625)"/>
      <path id="NotoSansCJKjp-Bold-5411" d="M 2662 5440 
C 2586 5114 2464 4710 2323 4365 
L 550 4365 
L 550 -570 
L 1318 -570 
L 1318 3610 
L 5101 3610 
L 5101 326 
C 5101 218 5056 186 4941 186 
C 4813 179 4371 173 4000 198 
C 4109 -6 4224 -358 4250 -576 
C 4832 -576 5235 -563 5510 -442 
C 5779 -320 5869 -96 5869 314 
L 5869 4365 
L 3194 4365 
C 3341 4646 3501 4973 3642 5299 
L 2662 5440 
z
M 2637 2323 
L 3750 2323 
L 3750 1466 
L 2637 1466 
L 2637 2323 
z
M 1939 2989 
L 1939 346 
L 2637 346 
L 2637 794 
L 4454 794 
L 4454 2989 
L 1939 2989 
z
" transform="scale(0.015625)"/>
      <path id="NotoSansCJKjp-Bold-4fdd" d="M 3194 4480 
L 5075 4480 
L 5075 3622 
L 3194 3622 
L 3194 4480 
z
M 2470 5158 
L 2470 2950 
L 3731 2950 
L 3731 2368 
L 2042 2368 
L 2042 1677 
L 3354 1677 
C 2963 1107 2394 589 1811 288 
C 1984 141 2227 -141 2342 -326 
C 2854 -6 3341 493 3731 1056 
L 3731 -576 
L 4499 -576 
L 4499 1082 
C 4870 512 5331 -6 5805 -339 
C 5926 -154 6176 128 6349 269 
C 5805 582 5248 1114 4877 1677 
L 6157 1677 
L 6157 2368 
L 4499 2368 
L 4499 2950 
L 5850 2950 
L 5850 5158 
L 2470 5158 
z
M 1632 5421 
C 1293 4506 710 3597 115 3021 
C 250 2835 454 2419 525 2234 
C 691 2400 851 2592 1011 2803 
L 1011 -557 
L 1741 -557 
L 1741 3923 
C 1971 4333 2176 4768 2342 5190 
L 1632 5421 
z
" transform="scale(0.015625)"/>
      <path id="NotoSansCJKjp-Bold-5b58" d="M 3866 2291 
L 3866 1760 
L 2234 1760 
L 2234 1043 
L 3866 1043 
L 3866 262 
C 3866 179 3834 160 3725 154 
C 3622 147 3245 147 2925 166 
C 3014 -45 3110 -352 3136 -576 
C 3654 -576 4032 -570 4301 -454 
C 4576 -346 4640 -141 4640 243 
L 4640 1043 
L 6157 1043 
L 6157 1760 
L 4640 1760 
L 4640 1926 
C 5056 2240 5491 2662 5811 3034 
L 5331 3411 
L 5171 3373 
L 2726 3373 
L 2726 2682 
L 4538 2682 
C 4403 2541 4256 2406 4109 2291 
L 3866 2291 
z
M 2355 5440 
C 2285 5165 2195 4883 2086 4602 
L 352 4602 
L 352 3866 
L 1760 3866 
C 1370 3098 826 2394 128 1939 
C 256 1747 435 1402 512 1184 
C 717 1318 902 1472 1082 1632 
L 1082 -563 
L 1856 -563 
L 1856 2502 
C 2170 2925 2432 3386 2650 3866 
L 6061 3866 
L 6061 4602 
L 2957 4602 
C 3034 4819 3110 5030 3174 5248 
L 2355 5440 
z
" transform="scale(0.015625)"/>
      <path id="NotoSansCJKjp-Bold-6240" d="M 339 5120 
L 339 4429 
L 3181 4429 
L 3181 5120 
L 339 5120 
z
M 5510 5376 
C 5126 5146 4531 4915 3936 4736 
L 3405 4864 
L 3405 3091 
C 3405 2131 3315 858 2426 -45 
C 2605 -134 2886 -403 2989 -563 
C 3846 294 4083 1536 4141 2528 
L 4890 2528 
L 4890 -576 
L 5645 -576 
L 5645 2528 
L 6221 2528 
L 6221 3270 
L 4154 3270 
L 4154 4102 
C 4851 4275 5594 4512 6182 4800 
L 5510 5376 
z
M 544 3942 
L 544 2310 
C 544 1568 512 570 90 -122 
C 250 -211 570 -448 691 -582 
C 1094 45 1222 973 1261 1760 
L 3053 1760 
L 3053 3942 
L 544 3942 
z
M 1274 3258 
L 2310 3258 
L 2310 2445 
L 1274 2445 
L 1274 3258 
z
" transform="scale(0.015625)"/>
      <path id="NotoSansCJKjp-Bold-6709" d="M 2336 5440 
C 2272 5184 2189 4928 2086 4666 
L 352 4666 
L 352 3942 
L 1760 3942 
C 1376 3200 845 2522 160 2067 
C 307 1926 550 1645 666 1478 
C 979 1696 1254 1946 1510 2227 
L 1510 -570 
L 2266 -570 
L 2266 659 
L 4589 659 
L 4589 269 
C 4589 186 4557 154 4448 147 
C 4339 147 3962 147 3635 166 
C 3738 -38 3840 -365 3866 -576 
C 4390 -576 4755 -570 5011 -448 
C 5274 -333 5344 -122 5344 256 
L 5344 3437 
L 2362 3437 
C 2458 3603 2541 3770 2624 3942 
L 6061 3942 
L 6061 4666 
L 2925 4666 
C 3002 4864 3066 5062 3130 5261 
L 2336 5440 
z
M 2266 1715 
L 4589 1715 
L 4589 1299 
L 2266 1299 
L 2266 1715 
z
M 2266 2355 
L 2266 2765 
L 4589 2765 
L 4589 2355 
L 2266 2355 
z
" transform="scale(0.015625)"/>
      <path id="NotoSansCJKjp-Bold-4e2d" d="M 2778 5440 
L 2778 4326 
L 563 4326 
L 563 1082 
L 1331 1082 
L 1331 1434 
L 2778 1434 
L 2778 -570 
L 3590 -570 
L 3590 1434 
L 5043 1434 
L 5043 1114 
L 5850 1114 
L 5850 4326 
L 3590 4326 
L 3590 5440 
L 2778 5440 
z
M 1331 2189 
L 1331 3571 
L 2778 3571 
L 2778 2189 
L 1331 2189 
z
M 5043 2189 
L 3590 2189 
L 3590 3571 
L 5043 3571 
L 5043 2189 
z
" transform="scale(0.015625)"/>
      <path id="NotoSansCJKjp-Bold-95f4" d="M 454 3898 
L 454 -563 
L 1248 -563 
L 1248 3898 
L 454 3898 
z
M 544 5024 
C 838 4717 1165 4294 1299 4013 
L 1946 4429 
C 1798 4717 1446 5114 1152 5395 
L 544 5024 
z
M 2586 1805 
L 3821 1805 
L 3821 1190 
L 2586 1190 
L 2586 1805 
z
M 2586 3027 
L 3821 3027 
L 3821 2419 
L 2586 2419 
L 2586 3027 
z
M 1901 3642 
L 1901 576 
L 4538 576 
L 4538 3642 
L 1901 3642 
z
M 2170 5120 
L 2170 4403 
L 5210 4403 
L 5210 256 
C 5210 179 5184 147 5101 147 
C 5030 147 4787 141 4589 154 
C 4678 -32 4774 -333 4806 -531 
C 5210 -531 5510 -518 5728 -403 
C 5939 -282 6003 -102 6003 256 
L 6003 5120 
L 2170 5120 
z
" transform="scale(0.015625)"/>
      <path id="NotoSansCJKjp-Bold-7ed3" d="M 166 467 
L 288 -320 
C 973 -173 1869 0 2707 186 
L 2643 902 
C 1747 736 800 563 166 467 
z
M 365 2682 
C 474 2726 634 2771 1210 2835 
C 992 2547 806 2323 704 2227 
C 486 1997 346 1862 166 1824 
C 256 1613 384 1242 422 1088 
C 608 1184 896 1261 2637 1568 
C 2611 1734 2592 2029 2598 2234 
L 1491 2067 
C 1946 2573 2387 3162 2746 3750 
L 2067 4192 
C 1952 3968 1818 3738 1683 3520 
L 1139 3482 
C 1498 3962 1843 4550 2099 5120 
L 1306 5446 
C 1069 4730 640 3981 499 3789 
C 358 3597 243 3469 102 3430 
C 198 3219 326 2842 365 2682 
z
M 3981 5440 
L 3981 4653 
L 2630 4653 
L 2630 3917 
L 3981 3917 
L 3981 3213 
L 2803 3213 
L 2803 2483 
L 5965 2483 
L 5965 3213 
L 4781 3213 
L 4781 3917 
L 6118 3917 
L 6118 4653 
L 4781 4653 
L 4781 5440 
L 3981 5440 
z
M 2957 2010 
L 2957 -570 
L 3706 -570 
L 3706 -294 
L 5062 -294 
L 5062 -544 
L 5850 -544 
L 5850 2010 
L 2957 2010 
z
M 3706 397 
L 3706 1318 
L 5062 1318 
L 5062 397 
L 3706 397 
z
" transform="scale(0.015625)"/>
      <path id="NotoSansCJKjp-Bold-679c" d="M 973 5139 
L 973 2451 
L 2810 2451 
L 2810 2067 
L 346 2067 
L 346 1370 
L 2246 1370 
C 1702 883 909 461 147 237 
C 320 77 550 -218 672 -403 
C 1440 -122 2221 378 2810 966 
L 2810 -576 
L 3622 -576 
L 3622 998 
C 4218 422 4998 -77 5741 -365 
C 5856 -166 6086 128 6259 288 
C 5530 506 4749 909 4186 1370 
L 6074 1370 
L 6074 2067 
L 3622 2067 
L 3622 2451 
L 5478 2451 
L 5478 5139 
L 973 5139 
z
M 1773 3501 
L 2810 3501 
L 2810 3091 
L 1773 3091 
L 1773 3501 
z
M 3622 3501 
L 4640 3501 
L 4640 3091 
L 3622 3091 
L 3622 3501 
z
M 1773 4499 
L 2810 4499 
L 2810 4096 
L 1773 4096 
L 1773 4499 
z
M 3622 4499 
L 4640 4499 
L 4640 4096 
L 3622 4096 
L 3622 4499 
z
" transform="scale(0.015625)"/>
     </defs>
     <use xlink:href="#NotoSansCJKjp-Bold-524d"/>
     <use xlink:href="#NotoSansCJKjp-Bold-5411" transform="translate(99.999985 0)"/>
     <use xlink:href="#NotoSansCJKjp-Bold-4fdd" transform="translate(199.999969 0)"/>
     <use xlink:href="#NotoSansCJKjp-Bold-5b58" transform="translate(299.999954 0)"/>
     <use xlink:href="#NotoSansCJKjp-Bold-6240" transform="translate(399.999939 0)"/>
     <use xlink:href="#NotoSansCJKjp-Bold-6709" transform="translate(499.999924 0)"/>
     <use xlink:href="#NotoSansCJKjp-Bold-4e2d" transform="translate(599.999908 0)"/>
     <use xlink:href="#NotoSansCJKjp-Bold-95f4" transform="translate(699.999893 0)"/>
     <use xlink:href="#NotoSansCJKjp-Bold-7ed3" transform="translate(799.999878 0)"/>
     <use xlink:href="#NotoSansCJKjp-Bold-679c" transform="translate(899.999863 0)"/>
    </g>
   </g>
   <g id="text_4">
    <!-- exp(x): 保存 -->
    <g style="fill: #e2882c" transform="translate(54.360391 137.360962) scale(0.07 -0.07)">
     <defs>
      <path id="NotoSansCJKjp-Bold-65" d="M 2067 -90 
C 2509 -90 2963 64 3315 307 
L 2995 883 
C 2733 723 2483 640 2195 640 
C 1658 640 1274 941 1197 1523 
L 3405 1523 
C 3430 1613 3450 1786 3450 1958 
C 3450 2957 2938 3674 1952 3674 
C 1101 3674 282 2950 282 1792 
C 282 608 1062 -90 2067 -90 
z
M 1178 2157 
C 1254 2675 1587 2944 1965 2944 
C 2432 2944 2643 2637 2643 2157 
L 1178 2157 
z
" transform="scale(0.015625)"/>
      <path id="NotoSansCJKjp-Bold-78" d="M 102 0 
L 1082 0 
L 1408 659 
C 1510 870 1606 1082 1709 1280 
L 1741 1280 
C 1856 1082 1978 870 2086 659 
L 2483 0 
L 3494 0 
L 2374 1760 
L 3424 3584 
L 2451 3584 
L 2150 2950 
C 2067 2746 1971 2541 1888 2342 
L 1862 2342 
C 1754 2541 1645 2746 1542 2950 
L 1184 3584 
L 173 3584 
L 1222 1862 
L 102 0 
z
" transform="scale(0.015625)"/>
      <path id="NotoSansCJKjp-Bold-70" d="M 506 -1376 
L 1446 -1376 
L 1446 -282 
L 1414 301 
C 1683 51 1990 -90 2304 -90 
C 3091 -90 3827 621 3827 1850 
C 3827 2950 3296 3674 2419 3674 
C 2029 3674 1664 3469 1363 3213 
L 1344 3213 
L 1274 3584 
L 506 3584 
L 506 -1376 
z
M 2099 685 
C 1901 685 1677 755 1446 954 
L 1446 2534 
C 1690 2778 1907 2899 2150 2899 
C 2643 2899 2861 2522 2861 1837 
C 2861 1056 2522 685 2099 685 
z
" transform="scale(0.015625)"/>
      <path id="NotoSansCJKjp-Bold-28" d="M 1504 -1293 
L 2086 -1043 
C 1549 -109 1306 966 1306 2016 
C 1306 3066 1549 4147 2086 5082 
L 1504 5331 
C 896 4339 544 3296 544 2016 
C 544 736 896 -307 1504 -1293 
z
" transform="scale(0.015625)"/>
      <path id="NotoSansCJKjp-Bold-29" d="M 915 -1293 
C 1523 -307 1875 736 1875 2016 
C 1875 3296 1523 4339 915 5331 
L 333 5082 
C 870 4147 1114 3066 1114 2016 
C 1114 966 870 -109 333 -1043 
L 915 -1293 
z
" transform="scale(0.015625)"/>
      <path id="NotoSansCJKjp-Bold-3a" d="M 1043 2342 
C 1376 2342 1626 2605 1626 2950 
C 1626 3302 1376 3565 1043 3565 
C 704 3565 454 3302 454 2950 
C 454 2605 704 2342 1043 2342 
z
M 1043 -90 
C 1376 -90 1626 179 1626 525 
C 1626 877 1376 1139 1043 1139 
C 704 1139 454 877 454 525 
C 454 179 704 -90 1043 -90 
z
" transform="scale(0.015625)"/>
     </defs>
     <use xlink:href="#NotoSansCJKjp-Bold-65"/>
     <use xlink:href="#NotoSansCJKjp-Bold-78" transform="translate(58.099991 0)"/>
     <use xlink:href="#NotoSansCJKjp-Bold-70" transform="translate(114.299988 0)"/>
     <use xlink:href="#NotoSansCJKjp-Bold-28" transform="translate(178.699982 0)"/>
     <use xlink:href="#NotoSansCJKjp-Bold-78" transform="translate(216.499969 0)"/>
     <use xlink:href="#NotoSansCJKjp-Bold-29" transform="translate(272.699966 0)"/>
     <use xlink:href="#NotoSansCJKjp-Bold-3a" transform="translate(310.499954 0)"/>
     <use xlink:href="#NotoSansCJKjp-Bold-20" transform="translate(342.999939 0)"/>
     <use xlink:href="#NotoSansCJKjp-Bold-4fdd" transform="translate(365.699936 0)"/>
     <use xlink:href="#NotoSansCJKjp-Bold-5b58" transform="translate(465.699921 0)"/>
    </g>
   </g>
   <g id="text_5">
    <!-- cos(exp(x)): 保存 -->
    <g style="fill: #e2882c" transform="translate(96.166719 184.271731) scale(0.07 -0.07)">
     <defs>
      <path id="NotoSansCJKjp-Bold-63" d="M 2029 -90 
C 2426 -90 2861 45 3200 346 
L 2829 966 
C 2630 800 2394 678 2131 678 
C 1613 678 1242 1114 1242 1792 
C 1242 2464 1613 2906 2163 2906 
C 2362 2906 2528 2822 2707 2675 
L 3155 3270 
C 2893 3507 2554 3674 2112 3674 
C 1139 3674 282 2982 282 1792 
C 282 602 1043 -90 2029 -90 
z
" transform="scale(0.015625)"/>
      <path id="NotoSansCJKjp-Bold-6f" d="M 2003 -90 
C 2899 -90 3725 602 3725 1792 
C 3725 2982 2899 3674 2003 3674 
C 1101 3674 282 2982 282 1792 
C 282 602 1101 -90 2003 -90 
z
M 2003 678 
C 1510 678 1242 1114 1242 1792 
C 1242 2464 1510 2906 2003 2906 
C 2490 2906 2765 2464 2765 1792 
C 2765 1114 2490 678 2003 678 
z
" transform="scale(0.015625)"/>
     </defs>
     <use xlink:href="#NotoSansCJKjp-Bold-63"/>
     <use xlink:href="#NotoSansCJKjp-Bold-6f" transform="translate(52.699997 0)"/>
     <use xlink:href="#NotoSansCJKjp-Bold-73" transform="translate(115.299988 0)"/>
     <use xlink:href="#NotoSansCJKjp-Bold-28" transform="translate(164.799973 0)"/>
     <use xlink:href="#NotoSansCJKjp-Bold-65" transform="translate(202.59996 0)"/>
     <use xlink:href="#NotoSansCJKjp-Bold-78" transform="translate(260.699951 0)"/>
     <use xlink:href="#NotoSansCJKjp-Bold-70" transform="translate(316.899948 0)"/>
     <use xlink:href="#NotoSansCJKjp-Bold-28" transform="translate(381.299942 0)"/>
     <use xlink:href="#NotoSansCJKjp-Bold-78" transform="translate(419.09993 0)"/>
     <use xlink:href="#NotoSansCJKjp-Bold-29" transform="translate(475.299927 0)"/>
     <use xlink:href="#NotoSansCJKjp-Bold-29" transform="translate(513.099915 0)"/>
     <use xlink:href="#NotoSansCJKjp-Bold-3a" transform="translate(550.899902 0)"/>
     <use xlink:href="#NotoSansCJKjp-Bold-20" transform="translate(583.399887 0)"/>
     <use xlink:href="#NotoSansCJKjp-Bold-4fdd" transform="translate(606.099884 0)"/>
     <use xlink:href="#NotoSansCJKjp-Bold-5b58" transform="translate(706.099869 0)"/>
    </g>
   </g>
   <g id="text_6">
    <!-- sin(cos(exp(x))): 保存 -->
    <g style="fill: #e2882c" transform="translate(130.330938 231.1825) scale(0.07 -0.07)">
     <use xlink:href="#NotoSansCJKjp-Bold-73"/>
     <use xlink:href="#NotoSansCJKjp-Bold-69" transform="translate(49.499985 0)"/>
     <use xlink:href="#NotoSansCJKjp-Bold-6e" transform="translate(79.899979 0)"/>
     <use xlink:href="#NotoSansCJKjp-Bold-28" transform="translate(143.999969 0)"/>
     <use xlink:href="#NotoSansCJKjp-Bold-63" transform="translate(181.799957 0)"/>
     <use xlink:href="#NotoSansCJKjp-Bold-6f" transform="translate(234.499954 0)"/>
     <use xlink:href="#NotoSansCJKjp-Bold-73" transform="translate(297.099945 0)"/>
     <use xlink:href="#NotoSansCJKjp-Bold-28" transform="translate(346.59993 0)"/>
     <use xlink:href="#NotoSansCJKjp-Bold-65" transform="translate(384.399918 0)"/>
     <use xlink:href="#NotoSansCJKjp-Bold-78" transform="translate(442.499908 0)"/>
     <use xlink:href="#NotoSansCJKjp-Bold-70" transform="translate(498.699905 0)"/>
     <use xlink:href="#NotoSansCJKjp-Bold-28" transform="translate(563.099899 0)"/>
     <use xlink:href="#NotoSansCJKjp-Bold-78" transform="translate(600.899887 0)"/>
     <use xlink:href="#NotoSansCJKjp-Bold-29" transform="translate(657.099884 0)"/>
     <use xlink:href="#NotoSansCJKjp-Bold-29" transform="translate(694.899872 0)"/>
     <use xlink:href="#NotoSansCJKjp-Bold-29" transform="translate(732.69986 0)"/>
     <use xlink:href="#NotoSansCJKjp-Bold-3a" transform="translate(770.499847 0)"/>
     <use xlink:href="#NotoSansCJKjp-Bold-20" transform="translate(802.999832 0)"/>
     <use xlink:href="#NotoSansCJKjp-Bold-4fdd" transform="translate(825.699829 0)"/>
     <use xlink:href="#NotoSansCJKjp-Bold-5b58" transform="translate(925.699814 0)"/>
    </g>
   </g>
   <g id="text_7">
    <!-- 反向直接使用所有保存值 -->
    <g style="fill: #757575" transform="translate(85.88 269.325601) scale(0.07 -0.07)">
     <defs>
      <path id="NotoSansCJKjp-Regular-53cd" d="M 1088 4973 
L 1088 3226 
C 1088 2202 1030 787 326 -218 
C 442 -269 646 -416 730 -499 
C 1389 448 1549 1830 1568 2886 
L 1990 2886 
C 2285 2048 2694 1357 3245 806 
C 2688 397 2042 102 1363 -70 
C 1459 -179 1581 -384 1645 -512 
C 2362 -294 3034 19 3622 474 
C 4192 19 4890 -314 5728 -525 
C 5792 -390 5933 -186 6048 -77 
C 5242 96 4570 397 4013 806 
C 4659 1408 5158 2208 5440 3238 
L 5107 3379 
L 5011 3354 
L 1574 3354 
L 1574 4499 
L 5792 4499 
L 5792 4973 
L 1088 4973 
z
M 4800 2886 
C 4544 2176 4134 1594 3629 1126 
C 3130 1600 2752 2189 2496 2886 
L 4800 2886 
z
" transform="scale(0.015625)"/>
      <path id="NotoSansCJKjp-Regular-5411" d="M 2803 5389 
C 2714 5062 2554 4614 2394 4269 
L 634 4269 
L 634 -512 
L 1107 -512 
L 1107 3802 
L 5325 3802 
L 5325 128 
C 5325 13 5286 -26 5158 -26 
C 5024 -32 4582 -38 4122 -13 
C 4192 -154 4262 -378 4288 -512 
C 4877 -512 5274 -506 5504 -429 
C 5728 -346 5805 -192 5805 128 
L 5805 4269 
L 2925 4269 
C 3085 4576 3258 4947 3398 5293 
L 2803 5389 
z
M 2387 2522 
L 4006 2522 
L 4006 1267 
L 2387 1267 
L 2387 2522 
z
M 1946 2950 
L 1946 371 
L 2387 371 
L 2387 832 
L 4454 832 
L 4454 2950 
L 1946 2950 
z
" transform="scale(0.015625)"/>
      <path id="NotoSansCJKjp-Regular-76f4" d="M 2374 2586 
L 4832 2586 
L 4832 2061 
L 2374 2061 
L 2374 2586 
z
M 2374 1715 
L 4832 1715 
L 4832 1178 
L 2374 1178 
L 2374 1715 
z
M 2374 3456 
L 4832 3456 
L 4832 2931 
L 2374 2931 
L 2374 3456 
z
M 736 3635 
L 736 -518 
L 1203 -518 
L 1203 -179 
L 6080 -179 
L 6080 269 
L 1203 269 
L 1203 3635 
L 736 3635 
z
M 3053 5395 
L 3008 4787 
L 397 4787 
L 397 4339 
L 2963 4339 
L 2899 3814 
L 1914 3814 
L 1914 813 
L 5306 813 
L 5306 3814 
L 3379 3814 
L 3469 4339 
L 6029 4339 
L 6029 4787 
L 3533 4787 
L 3603 5363 
L 3053 5395 
z
" transform="scale(0.015625)"/>
      <path id="NotoSansCJKjp-Regular-63a5" d="M 1152 5370 
L 1152 4083 
L 282 4083 
L 282 3635 
L 1152 3635 
L 1152 2240 
L 173 1971 
L 288 1504 
L 1152 1766 
L 1152 70 
C 1152 -19 1120 -51 1037 -51 
C 954 -51 691 -51 397 -45 
C 461 -179 525 -384 544 -506 
C 966 -512 1222 -493 1389 -416 
C 1555 -339 1613 -198 1613 77 
L 1613 1914 
L 2176 2086 
L 2176 1722 
L 3123 1722 
C 2938 1331 2752 954 2592 672 
L 3014 531 
L 3110 704 
C 3373 621 3648 518 3923 403 
C 3475 134 2854 -26 2016 -109 
C 2093 -205 2170 -378 2208 -506 
C 3187 -378 3898 -160 4397 198 
C 4915 -32 5382 -288 5690 -518 
L 5990 -154 
C 5690 64 5242 301 4755 518 
C 5043 832 5229 1229 5344 1722 
L 6112 1722 
L 6112 2144 
L 3827 2144 
L 4115 2771 
L 6138 2771 
L 6138 3194 
L 4966 3194 
C 5101 3482 5248 3885 5376 4250 
L 5184 4275 
L 5952 4275 
L 5952 4698 
L 4397 4698 
L 4397 5376 
L 3917 5376 
L 3917 4698 
L 2394 4698 
L 2394 4275 
L 3290 4275 
L 3002 4218 
C 3123 3898 3226 3475 3258 3194 
L 2138 3194 
L 2138 2771 
L 3597 2771 
L 3322 2144 
L 2291 2144 
L 2234 2554 
L 1613 2374 
L 1613 3635 
L 2234 3635 
L 2234 4083 
L 1613 4083 
L 1613 5370 
L 1152 5370 
z
M 3430 4275 
L 4890 4275 
C 4806 3955 4659 3507 4538 3219 
L 4685 3194 
L 3526 3194 
L 3706 3238 
C 3680 3501 3558 3936 3430 4275 
z
M 3622 1722 
L 4858 1722 
C 4749 1306 4576 966 4314 704 
C 3968 845 3622 966 3296 1062 
L 3622 1722 
z
" transform="scale(0.015625)"/>
      <path id="NotoSansCJKjp-Regular-4f7f" d="M 3834 5350 
L 3834 4666 
L 2054 4666 
L 2054 4224 
L 3834 4224 
L 3834 3597 
L 2240 3597 
L 2240 1824 
L 3802 1824 
C 3757 1472 3661 1139 3456 838 
C 3117 1075 2842 1363 2643 1696 
L 2240 1562 
C 2477 1152 2790 806 3168 518 
C 2874 250 2438 26 1818 -134 
C 1920 -237 2054 -422 2112 -531 
C 2778 -333 3238 -64 3565 250 
C 4211 -141 5018 -397 5933 -525 
C 5997 -384 6118 -198 6221 -90 
C 5299 13 4493 237 3846 589 
C 4102 966 4218 1382 4269 1824 
L 5946 1824 
L 5946 3597 
L 4301 3597 
L 4301 4224 
L 6157 4224 
L 6157 4666 
L 4301 4666 
L 4301 5350 
L 3834 5350 
z
M 2688 3194 
L 3834 3194 
L 3834 2522 
L 3827 2234 
L 2688 2234 
L 2688 3194 
z
M 4301 3194 
L 5485 3194 
L 5485 2234 
L 4294 2234 
L 4301 2522 
L 4301 3194 
z
M 1779 5389 
C 1402 4416 781 3469 134 2854 
C 218 2739 352 2490 403 2381 
C 646 2624 883 2906 1107 3219 
L 1107 -538 
L 1568 -538 
L 1568 3917 
C 1818 4346 2048 4794 2227 5248 
L 1779 5389 
z
" transform="scale(0.015625)"/>
      <path id="NotoSansCJKjp-Regular-7528" d="M 979 4928 
L 979 2605 
C 979 1702 915 570 205 -230 
C 314 -288 506 -448 576 -544 
C 1069 0 1286 736 1382 1453 
L 2989 1453 
L 2989 -454 
L 3475 -454 
L 3475 1453 
L 5203 1453 
L 5203 141 
C 5203 26 5158 -13 5030 -19 
C 4909 -26 4474 -32 4026 -13 
C 4090 -141 4166 -352 4192 -474 
C 4794 -480 5165 -474 5382 -397 
C 5600 -320 5677 -173 5677 141 
L 5677 4928 
L 979 4928 
z
M 1453 4467 
L 2989 4467 
L 2989 3437 
L 1453 3437 
L 1453 4467 
z
M 5203 4467 
L 5203 3437 
L 3475 3437 
L 3475 4467 
L 5203 4467 
z
M 1453 2982 
L 2989 2982 
L 2989 1907 
L 1427 1907 
C 1446 2150 1453 2387 1453 2605 
L 1453 2982 
z
M 5203 2982 
L 5203 1907 
L 3475 1907 
L 3475 2982 
L 5203 2982 
z
" transform="scale(0.015625)"/>
      <path id="NotoSansCJKjp-Regular-6240" d="M 390 5024 
L 390 4582 
L 3155 4582 
L 3155 5024 
L 390 5024 
z
M 5626 5299 
C 5203 5062 4493 4826 3808 4646 
L 3424 4742 
L 3424 3040 
C 3424 2054 3328 774 2438 -173 
C 2554 -230 2733 -397 2797 -499 
C 3667 435 3866 1728 3891 2733 
L 4998 2733 
L 4998 -512 
L 5472 -512 
L 5472 2733 
L 6182 2733 
L 6182 3194 
L 3898 3194 
L 3898 4230 
C 4646 4410 5466 4653 6048 4941 
L 5626 5299 
z
M 627 3910 
L 627 2189 
C 627 1446 582 467 141 -230 
C 243 -282 435 -435 512 -518 
C 954 154 1069 1133 1082 1914 
L 2989 1914 
L 2989 3910 
L 627 3910 
z
M 1088 3469 
L 2522 3469 
L 2522 2349 
L 1088 2349 
L 1088 3469 
z
" transform="scale(0.015625)"/>
      <path id="NotoSansCJKjp-Regular-6709" d="M 2502 5376 
C 2426 5101 2336 4819 2221 4544 
L 403 4544 
L 403 4096 
L 2022 4096 
C 1613 3251 1024 2470 256 1946 
C 346 1856 499 1683 563 1574 
C 966 1862 1325 2208 1632 2598 
L 1632 -506 
L 2106 -506 
L 2106 762 
L 4787 762 
L 4787 96 
C 4787 0 4755 -38 4646 -38 
C 4525 -45 4134 -51 3712 -32 
C 3776 -166 3846 -365 3872 -493 
C 4422 -493 4774 -493 4986 -422 
C 5197 -339 5261 -192 5261 90 
L 5261 3354 
L 2150 3354 
C 2298 3597 2426 3840 2541 4096 
L 6010 4096 
L 6010 4544 
L 2733 4544 
C 2829 4781 2912 5024 2989 5261 
L 2502 5376 
z
M 2106 1850 
L 4787 1850 
L 4787 1178 
L 2106 1178 
L 2106 1850 
z
M 2106 2259 
L 2106 2918 
L 4787 2918 
L 4787 2259 
L 2106 2259 
z
" transform="scale(0.015625)"/>
      <path id="NotoSansCJKjp-Regular-4fdd" d="M 2893 4646 
L 5274 4646 
L 5274 3469 
L 2893 3469 
L 2893 4646 
z
M 2432 5075 
L 2432 3034 
L 3827 3034 
L 3827 2240 
L 1958 2240 
L 1958 1798 
L 3546 1798 
C 3110 1120 2432 474 1773 147 
C 1882 58 2029 -115 2106 -230 
C 2733 134 3379 774 3827 1485 
L 3827 -512 
L 4307 -512 
L 4307 1504 
C 4736 800 5350 128 5939 -243 
C 6022 -122 6170 45 6278 141 
C 5658 474 5005 1120 4595 1798 
L 6106 1798 
L 6106 2240 
L 4307 2240 
L 4307 3034 
L 5754 3034 
L 5754 5075 
L 2432 5075 
z
M 1773 5357 
C 1402 4390 787 3437 147 2822 
C 230 2714 371 2458 416 2349 
C 653 2586 883 2867 1107 3174 
L 1107 -493 
L 1568 -493 
L 1568 3885 
C 1818 4307 2042 4762 2221 5216 
L 1773 5357 
z
" transform="scale(0.015625)"/>
      <path id="NotoSansCJKjp-Regular-5b58" d="M 3936 2298 
L 3936 1702 
L 2144 1702 
L 2144 1254 
L 3936 1254 
L 3936 64 
C 3936 -26 3910 -51 3802 -58 
C 3686 -64 3302 -64 2874 -51 
C 2944 -186 3002 -371 3027 -512 
C 3578 -512 3936 -506 4147 -435 
C 4365 -365 4422 -224 4422 58 
L 4422 1254 
L 6125 1254 
L 6125 1702 
L 4422 1702 
L 4422 2029 
C 4877 2330 5376 2752 5722 3149 
L 5414 3386 
L 5318 3360 
L 2688 3360 
L 2688 2918 
L 4890 2918 
C 4666 2694 4390 2464 4128 2298 
L 3936 2298 
z
M 2464 5376 
C 2387 5101 2298 4819 2189 4538 
L 403 4538 
L 403 4077 
L 1990 4077 
C 1574 3194 986 2368 205 1818 
C 282 1709 403 1498 461 1370 
C 730 1562 979 1779 1203 2022 
L 1203 -499 
L 1690 -499 
L 1690 2605 
C 2022 3059 2304 3558 2534 4077 
L 6010 4077 
L 6010 4538 
L 2726 4538 
C 2816 4774 2899 5018 2970 5254 
L 2464 5376 
z
" transform="scale(0.015625)"/>
      <path id="NotoSansCJKjp-Regular-503c" d="M 3834 5376 
C 3814 5184 3782 4954 3750 4723 
L 2106 4723 
L 2106 4294 
L 3674 4294 
C 3635 4077 3597 3872 3552 3699 
L 2445 3699 
L 2445 90 
L 1830 90 
L 1830 -326 
L 6131 -326 
L 6131 90 
L 5562 90 
L 5562 3699 
L 3987 3699 
C 4038 3872 4090 4077 4134 4294 
L 5939 4294 
L 5939 4723 
L 4230 4723 
L 4346 5344 
L 3834 5376 
z
M 2880 90 
L 2880 621 
L 5114 621 
L 5114 90 
L 2880 90 
z
M 2880 2426 
L 5114 2426 
L 5114 1875 
L 2880 1875 
L 2880 2426 
z
M 2880 2784 
L 2880 3322 
L 5114 3322 
L 5114 2784 
L 2880 2784 
z
M 2880 1530 
L 5114 1530 
L 5114 973 
L 2880 973 
L 2880 1530 
z
M 1690 5370 
C 1350 4397 794 3443 205 2816 
C 288 2701 422 2451 474 2342 
C 659 2547 845 2784 1018 3040 
L 1018 -512 
L 1466 -512 
L 1466 3770 
C 1722 4230 1946 4730 2131 5229 
L 1690 5370 
z
" transform="scale(0.015625)"/>
     </defs>
     <use xlink:href="#NotoSansCJKjp-Regular-53cd"/>
     <use xlink:href="#NotoSansCJKjp-Regular-5411" transform="translate(99.999985 0)"/>
     <use xlink:href="#NotoSansCJKjp-Regular-76f4" transform="translate(199.999969 0)"/>
     <use xlink:href="#NotoSansCJKjp-Regular-63a5" transform="translate(299.999954 0)"/>
     <use xlink:href="#NotoSansCJKjp-Regular-4f7f" transform="translate(399.999939 0)"/>
     <use xlink:href="#NotoSansCJKjp-Regular-7528" transform="translate(499.999924 0)"/>
     <use xlink:href="#NotoSansCJKjp-Regular-6240" transform="translate(599.999908 0)"/>
     <use xlink:href="#NotoSansCJKjp-Regular-6709" transform="translate(699.999893 0)"/>
     <use xlink:href="#NotoSansCJKjp-Regular-4fdd" transform="translate(799.999878 0)"/>
     <use xlink:href="#NotoSansCJKjp-Regular-5b58" transform="translate(899.999863 0)"/>
     <use xlink:href="#NotoSansCJKjp-Regular-503c" transform="translate(999.999847 0)"/>
    </g>
   </g>
   <g id="patch_15">
    <path d="M 124.38 103.02318 
Q 124.38 111.686221 124.38 118.672211 
" style="fill: none; stroke: #616161; stroke-width: 1.5; stroke-linecap: round"/>
    <path d="M 126.58 114.272211 
L 124.38 118.672211 
L 122.18 114.272211 
" style="fill: none; stroke: #616161; stroke-width: 1.5; stroke-linecap: round"/>
   </g>
   <g id="patch_16">
    <path d="M 74.16 149.933949 
Q 74.16 158.59699 74.16 165.58298 
" style="fill: none; stroke: #616161; stroke-width: 1.5; stroke-linecap: round"/>
    <path d="M 76.36 161.18298 
L 74.16 165.58298 
L 71.96 161.18298 
" style="fill: none; stroke: #616161; stroke-width: 1.5; stroke-linecap: round"/>
   </g>
   <g id="patch_17">
    <path d="M 124.38 196.844718 
Q 124.38 205.507759 124.38 212.49375 
" style="fill: none; stroke: #616161; stroke-width: 1.5; stroke-linecap: round"/>
    <path d="M 126.58 208.09375 
L 124.38 212.49375 
L 122.18 208.09375 
" style="fill: none; stroke: #616161; stroke-width: 1.5; stroke-linecap: round"/>
   </g>
   <g id="patch_18">
    <path d="M 166.23 243.756008 
Q 166.23 248.151986 166.23 250.870913 
" style="fill: none; stroke: #616161; stroke-width: 1.5; stroke-linecap: round"/>
    <path d="M 168.43 246.470913 
L 166.23 250.870913 
L 164.03 246.470913 
" style="fill: none; stroke: #616161; stroke-width: 1.5; stroke-linecap: round"/>
   </g>
   <g id="text_8">
    <!-- Min-Cut 分区 -->
    <g style="fill: #4caf50" transform="translate(358.621016 61.581713) scale(0.11 -0.11)">
     <use xlink:href="#NotoSansCJKjp-Bold-4d"/>
     <use xlink:href="#NotoSansCJKjp-Bold-69" transform="translate(85.299988 0)"/>
     <use xlink:href="#NotoSansCJKjp-Bold-6e" transform="translate(115.699982 0)"/>
     <use xlink:href="#NotoSansCJKjp-Bold-2d" transform="translate(179.799973 0)"/>
     <use xlink:href="#NotoSansCJKjp-Bold-43" transform="translate(216.799957 0)"/>
     <use xlink:href="#NotoSansCJKjp-Bold-75" transform="translate(282.399948 0)"/>
     <use xlink:href="#NotoSansCJKjp-Bold-74" transform="translate(346.099945 0)"/>
     <use xlink:href="#NotoSansCJKjp-Bold-20" transform="translate(388.199936 0)"/>
     <use xlink:href="#NotoSansCJKjp-Bold-5206" transform="translate(410.899933 0)"/>
     <use xlink:href="#NotoSansCJKjp-Bold-533a" transform="translate(510.899918 0)"/>
    </g>
   </g>
   <g id="text_9">
    <!-- 前向选择性保存 -->
    <g style="fill: #757575" transform="translate(359.35 90.268083) scale(0.07 -0.07)">
     <defs>
      <path id="NotoSansCJKjp-Bold-9009" d="M 282 4826 
C 634 4512 1062 4064 1242 3757 
L 1875 4237 
C 1670 4544 1229 4966 864 5254 
L 282 4826 
z
M 2701 5242 
C 2554 4685 2278 4122 1933 3770 
C 2106 3680 2419 3482 2560 3360 
C 2707 3533 2848 3750 2982 3987 
L 3776 3987 
L 3776 3245 
L 2029 3245 
L 2029 2579 
L 3078 2579 
C 2989 1952 2758 1453 1894 1139 
C 2067 992 2272 698 2355 506 
C 3430 954 3731 1677 3859 2579 
L 4269 2579 
L 4269 1453 
C 4269 774 4397 550 5011 550 
C 5126 550 5376 550 5498 550 
C 5965 550 6157 768 6234 1626 
C 6022 1677 5702 1798 5562 1920 
C 5542 1338 5517 1254 5414 1254 
C 5363 1254 5184 1254 5146 1254 
C 5037 1254 5030 1274 5030 1459 
L 5030 2579 
L 6138 2579 
L 6138 3245 
L 4538 3245 
L 4538 3987 
L 5875 3987 
L 5875 4634 
L 4538 4634 
L 4538 5402 
L 3776 5402 
L 3776 4634 
L 3277 4634 
C 3334 4781 3386 4928 3424 5082 
L 2701 5242 
z
M 1741 2970 
L 294 2970 
L 294 2259 
L 1005 2259 
L 1005 614 
C 742 474 467 262 205 32 
L 717 -640 
C 1056 -237 1414 134 1651 134 
C 1792 134 1990 -51 2253 -211 
C 2682 -454 3194 -531 3949 -531 
C 4576 -531 5542 -499 6016 -467 
C 6022 -262 6144 122 6221 326 
C 5600 237 4608 179 3968 179 
C 3302 179 2752 218 2349 461 
C 2067 627 1914 781 1741 819 
L 1741 2970 
z
" transform="scale(0.015625)"/>
      <path id="NotoSansCJKjp-Bold-62e9" d="M 979 5434 
L 979 4230 
L 256 4230 
L 256 3526 
L 979 3526 
L 979 2400 
L 166 2202 
L 333 1466 
L 979 1651 
L 979 250 
C 979 166 947 141 870 141 
C 794 134 563 134 339 147 
C 435 -58 525 -378 544 -576 
C 966 -576 1254 -550 1459 -429 
C 1664 -307 1722 -115 1722 250 
L 1722 1862 
L 2394 2061 
L 2298 2752 
L 1722 2598 
L 1722 3526 
L 2400 3526 
L 2400 4230 
L 1722 4230 
L 1722 5434 
L 979 5434 
z
M 4838 4506 
C 4672 4301 4474 4109 4243 3930 
C 4032 4109 3846 4301 3686 4506 
L 4838 4506 
z
M 2560 5178 
L 2560 4506 
L 2944 4506 
C 3149 4154 3398 3834 3680 3558 
C 3232 3296 2726 3091 2214 2963 
C 2355 2822 2528 2534 2611 2355 
C 3174 2534 3725 2778 4224 3104 
C 4698 2765 5242 2509 5850 2342 
C 5946 2534 6157 2829 6317 2982 
C 5760 3098 5254 3290 4813 3539 
C 5274 3936 5651 4410 5907 4966 
L 5446 5210 
L 5325 5178 
L 2560 5178 
z
M 3834 2662 
L 3834 2157 
L 2643 2157 
L 2643 1485 
L 3834 1485 
L 3834 1043 
L 2323 1043 
L 2323 365 
L 3834 365 
L 3834 -576 
L 4602 -576 
L 4602 365 
L 6157 365 
L 6157 1043 
L 4602 1043 
L 4602 1485 
L 5754 1485 
L 5754 2157 
L 4602 2157 
L 4602 2662 
L 3834 2662 
z
" transform="scale(0.015625)"/>
      <path id="NotoSansCJKjp-Bold-6027" d="M 2163 358 
L 2163 -371 
L 6170 -371 
L 6170 358 
L 4659 358 
L 4659 1645 
L 5830 1645 
L 5830 2362 
L 4659 2362 
L 4659 3418 
L 5971 3418 
L 5971 4141 
L 4659 4141 
L 4659 5402 
L 3891 5402 
L 3891 4141 
L 3373 4141 
C 3437 4429 3488 4730 3533 5030 
L 2784 5146 
C 2720 4595 2611 4045 2451 3571 
C 2355 3827 2221 4134 2093 4378 
L 1722 4224 
L 1722 5440 
L 954 5440 
L 954 4128 
L 416 4205 
C 371 3674 256 2957 102 2528 
L 672 2323 
C 806 2784 922 3475 954 4013 
L 954 -570 
L 1722 -570 
L 1722 3821 
C 1830 3552 1926 3277 1965 3085 
L 2323 3251 
C 2266 3117 2202 2989 2131 2880 
C 2317 2803 2662 2630 2816 2528 
C 2950 2771 3072 3078 3181 3418 
L 3891 3418 
L 3891 2362 
L 2643 2362 
L 2643 1645 
L 3891 1645 
L 3891 358 
L 2163 358 
z
" transform="scale(0.015625)"/>
     </defs>
     <use xlink:href="#NotoSansCJKjp-Bold-524d"/>
     <use xlink:href="#NotoSansCJKjp-Bold-5411" transform="translate(99.999985 0)"/>
     <use xlink:href="#NotoSansCJKjp-Bold-9009" transform="translate(199.999969 0)"/>
     <use xlink:href="#NotoSansCJKjp-Bold-62e9" transform="translate(299.999954 0)"/>
     <use xlink:href="#NotoSansCJKjp-Bold-6027" transform="translate(399.999939 0)"/>
     <use xlink:href="#NotoSansCJKjp-Bold-4fdd" transform="translate(499.999924 0)"/>
     <use xlink:href="#NotoSansCJKjp-Bold-5b58" transform="translate(599.999908 0)"/>
    </g>
   </g>
   <g id="text_10">
    <!-- exp(x): 保存 -->
    <g style="fill: #4caf50" transform="translate(313.830391 133.256993) scale(0.07 -0.07)">
     <use xlink:href="#NotoSansCJKjp-Bold-65"/>
     <use xlink:href="#NotoSansCJKjp-Bold-78" transform="translate(58.099991 0)"/>
     <use xlink:href="#NotoSansCJKjp-Bold-70" transform="translate(114.299988 0)"/>
     <use xlink:href="#NotoSansCJKjp-Bold-28" transform="translate(178.699982 0)"/>
     <use xlink:href="#NotoSansCJKjp-Bold-78" transform="translate(216.499969 0)"/>
     <use xlink:href="#NotoSansCJKjp-Bold-29" transform="translate(272.699966 0)"/>
     <use xlink:href="#NotoSansCJKjp-Bold-3a" transform="translate(310.499954 0)"/>
     <use xlink:href="#NotoSansCJKjp-Bold-20" transform="translate(342.999939 0)"/>
     <use xlink:href="#NotoSansCJKjp-Bold-4fdd" transform="translate(365.699936 0)"/>
     <use xlink:href="#NotoSansCJKjp-Bold-5b58" transform="translate(465.699921 0)"/>
    </g>
    <!-- （计算昂贵） -->
    <g style="fill: #4caf50" transform="translate(312.63 141.46493) scale(0.07 -0.07)">
     <defs>
      <path id="NotoSansCJKjp-Bold-ff08" d="M 4243 2432 
C 4243 1062 4813 38 5504 -640 
L 6112 -371 
C 5472 320 4966 1203 4966 2432 
C 4966 3661 5472 4544 6112 5235 
L 5504 5504 
C 4813 4826 4243 3802 4243 2432 
z
" transform="scale(0.015625)"/>
      <path id="NotoSansCJKjp-Bold-8ba1" d="M 736 4877 
C 1101 4576 1574 4147 1792 3866 
L 2310 4422 
C 2080 4698 1581 5101 1229 5376 
L 736 4877 
z
M 243 3462 
L 243 2701 
L 1178 2701 
L 1178 768 
C 1178 480 973 269 826 173 
C 954 6 1146 -346 1203 -544 
C 1325 -384 1562 -205 2854 736 
C 2778 896 2656 1222 2611 1446 
L 1958 986 
L 1958 3462 
L 243 3462 
z
M 3885 5408 
L 3885 3418 
L 2349 3418 
L 2349 2618 
L 3885 2618 
L 3885 -576 
L 4710 -576 
L 4710 2618 
L 6189 2618 
L 6189 3418 
L 4710 3418 
L 4710 5408 
L 3885 5408 
z
" transform="scale(0.015625)"/>
      <path id="NotoSansCJKjp-Bold-7b97" d="M 1824 2829 
L 4678 2829 
L 4678 2592 
L 1824 2592 
L 1824 2829 
z
M 1824 2157 
L 4678 2157 
L 4678 1920 
L 1824 1920 
L 1824 2157 
z
M 1824 3482 
L 4678 3482 
L 4678 3258 
L 1824 3258 
L 1824 3482 
z
M 3725 5491 
C 3597 5139 3373 4787 3110 4512 
L 3110 5018 
L 1690 5018 
L 1830 5293 
L 1120 5491 
C 909 5005 531 4518 128 4211 
C 307 4115 608 3910 749 3789 
C 934 3955 1126 4173 1306 4416 
L 1440 4416 
C 1536 4262 1638 4083 1696 3942 
L 1050 3942 
L 1050 1466 
L 1837 1466 
L 1837 1082 
L 307 1082 
L 307 467 
L 1587 467 
C 1382 282 1018 109 390 -13 
C 557 -154 768 -410 870 -576 
C 1882 -314 2336 58 2515 467 
L 3955 467 
L 3955 -563 
L 4755 -563 
L 4755 467 
L 6106 467 
L 6106 1082 
L 4755 1082 
L 4755 1466 
L 5485 1466 
L 5485 3942 
L 4915 3942 
L 5350 4134 
C 5299 4218 5229 4314 5139 4416 
L 6086 4416 
L 6086 5018 
L 4320 5018 
C 4371 5114 4416 5216 4454 5312 
L 3725 5491 
z
M 3955 1082 
L 2611 1082 
L 2611 1466 
L 3955 1466 
L 3955 1082 
z
M 3354 3942 
L 1965 3942 
L 2394 4096 
C 2362 4186 2298 4301 2227 4416 
L 3021 4416 
C 2950 4346 2880 4288 2803 4230 
C 2950 4166 3187 4045 3354 3942 
z
M 3552 3942 
C 3686 4077 3827 4237 3955 4416 
L 4294 4416 
C 4422 4262 4557 4090 4646 3942 
L 3552 3942 
z
" transform="scale(0.015625)"/>
      <path id="NotoSansCJKjp-Bold-6602" d="M 1709 3712 
L 4698 3712 
L 4698 3366 
L 1709 3366 
L 1709 3712 
z
M 1709 4621 
L 4698 4621 
L 4698 4275 
L 1709 4275 
L 1709 4621 
z
M 717 2477 
L 717 576 
L 262 512 
L 384 -224 
C 1088 -96 2022 70 2886 237 
L 2829 934 
L 1478 698 
L 1478 1734 
C 1978 1875 2509 2054 2963 2246 
L 2522 2765 
L 5472 2765 
L 5472 5216 
L 973 5216 
L 973 2765 
L 2266 2765 
C 2010 2630 1690 2490 1370 2374 
L 717 2477 
z
M 3149 2464 
L 3149 -570 
L 3904 -570 
L 3904 1811 
L 5075 1811 
L 5075 640 
C 5075 557 5043 538 4954 538 
C 4870 538 4550 531 4288 544 
C 4378 358 4474 70 4499 -134 
C 4960 -134 5293 -128 5530 -19 
C 5773 83 5843 275 5843 621 
L 5843 2464 
L 3149 2464 
z
" transform="scale(0.015625)"/>
      <path id="NotoSansCJKjp-Bold-8d35" d="M 2758 1786 
L 2758 1376 
C 2758 979 2611 390 326 -6 
C 512 -160 742 -442 838 -608 
C 3238 -83 3565 736 3565 1350 
L 3565 1786 
L 2758 1786 
z
M 3398 275 
C 4128 58 5126 -333 5619 -608 
L 6003 26 
C 5478 294 4454 653 3750 832 
L 3398 275 
z
M 1094 2605 
L 1094 621 
L 1888 621 
L 1888 1997 
L 4499 1997 
L 4499 666 
L 5331 666 
L 5331 2605 
L 1094 2605 
z
M 1798 4570 
L 2829 4570 
L 2829 4237 
L 1798 4237 
L 1798 4570 
z
M 3616 4570 
L 4557 4570 
L 4557 4237 
L 3616 4237 
L 3616 4570 
z
M 320 3469 
L 320 2848 
L 6118 2848 
L 6118 3469 
L 3616 3469 
L 3616 3738 
L 5318 3738 
L 5318 5069 
L 3616 5069 
L 3616 5440 
L 2829 5440 
L 2829 5069 
L 1075 5069 
L 1075 3738 
L 2829 3738 
L 2829 3469 
L 320 3469 
z
" transform="scale(0.015625)"/>
      <path id="NotoSansCJKjp-Bold-ff09" d="M 2157 2432 
C 2157 3802 1587 4826 896 5504 
L 288 5235 
C 928 4544 1434 3661 1434 2432 
C 1434 1203 928 320 288 -371 
L 896 -640 
C 1587 38 2157 1062 2157 2432 
z
" transform="scale(0.015625)"/>
     </defs>
     <use xlink:href="#NotoSansCJKjp-Bold-ff08"/>
     <use xlink:href="#NotoSansCJKjp-Bold-8ba1" transform="translate(99.999985 0)"/>
     <use xlink:href="#NotoSansCJKjp-Bold-7b97" transform="translate(199.999969 0)"/>
     <use xlink:href="#NotoSansCJKjp-Bold-6602" transform="translate(299.999954 0)"/>
     <use xlink:href="#NotoSansCJKjp-Bold-8d35" transform="translate(399.999939 0)"/>
     <use xlink:href="#NotoSansCJKjp-Bold-ff09" transform="translate(499.999924 0)"/>
    </g>
   </g>
   <g id="text_11">
    <!-- cos(exp(x)): 丢弃 -->
    <g style="fill: #e2882c" transform="translate(330.526719 180.167762) scale(0.07 -0.07)">
     <defs>
      <path id="NotoSansCJKjp-Bold-4e22" d="M 5152 5427 
C 4038 5178 2202 5043 589 5011 
C 666 4832 755 4512 774 4314 
C 1421 4320 2112 4346 2797 4390 
L 2797 3834 
L 845 3834 
L 845 3104 
L 2797 3104 
L 2797 2541 
L 346 2541 
L 346 1824 
L 2131 1824 
C 1728 1293 1242 826 1056 691 
C 870 538 730 435 576 403 
C 659 198 781 -179 826 -339 
C 1139 -218 1574 -192 4883 90 
C 5030 -147 5146 -365 5222 -550 
L 5990 -224 
C 5741 320 5146 1094 4640 1651 
L 3942 1363 
C 4109 1171 4282 954 4442 730 
L 1990 563 
C 2362 896 2739 1293 3066 1696 
L 2733 1824 
L 6048 1824 
L 6048 2541 
L 3590 2541 
L 3590 3104 
L 5555 3104 
L 5555 3834 
L 3590 3834 
L 3590 4454 
C 4365 4525 5101 4627 5734 4768 
L 5152 5427 
z
" transform="scale(0.015625)"/>
      <path id="NotoSansCJKjp-Bold-5f03" d="M 3866 3770 
C 4013 3667 4173 3558 4326 3437 
L 2483 3398 
C 2643 3635 2810 3898 2963 4147 
L 6048 4147 
L 6048 4826 
L 3558 4826 
L 3558 5440 
L 2797 5440 
L 2797 4826 
L 333 4826 
L 333 4147 
L 2067 4147 
C 1952 3898 1811 3622 1670 3386 
L 480 3366 
L 518 2662 
C 1683 2688 3424 2739 5062 2803 
C 5222 2650 5363 2502 5459 2368 
L 6093 2790 
C 5747 3219 5024 3776 4442 4141 
L 3866 3770 
z
M 3923 2605 
L 3923 1805 
L 2458 1805 
L 2458 2560 
L 1696 2560 
L 1696 1805 
L 288 1805 
L 288 1107 
L 1587 1107 
C 1427 698 1050 288 173 6 
C 333 -134 563 -422 659 -595 
C 1830 -186 2259 467 2394 1107 
L 3923 1107 
L 3923 -576 
L 4678 -576 
L 4678 1107 
L 6118 1107 
L 6118 1805 
L 4678 1805 
L 4678 2605 
L 3923 2605 
z
" transform="scale(0.015625)"/>
     </defs>
     <use xlink:href="#NotoSansCJKjp-Bold-63"/>
     <use xlink:href="#NotoSansCJKjp-Bold-6f" transform="translate(52.699997 0)"/>
     <use xlink:href="#NotoSansCJKjp-Bold-73" transform="translate(115.299988 0)"/>
     <use xlink:href="#NotoSansCJKjp-Bold-28" transform="translate(164.799973 0)"/>
     <use xlink:href="#NotoSansCJKjp-Bold-65" transform="translate(202.59996 0)"/>
     <use xlink:href="#NotoSansCJKjp-Bold-78" transform="translate(260.699951 0)"/>
     <use xlink:href="#NotoSansCJKjp-Bold-70" transform="translate(316.899948 0)"/>
     <use xlink:href="#NotoSansCJKjp-Bold-28" transform="translate(381.299942 0)"/>
     <use xlink:href="#NotoSansCJKjp-Bold-78" transform="translate(419.09993 0)"/>
     <use xlink:href="#NotoSansCJKjp-Bold-29" transform="translate(475.299927 0)"/>
     <use xlink:href="#NotoSansCJKjp-Bold-29" transform="translate(513.099915 0)"/>
     <use xlink:href="#NotoSansCJKjp-Bold-3a" transform="translate(550.899902 0)"/>
     <use xlink:href="#NotoSansCJKjp-Bold-20" transform="translate(583.399887 0)"/>
     <use xlink:href="#NotoSansCJKjp-Bold-4e22" transform="translate(606.099884 0)"/>
     <use xlink:href="#NotoSansCJKjp-Bold-5f03" transform="translate(706.099869 0)"/>
    </g>
    <!-- （反向重计算） -->
    <g style="fill: #e2882c" transform="translate(334.24 188.3757) scale(0.07 -0.07)">
     <defs>
      <path id="NotoSansCJKjp-Bold-53cd" d="M 992 5107 
L 992 3315 
C 992 2298 934 858 230 -109 
C 416 -198 742 -422 883 -563 
C 1510 320 1702 1638 1747 2701 
L 1990 2701 
C 2266 1978 2618 1363 3072 864 
C 2592 531 2035 288 1421 134 
C 1581 -38 1779 -365 1875 -576 
C 2547 -365 3155 -77 3680 307 
C 4205 -90 4838 -384 5606 -576 
C 5722 -358 5946 -26 6125 141 
C 5414 294 4819 538 4320 864 
C 4890 1466 5318 2253 5568 3258 
L 5024 3475 
L 4883 3443 
L 1760 3443 
L 1760 4346 
L 5862 4346 
L 5862 5107 
L 992 5107 
z
M 4544 2701 
C 4339 2189 4051 1747 3686 1376 
C 3315 1754 3021 2195 2810 2701 
L 4544 2701 
z
" transform="scale(0.015625)"/>
      <path id="NotoSansCJKjp-Bold-91cd" d="M 979 3456 
L 979 1414 
L 2784 1414 
L 2784 1133 
L 768 1133 
L 768 550 
L 2784 550 
L 2784 218 
L 294 218 
L 294 -390 
L 6125 -390 
L 6125 218 
L 3558 218 
L 3558 550 
L 5709 550 
L 5709 1133 
L 3558 1133 
L 3558 1414 
L 5466 1414 
L 5466 3456 
L 3558 3456 
L 3558 3699 
L 6080 3699 
L 6080 4301 
L 3558 4301 
L 3558 4627 
C 4262 4678 4928 4749 5491 4838 
L 5133 5434 
C 4045 5254 2310 5146 813 5120 
C 877 4966 954 4704 966 4525 
C 1542 4531 2163 4550 2784 4582 
L 2784 4301 
L 333 4301 
L 333 3699 
L 2784 3699 
L 2784 3456 
L 979 3456 
z
M 1728 2208 
L 2784 2208 
L 2784 1920 
L 1728 1920 
L 1728 2208 
z
M 3558 2208 
L 4685 2208 
L 4685 1920 
L 3558 1920 
L 3558 2208 
z
M 1728 2950 
L 2784 2950 
L 2784 2669 
L 1728 2669 
L 1728 2950 
z
M 3558 2950 
L 4685 2950 
L 4685 2669 
L 3558 2669 
L 3558 2950 
z
" transform="scale(0.015625)"/>
     </defs>
     <use xlink:href="#NotoSansCJKjp-Bold-ff08"/>
     <use xlink:href="#NotoSansCJKjp-Bold-53cd" transform="translate(99.999985 0)"/>
     <use xlink:href="#NotoSansCJKjp-Bold-5411" transform="translate(199.999969 0)"/>
     <use xlink:href="#NotoSansCJKjp-Bold-91cd" transform="translate(299.999954 0)"/>
     <use xlink:href="#NotoSansCJKjp-Bold-8ba1" transform="translate(399.999939 0)"/>
     <use xlink:href="#NotoSansCJKjp-Bold-7b97" transform="translate(499.999924 0)"/>
     <use xlink:href="#NotoSansCJKjp-Bold-ff09" transform="translate(599.999908 0)"/>
    </g>
   </g>
   <g id="text_12">
    <!-- sin(cos(exp(x))): 保存 -->
    <g style="fill: #4caf50" transform="translate(381.430938 231.1825) scale(0.07 -0.07)">
     <use xlink:href="#NotoSansCJKjp-Bold-73"/>
     <use xlink:href="#NotoSansCJKjp-Bold-69" transform="translate(49.499985 0)"/>
     <use xlink:href="#NotoSansCJKjp-Bold-6e" transform="translate(79.899979 0)"/>
     <use xlink:href="#NotoSansCJKjp-Bold-28" transform="translate(143.999969 0)"/>
     <use xlink:href="#NotoSansCJKjp-Bold-63" transform="translate(181.799957 0)"/>
     <use xlink:href="#NotoSansCJKjp-Bold-6f" transform="translate(234.499954 0)"/>
     <use xlink:href="#NotoSansCJKjp-Bold-73" transform="translate(297.099945 0)"/>
     <use xlink:href="#NotoSansCJKjp-Bold-28" transform="translate(346.59993 0)"/>
     <use xlink:href="#NotoSansCJKjp-Bold-65" transform="translate(384.399918 0)"/>
     <use xlink:href="#NotoSansCJKjp-Bold-78" transform="translate(442.499908 0)"/>
     <use xlink:href="#NotoSansCJKjp-Bold-70" transform="translate(498.699905 0)"/>
     <use xlink:href="#NotoSansCJKjp-Bold-28" transform="translate(563.099899 0)"/>
     <use xlink:href="#NotoSansCJKjp-Bold-78" transform="translate(600.899887 0)"/>
     <use xlink:href="#NotoSansCJKjp-Bold-29" transform="translate(657.099884 0)"/>
     <use xlink:href="#NotoSansCJKjp-Bold-29" transform="translate(694.899872 0)"/>
     <use xlink:href="#NotoSansCJKjp-Bold-29" transform="translate(732.69986 0)"/>
     <use xlink:href="#NotoSansCJKjp-Bold-3a" transform="translate(770.499847 0)"/>
     <use xlink:href="#NotoSansCJKjp-Bold-20" transform="translate(802.999832 0)"/>
     <use xlink:href="#NotoSansCJKjp-Bold-4fdd" transform="translate(825.699829 0)"/>
     <use xlink:href="#NotoSansCJKjp-Bold-5b58" transform="translate(925.699814 0)"/>
    </g>
   </g>
   <g id="text_13">
    <!-- 反向: exp→cos→ 梯度链 -->
    <g style="fill: #757575" transform="translate(341.227891 269.49021) scale(0.07 -0.07)">
     <defs>
      <path id="NotoSansCJKjp-Regular-3a" d="M 890 2496 
C 1120 2496 1312 2675 1312 2944 
C 1312 3206 1120 3392 890 3392 
C 653 3392 467 3206 467 2944 
C 467 2675 653 2496 890 2496 
z
M 890 -83 
C 1120 -83 1312 96 1312 358 
C 1312 627 1120 806 890 806 
C 653 806 467 627 467 358 
C 467 96 653 -83 890 -83 
z
" transform="scale(0.015625)"/>
      <path id="NotoSansCJKjp-Regular-20" transform="scale(0.015625)"/>
      <path id="NotoSansCJKjp-Regular-65" d="M 1997 -83 
C 2464 -83 2835 70 3136 269 
L 2931 659 
C 2669 486 2400 384 2061 384 
C 1402 384 947 858 909 1600 
L 3251 1600 
C 3264 1690 3277 1805 3277 1933 
C 3277 2925 2778 3565 1888 3565 
C 1094 3565 333 2867 333 1734 
C 333 589 1069 -83 1997 -83 
z
M 902 2016 
C 973 2707 1408 3098 1901 3098 
C 2445 3098 2765 2720 2765 2016 
L 902 2016 
z
" transform="scale(0.015625)"/>
      <path id="NotoSansCJKjp-Regular-78" d="M 96 0 
L 710 0 
L 1178 813 
C 1299 1024 1408 1235 1530 1434 
L 1562 1434 
C 1696 1235 1824 1024 1939 813 
L 2451 0 
L 3091 0 
L 1946 1754 
L 3002 3475 
L 2394 3475 
L 1965 2714 
C 1856 2515 1760 2330 1658 2131 
L 1626 2131 
C 1510 2330 1389 2515 1286 2714 
L 819 3475 
L 186 3475 
L 1242 1811 
L 96 0 
z
" transform="scale(0.015625)"/>
      <path id="NotoSansCJKjp-Regular-70" d="M 589 -1466 
L 1178 -1466 
L 1178 -288 
L 1158 320 
C 1472 58 1805 -83 2118 -83 
C 2912 -83 3629 602 3629 1792 
C 3629 2867 3142 3565 2246 3565 
C 1843 3565 1453 3334 1139 3072 
L 1126 3072 
L 1069 3475 
L 589 3475 
L 589 -1466 
z
M 2022 410 
C 1792 410 1485 499 1178 768 
L 1178 2598 
C 1510 2906 1811 3072 2099 3072 
C 2765 3072 3021 2560 3021 1786 
C 3021 928 2598 410 2022 410 
z
" transform="scale(0.015625)"/>
      <path id="NotoSansCJKjp-Regular-2192" d="M 5190 2650 
L 256 2650 
L 256 2214 
L 5190 2214 
C 4864 1965 4442 1562 4154 1165 
L 4538 941 
C 4966 1504 5606 2067 6176 2432 
C 5606 2797 4966 3360 4538 3923 
L 4154 3699 
C 4442 3302 4864 2899 5190 2650 
z
" transform="scale(0.015625)"/>
      <path id="NotoSansCJKjp-Regular-63" d="M 1958 -83 
C 2374 -83 2771 83 3085 352 
L 2829 749 
C 2611 557 2330 403 2010 403 
C 1370 403 934 934 934 1734 
C 934 2534 1395 3072 2029 3072 
C 2298 3072 2522 2950 2720 2771 
L 3014 3155 
C 2771 3373 2458 3565 2003 3565 
C 1107 3565 333 2893 333 1734 
C 333 582 1037 -83 1958 -83 
z
" transform="scale(0.015625)"/>
      <path id="NotoSansCJKjp-Regular-6f" d="M 1939 -83 
C 2790 -83 3546 582 3546 1734 
C 3546 2893 2790 3565 1939 3565 
C 1088 3565 333 2893 333 1734 
C 333 582 1088 -83 1939 -83 
z
M 1939 403 
C 1338 403 934 934 934 1734 
C 934 2534 1338 3072 1939 3072 
C 2541 3072 2950 2534 2950 1734 
C 2950 934 2541 403 1939 403 
z
" transform="scale(0.015625)"/>
      <path id="NotoSansCJKjp-Regular-73" d="M 1498 -83 
C 2317 -83 2758 384 2758 947 
C 2758 1606 2208 1811 1702 2003 
C 1312 2150 954 2278 954 2605 
C 954 2880 1158 3110 1600 3110 
C 1907 3110 2150 2976 2387 2803 
L 2669 3168 
C 2406 3386 2022 3565 1594 3565 
C 832 3565 397 3130 397 2579 
C 397 1984 922 1754 1408 1574 
C 1792 1434 2202 1267 2202 915 
C 2202 614 1978 371 1517 371 
C 1101 371 794 538 486 787 
L 205 397 
C 531 122 1005 -83 1498 -83 
z
" transform="scale(0.015625)"/>
      <path id="NotoSansCJKjp-Regular-68af" d="M 2797 3117 
C 2720 2573 2586 1856 2464 1395 
L 2912 1350 
L 2963 1574 
L 3866 1574 
C 3456 979 2784 422 2157 134 
C 2266 45 2406 -122 2477 -237 
C 3027 51 3603 557 4032 1120 
L 4032 -506 
L 4474 -506 
L 4474 1574 
L 5600 1574 
C 5549 845 5504 570 5427 480 
C 5389 429 5338 422 5248 422 
C 5165 422 4960 422 4730 448 
C 4794 333 4838 147 4851 13 
C 5101 6 5344 6 5472 19 
C 5619 32 5715 70 5811 173 
C 5946 333 6003 755 6061 1805 
C 6067 1869 6067 1997 6067 1997 
L 4474 1997 
L 4474 2694 
L 5875 2694 
L 5875 4320 
L 5126 4320 
C 5280 4550 5472 4902 5638 5216 
L 5139 5370 
C 5050 5094 4870 4691 4730 4442 
L 5062 4320 
L 3520 4320 
L 3827 4442 
C 3763 4678 3590 5062 3430 5344 
L 3027 5216 
C 3181 4934 3328 4570 3392 4320 
L 2637 4320 
L 2637 3891 
L 4032 3891 
L 4032 3117 
L 2797 3117 
z
M 4032 1997 
L 3053 1997 
L 3181 2694 
L 4032 2694 
L 4032 1997 
z
M 4474 3891 
L 5427 3891 
L 5427 3117 
L 4474 3117 
L 4474 3891 
z
M 1274 5376 
L 1274 3987 
L 333 3987 
L 333 3539 
L 1222 3539 
C 1018 2662 614 1658 198 1120 
C 282 1011 397 826 448 704 
C 755 1120 1050 1805 1274 2509 
L 1274 -506 
L 1722 -506 
L 1722 2566 
C 1914 2266 2131 1888 2227 1690 
L 2502 2048 
C 2387 2214 1894 2912 1722 3123 
L 1722 3539 
L 2490 3539 
L 2490 3987 
L 1722 3987 
L 1722 5376 
L 1274 5376 
z
" transform="scale(0.015625)"/>
      <path id="NotoSansCJKjp-Regular-5ea6" d="M 2470 4141 
L 2470 3584 
L 1440 3584 
L 1440 3187 
L 2470 3187 
L 2470 2125 
L 4960 2125 
L 4960 3187 
L 5997 3187 
L 5997 3584 
L 4960 3584 
L 4960 4141 
L 4486 4141 
L 4486 3584 
L 2931 3584 
L 2931 4141 
L 2470 4141 
z
M 4486 3187 
L 4486 2509 
L 2931 2509 
L 2931 3187 
L 4486 3187 
z
M 4851 1318 
C 4582 986 4211 717 3770 506 
C 3334 723 2970 992 2720 1318 
L 4851 1318 
z
M 1530 1715 
L 1530 1318 
L 2502 1318 
L 2259 1222 
C 2515 858 2861 550 3270 301 
C 2662 90 1978 -38 1280 -109 
C 1357 -211 1453 -397 1485 -512 
C 2291 -416 3072 -243 3757 45 
C 4365 -237 5088 -422 5869 -525 
C 5933 -403 6048 -211 6150 -109 
C 5466 -38 4819 96 4269 294 
C 4813 608 5261 1024 5549 1574 
L 5248 1734 
L 5165 1715 
L 1530 1715 
z
M 774 4742 
L 774 2893 
C 774 1965 730 659 198 -256 
C 314 -307 512 -435 595 -518 
C 1152 448 1235 1901 1235 2893 
L 1235 4307 
L 6035 4307 
L 6035 4742 
L 3635 4742 
L 3635 5376 
L 3142 5376 
L 3142 4742 
L 774 4742 
z
" transform="scale(0.015625)"/>
      <path id="NotoSansCJKjp-Regular-94fe" d="M 2246 4992 
C 2438 4640 2656 4160 2746 3853 
L 3162 4006 
C 3066 4314 2842 4774 2637 5126 
L 2246 4992 
z
M 883 5363 
C 736 4762 486 4166 173 3770 
C 256 3667 384 3443 416 3341 
C 608 3584 781 3885 928 4218 
L 2157 4218 
L 2157 4646 
L 1101 4646 
C 1178 4845 1242 5050 1293 5254 
L 883 5363 
z
M 307 2125 
L 307 1702 
L 1030 1702 
L 1030 512 
C 1030 205 826 -13 710 -102 
C 794 -179 922 -339 966 -435 
C 1056 -320 1210 -198 2176 467 
C 2131 557 2067 723 2035 838 
L 1472 467 
L 1472 1702 
L 2182 1702 
L 2182 2125 
L 1472 2125 
L 1472 3027 
L 2042 3027 
L 2042 3450 
L 525 3450 
L 525 3027 
L 1030 3027 
L 1030 2125 
L 307 2125 
z
M 3328 1862 
L 3328 1440 
L 4570 1440 
L 4570 339 
L 4998 339 
L 4998 1440 
L 6080 1440 
L 6080 1862 
L 4998 1862 
L 4998 2714 
L 5939 2714 
L 5946 3123 
L 4998 3123 
L 4998 3891 
L 4570 3891 
L 4570 3123 
L 3898 3123 
C 4058 3443 4218 3808 4365 4198 
L 6112 4198 
L 6112 4614 
L 4512 4614 
C 4589 4845 4659 5075 4723 5299 
L 4262 5395 
C 4211 5133 4141 4864 4064 4614 
L 3270 4614 
L 3270 4198 
L 3923 4198 
C 3808 3853 3693 3578 3642 3462 
C 3533 3232 3443 3066 3341 3040 
C 3392 2925 3462 2714 3482 2624 
C 3539 2675 3738 2714 3981 2714 
L 4570 2714 
L 4570 1862 
L 3328 1862 
z
M 3123 3098 
L 2067 3098 
L 2067 2656 
L 2682 2656 
L 2682 595 
C 2445 486 2182 256 1926 -13 
L 2240 -454 
C 2490 -102 2765 237 2944 237 
C 3072 237 3245 70 3462 -77 
C 3802 -294 4192 -378 4730 -378 
C 5114 -378 5766 -358 6106 -339 
C 6112 -205 6170 26 6221 154 
C 5798 102 5139 77 4736 77 
C 4237 77 3859 134 3546 339 
C 3366 454 3238 557 3123 614 
L 3123 3098 
z
" transform="scale(0.015625)"/>
     </defs>
     <use xlink:href="#NotoSansCJKjp-Regular-53cd"/>
     <use xlink:href="#NotoSansCJKjp-Regular-5411" transform="translate(99.999985 0)"/>
     <use xlink:href="#NotoSansCJKjp-Regular-3a" transform="translate(199.999969 0)"/>
     <use xlink:href="#NotoSansCJKjp-Regular-20" transform="translate(227.799957 0)"/>
     <use xlink:href="#NotoSansCJKjp-Regular-65" transform="translate(250.199951 0)"/>
     <use xlink:href="#NotoSansCJKjp-Regular-78" transform="translate(305.599945 0)"/>
     <use xlink:href="#NotoSansCJKjp-Regular-70" transform="translate(355.399933 0)"/>
     <use xlink:href="#NotoSansCJKjp-Regular-2192" transform="translate(417.399918 0)"/>
     <use xlink:href="#NotoSansCJKjp-Regular-63" transform="translate(517.399902 0)"/>
     <use xlink:href="#NotoSansCJKjp-Regular-6f" transform="translate(568.399887 0)"/>
     <use xlink:href="#NotoSansCJKjp-Regular-73" transform="translate(628.999878 0)"/>
     <use xlink:href="#NotoSansCJKjp-Regular-2192" transform="translate(675.799866 0)"/>
     <use xlink:href="#NotoSansCJKjp-Regular-20" transform="translate(775.79985 0)"/>
     <use xlink:href="#NotoSansCJKjp-Regular-68af" transform="translate(798.199844 0)"/>
     <use xlink:href="#NotoSansCJKjp-Regular-5ea6" transform="translate(898.199829 0)"/>
     <use xlink:href="#NotoSansCJKjp-Regular-94fe" transform="translate(998.199814 0)"/>
    </g>
   </g>
   <g id="text_14">
    <!-- sin→ 直接使用 -->
    <g style="fill: #757575" transform="translate(397.598906 294.629856) scale(0.06 -0.06)">
     <defs>
      <path id="NotoSansCJKjp-Regular-69" d="M 589 0 
L 1178 0 
L 1178 3475 
L 589 3475 
L 589 0 
z
M 883 4192 
C 1114 4192 1274 4346 1274 4582 
C 1274 4806 1114 4960 883 4960 
C 653 4960 499 4806 499 4582 
C 499 4346 653 4192 883 4192 
z
" transform="scale(0.015625)"/>
      <path id="NotoSansCJKjp-Regular-6e" d="M 589 0 
L 1178 0 
L 1178 2522 
C 1523 2874 1766 3053 2125 3053 
C 2586 3053 2784 2778 2784 2125 
L 2784 0 
L 3366 0 
L 3366 2202 
C 3366 3085 3034 3565 2304 3565 
C 1830 3565 1466 3302 1139 2970 
L 1126 2970 
L 1069 3475 
L 589 3475 
L 589 0 
z
" transform="scale(0.015625)"/>
     </defs>
     <use xlink:href="#NotoSansCJKjp-Regular-73"/>
     <use xlink:href="#NotoSansCJKjp-Regular-69" transform="translate(46.799988 0)"/>
     <use xlink:href="#NotoSansCJKjp-Regular-6e" transform="translate(74.299973 0)"/>
     <use xlink:href="#NotoSansCJKjp-Regular-2192" transform="translate(135.299957 0)"/>
     <use xlink:href="#NotoSansCJKjp-Regular-20" transform="translate(235.299942 0)"/>
     <use xlink:href="#NotoSansCJKjp-Regular-76f4" transform="translate(257.699936 0)"/>
     <use xlink:href="#NotoSansCJKjp-Regular-63a5" transform="translate(357.699921 0)"/>
     <use xlink:href="#NotoSansCJKjp-Regular-4f7f" transform="translate(457.699905 0)"/>
     <use xlink:href="#NotoSansCJKjp-Regular-7528" transform="translate(557.69989 0)"/>
    </g>
   </g>
   <g id="patch_19">
    <path d="M 383.85 103.02318 
Q 383.85 111.686221 383.85 118.672211 
" style="fill: none; stroke: #616161; stroke-width: 1.5; stroke-linecap: round"/>
    <path d="M 386.05 114.272211 
L 383.85 118.672211 
L 381.65 114.272211 
" style="fill: none; stroke: #616161; stroke-width: 1.5; stroke-linecap: round"/>
   </g>
   <g id="patch_20">
    <path d="M 333.63 149.933949 
Q 333.63 158.59699 333.63 165.58298 
" style="fill: none; stroke: #616161; stroke-width: 1.5; stroke-linecap: round"/>
    <path d="M 335.83 161.18298 
L 333.63 165.58298 
L 331.43 161.18298 
" style="fill: none; stroke: #616161; stroke-width: 1.5; stroke-linecap: round"/>
   </g>
   <g id="patch_21">
    <path d="M 417.33 243.756008 
Q 417.33 248.151986 417.33 250.870913 
" style="fill: none; stroke: #616161; stroke-width: 1.5; stroke-linecap: round"/>
    <path d="M 419.53 246.470913 
L 417.33 250.870913 
L 415.13 246.470913 
" style="fill: none; stroke: #616161; stroke-width: 1.5; stroke-linecap: round"/>
   </g>
   <g id="patch_22">
    <path d="M 358.74 196.84628 
Q 358.74 203.372308 358.74 208.221285 
" style="fill: none; stroke: #e2882c; stroke-width: 1.5; stroke-linecap: round"/>
    <path d="M 360.94 203.821285 
L 358.74 208.221285 
L 356.54 203.821285 
" style="fill: none; stroke: #e2882c; stroke-width: 1.5; stroke-linecap: round"/>
   </g>
   <g id="text_15">
    <!-- 重计算 -->
    <g style="fill: #e2882c" transform="translate(189.21 235.208678) scale(0.07 -0.07)">
     <defs>
      <path id="NotoSansCJKjp-Regular-91cd" d="M 1018 3456 
L 1018 1466 
L 2938 1466 
L 2938 1024 
L 813 1024 
L 813 640 
L 2938 640 
L 2938 83 
L 333 83 
L 333 -307 
L 6074 -307 
L 6074 83 
L 3418 83 
L 3418 640 
L 5670 640 
L 5670 1024 
L 3418 1024 
L 3418 1466 
L 5427 1466 
L 5427 3456 
L 3418 3456 
L 3418 3846 
L 6042 3846 
L 6042 4243 
L 3418 4243 
L 3418 4736 
C 4166 4794 4870 4870 5421 4966 
L 5165 5338 
C 4154 5158 2342 5037 851 4998 
C 896 4902 947 4730 954 4621 
C 1581 4634 2266 4659 2938 4698 
L 2938 4243 
L 371 4243 
L 371 3846 
L 2938 3846 
L 2938 3456 
L 1018 3456 
z
M 1485 2304 
L 2938 2304 
L 2938 1818 
L 1485 1818 
L 1485 2304 
z
M 3418 2304 
L 4941 2304 
L 4941 1818 
L 3418 1818 
L 3418 2304 
z
M 1485 3110 
L 2938 3110 
L 2938 2630 
L 1485 2630 
L 1485 3110 
z
M 3418 3110 
L 4941 3110 
L 4941 2630 
L 3418 2630 
L 3418 3110 
z
" transform="scale(0.015625)"/>
      <path id="NotoSansCJKjp-Regular-8ba1" d="M 877 4960 
C 1235 4659 1683 4224 1888 3949 
L 2214 4307 
C 1997 4570 1542 4979 1190 5267 
L 877 4960 
z
M 294 3366 
L 294 2893 
L 1312 2893 
L 1312 595 
C 1312 320 1114 128 992 51 
C 1082 -45 1210 -262 1254 -390 
C 1357 -256 1536 -115 2746 742 
C 2694 832 2618 1037 2586 1165 
L 1798 627 
L 1798 3366 
L 294 3366 
z
M 4006 5357 
L 4006 3251 
L 2381 3251 
L 2381 2758 
L 4006 2758 
L 4006 -512 
L 4512 -512 
L 4512 2758 
L 6138 2758 
L 6138 3251 
L 4512 3251 
L 4512 5357 
L 4006 5357 
z
" transform="scale(0.015625)"/>
      <path id="NotoSansCJKjp-Regular-7b97" d="M 1613 2925 
L 4890 2925 
L 4890 2547 
L 1613 2547 
L 1613 2925 
z
M 1613 2240 
L 4890 2240 
L 4890 1856 
L 1613 1856 
L 1613 2240 
z
M 1613 3597 
L 4890 3597 
L 4890 3232 
L 1613 3232 
L 1613 3597 
z
M 3686 5408 
C 3507 4915 3181 4448 2790 4141 
C 2899 4096 3085 3994 3181 3923 
L 1894 3923 
L 2259 4058 
C 2214 4179 2118 4352 2016 4506 
L 3117 4506 
L 3117 4902 
L 1427 4902 
C 1498 5030 1562 5158 1619 5286 
L 1171 5408 
C 966 4909 614 4410 224 4083 
C 333 4019 525 3891 614 3814 
C 813 4000 1011 4243 1184 4506 
L 1517 4506 
C 1645 4314 1773 4077 1837 3923 
L 1133 3923 
L 1133 1530 
L 1990 1530 
L 1990 1114 
L 1984 973 
L 358 973 
L 358 576 
L 1830 576 
C 1651 307 1267 38 461 -160 
C 563 -250 698 -416 762 -518 
C 1786 -224 2214 179 2381 576 
L 4109 576 
L 4109 -499 
L 4602 -499 
L 4602 576 
L 6067 576 
L 6067 973 
L 4602 973 
L 4602 1530 
L 5389 1530 
L 5389 3923 
L 4749 3923 
L 5094 4083 
C 5030 4205 4915 4358 4787 4506 
L 6016 4506 
L 6016 4902 
L 3968 4902 
C 4038 5030 4096 5165 4147 5299 
L 3686 5408 
z
M 4109 973 
L 2470 973 
L 2477 1101 
L 2477 1530 
L 4109 1530 
L 4109 973 
z
M 3232 3923 
C 3405 4083 3578 4282 3731 4506 
L 4243 4506 
C 4416 4320 4595 4090 4678 3923 
L 3232 3923 
z
" transform="scale(0.015625)"/>
     </defs>
     <use xlink:href="#NotoSansCJKjp-Regular-91cd"/>
     <use xlink:href="#NotoSansCJKjp-Regular-8ba1" transform="translate(99.999985 0)"/>
     <use xlink:href="#NotoSansCJKjp-Regular-7b97" transform="translate(199.999969 0)"/>
    </g>
   </g>
  </g>
 </g>
 <defs>
  <clipPath id="p47aa4af4e6">
   <rect x="7.2" y="7.2" width="502.2" height="277.2"/>
  </clipPath>
 </defs>
</svg>
