<?xml version="1.0" encoding="utf-8" standalone="no"?>
<!DOCTYPE svg PUBLIC "-//W3C//DTD SVG 1.1//EN"
  "http://www.w3.org/Graphics/SVG/1.1/DTD/svg11.dtd">
<svg xmlns:xlink="http://www.w3.org/1999/xlink" width="462.044719pt" height="319.32pt" viewBox="0 0 462.044719 319.32" xmlns="http://www.w3.org/2000/svg" version="1.1">
 <metadata>
  <rdf:RDF xmlns:dc="http://purl.org/dc/elements/1.1/" xmlns:cc="http://creativecommons.org/ns#" xmlns:rdf="http://www.w3.org/1999/02/22-rdf-syntax-ns#">
   <cc:Work>
    <dc:type rdf:resource="http://purl.org/dc/dcmitype/StillImage"/>
    <dc:date>2026-07-11T14:07:15.996971</dc:date>
    <dc:format>image/svg+xml</dc:format>
    <dc:creator>
     <cc:Agent>
      <dc:title>Matplotlib v3.10.9, https://matplotlib.org/</dc:title>
     </cc:Agent>
    </dc:creator>
   </cc:Work>
  </rdf:RDF>
 </metadata>
 <defs>
  <style type="text/css">*{stroke-linejoin: round; stroke-linecap: butt}</style>
 </defs>
 <g id="figure_1">
  <g id="patch_1">
   <path d="M 0 319.32 
L 462.044719 319.32 
L 462.044719 0 
L 0 0 
z
" style="fill: #ffffff"/>
  </g>
  <g id="axes_1">
   <g id="patch_2">
    <path d="M 230.4 47.074154 
L 246.024 63.492923 
L 230.4 79.911692 
L 214.776 63.492923 
z
" clip-path="url(#pbf08118e4d)" style="fill: #757575; opacity: 0.1; stroke: #757575; stroke-width: 1.5; stroke-linejoin: miter"/>
   </g>
   <g id="patch_3">
    <path d="M 230.4 108.058154 
L 246.024 124.476923 
L 230.4 140.895692 
L 214.776 124.476923 
z
" clip-path="url(#pbf08118e4d)" style="fill: #757575; opacity: 0.1; stroke: #757575; stroke-width: 1.5; stroke-linejoin: miter"/>
   </g>
   <g id="patch_4">
    <path d="M 20.592 161.067323 
L 154.512 161.067323 
Q 158.0832 161.067323 158.0832 157.314462 
L 158.0832 133.859077 
Q 158.0832 130.106215 154.512 130.106215 
L 20.592 130.106215 
Q 17.0208 130.106215 17.0208 133.859077 
L 17.0208 157.314462 
Q 17.0208 161.067323 20.592 161.067323 
z
" clip-path="url(#pbf08118e4d)" style="fill: #e2882c; opacity: 0.1; stroke: #e2882c; stroke-width: 2; stroke-linejoin: miter"/>
   </g>
   <g id="patch_5">
    <path d="M 306.288 161.067323 
L 440.208 161.067323 
Q 443.7792 161.067323 443.7792 157.314462 
L 443.7792 133.859077 
Q 443.7792 130.106215 440.208 130.106215 
L 306.288 130.106215 
Q 302.7168 130.106215 302.7168 133.859077 
L 302.7168 157.314462 
Q 302.7168 161.067323 306.288 161.067323 
z
" clip-path="url(#pbf08118e4d)" style="fill: #4caf50; opacity: 0.1; stroke: #4caf50; stroke-width: 2; stroke-linejoin: miter"/>
   </g>
   <g id="patch_6">
    <path d="M 87.552 199.534154 
L 100.944 213.607385 
L 87.552 227.680615 
L 74.16 213.607385 
z
" clip-path="url(#pbf08118e4d)" style="fill: #757575; opacity: 0.1; stroke: #757575; stroke-width: 1.5; stroke-linejoin: miter"/>
   </g>
   <g id="patch_7">
    <path d="M 373.248 199.534154 
L 386.64 213.607385 
L 373.248 227.680615 
L 359.856 213.607385 
z
" clip-path="url(#pbf08118e4d)" style="fill: #757575; opacity: 0.1; stroke: #757575; stroke-width: 1.5; stroke-linejoin: miter"/>
   </g>
   <g id="patch_8">
    <path d="M 7.2 312.12 
L 453.6 312.12 
L 453.6 241.753846 
L 7.2 241.753846 
z
" clip-path="url(#pbf08118e4d)" style="fill: #2c5f8a; opacity: 0.04"/>
   </g>
   <g id="patch_9">
    <path d="M 29.52 287.7264 
L 118.8 287.7264 
Q 122.3712 287.7264 122.3712 283.973538 
L 122.3712 260.518154 
Q 122.3712 256.765292 118.8 256.765292 
L 29.52 256.765292 
Q 25.9488 256.765292 25.9488 260.518154 
L 25.9488 283.973538 
Q 25.9488 287.7264 29.52 287.7264 
z
" clip-path="url(#pbf08118e4d)" style="fill: #757575; opacity: 0.1; stroke: #757575; stroke-width: 2; stroke-linejoin: miter"/>
   </g>
   <g id="patch_10">
    <path d="M 141.12 287.7264 
L 230.4 287.7264 
Q 233.9712 287.7264 233.9712 283.973538 
L 233.9712 260.518154 
Q 233.9712 256.765292 230.4 256.765292 
L 141.12 256.765292 
Q 137.5488 256.765292 137.5488 260.518154 
L 137.5488 283.973538 
Q 137.5488 287.7264 141.12 287.7264 
z
" clip-path="url(#pbf08118e4d)" style="fill: #757575; opacity: 0.1; stroke: #757575; stroke-width: 2; stroke-linejoin: miter"/>
   </g>
   <g id="patch_11">
    <path d="M 252.72 287.7264 
L 342 287.7264 
Q 345.5712 287.7264 345.5712 283.973538 
L 345.5712 260.518154 
Q 345.5712 256.765292 342 256.765292 
L 252.72 256.765292 
Q 249.1488 256.765292 249.1488 260.518154 
L 249.1488 283.973538 
Q 249.1488 287.7264 252.72 287.7264 
z
" clip-path="url(#pbf08118e4d)" style="fill: #2c5f8a; opacity: 0.1; stroke: #2c5f8a; stroke-width: 2; stroke-linejoin: miter"/>
   </g>
   <g id="patch_12">
    <path d="M 364.32 287.7264 
L 444.672 287.7264 
Q 448.2432 287.7264 448.2432 283.973538 
L 448.2432 260.518154 
Q 448.2432 256.765292 444.672 256.765292 
L 364.32 256.765292 
Q 360.7488 256.765292 360.7488 260.518154 
L 360.7488 283.973538 
Q 360.7488 287.7264 364.32 287.7264 
z
" clip-path="url(#pbf08118e4d)" style="fill: #e2882c; opacity: 0.1; stroke: #e2882c; stroke-width: 2; stroke-linejoin: miter"/>
   </g>
   <g id="text_1">
    <!-- Minimizer 模式选择 -->
    <g style="fill: #2c5f8a" transform="translate(171.0875 25.062528) scale(0.13 -0.13)">
     <defs>
      <path id="NotoSansCJKjp-Bold-4d" d="M 582 0 
L 1434 0 
L 1434 1978 
C 1434 2432 1357 3085 1312 3533 
L 1338 3533 
L 1715 2419 
L 2451 429 
L 2995 429 
L 3725 2419 
L 4109 3533 
L 4141 3533 
C 4090 3085 4019 2432 4019 1978 
L 4019 0 
L 4883 0 
L 4883 4742 
L 3834 4742 
L 3040 2515 
C 2944 2227 2861 1914 2758 1613 
L 2726 1613 
C 2630 1914 2541 2227 2438 2515 
L 1632 4742 
L 582 4742 
L 582 0 
z
" transform="scale(0.015625)"/>
      <path id="NotoSansCJKjp-Bold-69" d="M 506 0 
L 1446 0 
L 1446 3584 
L 506 3584 
L 506 0 
z
M 979 4166 
C 1299 4166 1523 4365 1523 4678 
C 1523 4986 1299 5190 979 5190 
C 646 5190 435 4986 435 4678 
C 435 4365 646 4166 979 4166 
z
" transform="scale(0.015625)"/>
      <path id="NotoSansCJKjp-Bold-6e" d="M 506 0 
L 1446 0 
L 1446 2464 
C 1709 2726 1901 2867 2189 2867 
C 2541 2867 2694 2675 2694 2118 
L 2694 0 
L 3635 0 
L 3635 2234 
C 3635 3136 3302 3674 2528 3674 
C 2042 3674 1677 3418 1363 3110 
L 1344 3110 
L 1274 3584 
L 506 3584 
L 506 0 
z
" transform="scale(0.015625)"/>
      <path id="NotoSansCJKjp-Bold-6d" d="M 506 0 
L 1446 0 
L 1446 2464 
C 1696 2739 1926 2867 2131 2867 
C 2477 2867 2637 2675 2637 2118 
L 2637 0 
L 3571 0 
L 3571 2464 
C 3827 2739 4058 2867 4262 2867 
C 4602 2867 4762 2675 4762 2118 
L 4762 0 
L 5696 0 
L 5696 2234 
C 5696 3136 5350 3674 4589 3674 
C 4128 3674 3776 3392 3443 3046 
C 3277 3443 2976 3674 2464 3674 
C 1997 3674 1664 3418 1363 3104 
L 1344 3104 
L 1274 3584 
L 506 3584 
L 506 0 
z
" transform="scale(0.015625)"/>
      <path id="NotoSansCJKjp-Bold-7a" d="M 262 0 
L 3098 0 
L 3098 742 
L 1434 742 
L 3040 3078 
L 3040 3584 
L 442 3584 
L 442 2842 
L 1869 2842 
L 262 499 
L 262 0 
z
" transform="scale(0.015625)"/>
      <path id="NotoSansCJKjp-Bold-65" d="M 2067 -90 
C 2509 -90 2963 64 3315 307 
L 2995 883 
C 2733 723 2483 640 2195 640 
C 1658 640 1274 941 1197 1523 
L 3405 1523 
C 3430 1613 3450 1786 3450 1958 
C 3450 2957 2938 3674 1952 3674 
C 1101 3674 282 2950 282 1792 
C 282 608 1062 -90 2067 -90 
z
M 1178 2157 
C 1254 2675 1587 2944 1965 2944 
C 2432 2944 2643 2637 2643 2157 
L 1178 2157 
z
" transform="scale(0.015625)"/>
      <path id="NotoSansCJKjp-Bold-72" d="M 506 0 
L 1446 0 
L 1446 2138 
C 1651 2656 1984 2842 2259 2842 
C 2413 2842 2515 2822 2643 2784 
L 2797 3597 
C 2694 3642 2579 3674 2381 3674 
C 2010 3674 1626 3418 1363 2950 
L 1344 2950 
L 1274 3584 
L 506 3584 
L 506 0 
z
" transform="scale(0.015625)"/>
      <path id="NotoSansCJKjp-Bold-20" transform="scale(0.015625)"/>
      <path id="NotoSansCJKjp-Bold-6a21" d="M 3277 2586 
L 5037 2586 
L 5037 2304 
L 3277 2304 
L 3277 2586 
z
M 3277 3360 
L 5037 3360 
L 5037 3085 
L 3277 3085 
L 3277 3360 
z
M 4608 5440 
L 4608 4998 
L 3866 4998 
L 3866 5440 
L 3136 5440 
L 3136 4998 
L 2387 4998 
L 2387 4371 
L 3136 4371 
L 3136 4006 
L 3866 4006 
L 3866 4371 
L 4608 4371 
L 4608 4006 
L 5350 4006 
L 5350 4371 
L 6074 4371 
L 6074 4998 
L 5350 4998 
L 5350 5440 
L 4608 5440 
z
M 2566 3891 
L 2566 1773 
L 3795 1773 
C 3782 1645 3763 1517 3744 1402 
L 2272 1402 
L 2272 768 
L 3494 768 
C 3258 435 2829 198 2029 38 
C 2176 -109 2355 -390 2419 -576 
C 3475 -320 4000 77 4269 634 
C 4589 45 5075 -365 5798 -563 
C 5901 -371 6112 -77 6272 70 
C 5696 186 5267 422 4979 768 
L 6099 768 
L 6099 1402 
L 4499 1402 
L 4544 1773 
L 5779 1773 
L 5779 3891 
L 2566 3891 
z
M 966 5440 
L 966 4243 
L 269 4243 
L 269 3533 
L 966 3533 
L 966 3373 
C 787 2643 474 1818 115 1357 
C 243 1152 410 800 486 582 
C 659 851 826 1216 966 1626 
L 966 -570 
L 1690 -570 
L 1690 2336 
C 1824 2067 1946 1792 2016 1600 
L 2470 2138 
C 2362 2323 1875 3066 1690 3309 
L 1690 3533 
L 2272 3533 
L 2272 4243 
L 1690 4243 
L 1690 5440 
L 966 5440 
z
" transform="scale(0.015625)"/>
      <path id="NotoSansCJKjp-Bold-5f0f" d="M 3475 5414 
C 3475 5056 3482 4698 3494 4346 
L 326 4346 
L 326 3597 
L 3533 3597 
C 3686 1325 4166 -576 5267 -576 
C 5875 -576 6138 -282 6253 941 
C 6042 1024 5754 1210 5581 1389 
C 5549 576 5472 230 5338 230 
C 4870 230 4474 1722 4339 3597 
L 6086 3597 
L 6086 4346 
L 5478 4346 
L 5926 4730 
C 5741 4941 5370 5242 5075 5440 
L 4570 5018 
C 4826 4826 5139 4557 5318 4346 
L 4307 4346 
C 4294 4698 4294 5056 4301 5414 
L 3475 5414 
z
M 326 378 
L 538 -397 
C 1370 -224 2509 13 3558 243 
L 3507 928 
L 2304 710 
L 2304 2125 
L 3341 2125 
L 3341 2867 
L 570 2867 
L 570 2125 
L 1536 2125 
L 1536 576 
C 1075 499 659 429 326 378 
z
" transform="scale(0.015625)"/>
      <path id="NotoSansCJKjp-Bold-9009" d="M 282 4826 
C 634 4512 1062 4064 1242 3757 
L 1875 4237 
C 1670 4544 1229 4966 864 5254 
L 282 4826 
z
M 2701 5242 
C 2554 4685 2278 4122 1933 3770 
C 2106 3680 2419 3482 2560 3360 
C 2707 3533 2848 3750 2982 3987 
L 3776 3987 
L 3776 3245 
L 2029 3245 
L 2029 2579 
L 3078 2579 
C 2989 1952 2758 1453 1894 1139 
C 2067 992 2272 698 2355 506 
C 3430 954 3731 1677 3859 2579 
L 4269 2579 
L 4269 1453 
C 4269 774 4397 550 5011 550 
C 5126 550 5376 550 5498 550 
C 5965 550 6157 768 6234 1626 
C 6022 1677 5702 1798 5562 1920 
C 5542 1338 5517 1254 5414 1254 
C 5363 1254 5184 1254 5146 1254 
C 5037 1254 5030 1274 5030 1459 
L 5030 2579 
L 6138 2579 
L 6138 3245 
L 4538 3245 
L 4538 3987 
L 5875 3987 
L 5875 4634 
L 4538 4634 
L 4538 5402 
L 3776 5402 
L 3776 4634 
L 3277 4634 
C 3334 4781 3386 4928 3424 5082 
L 2701 5242 
z
M 1741 2970 
L 294 2970 
L 294 2259 
L 1005 2259 
L 1005 614 
C 742 474 467 262 205 32 
L 717 -640 
C 1056 -237 1414 134 1651 134 
C 1792 134 1990 -51 2253 -211 
C 2682 -454 3194 -531 3949 -531 
C 4576 -531 5542 -499 6016 -467 
C 6022 -262 6144 122 6221 326 
C 5600 237 4608 179 3968 179 
C 3302 179 2752 218 2349 461 
C 2067 627 1914 781 1741 819 
L 1741 2970 
z
" transform="scale(0.015625)"/>
      <path id="NotoSansCJKjp-Bold-62e9" d="M 979 5434 
L 979 4230 
L 256 4230 
L 256 3526 
L 979 3526 
L 979 2400 
L 166 2202 
L 333 1466 
L 979 1651 
L 979 250 
C 979 166 947 141 870 141 
C 794 134 563 134 339 147 
C 435 -58 525 -378 544 -576 
C 966 -576 1254 -550 1459 -429 
C 1664 -307 1722 -115 1722 250 
L 1722 1862 
L 2394 2061 
L 2298 2752 
L 1722 2598 
L 1722 3526 
L 2400 3526 
L 2400 4230 
L 1722 4230 
L 1722 5434 
L 979 5434 
z
M 4838 4506 
C 4672 4301 4474 4109 4243 3930 
C 4032 4109 3846 4301 3686 4506 
L 4838 4506 
z
M 2560 5178 
L 2560 4506 
L 2944 4506 
C 3149 4154 3398 3834 3680 3558 
C 3232 3296 2726 3091 2214 2963 
C 2355 2822 2528 2534 2611 2355 
C 3174 2534 3725 2778 4224 3104 
C 4698 2765 5242 2509 5850 2342 
C 5946 2534 6157 2829 6317 2982 
C 5760 3098 5254 3290 4813 3539 
C 5274 3936 5651 4410 5907 4966 
L 5446 5210 
L 5325 5178 
L 2560 5178 
z
M 3834 2662 
L 3834 2157 
L 2643 2157 
L 2643 1485 
L 3834 1485 
L 3834 1043 
L 2323 1043 
L 2323 365 
L 3834 365 
L 3834 -576 
L 4602 -576 
L 4602 365 
L 6157 365 
L 6157 1043 
L 4602 1043 
L 4602 1485 
L 5754 1485 
L 5754 2157 
L 4602 2157 
L 4602 2662 
L 3834 2662 
z
" transform="scale(0.015625)"/>
     </defs>
     <use xlink:href="#NotoSansCJKjp-Bold-4d"/>
     <use xlink:href="#NotoSansCJKjp-Bold-69" transform="translate(85.299988 0)"/>
     <use xlink:href="#NotoSansCJKjp-Bold-6e" transform="translate(115.699982 0)"/>
     <use xlink:href="#NotoSansCJKjp-Bold-69" transform="translate(179.799973 0)"/>
     <use xlink:href="#NotoSansCJKjp-Bold-6d" transform="translate(210.199966 0)"/>
     <use xlink:href="#NotoSansCJKjp-Bold-69" transform="translate(306.59996 0)"/>
     <use xlink:href="#NotoSansCJKjp-Bold-7a" transform="translate(336.999954 0)"/>
     <use xlink:href="#NotoSansCJKjp-Bold-65" transform="translate(388.099945 0)"/>
     <use xlink:href="#NotoSansCJKjp-Bold-72" transform="translate(446.199936 0)"/>
     <use xlink:href="#NotoSansCJKjp-Bold-20" transform="translate(489.799927 0)"/>
     <use xlink:href="#NotoSansCJKjp-Bold-6a21" transform="translate(512.499924 0)"/>
     <use xlink:href="#NotoSansCJKjp-Bold-5f0f" transform="translate(612.499908 0)"/>
     <use xlink:href="#NotoSansCJKjp-Bold-9009" transform="translate(712.499893 0)"/>
     <use xlink:href="#NotoSansCJKjp-Bold-62e9" transform="translate(812.499878 0)"/>
    </g>
   </g>
   <g id="text_2">
    <!-- 编译失败? -->
    <g style="fill: #757575" transform="translate(212.34375 65.824798) scale(0.08 -0.08)">
     <defs>
      <path id="NotoSansCJKjp-Bold-7f16" d="M 378 2643 
C 474 2694 621 2733 1114 2797 
C 928 2483 762 2246 678 2138 
C 493 1901 358 1747 205 1715 
C 282 1536 397 1216 429 1082 
C 570 1178 813 1261 2182 1594 
C 2157 1741 2138 2016 2144 2208 
L 1350 2042 
C 1741 2579 2112 3200 2406 3802 
L 1818 4154 
C 1722 3917 1606 3680 1485 3450 
L 1030 3418 
C 1363 3949 1683 4595 1907 5216 
L 1190 5466 
C 1005 4710 621 3898 499 3693 
C 371 3482 275 3341 147 3309 
C 230 3123 339 2784 378 2643 
z
M 3776 5280 
C 3840 5133 3917 4954 3974 4787 
L 2579 4787 
L 2579 3392 
C 2579 2611 2541 1530 2214 614 
L 2074 1197 
C 1376 909 653 614 173 448 
L 352 -250 
L 2208 589 
C 2125 358 2022 141 1901 -58 
C 2054 -128 2362 -358 2477 -486 
C 2816 58 3014 762 3130 1466 
L 3130 -512 
L 3712 -512 
L 3712 832 
L 4006 832 
L 4006 -384 
L 4474 -384 
L 4474 832 
L 4736 832 
L 4736 -371 
L 5197 -371 
L 5197 832 
L 5466 832 
L 5466 90 
C 5466 38 5453 26 5414 26 
C 5382 26 5299 26 5203 26 
C 5274 -115 5344 -352 5357 -518 
C 5574 -518 5734 -506 5875 -410 
C 6016 -314 6042 -160 6042 77 
L 6042 2714 
L 3258 2714 
L 3270 3091 
L 5939 3091 
L 5939 4787 
L 4819 4787 
C 4749 4998 4627 5280 4518 5491 
L 3776 5280 
z
M 4006 2099 
L 4006 1414 
L 3712 1414 
L 3712 2099 
L 4006 2099 
z
M 4474 2099 
L 4736 2099 
L 4736 1414 
L 4474 1414 
L 4474 2099 
z
M 5197 2099 
L 5466 2099 
L 5466 1414 
L 5197 1414 
L 5197 2099 
z
M 3270 4166 
L 5229 4166 
L 5229 3706 
L 3270 3706 
L 3270 4166 
z
" transform="scale(0.015625)"/>
      <path id="NotoSansCJKjp-Bold-8bd1" d="M 480 4973 
C 742 4608 1062 4102 1190 3782 
L 1818 4211 
C 1677 4518 1344 4998 1069 5350 
L 480 4973 
z
M 3718 2662 
L 3718 2157 
L 2573 2157 
L 2573 1491 
L 3718 1491 
L 3718 1011 
L 2240 1011 
C 2182 1133 2131 1267 2093 1376 
L 1722 1069 
L 1722 3482 
L 250 3482 
L 250 2746 
L 979 2746 
L 979 774 
C 979 429 787 186 653 64 
C 768 -51 973 -326 1043 -480 
C 1139 -333 1318 -160 2214 589 
L 2214 333 
L 3718 333 
L 3718 -576 
L 4474 -576 
L 4474 333 
L 6125 333 
L 6125 1011 
L 4474 1011 
L 4474 1491 
L 5696 1491 
L 5696 2157 
L 4474 2157 
L 4474 2662 
L 3718 2662 
z
M 4813 4518 
C 4627 4301 4403 4096 4147 3910 
C 3891 4090 3667 4294 3482 4518 
L 4813 4518 
z
M 2234 5178 
L 2234 4518 
L 2714 4518 
C 2944 4154 3219 3821 3546 3539 
C 3034 3264 2458 3059 1875 2925 
C 2022 2771 2195 2464 2278 2272 
C 2944 2458 3590 2726 4160 3078 
C 4646 2778 5197 2547 5811 2400 
C 5914 2592 6125 2893 6285 3046 
C 5741 3149 5235 3315 4794 3526 
C 5267 3923 5658 4390 5926 4941 
L 5434 5210 
L 5306 5178 
L 2234 5178 
z
" transform="scale(0.015625)"/>
      <path id="NotoSansCJKjp-Bold-5931" d="M 2765 5440 
L 2765 4422 
L 1875 4422 
C 1965 4672 2048 4928 2118 5190 
L 1306 5363 
C 1101 4544 730 3712 262 3213 
C 467 3123 838 2931 1005 2803 
C 1190 3034 1363 3322 1530 3642 
L 2765 3642 
L 2765 3405 
C 2765 3149 2752 2893 2714 2630 
L 307 2630 
L 307 1850 
L 2496 1850 
C 2189 1146 1530 512 186 115 
C 352 -45 589 -371 678 -563 
C 2125 -115 2861 608 3226 1427 
C 3744 416 4518 -250 5773 -576 
C 5882 -352 6112 -13 6291 154 
C 5094 403 4307 986 3853 1850 
L 6093 1850 
L 6093 2630 
L 3533 2630 
C 3565 2886 3571 3149 3571 3398 
L 3571 3642 
L 5542 3642 
L 5542 4422 
L 3571 4422 
L 3571 5440 
L 2765 5440 
z
" transform="scale(0.015625)"/>
      <path id="NotoSansCJKjp-Bold-8d25" d="M 1402 4115 
L 1402 2374 
C 1402 1581 1306 512 186 -83 
C 339 -205 557 -442 646 -576 
C 1862 160 2061 1376 2061 2368 
L 2061 4115 
L 1402 4115 
z
M 1850 749 
C 2099 378 2419 -128 2560 -429 
L 3117 -58 
C 2963 237 2624 717 2368 1069 
L 1850 749 
z
M 3942 5370 
C 3757 4435 3437 3520 3002 2906 
L 3002 5133 
L 486 5133 
L 486 1184 
L 1101 1184 
L 1101 4448 
L 2355 4448 
L 2355 1210 
L 3002 1210 
L 3002 2733 
C 3136 2560 3309 2298 3379 2163 
L 3546 2406 
C 3731 1862 3955 1370 4224 934 
C 3923 525 3558 218 3117 -6 
C 3251 -115 3475 -390 3565 -557 
C 3974 -333 4333 -32 4640 365 
C 4960 -13 5331 -326 5760 -563 
C 5869 -384 6074 -122 6234 13 
C 5766 237 5363 570 5030 979 
C 5389 1658 5632 2528 5760 3610 
L 6112 3610 
L 6112 4288 
L 4384 4288 
C 4480 4595 4557 4902 4627 5216 
L 3942 5370 
z
M 4147 3610 
L 5101 3610 
C 5018 2803 4851 2138 4608 1600 
C 4333 2080 4122 2624 3974 3200 
L 4147 3610 
z
" transform="scale(0.015625)"/>
      <path id="NotoSansCJKjp-Bold-3f" d="M 1133 1613 
L 1952 1613 
C 1856 2515 2976 2822 2976 3731 
C 2976 4550 2406 4954 1638 4954 
C 1082 4954 621 4685 288 4307 
L 813 3827 
C 1018 4051 1242 4192 1523 4192 
C 1856 4192 2067 3987 2067 3667 
C 2067 3059 979 2650 1133 1613 
z
M 1549 -90 
C 1882 -90 2131 179 2131 525 
C 2131 877 1882 1139 1549 1139 
C 1210 1139 960 877 960 525 
C 960 179 1210 -90 1549 -90 
z
" transform="scale(0.015625)"/>
     </defs>
     <use xlink:href="#NotoSansCJKjp-Bold-7f16"/>
     <use xlink:href="#NotoSansCJKjp-Bold-8bd1" transform="translate(99.999985 0)"/>
     <use xlink:href="#NotoSansCJKjp-Bold-5931" transform="translate(199.999969 0)"/>
     <use xlink:href="#NotoSansCJKjp-Bold-8d25" transform="translate(299.999954 0)"/>
     <use xlink:href="#NotoSansCJKjp-Bold-3f" transform="translate(399.999939 0)"/>
    </g>
   </g>
   <g id="patch_13">
    <path d="M 230.4 84.258612 
Q 230.4 93.986504 230.4 102.037346 
" style="fill: none; stroke: #616161; stroke-width: 1.5; stroke-linecap: round"/>
    <path d="M 232.6 97.637346 
L 230.4 102.037346 
L 228.2 97.637346 
" style="fill: none; stroke: #616161; stroke-width: 1.5; stroke-linecap: round"/>
   </g>
   <g id="text_3">
    <!-- 选择 -->
    <g style="fill: #757575" transform="translate(222.4 122.118548) scale(0.08 -0.08)">
     <use xlink:href="#NotoSansCJKjp-Bold-9009"/>
     <use xlink:href="#NotoSansCJKjp-Bold-62e9" transform="translate(99.999985 0)"/>
    </g>
    <!-- Minimizer 模式 -->
    <g style="fill: #757575" transform="translate(201.9 131.499048) scale(0.08 -0.08)">
     <use xlink:href="#NotoSansCJKjp-Bold-4d"/>
     <use xlink:href="#NotoSansCJKjp-Bold-69" transform="translate(85.299988 0)"/>
     <use xlink:href="#NotoSansCJKjp-Bold-6e" transform="translate(115.699982 0)"/>
     <use xlink:href="#NotoSansCJKjp-Bold-69" transform="translate(179.799973 0)"/>
     <use xlink:href="#NotoSansCJKjp-Bold-6d" transform="translate(210.199966 0)"/>
     <use xlink:href="#NotoSansCJKjp-Bold-69" transform="translate(306.59996 0)"/>
     <use xlink:href="#NotoSansCJKjp-Bold-7a" transform="translate(336.999954 0)"/>
     <use xlink:href="#NotoSansCJKjp-Bold-65" transform="translate(388.099945 0)"/>
     <use xlink:href="#NotoSansCJKjp-Bold-72" transform="translate(446.199936 0)"/>
     <use xlink:href="#NotoSansCJKjp-Bold-20" transform="translate(489.799927 0)"/>
     <use xlink:href="#NotoSansCJKjp-Bold-6a21" transform="translate(512.499924 0)"/>
     <use xlink:href="#NotoSansCJKjp-Bold-5f0f" transform="translate(612.499908 0)"/>
    </g>
   </g>
   <g id="patch_14">
    <path d="M 165.901412 124.476923 
Q 136.653453 124.476923 109.082545 124.476923 
" style="fill: none; stroke: #616161; stroke-width: 1.5; stroke-linecap: round"/>
    <path d="M 113.482545 126.676923 
L 109.082545 124.476923 
L 113.482545 122.276923 
" style="fill: none; stroke: #616161; stroke-width: 1.5; stroke-linecap: round"/>
   </g>
   <g id="patch_15">
    <path d="M 294.898588 124.476923 
Q 324.146547 124.476923 351.717455 124.476923 
" style="fill: none; stroke: #616161; stroke-width: 1.5; stroke-linecap: round"/>
    <path d="M 347.317455 122.276923 
L 351.717455 124.476923 
L 347.317455 126.676923 
" style="fill: none; stroke: #616161; stroke-width: 1.5; stroke-linecap: round"/>
   </g>
   <g id="text_4">
    <!-- dynamo 模式 -->
    <g style="fill: #e2882c" transform="translate(65.617391 147.77755) scale(0.07 -0.07)">
     <defs>
      <path id="NotoSansCJKjp-Bold-64" d="M 1766 -90 
C 2138 -90 2496 109 2758 371 
L 2784 371 
L 2854 0 
L 3622 0 
L 3622 5107 
L 2682 5107 
L 2682 3846 
L 2714 3283 
C 2458 3520 2208 3674 1805 3674 
C 1037 3674 301 2957 301 1792 
C 301 614 870 -90 1766 -90 
z
M 2010 685 
C 1536 685 1267 1056 1267 1805 
C 1267 2515 1606 2899 2010 2899 
C 2240 2899 2464 2829 2682 2630 
L 2682 1056 
C 2477 787 2259 685 2010 685 
z
" transform="scale(0.015625)"/>
      <path id="NotoSansCJKjp-Bold-79" d="M 819 -1434 
C 1619 -1434 2003 -954 2317 -109 
L 3590 3584 
L 2688 3584 
L 2195 1920 
C 2106 1587 2016 1242 1939 909 
L 1907 909 
C 1805 1254 1715 1600 1606 1920 
L 1037 3584 
L 90 3584 
L 1485 70 
L 1421 -147 
C 1318 -461 1114 -691 749 -691 
C 666 -691 563 -666 499 -646 
L 326 -1370 
C 467 -1408 608 -1434 819 -1434 
z
" transform="scale(0.015625)"/>
      <path id="NotoSansCJKjp-Bold-61" d="M 1382 -90 
C 1798 -90 2157 109 2464 384 
L 2496 384 
L 2560 0 
L 3328 0 
L 3328 2093 
C 3328 3130 2861 3674 1952 3674 
C 1389 3674 877 3456 461 3200 
L 794 2573 
C 1126 2771 1446 2918 1779 2918 
C 2221 2918 2374 2650 2387 2298 
C 947 2144 326 1741 326 979 
C 326 365 742 -90 1382 -90 
z
M 1696 646 
C 1421 646 1222 768 1222 1050 
C 1222 1376 1510 1613 2387 1715 
L 2387 998 
C 2163 774 1965 646 1696 646 
z
" transform="scale(0.015625)"/>
      <path id="NotoSansCJKjp-Bold-6f" d="M 2003 -90 
C 2899 -90 3725 602 3725 1792 
C 3725 2982 2899 3674 2003 3674 
C 1101 3674 282 2982 282 1792 
C 282 602 1101 -90 2003 -90 
z
M 2003 678 
C 1510 678 1242 1114 1242 1792 
C 1242 2464 1510 2906 2003 2906 
C 2490 2906 2765 2464 2765 1792 
C 2765 1114 2490 678 2003 678 
z
" transform="scale(0.015625)"/>
     </defs>
     <use xlink:href="#NotoSansCJKjp-Bold-64"/>
     <use xlink:href="#NotoSansCJKjp-Bold-79" transform="translate(64.399994 0)"/>
     <use xlink:href="#NotoSansCJKjp-Bold-6e" transform="translate(121.799988 0)"/>
     <use xlink:href="#NotoSansCJKjp-Bold-61" transform="translate(185.899979 0)"/>
     <use xlink:href="#NotoSansCJKjp-Bold-6d" transform="translate(244.999969 0)"/>
     <use xlink:href="#NotoSansCJKjp-Bold-6f" transform="translate(341.399963 0)"/>
     <use xlink:href="#NotoSansCJKjp-Bold-20" transform="translate(403.999954 0)"/>
     <use xlink:href="#NotoSansCJKjp-Bold-6a21" transform="translate(426.699951 0)"/>
     <use xlink:href="#NotoSansCJKjp-Bold-5f0f" transform="translate(526.699936 0)"/>
    </g>
   </g>
   <g id="text_5">
    <!-- aot 模式 -->
    <g style="fill: #4caf50" transform="translate(359.721047 147.62716) scale(0.07 -0.07)">
     <defs>
      <path id="NotoSansCJKjp-Bold-74" d="M 1818 -90 
C 2131 -90 2381 -13 2579 45 
L 2419 730 
C 2323 691 2182 653 2067 653 
C 1747 653 1574 845 1574 1254 
L 1574 2842 
L 2464 2842 
L 2464 3584 
L 1574 3584 
L 1574 4550 
L 800 4550 
L 691 3584 
L 134 3539 
L 134 2842 
L 640 2842 
L 640 1248 
C 640 454 966 -90 1818 -90 
z
" transform="scale(0.015625)"/>
     </defs>
     <use xlink:href="#NotoSansCJKjp-Bold-61"/>
     <use xlink:href="#NotoSansCJKjp-Bold-6f" transform="translate(59.099991 0)"/>
     <use xlink:href="#NotoSansCJKjp-Bold-74" transform="translate(121.699982 0)"/>
     <use xlink:href="#NotoSansCJKjp-Bold-20" transform="translate(163.799973 0)"/>
     <use xlink:href="#NotoSansCJKjp-Bold-6a21" transform="translate(186.499969 0)"/>
     <use xlink:href="#NotoSansCJKjp-Bold-5f0f" transform="translate(286.499954 0)"/>
    </g>
   </g>
   <g id="patch_16">
    <path d="M 87.552 159.314697 
Q 87.552 173.733922 87.552 186.476096 
" style="fill: none; stroke: #616161; stroke-width: 1.5; stroke-linecap: round"/>
    <path d="M 89.752 182.076096 
L 87.552 186.476096 
L 85.352 182.076096 
" style="fill: none; stroke: #616161; stroke-width: 1.5; stroke-linecap: round"/>
   </g>
   <g id="patch_17">
    <path d="M 373.248 159.314697 
Q 373.248 173.733922 373.248 186.476096 
" style="fill: none; stroke: #616161; stroke-width: 1.5; stroke-linecap: round"/>
    <path d="M 375.448 182.076096 
L 373.248 186.476096 
L 371.048 182.076096 
" style="fill: none; stroke: #616161; stroke-width: 1.5; stroke-linecap: round"/>
   </g>
   <g id="text_6">
    <!-- Dynamo -->
    <g style="fill: #757575" transform="translate(71.112 211.17651) scale(0.08 -0.08)">
     <defs>
      <path id="NotoSansCJKjp-Bold-44" d="M 582 0 
L 1933 0 
C 3334 0 4224 794 4224 2394 
C 4224 3987 3334 4742 1882 4742 
L 582 4742 
L 582 0 
z
M 1530 768 
L 1530 3981 
L 1818 3981 
C 2707 3981 3258 3546 3258 2394 
C 3258 1242 2707 768 1818 768 
L 1530 768 
z
" transform="scale(0.015625)"/>
     </defs>
     <use xlink:href="#NotoSansCJKjp-Bold-44"/>
     <use xlink:href="#NotoSansCJKjp-Bold-79" transform="translate(71.399994 0)"/>
     <use xlink:href="#NotoSansCJKjp-Bold-6e" transform="translate(128.799988 0)"/>
     <use xlink:href="#NotoSansCJKjp-Bold-61" transform="translate(192.899979 0)"/>
     <use xlink:href="#NotoSansCJKjp-Bold-6d" transform="translate(251.999969 0)"/>
     <use xlink:href="#NotoSansCJKjp-Bold-6f" transform="translate(348.399963 0)"/>
    </g>
    <!-- 报错? -->
    <g style="fill: #757575" transform="translate(77.49575 220.62951) scale(0.08 -0.08)">
     <defs>
      <path id="NotoSansCJKjp-Bold-62a5" d="M 3424 2291 
C 3635 1683 3904 1133 4250 666 
C 4006 422 3718 218 3386 45 
L 3386 2291 
L 3424 2291 
z
M 4154 2291 
L 5152 2291 
C 5056 1920 4915 1581 4723 1274 
C 4493 1581 4301 1926 4154 2291 
z
M 2624 5210 
L 2624 -550 
L 3386 -550 
L 3386 -141 
C 3533 -275 3680 -454 3770 -595 
C 4141 -403 4461 -173 4742 102 
C 5024 -166 5344 -397 5709 -570 
C 5830 -365 6061 -64 6240 90 
C 5869 237 5536 448 5242 710 
C 5645 1299 5907 2022 6035 2854 
L 5542 3002 
L 5408 2976 
L 3386 2976 
L 3386 4499 
L 5075 4499 
C 5050 4122 5018 3942 4954 3878 
C 4896 3821 4826 3814 4704 3814 
C 4563 3814 4211 3821 3840 3853 
C 3942 3686 4032 3418 4038 3226 
C 4435 3213 4819 3206 5037 3226 
C 5274 3245 5472 3290 5626 3456 
C 5773 3622 5843 4026 5869 4928 
C 5875 5018 5882 5210 5882 5210 
L 2624 5210 
z
M 1050 5440 
L 1050 4218 
L 237 4218 
L 237 3475 
L 1050 3475 
L 1050 2387 
C 717 2304 410 2240 154 2189 
L 320 1402 
L 1050 1587 
L 1050 294 
C 1050 186 1011 160 902 154 
C 806 154 486 154 186 166 
C 288 -45 390 -365 422 -563 
C 928 -570 1274 -550 1517 -429 
C 1754 -307 1830 -109 1830 288 
L 1830 1792 
L 2509 1978 
L 2413 2726 
L 1830 2579 
L 1830 3475 
L 2445 3475 
L 2445 4218 
L 1830 4218 
L 1830 5440 
L 1050 5440 
z
" transform="scale(0.015625)"/>
      <path id="NotoSansCJKjp-Bold-9519" d="M 346 2310 
L 346 1619 
L 1133 1619 
L 1133 640 
C 1133 358 947 173 813 90 
C 928 -64 1082 -371 1133 -550 
C 1254 -429 1472 -307 2624 288 
C 2573 448 2515 749 2502 954 
L 1830 634 
L 1830 1619 
L 2624 1619 
L 2624 2310 
L 1830 2310 
L 1830 2938 
L 2496 2938 
L 2496 3622 
L 813 3622 
C 915 3744 1011 3878 1101 4019 
L 2579 4019 
L 2579 4742 
L 1498 4742 
C 1574 4902 1638 5062 1696 5222 
L 1050 5421 
C 851 4858 512 4320 128 3962 
C 243 3795 416 3405 467 3245 
L 672 3456 
L 672 2938 
L 1133 2938 
L 1133 2310 
L 346 2310 
z
M 4685 5440 
L 4685 4698 
L 4051 4698 
L 4051 5440 
L 3366 5440 
L 3366 4698 
L 2790 4698 
L 2790 4032 
L 3366 4032 
L 3366 3418 
L 2650 3418 
L 2650 2733 
L 6182 2733 
L 6182 3418 
L 5376 3418 
L 5376 4032 
L 6022 4032 
L 6022 4698 
L 5376 4698 
L 5376 5440 
L 4685 5440 
z
M 4051 4032 
L 4685 4032 
L 4685 3418 
L 4051 3418 
L 4051 4032 
z
M 3738 710 
L 5094 710 
L 5094 282 
L 3738 282 
L 3738 710 
z
M 3738 1318 
L 3738 1747 
L 5094 1747 
L 5094 1318 
L 3738 1318 
z
M 3046 2368 
L 3046 -563 
L 3738 -563 
L 3738 -333 
L 5094 -333 
L 5094 -538 
L 5818 -538 
L 5818 2368 
L 3046 2368 
z
" transform="scale(0.015625)"/>
     </defs>
     <use xlink:href="#NotoSansCJKjp-Bold-62a5"/>
     <use xlink:href="#NotoSansCJKjp-Bold-9519" transform="translate(99.999985 0)"/>
     <use xlink:href="#NotoSansCJKjp-Bold-3f" transform="translate(199.999969 0)"/>
    </g>
   </g>
   <g id="text_7">
    <!-- Inductor -->
    <g style="fill: #757575" transform="translate(356.2005 211.24901) scale(0.08 -0.08)">
     <defs>
      <path id="NotoSansCJKjp-Bold-49" d="M 582 0 
L 1530 0 
L 1530 4742 
L 582 4742 
L 582 0 
z
" transform="scale(0.015625)"/>
      <path id="NotoSansCJKjp-Bold-75" d="M 1574 -90 
C 2067 -90 2406 154 2714 518 
L 2739 518 
L 2810 0 
L 3578 0 
L 3578 3584 
L 2637 3584 
L 2637 1165 
C 2394 845 2202 717 1914 717 
C 1562 717 1402 909 1402 1466 
L 1402 3584 
L 467 3584 
L 467 1350 
C 467 448 800 -90 1574 -90 
z
" transform="scale(0.015625)"/>
      <path id="NotoSansCJKjp-Bold-63" d="M 2029 -90 
C 2426 -90 2861 45 3200 346 
L 2829 966 
C 2630 800 2394 678 2131 678 
C 1613 678 1242 1114 1242 1792 
C 1242 2464 1613 2906 2163 2906 
C 2362 2906 2528 2822 2707 2675 
L 3155 3270 
C 2893 3507 2554 3674 2112 3674 
C 1139 3674 282 2982 282 1792 
C 282 602 1043 -90 2029 -90 
z
" transform="scale(0.015625)"/>
     </defs>
     <use xlink:href="#NotoSansCJKjp-Bold-49"/>
     <use xlink:href="#NotoSansCJKjp-Bold-6e" transform="translate(32.999985 0)"/>
     <use xlink:href="#NotoSansCJKjp-Bold-64" transform="translate(97.099976 0)"/>
     <use xlink:href="#NotoSansCJKjp-Bold-75" transform="translate(161.499969 0)"/>
     <use xlink:href="#NotoSansCJKjp-Bold-63" transform="translate(225.199966 0)"/>
     <use xlink:href="#NotoSansCJKjp-Bold-74" transform="translate(277.899963 0)"/>
     <use xlink:href="#NotoSansCJKjp-Bold-6f" transform="translate(319.999954 0)"/>
     <use xlink:href="#NotoSansCJKjp-Bold-72" transform="translate(382.599945 0)"/>
    </g>
    <!-- 报错? -->
    <g style="fill: #757575" transform="translate(363.19175 220.62951) scale(0.08 -0.08)">
     <use xlink:href="#NotoSansCJKjp-Bold-62a5"/>
     <use xlink:href="#NotoSansCJKjp-Bold-9519" transform="translate(99.999985 0)"/>
     <use xlink:href="#NotoSansCJKjp-Bold-3f" transform="translate(199.999969 0)"/>
    </g>
   </g>
   <g id="patch_18">
    <path d="M 58.771951 213.607385 
Q 40.681683 213.607385 24.268465 213.607385 
" style="fill: none; stroke: #616161; stroke-width: 1.5; stroke-linecap: round"/>
    <path d="M 28.668465 215.807385 
L 24.268465 213.607385 
L 28.668465 211.407385 
" style="fill: none; stroke: #616161; stroke-width: 1.5; stroke-linecap: round"/>
   </g>
   <g id="patch_19">
    <path d="M 116.335046 213.607385 
Q 138.88844 213.607385 159.764784 213.607385 
" style="fill: none; stroke: #616161; stroke-width: 1.5; stroke-linecap: round"/>
    <path d="M 155.364784 211.407385 
L 159.764784 213.607385 
L 155.364784 215.807385 
" style="fill: none; stroke: #616161; stroke-width: 1.5; stroke-linecap: round"/>
   </g>
   <g id="patch_20">
    <path d="M 344.464954 213.607385 
Q 321.91156 213.607385 301.035216 213.607385 
" style="fill: none; stroke: #616161; stroke-width: 1.5; stroke-linecap: round"/>
    <path d="M 305.435216 215.807385 
L 301.035216 213.607385 
L 305.435216 211.407385 
" style="fill: none; stroke: #616161; stroke-width: 1.5; stroke-linecap: round"/>
   </g>
   <g id="patch_21">
    <path d="M 402.028049 213.607385 
Q 420.118317 213.607385 436.531535 213.607385 
" style="fill: none; stroke: #616161; stroke-width: 1.5; stroke-linecap: round"/>
    <path d="M 432.131535 211.407385 
L 436.531535 213.607385 
L 432.131535 215.807385 
" style="fill: none; stroke: #616161; stroke-width: 1.5; stroke-linecap: round"/>
   </g>
   <g id="text_8">
    <!-- 是→定位 -->
    <g style="fill: #e2882c" transform="translate(17.52 211.617822) scale(0.06 -0.06)">
     <defs>
      <path id="NotoSansCJKjp-Regular-662f" d="M 1510 3885 
L 4845 3885 
L 4845 3360 
L 1510 3360 
L 1510 3885 
z
M 1510 4749 
L 4845 4749 
L 4845 4230 
L 1510 4230 
L 1510 4749 
z
M 1050 5114 
L 1050 2995 
L 5331 2995 
L 5331 5114 
L 1050 5114 
z
M 1478 1914 
C 1312 979 902 256 224 -186 
C 333 -256 518 -435 589 -518 
C 1011 -218 1344 192 1587 698 
C 2112 -186 2938 -384 4230 -384 
L 5984 -384 
C 6010 -250 6086 -38 6163 77 
C 5830 70 4493 64 4250 70 
C 3981 70 3725 77 3494 102 
L 3494 986 
L 5619 986 
L 5619 1408 
L 3494 1408 
L 3494 2125 
L 6035 2125 
L 6035 2554 
L 378 2554 
L 378 2125 
L 3014 2125 
L 3014 186 
C 2458 326 2048 627 1798 1216 
C 1862 1414 1914 1626 1958 1850 
L 1478 1914 
z
" transform="scale(0.015625)"/>
      <path id="NotoSansCJKjp-Regular-2192" d="M 5190 2650 
L 256 2650 
L 256 2214 
L 5190 2214 
C 4864 1965 4442 1562 4154 1165 
L 4538 941 
C 4966 1504 5606 2067 6176 2432 
C 5606 2797 4966 3360 4538 3923 
L 4154 3699 
C 4442 3302 4864 2899 5190 2650 
z
" transform="scale(0.015625)"/>
      <path id="NotoSansCJKjp-Regular-5b9a" d="M 1421 2413 
C 1286 1248 934 333 224 -218 
C 339 -294 538 -461 621 -544 
C 1037 -179 1350 307 1574 896 
C 2163 -198 3117 -422 4454 -422 
L 5952 -422 
C 5971 -282 6061 -51 6131 64 
C 5818 58 4717 58 4480 58 
C 4109 58 3757 77 3443 134 
L 3443 1440 
L 5350 1440 
L 5350 1888 
L 3443 1888 
L 3443 2957 
L 5088 2957 
L 5088 3418 
L 1350 3418 
L 1350 2957 
L 2944 2957 
L 2944 269 
C 2419 461 2016 832 1760 1504 
C 1824 1766 1882 2054 1920 2355 
L 1421 2413 
z
M 525 4640 
L 525 3245 
L 998 3245 
L 998 4186 
L 5382 4186 
L 5382 3245 
L 5875 3245 
L 5875 4640 
L 3443 4640 
L 3443 5376 
L 2938 5376 
L 2938 4640 
L 525 4640 
z
" transform="scale(0.015625)"/>
      <path id="NotoSansCJKjp-Regular-4f4d" d="M 2630 3155 
C 2867 2304 3066 1190 3110 544 
L 3578 646 
C 3526 1280 3302 2381 3059 3232 
L 2630 3155 
z
M 2106 4115 
L 2106 3661 
L 6016 3661 
L 6016 4115 
L 4250 4115 
L 4250 5299 
L 3770 5299 
L 3770 4115 
L 2106 4115 
z
M 1946 243 
L 1946 -211 
L 6176 -211 
L 6176 243 
L 4634 243 
C 4928 1043 5261 2246 5485 3194 
L 4966 3283 
C 4800 2362 4461 1056 4166 243 
L 1946 243 
z
M 1773 5357 
C 1395 4390 774 3443 128 2835 
C 211 2720 352 2470 397 2355 
C 640 2598 877 2880 1107 3194 
L 1107 -493 
L 1568 -493 
L 1568 3891 
C 1818 4314 2048 4762 2227 5216 
L 1773 5357 
z
" transform="scale(0.015625)"/>
     </defs>
     <use xlink:href="#NotoSansCJKjp-Regular-662f"/>
     <use xlink:href="#NotoSansCJKjp-Regular-2192" transform="translate(99.999985 0)"/>
     <use xlink:href="#NotoSansCJKjp-Regular-5b9a" transform="translate(199.999969 0)"/>
     <use xlink:href="#NotoSansCJKjp-Regular-4f4d" transform="translate(299.999954 0)"/>
    </g>
    <!-- Python 代码 -->
    <g style="fill: #e2882c" transform="translate(12.786094 218.968197) scale(0.06 -0.06)">
     <defs>
      <path id="NotoSansCJKjp-Regular-50" d="M 646 0 
L 1235 0 
L 1235 1869 
L 2010 1869 
C 3040 1869 3738 2323 3738 3315 
C 3738 4339 3034 4691 1984 4691 
L 646 4691 
L 646 0 
z
M 1235 2349 
L 1235 4211 
L 1907 4211 
C 2733 4211 3149 4000 3149 3315 
C 3149 2643 2758 2349 1933 2349 
L 1235 2349 
z
" transform="scale(0.015625)"/>
      <path id="NotoSansCJKjp-Regular-79" d="M 646 -1498 
C 1338 -1498 1702 -973 1946 -294 
L 3251 3475 
L 2682 3475 
L 2054 1549 
C 1965 1235 1862 883 1773 563 
L 1741 563 
C 1619 890 1504 1242 1395 1549 
L 691 3475 
L 83 3475 
L 1478 -6 
L 1402 -269 
C 1254 -698 1011 -1018 621 -1018 
C 525 -1018 422 -986 352 -960 
L 237 -1427 
C 346 -1472 486 -1498 646 -1498 
z
" transform="scale(0.015625)"/>
      <path id="NotoSansCJKjp-Regular-74" d="M 1677 -83 
C 1894 -83 2125 -19 2323 45 
L 2208 486 
C 2093 435 1939 390 1811 390 
C 1408 390 1274 634 1274 1056 
L 1274 3002 
L 2221 3002 
L 2221 3475 
L 1274 3475 
L 1274 4454 
L 787 4454 
L 723 3475 
L 173 3443 
L 173 3002 
L 691 3002 
L 691 1075 
C 691 378 941 -83 1677 -83 
z
" transform="scale(0.015625)"/>
      <path id="NotoSansCJKjp-Regular-68" d="M 589 0 
L 1178 0 
L 1178 2522 
C 1523 2874 1766 3053 2125 3053 
C 2586 3053 2784 2778 2784 2125 
L 2784 0 
L 3366 0 
L 3366 2202 
C 3366 3085 3034 3565 2304 3565 
C 1830 3565 1472 3302 1152 2982 
L 1178 3699 
L 1178 5094 
L 589 5094 
L 589 0 
z
" transform="scale(0.015625)"/>
      <path id="NotoSansCJKjp-Regular-6f" d="M 1939 -83 
C 2790 -83 3546 582 3546 1734 
C 3546 2893 2790 3565 1939 3565 
C 1088 3565 333 2893 333 1734 
C 333 582 1088 -83 1939 -83 
z
M 1939 403 
C 1338 403 934 934 934 1734 
C 934 2534 1338 3072 1939 3072 
C 2541 3072 2950 2534 2950 1734 
C 2950 934 2541 403 1939 403 
z
" transform="scale(0.015625)"/>
      <path id="NotoSansCJKjp-Regular-6e" d="M 589 0 
L 1178 0 
L 1178 2522 
C 1523 2874 1766 3053 2125 3053 
C 2586 3053 2784 2778 2784 2125 
L 2784 0 
L 3366 0 
L 3366 2202 
C 3366 3085 3034 3565 2304 3565 
C 1830 3565 1466 3302 1139 2970 
L 1126 2970 
L 1069 3475 
L 589 3475 
L 589 0 
z
" transform="scale(0.015625)"/>
      <path id="NotoSansCJKjp-Regular-20" transform="scale(0.015625)"/>
      <path id="NotoSansCJKjp-Regular-4ee3" d="M 4576 5011 
C 4954 4691 5402 4243 5613 3955 
L 5984 4211 
C 5766 4499 5306 4934 4922 5242 
L 4576 5011 
z
M 3507 5286 
C 3533 4608 3578 3968 3635 3379 
L 2074 3181 
L 2144 2726 
L 3686 2918 
C 3930 909 4442 -429 5504 -506 
C 5843 -525 6099 -192 6240 915 
C 6144 960 5933 1075 5837 1171 
C 5773 429 5670 51 5485 58 
C 4800 128 4378 1280 4160 2982 
L 6112 3226 
L 6042 3680 
L 4109 3437 
C 4045 4006 4006 4634 3987 5286 
L 3507 5286 
z
M 2003 5312 
C 1581 4294 870 3315 134 2688 
C 218 2579 365 2336 416 2227 
C 710 2490 998 2810 1274 3162 
L 1274 -499 
L 1766 -499 
L 1766 3866 
C 2029 4275 2266 4717 2458 5165 
L 2003 5312 
z
" transform="scale(0.015625)"/>
      <path id="NotoSansCJKjp-Regular-7801" d="M 2624 1312 
L 2624 877 
L 5069 877 
L 5069 1312 
L 2624 1312 
z
M 3142 4160 
C 3098 3526 3014 2669 2931 2157 
L 3059 2157 
L 5523 2150 
C 5402 749 5261 179 5094 13 
C 5030 -51 4966 -64 4851 -58 
C 4736 -58 4448 -58 4141 -26 
C 4218 -147 4262 -333 4275 -467 
C 4582 -486 4877 -486 5043 -474 
C 5235 -461 5357 -416 5478 -275 
C 5709 -45 5856 627 6003 2355 
C 6010 2426 6016 2566 6016 2566 
L 5222 2566 
C 5325 3360 5427 4320 5478 4986 
L 5139 5024 
L 5062 4998 
L 2835 4998 
L 2835 4557 
L 4979 4557 
C 4928 3994 4845 3213 4768 2566 
L 3437 2566 
C 3494 3040 3558 3642 3590 4128 
L 3142 4160 
z
M 326 5037 
L 326 4595 
L 1107 4595 
C 928 3616 640 2707 186 2099 
C 262 1971 371 1702 403 1581 
C 525 1741 640 1914 742 2106 
L 742 -218 
L 1158 -218 
L 1158 294 
L 2336 294 
L 2336 3066 
L 1165 3066 
C 1331 3546 1466 4064 1568 4595 
L 2522 4595 
L 2522 5037 
L 326 5037 
z
M 1158 2630 
L 1914 2630 
L 1914 723 
L 1158 723 
L 1158 2630 
z
" transform="scale(0.015625)"/>
     </defs>
     <use xlink:href="#NotoSansCJKjp-Regular-50"/>
     <use xlink:href="#NotoSansCJKjp-Regular-79" transform="translate(63.299988 0)"/>
     <use xlink:href="#NotoSansCJKjp-Regular-74" transform="translate(115.399979 0)"/>
     <use xlink:href="#NotoSansCJKjp-Regular-68" transform="translate(153.099976 0)"/>
     <use xlink:href="#NotoSansCJKjp-Regular-6f" transform="translate(213.799973 0)"/>
     <use xlink:href="#NotoSansCJKjp-Regular-6e" transform="translate(274.399963 0)"/>
     <use xlink:href="#NotoSansCJKjp-Regular-20" transform="translate(335.399948 0)"/>
     <use xlink:href="#NotoSansCJKjp-Regular-4ee3" transform="translate(357.799942 0)"/>
     <use xlink:href="#NotoSansCJKjp-Regular-7801" transform="translate(457.799927 0)"/>
    </g>
   </g>
   <g id="text_9">
    <!-- 否→尝试 aot -->
    <g style="fill: #757575" transform="translate(146.13 215.30801) scale(0.06 -0.06)">
     <defs>
      <path id="NotoSansCJKjp-Regular-5426" d="M 3706 3616 
C 4442 3309 5331 2790 5792 2419 
L 6138 2784 
C 5664 3136 4781 3642 4051 3936 
L 3706 3616 
z
M 1133 1907 
L 1133 -512 
L 1626 -512 
L 1626 -205 
L 4800 -205 
L 4800 -499 
L 5318 -499 
L 5318 1907 
L 1133 1907 
z
M 1626 224 
L 1626 1485 
L 4800 1485 
L 4800 224 
L 1626 224 
z
M 422 5011 
L 422 4557 
L 3258 4557 
C 2515 3776 1363 3142 224 2778 
C 333 2682 493 2458 563 2342 
C 1389 2656 2234 3098 2950 3648 
L 2950 2093 
L 3437 2093 
L 3437 4058 
C 3603 4218 3763 4384 3904 4557 
L 5978 4557 
L 5978 5011 
L 422 5011 
z
" transform="scale(0.015625)"/>
      <path id="NotoSansCJKjp-Regular-5c1d" d="M 1197 3181 
L 1197 2726 
L 5146 2726 
L 5146 3181 
L 1197 3181 
z
M 4870 5274 
C 4717 4998 4442 4602 4224 4352 
L 4576 4211 
L 3456 4211 
L 3456 5382 
L 2944 5382 
L 2944 4211 
L 1779 4211 
L 2170 4397 
C 2054 4634 1798 4992 1555 5261 
L 1120 5082 
C 1338 4819 1581 4454 1696 4211 
L 563 4211 
L 563 2925 
L 1050 2925 
L 1050 3789 
L 5357 3789 
L 5357 2925 
L 5862 2925 
L 5862 4211 
L 4646 4211 
C 4864 4435 5146 4781 5376 5101 
L 4870 5274 
z
M 909 -410 
C 1146 -320 1504 -294 4998 -32 
C 5133 -211 5248 -378 5331 -525 
L 5786 -275 
C 5498 211 4864 902 4326 1402 
L 3904 1178 
C 4154 941 4422 659 4659 384 
L 1613 173 
C 2054 576 2490 1069 2867 1574 
L 5965 1574 
L 5965 2042 
L 410 2042 
L 410 1574 
L 2202 1574 
C 1818 1043 1376 576 1210 429 
C 1018 250 877 128 742 96 
C 800 -38 877 -301 909 -410 
z
" transform="scale(0.015625)"/>
      <path id="NotoSansCJKjp-Regular-8bd5" d="M 768 4960 
C 1094 4678 1504 4269 1696 4006 
L 2029 4339 
C 1837 4595 1421 4979 1088 5254 
L 768 4960 
z
M 4973 5094 
C 5242 4813 5536 4422 5664 4166 
L 6016 4403 
C 5875 4653 5574 5024 5306 5299 
L 4973 5094 
z
M 320 3366 
L 320 2906 
L 1210 2906 
L 1210 602 
C 1210 326 1018 141 902 70 
C 986 -26 1101 -230 1146 -346 
C 1242 -230 1414 -115 2509 621 
C 2464 717 2406 902 2374 1030 
L 1664 570 
L 1664 3366 
L 320 3366 
z
M 4294 5344 
L 4333 4045 
L 2214 4045 
L 2214 3584 
L 4352 3584 
C 4467 1171 4768 -474 5562 -493 
C 5805 -493 6061 -224 6189 858 
C 6099 896 5894 1024 5805 1120 
C 5766 493 5690 134 5574 134 
C 5178 154 4928 1606 4826 3584 
L 6138 3584 
L 6138 4045 
L 4806 4045 
C 4794 4461 4781 4896 4781 5344 
L 4294 5344 
z
M 2304 390 
L 2438 -64 
C 2976 96 3674 301 4346 499 
L 4282 928 
L 3533 717 
L 3533 2202 
L 4134 2202 
L 4134 2650 
L 2419 2650 
L 2419 2202 
L 3091 2202 
L 3091 595 
L 2304 390 
z
" transform="scale(0.015625)"/>
      <path id="NotoSansCJKjp-Regular-61" d="M 1389 -83 
C 1818 -83 2208 141 2541 416 
L 2560 416 
L 2611 0 
L 3091 0 
L 3091 2138 
C 3091 3002 2739 3565 1888 3565 
C 1325 3565 838 3315 525 3110 
L 749 2707 
C 1024 2893 1389 3078 1792 3078 
C 2362 3078 2509 2650 2509 2202 
C 1030 2035 378 1658 378 902 
C 378 275 806 -83 1389 -83 
z
M 1555 390 
C 1210 390 941 544 941 941 
C 941 1389 1338 1677 2509 1811 
L 2509 845 
C 2170 544 1888 390 1555 390 
z
" transform="scale(0.015625)"/>
     </defs>
     <use xlink:href="#NotoSansCJKjp-Regular-5426"/>
     <use xlink:href="#NotoSansCJKjp-Regular-2192" transform="translate(99.999985 0)"/>
     <use xlink:href="#NotoSansCJKjp-Regular-5c1d" transform="translate(199.999969 0)"/>
     <use xlink:href="#NotoSansCJKjp-Regular-8bd5" transform="translate(299.999954 0)"/>
     <use xlink:href="#NotoSansCJKjp-Regular-20" transform="translate(399.999939 0)"/>
     <use xlink:href="#NotoSansCJKjp-Regular-61" transform="translate(422.399933 0)"/>
     <use xlink:href="#NotoSansCJKjp-Regular-6f" transform="translate(478.699921 0)"/>
     <use xlink:href="#NotoSansCJKjp-Regular-74" transform="translate(539.299911 0)"/>
    </g>
   </g>
   <g id="text_10">
    <!-- 是→定位 -->
    <g style="fill: #4caf50" transform="translate(285.36 211.755447) scale(0.06 -0.06)">
     <use xlink:href="#NotoSansCJKjp-Regular-662f"/>
     <use xlink:href="#NotoSansCJKjp-Regular-2192" transform="translate(99.999985 0)"/>
     <use xlink:href="#NotoSansCJKjp-Regular-5b9a" transform="translate(199.999969 0)"/>
     <use xlink:href="#NotoSansCJKjp-Regular-4f4d" transform="translate(299.999954 0)"/>
    </g>
    <!-- FX 子图 -->
    <g style="fill: #4caf50" transform="translate(287.312813 218.860572) scale(0.06 -0.06)">
     <defs>
      <path id="NotoSansCJKjp-Regular-46" d="M 646 0 
L 1235 0 
L 1235 2106 
L 3027 2106 
L 3027 2605 
L 1235 2605 
L 1235 4192 
L 3347 4192 
L 3347 4691 
L 646 4691 
L 646 0 
z
" transform="scale(0.015625)"/>
      <path id="NotoSansCJKjp-Regular-58" d="M 109 0 
L 736 0 
L 1408 1267 
C 1530 1504 1651 1741 1786 2029 
L 1811 2029 
C 1965 1741 2093 1504 2214 1267 
L 2912 0 
L 3565 0 
L 2189 2394 
L 3469 4691 
L 2848 4691 
L 2221 3494 
C 2106 3277 2016 3078 1888 2803 
L 1862 2803 
C 1709 3078 1613 3277 1491 3494 
L 851 4691 
L 198 4691 
L 1478 2426 
L 109 0 
z
" transform="scale(0.015625)"/>
      <path id="NotoSansCJKjp-Regular-5b50" d="M 966 4934 
L 966 4454 
L 4595 4454 
C 4211 4134 3718 3795 3264 3546 
L 2963 3546 
L 2963 2515 
L 301 2515 
L 301 2035 
L 2963 2035 
L 2963 115 
C 2963 0 2925 -32 2790 -45 
C 2643 -45 2170 -51 1658 -32 
C 1734 -173 1830 -384 1862 -525 
C 2477 -531 2893 -518 3136 -435 
C 3379 -358 3462 -218 3462 109 
L 3462 2035 
L 6112 2035 
L 6112 2515 
L 3462 2515 
L 3462 3149 
C 4179 3539 5024 4134 5574 4685 
L 5210 4960 
L 5101 4934 
L 966 4934 
z
" transform="scale(0.015625)"/>
      <path id="NotoSansCJKjp-Regular-56fe" d="M 2400 1786 
C 2912 1677 3565 1453 3923 1274 
L 4122 1600 
C 3763 1766 3117 1978 2605 2080 
L 2400 1786 
z
M 1760 973 
C 2643 864 3750 608 4365 390 
L 4576 749 
C 3955 954 2848 1203 1984 1299 
L 1760 973 
z
M 538 5094 
L 538 -512 
L 998 -512 
L 998 -243 
L 5389 -243 
L 5389 -512 
L 5869 -512 
L 5869 5094 
L 538 5094 
z
M 998 186 
L 998 4659 
L 5389 4659 
L 5389 186 
L 998 186 
z
M 2650 4531 
C 2330 4006 1779 3507 1229 3181 
C 1331 3117 1498 2970 1568 2893 
C 1760 3021 1958 3174 2157 3347 
C 2349 3142 2586 2950 2842 2778 
C 2298 2522 1683 2330 1114 2214 
C 1197 2125 1299 1939 1344 1824 
C 1971 1971 2643 2208 3251 2534 
C 3782 2246 4390 2029 4998 1894 
C 5056 2010 5178 2176 5267 2259 
C 4704 2362 4141 2534 3642 2765 
C 4122 3078 4525 3443 4794 3878 
L 4518 4038 
L 4448 4019 
L 2790 4019 
C 2886 4141 2976 4262 3053 4390 
L 2650 4531 
z
M 2419 3603 
L 2464 3648 
L 4122 3648 
C 3891 3398 3584 3174 3238 2976 
C 2912 3162 2630 3373 2419 3603 
z
" transform="scale(0.015625)"/>
     </defs>
     <use xlink:href="#NotoSansCJKjp-Regular-46"/>
     <use xlink:href="#NotoSansCJKjp-Regular-58" transform="translate(55.199997 0)"/>
     <use xlink:href="#NotoSansCJKjp-Regular-20" transform="translate(112.499985 0)"/>
     <use xlink:href="#NotoSansCJKjp-Regular-5b50" transform="translate(134.899979 0)"/>
     <use xlink:href="#NotoSansCJKjp-Regular-56fe" transform="translate(234.899963 0)"/>
    </g>
   </g>
   <g id="text_11">
    <!-- 否→检查 -->
    <g style="fill: #757575" transform="translate(428.208 211.755447) scale(0.06 -0.06)">
     <defs>
      <path id="NotoSansCJKjp-Regular-68c0" d="M 2995 3392 
L 2995 2976 
L 5165 2976 
L 5165 3392 
L 2995 3392 
z
M 2541 2272 
C 2720 1786 2899 1146 2950 723 
L 3347 838 
C 3290 1248 3110 1882 2918 2368 
L 2541 2272 
z
M 3782 2451 
C 3898 1965 4006 1331 4038 909 
L 4442 979 
C 4403 1395 4288 2016 4160 2502 
L 3782 2451 
z
M 1146 5376 
L 1146 4160 
L 314 4160 
L 314 3712 
L 1101 3712 
C 928 2867 570 1875 211 1350 
C 288 1235 403 1024 454 883 
C 710 1280 954 1920 1146 2586 
L 1146 -506 
L 1587 -506 
L 1587 2829 
C 1754 2515 1939 2144 2022 1946 
L 2310 2285 
C 2214 2477 1734 3232 1587 3450 
L 1587 3712 
L 2253 3712 
L 2253 4160 
L 1587 4160 
L 1587 5376 
L 1146 5376 
z
M 3994 5421 
C 3558 4518 2797 3706 1990 3213 
C 2080 3117 2221 2912 2278 2816 
C 2931 3270 3571 3910 4058 4646 
C 4550 4006 5286 3315 5933 2886 
C 5984 3014 6093 3206 6182 3322 
C 5530 3706 4730 4410 4288 5030 
L 4416 5267 
L 3994 5421 
z
M 2195 224 
L 2195 -205 
L 6003 -205 
L 6003 224 
L 4826 224 
C 5158 826 5542 1696 5811 2387 
L 5389 2502 
C 5165 1818 4762 838 4416 224 
L 2195 224 
z
" transform="scale(0.015625)"/>
      <path id="NotoSansCJKjp-Regular-67e5" d="M 1888 1395 
L 4480 1395 
L 4480 858 
L 1888 858 
L 1888 1395 
z
M 1888 2253 
L 4480 2253 
L 4480 1728 
L 1888 1728 
L 1888 2253 
z
M 1414 2598 
L 1414 512 
L 4979 512 
L 4979 2598 
L 1414 2598 
z
M 474 128 
L 474 -307 
L 5952 -307 
L 5952 128 
L 474 128 
z
M 2944 5376 
L 2944 4563 
L 365 4563 
L 365 4141 
L 2426 4141 
C 1875 3533 1018 2982 230 2714 
C 333 2624 474 2445 544 2330 
C 1414 2675 2362 3347 2944 4109 
L 2944 2797 
L 3418 2797 
L 3418 4115 
C 4006 3373 4966 2707 5850 2381 
C 5920 2502 6061 2688 6170 2778 
C 5363 3027 4493 3558 3936 4141 
L 6042 4141 
L 6042 4563 
L 3418 4563 
L 3418 5376 
L 2944 5376 
z
" transform="scale(0.015625)"/>
     </defs>
     <use xlink:href="#NotoSansCJKjp-Regular-5426"/>
     <use xlink:href="#NotoSansCJKjp-Regular-2192" transform="translate(99.999985 0)"/>
     <use xlink:href="#NotoSansCJKjp-Regular-68c0" transform="translate(199.999969 0)"/>
     <use xlink:href="#NotoSansCJKjp-Regular-67e5" transform="translate(299.999954 0)"/>
    </g>
    <!-- CUDA 错误 -->
    <g style="fill: #757575" transform="translate(425.571281 218.860572) scale(0.06 -0.06)">
     <defs>
      <path id="NotoSansCJKjp-Regular-43" d="M 2413 -83 
C 3021 -83 3482 160 3853 589 
L 3526 966 
C 3226 634 2886 435 2438 435 
C 1542 435 979 1178 979 2362 
C 979 3533 1574 4256 2458 4256 
C 2861 4256 3168 4077 3418 3814 
L 3738 4198 
C 3469 4499 3021 4774 2451 4774 
C 1261 4774 371 3859 371 2342 
C 371 819 1242 -83 2413 -83 
z
" transform="scale(0.015625)"/>
      <path id="NotoSansCJKjp-Regular-55" d="M 2310 -83 
C 3264 -83 3994 429 3994 1933 
L 3994 4691 
L 3424 4691 
L 3424 1920 
C 3424 794 2931 435 2310 435 
C 1696 435 1216 794 1216 1920 
L 1216 4691 
L 627 4691 
L 627 1933 
C 627 429 1350 -83 2310 -83 
z
" transform="scale(0.015625)"/>
      <path id="NotoSansCJKjp-Regular-44" d="M 646 0 
L 1843 0 
C 3258 0 4026 877 4026 2362 
C 4026 3859 3258 4691 1818 4691 
L 646 4691 
L 646 0 
z
M 1235 486 
L 1235 4211 
L 1766 4211 
C 2874 4211 3418 3552 3418 2362 
C 3418 1178 2874 486 1766 486 
L 1235 486 
z
" transform="scale(0.015625)"/>
      <path id="NotoSansCJKjp-Regular-41" d="M 26 0 
L 621 0 
L 1075 1434 
L 2790 1434 
L 3238 0 
L 3866 0 
L 2272 4691 
L 1613 4691 
L 26 0 
z
M 1222 1901 
L 1453 2624 
C 1619 3155 1773 3661 1920 4211 
L 1946 4211 
C 2099 3667 2246 3155 2419 2624 
L 2643 1901 
L 1222 1901 
z
" transform="scale(0.015625)"/>
      <path id="NotoSansCJKjp-Regular-9519" d="M 1139 5357 
C 947 4768 621 4205 237 3821 
C 320 3725 442 3488 480 3392 
C 685 3603 877 3866 1050 4154 
L 2566 4154 
L 2566 4608 
L 1299 4608 
C 1395 4813 1485 5024 1555 5235 
L 1139 5357 
z
M 397 2202 
L 397 1760 
L 1293 1760 
L 1293 493 
C 1293 218 1101 38 986 -26 
C 1069 -122 1178 -320 1216 -429 
C 1318 -326 1485 -218 2560 384 
C 2528 480 2483 666 2470 794 
L 1734 410 
L 1734 1760 
L 2611 1760 
L 2611 2202 
L 1734 2202 
L 1734 3066 
L 2470 3066 
L 2470 3501 
L 678 3501 
L 678 3066 
L 1293 3066 
L 1293 2202 
L 397 2202 
z
M 4794 5376 
L 4794 4531 
L 3904 4531 
L 3904 5376 
L 3469 5376 
L 3469 4531 
L 2842 4531 
L 2842 4109 
L 3469 4109 
L 3469 3264 
L 2688 3264 
L 2688 2829 
L 6131 2829 
L 6131 3264 
L 5235 3264 
L 5235 4109 
L 5984 4109 
L 5984 4531 
L 5235 4531 
L 5235 5376 
L 4794 5376 
z
M 3904 4109 
L 4794 4109 
L 4794 3264 
L 3904 3264 
L 3904 4109 
z
M 3501 851 
L 5248 851 
L 5248 173 
L 3501 173 
L 3501 851 
z
M 3501 1242 
L 3501 1901 
L 5248 1901 
L 5248 1242 
L 3501 1242 
z
M 3059 2310 
L 3059 -499 
L 3501 -499 
L 3501 -224 
L 5248 -224 
L 5248 -474 
L 5702 -474 
L 5702 2310 
L 3059 2310 
z
" transform="scale(0.015625)"/>
      <path id="NotoSansCJKjp-Regular-8bef" d="M 3181 4653 
L 5254 4653 
L 5254 3770 
L 3181 3770 
L 3181 4653 
z
M 2733 5075 
L 2733 3347 
L 5722 3347 
L 5722 5075 
L 2733 5075 
z
M 653 4902 
C 998 4602 1421 4173 1626 3898 
L 1958 4250 
C 1754 4512 1312 4922 973 5203 
L 653 4902 
z
M 2342 1632 
L 2342 1203 
L 3789 1203 
C 3578 563 3136 134 2157 -128 
C 2259 -218 2381 -403 2426 -512 
C 3411 -218 3910 237 4166 902 
C 4512 205 5088 -288 5882 -531 
C 5939 -397 6080 -218 6189 -122 
C 5382 77 4800 544 4493 1203 
L 6150 1203 
L 6150 1632 
L 4358 1632 
C 4390 1850 4416 2086 4429 2336 
L 5907 2336 
L 5907 2771 
L 2554 2771 
L 2554 2336 
L 3974 2336 
C 3962 2080 3936 1850 3898 1632 
L 2342 1632 
z
M 1210 -320 
C 1306 -205 1466 -83 2490 634 
C 2451 730 2387 909 2362 1030 
L 1658 570 
L 1658 3379 
L 282 3379 
L 282 2918 
L 1190 2918 
L 1190 595 
C 1190 333 1056 186 960 122 
C 1043 19 1171 -205 1210 -320 
z
" transform="scale(0.015625)"/>
     </defs>
     <use xlink:href="#NotoSansCJKjp-Regular-43"/>
     <use xlink:href="#NotoSansCJKjp-Regular-55" transform="translate(63.799988 0)"/>
     <use xlink:href="#NotoSansCJKjp-Regular-44" transform="translate(135.899979 0)"/>
     <use xlink:href="#NotoSansCJKjp-Regular-41" transform="translate(204.699966 0)"/>
     <use xlink:href="#NotoSansCJKjp-Regular-20" transform="translate(265.499954 0)"/>
     <use xlink:href="#NotoSansCJKjp-Regular-9519" transform="translate(287.899948 0)"/>
     <use xlink:href="#NotoSansCJKjp-Regular-8bef" transform="translate(387.899933 0)"/>
    </g>
   </g>
   <g id="text_12">
    <!-- 二分搜索算法：在最少的步骤中定位有问题的节点 -->
    <g style="fill: #2c5f8a" transform="translate(142.4 248.712423) scale(0.08 -0.08)">
     <defs>
      <path id="NotoSansCJKjp-Regular-4e8c" d="M 902 4461 
L 902 3942 
L 5504 3942 
L 5504 4461 
L 902 4461 
z
M 365 666 
L 365 128 
L 6048 128 
L 6048 666 
L 365 666 
z
" transform="scale(0.015625)"/>
      <path id="NotoSansCJKjp-Regular-5206" d="M 2074 5248 
C 1677 4256 966 3373 147 2829 
C 262 2739 474 2554 563 2451 
C 1363 3059 2118 4019 2586 5101 
L 2074 5248 
z
M 4307 5261 
L 3846 5075 
C 4326 4122 5139 3085 5850 2509 
C 5939 2643 6118 2829 6253 2931 
C 5549 3424 4723 4397 4307 5261 
z
M 1197 2957 
L 1197 2490 
L 2509 2490 
C 2368 1402 2010 378 486 -122 
C 595 -224 736 -416 800 -544 
C 2445 51 2854 1216 3027 2490 
L 4685 2490 
C 4608 864 4512 224 4346 58 
C 4282 -6 4205 -26 4077 -26 
C 3923 -26 3533 -19 3110 19 
C 3200 -115 3258 -320 3270 -461 
C 3674 -486 4070 -493 4288 -474 
C 4506 -454 4653 -410 4781 -243 
C 5005 0 5094 736 5190 2726 
C 5197 2790 5197 2957 5197 2957 
L 1197 2957 
z
" transform="scale(0.015625)"/>
      <path id="NotoSansCJKjp-Regular-641c" d="M 2387 1850 
L 2387 1440 
L 3091 1440 
L 2803 1331 
C 3040 941 3354 608 3738 326 
C 3213 109 2624 -32 2022 -109 
C 2106 -218 2195 -403 2240 -518 
C 2918 -410 3584 -224 4160 58 
C 4672 -230 5261 -429 5907 -550 
C 5978 -422 6106 -230 6214 -128 
C 5638 -38 5107 109 4640 326 
C 5171 672 5606 1126 5869 1728 
L 5574 1869 
L 5491 1850 
L 4410 1850 
L 4410 2432 
L 5888 2432 
L 5888 4851 
L 4640 4851 
L 4640 4454 
L 5453 4454 
L 5453 3834 
L 4672 3834 
L 4672 3469 
L 5453 3469 
L 5453 2835 
L 4410 2835 
L 4410 5376 
L 3968 5376 
L 3968 2835 
L 2989 2835 
L 2989 3469 
L 3680 3469 
L 3680 3834 
L 2989 3834 
L 2989 4410 
C 3302 4518 3642 4666 3904 4826 
L 3558 5139 
C 3379 5005 3091 4851 2810 4736 
L 2560 4813 
L 2560 2432 
L 3968 2432 
L 3968 1850 
L 2387 1850 
z
M 5203 1440 
C 4960 1075 4614 787 4205 557 
C 3808 794 3482 1094 3258 1440 
L 5203 1440 
z
M 1158 5376 
L 1158 4090 
L 269 4090 
L 269 3635 
L 1158 3635 
L 1158 2240 
L 179 1971 
L 314 1504 
L 1158 1766 
L 1158 45 
C 1158 -51 1120 -77 1037 -77 
C 954 -83 691 -83 397 -77 
C 461 -205 525 -397 544 -512 
C 966 -512 1229 -499 1395 -429 
C 1562 -352 1619 -224 1619 45 
L 1619 1907 
L 2406 2157 
L 2342 2586 
L 1619 2374 
L 1619 3635 
L 2336 3635 
L 2336 4090 
L 1619 4090 
L 1619 5376 
L 1158 5376 
z
" transform="scale(0.015625)"/>
      <path id="NotoSansCJKjp-Regular-7d22" d="M 4038 627 
C 4602 333 5299 -115 5626 -429 
L 6022 -141 
C 5658 179 4960 608 4410 877 
L 4038 627 
z
M 1856 883 
C 1472 506 858 128 282 -109 
C 397 -186 582 -352 666 -442 
C 1216 -173 1875 269 2310 710 
L 1856 883 
z
M 474 3776 
L 474 2566 
L 928 2566 
L 928 3354 
L 2611 3354 
C 2381 3110 2054 2822 1773 2598 
L 1440 2771 
L 1120 2496 
C 1530 2285 2016 1984 2336 1734 
L 1894 1459 
L 422 1453 
L 448 1005 
L 2950 1062 
L 2950 -525 
L 3424 -525 
L 3424 1075 
L 5254 1133 
C 5402 1011 5536 896 5638 794 
L 5971 1088 
C 5619 1427 4909 1920 4346 2246 
L 4026 1997 
C 4262 1856 4525 1677 4768 1498 
L 2630 1472 
C 3277 1875 3974 2374 4531 2822 
L 4090 3059 
C 3738 2733 3238 2349 2726 1997 
C 2560 2125 2349 2266 2125 2400 
C 2458 2637 2842 2957 3155 3258 
L 2957 3354 
L 5485 3354 
L 5485 2566 
L 5952 2566 
L 5952 3776 
L 3424 3776 
L 3424 4390 
L 5901 4390 
L 5901 4813 
L 3424 4813 
L 3424 5382 
L 2944 5382 
L 2944 4813 
L 486 4813 
L 486 4390 
L 2944 4390 
L 2944 3776 
L 474 3776 
z
" transform="scale(0.015625)"/>
      <path id="NotoSansCJKjp-Regular-7b97" d="M 1613 2925 
L 4890 2925 
L 4890 2547 
L 1613 2547 
L 1613 2925 
z
M 1613 2240 
L 4890 2240 
L 4890 1856 
L 1613 1856 
L 1613 2240 
z
M 1613 3597 
L 4890 3597 
L 4890 3232 
L 1613 3232 
L 1613 3597 
z
M 3686 5408 
C 3507 4915 3181 4448 2790 4141 
C 2899 4096 3085 3994 3181 3923 
L 1894 3923 
L 2259 4058 
C 2214 4179 2118 4352 2016 4506 
L 3117 4506 
L 3117 4902 
L 1427 4902 
C 1498 5030 1562 5158 1619 5286 
L 1171 5408 
C 966 4909 614 4410 224 4083 
C 333 4019 525 3891 614 3814 
C 813 4000 1011 4243 1184 4506 
L 1517 4506 
C 1645 4314 1773 4077 1837 3923 
L 1133 3923 
L 1133 1530 
L 1990 1530 
L 1990 1114 
L 1984 973 
L 358 973 
L 358 576 
L 1830 576 
C 1651 307 1267 38 461 -160 
C 563 -250 698 -416 762 -518 
C 1786 -224 2214 179 2381 576 
L 4109 576 
L 4109 -499 
L 4602 -499 
L 4602 576 
L 6067 576 
L 6067 973 
L 4602 973 
L 4602 1530 
L 5389 1530 
L 5389 3923 
L 4749 3923 
L 5094 4083 
C 5030 4205 4915 4358 4787 4506 
L 6016 4506 
L 6016 4902 
L 3968 4902 
C 4038 5030 4096 5165 4147 5299 
L 3686 5408 
z
M 4109 973 
L 2470 973 
L 2477 1101 
L 2477 1530 
L 4109 1530 
L 4109 973 
z
M 3232 3923 
C 3405 4083 3578 4282 3731 4506 
L 4243 4506 
C 4416 4320 4595 4090 4678 3923 
L 3232 3923 
z
" transform="scale(0.015625)"/>
      <path id="NotoSansCJKjp-Regular-6cd5" d="M 589 4979 
C 1030 4800 1574 4499 1837 4275 
L 2118 4672 
C 1843 4896 1293 5171 851 5331 
L 589 4979 
z
M 250 3213 
C 691 3059 1242 2784 1517 2579 
L 1779 2989 
C 1491 3194 934 3443 493 3578 
L 250 3213 
z
M 467 -115 
L 883 -435 
C 1242 166 1664 960 1984 1638 
L 1626 1946 
C 1280 1222 800 378 467 -115 
z
M 4550 1363 
C 4781 1088 5018 768 5222 448 
L 3027 320 
C 3309 877 3616 1606 3846 2227 
L 6080 2227 
L 6080 2688 
L 4250 2688 
L 4250 3872 
L 5779 3872 
L 5779 4326 
L 4250 4326 
L 4250 5376 
L 3763 5376 
L 3763 4326 
L 2291 4326 
L 2291 3872 
L 3763 3872 
L 3763 2688 
L 1971 2688 
L 1971 2227 
L 3283 2227 
C 3091 1613 2784 838 2515 294 
L 1978 269 
L 2042 -218 
C 2938 -160 4230 -70 5472 26 
C 5587 -173 5677 -365 5741 -525 
L 6189 -275 
C 5978 243 5446 1011 4966 1581 
L 4550 1363 
z
" transform="scale(0.015625)"/>
      <path id="NotoSansCJKjp-Regular-ff1a" d="M 3200 3482 
C 3456 3482 3686 3667 3686 3962 
C 3686 4256 3456 4442 3200 4442 
C 2944 4442 2714 4256 2714 3962 
C 2714 3667 2944 3482 3200 3482 
z
M 3200 346 
C 3456 346 3686 538 3686 826 
C 3686 1120 3456 1312 3200 1312 
C 2944 1312 2714 1120 2714 826 
C 2714 538 2944 346 3200 346 
z
" transform="scale(0.015625)"/>
      <path id="NotoSansCJKjp-Regular-5728" d="M 2502 5376 
C 2413 5050 2298 4710 2163 4384 
L 403 4384 
L 403 3923 
L 1952 3923 
C 1542 3104 979 2342 243 1830 
C 320 1722 442 1517 493 1389 
C 762 1581 1011 1798 1235 2035 
L 1235 -486 
L 1715 -486 
L 1715 2605 
C 2016 3014 2278 3462 2496 3923 
L 6010 3923 
L 6010 4384 
L 2694 4384 
C 2810 4672 2912 4966 3002 5254 
L 2502 5376 
z
M 3827 3590 
L 3827 2355 
L 2387 2355 
L 2387 1907 
L 3827 1907 
L 3827 90 
L 2131 90 
L 2131 -358 
L 6003 -358 
L 6003 90 
L 4307 90 
L 4307 1907 
L 5760 1907 
L 5760 2355 
L 4307 2355 
L 4307 3590 
L 3827 3590 
z
" transform="scale(0.015625)"/>
      <path id="NotoSansCJKjp-Regular-6700" d="M 1600 4064 
L 4813 4064 
L 4813 3610 
L 1600 3610 
L 1600 4064 
z
M 1600 4832 
L 4813 4832 
L 4813 4384 
L 1600 4384 
L 1600 4832 
z
M 1139 5171 
L 1139 3270 
L 5293 3270 
L 5293 5171 
L 1139 5171 
z
M 2534 2509 
L 2534 2074 
L 1370 2074 
L 1370 2509 
L 2534 2509 
z
M 314 282 
L 358 -147 
L 2534 115 
L 2534 -512 
L 2995 -512 
L 2995 -109 
C 3091 -198 3200 -365 3251 -474 
C 3699 -320 4141 -96 4531 205 
C 4909 -115 5363 -358 5875 -506 
C 5939 -397 6061 -218 6163 -134 
C 5664 -6 5229 205 4858 486 
C 5280 883 5613 1389 5811 2010 
L 5517 2131 
L 5434 2112 
L 3219 2112 
L 3219 1722 
L 3776 1722 
L 3501 1638 
C 3674 1216 3910 832 4205 512 
C 3840 237 3418 32 2995 -90 
L 2995 2509 
L 6016 2509 
L 6016 2912 
L 371 2912 
L 371 2509 
L 928 2509 
L 928 339 
L 314 282 
z
M 3898 1722 
L 5222 1722 
C 5056 1363 4813 1050 4531 781 
C 4262 1050 4045 1370 3898 1722 
z
M 2534 1709 
L 2534 1261 
L 1370 1261 
L 1370 1709 
L 2534 1709 
z
M 2534 902 
L 2534 518 
L 1370 384 
L 1370 902 
L 2534 902 
z
" transform="scale(0.015625)"/>
      <path id="NotoSansCJKjp-Regular-5c11" d="M 2950 5370 
L 2950 2125 
C 2950 2022 2918 1997 2810 1997 
C 2694 1997 2304 1990 1875 1997 
C 1952 1862 2029 1651 2054 1510 
C 2592 1510 2944 1517 3155 1600 
C 3373 1677 3443 1824 3443 2118 
L 3443 5370 
L 2950 5370 
z
M 4339 4403 
C 4890 3738 5478 2835 5696 2253 
L 6176 2515 
C 5933 3110 5331 3981 4774 4627 
L 4339 4403 
z
M 4762 2656 
C 4211 1011 2989 243 723 -51 
C 819 -179 928 -378 979 -525 
C 3354 -160 4659 698 5261 2502 
L 4762 2656 
z
M 1536 4563 
C 1299 3859 806 3002 243 2464 
C 371 2394 563 2266 672 2176 
C 1242 2758 1747 3661 2061 4435 
L 1536 4563 
z
" transform="scale(0.015625)"/>
      <path id="NotoSansCJKjp-Regular-7684" d="M 3533 2707 
C 3885 2240 4320 1600 4512 1210 
L 4922 1466 
C 4710 1843 4269 2464 3904 2918 
L 3533 2707 
z
M 1536 5389 
C 1485 5082 1376 4659 1274 4346 
L 557 4346 
L 557 -346 
L 998 -346 
L 998 160 
L 2784 160 
L 2784 4346 
L 1715 4346 
C 1824 4621 1946 4979 2054 5299 
L 1536 5389 
z
M 998 3917 
L 2342 3917 
L 2342 2566 
L 998 2566 
L 998 3917 
z
M 998 595 
L 998 2144 
L 2342 2144 
L 2342 595 
L 998 595 
z
M 3827 5402 
C 3622 4518 3277 3635 2835 3066 
C 2950 3002 3149 2867 3238 2790 
C 3456 3098 3661 3488 3840 3923 
L 5478 3923 
C 5402 1357 5299 371 5094 154 
C 5018 64 4947 45 4819 45 
C 4672 45 4288 51 3866 83 
C 3955 -38 4013 -243 4026 -378 
C 4384 -397 4762 -410 4979 -390 
C 5210 -365 5350 -314 5498 -122 
C 5754 192 5843 1184 5939 4122 
C 5946 4186 5946 4365 5946 4365 
L 4013 4365 
C 4115 4666 4211 4986 4288 5299 
L 3827 5402 
z
" transform="scale(0.015625)"/>
      <path id="NotoSansCJKjp-Regular-6b65" d="M 1683 2758 
C 1370 2278 845 1811 333 1504 
C 454 1427 659 1267 749 1178 
C 1242 1523 1811 2061 2176 2598 
L 1683 2758 
z
M 4915 2579 
C 4358 966 3117 211 813 -70 
C 909 -192 1005 -384 1056 -525 
C 3456 -173 4774 659 5389 2419 
L 4915 2579 
z
M 1306 4877 
L 1306 3437 
L 346 3437 
L 346 2982 
L 2963 2982 
L 2963 1504 
C 2963 1427 2944 1408 2854 1408 
C 2758 1402 2438 1402 2106 1408 
C 2163 1286 2234 1107 2259 979 
C 2707 979 3014 979 3200 1050 
C 3392 1120 3450 1242 3450 1498 
L 3450 2982 
L 6061 2982 
L 6061 3437 
L 3456 3437 
L 3456 4166 
L 5414 4166 
L 5414 4621 
L 3456 4621 
L 3456 5376 
L 2963 5376 
L 2963 3437 
L 1786 3437 
L 1786 4877 
L 1306 4877 
z
" transform="scale(0.015625)"/>
      <path id="NotoSansCJKjp-Regular-9aa4" d="M 3488 1754 
C 3238 1491 2829 1242 2451 1062 
C 2541 998 2682 845 2746 781 
C 3123 986 3578 1312 3866 1626 
L 3488 1754 
z
M 173 1011 
L 275 608 
C 704 723 1216 864 1722 1005 
L 1683 1376 
C 1120 1229 570 1094 173 1011 
z
M 5523 1875 
C 5280 1670 4890 1395 4557 1203 
C 4493 1274 4442 1350 4397 1427 
L 4397 2048 
C 4851 2099 5280 2170 5632 2253 
L 5267 2566 
C 4666 2419 3590 2298 2662 2240 
C 2714 2144 2765 2003 2778 1907 
C 3162 1926 3565 1958 3968 1997 
L 3968 858 
L 3622 960 
C 3347 608 2861 282 2394 64 
C 2483 0 2630 -147 2701 -224 
C 3142 13 3648 378 3968 781 
L 3968 -493 
L 4397 -493 
L 4397 870 
C 4762 435 5254 77 5779 -122 
C 5837 -13 5958 141 6054 224 
C 5581 365 5126 627 4781 960 
C 5120 1139 5510 1382 5830 1613 
L 5523 1875 
z
M 4410 4237 
C 4602 4045 4806 3821 4998 3590 
C 4806 3315 4576 3091 4339 2944 
L 4326 3264 
L 4115 3238 
L 4115 4762 
L 4333 4762 
L 4333 5120 
L 2400 5120 
L 2400 4762 
L 2688 4762 
L 2688 3053 
L 2342 3014 
L 2426 2650 
L 3750 2848 
L 3750 2483 
L 4115 2483 
L 4115 2899 
L 4326 2938 
L 4301 2918 
C 4384 2842 4486 2701 4538 2605 
C 4800 2771 5043 3002 5254 3290 
C 5446 3059 5613 2835 5728 2662 
L 6016 2918 
C 5888 3110 5690 3354 5466 3616 
C 5690 4000 5862 4461 5965 4986 
L 5728 5056 
L 5658 5043 
L 5581 5037 
L 4506 5037 
L 4506 4666 
L 5504 4666 
C 5427 4397 5325 4141 5197 3917 
C 5024 4109 4851 4294 4685 4461 
L 4410 4237 
z
M 3046 4762 
L 3750 4762 
L 3750 4442 
L 3046 4442 
L 3046 4762 
z
M 3046 4147 
L 3750 4147 
L 3750 3808 
L 3046 3808 
L 3046 4147 
z
M 3046 3514 
L 3750 3514 
L 3750 3187 
L 3046 3098 
L 3046 3514 
z
M 666 4179 
C 627 3488 538 2534 454 1971 
L 1946 1971 
C 1862 640 1760 109 1632 -19 
C 1581 -83 1517 -96 1434 -96 
C 1325 -96 1094 -90 838 -70 
C 909 -179 960 -352 966 -474 
C 1210 -486 1459 -486 1600 -474 
C 1773 -461 1888 -422 1990 -294 
C 2176 -83 2278 518 2381 2157 
C 2387 2221 2387 2362 2387 2362 
L 1939 2362 
C 2022 3078 2112 4218 2163 5075 
L 365 5075 
L 365 4659 
L 1728 4659 
C 1683 3891 1600 2982 1523 2362 
L 915 2362 
C 973 2899 1030 3597 1069 4154 
L 666 4179 
z
" transform="scale(0.015625)"/>
      <path id="NotoSansCJKjp-Regular-4e2d" d="M 2931 5376 
L 2931 4230 
L 614 4230 
L 614 1190 
L 1094 1190 
L 1094 1587 
L 2931 1587 
L 2931 -506 
L 3437 -506 
L 3437 1587 
L 5280 1587 
L 5280 1222 
L 5773 1222 
L 5773 4230 
L 3437 4230 
L 3437 5376 
L 2931 5376 
z
M 1094 2061 
L 1094 3763 
L 2931 3763 
L 2931 2061 
L 1094 2061 
z
M 5280 2061 
L 3437 2061 
L 3437 3763 
L 5280 3763 
L 5280 2061 
z
" transform="scale(0.015625)"/>
      <path id="NotoSansCJKjp-Regular-6709" d="M 2502 5376 
C 2426 5101 2336 4819 2221 4544 
L 403 4544 
L 403 4096 
L 2022 4096 
C 1613 3251 1024 2470 256 1946 
C 346 1856 499 1683 563 1574 
C 966 1862 1325 2208 1632 2598 
L 1632 -506 
L 2106 -506 
L 2106 762 
L 4787 762 
L 4787 96 
C 4787 0 4755 -38 4646 -38 
C 4525 -45 4134 -51 3712 -32 
C 3776 -166 3846 -365 3872 -493 
C 4422 -493 4774 -493 4986 -422 
C 5197 -339 5261 -192 5261 90 
L 5261 3354 
L 2150 3354 
C 2298 3597 2426 3840 2541 4096 
L 6010 4096 
L 6010 4544 
L 2733 4544 
C 2829 4781 2912 5024 2989 5261 
L 2502 5376 
z
M 2106 1850 
L 4787 1850 
L 4787 1178 
L 2106 1178 
L 2106 1850 
z
M 2106 2259 
L 2106 2918 
L 4787 2918 
L 4787 2259 
L 2106 2259 
z
" transform="scale(0.015625)"/>
      <path id="NotoSansCJKjp-Regular-95ee" d="M 595 3936 
L 595 -512 
L 1069 -512 
L 1069 3936 
L 595 3936 
z
M 666 5062 
C 986 4730 1408 4262 1619 3987 
L 1984 4256 
C 1773 4525 1338 4973 1011 5293 
L 666 5062 
z
M 2272 5018 
L 2272 4563 
L 5325 4563 
L 5325 160 
C 5325 51 5286 13 5178 13 
C 5069 6 4685 0 4301 19 
C 4365 -115 4442 -326 4461 -467 
C 4979 -467 5325 -461 5536 -378 
C 5734 -294 5805 -154 5805 160 
L 5805 5018 
L 2272 5018 
z
M 2061 3430 
L 2061 659 
L 2502 659 
L 2502 1075 
L 4307 1075 
L 4307 3430 
L 2061 3430 
z
M 2502 2995 
L 3840 2995 
L 3840 1510 
L 2502 1510 
L 2502 2995 
z
" transform="scale(0.015625)"/>
      <path id="NotoSansCJKjp-Regular-9898" d="M 1126 3936 
L 2432 3936 
L 2432 3450 
L 1126 3450 
L 1126 3936 
z
M 1126 4755 
L 2432 4755 
L 2432 4275 
L 1126 4275 
L 1126 4755 
z
M 691 5107 
L 691 3098 
L 2880 3098 
L 2880 5107 
L 691 5107 
z
M 4448 3392 
C 4403 1734 4275 915 2931 493 
C 3014 416 3123 269 3162 173 
C 4621 659 4806 1587 4851 3392 
L 4448 3392 
z
M 4672 1190 
C 5075 902 5568 480 5811 211 
L 6106 506 
C 5850 768 5344 1171 4954 1446 
L 4672 1190 
z
M 794 1933 
C 762 1005 640 237 211 -262 
C 314 -314 493 -435 563 -499 
C 800 -192 954 179 1050 627 
C 1626 -224 2566 -371 3930 -371 
L 5990 -371 
C 6016 -250 6093 -58 6163 38 
C 5792 26 4224 26 3936 26 
C 3168 32 2528 70 2029 275 
L 2029 1190 
L 3091 1190 
L 3091 1562 
L 2029 1562 
L 2029 2246 
L 3206 2246 
L 3206 2624 
L 314 2624 
L 314 2246 
L 1613 2246 
L 1613 518 
C 1421 672 1261 870 1139 1126 
C 1171 1370 1190 1632 1203 1907 
L 794 1933 
z
M 3456 4070 
L 3456 1376 
L 3859 1376 
L 3859 3706 
L 5382 3706 
L 5382 1402 
L 5805 1402 
L 5805 4070 
L 4602 4070 
C 4678 4250 4762 4474 4845 4691 
L 6112 4691 
L 6112 5082 
L 3194 5082 
L 3194 4691 
L 4358 4691 
C 4301 4480 4230 4250 4160 4070 
L 3456 4070 
z
" transform="scale(0.015625)"/>
      <path id="NotoSansCJKjp-Regular-8282" d="M 627 3110 
L 627 2650 
L 2304 2650 
L 2304 -499 
L 2810 -499 
L 2810 2650 
L 4941 2650 
L 4941 986 
C 4941 890 4902 864 4781 858 
C 4653 851 4218 851 3750 864 
C 3814 717 3878 512 3898 365 
C 4506 365 4902 365 5139 442 
C 5370 525 5434 678 5434 973 
L 5434 3110 
L 627 3110 
z
M 4058 5376 
L 4058 4653 
L 2342 4653 
L 2342 5376 
L 1850 5376 
L 1850 4653 
L 352 4653 
L 352 4192 
L 1850 4192 
L 1850 3456 
L 2342 3456 
L 2342 4192 
L 4058 4192 
L 4058 3456 
L 4557 3456 
L 4557 4192 
L 6054 4192 
L 6054 4653 
L 4557 4653 
L 4557 5376 
L 4058 5376 
z
" transform="scale(0.015625)"/>
      <path id="NotoSansCJKjp-Regular-70b9" d="M 1517 2976 
L 4864 2976 
L 4864 1830 
L 1517 1830 
L 1517 2976 
z
M 2176 819 
C 2259 403 2310 -134 2310 -454 
L 2797 -390 
C 2790 -83 2726 448 2630 858 
L 2176 819 
z
M 3501 813 
C 3686 416 3878 -122 3949 -442 
L 4416 -320 
C 4339 0 4134 518 3936 909 
L 3501 813 
z
M 4806 864 
C 5126 461 5485 -109 5632 -461 
L 6086 -269 
C 5926 83 5555 627 5235 1030 
L 4806 864 
z
M 1133 992 
C 934 518 608 0 269 -294 
L 704 -506 
C 1056 -166 1382 371 1587 870 
L 1133 992 
z
M 1062 3430 
L 1062 1382 
L 5344 1382 
L 5344 3430 
L 3392 3430 
L 3392 4243 
L 5824 4243 
L 5824 4698 
L 3392 4698 
L 3392 5376 
L 2912 5376 
L 2912 3430 
L 1062 3430 
z
" transform="scale(0.015625)"/>
     </defs>
     <use xlink:href="#NotoSansCJKjp-Regular-4e8c"/>
     <use xlink:href="#NotoSansCJKjp-Regular-5206" transform="translate(99.999985 0)"/>
     <use xlink:href="#NotoSansCJKjp-Regular-641c" transform="translate(199.999969 0)"/>
     <use xlink:href="#NotoSansCJKjp-Regular-7d22" transform="translate(299.999954 0)"/>
     <use xlink:href="#NotoSansCJKjp-Regular-7b97" transform="translate(399.999939 0)"/>
     <use xlink:href="#NotoSansCJKjp-Regular-6cd5" transform="translate(499.999924 0)"/>
     <use xlink:href="#NotoSansCJKjp-Regular-ff1a" transform="translate(599.999908 0)"/>
     <use xlink:href="#NotoSansCJKjp-Regular-5728" transform="translate(699.999893 0)"/>
     <use xlink:href="#NotoSansCJKjp-Regular-6700" transform="translate(799.999878 0)"/>
     <use xlink:href="#NotoSansCJKjp-Regular-5c11" transform="translate(899.999863 0)"/>
     <use xlink:href="#NotoSansCJKjp-Regular-7684" transform="translate(999.999847 0)"/>
     <use xlink:href="#NotoSansCJKjp-Regular-6b65" transform="translate(1099.999832 0)"/>
     <use xlink:href="#NotoSansCJKjp-Regular-9aa4" transform="translate(1199.999817 0)"/>
     <use xlink:href="#NotoSansCJKjp-Regular-4e2d" transform="translate(1299.999802 0)"/>
     <use xlink:href="#NotoSansCJKjp-Regular-5b9a" transform="translate(1399.999786 0)"/>
     <use xlink:href="#NotoSansCJKjp-Regular-4f4d" transform="translate(1499.999771 0)"/>
     <use xlink:href="#NotoSansCJKjp-Regular-6709" transform="translate(1599.999756 0)"/>
     <use xlink:href="#NotoSansCJKjp-Regular-95ee" transform="translate(1699.999741 0)"/>
     <use xlink:href="#NotoSansCJKjp-Regular-9898" transform="translate(1799.999725 0)"/>
     <use xlink:href="#NotoSansCJKjp-Regular-7684" transform="translate(1899.99971 0)"/>
     <use xlink:href="#NotoSansCJKjp-Regular-8282" transform="translate(1999.999695 0)"/>
     <use xlink:href="#NotoSansCJKjp-Regular-70b9" transform="translate(2099.99968 0)"/>
    </g>
   </g>
   <g id="text_13">
    <!-- 完整 FX Graph -->
    <g style="fill: #757575" transform="translate(54.839531 270.526096) scale(0.06 -0.06)">
     <defs>
      <path id="NotoSansCJKjp-Regular-5b8c" d="M 1459 3520 
L 1459 3078 
L 4941 3078 
L 4941 3520 
L 1459 3520 
z
M 358 2342 
L 358 1888 
L 2022 1888 
C 1907 915 1594 230 218 -115 
C 326 -211 454 -403 506 -525 
C 2010 -109 2394 717 2541 1888 
L 3661 1888 
L 3661 256 
C 3661 -256 3814 -397 4410 -397 
C 4531 -397 5274 -397 5395 -397 
C 5914 -397 6048 -179 6106 704 
C 5978 736 5773 813 5670 896 
C 5645 154 5606 45 5357 45 
C 5197 45 4582 45 4454 45 
C 4192 45 4147 77 4147 262 
L 4147 1888 
L 6035 1888 
L 6035 2342 
L 358 2342 
z
M 512 4691 
L 512 3334 
L 998 3334 
L 998 4230 
L 5382 4230 
L 5382 3334 
L 5894 3334 
L 5894 4691 
L 3437 4691 
L 3437 5376 
L 2931 5376 
L 2931 4691 
L 512 4691 
z
" transform="scale(0.015625)"/>
      <path id="NotoSansCJKjp-Regular-6574" d="M 1357 1139 
L 1357 32 
L 301 32 
L 301 -371 
L 6118 -371 
L 6118 32 
L 3430 32 
L 3430 563 
L 5274 563 
L 5274 934 
L 3430 934 
L 3430 1427 
L 5696 1427 
L 5696 1824 
L 730 1824 
L 730 1427 
L 2957 1427 
L 2957 32 
L 1818 32 
L 1818 1139 
L 1357 1139 
z
M 4109 5376 
C 3930 4742 3597 4154 3162 3770 
L 3162 4282 
L 2054 4282 
L 2054 4608 
L 3315 4608 
L 3315 4960 
L 2054 4960 
L 2054 5376 
L 1626 5376 
L 1626 4960 
L 365 4960 
L 365 4608 
L 1626 4608 
L 1626 4282 
L 550 4282 
L 550 3110 
L 1440 3110 
C 1126 2790 646 2470 256 2304 
C 346 2234 474 2093 538 1997 
C 883 2176 1306 2496 1626 2822 
L 1626 1997 
L 2054 1997 
L 2054 2784 
C 2368 2611 2790 2362 2970 2227 
L 3206 2547 
C 3027 2650 2349 2989 2086 3110 
L 3162 3110 
L 3162 3725 
C 3264 3642 3411 3494 3462 3411 
C 3603 3546 3744 3699 3866 3878 
C 4000 3590 4186 3296 4416 3021 
C 4064 2714 3629 2490 3104 2330 
C 3200 2253 3341 2074 3392 1978 
C 3904 2163 4339 2400 4704 2714 
C 5030 2406 5434 2138 5926 1958 
C 5990 2067 6112 2246 6202 2336 
C 5715 2483 5318 2720 4998 3002 
C 5299 3347 5530 3757 5677 4269 
L 6093 4269 
L 6093 4659 
L 4314 4659 
C 4403 4858 4480 5069 4544 5280 
L 4109 5376 
z
M 947 3962 
L 1626 3962 
L 1626 3430 
L 947 3430 
L 947 3962 
z
M 2054 3962 
L 2752 3962 
L 2752 3430 
L 2054 3430 
L 2054 3962 
z
M 4122 4269 
L 5216 4269 
C 5101 3891 4928 3571 4698 3302 
C 4435 3603 4243 3930 4109 4250 
L 4122 4269 
z
" transform="scale(0.015625)"/>
      <path id="NotoSansCJKjp-Regular-47" d="M 2490 -83 
C 3117 -83 3635 147 3936 461 
L 3936 2432 
L 2394 2432 
L 2394 1939 
L 3392 1939 
L 3392 710 
C 3206 538 2880 435 2547 435 
C 1542 435 979 1178 979 2362 
C 979 3533 1594 4256 2541 4256 
C 3008 4256 3315 4058 3552 3814 
L 3872 4198 
C 3603 4480 3174 4774 2522 4774 
C 1280 4774 371 3859 371 2342 
C 371 819 1254 -83 2490 -83 
z
" transform="scale(0.015625)"/>
      <path id="NotoSansCJKjp-Regular-72" d="M 589 0 
L 1178 0 
L 1178 2234 
C 1408 2822 1760 3040 2048 3040 
C 2195 3040 2272 3021 2387 2982 
L 2496 3488 
C 2387 3546 2278 3565 2125 3565 
C 1741 3565 1382 3283 1139 2842 
L 1126 2842 
L 1069 3475 
L 589 3475 
L 589 0 
z
" transform="scale(0.015625)"/>
      <path id="NotoSansCJKjp-Regular-70" d="M 589 -1466 
L 1178 -1466 
L 1178 -288 
L 1158 320 
C 1472 58 1805 -83 2118 -83 
C 2912 -83 3629 602 3629 1792 
C 3629 2867 3142 3565 2246 3565 
C 1843 3565 1453 3334 1139 3072 
L 1126 3072 
L 1069 3475 
L 589 3475 
L 589 -1466 
z
M 2022 410 
C 1792 410 1485 499 1178 768 
L 1178 2598 
C 1510 2906 1811 3072 2099 3072 
C 2765 3072 3021 2560 3021 1786 
C 3021 928 2598 410 2022 410 
z
" transform="scale(0.015625)"/>
     </defs>
     <use xlink:href="#NotoSansCJKjp-Regular-5b8c"/>
     <use xlink:href="#NotoSansCJKjp-Regular-6574" transform="translate(99.999985 0)"/>
     <use xlink:href="#NotoSansCJKjp-Regular-20" transform="translate(199.999969 0)"/>
     <use xlink:href="#NotoSansCJKjp-Regular-46" transform="translate(222.399963 0)"/>
     <use xlink:href="#NotoSansCJKjp-Regular-58" transform="translate(277.59996 0)"/>
     <use xlink:href="#NotoSansCJKjp-Regular-20" transform="translate(334.899948 0)"/>
     <use xlink:href="#NotoSansCJKjp-Regular-47" transform="translate(357.299942 0)"/>
     <use xlink:href="#NotoSansCJKjp-Regular-72" transform="translate(426.199936 0)"/>
     <use xlink:href="#NotoSansCJKjp-Regular-61" transform="translate(464.999924 0)"/>
     <use xlink:href="#NotoSansCJKjp-Regular-70" transform="translate(521.299911 0)"/>
     <use xlink:href="#NotoSansCJKjp-Regular-68" transform="translate(583.299896 0)"/>
    </g>
    <!-- N 个节点 -->
    <g style="fill: #757575" transform="translate(62.318906 277.631221) scale(0.06 -0.06)">
     <defs>
      <path id="NotoSansCJKjp-Regular-4e" d="M 646 0 
L 1203 0 
L 1203 2464 
C 1203 2957 1158 3456 1133 3930 
L 1158 3930 
L 1664 2963 
L 3373 0 
L 3981 0 
L 3981 4691 
L 3418 4691 
L 3418 2253 
C 3418 1766 3462 1235 3501 768 
L 3469 768 
L 2963 1734 
L 1248 4691 
L 646 4691 
L 646 0 
z
" transform="scale(0.015625)"/>
      <path id="NotoSansCJKjp-Regular-4e2a" d="M 3174 4858 
C 3770 4026 4941 3014 5990 2406 
C 6080 2554 6189 2720 6317 2842 
C 5261 3373 4090 4365 3398 5357 
L 2893 5357 
C 2387 4493 1274 3411 115 2758 
C 224 2656 358 2483 422 2368 
C 1562 3040 2650 4051 3174 4858 
z
M 2925 3264 
L 2925 -512 
L 3430 -512 
L 3430 3264 
L 2925 3264 
z
" transform="scale(0.015625)"/>
     </defs>
     <use xlink:href="#NotoSansCJKjp-Regular-4e"/>
     <use xlink:href="#NotoSansCJKjp-Regular-20" transform="translate(72.299988 0)"/>
     <use xlink:href="#NotoSansCJKjp-Regular-4e2a" transform="translate(94.699982 0)"/>
     <use xlink:href="#NotoSansCJKjp-Regular-8282" transform="translate(194.699966 0)"/>
     <use xlink:href="#NotoSansCJKjp-Regular-70b9" transform="translate(294.699951 0)"/>
    </g>
   </g>
   <g id="text_14">
    <!-- 前半 eager -->
    <g style="fill: #757575" transform="translate(171.218437 270.316284) scale(0.06 -0.06)">
     <defs>
      <path id="NotoSansCJKjp-Regular-524d" d="M 3866 3290 
L 3866 666 
L 4314 666 
L 4314 3290 
L 3866 3290 
z
M 5165 3482 
L 5165 90 
C 5165 -6 5133 -32 5030 -32 
C 4922 -38 4576 -38 4186 -26 
C 4256 -154 4333 -358 4358 -486 
C 4851 -493 5178 -480 5370 -403 
C 5568 -326 5638 -192 5638 83 
L 5638 3482 
L 5165 3482 
z
M 4627 5408 
C 4486 5094 4243 4672 4026 4365 
L 2106 4365 
L 2419 4480 
C 2298 4736 2022 5114 1779 5382 
L 1331 5222 
C 1562 4960 1798 4614 1920 4365 
L 339 4365 
L 339 3923 
L 6061 3923 
L 6061 4365 
L 4570 4365 
C 4755 4627 4960 4947 5139 5242 
L 4627 5408 
z
M 2618 1926 
L 2618 1280 
L 1197 1280 
L 1197 1926 
L 2618 1926 
z
M 2618 2304 
L 1197 2304 
L 1197 2938 
L 2618 2938 
L 2618 2304 
z
M 742 3347 
L 742 -480 
L 1197 -480 
L 1197 902 
L 2618 902 
L 2618 45 
C 2618 -38 2592 -64 2502 -64 
C 2419 -70 2125 -70 1798 -58 
C 1862 -179 1933 -365 1965 -486 
C 2394 -486 2682 -480 2854 -403 
C 3034 -333 3085 -205 3085 38 
L 3085 3347 
L 742 3347 
z
" transform="scale(0.015625)"/>
      <path id="NotoSansCJKjp-Regular-534a" d="M 941 5037 
C 1242 4582 1555 3968 1677 3590 
L 2138 3789 
C 2010 4173 1683 4768 1376 5210 
L 941 5037 
z
M 4986 5229 
C 4800 4774 4467 4141 4198 3757 
L 4621 3590 
C 4890 3968 5229 4550 5491 5050 
L 4986 5229 
z
M 2931 5382 
L 2931 3302 
L 755 3302 
L 755 2829 
L 2931 2829 
L 2931 1798 
L 339 1798 
L 339 1318 
L 2931 1318 
L 2931 -499 
L 3430 -499 
L 3430 1318 
L 6067 1318 
L 6067 1798 
L 3430 1798 
L 3430 2829 
L 5696 2829 
L 5696 3302 
L 3430 3302 
L 3430 5382 
L 2931 5382 
z
" transform="scale(0.015625)"/>
      <path id="NotoSansCJKjp-Regular-65" d="M 1997 -83 
C 2464 -83 2835 70 3136 269 
L 2931 659 
C 2669 486 2400 384 2061 384 
C 1402 384 947 858 909 1600 
L 3251 1600 
C 3264 1690 3277 1805 3277 1933 
C 3277 2925 2778 3565 1888 3565 
C 1094 3565 333 2867 333 1734 
C 333 589 1069 -83 1997 -83 
z
M 902 2016 
C 973 2707 1408 3098 1901 3098 
C 2445 3098 2765 2720 2765 2016 
L 902 2016 
z
" transform="scale(0.015625)"/>
      <path id="NotoSansCJKjp-Regular-67" d="M 1760 -1600 
C 2835 -1600 3520 -1043 3520 -397 
C 3520 179 3110 429 2310 429 
L 1626 429 
C 1158 429 1018 589 1018 806 
C 1018 998 1114 1114 1242 1222 
C 1395 1146 1587 1101 1754 1101 
C 2470 1101 3027 1568 3027 2310 
C 3027 2611 2912 2867 2746 3027 
L 3456 3027 
L 3456 3475 
L 2246 3475 
C 2125 3526 1952 3565 1754 3565 
C 1056 3565 454 3085 454 2323 
C 454 1907 678 1568 909 1389 
L 909 1363 
C 723 1235 525 1005 525 717 
C 525 442 659 256 838 147 
L 838 115 
C 512 -83 326 -371 326 -672 
C 326 -1267 915 -1600 1760 -1600 
z
M 1754 1498 
C 1357 1498 1018 1818 1018 2323 
C 1018 2835 1350 3136 1754 3136 
C 2170 3136 2496 2835 2496 2323 
C 2496 1818 2157 1498 1754 1498 
z
M 1843 -1197 
C 1210 -1197 838 -960 838 -589 
C 838 -390 941 -179 1190 0 
C 1344 -38 1510 -51 1638 -51 
L 2240 -51 
C 2701 -51 2944 -166 2944 -493 
C 2944 -851 2515 -1197 1843 -1197 
z
" transform="scale(0.015625)"/>
     </defs>
     <use xlink:href="#NotoSansCJKjp-Regular-524d"/>
     <use xlink:href="#NotoSansCJKjp-Regular-534a" transform="translate(99.999985 0)"/>
     <use xlink:href="#NotoSansCJKjp-Regular-20" transform="translate(199.999969 0)"/>
     <use xlink:href="#NotoSansCJKjp-Regular-65" transform="translate(222.399963 0)"/>
     <use xlink:href="#NotoSansCJKjp-Regular-61" transform="translate(277.799957 0)"/>
     <use xlink:href="#NotoSansCJKjp-Regular-67" transform="translate(334.099945 0)"/>
     <use xlink:href="#NotoSansCJKjp-Regular-65" transform="translate(390.499939 0)"/>
     <use xlink:href="#NotoSansCJKjp-Regular-72" transform="translate(445.899933 0)"/>
    </g>
    <!-- 后半 compiled -->
    <g style="fill: #757575" transform="translate(165.902812 277.871034) scale(0.06 -0.06)">
     <defs>
      <path id="NotoSansCJKjp-Regular-540e" d="M 5222 5325 
C 4352 5088 2829 4902 1446 4787 
L 954 4883 
L 954 3085 
C 954 2099 883 774 205 -198 
C 326 -256 512 -416 582 -518 
C 1338 538 1434 2048 1434 3078 
L 1434 3142 
L 6163 3142 
L 6163 3603 
L 1434 3603 
L 1434 4358 
C 2886 4461 4518 4653 5626 4947 
L 5222 5325 
z
M 1997 2227 
L 1997 -518 
L 2458 -518 
L 2458 -186 
L 5114 -186 
L 5114 -506 
L 5600 -506 
L 5600 2227 
L 1997 2227 
z
M 2458 262 
L 2458 1779 
L 5114 1779 
L 5114 262 
L 2458 262 
z
" transform="scale(0.015625)"/>
      <path id="NotoSansCJKjp-Regular-63" d="M 1958 -83 
C 2374 -83 2771 83 3085 352 
L 2829 749 
C 2611 557 2330 403 2010 403 
C 1370 403 934 934 934 1734 
C 934 2534 1395 3072 2029 3072 
C 2298 3072 2522 2950 2720 2771 
L 3014 3155 
C 2771 3373 2458 3565 2003 3565 
C 1107 3565 333 2893 333 1734 
C 333 582 1037 -83 1958 -83 
z
" transform="scale(0.015625)"/>
      <path id="NotoSansCJKjp-Regular-6d" d="M 589 0 
L 1178 0 
L 1178 2522 
C 1491 2880 1786 3053 2048 3053 
C 2490 3053 2694 2778 2694 2125 
L 2694 0 
L 3277 0 
L 3277 2522 
C 3603 2880 3885 3053 4154 3053 
C 4595 3053 4800 2778 4800 2125 
L 4800 0 
L 5382 0 
L 5382 2202 
C 5382 3085 5043 3565 4333 3565 
C 3904 3565 3546 3290 3181 2899 
C 3040 3309 2758 3565 2221 3565 
C 1805 3565 1446 3302 1139 2970 
L 1126 2970 
L 1069 3475 
L 589 3475 
L 589 0 
z
" transform="scale(0.015625)"/>
      <path id="NotoSansCJKjp-Regular-69" d="M 589 0 
L 1178 0 
L 1178 3475 
L 589 3475 
L 589 0 
z
M 883 4192 
C 1114 4192 1274 4346 1274 4582 
C 1274 4806 1114 4960 883 4960 
C 653 4960 499 4806 499 4582 
C 499 4346 653 4192 883 4192 
z
" transform="scale(0.015625)"/>
      <path id="NotoSansCJKjp-Regular-6c" d="M 1203 -83 
C 1363 -83 1459 -58 1542 -32 
L 1459 416 
C 1395 403 1370 403 1338 403 
C 1248 403 1178 474 1178 653 
L 1178 5094 
L 589 5094 
L 589 691 
C 589 198 768 -83 1203 -83 
z
" transform="scale(0.015625)"/>
      <path id="NotoSansCJKjp-Regular-64" d="M 1773 -83 
C 2189 -83 2560 141 2829 410 
L 2848 410 
L 2899 0 
L 3379 0 
L 3379 5094 
L 2790 5094 
L 2790 3757 
L 2822 3162 
C 2515 3411 2253 3565 1843 3565 
C 1050 3565 339 2861 339 1734 
C 339 576 902 -83 1773 -83 
z
M 1901 410 
C 1293 410 941 902 941 1741 
C 941 2534 1389 3072 1946 3072 
C 2234 3072 2502 2970 2790 2707 
L 2790 883 
C 2502 563 2221 410 1901 410 
z
" transform="scale(0.015625)"/>
     </defs>
     <use xlink:href="#NotoSansCJKjp-Regular-540e"/>
     <use xlink:href="#NotoSansCJKjp-Regular-534a" transform="translate(99.999985 0)"/>
     <use xlink:href="#NotoSansCJKjp-Regular-20" transform="translate(199.999969 0)"/>
     <use xlink:href="#NotoSansCJKjp-Regular-63" transform="translate(222.399963 0)"/>
     <use xlink:href="#NotoSansCJKjp-Regular-6f" transform="translate(273.399948 0)"/>
     <use xlink:href="#NotoSansCJKjp-Regular-6d" transform="translate(333.999939 0)"/>
     <use xlink:href="#NotoSansCJKjp-Regular-70" transform="translate(426.59993 0)"/>
     <use xlink:href="#NotoSansCJKjp-Regular-69" transform="translate(488.599915 0)"/>
     <use xlink:href="#NotoSansCJKjp-Regular-6c" transform="translate(516.099899 0)"/>
     <use xlink:href="#NotoSansCJKjp-Regular-65" transform="translate(544.499893 0)"/>
     <use xlink:href="#NotoSansCJKjp-Regular-64" transform="translate(599.899887 0)"/>
    </g>
   </g>
   <g id="text_15">
    <!-- 测试是否 -->
    <g style="fill: #2c5f8a" transform="translate(285.36 270.393909) scale(0.06 -0.06)">
     <defs>
      <path id="NotoSansCJKjp-Regular-6d4b" d="M 3110 589 
C 3437 269 3814 -179 3994 -467 
L 4307 -250 
C 4122 26 3738 461 3411 774 
L 3110 589 
z
M 1997 5005 
L 1997 986 
L 2374 986 
L 2374 4634 
L 3763 4634 
L 3763 1005 
L 4154 1005 
L 4154 5005 
L 1997 5005 
z
M 5549 5293 
L 5549 45 
C 5549 -51 5510 -83 5421 -83 
C 5331 -90 5030 -90 4691 -83 
C 4749 -198 4813 -384 4832 -486 
C 5280 -493 5555 -480 5722 -410 
C 5882 -339 5946 -218 5946 45 
L 5946 5293 
L 5549 5293 
z
M 4672 4800 
L 4672 966 
L 5056 966 
L 5056 4800 
L 4672 4800 
z
M 2854 4179 
L 2854 1914 
C 2854 1139 2726 339 1658 -205 
C 1728 -262 1850 -422 1894 -499 
C 3046 83 3226 1050 3226 1907 
L 3226 4179 
L 2854 4179 
z
M 518 4966 
C 877 4768 1338 4461 1555 4256 
L 1850 4646 
C 1619 4838 1152 5120 806 5306 
L 518 4966 
z
M 243 3238 
C 595 3040 1062 2752 1293 2560 
L 1581 2944 
C 1338 3130 864 3405 518 3584 
L 243 3238 
z
M 371 -173 
L 806 -429 
C 1075 160 1395 947 1626 1619 
L 1242 1869 
C 986 1152 627 320 371 -173 
z
" transform="scale(0.015625)"/>
     </defs>
     <use xlink:href="#NotoSansCJKjp-Regular-6d4b"/>
     <use xlink:href="#NotoSansCJKjp-Regular-8bd5" transform="translate(99.999985 0)"/>
     <use xlink:href="#NotoSansCJKjp-Regular-662f" transform="translate(199.999969 0)"/>
     <use xlink:href="#NotoSansCJKjp-Regular-5426" transform="translate(299.999954 0)"/>
    </g>
    <!-- 复现错误 -->
    <g style="fill: #2c5f8a" transform="translate(285.36 277.499034) scale(0.06 -0.06)">
     <defs>
      <path id="NotoSansCJKjp-Regular-590d" d="M 2272 2835 
L 4186 2835 
L 4186 2387 
L 2272 2387 
L 2272 2835 
z
M 2272 3590 
L 4186 3590 
L 4186 3155 
L 2272 3155 
L 2272 3590 
z
M 2221 5389 
C 1965 4730 1517 4102 1011 3699 
C 1120 3629 1306 3450 1382 3366 
C 1536 3501 1683 3661 1830 3834 
L 1830 2048 
L 2547 2048 
C 2195 1549 1626 1120 1043 838 
C 1152 762 1312 595 1382 506 
C 1651 653 1920 838 2176 1050 
C 2368 806 2598 582 2861 390 
C 2330 122 1715 -58 1107 -154 
C 1190 -250 1293 -422 1331 -538 
C 2003 -410 2675 -198 3251 122 
C 3763 -179 4365 -397 5011 -518 
C 5082 -397 5203 -205 5312 -102 
C 4717 -19 4154 147 3667 384 
C 4102 691 4461 1075 4698 1555 
L 4397 1709 
L 4307 1690 
L 2810 1690 
C 2906 1805 2989 1926 3066 2048 
L 4640 2048 
L 4640 3930 
L 1907 3930 
C 2003 4051 2099 4186 2189 4320 
L 4960 4320 
L 4960 4736 
L 2438 4736 
C 2534 4909 2618 5082 2688 5261 
L 2221 5389 
z
M 2458 1299 
L 2483 1325 
L 4032 1325 
C 3834 1050 3565 813 3251 608 
C 2925 806 2656 1043 2458 1299 
z
" transform="scale(0.015625)"/>
      <path id="NotoSansCJKjp-Regular-73b0" d="M 2765 5062 
L 2765 1658 
L 3226 1658 
L 3226 4640 
L 5165 4640 
L 5165 1658 
L 5638 1658 
L 5638 5062 
L 2765 5062 
z
M 275 640 
L 384 173 
C 992 358 1805 602 2566 826 
L 2509 1274 
L 1670 1024 
L 1670 2643 
L 2342 2643 
L 2342 3091 
L 1670 3091 
L 1670 4493 
L 2470 4493 
L 2470 4941 
L 352 4941 
L 352 4493 
L 1210 4493 
L 1210 3091 
L 448 3091 
L 448 2643 
L 1210 2643 
L 1210 890 
C 858 794 538 704 275 640 
z
M 3949 4096 
L 3949 2861 
C 3949 1856 3744 646 2125 -186 
C 2221 -256 2374 -435 2426 -531 
C 3488 26 3994 787 4224 1555 
L 4224 205 
C 4224 -230 4390 -346 4838 -346 
L 5427 -346 
C 5978 -346 6054 -90 6112 922 
C 5990 947 5837 1018 5722 1114 
C 5690 198 5651 19 5427 19 
L 4902 19 
C 4723 19 4672 64 4672 250 
L 4672 1766 
L 4282 1766 
C 4371 2138 4397 2509 4397 2848 
L 4397 4096 
L 3949 4096 
z
" transform="scale(0.015625)"/>
     </defs>
     <use xlink:href="#NotoSansCJKjp-Regular-590d"/>
     <use xlink:href="#NotoSansCJKjp-Regular-73b0" transform="translate(99.999985 0)"/>
     <use xlink:href="#NotoSansCJKjp-Regular-9519" transform="translate(199.999969 0)"/>
     <use xlink:href="#NotoSansCJKjp-Regular-8bef" transform="translate(299.999954 0)"/>
    </g>
   </g>
   <g id="text_16">
    <!-- 缩小范围 -->
    <g style="fill: #e2882c" transform="translate(392.496 270.393909) scale(0.06 -0.06)">
     <defs>
      <path id="NotoSansCJKjp-Regular-7f29" d="M 282 339 
L 397 -115 
C 934 90 1619 358 2285 614 
L 2202 1018 
C 1485 755 768 493 282 339 
z
M 403 2707 
C 493 2746 634 2778 1331 2861 
C 1082 2451 851 2125 749 1997 
C 563 1766 429 1600 301 1581 
C 352 1466 416 1254 442 1165 
C 550 1242 749 1306 2035 1626 
L 2016 1862 
L 2016 2016 
L 1075 1805 
C 1517 2374 1946 3066 2310 3750 
L 1926 3968 
C 1824 3738 1702 3507 1574 3283 
L 870 3219 
C 1242 3776 1600 4480 1882 5165 
L 1453 5357 
C 1203 4582 749 3750 608 3539 
C 474 3315 365 3168 250 3142 
C 307 3021 378 2803 403 2707 
z
M 3021 3917 
C 2854 3238 2490 2394 2016 1862 
C 2093 1786 2214 1638 2272 1549 
C 2419 1709 2554 1888 2682 2086 
L 2682 -512 
L 3091 -512 
L 3091 2854 
C 3238 3174 3354 3501 3450 3808 
L 3021 3917 
z
M 3597 2586 
L 3597 -506 
L 4013 -506 
L 4013 -205 
L 5466 -205 
L 5466 -474 
L 5901 -474 
L 5901 2586 
L 4749 2586 
L 4915 3232 
L 5990 3232 
L 5990 3629 
L 3501 3629 
L 3501 3232 
L 4442 3232 
C 4403 3021 4358 2784 4307 2586 
L 3597 2586 
z
M 3776 5254 
C 3866 5107 3962 4922 4038 4755 
L 2362 4755 
L 2362 3712 
L 2803 3712 
L 2803 4352 
L 5626 4352 
L 5626 3802 
L 6086 3802 
L 6086 4755 
L 4525 4755 
C 4442 4941 4301 5197 4179 5395 
L 3776 5254 
z
M 4013 1024 
L 5466 1024 
L 5466 186 
L 4013 186 
L 4013 1024 
z
M 4013 1414 
L 4013 2189 
L 5466 2189 
L 5466 1414 
L 4013 1414 
z
" transform="scale(0.015625)"/>
      <path id="NotoSansCJKjp-Regular-5c0f" d="M 2970 5286 
L 2970 154 
C 2970 26 2918 -13 2790 -19 
C 2656 -26 2195 -32 1728 -13 
C 1805 -147 1894 -378 1926 -512 
C 2528 -518 2925 -506 3162 -422 
C 3392 -346 3488 -198 3488 154 
L 3488 5286 
L 2970 5286 
z
M 4512 3654 
C 5062 2733 5581 1536 5728 774 
L 6246 986 
C 6080 1754 5536 2931 4973 3827 
L 4512 3654 
z
M 1293 3782 
C 1133 2925 774 1818 205 1139 
C 339 1082 550 966 659 883 
C 1242 1594 1619 2752 1830 3693 
L 1293 3782 
z
" transform="scale(0.015625)"/>
      <path id="NotoSansCJKjp-Regular-8303" d="M 480 -96 
L 813 -493 
C 1286 -6 1850 614 2291 1158 
L 2029 1523 
C 1530 934 896 282 480 -96 
z
M 742 3379 
C 1120 3168 1651 2848 1914 2656 
L 2189 3021 
C 1914 3200 1389 3494 1011 3693 
L 742 3379 
z
M 358 2163 
C 755 1978 1293 1702 1562 1530 
L 1830 1901 
C 1549 2067 1005 2323 621 2490 
L 358 2163 
z
M 2624 3462 
L 2624 416 
C 2624 -243 2854 -403 3616 -403 
C 3782 -403 5037 -403 5216 -403 
C 5907 -403 6067 -141 6144 736 
C 6003 768 5798 851 5683 928 
C 5638 198 5574 58 5190 58 
C 4922 58 3846 58 3635 58 
C 3200 58 3117 115 3117 416 
L 3117 3008 
L 5094 3008 
L 5094 1843 
C 5094 1760 5069 1734 4947 1728 
C 4832 1722 4442 1722 3987 1734 
C 4064 1606 4147 1414 4173 1280 
C 4717 1280 5075 1286 5293 1357 
C 5517 1434 5574 1574 5574 1843 
L 5574 3462 
L 2624 3462 
z
M 4083 5376 
L 4083 4819 
L 2298 4819 
L 2298 5376 
L 1811 5376 
L 1811 4819 
L 371 4819 
L 371 4371 
L 1811 4371 
L 1811 3750 
L 2298 3750 
L 2298 4371 
L 4083 4371 
L 4083 3750 
L 4576 3750 
L 4576 4371 
L 6042 4371 
L 6042 4819 
L 4576 4819 
L 4576 5376 
L 4083 5376 
z
" transform="scale(0.015625)"/>
      <path id="NotoSansCJKjp-Regular-56f4" d="M 1421 4000 
L 1421 3597 
L 2931 3597 
L 2931 3072 
L 1696 3072 
L 1696 2682 
L 2931 2682 
L 2931 2131 
L 1331 2131 
L 1331 1722 
L 2931 1722 
L 2931 410 
L 3386 410 
L 3386 1722 
L 4570 1722 
C 4525 1363 4474 1203 4416 1139 
C 4378 1094 4326 1094 4243 1094 
C 4160 1094 3955 1094 3725 1120 
C 3782 1011 3827 851 3834 736 
C 4077 723 4314 730 4435 736 
C 4582 742 4672 781 4762 864 
C 4890 992 4954 1293 5018 1952 
C 5030 2016 5037 2131 5037 2131 
L 3386 2131 
L 3386 2682 
L 4730 2682 
L 4730 3072 
L 3386 3072 
L 3386 3597 
L 4979 3597 
L 4979 4000 
L 3386 4000 
L 3386 4512 
L 2931 4512 
L 2931 4000 
L 1421 4000 
z
M 525 5114 
L 525 -506 
L 979 -506 
L 979 -192 
L 5414 -192 
L 5414 -506 
L 5888 -506 
L 5888 5114 
L 525 5114 
z
M 979 218 
L 979 4691 
L 5414 4691 
L 5414 218 
L 979 218 
z
" transform="scale(0.015625)"/>
     </defs>
     <use xlink:href="#NotoSansCJKjp-Regular-7f29"/>
     <use xlink:href="#NotoSansCJKjp-Regular-5c0f" transform="translate(99.999985 0)"/>
     <use xlink:href="#NotoSansCJKjp-Regular-8303" transform="translate(199.999969 0)"/>
     <use xlink:href="#NotoSansCJKjp-Regular-56f4" transform="translate(299.999954 0)"/>
    </g>
    <!-- 二分迭代 -->
    <g style="fill: #e2882c" transform="translate(392.496 277.499034) scale(0.06 -0.06)">
     <defs>
      <path id="NotoSansCJKjp-Regular-8fed" d="M 384 4934 
C 794 4646 1274 4218 1478 3904 
L 1862 4224 
C 1638 4531 1158 4947 730 5222 
L 384 4934 
z
M 3789 5376 
L 3789 4378 
L 3078 4378 
C 3155 4614 3219 4858 3270 5107 
L 2797 5197 
C 2650 4480 2400 3770 2048 3302 
C 2176 3251 2394 3142 2496 3085 
C 2656 3315 2797 3610 2925 3936 
L 3789 3936 
L 3789 3597 
C 3789 3392 3782 3174 3757 2950 
L 1990 2950 
L 1990 2509 
L 3674 2509 
C 3507 1882 3091 1261 2074 813 
C 2176 730 2330 557 2387 448 
C 3354 922 3834 1549 4058 2202 
C 4403 1376 4960 774 5766 454 
C 5837 582 5978 768 6093 864 
C 5280 1133 4710 1722 4410 2509 
L 6074 2509 
L 6074 2950 
L 4230 2950 
C 4256 3168 4262 3386 4262 3597 
L 4262 3936 
L 5754 3936 
L 5754 4378 
L 4262 4378 
L 4262 5376 
L 3789 5376 
z
M 1677 2848 
L 314 2848 
L 314 2400 
L 1210 2400 
L 1210 768 
C 890 499 518 230 230 32 
L 480 -461 
C 826 -173 1152 102 1459 378 
C 1869 -128 2445 -358 3283 -390 
C 3994 -416 5318 -403 6016 -371 
C 6035 -224 6118 6 6176 115 
C 5414 64 3981 45 3283 77 
C 2541 102 1978 326 1677 794 
L 1677 2848 
z
" transform="scale(0.015625)"/>
     </defs>
     <use xlink:href="#NotoSansCJKjp-Regular-4e8c"/>
     <use xlink:href="#NotoSansCJKjp-Regular-5206" transform="translate(99.999985 0)"/>
     <use xlink:href="#NotoSansCJKjp-Regular-8fed" transform="translate(199.999969 0)"/>
     <use xlink:href="#NotoSansCJKjp-Regular-4ee3" transform="translate(299.999954 0)"/>
    </g>
   </g>
   <g id="patch_22">
    <path d="M 120.802588 272.245846 
Q 129.961792 272.245846 137.443946 272.245846 
" style="fill: none; stroke: #616161; stroke-width: 1.5; stroke-linecap: round"/>
    <path d="M 133.043946 270.045846 
L 137.443946 272.245846 
L 133.043946 274.445846 
" style="fill: none; stroke: #616161; stroke-width: 1.5; stroke-linecap: round"/>
   </g>
   <g id="patch_23">
    <path d="M 232.402588 272.245846 
Q 241.561792 272.245846 249.043946 272.245846 
" style="fill: none; stroke: #616161; stroke-width: 1.5; stroke-linecap: round"/>
    <path d="M 244.643946 270.045846 
L 249.043946 272.245846 
L 244.643946 274.445846 
" style="fill: none; stroke: #616161; stroke-width: 1.5; stroke-linecap: round"/>
   </g>
   <g id="patch_24">
    <path d="M 344.002588 272.245846 
Q 353.161792 272.245846 360.643946 272.245846 
" style="fill: none; stroke: #616161; stroke-width: 1.5; stroke-linecap: round"/>
    <path d="M 356.243946 270.045846 
L 360.643946 272.245846 
L 356.243946 274.445846 
" style="fill: none; stroke: #616161; stroke-width: 1.5; stroke-linecap: round"/>
   </g>
   <g id="patch_25">
    <path d="M 406.493684 272.245846 
Q 411.190779 272.245846 414.210824 272.245846 
" style="fill: none; stroke: #616161; stroke-width: 1.5; stroke-linecap: round"/>
    <path d="M 409.810824 270.045846 
L 414.210824 272.245846 
L 409.810824 274.445846 
" style="fill: none; stroke: #616161; stroke-width: 1.5; stroke-linecap: round"/>
   </g>
   <g id="text_17">
    <!-- 输出 -->
    <g style="fill: #9c27b0" transform="translate(434.208 270.393909) scale(0.06 -0.06)">
     <defs>
      <path id="NotoSansCJKjp-Regular-8f93" d="M 4698 2861 
L 4698 544 
L 5075 544 
L 5075 2861 
L 4698 2861 
z
M 5510 3098 
L 5510 32 
C 5510 -38 5485 -58 5414 -64 
C 5331 -64 5075 -64 4781 -58 
C 4845 -173 4896 -346 4909 -454 
C 5286 -454 5542 -448 5696 -384 
C 5856 -314 5901 -198 5901 32 
L 5901 3098 
L 5510 3098 
z
M 454 2112 
C 506 2163 691 2202 896 2202 
L 1402 2202 
L 1402 1318 
C 973 1216 576 1126 269 1069 
L 378 614 
L 1402 877 
L 1402 -506 
L 1824 -506 
L 1824 986 
L 2355 1126 
L 2317 1530 
L 1824 1414 
L 1824 2202 
L 2336 2202 
L 2336 2643 
L 1824 2643 
L 1824 3616 
L 1402 3616 
L 1402 2643 
L 845 2643 
C 1011 3091 1171 3622 1299 4173 
L 2349 4173 
L 2349 4608 
L 1389 4608 
C 1440 4838 1478 5069 1510 5293 
L 1062 5370 
C 1037 5120 1005 4858 960 4608 
L 301 4608 
L 301 4173 
L 877 4173 
C 762 3642 640 3206 582 3040 
C 493 2752 416 2547 307 2515 
C 358 2406 429 2202 454 2112 
z
M 4218 5395 
C 3795 4723 3002 4090 2227 3731 
C 2342 3635 2470 3488 2541 3373 
C 2714 3462 2886 3565 3053 3674 
L 3053 3405 
L 5421 3405 
L 5421 3718 
C 5581 3622 5754 3526 5926 3437 
C 5984 3565 6118 3718 6234 3814 
C 5562 4102 4954 4467 4467 5011 
L 4608 5222 
L 4218 5395 
z
M 3238 3802 
C 3597 4064 3936 4371 4218 4698 
C 4544 4339 4896 4051 5286 3802 
L 3238 3802 
z
M 3930 2598 
L 3930 2093 
L 3053 2093 
L 3053 2598 
L 3930 2598 
z
M 2656 2982 
L 2656 -486 
L 3053 -486 
L 3053 832 
L 3930 832 
L 3930 -6 
C 3930 -64 3917 -77 3866 -83 
C 3802 -83 3635 -83 3437 -77 
C 3494 -192 3546 -365 3558 -474 
C 3834 -474 4032 -474 4166 -403 
C 4301 -333 4333 -211 4333 -6 
L 4333 2982 
L 2656 2982 
z
M 3053 1722 
L 3930 1722 
L 3930 1197 
L 3053 1197 
L 3053 1722 
z
" transform="scale(0.015625)"/>
      <path id="NotoSansCJKjp-Regular-51fa" d="M 966 4768 
L 966 2560 
L 2918 2560 
L 2918 365 
L 1203 365 
L 1203 2144 
L 723 2144 
L 723 -512 
L 1203 -512 
L 1203 -109 
L 5222 -109 
L 5222 -499 
L 5715 -499 
L 5715 2144 
L 5222 2144 
L 5222 365 
L 3418 365 
L 3418 2560 
L 5459 2560 
L 5459 4768 
L 4960 4768 
L 4960 3021 
L 3418 3021 
L 3418 5344 
L 2918 5344 
L 2918 3021 
L 1446 3021 
L 1446 4768 
L 966 4768 
z
" transform="scale(0.015625)"/>
     </defs>
     <use xlink:href="#NotoSansCJKjp-Regular-8f93"/>
     <use xlink:href="#NotoSansCJKjp-Regular-51fa" transform="translate(99.999985 0)"/>
    </g>
    <!-- 最小节点 -->
    <g style="fill: #9c27b0" transform="translate(428.208 277.499034) scale(0.06 -0.06)">
     <use xlink:href="#NotoSansCJKjp-Regular-6700"/>
     <use xlink:href="#NotoSansCJKjp-Regular-5c0f" transform="translate(99.999985 0)"/>
     <use xlink:href="#NotoSansCJKjp-Regular-8282" transform="translate(199.999969 0)"/>
     <use xlink:href="#NotoSansCJKjp-Regular-70b9" transform="translate(299.999954 0)"/>
    </g>
   </g>
  </g>
 </g>
 <defs>
  <clipPath id="pbf08118e4d">
   <rect x="7.2" y="7.2" width="446.4" height="304.92"/>
  </clipPath>
 </defs>
</svg>
