<?xml version="1.0" encoding="utf-8" standalone="no"?>
<!DOCTYPE svg PUBLIC "-//W3C//DTD SVG 1.1//EN"
  "http://www.w3.org/Graphics/SVG/1.1/DTD/svg11.dtd">
<svg xmlns:xlink="http://www.w3.org/1999/xlink" width="572.4pt" height="374.76pt" viewBox="0 0 572.4 374.76" xmlns="http://www.w3.org/2000/svg" version="1.1">
 <metadata>
  <rdf:RDF xmlns:dc="http://purl.org/dc/elements/1.1/" xmlns:cc="http://creativecommons.org/ns#" xmlns:rdf="http://www.w3.org/1999/02/22-rdf-syntax-ns#">
   <cc:Work>
    <dc:type rdf:resource="http://purl.org/dc/dcmitype/StillImage"/>
    <dc:date>2026-07-11T13:53:59.946359</dc:date>
    <dc:format>image/svg+xml</dc:format>
    <dc:creator>
     <cc:Agent>
      <dc:title>Matplotlib v3.10.9, https://matplotlib.org/</dc:title>
     </cc:Agent>
    </dc:creator>
   </cc:Work>
  </rdf:RDF>
 </metadata>
 <defs>
  <style type="text/css">*{stroke-linejoin: round; stroke-linecap: butt}</style>
 </defs>
 <g id="figure_1">
  <g id="patch_1">
   <path d="M 0 374.76 
L 572.4 374.76 
L 572.4 0 
L 0 0 
z
" style="fill: #ffffff"/>
  </g>
  <g id="axes_1">
   <g id="patch_2">
    <path d="M 53.7 91.8846 
L 193.2 91.8846 
Q 196.92 91.8846 196.92 88.281 
L 196.92 47.7405 
Q 196.92 44.1369 193.2 44.1369 
L 53.7 44.1369 
Q 49.98 44.1369 49.98 47.7405 
L 49.98 88.281 
Q 49.98 91.8846 53.7 91.8846 
z
" clip-path="url(#pfea0341e65)" style="fill: #e2882c; opacity: 0.1; stroke: #e2882c; stroke-width: 2; stroke-linejoin: miter"/>
   </g>
   <g id="patch_3">
    <path d="M 216.45 91.8846 
L 355.95 91.8846 
Q 359.67 91.8846 359.67 88.281 
L 359.67 47.7405 
Q 359.67 44.1369 355.95 44.1369 
L 216.45 44.1369 
Q 212.73 44.1369 212.73 47.7405 
L 212.73 88.281 
Q 212.73 91.8846 216.45 91.8846 
z
" clip-path="url(#pfea0341e65)" style="fill: #4caf50; opacity: 0.1; stroke: #4caf50; stroke-width: 2; stroke-linejoin: miter"/>
   </g>
   <g id="patch_4">
    <path d="M 379.2 91.8846 
L 518.7 91.8846 
Q 522.42 91.8846 522.42 88.281 
L 522.42 47.7405 
Q 522.42 44.1369 518.7 44.1369 
L 379.2 44.1369 
Q 375.48 44.1369 375.48 47.7405 
L 375.48 88.281 
Q 375.48 91.8846 379.2 91.8846 
z
" clip-path="url(#pfea0341e65)" style="fill: #2c5f8a; opacity: 0.1; stroke: #2c5f8a; stroke-width: 2; stroke-linejoin: miter"/>
   </g>
   <g id="patch_5">
    <path d="M 169.95 168.4611 
L 402.45 168.4611 
Q 406.17 168.4611 406.17 164.8575 
L 406.17 124.317 
Q 406.17 120.7134 402.45 120.7134 
L 169.95 120.7134 
Q 166.23 120.7134 166.23 124.317 
L 166.23 164.8575 
Q 166.23 168.4611 169.95 168.4611 
z
" clip-path="url(#pfea0341e65)" style="fill: #2c5f8a; opacity: 0.1; stroke: #2c5f8a; stroke-width: 2; stroke-linejoin: miter"/>
   </g>
   <g id="patch_6">
    <path d="M 286.2 191.8845 
L 304.8 209.9025 
L 286.2 227.9205 
L 267.6 209.9025 
z
" clip-path="url(#pfea0341e65)" style="fill: #757575; opacity: 0.1; stroke: #757575; stroke-width: 1.5; stroke-linejoin: miter"/>
   </g>
   <g id="patch_7">
    <path d="M 21.15 272.0646 
L 207.15 272.0646 
Q 210.87 272.0646 210.87 268.461 
L 210.87 232.425 
Q 210.87 228.8214 207.15 228.8214 
L 21.15 228.8214 
Q 17.43 228.8214 17.43 232.425 
L 17.43 268.461 
Q 17.43 272.0646 21.15 272.0646 
z
" clip-path="url(#pfea0341e65)" style="fill: #e2882c; opacity: 0.1; stroke: #e2882c; stroke-width: 2; stroke-linejoin: miter"/>
   </g>
   <g id="patch_8">
    <path d="M 365.25 272.0646 
L 551.25 272.0646 
Q 554.97 272.0646 554.97 268.461 
L 554.97 232.425 
Q 554.97 228.8214 551.25 228.8214 
L 365.25 228.8214 
Q 361.53 228.8214 361.53 232.425 
L 361.53 268.461 
Q 361.53 272.0646 365.25 272.0646 
z
" clip-path="url(#pfea0341e65)" style="fill: #4caf50; opacity: 0.1; stroke: #4caf50; stroke-width: 2; stroke-linejoin: miter"/>
   </g>
   <g id="patch_9">
    <path d="M 21.15 335.1276 
L 114.15 335.1276 
Q 117.87 335.1276 117.87 331.524 
L 117.87 304.497 
Q 117.87 300.8934 114.15 300.8934 
L 21.15 300.8934 
Q 17.43 300.8934 17.43 304.497 
L 17.43 331.524 
Q 17.43 335.1276 21.15 335.1276 
z
" clip-path="url(#pfea0341e65)" style="fill: #e2882c; opacity: 0.1; stroke: #e2882c; stroke-width: 2; stroke-linejoin: miter"/>
   </g>
   <g id="patch_10">
    <path d="M 114.15 335.1276 
L 207.15 335.1276 
Q 210.87 335.1276 210.87 331.524 
L 210.87 304.497 
Q 210.87 300.8934 207.15 300.8934 
L 114.15 300.8934 
Q 110.43 300.8934 110.43 304.497 
L 110.43 331.524 
Q 110.43 335.1276 114.15 335.1276 
z
" clip-path="url(#pfea0341e65)" style="fill: #e2882c; opacity: 0.1; stroke: #e2882c; stroke-width: 2; stroke-linejoin: miter"/>
   </g>
   <g id="patch_11">
    <path d="M 411.75 335.1276 
L 495.45 335.1276 
Q 499.17 335.1276 499.17 331.524 
L 499.17 304.497 
Q 499.17 300.8934 495.45 300.8934 
L 411.75 300.8934 
Q 408.03 300.8934 408.03 304.497 
L 408.03 331.524 
Q 408.03 335.1276 411.75 335.1276 
z
" clip-path="url(#pfea0341e65)" style="fill: #4caf50; opacity: 0.1; stroke: #4caf50; stroke-width: 2; stroke-linejoin: miter"/>
   </g>
   <g id="patch_12">
    <path d="M 495.45 335.1276 
L 579.15 335.1276 
Q 582.87 335.1276 582.87 331.524 
L 582.87 304.497 
Q 582.87 300.8934 579.15 300.8934 
L 495.45 300.8934 
Q 491.73 300.8934 491.73 304.497 
L 491.73 331.524 
Q 491.73 335.1276 495.45 335.1276 
z
" clip-path="url(#pfea0341e65)" style="fill: #4caf50; opacity: 0.1; stroke: #4caf50; stroke-width: 2; stroke-linejoin: miter"/>
   </g>
   <g id="patch_13">
    <path d="M 216.45 366.6591 
L 355.95 366.6591 
Q 359.67 366.6591 359.67 363.0555 
L 359.67 336.0285 
Q 359.67 332.4249 355.95 332.4249 
L 216.45 332.4249 
Q 212.73 332.4249 212.73 336.0285 
L 212.73 363.0555 
Q 212.73 366.6591 216.45 366.6591 
z
" clip-path="url(#pfea0341e65)" style="fill: #9c27b0; opacity: 0.1; stroke: #9c27b0; stroke-width: 2; stroke-linejoin: miter"/>
   </g>
   <g id="line2d_1">
    <path d="M 67.65 290.9835 
L 67.65 304.497 
" clip-path="url(#pfea0341e65)" style="fill: none; stroke-dasharray: 5.55,2.4; stroke-dashoffset: 0; stroke: #616161; stroke-width: 1.5"/>
   </g>
   <g id="line2d_2">
    <path d="M 160.65 290.9835 
L 160.65 304.497 
" clip-path="url(#pfea0341e65)" style="fill: none; stroke-dasharray: 5.55,2.4; stroke-dashoffset: 0; stroke: #616161; stroke-width: 1.5"/>
   </g>
   <g id="line2d_3">
    <path d="M 114.15 268.461 
L 114.15 286.479 
L 67.65 304.497 
" clip-path="url(#pfea0341e65)" style="fill: none; stroke-dasharray: 5.55,2.4; stroke-dashoffset: 0; stroke: #616161; stroke-width: 1.5"/>
   </g>
   <g id="line2d_4">
    <path d="M 114.15 268.461 
L 114.15 286.479 
L 160.65 304.497 
" clip-path="url(#pfea0341e65)" style="fill: none; stroke-dasharray: 5.55,2.4; stroke-dashoffset: 0; stroke: #616161; stroke-width: 1.5"/>
   </g>
   <g id="line2d_5">
    <path d="M 453.6 290.9835 
L 453.6 304.497 
" clip-path="url(#pfea0341e65)" style="fill: none; stroke-dasharray: 5.55,2.4; stroke-dashoffset: 0; stroke: #616161; stroke-width: 1.5"/>
   </g>
   <g id="line2d_6">
    <path d="M 537.3 290.9835 
L 537.3 304.497 
" clip-path="url(#pfea0341e65)" style="fill: none; stroke-dasharray: 5.55,2.4; stroke-dashoffset: 0; stroke: #616161; stroke-width: 1.5"/>
   </g>
   <g id="line2d_7">
    <path d="M 458.25 268.461 
L 458.25 286.479 
L 453.6 304.497 
" clip-path="url(#pfea0341e65)" style="fill: none; stroke-dasharray: 5.55,2.4; stroke-dashoffset: 0; stroke: #616161; stroke-width: 1.5"/>
   </g>
   <g id="line2d_8">
    <path d="M 458.25 268.461 
L 458.25 286.479 
L 537.3 304.497 
" clip-path="url(#pfea0341e65)" style="fill: none; stroke-dasharray: 5.55,2.4; stroke-dashoffset: 0; stroke: #616161; stroke-width: 1.5"/>
   </g>
   <g id="line2d_9">
    <path d="M 67.65 331.524 
L 67.65 345.0375 
L 286.2 336.0285 
" clip-path="url(#pfea0341e65)" style="fill: none; stroke-dasharray: 1,1.65; stroke-dashoffset: 0; stroke: #616161"/>
   </g>
   <g id="line2d_10">
    <path d="M 160.65 331.524 
L 160.65 345.0375 
L 286.2 336.0285 
" clip-path="url(#pfea0341e65)" style="fill: none; stroke-dasharray: 1,1.65; stroke-dashoffset: 0; stroke: #616161"/>
   </g>
   <g id="line2d_11">
    <path d="M 453.6 331.524 
L 453.6 345.0375 
L 286.2 336.0285 
" clip-path="url(#pfea0341e65)" style="fill: none; stroke-dasharray: 1,1.65; stroke-dashoffset: 0; stroke: #616161"/>
   </g>
   <g id="line2d_12">
    <path d="M 537.3 331.524 
L 537.3 345.0375 
L 286.2 336.0285 
" clip-path="url(#pfea0341e65)" style="fill: none; stroke-dasharray: 1,1.65; stroke-dashoffset: 0; stroke: #616161"/>
   </g>
   <g id="text_1">
    <!-- Profiling 工作流 -->
    <g style="fill: #2c5f8a" transform="translate(233.776562 24.962719) scale(0.14 -0.14)">
     <defs>
      <path id="NotoSansCJKjp-Bold-50" d="M 582 0 
L 1530 0 
L 1530 1683 
L 2163 1683 
C 3181 1683 3994 2170 3994 3251 
C 3994 4371 3187 4742 2138 4742 
L 582 4742 
L 582 0 
z
M 1530 2432 
L 1530 3987 
L 2067 3987 
C 2720 3987 3066 3802 3066 3251 
C 3066 2707 2752 2432 2099 2432 
L 1530 2432 
z
" transform="scale(0.015625)"/>
      <path id="NotoSansCJKjp-Bold-72" d="M 506 0 
L 1446 0 
L 1446 2138 
C 1651 2656 1984 2842 2259 2842 
C 2413 2842 2515 2822 2643 2784 
L 2797 3597 
C 2694 3642 2579 3674 2381 3674 
C 2010 3674 1626 3418 1363 2950 
L 1344 2950 
L 1274 3584 
L 506 3584 
L 506 0 
z
" transform="scale(0.015625)"/>
      <path id="NotoSansCJKjp-Bold-6f" d="M 2003 -90 
C 2899 -90 3725 602 3725 1792 
C 3725 2982 2899 3674 2003 3674 
C 1101 3674 282 2982 282 1792 
C 282 602 1101 -90 2003 -90 
z
M 2003 678 
C 1510 678 1242 1114 1242 1792 
C 1242 2464 1510 2906 2003 2906 
C 2490 2906 2765 2464 2765 1792 
C 2765 1114 2490 678 2003 678 
z
" transform="scale(0.015625)"/>
      <path id="NotoSansCJKjp-Bold-66" d="M 179 2842 
L 666 2842 
L 666 0 
L 1600 0 
L 1600 2842 
L 2285 2842 
L 2285 3584 
L 1600 3584 
L 1600 3891 
C 1600 4288 1760 4454 2035 4454 
C 2163 4454 2298 4429 2419 4371 
L 2592 5075 
C 2432 5139 2189 5197 1907 5197 
C 1011 5197 666 4614 666 3872 
L 666 3578 
L 179 3539 
L 179 2842 
z
" transform="scale(0.015625)"/>
      <path id="NotoSansCJKjp-Bold-69" d="M 506 0 
L 1446 0 
L 1446 3584 
L 506 3584 
L 506 0 
z
M 979 4166 
C 1299 4166 1523 4365 1523 4678 
C 1523 4986 1299 5190 979 5190 
C 646 5190 435 4986 435 4678 
C 435 4365 646 4166 979 4166 
z
" transform="scale(0.015625)"/>
      <path id="NotoSansCJKjp-Bold-6c" d="M 1395 -90 
C 1613 -90 1766 -51 1875 -6 
L 1760 691 
C 1696 678 1670 678 1632 678 
C 1542 678 1446 749 1446 966 
L 1446 5107 
L 506 5107 
L 506 1005 
C 506 339 736 -90 1395 -90 
z
" transform="scale(0.015625)"/>
      <path id="NotoSansCJKjp-Bold-6e" d="M 506 0 
L 1446 0 
L 1446 2464 
C 1709 2726 1901 2867 2189 2867 
C 2541 2867 2694 2675 2694 2118 
L 2694 0 
L 3635 0 
L 3635 2234 
C 3635 3136 3302 3674 2528 3674 
C 2042 3674 1677 3418 1363 3110 
L 1344 3110 
L 1274 3584 
L 506 3584 
L 506 0 
z
" transform="scale(0.015625)"/>
      <path id="NotoSansCJKjp-Bold-67" d="M 1766 -1555 
C 2963 -1555 3718 -1005 3718 -282 
C 3718 346 3245 614 2381 614 
L 1766 614 
C 1350 614 1203 717 1203 902 
C 1203 1056 1267 1133 1357 1216 
C 1517 1158 1683 1133 1818 1133 
C 2592 1133 3206 1536 3206 2349 
C 3206 2573 3136 2771 3046 2893 
L 3654 2893 
L 3654 3584 
L 2368 3584 
C 2214 3635 2029 3674 1818 3674 
C 1062 3674 378 3219 378 2381 
C 378 1958 608 1619 858 1440 
L 858 1414 
C 640 1261 461 1011 461 749 
C 461 448 595 262 787 141 
L 787 109 
C 448 -77 275 -333 275 -634 
C 275 -1267 922 -1555 1766 -1555 
z
M 1818 1715 
C 1510 1715 1261 1952 1261 2381 
C 1261 2797 1504 3027 1818 3027 
C 2138 3027 2387 2797 2387 2381 
C 2387 1952 2138 1715 1818 1715 
z
M 1907 -954 
C 1389 -954 1056 -787 1056 -493 
C 1056 -339 1126 -198 1286 -70 
C 1421 -102 1568 -115 1779 -115 
L 2221 -115 
C 2605 -115 2816 -186 2816 -442 
C 2816 -717 2451 -954 1907 -954 
z
" transform="scale(0.015625)"/>
      <path id="NotoSansCJKjp-Bold-20" transform="scale(0.015625)"/>
      <path id="NotoSansCJKjp-Bold-5de5" d="M 288 646 
L 288 -128 
L 6138 -128 
L 6138 646 
L 3616 646 
L 3616 3968 
L 5779 3968 
L 5779 4774 
L 640 4774 
L 640 3968 
L 2739 3968 
L 2739 646 
L 288 646 
z
" transform="scale(0.015625)"/>
      <path id="NotoSansCJKjp-Bold-4f5c" d="M 3302 5376 
C 3008 4454 2502 3526 1933 2950 
C 2099 2829 2400 2554 2522 2413 
C 2816 2746 3104 3181 3366 3661 
L 3603 3661 
L 3603 -570 
L 4397 -570 
L 4397 851 
L 6144 851 
L 6144 1568 
L 4397 1568 
L 4397 2291 
L 6061 2291 
L 6061 2989 
L 4397 2989 
L 4397 3661 
L 6221 3661 
L 6221 4390 
L 3725 4390 
C 3840 4653 3949 4922 4038 5184 
L 3302 5376 
z
M 1606 5414 
C 1280 4499 723 3584 141 3008 
C 275 2816 493 2374 563 2189 
C 698 2330 832 2483 960 2650 
L 960 -563 
L 1734 -563 
L 1734 3840 
C 1971 4275 2182 4730 2349 5178 
L 1606 5414 
z
" transform="scale(0.015625)"/>
      <path id="NotoSansCJKjp-Bold-6d41" d="M 3661 2278 
L 3661 -294 
L 4333 -294 
L 4333 2278 
L 3661 2278 
z
M 2598 2342 
L 2598 1734 
C 2598 1184 2515 480 1773 -51 
C 1946 -160 2208 -397 2317 -550 
C 3181 96 3283 998 3283 1709 
L 3283 2342 
L 2598 2342 
z
M 550 4845 
C 954 4666 1453 4371 1690 4141 
L 2131 4768 
C 1875 4986 1363 5254 966 5408 
L 550 4845 
z
M 179 3098 
C 582 2931 1101 2643 1338 2426 
L 1779 3066 
C 1517 3277 986 3539 589 3680 
L 179 3098 
z
M 365 -6 
L 1037 -486 
C 1395 141 1773 883 2093 1568 
L 1510 2048 
C 1152 1293 685 486 365 -6 
z
M 4717 2342 
L 4717 365 
C 4717 -77 4762 -211 4877 -320 
C 4979 -429 5152 -480 5306 -480 
C 5395 -480 5536 -480 5638 -480 
C 5760 -480 5907 -448 5990 -397 
C 6099 -333 6163 -243 6208 -102 
C 6246 32 6272 365 6285 646 
C 6112 710 5894 826 5766 934 
C 5760 646 5754 422 5747 320 
C 5734 218 5722 166 5696 154 
C 5677 134 5645 128 5613 128 
C 5581 128 5542 128 5510 128 
C 5485 128 5459 141 5446 160 
C 5427 186 5427 237 5427 346 
L 5427 2342 
L 4717 2342 
z
M 2138 3219 
L 2214 2502 
C 3066 2534 4243 2592 5363 2662 
C 5466 2515 5549 2374 5606 2253 
L 6253 2598 
C 6048 3002 5568 3558 5146 3949 
L 4557 3642 
C 4659 3533 4768 3418 4877 3296 
L 3654 3258 
C 3789 3482 3930 3738 4064 3981 
L 6150 3981 
L 6150 4666 
L 4442 4666 
L 4442 5440 
L 3661 5440 
L 3661 4666 
L 2099 4666 
L 2099 3981 
L 3194 3981 
C 3104 3731 2982 3462 2867 3232 
L 2138 3219 
z
" transform="scale(0.015625)"/>
     </defs>
     <use xlink:href="#NotoSansCJKjp-Bold-50"/>
     <use xlink:href="#NotoSansCJKjp-Bold-72" transform="translate(66.699997 0)"/>
     <use xlink:href="#NotoSansCJKjp-Bold-6f" transform="translate(110.299988 0)"/>
     <use xlink:href="#NotoSansCJKjp-Bold-66" transform="translate(172.899979 0)"/>
     <use xlink:href="#NotoSansCJKjp-Bold-69" transform="translate(210.099976 0)"/>
     <use xlink:href="#NotoSansCJKjp-Bold-6c" transform="translate(240.499969 0)"/>
     <use xlink:href="#NotoSansCJKjp-Bold-69" transform="translate(271.999954 0)"/>
     <use xlink:href="#NotoSansCJKjp-Bold-6e" transform="translate(302.399948 0)"/>
     <use xlink:href="#NotoSansCJKjp-Bold-67" transform="translate(366.499939 0)"/>
     <use xlink:href="#NotoSansCJKjp-Bold-20" transform="translate(426.199936 0)"/>
     <use xlink:href="#NotoSansCJKjp-Bold-5de5" transform="translate(448.899933 0)"/>
     <use xlink:href="#NotoSansCJKjp-Bold-4f5c" transform="translate(548.899918 0)"/>
     <use xlink:href="#NotoSansCJKjp-Bold-6d41" transform="translate(648.899902 0)"/>
    </g>
   </g>
   <g id="text_2">
    <!-- 编译函数 -->
    <g style="fill: #e2882c" transform="translate(105.45 65.287547) scale(0.09 -0.09)">
     <defs>
      <path id="NotoSansCJKjp-Bold-7f16" d="M 378 2643 
C 474 2694 621 2733 1114 2797 
C 928 2483 762 2246 678 2138 
C 493 1901 358 1747 205 1715 
C 282 1536 397 1216 429 1082 
C 570 1178 813 1261 2182 1594 
C 2157 1741 2138 2016 2144 2208 
L 1350 2042 
C 1741 2579 2112 3200 2406 3802 
L 1818 4154 
C 1722 3917 1606 3680 1485 3450 
L 1030 3418 
C 1363 3949 1683 4595 1907 5216 
L 1190 5466 
C 1005 4710 621 3898 499 3693 
C 371 3482 275 3341 147 3309 
C 230 3123 339 2784 378 2643 
z
M 3776 5280 
C 3840 5133 3917 4954 3974 4787 
L 2579 4787 
L 2579 3392 
C 2579 2611 2541 1530 2214 614 
L 2074 1197 
C 1376 909 653 614 173 448 
L 352 -250 
L 2208 589 
C 2125 358 2022 141 1901 -58 
C 2054 -128 2362 -358 2477 -486 
C 2816 58 3014 762 3130 1466 
L 3130 -512 
L 3712 -512 
L 3712 832 
L 4006 832 
L 4006 -384 
L 4474 -384 
L 4474 832 
L 4736 832 
L 4736 -371 
L 5197 -371 
L 5197 832 
L 5466 832 
L 5466 90 
C 5466 38 5453 26 5414 26 
C 5382 26 5299 26 5203 26 
C 5274 -115 5344 -352 5357 -518 
C 5574 -518 5734 -506 5875 -410 
C 6016 -314 6042 -160 6042 77 
L 6042 2714 
L 3258 2714 
L 3270 3091 
L 5939 3091 
L 5939 4787 
L 4819 4787 
C 4749 4998 4627 5280 4518 5491 
L 3776 5280 
z
M 4006 2099 
L 4006 1414 
L 3712 1414 
L 3712 2099 
L 4006 2099 
z
M 4474 2099 
L 4736 2099 
L 4736 1414 
L 4474 1414 
L 4474 2099 
z
M 5197 2099 
L 5466 2099 
L 5466 1414 
L 5197 1414 
L 5197 2099 
z
M 3270 4166 
L 5229 4166 
L 5229 3706 
L 3270 3706 
L 3270 4166 
z
" transform="scale(0.015625)"/>
      <path id="NotoSansCJKjp-Bold-8bd1" d="M 480 4973 
C 742 4608 1062 4102 1190 3782 
L 1818 4211 
C 1677 4518 1344 4998 1069 5350 
L 480 4973 
z
M 3718 2662 
L 3718 2157 
L 2573 2157 
L 2573 1491 
L 3718 1491 
L 3718 1011 
L 2240 1011 
C 2182 1133 2131 1267 2093 1376 
L 1722 1069 
L 1722 3482 
L 250 3482 
L 250 2746 
L 979 2746 
L 979 774 
C 979 429 787 186 653 64 
C 768 -51 973 -326 1043 -480 
C 1139 -333 1318 -160 2214 589 
L 2214 333 
L 3718 333 
L 3718 -576 
L 4474 -576 
L 4474 333 
L 6125 333 
L 6125 1011 
L 4474 1011 
L 4474 1491 
L 5696 1491 
L 5696 2157 
L 4474 2157 
L 4474 2662 
L 3718 2662 
z
M 4813 4518 
C 4627 4301 4403 4096 4147 3910 
C 3891 4090 3667 4294 3482 4518 
L 4813 4518 
z
M 2234 5178 
L 2234 4518 
L 2714 4518 
C 2944 4154 3219 3821 3546 3539 
C 3034 3264 2458 3059 1875 2925 
C 2022 2771 2195 2464 2278 2272 
C 2944 2458 3590 2726 4160 3078 
C 4646 2778 5197 2547 5811 2400 
C 5914 2592 6125 2893 6285 3046 
C 5741 3149 5235 3315 4794 3526 
C 5267 3923 5658 4390 5926 4941 
L 5434 5210 
L 5306 5178 
L 2234 5178 
z
" transform="scale(0.015625)"/>
      <path id="NotoSansCJKjp-Bold-51fd" d="M 5171 3834 
L 5171 442 
L 1235 442 
L 1235 1472 
L 1581 851 
C 1946 1094 2381 1389 2778 1677 
L 2586 2227 
C 2080 1939 1574 1658 1235 1485 
L 1235 3834 
L 506 3834 
L 506 -563 
L 1235 -563 
L 1235 -243 
L 5171 -243 
L 5171 -557 
L 5914 -557 
L 5914 3834 
L 5171 3834 
z
M 1338 3123 
C 1626 2874 1952 2515 2106 2278 
L 2598 2714 
C 2496 2861 2330 3040 2144 3219 
L 2752 3162 
L 2784 3283 
L 3091 3283 
C 3053 1830 2995 1299 2899 1165 
C 2842 1094 2797 1075 2707 1075 
C 2611 1075 2426 1075 2214 1094 
C 2310 928 2381 672 2394 493 
C 2656 480 2899 480 3059 506 
C 3238 538 3373 595 3494 762 
C 3584 883 3648 1146 3686 1664 
C 4064 1382 4467 1030 4672 794 
L 5120 1344 
C 4870 1600 4384 1978 3955 2253 
L 3712 1990 
L 3744 2637 
L 3776 3590 
C 3782 3680 3789 3878 3789 3878 
L 2938 3878 
L 3046 4352 
L 6074 4352 
L 6074 5075 
L 333 5075 
L 333 4352 
L 2336 4352 
C 2253 3974 2157 3590 2067 3290 
L 1811 3507 
L 1338 3123 
z
M 4422 3584 
C 4269 3296 3968 2886 3744 2637 
L 4224 2349 
C 4467 2566 4768 2918 5062 3238 
L 4422 3584 
z
" transform="scale(0.015625)"/>
      <path id="NotoSansCJKjp-Bold-6570" d="M 3917 5440 
C 3770 4294 3456 3200 2918 2541 
C 3053 2445 3277 2246 3424 2099 
L 3520 1997 
C 3629 2138 3725 2291 3821 2464 
C 3936 2003 4077 1574 4250 1190 
C 3968 794 3603 474 3123 224 
C 2970 333 2790 448 2592 563 
C 2746 813 2861 1114 2931 1478 
L 3424 1478 
L 3424 2099 
L 1901 2099 
L 2054 2406 
L 1779 2464 
L 2189 2464 
L 2189 3245 
C 2438 3046 2714 2822 2854 2682 
L 3258 3213 
C 3123 3309 2669 3578 2355 3750 
L 3405 3750 
L 3405 4358 
L 2797 4358 
C 2957 4550 3149 4832 3347 5101 
L 2701 5363 
C 2605 5120 2419 4768 2278 4544 
L 2701 4358 
L 2189 4358 
L 2189 5440 
L 1485 5440 
L 1485 4358 
L 954 4358 
L 1363 4538 
C 1306 4762 1139 5088 973 5331 
L 422 5101 
C 557 4870 698 4576 755 4358 
L 262 4358 
L 262 3750 
L 1261 3750 
C 960 3418 525 3110 134 2950 
C 275 2810 442 2560 525 2394 
C 845 2573 1190 2835 1485 3130 
L 1485 2522 
L 1344 2554 
L 1126 2099 
L 192 2099 
L 192 1478 
L 806 1478 
C 646 1171 486 883 346 659 
L 1018 454 
L 1088 576 
L 1446 403 
C 1139 230 736 122 218 51 
C 346 -102 480 -365 525 -582 
C 1210 -442 1728 -256 2106 32 
C 2368 -134 2598 -301 2771 -454 
L 3066 -160 
C 3168 -314 3270 -486 3315 -595 
C 3872 -320 4314 26 4666 448 
C 4954 38 5306 -307 5747 -563 
C 5862 -352 6106 -51 6278 102 
C 5811 346 5440 710 5146 1165 
C 5491 1818 5709 2611 5843 3571 
L 6202 3571 
L 6202 4282 
L 4493 4282 
C 4576 4621 4640 4973 4698 5331 
L 3917 5440 
z
M 1581 1478 
L 2202 1478 
C 2144 1248 2067 1056 1965 896 
C 1779 979 1587 1062 1402 1139 
L 1581 1478 
z
M 5050 3571 
C 4979 3002 4864 2496 4704 2061 
C 4525 2522 4397 3027 4307 3571 
L 5050 3571 
z
" transform="scale(0.015625)"/>
     </defs>
     <use xlink:href="#NotoSansCJKjp-Bold-7f16"/>
     <use xlink:href="#NotoSansCJKjp-Bold-8bd1" transform="translate(99.999985 0)"/>
     <use xlink:href="#NotoSansCJKjp-Bold-51fd" transform="translate(199.999969 0)"/>
     <use xlink:href="#NotoSansCJKjp-Bold-6570" transform="translate(299.999954 0)"/>
    </g>
    <!-- @torch.compile -->
    <g style="fill: #e2882c" transform="translate(87.706641 75.980672) scale(0.09 -0.09)">
     <defs>
      <path id="NotoSansCJKjp-Bold-40" d="M 3059 -1216 
C 3571 -1216 4032 -1107 4467 -864 
L 4256 -346 
C 3949 -506 3526 -634 3130 -634 
C 1971 -634 998 83 998 1510 
C 998 3162 2234 4237 3488 4237 
C 4883 4237 5485 3328 5485 2246 
C 5485 1414 5024 890 4582 890 
C 4237 890 4122 1107 4237 1574 
L 4550 3136 
L 3974 3136 
L 3872 2835 
L 3859 2835 
C 3731 3085 3539 3194 3296 3194 
C 2458 3194 1850 2298 1850 1440 
C 1850 774 2234 365 2778 365 
C 3085 365 3450 570 3661 851 
L 3680 851 
C 3744 493 4077 301 4486 301 
C 5222 301 6080 966 6080 2278 
C 6080 3770 5107 4813 3565 4813 
C 1830 4813 352 3494 352 1485 
C 352 -326 1613 -1216 3059 -1216 
z
M 2982 960 
C 2726 960 2560 1133 2560 1491 
C 2560 1958 2854 2579 3322 2579 
C 3488 2579 3603 2509 3699 2342 
L 3514 1318 
C 3309 1062 3149 960 2982 960 
z
" transform="scale(0.015625)"/>
      <path id="NotoSansCJKjp-Bold-74" d="M 1818 -90 
C 2131 -90 2381 -13 2579 45 
L 2419 730 
C 2323 691 2182 653 2067 653 
C 1747 653 1574 845 1574 1254 
L 1574 2842 
L 2464 2842 
L 2464 3584 
L 1574 3584 
L 1574 4550 
L 800 4550 
L 691 3584 
L 134 3539 
L 134 2842 
L 640 2842 
L 640 1248 
C 640 454 966 -90 1818 -90 
z
" transform="scale(0.015625)"/>
      <path id="NotoSansCJKjp-Bold-63" d="M 2029 -90 
C 2426 -90 2861 45 3200 346 
L 2829 966 
C 2630 800 2394 678 2131 678 
C 1613 678 1242 1114 1242 1792 
C 1242 2464 1613 2906 2163 2906 
C 2362 2906 2528 2822 2707 2675 
L 3155 3270 
C 2893 3507 2554 3674 2112 3674 
C 1139 3674 282 2982 282 1792 
C 282 602 1043 -90 2029 -90 
z
" transform="scale(0.015625)"/>
      <path id="NotoSansCJKjp-Bold-68" d="M 506 0 
L 1446 0 
L 1446 2464 
C 1709 2726 1901 2867 2189 2867 
C 2541 2867 2694 2675 2694 2118 
L 2694 0 
L 3635 0 
L 3635 2234 
C 3635 3136 3302 3674 2528 3674 
C 2042 3674 1683 3418 1402 3149 
L 1446 3821 
L 1446 5107 
L 506 5107 
L 506 0 
z
" transform="scale(0.015625)"/>
      <path id="NotoSansCJKjp-Bold-2e" d="M 1043 -90 
C 1376 -90 1626 179 1626 525 
C 1626 877 1376 1139 1043 1139 
C 704 1139 454 877 454 525 
C 454 179 704 -90 1043 -90 
z
" transform="scale(0.015625)"/>
      <path id="NotoSansCJKjp-Bold-6d" d="M 506 0 
L 1446 0 
L 1446 2464 
C 1696 2739 1926 2867 2131 2867 
C 2477 2867 2637 2675 2637 2118 
L 2637 0 
L 3571 0 
L 3571 2464 
C 3827 2739 4058 2867 4262 2867 
C 4602 2867 4762 2675 4762 2118 
L 4762 0 
L 5696 0 
L 5696 2234 
C 5696 3136 5350 3674 4589 3674 
C 4128 3674 3776 3392 3443 3046 
C 3277 3443 2976 3674 2464 3674 
C 1997 3674 1664 3418 1363 3104 
L 1344 3104 
L 1274 3584 
L 506 3584 
L 506 0 
z
" transform="scale(0.015625)"/>
      <path id="NotoSansCJKjp-Bold-70" d="M 506 -1376 
L 1446 -1376 
L 1446 -282 
L 1414 301 
C 1683 51 1990 -90 2304 -90 
C 3091 -90 3827 621 3827 1850 
C 3827 2950 3296 3674 2419 3674 
C 2029 3674 1664 3469 1363 3213 
L 1344 3213 
L 1274 3584 
L 506 3584 
L 506 -1376 
z
M 2099 685 
C 1901 685 1677 755 1446 954 
L 1446 2534 
C 1690 2778 1907 2899 2150 2899 
C 2643 2899 2861 2522 2861 1837 
C 2861 1056 2522 685 2099 685 
z
" transform="scale(0.015625)"/>
      <path id="NotoSansCJKjp-Bold-65" d="M 2067 -90 
C 2509 -90 2963 64 3315 307 
L 2995 883 
C 2733 723 2483 640 2195 640 
C 1658 640 1274 941 1197 1523 
L 3405 1523 
C 3430 1613 3450 1786 3450 1958 
C 3450 2957 2938 3674 1952 3674 
C 1101 3674 282 2950 282 1792 
C 282 608 1062 -90 2067 -90 
z
M 1178 2157 
C 1254 2675 1587 2944 1965 2944 
C 2432 2944 2643 2637 2643 2157 
L 1178 2157 
z
" transform="scale(0.015625)"/>
     </defs>
     <use xlink:href="#NotoSansCJKjp-Bold-40"/>
     <use xlink:href="#NotoSansCJKjp-Bold-74" transform="translate(100.699982 0)"/>
     <use xlink:href="#NotoSansCJKjp-Bold-6f" transform="translate(142.799973 0)"/>
     <use xlink:href="#NotoSansCJKjp-Bold-72" transform="translate(205.399963 0)"/>
     <use xlink:href="#NotoSansCJKjp-Bold-63" transform="translate(248.999954 0)"/>
     <use xlink:href="#NotoSansCJKjp-Bold-68" transform="translate(301.699951 0)"/>
     <use xlink:href="#NotoSansCJKjp-Bold-2e" transform="translate(365.699936 0)"/>
     <use xlink:href="#NotoSansCJKjp-Bold-63" transform="translate(398.199921 0)"/>
     <use xlink:href="#NotoSansCJKjp-Bold-6f" transform="translate(450.899918 0)"/>
     <use xlink:href="#NotoSansCJKjp-Bold-6d" transform="translate(513.499908 0)"/>
     <use xlink:href="#NotoSansCJKjp-Bold-70" transform="translate(609.899902 0)"/>
     <use xlink:href="#NotoSansCJKjp-Bold-69" transform="translate(674.299896 0)"/>
     <use xlink:href="#NotoSansCJKjp-Bold-6c" transform="translate(704.69989 0)"/>
     <use xlink:href="#NotoSansCJKjp-Bold-65" transform="translate(736.199875 0)"/>
    </g>
   </g>
   <g id="text_3">
    <!-- 使用 torch.profiler -->
    <g style="fill: #4caf50" transform="translate(246.078984 65.600859) scale(0.09 -0.09)">
     <defs>
      <path id="NotoSansCJKjp-Bold-4f7f" d="M 1638 5453 
C 1286 4538 691 3629 83 3053 
C 211 2867 416 2451 486 2266 
C 666 2445 838 2643 1011 2867 
L 1011 -589 
L 1741 -589 
L 1741 3968 
C 1882 4211 2010 4461 2125 4710 
L 2125 4115 
L 3738 4115 
L 3738 3661 
L 2259 3661 
L 2259 1779 
L 3693 1779 
C 3661 1523 3590 1274 3462 1050 
C 3219 1242 3014 1459 2861 1709 
L 2234 1523 
C 2451 1152 2714 832 3027 557 
C 2752 352 2374 179 1856 64 
C 2016 -96 2240 -403 2330 -570 
C 2906 -397 3334 -166 3648 115 
C 4250 -224 4979 -448 5850 -563 
C 5946 -358 6144 -45 6304 122 
C 5440 198 4691 378 4096 659 
C 4301 998 4410 1376 4461 1779 
L 6035 1779 
L 6035 3661 
L 4499 3661 
L 4499 4115 
L 6202 4115 
L 6202 4806 
L 4499 4806 
L 4499 5395 
L 3738 5395 
L 3738 4806 
L 2170 4806 
L 2349 5222 
L 1638 5453 
z
M 2957 3040 
L 3738 3040 
L 3738 2483 
L 3738 2406 
L 2957 2406 
L 2957 3040 
z
M 4499 3040 
L 5299 3040 
L 5299 2406 
L 4499 2406 
L 4499 2477 
L 4499 3040 
z
" transform="scale(0.015625)"/>
      <path id="NotoSansCJKjp-Bold-7528" d="M 909 5011 
L 909 2714 
C 909 1811 851 666 147 -109 
C 320 -205 634 -467 755 -608 
C 1216 -109 1453 595 1562 1299 
L 2880 1299 
L 2880 -493 
L 3654 -493 
L 3654 1299 
L 5005 1299 
L 5005 339 
C 5005 224 4960 186 4845 186 
C 4723 186 4301 179 3936 198 
C 4038 0 4160 -333 4186 -538 
C 4768 -544 5158 -525 5421 -403 
C 5683 -288 5773 -77 5773 333 
L 5773 5011 
L 909 5011 
z
M 1664 4275 
L 2880 4275 
L 2880 3533 
L 1664 3533 
L 1664 4275 
z
M 5005 4275 
L 5005 3533 
L 3654 3533 
L 3654 4275 
L 5005 4275 
z
M 1664 2816 
L 2880 2816 
L 2880 2022 
L 1645 2022 
C 1658 2266 1664 2496 1664 2707 
L 1664 2816 
z
M 5005 2816 
L 5005 2022 
L 3654 2022 
L 3654 2816 
L 5005 2816 
z
" transform="scale(0.015625)"/>
     </defs>
     <use xlink:href="#NotoSansCJKjp-Bold-4f7f"/>
     <use xlink:href="#NotoSansCJKjp-Bold-7528" transform="translate(99.999985 0)"/>
     <use xlink:href="#NotoSansCJKjp-Bold-20" transform="translate(199.999969 0)"/>
     <use xlink:href="#NotoSansCJKjp-Bold-74" transform="translate(222.699966 0)"/>
     <use xlink:href="#NotoSansCJKjp-Bold-6f" transform="translate(264.799957 0)"/>
     <use xlink:href="#NotoSansCJKjp-Bold-72" transform="translate(327.399948 0)"/>
     <use xlink:href="#NotoSansCJKjp-Bold-63" transform="translate(370.999939 0)"/>
     <use xlink:href="#NotoSansCJKjp-Bold-68" transform="translate(423.699936 0)"/>
     <use xlink:href="#NotoSansCJKjp-Bold-2e" transform="translate(487.699921 0)"/>
     <use xlink:href="#NotoSansCJKjp-Bold-70" transform="translate(520.199905 0)"/>
     <use xlink:href="#NotoSansCJKjp-Bold-72" transform="translate(584.599899 0)"/>
     <use xlink:href="#NotoSansCJKjp-Bold-6f" transform="translate(628.19989 0)"/>
     <use xlink:href="#NotoSansCJKjp-Bold-66" transform="translate(690.799881 0)"/>
     <use xlink:href="#NotoSansCJKjp-Bold-69" transform="translate(727.999878 0)"/>
     <use xlink:href="#NotoSansCJKjp-Bold-6c" transform="translate(758.399872 0)"/>
     <use xlink:href="#NotoSansCJKjp-Bold-65" transform="translate(789.899857 0)"/>
     <use xlink:href="#NotoSansCJKjp-Bold-72" transform="translate(847.999847 0)"/>
    </g>
    <!-- 捕获 -->
    <g style="fill: #4caf50" transform="translate(277.2 76.153922) scale(0.09 -0.09)">
     <defs>
      <path id="NotoSansCJKjp-Bold-6355" d="M 4742 4947 
C 4947 4838 5210 4691 5427 4563 
L 4576 4563 
L 4576 5440 
L 3866 5440 
L 3866 4563 
L 2394 4563 
L 2394 3859 
L 3866 3859 
L 3866 3424 
L 2522 3424 
L 2522 -563 
L 3226 -563 
L 3226 659 
L 3866 659 
L 3866 -512 
L 4576 -512 
L 4576 659 
L 5293 659 
L 5293 102 
C 5293 38 5274 13 5203 13 
C 5146 13 4947 13 4768 19 
C 4845 -141 4915 -397 4934 -570 
C 5299 -576 5568 -570 5760 -467 
C 5952 -365 6003 -211 6003 96 
L 6003 3424 
L 4576 3424 
L 4576 3859 
L 6118 3859 
L 6118 4563 
L 5862 4563 
L 6099 4896 
C 5862 5037 5408 5267 5094 5414 
L 4742 4947 
z
M 5293 2758 
L 5293 2342 
L 4576 2342 
L 4576 2758 
L 5293 2758 
z
M 3866 2758 
L 3866 2342 
L 3226 2342 
L 3226 2758 
L 3866 2758 
z
M 3226 1715 
L 3866 1715 
L 3866 1286 
L 3226 1286 
L 3226 1715 
z
M 5293 1715 
L 5293 1286 
L 4576 1286 
L 4576 1715 
L 5293 1715 
z
M 1005 5440 
L 1005 4230 
L 230 4230 
L 230 3520 
L 1005 3520 
L 1005 2362 
C 678 2278 378 2214 128 2163 
L 269 1414 
L 1005 1613 
L 1005 230 
C 1005 141 966 109 883 109 
C 800 109 538 109 288 122 
C 378 -77 474 -378 499 -576 
C 947 -576 1248 -550 1466 -435 
C 1677 -326 1741 -134 1741 230 
L 1741 1811 
L 2432 2003 
L 2342 2694 
L 1741 2541 
L 1741 3520 
L 2355 3520 
L 2355 4230 
L 1741 4230 
L 1741 5440 
L 1005 5440 
z
" transform="scale(0.015625)"/>
      <path id="NotoSansCJKjp-Bold-83b7" d="M 3814 3821 
L 3814 2835 
L 3814 2803 
L 2496 2803 
L 2496 2093 
L 3757 2093 
C 3635 1376 3277 570 2272 -90 
C 2458 -218 2707 -429 2835 -589 
C 3603 -90 4026 525 4262 1139 
C 4570 390 5018 -198 5683 -550 
C 5786 -352 6003 -64 6170 77 
C 5357 429 4864 1171 4595 2093 
L 6035 2093 
L 6035 2803 
L 5395 2803 
L 5856 3130 
C 5715 3366 5395 3674 5114 3885 
L 4595 3526 
C 4838 3315 5120 3027 5267 2803 
L 4531 2803 
L 4531 2829 
L 4531 3821 
L 3814 3821 
z
M 3930 5440 
L 3930 4992 
L 2496 4992 
L 2496 5440 
L 1734 5440 
L 1734 4992 
L 358 4992 
L 358 4307 
L 1734 4307 
L 1734 3878 
L 2496 3878 
L 2496 4307 
L 3930 4307 
L 3930 3942 
L 4698 3942 
L 4698 4307 
L 6054 4307 
L 6054 4992 
L 4698 4992 
L 4698 5440 
L 3930 5440 
z
M 1933 3859 
C 1837 3750 1715 3635 1587 3520 
C 1427 3667 1235 3814 1005 3949 
L 506 3552 
C 730 3418 909 3277 1062 3123 
C 787 2938 486 2778 186 2656 
C 333 2528 538 2298 640 2144 
C 909 2266 1184 2419 1453 2592 
C 1510 2477 1555 2362 1594 2240 
C 1293 1818 691 1363 186 1152 
C 339 1018 525 768 627 595 
C 979 800 1376 1114 1702 1440 
L 1702 1389 
C 1702 794 1651 397 1523 230 
C 1472 166 1421 134 1325 128 
C 1190 109 954 109 640 128 
C 768 -58 845 -314 851 -531 
C 1158 -544 1408 -538 1651 -486 
C 1805 -454 1939 -384 2029 -275 
C 2323 38 2413 634 2413 1338 
C 2413 1920 2349 2483 2022 3008 
C 2214 3168 2400 3341 2554 3520 
L 1933 3859 
z
" transform="scale(0.015625)"/>
     </defs>
     <use xlink:href="#NotoSansCJKjp-Bold-6355"/>
     <use xlink:href="#NotoSansCJKjp-Bold-83b7" transform="translate(99.999985 0)"/>
    </g>
   </g>
   <g id="text_4">
    <!-- 导出 Chrome Trace -->
    <g style="fill: #2c5f8a" transform="translate(407.924766 70.634109) scale(0.09 -0.09)">
     <defs>
      <path id="NotoSansCJKjp-Bold-5bfc" d="M 1210 992 
C 1619 691 2112 243 2310 -64 
L 2874 461 
C 2694 710 2342 1018 1997 1274 
L 3949 1274 
L 3949 230 
C 3949 134 3910 102 3776 102 
C 3654 102 3142 102 2752 122 
C 2854 -70 2970 -365 3008 -570 
C 3603 -570 4038 -563 4339 -467 
C 4646 -371 4749 -186 4749 211 
L 4749 1274 
L 6061 1274 
L 6061 1984 
L 4749 1984 
L 4749 2355 
L 3949 2355 
L 3949 1984 
L 358 1984 
L 358 1274 
L 1517 1274 
L 1210 992 
z
M 781 4883 
L 781 3411 
C 781 2669 1165 2490 2413 2490 
C 2714 2490 4358 2490 4666 2490 
C 5581 2490 5875 2637 5978 3283 
C 5754 3315 5446 3398 5254 3501 
C 5197 3162 5088 3110 4595 3110 
C 4179 3110 2726 3110 2400 3110 
C 1715 3110 1587 3155 1587 3424 
L 1587 3533 
L 5293 3533 
L 5293 5267 
L 781 5267 
L 781 4883 
z
M 1587 4614 
L 4538 4614 
L 4538 4192 
L 1587 4192 
L 1587 4614 
z
" transform="scale(0.015625)"/>
      <path id="NotoSansCJKjp-Bold-51fa" d="M 896 4832 
L 896 2496 
L 2765 2496 
L 2765 550 
L 1427 550 
L 1427 2150 
L 646 2150 
L 646 -576 
L 1427 -576 
L 1427 -198 
L 4986 -198 
L 4986 -570 
L 5786 -570 
L 5786 2150 
L 4986 2150 
L 4986 550 
L 3558 550 
L 3558 2496 
L 5530 2496 
L 5530 4838 
L 4723 4838 
L 4723 3245 
L 3558 3245 
L 3558 5370 
L 2765 5370 
L 2765 3245 
L 1664 3245 
L 1664 4832 
L 896 4832 
z
" transform="scale(0.015625)"/>
      <path id="NotoSansCJKjp-Bold-43" d="M 2509 -90 
C 3130 -90 3635 154 4026 608 
L 3520 1197 
C 3270 922 2957 730 2547 730 
C 1798 730 1318 1350 1318 2381 
C 1318 3398 1850 4013 2566 4013 
C 2925 4013 3200 3846 3443 3616 
L 3936 4218 
C 3629 4538 3155 4826 2547 4826 
C 1350 4826 346 3910 346 2349 
C 346 768 1318 -90 2509 -90 
z
" transform="scale(0.015625)"/>
      <path id="NotoSansCJKjp-Bold-54" d="M 1523 0 
L 2470 0 
L 2470 3949 
L 3808 3949 
L 3808 4742 
L 192 4742 
L 192 3949 
L 1523 3949 
L 1523 0 
z
" transform="scale(0.015625)"/>
      <path id="NotoSansCJKjp-Bold-61" d="M 1382 -90 
C 1798 -90 2157 109 2464 384 
L 2496 384 
L 2560 0 
L 3328 0 
L 3328 2093 
C 3328 3130 2861 3674 1952 3674 
C 1389 3674 877 3456 461 3200 
L 794 2573 
C 1126 2771 1446 2918 1779 2918 
C 2221 2918 2374 2650 2387 2298 
C 947 2144 326 1741 326 979 
C 326 365 742 -90 1382 -90 
z
M 1696 646 
C 1421 646 1222 768 1222 1050 
C 1222 1376 1510 1613 2387 1715 
L 2387 998 
C 2163 774 1965 646 1696 646 
z
" transform="scale(0.015625)"/>
     </defs>
     <use xlink:href="#NotoSansCJKjp-Bold-5bfc"/>
     <use xlink:href="#NotoSansCJKjp-Bold-51fa" transform="translate(99.999985 0)"/>
     <use xlink:href="#NotoSansCJKjp-Bold-20" transform="translate(199.999969 0)"/>
     <use xlink:href="#NotoSansCJKjp-Bold-43" transform="translate(222.699966 0)"/>
     <use xlink:href="#NotoSansCJKjp-Bold-68" transform="translate(288.299957 0)"/>
     <use xlink:href="#NotoSansCJKjp-Bold-72" transform="translate(352.299942 0)"/>
     <use xlink:href="#NotoSansCJKjp-Bold-6f" transform="translate(395.899933 0)"/>
     <use xlink:href="#NotoSansCJKjp-Bold-6d" transform="translate(458.499924 0)"/>
     <use xlink:href="#NotoSansCJKjp-Bold-65" transform="translate(554.899918 0)"/>
     <use xlink:href="#NotoSansCJKjp-Bold-20" transform="translate(612.999908 0)"/>
     <use xlink:href="#NotoSansCJKjp-Bold-54" transform="translate(635.699905 0)"/>
     <use xlink:href="#NotoSansCJKjp-Bold-72" transform="translate(698.19989 0)"/>
     <use xlink:href="#NotoSansCJKjp-Bold-61" transform="translate(741.799881 0)"/>
     <use xlink:href="#NotoSansCJKjp-Bold-63" transform="translate(800.899872 0)"/>
     <use xlink:href="#NotoSansCJKjp-Bold-65" transform="translate(853.599869 0)"/>
    </g>
   </g>
   <g id="patch_14">
    <path d="M 195.200885 68.01075 
Q 204.825499 68.01075 212.773063 68.01075 
" style="fill: none; stroke: #616161; stroke-width: 1.5; stroke-linecap: round"/>
    <path d="M 208.373063 65.81075 
L 212.773063 68.01075 
L 208.373063 70.21075 
" style="fill: none; stroke: #616161; stroke-width: 1.5; stroke-linecap: round"/>
   </g>
   <g id="patch_15">
    <path d="M 357.950885 68.01075 
Q 367.575499 68.01075 375.523063 68.01075 
" style="fill: none; stroke: #616161; stroke-width: 1.5; stroke-linecap: round"/>
    <path d="M 371.123063 65.81075 
L 375.523063 68.01075 
L 371.123063 70.21075 
" style="fill: none; stroke: #616161; stroke-width: 1.5; stroke-linecap: round"/>
   </g>
   <g id="text_5">
    <!-- 在 chrome://tracing 中加载 -->
    <g style="fill: #2c5f8a" transform="translate(228.402422 147.318891) scale(0.09 -0.09)">
     <defs>
      <path id="NotoSansCJKjp-Bold-5728" d="M 2374 5440 
C 2298 5146 2202 4845 2086 4550 
L 352 4550 
L 352 3814 
L 1747 3814 
C 1357 3072 826 2400 147 1958 
C 269 1773 442 1434 525 1222 
C 730 1363 915 1510 1094 1677 
L 1094 -563 
L 1869 -563 
L 1869 2547 
C 2157 2938 2406 3366 2618 3814 
L 6061 3814 
L 6061 4550 
L 2931 4550 
C 3021 4781 3104 5018 3174 5248 
L 2374 5440 
z
M 3744 3539 
L 3744 2477 
L 2438 2477 
L 2438 1766 
L 3744 1766 
L 3744 301 
L 2195 301 
L 2195 -410 
L 6042 -410 
L 6042 301 
L 4518 301 
L 4518 1766 
L 5798 1766 
L 5798 2477 
L 4518 2477 
L 4518 3539 
L 3744 3539 
z
" transform="scale(0.015625)"/>
      <path id="NotoSansCJKjp-Bold-3a" d="M 1043 2342 
C 1376 2342 1626 2605 1626 2950 
C 1626 3302 1376 3565 1043 3565 
C 704 3565 454 3302 454 2950 
C 454 2605 704 2342 1043 2342 
z
M 1043 -90 
C 1376 -90 1626 179 1626 525 
C 1626 877 1376 1139 1043 1139 
C 704 1139 454 877 454 525 
C 454 179 704 -90 1043 -90 
z
" transform="scale(0.015625)"/>
      <path id="NotoSansCJKjp-Bold-2f" d="M 90 -1158 
L 717 -1158 
L 2304 5158 
L 1683 5158 
L 90 -1158 
z
" transform="scale(0.015625)"/>
      <path id="NotoSansCJKjp-Bold-4e2d" d="M 2778 5440 
L 2778 4326 
L 563 4326 
L 563 1082 
L 1331 1082 
L 1331 1434 
L 2778 1434 
L 2778 -570 
L 3590 -570 
L 3590 1434 
L 5043 1434 
L 5043 1114 
L 5850 1114 
L 5850 4326 
L 3590 4326 
L 3590 5440 
L 2778 5440 
z
M 1331 2189 
L 1331 3571 
L 2778 3571 
L 2778 2189 
L 1331 2189 
z
M 5043 2189 
L 3590 2189 
L 3590 3571 
L 5043 3571 
L 5043 2189 
z
" transform="scale(0.015625)"/>
      <path id="NotoSansCJKjp-Bold-52a0" d="M 3578 4704 
L 3578 -442 
L 4314 -442 
L 4314 6 
L 5139 6 
L 5139 -397 
L 5907 -397 
L 5907 4704 
L 3578 4704 
z
M 4314 742 
L 4314 3962 
L 5139 3962 
L 5139 742 
L 4314 742 
z
M 1082 5344 
L 1075 4288 
L 320 4288 
L 320 3539 
L 1069 3539 
C 1024 2029 851 806 128 -13 
C 320 -128 576 -390 691 -576 
C 1523 378 1747 1818 1811 3539 
L 2464 3539 
C 2419 1389 2368 595 2240 422 
C 2176 326 2118 301 2022 301 
C 1907 301 1677 307 1421 326 
C 1549 109 1632 -224 1638 -442 
C 1939 -454 2221 -454 2413 -416 
C 2624 -371 2765 -301 2912 -83 
C 3117 211 3162 1203 3213 3936 
C 3219 4038 3219 4288 3219 4288 
L 1830 4288 
L 1837 5344 
L 1082 5344 
z
" transform="scale(0.015625)"/>
      <path id="NotoSansCJKjp-Bold-8f7d" d="M 4710 5024 
C 4973 4749 5293 4365 5427 4109 
L 6022 4499 
C 5875 4749 5536 5120 5267 5376 
L 4710 5024 
z
M 352 704 
L 416 19 
L 1965 154 
L 1965 -550 
L 2675 -550 
L 2675 218 
L 3667 314 
L 3674 928 
L 2675 858 
L 2675 1216 
L 3565 1216 
L 3571 1850 
L 2675 1850 
L 2675 2227 
L 1965 2227 
L 1965 1850 
L 1363 1850 
C 1472 2010 1587 2182 1696 2368 
L 3648 2368 
L 3648 2963 
L 2022 2963 
L 2189 3322 
L 1709 3450 
L 3840 3450 
C 3898 2470 4000 1574 4192 890 
C 3904 499 3571 173 3194 -90 
C 3373 -224 3597 -454 3706 -621 
C 3994 -403 4250 -147 4486 128 
C 4704 -275 4992 -512 5363 -512 
C 5894 -512 6112 -250 6221 749 
C 6042 819 5792 986 5645 1152 
C 5613 480 5549 218 5427 218 
C 5254 218 5101 429 4979 794 
C 5382 1434 5696 2170 5926 2982 
L 5248 3168 
C 5120 2682 4947 2221 4742 1798 
C 4666 2278 4608 2842 4576 3450 
L 6125 3450 
L 6125 4045 
L 4550 4045 
C 4538 4493 4538 4954 4550 5427 
L 3789 5427 
C 3789 4960 3795 4493 3814 4045 
L 2419 4045 
L 2419 4416 
L 3475 4416 
L 3475 5005 
L 2419 5005 
L 2419 5434 
L 1690 5434 
L 1690 5005 
L 614 5005 
L 614 4416 
L 1690 4416 
L 1690 4045 
L 294 4045 
L 294 3450 
L 1414 3450 
C 1363 3283 1299 3117 1229 2963 
L 384 2963 
L 384 2368 
L 934 2368 
C 864 2246 806 2157 768 2106 
C 659 1933 557 1818 435 1792 
C 525 1606 634 1261 672 1120 
C 730 1178 960 1216 1203 1216 
L 1965 1216 
L 1965 806 
L 352 704 
z
" transform="scale(0.015625)"/>
     </defs>
     <use xlink:href="#NotoSansCJKjp-Bold-5728"/>
     <use xlink:href="#NotoSansCJKjp-Bold-20" transform="translate(99.999985 0)"/>
     <use xlink:href="#NotoSansCJKjp-Bold-63" transform="translate(122.699982 0)"/>
     <use xlink:href="#NotoSansCJKjp-Bold-68" transform="translate(175.399979 0)"/>
     <use xlink:href="#NotoSansCJKjp-Bold-72" transform="translate(239.399963 0)"/>
     <use xlink:href="#NotoSansCJKjp-Bold-6f" transform="translate(282.999954 0)"/>
     <use xlink:href="#NotoSansCJKjp-Bold-6d" transform="translate(345.599945 0)"/>
     <use xlink:href="#NotoSansCJKjp-Bold-65" transform="translate(441.999939 0)"/>
     <use xlink:href="#NotoSansCJKjp-Bold-3a" transform="translate(500.09993 0)"/>
     <use xlink:href="#NotoSansCJKjp-Bold-2f" transform="translate(532.599915 0)"/>
     <use xlink:href="#NotoSansCJKjp-Bold-2f" transform="translate(571.299911 0)"/>
     <use xlink:href="#NotoSansCJKjp-Bold-74" transform="translate(609.999908 0)"/>
     <use xlink:href="#NotoSansCJKjp-Bold-72" transform="translate(652.099899 0)"/>
     <use xlink:href="#NotoSansCJKjp-Bold-61" transform="translate(695.69989 0)"/>
     <use xlink:href="#NotoSansCJKjp-Bold-63" transform="translate(754.799881 0)"/>
     <use xlink:href="#NotoSansCJKjp-Bold-69" transform="translate(807.499878 0)"/>
     <use xlink:href="#NotoSansCJKjp-Bold-6e" transform="translate(837.899872 0)"/>
     <use xlink:href="#NotoSansCJKjp-Bold-67" transform="translate(901.999863 0)"/>
     <use xlink:href="#NotoSansCJKjp-Bold-20" transform="translate(961.69986 0)"/>
     <use xlink:href="#NotoSansCJKjp-Bold-4e2d" transform="translate(984.399857 0)"/>
     <use xlink:href="#NotoSansCJKjp-Bold-52a0" transform="translate(1084.399841 0)"/>
     <use xlink:href="#NotoSansCJKjp-Bold-8f7d" transform="translate(1184.399826 0)"/>
    </g>
   </g>
   <g id="patch_16">
    <path d="M 286.2 90.282511 
Q 286.2 106.300574 286.2 120.641586 
" style="fill: none; stroke: #616161; stroke-width: 1.5; stroke-linecap: round"/>
    <path d="M 288.4 116.241586 
L 286.2 120.641586 
L 284 116.241586 
" style="fill: none; stroke: #616161; stroke-width: 1.5; stroke-linecap: round"/>
   </g>
   <g id="text_6">
    <!-- 分析 GPU -->
    <g style="fill: #757575" transform="translate(268.76375 207.544125) scale(0.08 -0.08)">
     <defs>
      <path id="NotoSansCJKjp-Bold-5206" d="M 4403 5370 
L 3648 5069 
C 4006 4384 4493 3674 4998 3085 
L 1517 3085 
C 2022 3661 2477 4371 2797 5114 
L 1965 5357 
C 1581 4378 870 3482 70 2950 
C 256 2810 589 2502 730 2330 
C 902 2464 1082 2624 1248 2790 
L 1248 2342 
L 2330 2342 
C 2202 1408 1869 563 416 90 
C 602 -83 826 -403 915 -614 
C 2592 6 3014 1107 3168 2342 
L 4435 2342 
C 4378 1005 4307 429 4179 288 
C 4109 211 4032 198 3917 198 
C 3763 198 3424 205 3072 230 
C 3206 13 3309 -314 3322 -544 
C 3699 -557 4077 -557 4294 -525 
C 4544 -493 4717 -429 4883 -218 
C 5101 51 5184 813 5248 2752 
L 5254 2797 
C 5389 2650 5530 2509 5664 2387 
C 5811 2605 6112 2918 6317 3078 
C 5613 3622 4813 4550 4403 5370 
z
" transform="scale(0.015625)"/>
      <path id="NotoSansCJKjp-Bold-6790" d="M 5376 5370 
C 4954 5165 4307 4966 3661 4826 
L 3053 4992 
L 3053 3123 
C 3053 2170 2982 877 2259 -64 
C 2445 -147 2746 -403 2848 -563 
C 3546 320 3744 1568 3789 2554 
L 4634 2554 
L 4634 -570 
L 5389 -570 
L 5389 2554 
L 6221 2554 
L 6221 3277 
L 3802 3277 
L 3802 4160 
C 4563 4301 5376 4499 6022 4768 
L 5376 5370 
z
M 1165 5440 
L 1165 4115 
L 288 4115 
L 288 3392 
L 1082 3392 
C 890 2624 525 1760 115 1248 
C 237 1056 410 749 480 531 
C 736 877 973 1382 1165 1926 
L 1165 -570 
L 1901 -570 
L 1901 2074 
C 2067 1798 2227 1504 2317 1306 
L 2752 1907 
C 2637 2074 2112 2746 1901 2995 
L 1901 3392 
L 2675 3392 
L 2675 4115 
L 1901 4115 
L 1901 5440 
L 1165 5440 
z
" transform="scale(0.015625)"/>
      <path id="NotoSansCJKjp-Bold-47" d="M 2618 -90 
C 3270 -90 3834 160 4160 480 
L 4160 2618 
L 2470 2618 
L 2470 1843 
L 3309 1843 
L 3309 909 
C 3181 794 2944 730 2720 730 
C 1786 730 1318 1350 1318 2381 
C 1318 3398 1856 4013 2650 4013 
C 3072 4013 3341 3840 3578 3616 
L 4083 4218 
C 3776 4531 3302 4826 2618 4826 
C 1357 4826 346 3910 346 2349 
C 346 768 1331 -90 2618 -90 
z
" transform="scale(0.015625)"/>
      <path id="NotoSansCJKjp-Bold-55" d="M 2406 -90 
C 3558 -90 4230 563 4230 2131 
L 4230 4742 
L 3322 4742 
L 3322 2048 
C 3322 1062 2957 730 2406 730 
C 1850 730 1504 1062 1504 2048 
L 1504 4742 
L 563 4742 
L 563 2131 
C 563 563 1242 -90 2406 -90 
z
" transform="scale(0.015625)"/>
     </defs>
     <use xlink:href="#NotoSansCJKjp-Bold-5206"/>
     <use xlink:href="#NotoSansCJKjp-Bold-6790" transform="translate(99.999985 0)"/>
     <use xlink:href="#NotoSansCJKjp-Bold-20" transform="translate(199.999969 0)"/>
     <use xlink:href="#NotoSansCJKjp-Bold-47" transform="translate(222.699966 0)"/>
     <use xlink:href="#NotoSansCJKjp-Bold-50" transform="translate(294.399948 0)"/>
     <use xlink:href="#NotoSansCJKjp-Bold-55" transform="translate(361.099945 0)"/>
    </g>
    <!-- 时间线 -->
    <g style="fill: #757575" transform="translate(274.2 216.924625) scale(0.08 -0.08)">
     <defs>
      <path id="NotoSansCJKjp-Bold-65f6" d="M 2938 2739 
C 3245 2272 3661 1638 3846 1267 
L 4531 1664 
C 4320 2029 3885 2630 3571 3072 
L 2938 2739 
z
M 1914 2464 
L 1914 1299 
L 1139 1299 
L 1139 2464 
L 1914 2464 
z
M 1914 3136 
L 1139 3136 
L 1139 4250 
L 1914 4250 
L 1914 3136 
z
M 422 4934 
L 422 102 
L 1139 102 
L 1139 614 
L 2630 614 
L 2630 4934 
L 422 4934 
z
M 4781 5395 
L 4781 4256 
L 2867 4256 
L 2867 3494 
L 4781 3494 
L 4781 454 
C 4781 326 4730 282 4589 282 
C 4448 282 3974 282 3526 301 
C 3642 83 3763 -262 3795 -474 
C 4435 -480 4890 -461 5171 -339 
C 5459 -218 5562 -13 5562 448 
L 5562 3494 
L 6214 3494 
L 6214 4256 
L 5562 4256 
L 5562 5395 
L 4781 5395 
z
" transform="scale(0.015625)"/>
      <path id="NotoSansCJKjp-Bold-95f4" d="M 454 3898 
L 454 -563 
L 1248 -563 
L 1248 3898 
L 454 3898 
z
M 544 5024 
C 838 4717 1165 4294 1299 4013 
L 1946 4429 
C 1798 4717 1446 5114 1152 5395 
L 544 5024 
z
M 2586 1805 
L 3821 1805 
L 3821 1190 
L 2586 1190 
L 2586 1805 
z
M 2586 3027 
L 3821 3027 
L 3821 2419 
L 2586 2419 
L 2586 3027 
z
M 1901 3642 
L 1901 576 
L 4538 576 
L 4538 3642 
L 1901 3642 
z
M 2170 5120 
L 2170 4403 
L 5210 4403 
L 5210 256 
C 5210 179 5184 147 5101 147 
C 5030 147 4787 141 4589 154 
C 4678 -32 4774 -333 4806 -531 
C 5210 -531 5510 -518 5728 -403 
C 5939 -282 6003 -102 6003 256 
L 6003 5120 
L 2170 5120 
z
" transform="scale(0.015625)"/>
      <path id="NotoSansCJKjp-Bold-7ebf" d="M 307 454 
L 461 -275 
C 1088 -64 1869 211 2605 474 
L 2483 1107 
C 1683 851 845 595 307 454 
z
M 4525 4979 
C 4787 4800 5139 4538 5318 4371 
L 5779 4819 
C 5594 4979 5229 5229 4973 5376 
L 4525 4979 
z
M 474 2643 
C 576 2694 730 2733 1293 2803 
C 1082 2502 896 2272 794 2170 
C 595 1933 448 1792 282 1754 
C 365 1568 480 1222 518 1082 
C 685 1178 947 1254 2509 1555 
C 2496 1709 2509 2003 2528 2195 
L 1517 2029 
C 1958 2547 2381 3149 2726 3750 
L 2106 4141 
C 1990 3910 1862 3680 1728 3462 
L 1184 3424 
C 1542 3910 1894 4512 2144 5082 
L 1427 5427 
C 1197 4698 755 3923 614 3725 
C 474 3520 365 3392 230 3354 
C 314 3155 435 2790 474 2643 
z
M 5517 2246 
C 5325 1939 5082 1664 4800 1414 
C 4742 1664 4685 1946 4634 2246 
L 6112 2522 
L 5984 3187 
L 4544 2925 
L 4486 3526 
L 5946 3757 
L 5818 4429 
L 4442 4218 
C 4422 4627 4416 5043 4422 5459 
L 3654 5459 
C 3654 5011 3667 4550 3693 4102 
L 2765 3962 
L 2886 3270 
L 3738 3405 
L 3802 2790 
L 2624 2579 
L 2752 1894 
L 3891 2106 
C 3962 1677 4051 1280 4154 928 
C 3629 595 3027 339 2400 154 
C 2573 -26 2765 -288 2861 -486 
C 3411 -288 3936 -45 4410 256 
C 4659 -256 4986 -570 5395 -570 
C 5907 -570 6112 -365 6234 429 
C 6067 512 5843 672 5696 851 
C 5664 333 5606 173 5485 173 
C 5325 173 5165 365 5030 698 
C 5472 1062 5856 1478 6163 1958 
L 5517 2246 
z
" transform="scale(0.015625)"/>
     </defs>
     <use xlink:href="#NotoSansCJKjp-Bold-65f6"/>
     <use xlink:href="#NotoSansCJKjp-Bold-95f4" transform="translate(99.999985 0)"/>
     <use xlink:href="#NotoSansCJKjp-Bold-7ebf" transform="translate(199.999969 0)"/>
    </g>
   </g>
   <g id="patch_17">
    <path d="M 286.2 166.859011 
Q 286.2 169.36193 286.2 170.187798 
" style="fill: none; stroke: #616161; stroke-width: 1.5; stroke-linecap: round"/>
    <path d="M 288.4 165.787798 
L 286.2 170.187798 
L 284 165.787798 
" style="fill: none; stroke: #616161; stroke-width: 1.5; stroke-linecap: round"/>
   </g>
   <g id="text_7">
    <!-- 识别 kernel 间隙 -->
    <g style="fill: #e2882c" transform="translate(112.446562 212.525859) scale(0.09 -0.09)">
     <defs>
      <path id="NotoSansCJKjp-Bold-8bc6" d="M 3514 4301 
L 5011 4301 
L 5011 2707 
L 3514 2707 
L 3514 4301 
z
M 2752 5030 
L 2752 1978 
L 5811 1978 
L 5811 5030 
L 2752 5030 
z
M 4595 1242 
C 4934 672 5280 -70 5402 -538 
L 6176 -243 
C 6042 230 5658 947 5312 1491 
L 4595 1242 
z
M 3149 1459 
C 2970 858 2637 250 2221 -122 
C 2413 -224 2752 -435 2906 -563 
C 3322 -122 3712 576 3942 1286 
L 3149 1459 
z
M 518 4870 
C 870 4557 1325 4122 1536 3840 
L 2061 4365 
C 1837 4640 1363 5050 1018 5338 
L 518 4870 
z
M 256 3462 
L 256 2726 
L 1011 2726 
L 1011 883 
C 1011 486 768 179 608 32 
C 736 -64 986 -314 1075 -461 
C 1190 -301 1414 -115 2618 915 
C 2528 1062 2387 1376 2323 1587 
L 1754 1114 
L 1754 3462 
L 256 3462 
z
" transform="scale(0.015625)"/>
      <path id="NotoSansCJKjp-Bold-522b" d="M 3834 4659 
L 3834 1037 
L 4582 1037 
L 4582 4659 
L 3834 4659 
z
M 5178 5306 
L 5178 346 
C 5178 237 5133 198 5018 198 
C 4902 198 4538 198 4173 211 
C 4282 -6 4390 -358 4422 -576 
C 4973 -582 5357 -557 5606 -429 
C 5856 -301 5939 -83 5939 339 
L 5939 5306 
L 5178 5306 
z
M 1210 4486 
L 2445 4486 
L 2445 3603 
L 1210 3603 
L 1210 4486 
z
M 512 5158 
L 512 2925 
L 3187 2925 
L 3187 5158 
L 512 5158 
z
M 1312 2790 
L 1293 2394 
L 339 2394 
L 339 1696 
L 1235 1696 
C 1126 941 870 358 134 -26 
C 294 -160 499 -422 589 -602 
C 1504 -96 1824 691 1952 1696 
L 2579 1696 
C 2534 755 2483 378 2400 275 
C 2342 211 2291 198 2202 198 
C 2099 198 1901 198 1677 224 
C 1792 26 1869 -282 1882 -506 
C 2170 -512 2438 -506 2598 -480 
C 2784 -448 2918 -390 3046 -224 
C 3219 -6 3277 602 3334 2099 
C 3341 2195 3347 2394 3347 2394 
L 2016 2394 
L 2035 2790 
L 1312 2790 
z
" transform="scale(0.015625)"/>
      <path id="NotoSansCJKjp-Bold-6b" d="M 506 0 
L 1434 0 
L 1434 909 
L 1933 1491 
L 2803 0 
L 3827 0 
L 2483 2106 
L 3712 3584 
L 2682 3584 
L 1459 2048 
L 1434 2048 
L 1434 5107 
L 506 5107 
L 506 0 
z
" transform="scale(0.015625)"/>
      <path id="NotoSansCJKjp-Bold-9699" d="M 3366 2394 
L 5133 2394 
L 5133 2022 
L 3366 2022 
L 3366 2394 
z
M 3366 3251 
L 5133 3251 
L 5133 2886 
L 3366 2886 
L 3366 3251 
z
M 2886 1286 
C 2714 864 2406 435 2054 160 
C 2214 64 2496 -128 2624 -243 
C 2982 83 3347 602 3552 1120 
L 2886 1286 
z
M 4858 1062 
C 5165 678 5491 147 5613 -192 
L 6259 102 
C 6118 461 5773 960 5453 1325 
L 4858 1062 
z
M 3891 5434 
L 3891 3776 
L 3027 3776 
C 3270 4083 3539 4531 3712 4934 
L 3046 5126 
C 2893 4736 2630 4320 2368 4038 
C 2496 3981 2694 3872 2842 3776 
L 2675 3776 
L 2675 1498 
L 3891 1498 
L 3891 154 
C 3891 90 3872 70 3802 70 
C 3725 70 3488 70 3264 77 
C 3354 -109 3437 -378 3456 -576 
C 3840 -576 4122 -576 4333 -474 
C 4557 -365 4602 -179 4602 141 
L 4602 1498 
L 5862 1498 
L 5862 3776 
L 5600 3776 
L 6138 4026 
C 5990 4358 5638 4826 5325 5158 
L 4742 4896 
C 5043 4557 5363 4096 5498 3776 
L 4595 3776 
L 4595 5434 
L 3891 5434 
z
M 454 5158 
L 454 -576 
L 1126 -576 
L 1126 4480 
L 1683 4480 
C 1581 4064 1446 3539 1325 3142 
C 1690 2694 1766 2278 1766 1971 
C 1766 1786 1734 1645 1658 1587 
C 1613 1549 1549 1536 1485 1536 
C 1408 1530 1318 1536 1210 1542 
C 1312 1357 1370 1069 1370 883 
C 1523 877 1677 877 1792 896 
C 1933 922 2054 960 2157 1037 
C 2362 1190 2445 1472 2445 1888 
C 2445 2266 2362 2720 1978 3226 
C 2157 3718 2368 4365 2534 4902 
L 2029 5190 
L 1920 5158 
L 454 5158 
z
" transform="scale(0.015625)"/>
     </defs>
     <use xlink:href="#NotoSansCJKjp-Bold-8bc6"/>
     <use xlink:href="#NotoSansCJKjp-Bold-522b" transform="translate(99.999985 0)"/>
     <use xlink:href="#NotoSansCJKjp-Bold-20" transform="translate(199.999969 0)"/>
     <use xlink:href="#NotoSansCJKjp-Bold-6b" transform="translate(222.699966 0)"/>
     <use xlink:href="#NotoSansCJKjp-Bold-65" transform="translate(283.09996 0)"/>
     <use xlink:href="#NotoSansCJKjp-Bold-72" transform="translate(341.199951 0)"/>
     <use xlink:href="#NotoSansCJKjp-Bold-6e" transform="translate(384.799942 0)"/>
     <use xlink:href="#NotoSansCJKjp-Bold-65" transform="translate(448.899933 0)"/>
     <use xlink:href="#NotoSansCJKjp-Bold-6c" transform="translate(506.999924 0)"/>
     <use xlink:href="#NotoSansCJKjp-Bold-20" transform="translate(538.499908 0)"/>
     <use xlink:href="#NotoSansCJKjp-Bold-95f4" transform="translate(561.199905 0)"/>
     <use xlink:href="#NotoSansCJKjp-Bold-9699" transform="translate(661.19989 0)"/>
    </g>
   </g>
   <g id="text_8">
    <!-- 识别性能瓶颈 -->
    <g style="fill: #4caf50" transform="translate(398.7 212.525859) scale(0.09 -0.09)">
     <defs>
      <path id="NotoSansCJKjp-Bold-6027" d="M 2163 358 
L 2163 -371 
L 6170 -371 
L 6170 358 
L 4659 358 
L 4659 1645 
L 5830 1645 
L 5830 2362 
L 4659 2362 
L 4659 3418 
L 5971 3418 
L 5971 4141 
L 4659 4141 
L 4659 5402 
L 3891 5402 
L 3891 4141 
L 3373 4141 
C 3437 4429 3488 4730 3533 5030 
L 2784 5146 
C 2720 4595 2611 4045 2451 3571 
C 2355 3827 2221 4134 2093 4378 
L 1722 4224 
L 1722 5440 
L 954 5440 
L 954 4128 
L 416 4205 
C 371 3674 256 2957 102 2528 
L 672 2323 
C 806 2784 922 3475 954 4013 
L 954 -570 
L 1722 -570 
L 1722 3821 
C 1830 3552 1926 3277 1965 3085 
L 2323 3251 
C 2266 3117 2202 2989 2131 2880 
C 2317 2803 2662 2630 2816 2528 
C 2950 2771 3072 3078 3181 3418 
L 3891 3418 
L 3891 2362 
L 2643 2362 
L 2643 1645 
L 3891 1645 
L 3891 358 
L 2163 358 
z
" transform="scale(0.015625)"/>
      <path id="NotoSansCJKjp-Bold-80fd" d="M 2035 4768 
C 2138 4608 2240 4422 2336 4243 
L 1478 4205 
C 1645 4544 1818 4928 1965 5299 
L 1165 5466 
C 1062 5075 877 4576 691 4173 
L 192 4154 
L 256 3424 
L 2637 3578 
C 2688 3456 2726 3341 2752 3238 
L 3456 3514 
C 3334 3936 2995 4544 2682 5011 
L 2035 4768 
z
M 2240 2496 
L 2240 2157 
L 1286 2157 
L 1286 2496 
L 2240 2496 
z
M 576 3123 
L 576 -563 
L 1286 -563 
L 1286 646 
L 2240 646 
L 2240 218 
C 2240 141 2221 122 2138 122 
C 2054 115 1805 109 1574 122 
C 1670 -58 1786 -358 1824 -557 
C 2208 -557 2502 -550 2720 -429 
C 2938 -320 3002 -128 3002 205 
L 3002 3123 
L 576 3123 
z
M 1286 1587 
L 2240 1587 
L 2240 1216 
L 1286 1216 
L 1286 1587 
z
M 5427 5037 
C 5126 4858 4704 4666 4269 4499 
L 4269 5414 
L 3507 5414 
L 3507 3482 
C 3507 2771 3693 2547 4448 2547 
C 4595 2547 5165 2547 5325 2547 
C 5920 2547 6125 2778 6208 3610 
C 5997 3654 5683 3776 5530 3898 
C 5504 3328 5459 3232 5254 3232 
C 5120 3232 4659 3232 4550 3232 
C 4314 3232 4269 3264 4269 3488 
L 4269 3872 
C 4826 4038 5427 4243 5914 4480 
L 5427 5037 
z
M 5472 2157 
C 5165 1952 4723 1734 4269 1555 
L 4269 2419 
L 3507 2419 
L 3507 397 
C 3507 -307 3699 -531 4448 -531 
C 4608 -531 5197 -531 5363 -531 
C 5978 -531 6176 -275 6259 627 
C 6054 678 5747 794 5587 915 
C 5555 256 5517 141 5286 141 
C 5152 141 4666 141 4563 141 
C 4314 141 4269 173 4269 403 
L 4269 915 
C 4851 1094 5485 1325 5978 1594 
L 5472 2157 
z
" transform="scale(0.015625)"/>
      <path id="NotoSansCJKjp-Bold-74f6" d="M 2867 237 
L 3059 -435 
C 3629 -326 4365 -186 5056 -38 
L 5005 570 
L 4000 403 
C 4051 941 4102 1600 4147 2285 
C 4314 1856 4454 1344 4486 998 
L 5011 1158 
C 4954 1555 4774 2150 4557 2611 
L 4160 2490 
L 4198 3091 
L 4979 3091 
C 4992 1190 5056 -576 5792 -576 
C 6208 -576 6323 -205 6368 646 
C 6240 749 6074 922 5952 1094 
C 5946 512 5920 141 5862 141 
C 5632 141 5638 2099 5651 3744 
L 4230 3744 
L 4262 4435 
L 6074 4435 
L 6074 5120 
L 3098 5120 
L 3098 4435 
L 3578 4435 
C 3533 3059 3411 1414 3277 294 
L 2867 237 
z
M 506 5210 
C 666 4883 813 4442 858 4147 
L 294 4147 
L 294 3475 
L 768 3475 
L 768 2483 
L 192 2483 
L 192 1792 
L 755 1792 
C 717 1120 582 442 160 -122 
C 333 -218 595 -442 717 -582 
C 1235 102 1382 960 1421 1792 
L 1958 1792 
L 1958 -563 
L 2637 -563 
L 2637 1792 
L 3213 1792 
L 3213 2483 
L 2637 2483 
L 2637 3475 
L 3149 3475 
L 3149 4147 
L 2528 4147 
C 2682 4422 2874 4851 3053 5254 
L 2330 5421 
C 2253 5088 2099 4608 1958 4301 
L 2496 4147 
L 922 4147 
L 1485 4339 
C 1427 4634 1274 5075 1101 5395 
L 506 5210 
z
M 1958 3475 
L 1958 2483 
L 1434 2483 
L 1434 3475 
L 1958 3475 
z
" transform="scale(0.015625)"/>
      <path id="NotoSansCJKjp-Bold-9888" d="M 4230 3027 
L 4230 1843 
C 4230 1222 4115 422 2739 -77 
C 2899 -205 3123 -448 3219 -602 
C 4646 26 4954 1018 4954 1830 
L 4954 3027 
L 4230 3027 
z
M 4678 474 
C 5069 154 5568 -314 5798 -608 
L 6285 -83 
C 6042 205 5523 640 5133 941 
L 4678 474 
z
M 3194 4006 
L 3194 979 
L 3904 979 
L 3904 3322 
L 5280 3322 
L 5280 1005 
L 6022 1005 
L 6022 4006 
L 4755 4006 
L 4979 4486 
L 6182 4486 
L 6182 5184 
L 2995 5184 
L 2995 4486 
L 4160 4486 
C 4122 4326 4064 4160 4013 4006 
L 3194 4006 
z
M 403 5133 
L 403 4442 
L 1792 4442 
C 1389 3872 762 3347 141 3053 
C 301 2925 518 2662 627 2496 
C 998 2701 1370 2963 1702 3264 
C 2054 3040 2432 2771 2630 2579 
L 3130 3130 
C 2918 3309 2528 3558 2176 3763 
C 2464 4102 2707 4486 2880 4902 
L 2368 5165 
L 2240 5133 
L 403 5133 
z
M 269 320 
L 448 -397 
C 1165 -224 2131 19 3021 256 
L 2957 883 
L 2067 685 
L 2067 1664 
L 2899 1664 
L 2899 2336 
L 416 2336 
L 416 1664 
L 1331 1664 
L 1331 531 
L 269 320 
z
" transform="scale(0.015625)"/>
     </defs>
     <use xlink:href="#NotoSansCJKjp-Bold-8bc6"/>
     <use xlink:href="#NotoSansCJKjp-Bold-522b" transform="translate(99.999985 0)"/>
     <use xlink:href="#NotoSansCJKjp-Bold-6027" transform="translate(199.999969 0)"/>
     <use xlink:href="#NotoSansCJKjp-Bold-80fd" transform="translate(299.999954 0)"/>
     <use xlink:href="#NotoSansCJKjp-Bold-74f6" transform="translate(399.999939 0)"/>
     <use xlink:href="#NotoSansCJKjp-Bold-9888" transform="translate(499.999924 0)"/>
    </g>
   </g>
   <g id="patch_18">
    <path d="M 247.000818 209.9025 
Q 221.100308 209.9025 196.876849 209.9025 
" style="fill: none; stroke: #616161; stroke-width: 1.5; stroke-linecap: round"/>
    <path d="M 201.276849 212.1025 
L 196.876849 209.9025 
L 201.276849 207.7025 
" style="fill: none; stroke: #616161; stroke-width: 1.5; stroke-linecap: round"/>
   </g>
   <g id="patch_19">
    <path d="M 325.399182 209.9025 
Q 351.299692 209.9025 375.523151 209.9025 
" style="fill: none; stroke: #616161; stroke-width: 1.5; stroke-linecap: round"/>
    <path d="M 371.123151 207.7025 
L 375.523151 209.9025 
L 371.123151 212.1025 
" style="fill: none; stroke: #616161; stroke-width: 1.5; stroke-linecap: round"/>
   </g>
   <g id="text_9">
    <!-- Kernel launch 开销过高 -->
    <g style="fill: #e2882c" transform="translate(69.97125 252.774875) scale(0.08 -0.08)">
     <defs>
      <path id="NotoSansCJKjp-Bold-4b" d="M 582 0 
L 1530 0 
L 1530 1331 
L 2150 2131 
L 3379 0 
L 4416 0 
L 2714 2874 
L 4160 4742 
L 3117 4742 
L 1549 2682 
L 1530 2682 
L 1530 4742 
L 582 4742 
L 582 0 
z
" transform="scale(0.015625)"/>
      <path id="NotoSansCJKjp-Bold-75" d="M 1574 -90 
C 2067 -90 2406 154 2714 518 
L 2739 518 
L 2810 0 
L 3578 0 
L 3578 3584 
L 2637 3584 
L 2637 1165 
C 2394 845 2202 717 1914 717 
C 1562 717 1402 909 1402 1466 
L 1402 3584 
L 467 3584 
L 467 1350 
C 467 448 800 -90 1574 -90 
z
" transform="scale(0.015625)"/>
      <path id="NotoSansCJKjp-Bold-5f00" d="M 4000 4339 
L 4000 2771 
L 2534 2771 
L 2534 2957 
L 2534 4339 
L 4000 4339 
z
M 294 2771 
L 294 2035 
L 1677 2035 
C 1555 1280 1210 538 275 -26 
C 467 -154 762 -429 896 -602 
C 2010 102 2374 1069 2490 2035 
L 4000 2035 
L 4000 -576 
L 4806 -576 
L 4806 2035 
L 6125 2035 
L 6125 2771 
L 4806 2771 
L 4806 4339 
L 5939 4339 
L 5939 5069 
L 506 5069 
L 506 4339 
L 1741 4339 
L 1741 2963 
L 1741 2771 
L 294 2771 
z
" transform="scale(0.015625)"/>
      <path id="NotoSansCJKjp-Bold-9500" d="M 2726 4954 
C 2950 4582 3174 4090 3251 3776 
L 3885 4102 
C 3802 4422 3552 4890 3322 5242 
L 2726 4954 
z
M 5504 5293 
C 5376 4909 5139 4390 4960 4064 
L 5555 3814 
C 5741 4122 5978 4582 6170 5018 
L 5504 5293 
z
M 346 2310 
L 346 1619 
L 1152 1619 
L 1152 640 
C 1152 358 966 173 832 90 
C 947 -64 1107 -371 1152 -550 
C 1280 -429 1491 -307 2643 288 
C 2592 448 2534 749 2522 954 
L 1856 634 
L 1856 1619 
L 2656 1619 
L 2656 2310 
L 1856 2310 
L 1856 2938 
L 2528 2938 
L 2528 3622 
L 813 3622 
C 915 3744 1011 3878 1101 4019 
L 2637 4019 
L 2637 4742 
L 1498 4742 
C 1574 4902 1638 5062 1696 5222 
L 1050 5421 
C 851 4858 512 4320 128 3962 
C 243 3795 416 3405 467 3245 
L 672 3456 
L 672 2938 
L 1152 2938 
L 1152 2310 
L 346 2310 
z
M 3520 1818 
L 5286 1818 
L 5286 1338 
L 3520 1338 
L 3520 1818 
z
M 3520 2464 
L 3520 2931 
L 5286 2931 
L 5286 2464 
L 3520 2464 
z
M 4070 5446 
L 4070 3642 
L 2835 3642 
L 2835 -570 
L 3520 -570 
L 3520 691 
L 5286 691 
L 5286 262 
C 5286 186 5248 160 5165 154 
C 5075 147 4768 147 4480 160 
C 4576 -26 4672 -339 4691 -538 
C 5152 -538 5466 -525 5683 -410 
C 5907 -294 5965 -83 5965 250 
L 5965 3648 
L 5286 3642 
L 4768 3642 
L 4768 5446 
L 4070 5446 
z
" transform="scale(0.015625)"/>
      <path id="NotoSansCJKjp-Bold-8fc7" d="M 365 4838 
C 710 4499 1120 4026 1286 3706 
L 1926 4154 
C 1741 4474 1306 4922 960 5242 
L 365 4838 
z
M 2317 2995 
C 2630 2592 3027 2042 3194 1696 
L 3853 2099 
C 3667 2445 3251 2970 2938 3347 
L 2317 2995 
z
M 1773 3066 
L 275 3066 
L 275 2349 
L 1018 2349 
L 1018 922 
C 742 800 429 563 128 250 
L 666 -531 
C 896 -154 1171 275 1357 275 
C 1504 275 1728 77 2029 -83 
C 2502 -346 3046 -416 3859 -416 
C 4518 -416 5562 -378 6010 -352 
C 6022 -122 6150 282 6246 499 
C 5600 403 4557 346 3891 346 
C 3181 346 2579 384 2144 627 
C 1990 710 1875 787 1773 851 
L 1773 3066 
z
M 4525 5395 
L 4525 4339 
L 2144 4339 
L 2144 3616 
L 4525 3616 
L 4525 1510 
C 4525 1402 4480 1363 4346 1363 
C 4218 1357 3750 1357 3341 1376 
C 3443 1165 3571 819 3603 602 
C 4198 602 4640 621 4922 736 
C 5210 858 5306 1062 5306 1504 
L 5306 3616 
L 6093 3616 
L 6093 4339 
L 5306 4339 
L 5306 5395 
L 4525 5395 
z
" transform="scale(0.015625)"/>
      <path id="NotoSansCJKjp-Bold-9ad8" d="M 2170 3494 
L 4179 3494 
L 4179 3104 
L 2170 3104 
L 2170 3494 
z
M 1440 4006 
L 1440 2592 
L 4960 2592 
L 4960 4006 
L 1440 4006 
z
M 2765 5446 
L 2765 4909 
L 390 4909 
L 390 4250 
L 6010 4250 
L 6010 4909 
L 3552 4909 
L 3552 5446 
L 2765 5446 
z
M 1965 1395 
L 1965 -339 
L 2630 -339 
L 2630 -45 
L 4294 -45 
C 4365 -218 4422 -416 4442 -563 
C 4909 -563 5242 -557 5491 -442 
C 5734 -326 5805 -115 5805 237 
L 5805 2323 
L 640 2323 
L 640 -576 
L 1389 -576 
L 1389 1690 
L 5037 1690 
L 5037 250 
C 5037 173 5005 154 4909 147 
C 4838 141 4640 141 4422 147 
L 4422 1395 
L 1965 1395 
z
M 2630 877 
L 3750 877 
L 3750 474 
L 2630 474 
L 2630 877 
z
" transform="scale(0.015625)"/>
     </defs>
     <use xlink:href="#NotoSansCJKjp-Bold-4b"/>
     <use xlink:href="#NotoSansCJKjp-Bold-65" transform="translate(68.599991 0)"/>
     <use xlink:href="#NotoSansCJKjp-Bold-72" transform="translate(126.699982 0)"/>
     <use xlink:href="#NotoSansCJKjp-Bold-6e" transform="translate(170.299973 0)"/>
     <use xlink:href="#NotoSansCJKjp-Bold-65" transform="translate(234.399963 0)"/>
     <use xlink:href="#NotoSansCJKjp-Bold-6c" transform="translate(292.499954 0)"/>
     <use xlink:href="#NotoSansCJKjp-Bold-20" transform="translate(323.999939 0)"/>
     <use xlink:href="#NotoSansCJKjp-Bold-6c" transform="translate(346.699936 0)"/>
     <use xlink:href="#NotoSansCJKjp-Bold-61" transform="translate(378.199921 0)"/>
     <use xlink:href="#NotoSansCJKjp-Bold-75" transform="translate(437.299911 0)"/>
     <use xlink:href="#NotoSansCJKjp-Bold-6e" transform="translate(500.999908 0)"/>
     <use xlink:href="#NotoSansCJKjp-Bold-63" transform="translate(565.099899 0)"/>
     <use xlink:href="#NotoSansCJKjp-Bold-68" transform="translate(617.799896 0)"/>
     <use xlink:href="#NotoSansCJKjp-Bold-20" transform="translate(681.799881 0)"/>
     <use xlink:href="#NotoSansCJKjp-Bold-5f00" transform="translate(704.499878 0)"/>
     <use xlink:href="#NotoSansCJKjp-Bold-9500" transform="translate(804.499863 0)"/>
     <use xlink:href="#NotoSansCJKjp-Bold-8fc7" transform="translate(904.499847 0)"/>
     <use xlink:href="#NotoSansCJKjp-Bold-9ad8" transform="translate(1004.499832 0)"/>
    </g>
   </g>
   <g id="text_10">
    <!-- 计算瓶颈 / 内存瓶颈 -->
    <g style="fill: #4caf50" transform="translate(422.885625 252.878625) scale(0.08 -0.08)">
     <defs>
      <path id="NotoSansCJKjp-Bold-8ba1" d="M 736 4877 
C 1101 4576 1574 4147 1792 3866 
L 2310 4422 
C 2080 4698 1581 5101 1229 5376 
L 736 4877 
z
M 243 3462 
L 243 2701 
L 1178 2701 
L 1178 768 
C 1178 480 973 269 826 173 
C 954 6 1146 -346 1203 -544 
C 1325 -384 1562 -205 2854 736 
C 2778 896 2656 1222 2611 1446 
L 1958 986 
L 1958 3462 
L 243 3462 
z
M 3885 5408 
L 3885 3418 
L 2349 3418 
L 2349 2618 
L 3885 2618 
L 3885 -576 
L 4710 -576 
L 4710 2618 
L 6189 2618 
L 6189 3418 
L 4710 3418 
L 4710 5408 
L 3885 5408 
z
" transform="scale(0.015625)"/>
      <path id="NotoSansCJKjp-Bold-7b97" d="M 1824 2829 
L 4678 2829 
L 4678 2592 
L 1824 2592 
L 1824 2829 
z
M 1824 2157 
L 4678 2157 
L 4678 1920 
L 1824 1920 
L 1824 2157 
z
M 1824 3482 
L 4678 3482 
L 4678 3258 
L 1824 3258 
L 1824 3482 
z
M 3725 5491 
C 3597 5139 3373 4787 3110 4512 
L 3110 5018 
L 1690 5018 
L 1830 5293 
L 1120 5491 
C 909 5005 531 4518 128 4211 
C 307 4115 608 3910 749 3789 
C 934 3955 1126 4173 1306 4416 
L 1440 4416 
C 1536 4262 1638 4083 1696 3942 
L 1050 3942 
L 1050 1466 
L 1837 1466 
L 1837 1082 
L 307 1082 
L 307 467 
L 1587 467 
C 1382 282 1018 109 390 -13 
C 557 -154 768 -410 870 -576 
C 1882 -314 2336 58 2515 467 
L 3955 467 
L 3955 -563 
L 4755 -563 
L 4755 467 
L 6106 467 
L 6106 1082 
L 4755 1082 
L 4755 1466 
L 5485 1466 
L 5485 3942 
L 4915 3942 
L 5350 4134 
C 5299 4218 5229 4314 5139 4416 
L 6086 4416 
L 6086 5018 
L 4320 5018 
C 4371 5114 4416 5216 4454 5312 
L 3725 5491 
z
M 3955 1082 
L 2611 1082 
L 2611 1466 
L 3955 1466 
L 3955 1082 
z
M 3354 3942 
L 1965 3942 
L 2394 4096 
C 2362 4186 2298 4301 2227 4416 
L 3021 4416 
C 2950 4346 2880 4288 2803 4230 
C 2950 4166 3187 4045 3354 3942 
z
M 3552 3942 
C 3686 4077 3827 4237 3955 4416 
L 4294 4416 
C 4422 4262 4557 4090 4646 3942 
L 3552 3942 
z
" transform="scale(0.015625)"/>
      <path id="NotoSansCJKjp-Bold-5185" d="M 570 4371 
L 570 -589 
L 1338 -589 
L 1338 1229 
C 1523 1082 1766 813 1875 659 
C 2573 1075 3002 1594 3251 2144 
C 3718 1670 4205 1152 4461 794 
L 5094 1293 
C 4749 1741 4051 2400 3507 2893 
C 3558 3142 3584 3386 3597 3622 
L 5094 3622 
L 5094 314 
C 5094 205 5050 173 4934 166 
C 4806 166 4378 160 4000 179 
C 4109 -19 4224 -365 4256 -582 
C 4826 -582 5229 -570 5498 -448 
C 5766 -326 5856 -109 5856 301 
L 5856 4371 
L 3603 4371 
L 3603 5440 
L 2810 5440 
L 2810 4371 
L 570 4371 
z
M 1338 1254 
L 1338 3622 
L 2803 3622 
C 2771 2835 2554 1882 1338 1254 
z
" transform="scale(0.015625)"/>
      <path id="NotoSansCJKjp-Bold-5b58" d="M 3866 2291 
L 3866 1760 
L 2234 1760 
L 2234 1043 
L 3866 1043 
L 3866 262 
C 3866 179 3834 160 3725 154 
C 3622 147 3245 147 2925 166 
C 3014 -45 3110 -352 3136 -576 
C 3654 -576 4032 -570 4301 -454 
C 4576 -346 4640 -141 4640 243 
L 4640 1043 
L 6157 1043 
L 6157 1760 
L 4640 1760 
L 4640 1926 
C 5056 2240 5491 2662 5811 3034 
L 5331 3411 
L 5171 3373 
L 2726 3373 
L 2726 2682 
L 4538 2682 
C 4403 2541 4256 2406 4109 2291 
L 3866 2291 
z
M 2355 5440 
C 2285 5165 2195 4883 2086 4602 
L 352 4602 
L 352 3866 
L 1760 3866 
C 1370 3098 826 2394 128 1939 
C 256 1747 435 1402 512 1184 
C 717 1318 902 1472 1082 1632 
L 1082 -563 
L 1856 -563 
L 1856 2502 
C 2170 2925 2432 3386 2650 3866 
L 6061 3866 
L 6061 4602 
L 2957 4602 
C 3034 4819 3110 5030 3174 5248 
L 2355 5440 
z
" transform="scale(0.015625)"/>
     </defs>
     <use xlink:href="#NotoSansCJKjp-Bold-8ba1"/>
     <use xlink:href="#NotoSansCJKjp-Bold-7b97" transform="translate(99.999985 0)"/>
     <use xlink:href="#NotoSansCJKjp-Bold-74f6" transform="translate(199.999969 0)"/>
     <use xlink:href="#NotoSansCJKjp-Bold-9888" transform="translate(299.999954 0)"/>
     <use xlink:href="#NotoSansCJKjp-Bold-20" transform="translate(399.999939 0)"/>
     <use xlink:href="#NotoSansCJKjp-Bold-2f" transform="translate(422.699936 0)"/>
     <use xlink:href="#NotoSansCJKjp-Bold-20" transform="translate(461.399933 0)"/>
     <use xlink:href="#NotoSansCJKjp-Bold-5185" transform="translate(484.09993 0)"/>
     <use xlink:href="#NotoSansCJKjp-Bold-5b58" transform="translate(584.099915 0)"/>
     <use xlink:href="#NotoSansCJKjp-Bold-74f6" transform="translate(684.099899 0)"/>
     <use xlink:href="#NotoSansCJKjp-Bold-9888" transform="translate(784.099884 0)"/>
    </g>
   </g>
   <g id="text_11">
    <!-- reduce-overhead 模式 -->
    <g style="fill: #e2882c" transform="translate(31.889844 319.994562) scale(0.07 -0.07)">
     <defs>
      <path id="NotoSansCJKjp-Regular-72" d="M 589 0 
L 1178 0 
L 1178 2234 
C 1408 2822 1760 3040 2048 3040 
C 2195 3040 2272 3021 2387 2982 
L 2496 3488 
C 2387 3546 2278 3565 2125 3565 
C 1741 3565 1382 3283 1139 2842 
L 1126 2842 
L 1069 3475 
L 589 3475 
L 589 0 
z
" transform="scale(0.015625)"/>
      <path id="NotoSansCJKjp-Regular-65" d="M 1997 -83 
C 2464 -83 2835 70 3136 269 
L 2931 659 
C 2669 486 2400 384 2061 384 
C 1402 384 947 858 909 1600 
L 3251 1600 
C 3264 1690 3277 1805 3277 1933 
C 3277 2925 2778 3565 1888 3565 
C 1094 3565 333 2867 333 1734 
C 333 589 1069 -83 1997 -83 
z
M 902 2016 
C 973 2707 1408 3098 1901 3098 
C 2445 3098 2765 2720 2765 2016 
L 902 2016 
z
" transform="scale(0.015625)"/>
      <path id="NotoSansCJKjp-Regular-64" d="M 1773 -83 
C 2189 -83 2560 141 2829 410 
L 2848 410 
L 2899 0 
L 3379 0 
L 3379 5094 
L 2790 5094 
L 2790 3757 
L 2822 3162 
C 2515 3411 2253 3565 1843 3565 
C 1050 3565 339 2861 339 1734 
C 339 576 902 -83 1773 -83 
z
M 1901 410 
C 1293 410 941 902 941 1741 
C 941 2534 1389 3072 1946 3072 
C 2234 3072 2502 2970 2790 2707 
L 2790 883 
C 2502 563 2221 410 1901 410 
z
" transform="scale(0.015625)"/>
      <path id="NotoSansCJKjp-Regular-75" d="M 1606 -83 
C 2080 -83 2426 166 2752 544 
L 2771 544 
L 2816 0 
L 3302 0 
L 3302 3475 
L 2720 3475 
L 2720 1011 
C 2387 602 2138 422 1779 422 
C 1318 422 1126 698 1126 1344 
L 1126 3475 
L 538 3475 
L 538 1274 
C 538 384 870 -83 1606 -83 
z
" transform="scale(0.015625)"/>
      <path id="NotoSansCJKjp-Regular-63" d="M 1958 -83 
C 2374 -83 2771 83 3085 352 
L 2829 749 
C 2611 557 2330 403 2010 403 
C 1370 403 934 934 934 1734 
C 934 2534 1395 3072 2029 3072 
C 2298 3072 2522 2950 2720 2771 
L 3014 3155 
C 2771 3373 2458 3565 2003 3565 
C 1107 3565 333 2893 333 1734 
C 333 582 1037 -83 1958 -83 
z
" transform="scale(0.015625)"/>
      <path id="NotoSansCJKjp-Regular-2d" d="M 294 1568 
L 1933 1568 
L 1933 2016 
L 294 2016 
L 294 1568 
z
" transform="scale(0.015625)"/>
      <path id="NotoSansCJKjp-Regular-6f" d="M 1939 -83 
C 2790 -83 3546 582 3546 1734 
C 3546 2893 2790 3565 1939 3565 
C 1088 3565 333 2893 333 1734 
C 333 582 1088 -83 1939 -83 
z
M 1939 403 
C 1338 403 934 934 934 1734 
C 934 2534 1338 3072 1939 3072 
C 2541 3072 2950 2534 2950 1734 
C 2950 934 2541 403 1939 403 
z
" transform="scale(0.015625)"/>
      <path id="NotoSansCJKjp-Regular-76" d="M 1338 0 
L 2022 0 
L 3251 3475 
L 2675 3475 
L 2016 1498 
C 1914 1158 1798 806 1696 474 
L 1664 474 
C 1562 806 1453 1158 1344 1498 
L 691 3475 
L 83 3475 
L 1338 0 
z
" transform="scale(0.015625)"/>
      <path id="NotoSansCJKjp-Regular-68" d="M 589 0 
L 1178 0 
L 1178 2522 
C 1523 2874 1766 3053 2125 3053 
C 2586 3053 2784 2778 2784 2125 
L 2784 0 
L 3366 0 
L 3366 2202 
C 3366 3085 3034 3565 2304 3565 
C 1830 3565 1472 3302 1152 2982 
L 1178 3699 
L 1178 5094 
L 589 5094 
L 589 0 
z
" transform="scale(0.015625)"/>
      <path id="NotoSansCJKjp-Regular-61" d="M 1389 -83 
C 1818 -83 2208 141 2541 416 
L 2560 416 
L 2611 0 
L 3091 0 
L 3091 2138 
C 3091 3002 2739 3565 1888 3565 
C 1325 3565 838 3315 525 3110 
L 749 2707 
C 1024 2893 1389 3078 1792 3078 
C 2362 3078 2509 2650 2509 2202 
C 1030 2035 378 1658 378 902 
C 378 275 806 -83 1389 -83 
z
M 1555 390 
C 1210 390 941 544 941 941 
C 941 1389 1338 1677 2509 1811 
L 2509 845 
C 2170 544 1888 390 1555 390 
z
" transform="scale(0.015625)"/>
      <path id="NotoSansCJKjp-Regular-20" transform="scale(0.015625)"/>
      <path id="NotoSansCJKjp-Regular-6a21" d="M 3021 2669 
L 5248 2669 
L 5248 2208 
L 3021 2208 
L 3021 2669 
z
M 3021 3469 
L 5248 3469 
L 5248 3021 
L 3021 3021 
L 3021 3469 
z
M 4685 5376 
L 4685 4845 
L 3699 4845 
L 3699 5376 
L 3245 5376 
L 3245 4845 
L 2304 4845 
L 2304 4435 
L 3245 4435 
L 3245 3955 
L 3699 3955 
L 3699 4435 
L 4685 4435 
L 4685 3955 
L 5152 3955 
L 5152 4435 
L 6048 4435 
L 6048 4845 
L 5152 4845 
L 5152 5376 
L 4685 5376 
z
M 2573 3834 
L 2573 1850 
L 3878 1850 
C 3853 1658 3827 1485 3782 1318 
L 2176 1318 
L 2176 909 
L 3642 909 
C 3398 416 2938 77 1997 -128 
C 2086 -224 2208 -403 2253 -512 
C 3366 -243 3885 218 4141 896 
C 4461 192 5056 -288 5888 -512 
C 5952 -390 6080 -211 6182 -115 
C 5459 38 4909 390 4602 909 
L 6035 909 
L 6035 1318 
L 4262 1318 
C 4294 1485 4326 1664 4346 1850 
L 5715 1850 
L 5715 3834 
L 2573 3834 
z
M 1120 5376 
L 1120 4141 
L 320 4141 
L 320 3693 
L 1120 3693 
L 1120 3686 
C 947 2816 576 1798 205 1261 
C 288 1146 403 934 461 794 
C 704 1171 934 1754 1120 2381 
L 1120 -506 
L 1581 -506 
L 1581 2790 
C 1754 2451 1952 2042 2035 1830 
L 2342 2176 
C 2234 2374 1747 3174 1581 3424 
L 1581 3693 
L 2240 3693 
L 2240 4141 
L 1581 4141 
L 1581 5376 
L 1120 5376 
z
" transform="scale(0.015625)"/>
      <path id="NotoSansCJKjp-Regular-5f0f" d="M 4538 5062 
C 4870 4832 5267 4486 5459 4256 
L 5792 4557 
C 5600 4781 5190 5107 4864 5331 
L 4538 5062 
z
M 3616 5350 
C 3616 4954 3629 4563 3648 4179 
L 352 4179 
L 352 3712 
L 3680 3712 
C 3846 1331 4384 -525 5434 -525 
C 5926 -525 6106 -198 6189 922 
C 6054 973 5875 1082 5766 1190 
C 5722 333 5651 -26 5472 -26 
C 4838 -26 4339 1542 4179 3712 
L 6061 3712 
L 6061 4179 
L 4154 4179 
C 4134 4557 4128 4947 4128 5350 
L 3616 5350 
z
M 378 154 
L 531 -320 
C 1350 -141 2528 128 3616 384 
L 3578 819 
L 2208 525 
L 2208 2291 
L 3405 2291 
L 3405 2758 
L 576 2758 
L 576 2291 
L 1728 2291 
L 1728 429 
L 378 154 
z
" transform="scale(0.015625)"/>
     </defs>
     <use xlink:href="#NotoSansCJKjp-Regular-72"/>
     <use xlink:href="#NotoSansCJKjp-Regular-65" transform="translate(38.799988 0)"/>
     <use xlink:href="#NotoSansCJKjp-Regular-64" transform="translate(94.199982 0)"/>
     <use xlink:href="#NotoSansCJKjp-Regular-75" transform="translate(156.199966 0)"/>
     <use xlink:href="#NotoSansCJKjp-Regular-63" transform="translate(216.899963 0)"/>
     <use xlink:href="#NotoSansCJKjp-Regular-65" transform="translate(267.899948 0)"/>
     <use xlink:href="#NotoSansCJKjp-Regular-2d" transform="translate(323.299942 0)"/>
     <use xlink:href="#NotoSansCJKjp-Regular-6f" transform="translate(357.999939 0)"/>
     <use xlink:href="#NotoSansCJKjp-Regular-76" transform="translate(418.59993 0)"/>
     <use xlink:href="#NotoSansCJKjp-Regular-65" transform="translate(470.699921 0)"/>
     <use xlink:href="#NotoSansCJKjp-Regular-72" transform="translate(526.099915 0)"/>
     <use xlink:href="#NotoSansCJKjp-Regular-68" transform="translate(564.899902 0)"/>
     <use xlink:href="#NotoSansCJKjp-Regular-65" transform="translate(625.599899 0)"/>
     <use xlink:href="#NotoSansCJKjp-Regular-61" transform="translate(680.999893 0)"/>
     <use xlink:href="#NotoSansCJKjp-Regular-64" transform="translate(737.299881 0)"/>
     <use xlink:href="#NotoSansCJKjp-Regular-20" transform="translate(799.299866 0)"/>
     <use xlink:href="#NotoSansCJKjp-Regular-6a21" transform="translate(821.69986 0)"/>
     <use xlink:href="#NotoSansCJKjp-Regular-5f0f" transform="translate(921.699844 0)"/>
    </g>
   </g>
   <g id="text_12">
    <!-- CUDA Graph -->
    <g style="fill: #e2882c" transform="translate(140.539219 319.994562) scale(0.07 -0.07)">
     <defs>
      <path id="NotoSansCJKjp-Regular-43" d="M 2413 -83 
C 3021 -83 3482 160 3853 589 
L 3526 966 
C 3226 634 2886 435 2438 435 
C 1542 435 979 1178 979 2362 
C 979 3533 1574 4256 2458 4256 
C 2861 4256 3168 4077 3418 3814 
L 3738 4198 
C 3469 4499 3021 4774 2451 4774 
C 1261 4774 371 3859 371 2342 
C 371 819 1242 -83 2413 -83 
z
" transform="scale(0.015625)"/>
      <path id="NotoSansCJKjp-Regular-55" d="M 2310 -83 
C 3264 -83 3994 429 3994 1933 
L 3994 4691 
L 3424 4691 
L 3424 1920 
C 3424 794 2931 435 2310 435 
C 1696 435 1216 794 1216 1920 
L 1216 4691 
L 627 4691 
L 627 1933 
C 627 429 1350 -83 2310 -83 
z
" transform="scale(0.015625)"/>
      <path id="NotoSansCJKjp-Regular-44" d="M 646 0 
L 1843 0 
C 3258 0 4026 877 4026 2362 
C 4026 3859 3258 4691 1818 4691 
L 646 4691 
L 646 0 
z
M 1235 486 
L 1235 4211 
L 1766 4211 
C 2874 4211 3418 3552 3418 2362 
C 3418 1178 2874 486 1766 486 
L 1235 486 
z
" transform="scale(0.015625)"/>
      <path id="NotoSansCJKjp-Regular-41" d="M 26 0 
L 621 0 
L 1075 1434 
L 2790 1434 
L 3238 0 
L 3866 0 
L 2272 4691 
L 1613 4691 
L 26 0 
z
M 1222 1901 
L 1453 2624 
C 1619 3155 1773 3661 1920 4211 
L 1946 4211 
C 2099 3667 2246 3155 2419 2624 
L 2643 1901 
L 1222 1901 
z
" transform="scale(0.015625)"/>
      <path id="NotoSansCJKjp-Regular-47" d="M 2490 -83 
C 3117 -83 3635 147 3936 461 
L 3936 2432 
L 2394 2432 
L 2394 1939 
L 3392 1939 
L 3392 710 
C 3206 538 2880 435 2547 435 
C 1542 435 979 1178 979 2362 
C 979 3533 1594 4256 2541 4256 
C 3008 4256 3315 4058 3552 3814 
L 3872 4198 
C 3603 4480 3174 4774 2522 4774 
C 1280 4774 371 3859 371 2342 
C 371 819 1254 -83 2490 -83 
z
" transform="scale(0.015625)"/>
      <path id="NotoSansCJKjp-Regular-70" d="M 589 -1466 
L 1178 -1466 
L 1178 -288 
L 1158 320 
C 1472 58 1805 -83 2118 -83 
C 2912 -83 3629 602 3629 1792 
C 3629 2867 3142 3565 2246 3565 
C 1843 3565 1453 3334 1139 3072 
L 1126 3072 
L 1069 3475 
L 589 3475 
L 589 -1466 
z
M 2022 410 
C 1792 410 1485 499 1178 768 
L 1178 2598 
C 1510 2906 1811 3072 2099 3072 
C 2765 3072 3021 2560 3021 1786 
C 3021 928 2598 410 2022 410 
z
" transform="scale(0.015625)"/>
     </defs>
     <use xlink:href="#NotoSansCJKjp-Regular-43"/>
     <use xlink:href="#NotoSansCJKjp-Regular-55" transform="translate(63.799988 0)"/>
     <use xlink:href="#NotoSansCJKjp-Regular-44" transform="translate(135.899979 0)"/>
     <use xlink:href="#NotoSansCJKjp-Regular-41" transform="translate(204.699966 0)"/>
     <use xlink:href="#NotoSansCJKjp-Regular-20" transform="translate(265.499954 0)"/>
     <use xlink:href="#NotoSansCJKjp-Regular-47" transform="translate(287.899948 0)"/>
     <use xlink:href="#NotoSansCJKjp-Regular-72" transform="translate(356.799942 0)"/>
     <use xlink:href="#NotoSansCJKjp-Regular-61" transform="translate(395.59993 0)"/>
     <use xlink:href="#NotoSansCJKjp-Regular-70" transform="translate(451.899918 0)"/>
     <use xlink:href="#NotoSansCJKjp-Regular-68" transform="translate(513.899902 0)"/>
    </g>
   </g>
   <g id="text_13">
    <!-- max-autotune -->
    <g style="fill: #4caf50" transform="translate(430.3775 319.994562) scale(0.07 -0.07)">
     <defs>
      <path id="NotoSansCJKjp-Regular-6d" d="M 589 0 
L 1178 0 
L 1178 2522 
C 1491 2880 1786 3053 2048 3053 
C 2490 3053 2694 2778 2694 2125 
L 2694 0 
L 3277 0 
L 3277 2522 
C 3603 2880 3885 3053 4154 3053 
C 4595 3053 4800 2778 4800 2125 
L 4800 0 
L 5382 0 
L 5382 2202 
C 5382 3085 5043 3565 4333 3565 
C 3904 3565 3546 3290 3181 2899 
C 3040 3309 2758 3565 2221 3565 
C 1805 3565 1446 3302 1139 2970 
L 1126 2970 
L 1069 3475 
L 589 3475 
L 589 0 
z
" transform="scale(0.015625)"/>
      <path id="NotoSansCJKjp-Regular-78" d="M 96 0 
L 710 0 
L 1178 813 
C 1299 1024 1408 1235 1530 1434 
L 1562 1434 
C 1696 1235 1824 1024 1939 813 
L 2451 0 
L 3091 0 
L 1946 1754 
L 3002 3475 
L 2394 3475 
L 1965 2714 
C 1856 2515 1760 2330 1658 2131 
L 1626 2131 
C 1510 2330 1389 2515 1286 2714 
L 819 3475 
L 186 3475 
L 1242 1811 
L 96 0 
z
" transform="scale(0.015625)"/>
      <path id="NotoSansCJKjp-Regular-74" d="M 1677 -83 
C 1894 -83 2125 -19 2323 45 
L 2208 486 
C 2093 435 1939 390 1811 390 
C 1408 390 1274 634 1274 1056 
L 1274 3002 
L 2221 3002 
L 2221 3475 
L 1274 3475 
L 1274 4454 
L 787 4454 
L 723 3475 
L 173 3443 
L 173 3002 
L 691 3002 
L 691 1075 
C 691 378 941 -83 1677 -83 
z
" transform="scale(0.015625)"/>
      <path id="NotoSansCJKjp-Regular-6e" d="M 589 0 
L 1178 0 
L 1178 2522 
C 1523 2874 1766 3053 2125 3053 
C 2586 3053 2784 2778 2784 2125 
L 2784 0 
L 3366 0 
L 3366 2202 
C 3366 3085 3034 3565 2304 3565 
C 1830 3565 1466 3302 1139 2970 
L 1126 2970 
L 1069 3475 
L 589 3475 
L 589 0 
z
" transform="scale(0.015625)"/>
     </defs>
     <use xlink:href="#NotoSansCJKjp-Regular-6d"/>
     <use xlink:href="#NotoSansCJKjp-Regular-61" transform="translate(92.599991 0)"/>
     <use xlink:href="#NotoSansCJKjp-Regular-78" transform="translate(148.899979 0)"/>
     <use xlink:href="#NotoSansCJKjp-Regular-2d" transform="translate(198.699966 0)"/>
     <use xlink:href="#NotoSansCJKjp-Regular-61" transform="translate(233.399963 0)"/>
     <use xlink:href="#NotoSansCJKjp-Regular-75" transform="translate(289.699951 0)"/>
     <use xlink:href="#NotoSansCJKjp-Regular-74" transform="translate(350.399948 0)"/>
     <use xlink:href="#NotoSansCJKjp-Regular-6f" transform="translate(388.099945 0)"/>
     <use xlink:href="#NotoSansCJKjp-Regular-74" transform="translate(448.699936 0)"/>
     <use xlink:href="#NotoSansCJKjp-Regular-75" transform="translate(486.399933 0)"/>
     <use xlink:href="#NotoSansCJKjp-Regular-6e" transform="translate(547.09993 0)"/>
     <use xlink:href="#NotoSansCJKjp-Regular-65" transform="translate(608.099915 0)"/>
    </g>
   </g>
   <g id="text_14">
    <!-- 更低精度 -->
    <g style="fill: #4caf50" transform="translate(523.3 319.994562) scale(0.07 -0.07)">
     <defs>
      <path id="NotoSansCJKjp-Regular-66f4" d="M 1613 1523 
L 1203 1357 
C 1421 986 1690 691 2003 454 
C 1613 230 1062 45 301 -96 
C 403 -205 531 -410 589 -518 
C 1421 -339 2016 -102 2445 179 
C 3328 -288 4506 -435 5997 -493 
C 6022 -333 6112 -128 6202 -19 
C 4768 19 3661 115 2835 486 
C 3168 813 3341 1184 3418 1581 
L 5587 1581 
L 5587 4058 
L 3488 4058 
L 3488 4602 
L 5984 4602 
L 5984 5037 
L 416 5037 
L 416 4602 
L 2989 4602 
L 2989 4058 
L 998 4058 
L 998 1581 
L 2912 1581 
C 2835 1274 2688 986 2394 730 
C 2086 934 1824 1190 1613 1523 
z
M 1459 2630 
L 2989 2630 
L 2989 2374 
C 2989 2240 2989 2106 2976 1978 
L 1459 1978 
L 1459 2630 
z
M 3475 1978 
C 3482 2106 3488 2234 3488 2368 
L 3488 2630 
L 5107 2630 
L 5107 1978 
L 3475 1978 
z
M 1459 3654 
L 2989 3654 
L 2989 3014 
L 1459 3014 
L 1459 3654 
z
M 3488 3654 
L 5107 3654 
L 5107 3014 
L 3488 3014 
L 3488 3654 
z
" transform="scale(0.015625)"/>
      <path id="NotoSansCJKjp-Regular-4f4e" d="M 2093 83 
L 2093 -346 
L 4819 -346 
L 4819 83 
L 2093 83 
z
M 1901 902 
L 2010 448 
C 2650 563 3501 730 4307 883 
L 4282 1312 
C 3776 1216 3264 1126 2803 1043 
L 2803 2694 
L 4211 2694 
C 4429 992 4896 -262 5619 -262 
C 6029 -262 6195 -26 6259 845 
C 6144 890 5978 992 5875 1094 
C 5850 467 5792 205 5658 205 
C 5267 205 4877 1222 4685 2694 
L 6138 2694 
L 6138 3136 
L 4634 3136 
C 4595 3565 4570 4019 4563 4493 
C 5037 4582 5472 4685 5837 4794 
L 5466 5165 
C 4819 4941 3686 4742 2669 4621 
L 2336 4730 
L 2336 966 
L 1901 902 
z
M 2803 4230 
C 3219 4282 3661 4339 4090 4410 
C 4102 3974 4128 3546 4166 3136 
L 2803 3136 
L 2803 4230 
z
M 1690 5350 
C 1331 4378 736 3418 102 2797 
C 192 2688 326 2438 371 2323 
C 595 2554 813 2822 1024 3117 
L 1024 -499 
L 1485 -499 
L 1485 3840 
C 1734 4282 1965 4749 2144 5216 
L 1690 5350 
z
" transform="scale(0.015625)"/>
      <path id="NotoSansCJKjp-Regular-7cbe" d="M 326 4877 
C 493 4435 646 3853 678 3475 
L 1030 3558 
C 986 3942 838 4518 659 4960 
L 326 4877 
z
M 2099 4986 
C 2016 4557 1830 3930 1690 3552 
L 1990 3456 
C 2150 3814 2349 4410 2502 4883 
L 2099 4986 
z
M 262 3226 
L 262 2778 
L 1088 2778 
C 890 2074 531 1229 192 774 
C 269 646 397 435 442 288 
C 704 666 960 1267 1165 1882 
L 1165 -499 
L 1606 -499 
L 1606 2042 
C 1798 1702 2022 1286 2112 1069 
L 2438 1434 
C 2310 1638 1773 2438 1606 2637 
L 1606 2778 
L 2323 2778 
L 2323 3226 
L 1606 3226 
L 1606 5357 
L 1165 5357 
L 1165 3226 
L 262 3226 
z
M 4070 5376 
L 4070 4858 
L 2726 4858 
L 2726 4486 
L 4070 4486 
L 4070 4090 
L 2886 4090 
L 2886 3738 
L 4070 3738 
L 4070 3309 
L 2547 3309 
L 2547 2931 
L 6144 2931 
L 6144 3309 
L 4525 3309 
L 4525 3738 
L 5837 3738 
L 5837 4090 
L 4525 4090 
L 4525 4486 
L 5978 4486 
L 5978 4858 
L 4525 4858 
L 4525 5376 
L 4070 5376 
z
M 5267 2182 
L 5267 1702 
L 3405 1702 
L 3405 2182 
L 5267 2182 
z
M 2944 2547 
L 2944 -506 
L 3405 -506 
L 3405 538 
L 5267 538 
L 5267 -13 
C 5267 -83 5242 -109 5158 -109 
C 5082 -115 4819 -115 4525 -102 
C 4589 -218 4646 -384 4666 -506 
C 5069 -506 5331 -499 5504 -435 
C 5670 -365 5715 -250 5715 -13 
L 5715 2547 
L 2944 2547 
z
M 3405 1357 
L 5267 1357 
L 5267 877 
L 3405 877 
L 3405 1357 
z
" transform="scale(0.015625)"/>
      <path id="NotoSansCJKjp-Regular-5ea6" d="M 2470 4141 
L 2470 3584 
L 1440 3584 
L 1440 3187 
L 2470 3187 
L 2470 2125 
L 4960 2125 
L 4960 3187 
L 5997 3187 
L 5997 3584 
L 4960 3584 
L 4960 4141 
L 4486 4141 
L 4486 3584 
L 2931 3584 
L 2931 4141 
L 2470 4141 
z
M 4486 3187 
L 4486 2509 
L 2931 2509 
L 2931 3187 
L 4486 3187 
z
M 4851 1318 
C 4582 986 4211 717 3770 506 
C 3334 723 2970 992 2720 1318 
L 4851 1318 
z
M 1530 1715 
L 1530 1318 
L 2502 1318 
L 2259 1222 
C 2515 858 2861 550 3270 301 
C 2662 90 1978 -38 1280 -109 
C 1357 -211 1453 -397 1485 -512 
C 2291 -416 3072 -243 3757 45 
C 4365 -237 5088 -422 5869 -525 
C 5933 -403 6048 -211 6150 -109 
C 5466 -38 4819 96 4269 294 
C 4813 608 5261 1024 5549 1574 
L 5248 1734 
L 5165 1715 
L 1530 1715 
z
M 774 4742 
L 774 2893 
C 774 1965 730 659 198 -256 
C 314 -307 512 -435 595 -518 
C 1152 448 1235 1901 1235 2893 
L 1235 4307 
L 6035 4307 
L 6035 4742 
L 3635 4742 
L 3635 5376 
L 3142 5376 
L 3142 4742 
L 774 4742 
z
" transform="scale(0.015625)"/>
     </defs>
     <use xlink:href="#NotoSansCJKjp-Regular-66f4"/>
     <use xlink:href="#NotoSansCJKjp-Regular-4f4e" transform="translate(99.999985 0)"/>
     <use xlink:href="#NotoSansCJKjp-Regular-7cbe" transform="translate(199.999969 0)"/>
     <use xlink:href="#NotoSansCJKjp-Regular-5ea6" transform="translate(299.999954 0)"/>
    </g>
   </g>
   <g id="text_15">
    <!-- 验证性能提升 -->
    <g style="fill: #9c27b0" transform="translate(262.2 351.873875) scale(0.08 -0.08)">
     <defs>
      <path id="NotoSansCJKjp-Bold-9a8c" d="M 128 1075 
L 256 474 
C 730 582 1293 723 1843 851 
L 1786 1414 
C 1171 1280 557 1152 128 1075 
z
M 2950 2234 
C 3091 1754 3245 1126 3290 717 
L 3910 890 
C 3846 1293 3693 1914 3533 2387 
L 2950 2234 
z
M 4058 2413 
C 4160 1933 4275 1306 4301 890 
L 4915 992 
C 4877 1402 4762 2010 4646 2496 
L 4058 2413 
z
M 544 4134 
C 518 3411 454 2451 371 1869 
L 2035 1869 
C 1971 742 1901 275 1786 154 
C 1722 90 1664 77 1562 77 
C 1440 77 1171 83 890 109 
C 992 -64 1069 -320 1082 -506 
C 1389 -518 1690 -518 1862 -499 
C 2067 -474 2214 -422 2349 -256 
C 2541 -32 2624 595 2701 2195 
C 2707 2278 2714 2470 2714 2470 
L 2221 2470 
C 2298 3200 2374 4320 2419 5203 
L 294 5203 
L 294 4557 
L 1747 4557 
C 1709 3827 1651 3034 1581 2464 
L 1082 2464 
C 1126 2976 1171 3584 1197 4096 
L 544 4134 
z
M 4288 4390 
C 4557 4083 4864 3763 5190 3482 
L 3488 3482 
C 3776 3757 4045 4064 4288 4390 
z
M 4173 5510 
C 3776 4691 3059 3949 2310 3501 
C 2438 3354 2662 3027 2746 2874 
C 2963 3021 3174 3194 3386 3386 
L 3386 2835 
L 5370 2835 
L 5370 3328 
C 5562 3168 5760 3021 5952 2893 
C 6022 3104 6170 3462 6298 3654 
C 5728 3955 5094 4486 4672 4979 
L 4838 5280 
L 4173 5510 
z
M 2790 358 
L 2790 -294 
L 6125 -294 
L 6125 358 
L 5357 358 
C 5619 915 5907 1664 6138 2310 
L 5446 2458 
C 5293 1818 4992 947 4723 358 
L 2790 358 
z
" transform="scale(0.015625)"/>
      <path id="NotoSansCJKjp-Bold-8bc1" d="M 518 4870 
C 870 4557 1325 4122 1536 3840 
L 2061 4365 
C 1837 4640 1363 5050 1018 5338 
L 518 4870 
z
M 2278 384 
L 2278 -333 
L 6208 -333 
L 6208 384 
L 4909 384 
L 4909 2163 
L 5965 2163 
L 5965 2880 
L 4909 2880 
L 4909 4320 
L 6080 4320 
L 6080 5037 
L 2445 5037 
L 2445 4320 
L 4122 4320 
L 4122 384 
L 3507 384 
L 3507 3296 
L 2746 3296 
L 2746 384 
L 2278 384 
z
M 256 3462 
L 256 2726 
L 1011 2726 
L 1011 883 
C 1011 486 768 179 608 32 
C 736 -64 986 -314 1075 -461 
C 1184 -301 1402 -115 2573 896 
C 2477 1043 2336 1357 2266 1574 
L 1754 1133 
L 1754 3462 
L 256 3462 
z
" transform="scale(0.015625)"/>
      <path id="NotoSansCJKjp-Bold-63d0" d="M 3309 3885 
L 5043 3885 
L 5043 3565 
L 3309 3565 
L 3309 3885 
z
M 3309 4691 
L 5043 4691 
L 5043 4378 
L 3309 4378 
L 3309 4691 
z
M 2611 5242 
L 2611 3021 
L 5779 3021 
L 5779 5242 
L 2611 5242 
z
M 2675 1907 
C 2586 1037 2317 320 1779 -102 
C 1939 -205 2227 -442 2342 -563 
C 2630 -301 2854 45 3027 454 
C 3456 -333 4102 -486 4954 -486 
L 6067 -486 
C 6093 -294 6189 32 6278 186 
C 5997 173 5197 173 4979 173 
C 4826 173 4678 179 4538 192 
L 4538 941 
L 5760 941 
L 5760 1542 
L 4538 1542 
L 4538 2099 
L 6106 2099 
L 6106 2720 
L 2298 2720 
L 2298 2099 
L 3814 2099 
L 3814 422 
C 3584 570 3392 800 3251 1171 
C 3302 1376 3341 1594 3373 1824 
L 2675 1907 
z
M 902 5434 
L 902 4224 
L 211 4224 
L 211 3520 
L 902 3520 
L 902 2374 
L 147 2189 
L 314 1453 
L 902 1619 
L 902 326 
C 902 243 877 218 800 218 
C 723 211 499 211 262 218 
C 358 19 442 -301 461 -486 
C 870 -486 1158 -461 1350 -339 
C 1549 -224 1606 -32 1606 320 
L 1606 1824 
L 2285 2022 
L 2182 2714 
L 1606 2560 
L 1606 3520 
L 2246 3520 
L 2246 4224 
L 1606 4224 
L 1606 5434 
L 902 5434 
z
" transform="scale(0.015625)"/>
      <path id="NotoSansCJKjp-Bold-5347" d="M 3053 5408 
C 2374 5011 1306 4640 307 4410 
C 410 4237 531 3962 570 3776 
C 922 3853 1293 3949 1658 4051 
L 1658 2906 
L 269 2906 
L 269 2170 
L 1632 2170 
C 1562 1370 1261 576 205 13 
C 384 -122 646 -403 762 -582 
C 2016 115 2342 1139 2406 2170 
L 4051 2170 
L 4051 -570 
L 4838 -570 
L 4838 2170 
L 6144 2170 
L 6144 2906 
L 4838 2906 
L 4838 5338 
L 4051 5338 
L 4051 2906 
L 2426 2906 
L 2426 4288 
C 2848 4429 3245 4582 3597 4762 
L 3053 5408 
z
" transform="scale(0.015625)"/>
     </defs>
     <use xlink:href="#NotoSansCJKjp-Bold-9a8c"/>
     <use xlink:href="#NotoSansCJKjp-Bold-8bc1" transform="translate(99.999985 0)"/>
     <use xlink:href="#NotoSansCJKjp-Bold-6027" transform="translate(199.999969 0)"/>
     <use xlink:href="#NotoSansCJKjp-Bold-80fd" transform="translate(299.999954 0)"/>
     <use xlink:href="#NotoSansCJKjp-Bold-63d0" transform="translate(399.999939 0)"/>
     <use xlink:href="#NotoSansCJKjp-Bold-5347" transform="translate(499.999924 0)"/>
    </g>
   </g>
  </g>
 </g>
 <defs>
  <clipPath id="pfea0341e65">
   <rect x="7.2" y="7.2" width="558" height="360.36"/>
  </clipPath>
 </defs>
</svg>
