<?xml version="1.0" encoding="utf-8" standalone="no"?>
<!DOCTYPE svg PUBLIC "-//W3C//DTD SVG 1.1//EN"
  "http://www.w3.org/Graphics/SVG/1.1/DTD/svg11.dtd">
<svg xmlns:xlink="http://www.w3.org/1999/xlink" width="659.55375pt" height="291.6pt" viewBox="0 0 659.55375 291.6" xmlns="http://www.w3.org/2000/svg" version="1.1">
 <metadata>
  <rdf:RDF xmlns:dc="http://purl.org/dc/elements/1.1/" xmlns:cc="http://creativecommons.org/ns#" xmlns:rdf="http://www.w3.org/1999/02/22-rdf-syntax-ns#">
   <cc:Work>
    <dc:type rdf:resource="http://purl.org/dc/dcmitype/StillImage"/>
    <dc:date>2026-07-11T13:59:37.501909</dc:date>
    <dc:format>image/svg+xml</dc:format>
    <dc:creator>
     <cc:Agent>
      <dc:title>Matplotlib v3.10.9, https://matplotlib.org/</dc:title>
     </cc:Agent>
    </dc:creator>
   </cc:Work>
  </rdf:RDF>
 </metadata>
 <defs>
  <style type="text/css">*{stroke-linejoin: round; stroke-linecap: butt}</style>
 </defs>
 <g id="figure_1">
  <g id="patch_1">
   <path d="M 0 291.6 
L 659.55375 291.6 
L 659.55375 0 
L 0 0 
z
" style="fill: #ffffff"/>
  </g>
  <g id="axes_1">
   <g id="patch_2">
    <path d="M 53.7 80.196 
L 193.2 80.196 
Q 196.92 80.196 196.92 76.5 
L 196.92 21.06 
Q 196.92 17.364 193.2 17.364 
L 53.7 17.364 
Q 49.98 17.364 49.98 21.06 
L 49.98 76.5 
Q 49.98 80.196 53.7 80.196 
z
" clip-path="url(#p033a85be92)" style="fill: #4caf50; opacity: 0.1; stroke: #4caf50; stroke-width: 2; stroke-linejoin: miter"/>
   </g>
   <g id="patch_3">
    <path d="M 216.45 80.196 
L 355.95 80.196 
Q 359.67 80.196 359.67 76.5 
L 359.67 21.06 
Q 359.67 17.364 355.95 17.364 
L 216.45 17.364 
Q 212.73 17.364 212.73 21.06 
L 212.73 76.5 
Q 212.73 80.196 216.45 80.196 
z
" clip-path="url(#p033a85be92)" style="fill: #4caf50; opacity: 0.1; stroke: #4caf50; stroke-width: 2; stroke-linejoin: miter"/>
   </g>
   <g id="patch_4">
    <path d="M 379.2 80.196 
L 518.7 80.196 
Q 522.42 80.196 522.42 76.5 
L 522.42 21.06 
Q 522.42 17.364 518.7 17.364 
L 379.2 17.364 
Q 375.48 17.364 375.48 21.06 
L 375.48 76.5 
Q 375.48 80.196 379.2 80.196 
z
" clip-path="url(#p033a85be92)" style="fill: #2c5f8a; opacity: 0.1; stroke: #2c5f8a; stroke-width: 2; stroke-linejoin: miter"/>
   </g>
   <g id="patch_5">
    <path d="M 169.95 195.696 
L 379.2 195.696 
Q 382.92 195.696 382.92 192 
L 382.92 136.56 
Q 382.92 132.864 379.2 132.864 
L 169.95 132.864 
Q 166.23 132.864 166.23 136.56 
L 166.23 192 
Q 166.23 195.696 169.95 195.696 
z
" clip-path="url(#p033a85be92)" style="fill: #e2882c; opacity: 0.1; stroke: #e2882c; stroke-width: 2; stroke-linejoin: miter"/>
   </g>
   <g id="patch_6">
    <path d="M 402.45 195.696 
L 541.95 195.696 
Q 545.67 195.696 545.67 192 
L 545.67 136.56 
Q 545.67 132.864 541.95 132.864 
L 402.45 132.864 
Q 398.73 132.864 398.73 136.56 
L 398.73 192 
Q 398.73 195.696 402.45 195.696 
z
" clip-path="url(#p033a85be92)" style="fill: #2c5f8a; opacity: 0.1; stroke: #2c5f8a; stroke-width: 2; stroke-linejoin: miter"/>
   </g>
   <g id="patch_7">
    <path d="M 495.45 228.96 
L 514.05 247.44 
L 495.45 265.92 
L 476.85 247.44 
z
" clip-path="url(#p033a85be92)" style="fill: #757575; opacity: 0.1; stroke: #757575; stroke-width: 1.5; stroke-linejoin: miter"/>
   </g>
   <g id="text_1">
    <!-- Scheduler 融合与调度流程 -->
    <g style="fill: #2c5f8a" transform="translate(177.465781 25.140781) scale(0.14 -0.14)">
     <defs>
      <path id="NotoSansCJKjp-Bold-53" d="M 1997 -90 
C 3091 -90 3738 570 3738 1344 
C 3738 2029 3360 2400 2784 2637 
L 2163 2886 
C 1760 3053 1427 3174 1427 3514 
C 1427 3827 1683 4013 2099 4013 
C 2496 4013 2810 3866 3110 3622 
L 3590 4211 
C 3206 4602 2656 4826 2099 4826 
C 1146 4826 461 4224 461 3456 
C 461 2765 947 2381 1427 2189 
L 2054 1914 
C 2477 1734 2771 1626 2771 1274 
C 2771 941 2509 730 2016 730 
C 1600 730 1146 941 813 1254 
L 269 602 
C 730 154 1363 -90 1997 -90 
z
" transform="scale(0.015625)"/>
      <path id="NotoSansCJKjp-Bold-63" d="M 2029 -90 
C 2426 -90 2861 45 3200 346 
L 2829 966 
C 2630 800 2394 678 2131 678 
C 1613 678 1242 1114 1242 1792 
C 1242 2464 1613 2906 2163 2906 
C 2362 2906 2528 2822 2707 2675 
L 3155 3270 
C 2893 3507 2554 3674 2112 3674 
C 1139 3674 282 2982 282 1792 
C 282 602 1043 -90 2029 -90 
z
" transform="scale(0.015625)"/>
      <path id="NotoSansCJKjp-Bold-68" d="M 506 0 
L 1446 0 
L 1446 2464 
C 1709 2726 1901 2867 2189 2867 
C 2541 2867 2694 2675 2694 2118 
L 2694 0 
L 3635 0 
L 3635 2234 
C 3635 3136 3302 3674 2528 3674 
C 2042 3674 1683 3418 1402 3149 
L 1446 3821 
L 1446 5107 
L 506 5107 
L 506 0 
z
" transform="scale(0.015625)"/>
      <path id="NotoSansCJKjp-Bold-65" d="M 2067 -90 
C 2509 -90 2963 64 3315 307 
L 2995 883 
C 2733 723 2483 640 2195 640 
C 1658 640 1274 941 1197 1523 
L 3405 1523 
C 3430 1613 3450 1786 3450 1958 
C 3450 2957 2938 3674 1952 3674 
C 1101 3674 282 2950 282 1792 
C 282 608 1062 -90 2067 -90 
z
M 1178 2157 
C 1254 2675 1587 2944 1965 2944 
C 2432 2944 2643 2637 2643 2157 
L 1178 2157 
z
" transform="scale(0.015625)"/>
      <path id="NotoSansCJKjp-Bold-64" d="M 1766 -90 
C 2138 -90 2496 109 2758 371 
L 2784 371 
L 2854 0 
L 3622 0 
L 3622 5107 
L 2682 5107 
L 2682 3846 
L 2714 3283 
C 2458 3520 2208 3674 1805 3674 
C 1037 3674 301 2957 301 1792 
C 301 614 870 -90 1766 -90 
z
M 2010 685 
C 1536 685 1267 1056 1267 1805 
C 1267 2515 1606 2899 2010 2899 
C 2240 2899 2464 2829 2682 2630 
L 2682 1056 
C 2477 787 2259 685 2010 685 
z
" transform="scale(0.015625)"/>
      <path id="NotoSansCJKjp-Bold-75" d="M 1574 -90 
C 2067 -90 2406 154 2714 518 
L 2739 518 
L 2810 0 
L 3578 0 
L 3578 3584 
L 2637 3584 
L 2637 1165 
C 2394 845 2202 717 1914 717 
C 1562 717 1402 909 1402 1466 
L 1402 3584 
L 467 3584 
L 467 1350 
C 467 448 800 -90 1574 -90 
z
" transform="scale(0.015625)"/>
      <path id="NotoSansCJKjp-Bold-6c" d="M 1395 -90 
C 1613 -90 1766 -51 1875 -6 
L 1760 691 
C 1696 678 1670 678 1632 678 
C 1542 678 1446 749 1446 966 
L 1446 5107 
L 506 5107 
L 506 1005 
C 506 339 736 -90 1395 -90 
z
" transform="scale(0.015625)"/>
      <path id="NotoSansCJKjp-Bold-72" d="M 506 0 
L 1446 0 
L 1446 2138 
C 1651 2656 1984 2842 2259 2842 
C 2413 2842 2515 2822 2643 2784 
L 2797 3597 
C 2694 3642 2579 3674 2381 3674 
C 2010 3674 1626 3418 1363 2950 
L 1344 2950 
L 1274 3584 
L 506 3584 
L 506 0 
z
" transform="scale(0.015625)"/>
      <path id="NotoSansCJKjp-Bold-20" transform="scale(0.015625)"/>
      <path id="NotoSansCJKjp-Bold-878d" d="M 1299 3821 
L 2413 3821 
L 2413 3424 
L 1299 3424 
L 1299 3821 
z
M 646 4326 
L 646 2931 
L 3110 2931 
L 3110 4326 
L 646 4326 
z
M 346 5190 
L 346 4557 
L 3392 4557 
L 3392 5190 
L 346 5190 
z
M 3526 4224 
L 3526 1581 
L 4416 1581 
L 4416 365 
C 4032 307 3680 256 3398 224 
L 3565 -499 
C 4147 -397 4883 -262 5587 -122 
C 5619 -288 5638 -442 5645 -570 
L 6266 -410 
C 6227 51 6029 787 5805 1350 
L 5229 1216 
C 5312 998 5382 762 5446 525 
L 5082 467 
L 5082 1581 
L 6029 1581 
L 6029 4224 
L 5075 4224 
L 5075 5344 
L 4410 5344 
L 4410 4224 
L 3526 4224 
z
M 384 2688 
L 384 -557 
L 966 -557 
L 966 1312 
C 1050 1248 1146 1171 1197 1107 
L 1126 1107 
L 1126 608 
L 1568 608 
L 1568 -403 
L 2112 -403 
L 2112 608 
L 2566 608 
L 2566 1107 
L 1274 1107 
C 1658 1395 1715 1798 1722 2144 
L 1971 2144 
L 1971 1811 
C 1971 1414 2048 1299 2419 1299 
C 2483 1299 2643 1299 2720 1299 
L 2739 1299 
L 2739 77 
C 2739 13 2720 -6 2662 -6 
C 2605 -6 2426 -6 2246 0 
C 2323 -160 2394 -403 2406 -563 
C 2726 -563 2957 -557 3123 -461 
C 3296 -365 3341 -205 3341 64 
L 3341 2688 
L 384 2688 
z
M 4128 3571 
L 4474 3571 
L 4474 2234 
L 4128 2234 
L 4128 3571 
z
M 5030 3571 
L 5395 3571 
L 5395 2234 
L 5030 2234 
L 5030 3571 
z
M 2739 2144 
L 2739 1754 
C 2726 1715 2707 1709 2643 1709 
C 2611 1709 2502 1709 2483 1709 
C 2413 1709 2406 1715 2406 1818 
L 2406 2144 
L 2739 2144 
z
M 966 1446 
L 966 2144 
L 1299 2144 
C 1293 1926 1242 1645 966 1446 
z
" transform="scale(0.015625)"/>
      <path id="NotoSansCJKjp-Bold-5408" d="M 1606 3142 
L 1606 2694 
L 4813 2694 
L 4813 3142 
C 5133 2906 5472 2701 5798 2528 
C 5933 2765 6112 3021 6298 3219 
C 5274 3629 4237 4448 3546 5427 
L 2746 5427 
C 2272 4640 1235 3674 128 3136 
C 294 2976 512 2694 614 2515 
C 954 2701 1293 2912 1606 3142 
z
M 3181 4678 
C 3494 4250 3968 3789 4499 3373 
L 1907 3373 
C 2432 3789 2880 4250 3181 4678 
z
M 1184 2054 
L 1184 -582 
L 1939 -582 
L 1939 -346 
L 4474 -346 
L 4474 -582 
L 5267 -582 
L 5267 2054 
L 1184 2054 
z
M 1939 333 
L 1939 1382 
L 4474 1382 
L 4474 333 
L 1939 333 
z
" transform="scale(0.015625)"/>
      <path id="NotoSansCJKjp-Bold-4e0e" d="M 1760 5446 
C 1613 4422 1344 3091 1126 2278 
L 1939 2208 
L 2003 2483 
L 4230 2483 
L 4160 1805 
L 307 1805 
L 307 1069 
L 4058 1069 
C 3974 608 3878 352 3763 256 
C 3674 179 3590 166 3443 166 
C 3258 166 2829 173 2387 211 
C 2534 -6 2643 -333 2662 -557 
C 3085 -576 3507 -582 3750 -557 
C 4045 -525 4237 -461 4435 -243 
C 4614 -51 4742 333 4851 1069 
L 6112 1069 
L 6112 1805 
L 4947 1805 
L 5043 2854 
C 5056 2963 5062 3194 5062 3194 
L 2150 3194 
L 2291 3891 
L 5408 3891 
L 5408 4627 
L 2432 4627 
L 2560 5370 
L 1760 5446 
z
" transform="scale(0.015625)"/>
      <path id="NotoSansCJKjp-Bold-8c03" d="M 512 4877 
C 864 4570 1318 4128 1517 3840 
L 2042 4371 
C 1824 4653 1357 5062 1005 5344 
L 512 4877 
z
M 224 3462 
L 224 2726 
L 979 2726 
L 979 883 
C 979 486 742 179 582 32 
C 710 -64 960 -314 1043 -461 
C 1146 -326 1318 -166 2125 538 
C 2048 288 1939 58 1798 -154 
C 1946 -230 2234 -448 2342 -570 
C 2957 294 3046 1709 3046 2714 
L 3046 4538 
L 5293 4538 
L 5293 243 
C 5293 154 5261 122 5178 115 
C 5088 115 4806 109 4531 128 
C 4634 -51 4736 -378 4755 -563 
C 5197 -570 5491 -550 5696 -435 
C 5914 -314 5971 -109 5971 230 
L 5971 5203 
L 2381 5203 
L 2381 2714 
C 2381 2176 2368 1542 2240 954 
C 2176 1094 2112 1254 2067 1382 
L 1728 1094 
L 1728 3462 
L 224 3462 
z
M 3859 4416 
L 3859 3994 
L 3341 3994 
L 3341 3450 
L 3859 3450 
L 3859 3014 
L 3226 3014 
L 3226 2470 
L 5139 2470 
L 5139 3014 
L 4454 3014 
L 4454 3450 
L 5011 3450 
L 5011 3994 
L 4454 3994 
L 4454 4416 
L 3859 4416 
z
M 3270 2086 
L 3270 205 
L 3827 205 
L 3827 486 
L 5005 486 
L 5005 2086 
L 3270 2086 
z
M 3827 1549 
L 4448 1549 
L 4448 1024 
L 3827 1024 
L 3827 1549 
z
" transform="scale(0.015625)"/>
      <path id="NotoSansCJKjp-Bold-5ea6" d="M 2470 4058 
L 2470 3635 
L 1606 3635 
L 1606 3034 
L 2470 3034 
L 2470 2029 
L 5120 2029 
L 5120 3034 
L 6048 3034 
L 6048 3635 
L 5120 3635 
L 5120 4058 
L 4371 4058 
L 4371 3635 
L 3194 3635 
L 3194 4058 
L 2470 4058 
z
M 4371 3034 
L 4371 2605 
L 3194 2605 
L 3194 3034 
L 4371 3034 
z
M 4602 1171 
C 4390 960 4128 787 3834 640 
C 3533 787 3277 966 3078 1171 
L 4602 1171 
z
M 1651 1773 
L 1651 1171 
L 2611 1171 
L 2310 1062 
C 2515 787 2765 550 3046 346 
C 2541 198 1971 109 1376 58 
C 1491 -102 1638 -397 1696 -589 
C 2458 -493 3174 -339 3802 -90 
C 4365 -339 5024 -506 5760 -595 
C 5856 -397 6054 -96 6214 64 
C 5638 115 5101 205 4634 339 
C 5094 646 5472 1043 5734 1555 
L 5254 1798 
L 5120 1773 
L 1651 1773 
z
M 710 4858 
L 710 3059 
C 710 2118 666 781 134 -134 
C 307 -211 634 -429 762 -557 
C 1350 442 1446 2016 1446 3059 
L 1446 4173 
L 6086 4173 
L 6086 4858 
L 3802 4858 
L 3802 5440 
L 3002 5440 
L 3002 4858 
L 710 4858 
z
" transform="scale(0.015625)"/>
      <path id="NotoSansCJKjp-Bold-6d41" d="M 3661 2278 
L 3661 -294 
L 4333 -294 
L 4333 2278 
L 3661 2278 
z
M 2598 2342 
L 2598 1734 
C 2598 1184 2515 480 1773 -51 
C 1946 -160 2208 -397 2317 -550 
C 3181 96 3283 998 3283 1709 
L 3283 2342 
L 2598 2342 
z
M 550 4845 
C 954 4666 1453 4371 1690 4141 
L 2131 4768 
C 1875 4986 1363 5254 966 5408 
L 550 4845 
z
M 179 3098 
C 582 2931 1101 2643 1338 2426 
L 1779 3066 
C 1517 3277 986 3539 589 3680 
L 179 3098 
z
M 365 -6 
L 1037 -486 
C 1395 141 1773 883 2093 1568 
L 1510 2048 
C 1152 1293 685 486 365 -6 
z
M 4717 2342 
L 4717 365 
C 4717 -77 4762 -211 4877 -320 
C 4979 -429 5152 -480 5306 -480 
C 5395 -480 5536 -480 5638 -480 
C 5760 -480 5907 -448 5990 -397 
C 6099 -333 6163 -243 6208 -102 
C 6246 32 6272 365 6285 646 
C 6112 710 5894 826 5766 934 
C 5760 646 5754 422 5747 320 
C 5734 218 5722 166 5696 154 
C 5677 134 5645 128 5613 128 
C 5581 128 5542 128 5510 128 
C 5485 128 5459 141 5446 160 
C 5427 186 5427 237 5427 346 
L 5427 2342 
L 4717 2342 
z
M 2138 3219 
L 2214 2502 
C 3066 2534 4243 2592 5363 2662 
C 5466 2515 5549 2374 5606 2253 
L 6253 2598 
C 6048 3002 5568 3558 5146 3949 
L 4557 3642 
C 4659 3533 4768 3418 4877 3296 
L 3654 3258 
C 3789 3482 3930 3738 4064 3981 
L 6150 3981 
L 6150 4666 
L 4442 4666 
L 4442 5440 
L 3661 5440 
L 3661 4666 
L 2099 4666 
L 2099 3981 
L 3194 3981 
C 3104 3731 2982 3462 2867 3232 
L 2138 3219 
z
" transform="scale(0.015625)"/>
      <path id="NotoSansCJKjp-Bold-7a0b" d="M 3648 4550 
L 5146 4550 
L 5146 3667 
L 3648 3667 
L 3648 4550 
z
M 2938 5197 
L 2938 3021 
L 5888 3021 
L 5888 5197 
L 2938 5197 
z
M 2886 1446 
L 2886 800 
L 4006 800 
L 4006 237 
L 2483 237 
L 2483 -435 
L 6202 -435 
L 6202 237 
L 4774 237 
L 4774 800 
L 5907 800 
L 5907 1446 
L 4774 1446 
L 4774 1978 
L 6061 1978 
L 6061 2637 
L 2733 2637 
L 2733 1978 
L 4006 1978 
L 4006 1446 
L 2886 1446 
z
M 2176 5370 
C 1683 5152 896 4960 186 4845 
C 269 4685 365 4429 403 4256 
C 653 4288 915 4333 1184 4378 
L 1184 3635 
L 262 3635 
L 262 2925 
L 1082 2925 
C 851 2304 486 1613 128 1197 
C 250 1005 416 685 486 467 
C 736 787 979 1242 1184 1734 
L 1184 -570 
L 1926 -570 
L 1926 1939 
C 2080 1702 2234 1453 2310 1286 
L 2752 1894 
C 2630 2035 2099 2592 1926 2733 
L 1926 2925 
L 2611 2925 
L 2611 3635 
L 1926 3635 
L 1926 4544 
C 2202 4608 2464 4691 2694 4781 
L 2176 5370 
z
" transform="scale(0.015625)"/>
     </defs>
     <use xlink:href="#NotoSansCJKjp-Bold-53"/>
     <use xlink:href="#NotoSansCJKjp-Bold-63" transform="translate(62.399994 0)"/>
     <use xlink:href="#NotoSansCJKjp-Bold-68" transform="translate(115.099991 0)"/>
     <use xlink:href="#NotoSansCJKjp-Bold-65" transform="translate(179.099976 0)"/>
     <use xlink:href="#NotoSansCJKjp-Bold-64" transform="translate(237.199966 0)"/>
     <use xlink:href="#NotoSansCJKjp-Bold-75" transform="translate(301.59996 0)"/>
     <use xlink:href="#NotoSansCJKjp-Bold-6c" transform="translate(365.299957 0)"/>
     <use xlink:href="#NotoSansCJKjp-Bold-65" transform="translate(396.799942 0)"/>
     <use xlink:href="#NotoSansCJKjp-Bold-72" transform="translate(454.899933 0)"/>
     <use xlink:href="#NotoSansCJKjp-Bold-20" transform="translate(498.499924 0)"/>
     <use xlink:href="#NotoSansCJKjp-Bold-878d" transform="translate(521.199921 0)"/>
     <use xlink:href="#NotoSansCJKjp-Bold-5408" transform="translate(621.199905 0)"/>
     <use xlink:href="#NotoSansCJKjp-Bold-4e0e" transform="translate(721.19989 0)"/>
     <use xlink:href="#NotoSansCJKjp-Bold-8c03" transform="translate(821.199875 0)"/>
     <use xlink:href="#NotoSansCJKjp-Bold-5ea6" transform="translate(921.19986 0)"/>
     <use xlink:href="#NotoSansCJKjp-Bold-6d41" transform="translate(1021.199844 0)"/>
     <use xlink:href="#NotoSansCJKjp-Bold-7a0b" transform="translate(1121.199829 0)"/>
    </g>
   </g>
   <g id="text_2">
    <!-- Lowering 输出 -->
    <g style="fill: #4caf50" transform="translate(92.612344 46.244812) scale(0.09 -0.09)">
     <defs>
      <path id="NotoSansCJKjp-Bold-4c" d="M 582 0 
L 3456 0 
L 3456 794 
L 1530 794 
L 1530 4742 
L 582 4742 
L 582 0 
z
" transform="scale(0.015625)"/>
      <path id="NotoSansCJKjp-Bold-6f" d="M 2003 -90 
C 2899 -90 3725 602 3725 1792 
C 3725 2982 2899 3674 2003 3674 
C 1101 3674 282 2982 282 1792 
C 282 602 1101 -90 2003 -90 
z
M 2003 678 
C 1510 678 1242 1114 1242 1792 
C 1242 2464 1510 2906 2003 2906 
C 2490 2906 2765 2464 2765 1792 
C 2765 1114 2490 678 2003 678 
z
" transform="scale(0.015625)"/>
      <path id="NotoSansCJKjp-Bold-77" d="M 1101 0 
L 2176 0 
L 2541 1562 
C 2611 1894 2669 2227 2733 2611 
L 2765 2611 
C 2835 2227 2899 1901 2976 1562 
L 3354 0 
L 4461 0 
L 5344 3584 
L 4467 3584 
L 4083 1818 
C 4019 1466 3968 1120 3904 768 
L 3878 768 
C 3795 1120 3731 1466 3648 1818 
L 3200 3584 
L 2368 3584 
L 1933 1818 
C 1843 1472 1779 1120 1709 768 
L 1677 768 
C 1619 1120 1568 1466 1510 1818 
L 1114 3584 
L 179 3584 
L 1101 0 
z
" transform="scale(0.015625)"/>
      <path id="NotoSansCJKjp-Bold-69" d="M 506 0 
L 1446 0 
L 1446 3584 
L 506 3584 
L 506 0 
z
M 979 4166 
C 1299 4166 1523 4365 1523 4678 
C 1523 4986 1299 5190 979 5190 
C 646 5190 435 4986 435 4678 
C 435 4365 646 4166 979 4166 
z
" transform="scale(0.015625)"/>
      <path id="NotoSansCJKjp-Bold-6e" d="M 506 0 
L 1446 0 
L 1446 2464 
C 1709 2726 1901 2867 2189 2867 
C 2541 2867 2694 2675 2694 2118 
L 2694 0 
L 3635 0 
L 3635 2234 
C 3635 3136 3302 3674 2528 3674 
C 2042 3674 1677 3418 1363 3110 
L 1344 3110 
L 1274 3584 
L 506 3584 
L 506 0 
z
" transform="scale(0.015625)"/>
      <path id="NotoSansCJKjp-Bold-67" d="M 1766 -1555 
C 2963 -1555 3718 -1005 3718 -282 
C 3718 346 3245 614 2381 614 
L 1766 614 
C 1350 614 1203 717 1203 902 
C 1203 1056 1267 1133 1357 1216 
C 1517 1158 1683 1133 1818 1133 
C 2592 1133 3206 1536 3206 2349 
C 3206 2573 3136 2771 3046 2893 
L 3654 2893 
L 3654 3584 
L 2368 3584 
C 2214 3635 2029 3674 1818 3674 
C 1062 3674 378 3219 378 2381 
C 378 1958 608 1619 858 1440 
L 858 1414 
C 640 1261 461 1011 461 749 
C 461 448 595 262 787 141 
L 787 109 
C 448 -77 275 -333 275 -634 
C 275 -1267 922 -1555 1766 -1555 
z
M 1818 1715 
C 1510 1715 1261 1952 1261 2381 
C 1261 2797 1504 3027 1818 3027 
C 2138 3027 2387 2797 2387 2381 
C 2387 1952 2138 1715 1818 1715 
z
M 1907 -954 
C 1389 -954 1056 -787 1056 -493 
C 1056 -339 1126 -198 1286 -70 
C 1421 -102 1568 -115 1779 -115 
L 2221 -115 
C 2605 -115 2816 -186 2816 -442 
C 2816 -717 2451 -954 1907 -954 
z
" transform="scale(0.015625)"/>
      <path id="NotoSansCJKjp-Bold-8f93" d="M 4627 2842 
L 4627 493 
L 5190 493 
L 5190 2842 
L 4627 2842 
z
M 5446 3085 
L 5446 186 
C 5446 115 5421 96 5338 90 
C 5254 90 4979 90 4698 96 
C 4781 -77 4858 -333 4883 -506 
C 5286 -506 5581 -486 5779 -397 
C 5984 -301 6029 -122 6029 186 
L 6029 3085 
L 5446 3085 
z
M 4198 5485 
C 3795 4896 3072 4384 2368 4051 
L 2368 4730 
L 1510 4730 
C 1549 4934 1581 5133 1606 5331 
L 909 5427 
C 896 5197 864 4960 832 4730 
L 224 4730 
L 224 4038 
L 710 4038 
C 621 3590 525 3232 480 3091 
C 384 2803 307 2611 186 2573 
C 262 2406 371 2093 403 1965 
C 454 2022 685 2061 877 2061 
L 1293 2061 
L 1293 1376 
C 883 1299 506 1229 205 1184 
L 358 474 
L 1293 685 
L 1293 -557 
L 1939 -557 
L 1939 832 
L 2413 947 
L 2355 1581 
L 1939 1498 
L 1939 2061 
L 2342 2061 
L 2342 2752 
L 1939 2752 
L 1939 3635 
L 1293 3635 
L 1293 2752 
L 966 2752 
C 1101 3136 1242 3578 1357 4038 
L 2342 4038 
L 2150 3955 
C 2336 3795 2534 3552 2637 3373 
L 2957 3546 
L 2957 3315 
L 5530 3315 
L 5530 3584 
L 5875 3398 
C 5958 3597 6157 3827 6330 3994 
C 5715 4237 5158 4544 4685 5018 
L 4819 5203 
L 4198 5485 
z
M 3533 3917 
C 3795 4109 4051 4326 4282 4563 
C 4518 4314 4762 4102 5018 3917 
L 3533 3917 
z
M 3808 2432 
L 3808 2106 
L 3187 2106 
L 3187 2432 
L 3808 2432 
z
M 2586 3014 
L 2586 -550 
L 3187 -550 
L 3187 691 
L 3808 691 
L 3808 134 
C 3808 77 3789 58 3738 58 
C 3680 58 3514 58 3347 64 
C 3430 -102 3501 -365 3514 -538 
C 3814 -538 4032 -525 4205 -429 
C 4371 -326 4410 -147 4410 128 
L 4410 3014 
L 2586 3014 
z
M 3187 1562 
L 3808 1562 
L 3808 1235 
L 3187 1235 
L 3187 1562 
z
" transform="scale(0.015625)"/>
      <path id="NotoSansCJKjp-Bold-51fa" d="M 896 4832 
L 896 2496 
L 2765 2496 
L 2765 550 
L 1427 550 
L 1427 2150 
L 646 2150 
L 646 -576 
L 1427 -576 
L 1427 -198 
L 4986 -198 
L 4986 -570 
L 5786 -570 
L 5786 2150 
L 4986 2150 
L 4986 550 
L 3558 550 
L 3558 2496 
L 5530 2496 
L 5530 4838 
L 4723 4838 
L 4723 3245 
L 3558 3245 
L 3558 5370 
L 2765 5370 
L 2765 3245 
L 1664 3245 
L 1664 4832 
L 896 4832 
z
" transform="scale(0.015625)"/>
     </defs>
     <use xlink:href="#NotoSansCJKjp-Bold-4c"/>
     <use xlink:href="#NotoSansCJKjp-Bold-6f" transform="translate(57.799988 0)"/>
     <use xlink:href="#NotoSansCJKjp-Bold-77" transform="translate(120.399979 0)"/>
     <use xlink:href="#NotoSansCJKjp-Bold-65" transform="translate(206.699966 0)"/>
     <use xlink:href="#NotoSansCJKjp-Bold-72" transform="translate(264.799957 0)"/>
     <use xlink:href="#NotoSansCJKjp-Bold-69" transform="translate(308.399948 0)"/>
     <use xlink:href="#NotoSansCJKjp-Bold-6e" transform="translate(338.799942 0)"/>
     <use xlink:href="#NotoSansCJKjp-Bold-67" transform="translate(402.899933 0)"/>
     <use xlink:href="#NotoSansCJKjp-Bold-20" transform="translate(462.59993 0)"/>
     <use xlink:href="#NotoSansCJKjp-Bold-8f93" transform="translate(485.299927 0)"/>
     <use xlink:href="#NotoSansCJKjp-Bold-51fa" transform="translate(585.299911 0)"/>
    </g>
    <!-- [IRNode1, IRNode2, ...] -->
    <g style="fill: #4caf50" transform="translate(72.874219 57.093469) scale(0.09 -0.09)">
     <defs>
      <path id="NotoSansCJKjp-Bold-5b" d="M 646 -1101 
L 2112 -1101 
L 2112 -602 
L 1350 -602 
L 1350 4634 
L 2112 4634 
L 2112 5139 
L 646 5139 
L 646 -1101 
z
" transform="scale(0.015625)"/>
      <path id="NotoSansCJKjp-Bold-49" d="M 582 0 
L 1530 0 
L 1530 4742 
L 582 4742 
L 582 0 
z
" transform="scale(0.015625)"/>
      <path id="NotoSansCJKjp-Bold-52" d="M 1530 2541 
L 1530 3987 
L 2144 3987 
C 2752 3987 3085 3814 3085 3302 
C 3085 2797 2752 2541 2144 2541 
L 1530 2541 
z
M 3162 0 
L 4218 0 
L 3110 1939 
C 3654 2150 4013 2592 4013 3302 
C 4013 4390 3226 4742 2227 4742 
L 582 4742 
L 582 0 
L 1530 0 
L 1530 1792 
L 2189 1792 
L 3162 0 
z
" transform="scale(0.015625)"/>
      <path id="NotoSansCJKjp-Bold-4e" d="M 582 0 
L 1485 0 
L 1485 1901 
C 1485 2445 1402 3040 1363 3552 
L 1395 3552 
L 1875 2534 
L 3238 0 
L 4205 0 
L 4205 4742 
L 3309 4742 
L 3309 2848 
C 3309 2310 3386 1683 3437 1190 
L 3405 1190 
L 2925 2214 
L 1549 4742 
L 582 4742 
L 582 0 
z
" transform="scale(0.015625)"/>
      <path id="NotoSansCJKjp-Bold-31" d="M 525 0 
L 3373 0 
L 3373 768 
L 2483 768 
L 2483 4742 
L 1786 4742 
C 1485 4550 1165 4429 685 4346 
L 685 3757 
L 1549 3757 
L 1549 768 
L 525 768 
L 525 0 
z
" transform="scale(0.015625)"/>
      <path id="NotoSansCJKjp-Bold-2c" d="M 538 -1370 
C 1312 -1107 1747 -538 1747 211 
C 1747 794 1504 1139 1075 1139 
C 736 1139 461 922 461 582 
C 461 224 742 26 1050 26 
L 1114 32 
C 1107 -339 832 -666 339 -858 
L 538 -1370 
z
" transform="scale(0.015625)"/>
      <path id="NotoSansCJKjp-Bold-32" d="M 275 0 
L 3450 0 
L 3450 794 
L 2426 794 
C 2202 794 1888 768 1645 736 
C 2509 1587 3226 2509 3226 3366 
C 3226 4250 2630 4826 1734 4826 
C 1088 4826 666 4576 224 4102 
L 749 3597 
C 986 3859 1267 4083 1613 4083 
C 2067 4083 2323 3789 2323 3322 
C 2323 2586 1568 1696 275 544 
L 275 0 
z
" transform="scale(0.015625)"/>
      <path id="NotoSansCJKjp-Bold-2e" d="M 1043 -90 
C 1376 -90 1626 179 1626 525 
C 1626 877 1376 1139 1043 1139 
C 704 1139 454 877 454 525 
C 454 179 704 -90 1043 -90 
z
" transform="scale(0.015625)"/>
      <path id="NotoSansCJKjp-Bold-5d" d="M 307 -1101 
L 1766 -1101 
L 1766 5139 
L 307 5139 
L 307 4634 
L 1069 4634 
L 1069 -602 
L 307 -602 
L 307 -1101 
z
" transform="scale(0.015625)"/>
     </defs>
     <use xlink:href="#NotoSansCJKjp-Bold-5b"/>
     <use xlink:href="#NotoSansCJKjp-Bold-49" transform="translate(37.799988 0)"/>
     <use xlink:href="#NotoSansCJKjp-Bold-52" transform="translate(70.799973 0)"/>
     <use xlink:href="#NotoSansCJKjp-Bold-4e" transform="translate(138.999954 0)"/>
     <use xlink:href="#NotoSansCJKjp-Bold-6f" transform="translate(213.899948 0)"/>
     <use xlink:href="#NotoSansCJKjp-Bold-64" transform="translate(276.499939 0)"/>
     <use xlink:href="#NotoSansCJKjp-Bold-65" transform="translate(340.899933 0)"/>
     <use xlink:href="#NotoSansCJKjp-Bold-31" transform="translate(398.999924 0)"/>
     <use xlink:href="#NotoSansCJKjp-Bold-2c" transform="translate(457.999908 0)"/>
     <use xlink:href="#NotoSansCJKjp-Bold-20" transform="translate(490.499893 0)"/>
     <use xlink:href="#NotoSansCJKjp-Bold-49" transform="translate(513.19989 0)"/>
     <use xlink:href="#NotoSansCJKjp-Bold-52" transform="translate(546.199875 0)"/>
     <use xlink:href="#NotoSansCJKjp-Bold-4e" transform="translate(614.399857 0)"/>
     <use xlink:href="#NotoSansCJKjp-Bold-6f" transform="translate(689.29985 0)"/>
     <use xlink:href="#NotoSansCJKjp-Bold-64" transform="translate(751.899841 0)"/>
     <use xlink:href="#NotoSansCJKjp-Bold-65" transform="translate(816.299835 0)"/>
     <use xlink:href="#NotoSansCJKjp-Bold-32" transform="translate(874.399826 0)"/>
     <use xlink:href="#NotoSansCJKjp-Bold-2c" transform="translate(933.399811 0)"/>
     <use xlink:href="#NotoSansCJKjp-Bold-20" transform="translate(965.899796 0)"/>
     <use xlink:href="#NotoSansCJKjp-Bold-2e" transform="translate(988.599792 0)"/>
     <use xlink:href="#NotoSansCJKjp-Bold-2e" transform="translate(1021.099777 0)"/>
     <use xlink:href="#NotoSansCJKjp-Bold-2e" transform="translate(1053.599762 0)"/>
     <use xlink:href="#NotoSansCJKjp-Bold-5d" transform="translate(1086.099747 0)"/>
    </g>
   </g>
   <g id="text_3">
    <!-- SchedulerNode -->
    <g style="fill: #4caf50" transform="translate(252.0675 46.126828) scale(0.09 -0.09)">
     <use xlink:href="#NotoSansCJKjp-Bold-53"/>
     <use xlink:href="#NotoSansCJKjp-Bold-63" transform="translate(62.399994 0)"/>
     <use xlink:href="#NotoSansCJKjp-Bold-68" transform="translate(115.099991 0)"/>
     <use xlink:href="#NotoSansCJKjp-Bold-65" transform="translate(179.099976 0)"/>
     <use xlink:href="#NotoSansCJKjp-Bold-64" transform="translate(237.199966 0)"/>
     <use xlink:href="#NotoSansCJKjp-Bold-75" transform="translate(301.59996 0)"/>
     <use xlink:href="#NotoSansCJKjp-Bold-6c" transform="translate(365.299957 0)"/>
     <use xlink:href="#NotoSansCJKjp-Bold-65" transform="translate(396.799942 0)"/>
     <use xlink:href="#NotoSansCJKjp-Bold-72" transform="translate(454.899933 0)"/>
     <use xlink:href="#NotoSansCJKjp-Bold-4e" transform="translate(498.499924 0)"/>
     <use xlink:href="#NotoSansCJKjp-Bold-6f" transform="translate(573.399918 0)"/>
     <use xlink:href="#NotoSansCJKjp-Bold-64" transform="translate(635.999908 0)"/>
     <use xlink:href="#NotoSansCJKjp-Bold-65" transform="translate(700.399902 0)"/>
    </g>
    <!-- 包装每个 IRNode -->
    <g style="fill: #4caf50" transform="translate(250.924219 56.679891) scale(0.09 -0.09)">
     <defs>
      <path id="NotoSansCJKjp-Bold-5305" d="M 1126 2067 
L 1126 499 
C 1126 -314 1472 -525 2669 -525 
C 2931 -525 4442 -525 4723 -525 
C 5747 -525 6003 -282 6131 698 
C 5914 736 5574 851 5395 966 
C 5331 301 5242 192 4691 192 
C 4301 192 2982 192 2675 192 
C 2003 192 1882 237 1882 512 
L 1882 1395 
L 3981 1395 
L 3981 3520 
L 1536 3520 
C 1645 3674 1754 3834 1862 4000 
L 4979 4000 
C 4934 2515 4877 1958 4774 1818 
C 4717 1741 4659 1722 4563 1722 
C 4448 1722 4230 1722 3981 1747 
C 4102 1549 4179 1235 4192 1018 
C 4506 1011 4800 1011 4979 1050 
C 5184 1075 5325 1146 5459 1338 
C 5651 1587 5709 2362 5760 4403 
C 5766 4499 5773 4730 5773 4730 
L 2272 4730 
C 2355 4896 2432 5069 2502 5242 
L 1690 5472 
C 1363 4608 774 3750 122 3238 
C 320 3117 659 2842 806 2688 
C 992 2861 1171 3059 1350 3277 
L 1350 2842 
L 3219 2842 
L 3219 2067 
L 1126 2067 
z
" transform="scale(0.015625)"/>
      <path id="NotoSansCJKjp-Bold-88c5" d="M 301 4710 
C 582 4512 934 4218 1094 4019 
L 1562 4499 
C 1389 4698 1024 4966 742 5146 
L 301 4710 
z
M 288 2035 
L 288 1453 
L 2112 1453 
C 1574 1184 864 992 166 883 
C 307 749 486 499 576 339 
C 947 403 1312 506 1664 627 
L 1664 205 
L 941 115 
L 1056 -538 
C 1779 -435 2765 -301 3686 -160 
L 3654 467 
L 2400 294 
L 2400 954 
C 2682 1101 2938 1267 3155 1453 
C 3648 358 4461 -301 5805 -595 
C 5894 -403 6086 -122 6234 32 
C 5677 122 5203 288 4813 518 
C 5152 678 5542 896 5862 1114 
L 5414 1453 
L 6118 1453 
L 6118 2035 
L 3571 2035 
L 3571 2477 
L 2797 2477 
L 2797 2035 
L 288 2035 
z
M 4326 883 
C 4154 1056 4006 1242 3885 1453 
L 5229 1453 
C 4979 1267 4634 1050 4326 883 
z
M 3904 5440 
L 3904 4691 
L 2541 4691 
L 2541 4032 
L 3904 4032 
L 3904 3277 
L 2701 3277 
L 2701 2618 
L 5939 2618 
L 5939 3277 
L 4678 3277 
L 4678 4032 
L 6106 4032 
L 6106 4691 
L 4678 4691 
L 4678 5440 
L 3904 5440 
z
M 186 3238 
L 429 2611 
C 787 2758 1190 2950 1581 3123 
L 1581 2342 
L 2291 2342 
L 2291 5440 
L 1581 5440 
L 1581 3238 
L 1453 3738 
C 979 3539 512 3354 186 3238 
z
" transform="scale(0.015625)"/>
      <path id="NotoSansCJKjp-Bold-6bcf" d="M 4531 3008 
L 4512 2304 
L 3744 2304 
L 3962 2522 
C 3795 2675 3514 2861 3232 3008 
L 4531 3008 
z
M 224 2330 
L 224 1645 
L 1120 1645 
C 1030 1062 941 512 851 83 
L 1632 26 
L 1677 282 
L 4346 282 
C 4320 192 4294 134 4269 96 
C 4205 6 4147 -6 4038 -6 
C 3904 -13 3654 -6 3366 19 
C 3462 -147 3539 -403 3546 -570 
C 3878 -589 4198 -589 4410 -557 
C 4627 -525 4800 -461 4941 -250 
C 5011 -154 5069 6 5114 282 
L 5907 282 
L 5907 947 
L 5190 947 
L 5235 1645 
L 6189 1645 
L 6189 2330 
L 5267 2330 
L 5299 3341 
C 5299 3437 5306 3680 5306 3680 
L 1562 3680 
L 1830 4077 
L 5939 4077 
L 5939 4762 
L 2234 4762 
C 2317 4922 2394 5082 2464 5242 
L 1658 5478 
C 1338 4685 781 3866 198 3373 
C 403 3264 762 3040 922 2906 
C 1056 3046 1197 3200 1331 3379 
L 1210 2330 
L 224 2330 
z
M 2496 2752 
C 2746 2637 3021 2464 3238 2304 
L 1971 2304 
L 2054 3008 
L 2758 3008 
L 2496 2752 
z
M 4435 947 
L 3686 947 
L 3898 1165 
C 3731 1325 3443 1510 3162 1670 
L 4486 1670 
L 4435 947 
z
M 2413 1427 
C 2669 1299 2957 1120 3181 947 
L 1779 947 
L 1888 1670 
L 2662 1670 
L 2413 1427 
z
" transform="scale(0.015625)"/>
      <path id="NotoSansCJKjp-Bold-4e2a" d="M 3174 4627 
C 3718 3827 4800 2893 5824 2323 
C 5971 2560 6150 2829 6355 3027 
C 5299 3482 4243 4371 3552 5421 
L 2726 5421 
C 2259 4589 1216 3533 77 2944 
C 250 2784 474 2490 576 2304 
C 1658 2918 2656 3834 3174 4627 
z
M 2771 3258 
L 2771 -576 
L 3584 -576 
L 3584 3258 
L 2771 3258 
z
" transform="scale(0.015625)"/>
     </defs>
     <use xlink:href="#NotoSansCJKjp-Bold-5305"/>
     <use xlink:href="#NotoSansCJKjp-Bold-88c5" transform="translate(99.999985 0)"/>
     <use xlink:href="#NotoSansCJKjp-Bold-6bcf" transform="translate(199.999969 0)"/>
     <use xlink:href="#NotoSansCJKjp-Bold-4e2a" transform="translate(299.999954 0)"/>
     <use xlink:href="#NotoSansCJKjp-Bold-20" transform="translate(399.999939 0)"/>
     <use xlink:href="#NotoSansCJKjp-Bold-49" transform="translate(422.699936 0)"/>
     <use xlink:href="#NotoSansCJKjp-Bold-52" transform="translate(455.699921 0)"/>
     <use xlink:href="#NotoSansCJKjp-Bold-4e" transform="translate(523.899902 0)"/>
     <use xlink:href="#NotoSansCJKjp-Bold-6f" transform="translate(598.799896 0)"/>
     <use xlink:href="#NotoSansCJKjp-Bold-64" transform="translate(661.399887 0)"/>
     <use xlink:href="#NotoSansCJKjp-Bold-65" transform="translate(725.799881 0)"/>
    </g>
   </g>
   <g id="text_4">
    <!-- 依赖分析 -->
    <g style="fill: #2c5f8a" transform="translate(430.95 46.126828) scale(0.09 -0.09)">
     <defs>
      <path id="NotoSansCJKjp-Bold-4f9d" d="M 1562 5421 
C 1229 4518 653 3616 58 3046 
C 186 2854 390 2432 461 2246 
C 627 2413 787 2598 947 2810 
L 947 -557 
L 1677 -557 
L 1677 1971 
C 1818 1798 1990 1568 2074 1440 
C 2259 1555 2445 1677 2624 1818 
L 2624 384 
L 1926 256 
L 2138 -474 
C 2842 -320 3776 -109 4646 96 
L 4570 787 
L 3354 531 
L 3354 2470 
C 3558 2682 3750 2912 3923 3149 
C 4224 1517 4742 211 5792 -512 
C 5920 -301 6163 -6 6336 141 
C 5766 486 5357 1050 5062 1747 
C 5427 2003 5856 2342 6227 2650 
L 5651 3187 
C 5440 2938 5133 2637 4832 2381 
C 4710 2784 4614 3213 4544 3661 
L 6074 3661 
L 6074 4371 
L 4397 4371 
L 4397 5350 
L 3622 5350 
L 3622 4371 
L 1920 4371 
C 2054 4640 2176 4922 2285 5190 
L 1562 5421 
z
M 3373 3661 
C 2944 3046 2330 2509 1677 2150 
L 1677 3917 
L 1894 4326 
L 1894 3661 
L 3373 3661 
z
" transform="scale(0.015625)"/>
      <path id="NotoSansCJKjp-Bold-8d56" d="M 429 3674 
L 429 1786 
L 1197 1786 
C 941 1306 576 826 198 538 
C 314 339 474 19 531 -192 
C 838 83 1126 499 1370 954 
L 1370 -563 
L 2080 -563 
L 2080 1056 
C 2323 787 2554 518 2694 320 
L 3155 781 
C 2957 1056 2554 1453 2208 1786 
L 3040 1786 
L 3040 3674 
L 2080 3674 
L 2080 4134 
L 3149 4134 
L 3149 4794 
L 2080 4794 
L 2080 5408 
L 1382 5408 
L 1382 4794 
L 282 4794 
L 282 4134 
L 1382 4134 
L 1382 3674 
L 429 3674 
z
M 1062 3091 
L 1459 3091 
L 1459 2362 
L 1062 2362 
L 1062 3091 
z
M 1997 3091 
L 2374 3091 
L 2374 2362 
L 1997 2362 
L 1997 3091 
z
M 4205 4378 
L 4960 4378 
C 4851 4147 4717 3910 4589 3718 
L 3770 3718 
C 3930 3930 4077 4154 4205 4378 
z
M 4000 5446 
C 3814 4954 3475 4320 3008 3827 
C 3104 3782 3226 3718 3334 3642 
L 3334 768 
L 3987 768 
L 3987 3174 
L 5293 3174 
L 5293 794 
L 5978 794 
L 5978 3718 
L 5274 3718 
C 5485 4045 5690 4416 5830 4742 
L 5395 5005 
L 5293 4979 
L 4518 4979 
L 4678 5331 
L 4000 5446 
z
M 4339 2957 
C 4320 1069 4275 326 2842 -96 
C 2963 -211 3130 -454 3187 -608 
C 3904 -384 4333 -70 4589 390 
C 5011 109 5574 -294 5850 -557 
L 6278 -77 
C 5990 179 5402 563 4979 819 
L 4608 429 
C 4909 1005 4954 1811 4966 2957 
L 4339 2957 
z
" transform="scale(0.015625)"/>
      <path id="NotoSansCJKjp-Bold-5206" d="M 4403 5370 
L 3648 5069 
C 4006 4384 4493 3674 4998 3085 
L 1517 3085 
C 2022 3661 2477 4371 2797 5114 
L 1965 5357 
C 1581 4378 870 3482 70 2950 
C 256 2810 589 2502 730 2330 
C 902 2464 1082 2624 1248 2790 
L 1248 2342 
L 2330 2342 
C 2202 1408 1869 563 416 90 
C 602 -83 826 -403 915 -614 
C 2592 6 3014 1107 3168 2342 
L 4435 2342 
C 4378 1005 4307 429 4179 288 
C 4109 211 4032 198 3917 198 
C 3763 198 3424 205 3072 230 
C 3206 13 3309 -314 3322 -544 
C 3699 -557 4077 -557 4294 -525 
C 4544 -493 4717 -429 4883 -218 
C 5101 51 5184 813 5248 2752 
L 5254 2797 
C 5389 2650 5530 2509 5664 2387 
C 5811 2605 6112 2918 6317 3078 
C 5613 3622 4813 4550 4403 5370 
z
" transform="scale(0.015625)"/>
      <path id="NotoSansCJKjp-Bold-6790" d="M 5376 5370 
C 4954 5165 4307 4966 3661 4826 
L 3053 4992 
L 3053 3123 
C 3053 2170 2982 877 2259 -64 
C 2445 -147 2746 -403 2848 -563 
C 3546 320 3744 1568 3789 2554 
L 4634 2554 
L 4634 -570 
L 5389 -570 
L 5389 2554 
L 6221 2554 
L 6221 3277 
L 3802 3277 
L 3802 4160 
C 4563 4301 5376 4499 6022 4768 
L 5376 5370 
z
M 1165 5440 
L 1165 4115 
L 288 4115 
L 288 3392 
L 1082 3392 
C 890 2624 525 1760 115 1248 
C 237 1056 410 749 480 531 
C 736 877 973 1382 1165 1926 
L 1165 -570 
L 1901 -570 
L 1901 2074 
C 2067 1798 2227 1504 2317 1306 
L 2752 1907 
C 2637 2074 2112 2746 1901 2995 
L 1901 3392 
L 2675 3392 
L 2675 4115 
L 1901 4115 
L 1901 5440 
L 1165 5440 
z
" transform="scale(0.015625)"/>
     </defs>
     <use xlink:href="#NotoSansCJKjp-Bold-4f9d"/>
     <use xlink:href="#NotoSansCJKjp-Bold-8d56" transform="translate(99.999985 0)"/>
     <use xlink:href="#NotoSansCJKjp-Bold-5206" transform="translate(199.999969 0)"/>
     <use xlink:href="#NotoSansCJKjp-Bold-6790" transform="translate(299.999954 0)"/>
    </g>
    <!-- 构建依赖边 -->
    <g style="fill: #2c5f8a" transform="translate(426.45 56.679891) scale(0.09 -0.09)">
     <defs>
      <path id="NotoSansCJKjp-Bold-6784" d="M 3277 5440 
C 3123 4851 2874 4269 2573 3789 
L 2573 4115 
L 1894 4115 
L 1894 5440 
L 1158 5440 
L 1158 4115 
L 243 4115 
L 243 3392 
L 1062 3392 
C 864 2656 486 1805 96 1312 
C 218 1120 384 806 461 589 
C 723 947 960 1466 1158 2029 
L 1158 -570 
L 1894 -570 
L 1894 2202 
C 2048 1933 2195 1651 2285 1453 
L 2733 2067 
C 2611 2234 2074 2944 1894 3149 
L 1894 3392 
L 2285 3392 
L 2150 3245 
C 2330 3130 2643 2867 2784 2733 
C 3008 3002 3226 3334 3424 3712 
L 5299 3712 
C 5229 1408 5146 486 4973 282 
C 4902 192 4838 166 4723 166 
C 4576 166 4288 166 3962 198 
C 4096 -19 4186 -352 4198 -563 
C 4531 -576 4870 -576 5088 -538 
C 5325 -499 5491 -422 5658 -186 
C 5901 141 5978 1165 6067 4058 
C 6067 4160 6074 4422 6074 4422 
L 3750 4422 
C 3866 4691 3962 4973 4045 5254 
L 3277 5440 
z
M 2394 1357 
L 2554 653 
L 4397 979 
C 4442 826 4474 691 4493 570 
L 5120 787 
C 5043 1203 4787 1850 4525 2349 
L 3942 2163 
C 4032 1978 4122 1773 4205 1568 
L 3552 1491 
C 3731 2010 3917 2669 4064 3258 
L 3322 3405 
C 3232 2797 3040 1978 2861 1408 
L 2394 1357 
z
" transform="scale(0.015625)"/>
      <path id="NotoSansCJKjp-Bold-5efa" d="M 2438 5024 
L 2438 4448 
L 3622 4448 
L 3622 4186 
L 2003 4186 
L 2003 3597 
L 3622 3597 
L 3622 3334 
L 2406 3334 
L 2406 2752 
L 3622 2752 
L 3622 2470 
L 2374 2470 
L 2374 1914 
L 3622 1914 
L 3622 1619 
L 2093 1619 
L 2093 1018 
L 3622 1018 
L 3622 499 
L 4365 499 
L 4365 1018 
L 6048 1018 
L 6048 1619 
L 4365 1619 
L 4365 1914 
L 5754 1914 
L 5754 2470 
L 4365 2470 
L 4365 2752 
L 5702 2752 
L 5702 3597 
L 6189 3597 
L 6189 4186 
L 5702 4186 
L 5702 5024 
L 4365 5024 
L 4365 5389 
L 3622 5389 
L 3622 5024 
L 2438 5024 
z
M 4365 3597 
L 4954 3597 
L 4954 3334 
L 4365 3334 
L 4365 3597 
z
M 4365 4186 
L 4365 4448 
L 4954 4448 
L 4954 4186 
L 4365 4186 
z
M 896 2240 
L 294 2029 
C 461 1510 666 1101 902 774 
C 704 416 454 128 154 -83 
C 314 -179 614 -448 730 -595 
C 1005 -390 1242 -115 1440 224 
C 2118 -288 3002 -416 4083 -416 
L 5965 -416 
C 6016 -198 6144 160 6266 333 
C 5792 314 4486 314 4102 314 
C 3162 320 2355 416 1754 890 
C 1984 1504 2138 2266 2214 3187 
L 1766 3290 
L 1632 3270 
L 1312 3270 
C 1574 3859 1837 4467 2029 4966 
L 1504 5114 
L 1389 5082 
L 211 5082 
L 211 4410 
L 1050 4410 
C 813 3853 499 3155 224 2592 
L 915 2413 
L 1005 2598 
L 1440 2598 
C 1382 2195 1312 1837 1210 1517 
C 1088 1722 986 1958 896 2240 
z
" transform="scale(0.015625)"/>
      <path id="NotoSansCJKjp-Bold-8fb9" d="M 448 4986 
C 781 4646 1190 4166 1370 3853 
L 2010 4346 
C 1805 4646 1382 5094 1050 5414 
L 448 4986 
z
M 3411 5376 
C 3405 5037 3398 4698 3386 4371 
L 2176 4371 
L 2176 3629 
L 3328 3629 
C 3213 2592 2893 1683 1971 1062 
C 2170 928 2406 678 2515 493 
C 3597 1254 3981 2368 4134 3629 
L 5190 3629 
C 5146 2163 5082 1542 4947 1395 
C 4877 1325 4806 1306 4691 1306 
C 4531 1306 4192 1306 3834 1338 
C 3981 1120 4090 781 4102 550 
C 4467 538 4832 538 5050 570 
C 5306 602 5478 672 5645 890 
C 5862 1165 5926 1958 5984 4038 
C 5990 4141 5990 4371 5990 4371 
L 4198 4371 
C 4218 4698 4230 5037 4237 5376 
L 3411 5376 
z
M 1715 3315 
L 218 3315 
L 218 2560 
L 947 2560 
L 947 845 
C 672 717 358 474 58 141 
L 621 -634 
C 851 -237 1120 205 1312 205 
C 1453 205 1683 -6 1971 -173 
C 2458 -442 3002 -518 3846 -518 
C 4531 -518 5600 -474 6067 -448 
C 6074 -218 6208 186 6298 410 
C 5638 307 4570 243 3878 243 
C 3136 243 2534 282 2099 550 
C 1939 634 1818 717 1715 787 
L 1715 3315 
z
" transform="scale(0.015625)"/>
     </defs>
     <use xlink:href="#NotoSansCJKjp-Bold-6784"/>
     <use xlink:href="#NotoSansCJKjp-Bold-5efa" transform="translate(99.999985 0)"/>
     <use xlink:href="#NotoSansCJKjp-Bold-4f9d" transform="translate(199.999969 0)"/>
     <use xlink:href="#NotoSansCJKjp-Bold-8d56" transform="translate(299.999954 0)"/>
     <use xlink:href="#NotoSansCJKjp-Bold-8fb9" transform="translate(399.999939 0)"/>
    </g>
   </g>
   <g id="text_5">
    <!-- 融合循环 -->
    <g style="fill: #e2882c" transform="translate(256.575 156.350297) scale(0.09 -0.09)">
     <defs>
      <path id="NotoSansCJKjp-Bold-5faa" d="M 1421 5440 
C 1152 5018 621 4480 160 4154 
C 275 4019 467 3750 563 3597 
C 1094 3987 1696 4608 2099 5165 
L 1421 5440 
z
M 3245 2835 
L 3245 -576 
L 3930 -576 
L 3930 -352 
L 5242 -352 
L 5242 -538 
L 5952 -538 
L 5952 2835 
L 4845 2835 
L 4883 3315 
L 6195 3315 
L 6195 3955 
L 4928 3955 
L 4960 4595 
L 4883 4602 
C 5267 4672 5632 4749 5952 4838 
L 5434 5370 
C 4813 5171 3802 5005 2861 4890 
L 2298 5030 
L 2298 2995 
C 2298 2080 2253 832 1792 -77 
C 1971 -154 2259 -397 2368 -544 
C 2938 486 3014 2010 3014 2989 
L 3014 3315 
L 4186 3315 
L 4160 2835 
L 3245 2835 
z
M 3014 4339 
C 3405 4378 3808 4429 4211 4486 
L 4205 3955 
L 3014 3955 
L 3014 4339 
z
M 3930 1363 
L 5242 1363 
L 5242 1024 
L 3930 1024 
L 3930 1363 
z
M 3930 1882 
L 3930 2221 
L 5242 2221 
L 5242 1882 
L 3930 1882 
z
M 3930 160 
L 3930 512 
L 5242 512 
L 5242 160 
L 3930 160 
z
M 1536 4058 
C 1203 3430 640 2810 102 2406 
C 224 2240 435 1856 506 1696 
C 672 1830 838 1990 1005 2163 
L 1005 -576 
L 1722 -576 
L 1722 3027 
C 1907 3283 2067 3546 2208 3808 
L 1536 4058 
z
" transform="scale(0.015625)"/>
      <path id="NotoSansCJKjp-Bold-73af" d="M 154 819 
L 326 96 
C 902 282 1626 518 2291 742 
L 2170 1427 
L 1600 1248 
L 1600 2522 
L 2106 2522 
L 2106 3226 
L 1600 3226 
L 1600 4365 
L 2246 4365 
L 2246 5056 
L 211 5056 
L 211 4365 
L 890 4365 
L 890 3226 
L 301 3226 
L 301 2522 
L 890 2522 
L 890 1024 
L 154 819 
z
M 2483 5088 
L 2483 4358 
L 3955 4358 
C 3558 3322 2938 2355 2214 1747 
C 2387 1606 2682 1299 2810 1139 
C 3136 1453 3450 1837 3744 2272 
L 3744 -563 
L 4512 -563 
L 4512 2771 
C 4909 2266 5344 1658 5542 1254 
L 6182 1728 
C 5926 2182 5350 2899 4909 3411 
L 4512 3136 
L 4512 3648 
C 4621 3878 4717 4115 4806 4358 
L 6125 4358 
L 6125 5088 
L 2483 5088 
z
" transform="scale(0.015625)"/>
     </defs>
     <use xlink:href="#NotoSansCJKjp-Bold-878d"/>
     <use xlink:href="#NotoSansCJKjp-Bold-5408" transform="translate(99.999985 0)"/>
     <use xlink:href="#NotoSansCJKjp-Bold-5faa" transform="translate(199.999969 0)"/>
     <use xlink:href="#NotoSansCJKjp-Bold-73af" transform="translate(299.999954 0)"/>
    </g>
    <!-- 基于启发式算法 -->
    <g style="fill: #e2882c" transform="translate(243.075 166.903359) scale(0.09 -0.09)">
     <defs>
      <path id="NotoSansCJKjp-Bold-57fa" d="M 4218 5434 
L 4218 4954 
L 2202 4954 
L 2202 5440 
L 1434 5440 
L 1434 4954 
L 550 4954 
L 550 4333 
L 1434 4333 
L 1434 2413 
L 205 2413 
L 205 1786 
L 1440 1786 
C 1088 1446 621 1152 147 979 
C 307 838 531 570 640 397 
C 998 557 1350 781 1664 1056 
L 1664 646 
L 2797 646 
L 2797 230 
L 781 230 
L 781 -397 
L 5683 -397 
L 5683 230 
L 3578 230 
L 3578 646 
L 4749 646 
L 4749 1120 
C 5056 845 5408 614 5760 454 
C 5869 634 6099 909 6266 1043 
C 5811 1203 5363 1478 5011 1786 
L 6195 1786 
L 6195 2413 
L 5005 2413 
L 5005 4333 
L 5882 4333 
L 5882 4954 
L 5005 4954 
L 5005 5434 
L 4218 5434 
z
M 2202 4333 
L 4218 4333 
L 4218 4058 
L 2202 4058 
L 2202 4333 
z
M 2202 3520 
L 4218 3520 
L 4218 3238 
L 2202 3238 
L 2202 3520 
z
M 2202 2701 
L 4218 2701 
L 4218 2413 
L 2202 2413 
L 2202 2701 
z
M 2797 1658 
L 2797 1254 
L 1875 1254 
C 2048 1421 2202 1600 2330 1786 
L 4147 1786 
C 4282 1600 4435 1421 4608 1254 
L 3578 1254 
L 3578 1658 
L 2797 1658 
z
" transform="scale(0.015625)"/>
      <path id="NotoSansCJKjp-Bold-4e8e" d="M 755 5030 
L 755 4269 
L 2861 4269 
L 2861 2950 
L 320 2950 
L 320 2189 
L 2861 2189 
L 2861 422 
C 2861 294 2803 256 2662 250 
C 2509 243 2010 243 1530 269 
C 1658 45 1805 -314 1850 -544 
C 2483 -544 2957 -525 3258 -397 
C 3571 -275 3674 -58 3674 410 
L 3674 2189 
L 6086 2189 
L 6086 2950 
L 3674 2950 
L 3674 4269 
L 5645 4269 
L 5645 5030 
L 755 5030 
z
" transform="scale(0.015625)"/>
      <path id="NotoSansCJKjp-Bold-542f" d="M 819 4947 
L 819 2950 
C 819 2054 768 851 186 -26 
C 378 -109 685 -378 794 -550 
C 1338 230 1523 1318 1574 2221 
L 5683 2221 
L 5683 4077 
L 1594 4077 
L 1594 4288 
C 2950 4390 4435 4576 5542 4858 
L 4960 5421 
C 4032 5171 2483 4979 1082 4877 
L 819 4947 
z
M 1594 2867 
L 1594 2944 
L 1594 3430 
L 4922 3430 
L 4922 2867 
L 1594 2867 
z
M 1702 1741 
L 1702 -570 
L 2445 -570 
L 2445 -314 
L 4973 -314 
L 4973 -563 
L 5754 -563 
L 5754 1741 
L 1702 1741 
z
M 2445 326 
L 2445 1101 
L 4973 1101 
L 4973 326 
L 2445 326 
z
" transform="scale(0.015625)"/>
      <path id="NotoSansCJKjp-Bold-53d1" d="M 4275 5062 
C 4518 4774 4858 4371 5018 4134 
L 5645 4538 
C 5472 4768 5120 5152 4870 5414 
L 4275 5062 
z
M 858 3206 
C 915 3302 1184 3347 1530 3347 
L 2368 3347 
C 1952 2112 1267 1152 122 544 
C 307 397 582 90 685 -77 
C 1466 352 2048 909 2490 1587 
C 2688 1261 2918 966 3174 710 
C 2688 429 2125 224 1517 96 
C 1664 -77 1837 -378 1926 -582 
C 2618 -403 3258 -154 3808 198 
C 4352 -160 5005 -422 5786 -582 
C 5888 -371 6099 -51 6266 115 
C 5568 230 4966 429 4461 698 
C 4986 1184 5402 1805 5658 2605 
L 5120 2854 
L 4979 2822 
L 3098 2822 
C 3162 2995 3219 3168 3277 3347 
L 6048 3347 
L 6054 4083 
L 3462 4083 
C 3552 4480 3622 4902 3680 5344 
L 2816 5485 
C 2758 4992 2682 4525 2579 4083 
L 1696 4083 
C 1862 4410 2029 4806 2138 5178 
L 1331 5306 
C 1203 4800 960 4294 883 4166 
C 794 4019 704 3930 608 3898 
C 685 3712 806 3366 858 3206 
z
M 3795 1146 
C 3469 1414 3200 1728 2989 2080 
L 4563 2080 
C 4365 1722 4102 1408 3795 1146 
z
" transform="scale(0.015625)"/>
      <path id="NotoSansCJKjp-Bold-5f0f" d="M 3475 5414 
C 3475 5056 3482 4698 3494 4346 
L 326 4346 
L 326 3597 
L 3533 3597 
C 3686 1325 4166 -576 5267 -576 
C 5875 -576 6138 -282 6253 941 
C 6042 1024 5754 1210 5581 1389 
C 5549 576 5472 230 5338 230 
C 4870 230 4474 1722 4339 3597 
L 6086 3597 
L 6086 4346 
L 5478 4346 
L 5926 4730 
C 5741 4941 5370 5242 5075 5440 
L 4570 5018 
C 4826 4826 5139 4557 5318 4346 
L 4307 4346 
C 4294 4698 4294 5056 4301 5414 
L 3475 5414 
z
M 326 378 
L 538 -397 
C 1370 -224 2509 13 3558 243 
L 3507 928 
L 2304 710 
L 2304 2125 
L 3341 2125 
L 3341 2867 
L 570 2867 
L 570 2125 
L 1536 2125 
L 1536 576 
C 1075 499 659 429 326 378 
z
" transform="scale(0.015625)"/>
      <path id="NotoSansCJKjp-Bold-7b97" d="M 1824 2829 
L 4678 2829 
L 4678 2592 
L 1824 2592 
L 1824 2829 
z
M 1824 2157 
L 4678 2157 
L 4678 1920 
L 1824 1920 
L 1824 2157 
z
M 1824 3482 
L 4678 3482 
L 4678 3258 
L 1824 3258 
L 1824 3482 
z
M 3725 5491 
C 3597 5139 3373 4787 3110 4512 
L 3110 5018 
L 1690 5018 
L 1830 5293 
L 1120 5491 
C 909 5005 531 4518 128 4211 
C 307 4115 608 3910 749 3789 
C 934 3955 1126 4173 1306 4416 
L 1440 4416 
C 1536 4262 1638 4083 1696 3942 
L 1050 3942 
L 1050 1466 
L 1837 1466 
L 1837 1082 
L 307 1082 
L 307 467 
L 1587 467 
C 1382 282 1018 109 390 -13 
C 557 -154 768 -410 870 -576 
C 1882 -314 2336 58 2515 467 
L 3955 467 
L 3955 -563 
L 4755 -563 
L 4755 467 
L 6106 467 
L 6106 1082 
L 4755 1082 
L 4755 1466 
L 5485 1466 
L 5485 3942 
L 4915 3942 
L 5350 4134 
C 5299 4218 5229 4314 5139 4416 
L 6086 4416 
L 6086 5018 
L 4320 5018 
C 4371 5114 4416 5216 4454 5312 
L 3725 5491 
z
M 3955 1082 
L 2611 1082 
L 2611 1466 
L 3955 1466 
L 3955 1082 
z
M 3354 3942 
L 1965 3942 
L 2394 4096 
C 2362 4186 2298 4301 2227 4416 
L 3021 4416 
C 2950 4346 2880 4288 2803 4230 
C 2950 4166 3187 4045 3354 3942 
z
M 3552 3942 
C 3686 4077 3827 4237 3955 4416 
L 4294 4416 
C 4422 4262 4557 4090 4646 3942 
L 3552 3942 
z
" transform="scale(0.015625)"/>
      <path id="NotoSansCJKjp-Bold-6cd5" d="M 550 4845 
C 973 4672 1498 4358 1754 4134 
L 2202 4762 
C 1926 4986 1389 5261 973 5414 
L 550 4845 
z
M 186 3104 
C 608 2938 1146 2656 1402 2438 
L 1824 3085 
C 1542 3290 998 3546 582 3686 
L 186 3104 
z
M 358 6 
L 1024 -486 
C 1382 134 1760 864 2074 1536 
L 1498 2029 
C 1139 1286 678 493 358 6 
z
M 4435 1344 
C 4608 1120 4787 864 4947 608 
L 3296 518 
C 3539 1005 3789 1594 3994 2131 
L 3942 2144 
L 6131 2144 
L 6131 2874 
L 4429 2874 
L 4429 3782 
L 5824 3782 
L 5824 4518 
L 4429 4518 
L 4429 5440 
L 3635 5440 
L 3635 4518 
L 2298 4518 
L 2298 3782 
L 3635 3782 
L 3635 2874 
L 1978 2874 
L 1978 2144 
L 3078 2144 
C 2925 1606 2694 966 2470 480 
L 1984 461 
L 2080 -320 
C 2957 -256 4179 -166 5338 -64 
C 5427 -250 5504 -422 5555 -576 
L 6285 -179 
C 6086 365 5568 1126 5094 1696 
L 4435 1344 
z
" transform="scale(0.015625)"/>
     </defs>
     <use xlink:href="#NotoSansCJKjp-Bold-57fa"/>
     <use xlink:href="#NotoSansCJKjp-Bold-4e8e" transform="translate(99.999985 0)"/>
     <use xlink:href="#NotoSansCJKjp-Bold-542f" transform="translate(199.999969 0)"/>
     <use xlink:href="#NotoSansCJKjp-Bold-53d1" transform="translate(299.999954 0)"/>
     <use xlink:href="#NotoSansCJKjp-Bold-5f0f" transform="translate(399.999939 0)"/>
     <use xlink:href="#NotoSansCJKjp-Bold-7b97" transform="translate(499.999924 0)"/>
     <use xlink:href="#NotoSansCJKjp-Bold-6cd5" transform="translate(599.999908 0)"/>
    </g>
    <!-- → FusedSchedulerNode -->
    <g style="fill: #e2882c" transform="translate(221.681719 177.456422) scale(0.09 -0.09)">
     <defs>
      <path id="NotoSansCJKjp-Bold-2192" d="M 4781 2758 
L 256 2758 
L 256 2106 
L 4781 2106 
C 4506 1907 4166 1555 3930 1229 
L 4506 909 
C 4947 1472 5600 2054 6176 2432 
C 5600 2810 4947 3392 4506 3955 
L 3930 3635 
C 4166 3309 4506 2957 4781 2758 
z
" transform="scale(0.015625)"/>
      <path id="NotoSansCJKjp-Bold-46" d="M 582 0 
L 1530 0 
L 1530 1920 
L 3213 1920 
L 3213 2714 
L 1530 2714 
L 1530 3949 
L 3501 3949 
L 3501 4742 
L 582 4742 
L 582 0 
z
" transform="scale(0.015625)"/>
      <path id="NotoSansCJKjp-Bold-73" d="M 1530 -90 
C 2458 -90 2957 410 2957 1043 
C 2957 1702 2432 1946 1958 2125 
C 1574 2266 1248 2362 1248 2624 
C 1248 2829 1402 2970 1728 2970 
C 1990 2970 2240 2842 2496 2662 
L 2918 3232 
C 2624 3462 2221 3674 1702 3674 
C 883 3674 365 3219 365 2579 
C 365 1978 870 1702 1325 1530 
C 1702 1382 2074 1261 2074 992 
C 2074 768 1914 614 1555 614 
C 1216 614 915 762 595 1005 
L 166 410 
C 525 115 1050 -90 1530 -90 
z
" transform="scale(0.015625)"/>
     </defs>
     <use xlink:href="#NotoSansCJKjp-Bold-2192"/>
     <use xlink:href="#NotoSansCJKjp-Bold-20" transform="translate(99.999985 0)"/>
     <use xlink:href="#NotoSansCJKjp-Bold-46" transform="translate(122.699982 0)"/>
     <use xlink:href="#NotoSansCJKjp-Bold-75" transform="translate(181.199966 0)"/>
     <use xlink:href="#NotoSansCJKjp-Bold-73" transform="translate(244.899963 0)"/>
     <use xlink:href="#NotoSansCJKjp-Bold-65" transform="translate(294.399948 0)"/>
     <use xlink:href="#NotoSansCJKjp-Bold-64" transform="translate(352.499939 0)"/>
     <use xlink:href="#NotoSansCJKjp-Bold-53" transform="translate(416.899933 0)"/>
     <use xlink:href="#NotoSansCJKjp-Bold-63" transform="translate(479.299927 0)"/>
     <use xlink:href="#NotoSansCJKjp-Bold-68" transform="translate(531.999924 0)"/>
     <use xlink:href="#NotoSansCJKjp-Bold-65" transform="translate(595.999908 0)"/>
     <use xlink:href="#NotoSansCJKjp-Bold-64" transform="translate(654.099899 0)"/>
     <use xlink:href="#NotoSansCJKjp-Bold-75" transform="translate(718.499893 0)"/>
     <use xlink:href="#NotoSansCJKjp-Bold-6c" transform="translate(782.19989 0)"/>
     <use xlink:href="#NotoSansCJKjp-Bold-65" transform="translate(813.699875 0)"/>
     <use xlink:href="#NotoSansCJKjp-Bold-72" transform="translate(871.799866 0)"/>
     <use xlink:href="#NotoSansCJKjp-Bold-4e" transform="translate(915.399857 0)"/>
     <use xlink:href="#NotoSansCJKjp-Bold-6f" transform="translate(990.29985 0)"/>
     <use xlink:href="#NotoSansCJKjp-Bold-64" transform="translate(1052.899841 0)"/>
     <use xlink:href="#NotoSansCJKjp-Bold-65" transform="translate(1117.299835 0)"/>
    </g>
   </g>
   <g id="text_6">
    <!-- codegen() 调用 -->
    <g style="fill: #2c5f8a" transform="translate(439.890703 161.667609) scale(0.09 -0.09)">
     <defs>
      <path id="NotoSansCJKjp-Bold-28" d="M 1504 -1293 
L 2086 -1043 
C 1549 -109 1306 966 1306 2016 
C 1306 3066 1549 4147 2086 5082 
L 1504 5331 
C 896 4339 544 3296 544 2016 
C 544 736 896 -307 1504 -1293 
z
" transform="scale(0.015625)"/>
      <path id="NotoSansCJKjp-Bold-29" d="M 915 -1293 
C 1523 -307 1875 736 1875 2016 
C 1875 3296 1523 4339 915 5331 
L 333 5082 
C 870 4147 1114 3066 1114 2016 
C 1114 966 870 -109 333 -1043 
L 915 -1293 
z
" transform="scale(0.015625)"/>
      <path id="NotoSansCJKjp-Bold-7528" d="M 909 5011 
L 909 2714 
C 909 1811 851 666 147 -109 
C 320 -205 634 -467 755 -608 
C 1216 -109 1453 595 1562 1299 
L 2880 1299 
L 2880 -493 
L 3654 -493 
L 3654 1299 
L 5005 1299 
L 5005 339 
C 5005 224 4960 186 4845 186 
C 4723 186 4301 179 3936 198 
C 4038 0 4160 -333 4186 -538 
C 4768 -544 5158 -525 5421 -403 
C 5683 -288 5773 -77 5773 333 
L 5773 5011 
L 909 5011 
z
M 1664 4275 
L 2880 4275 
L 2880 3533 
L 1664 3533 
L 1664 4275 
z
M 5005 4275 
L 5005 3533 
L 3654 3533 
L 3654 4275 
L 5005 4275 
z
M 1664 2816 
L 2880 2816 
L 2880 2022 
L 1645 2022 
C 1658 2266 1664 2496 1664 2707 
L 1664 2816 
z
M 5005 2816 
L 5005 2022 
L 3654 2022 
L 3654 2816 
L 5005 2816 
z
" transform="scale(0.015625)"/>
     </defs>
     <use xlink:href="#NotoSansCJKjp-Bold-63"/>
     <use xlink:href="#NotoSansCJKjp-Bold-6f" transform="translate(52.699997 0)"/>
     <use xlink:href="#NotoSansCJKjp-Bold-64" transform="translate(115.299988 0)"/>
     <use xlink:href="#NotoSansCJKjp-Bold-65" transform="translate(179.699982 0)"/>
     <use xlink:href="#NotoSansCJKjp-Bold-67" transform="translate(237.799973 0)"/>
     <use xlink:href="#NotoSansCJKjp-Bold-65" transform="translate(297.499969 0)"/>
     <use xlink:href="#NotoSansCJKjp-Bold-6e" transform="translate(355.59996 0)"/>
     <use xlink:href="#NotoSansCJKjp-Bold-28" transform="translate(419.699951 0)"/>
     <use xlink:href="#NotoSansCJKjp-Bold-29" transform="translate(457.499939 0)"/>
     <use xlink:href="#NotoSansCJKjp-Bold-20" transform="translate(495.299927 0)"/>
     <use xlink:href="#NotoSansCJKjp-Bold-8c03" transform="translate(517.999924 0)"/>
     <use xlink:href="#NotoSansCJKjp-Bold-7528" transform="translate(617.999908 0)"/>
    </g>
    <!-- 分发到后端 -->
    <g style="fill: #2c5f8a" transform="translate(449.7 172.472391) scale(0.09 -0.09)">
     <defs>
      <path id="NotoSansCJKjp-Bold-5230" d="M 3770 4659 
L 3770 1037 
L 4506 1037 
L 4506 4659 
L 3770 4659 
z
M 5222 5261 
L 5222 346 
C 5222 230 5184 198 5069 192 
C 4941 192 4550 192 4166 211 
C 4275 -13 4390 -358 4416 -576 
C 4966 -576 5376 -550 5638 -429 
C 5888 -307 5978 -90 5978 346 
L 5978 5261 
L 5222 5261 
z
M 2221 3936 
C 2336 3782 2458 3616 2573 3443 
L 1574 3411 
C 1709 3706 1843 4038 1965 4352 
L 3533 4352 
L 3533 5030 
L 262 5030 
L 262 4352 
L 1107 4352 
C 1030 4045 922 3693 806 3392 
L 250 3379 
L 294 2669 
C 1018 2701 2003 2739 2957 2797 
C 3021 2682 3072 2566 3110 2470 
L 3718 2810 
C 3552 3213 3142 3802 2784 4237 
L 2221 3936 
z
M 192 339 
L 314 -429 
C 1190 -314 2413 -160 3558 0 
L 3539 710 
L 2285 563 
L 2285 1299 
L 3328 1299 
L 3328 1984 
L 2285 1984 
L 2285 2611 
L 1517 2611 
L 1517 1984 
L 454 1984 
L 454 1299 
L 1517 1299 
L 1517 474 
L 192 339 
z
" transform="scale(0.015625)"/>
      <path id="NotoSansCJKjp-Bold-540e" d="M 5094 5421 
C 4237 5178 2867 4998 1555 4890 
L 870 4992 
L 870 3072 
C 870 2118 813 838 128 -64 
C 320 -147 621 -416 736 -582 
C 1517 403 1638 1920 1645 2944 
L 6214 2944 
L 6214 3674 
L 1645 3674 
L 1645 4218 
C 3040 4314 4570 4499 5722 4806 
L 5094 5421 
z
M 2022 2234 
L 2022 -570 
L 2765 -570 
L 2765 -282 
L 4915 -282 
L 4915 -550 
L 5690 -550 
L 5690 2234 
L 2022 2234 
z
M 2765 429 
L 2765 1523 
L 4915 1523 
L 4915 429 
L 2765 429 
z
" transform="scale(0.015625)"/>
      <path id="NotoSansCJKjp-Bold-7aef" d="M 358 3251 
C 474 2650 550 1862 544 1344 
L 1152 1453 
C 1146 1971 1056 2752 922 3360 
L 358 3251 
z
M 2528 2042 
L 2528 -557 
L 3213 -557 
L 3213 1395 
L 3546 1395 
L 3546 -499 
L 4122 -499 
L 4122 1395 
L 4467 1395 
L 4467 -499 
L 5050 -499 
L 5050 -26 
C 5120 -192 5184 -416 5210 -576 
C 5491 -576 5696 -576 5869 -467 
C 6042 -365 6080 -192 6080 90 
L 6080 2042 
L 4493 2042 
L 4666 2470 
L 6189 2470 
L 6189 3142 
L 2394 3142 
L 2394 2470 
L 3802 2470 
L 3718 2042 
L 2528 2042 
z
M 5050 1395 
L 5395 1395 
L 5395 96 
C 5395 45 5382 26 5331 26 
L 5050 32 
L 5050 1395 
z
M 2618 5126 
L 2618 3482 
L 5990 3482 
L 5990 5126 
L 5254 5126 
L 5254 4141 
L 4640 4141 
L 4640 5414 
L 3904 5414 
L 3904 4141 
L 3322 4141 
L 3322 5126 
L 2618 5126 
z
M 986 5344 
L 986 4224 
L 282 4224 
L 282 3533 
L 2323 3533 
L 2323 4224 
L 1670 4224 
L 1670 5344 
L 986 5344 
z
M 1587 3405 
C 1536 2733 1408 1798 1280 1222 
L 1504 1165 
C 992 1056 512 954 147 890 
L 314 141 
C 941 294 1741 486 2496 685 
L 2413 1363 
L 1875 1248 
C 2016 1805 2170 2598 2291 3264 
L 1587 3405 
z
" transform="scale(0.015625)"/>
     </defs>
     <use xlink:href="#NotoSansCJKjp-Bold-5206"/>
     <use xlink:href="#NotoSansCJKjp-Bold-53d1" transform="translate(99.999985 0)"/>
     <use xlink:href="#NotoSansCJKjp-Bold-5230" transform="translate(199.999969 0)"/>
     <use xlink:href="#NotoSansCJKjp-Bold-540e" transform="translate(299.999954 0)"/>
     <use xlink:href="#NotoSansCJKjp-Bold-7aef" transform="translate(399.999939 0)"/>
    </g>
   </g>
   <g id="patch_8">
    <path d="M 195.200885 48.78 
Q 204.825499 48.78 212.773063 48.78 
" style="fill: none; stroke: #616161; stroke-width: 1.5; stroke-linecap: round"/>
    <path d="M 208.373063 46.58 
L 212.773063 48.78 
L 208.373063 50.98 
" style="fill: none; stroke: #616161; stroke-width: 1.5; stroke-linecap: round"/>
   </g>
   <g id="patch_9">
    <path d="M 357.950885 48.78 
Q 367.575499 48.78 375.523063 48.78 
" style="fill: none; stroke: #616161; stroke-width: 1.5; stroke-linecap: round"/>
    <path d="M 371.123063 46.58 
L 375.523063 48.78 
L 371.123063 50.98 
" style="fill: none; stroke: #616161; stroke-width: 1.5; stroke-linecap: round"/>
   </g>
   <g id="patch_10">
    <path d="M 448.95 78.501088 
Q 448.95 120.389249 448.95 160.600359 
" style="fill: none; stroke: #616161; stroke-width: 1.5; stroke-linecap: round"/>
    <path d="M 451.15 156.200359 
L 448.95 160.600359 
L 446.75 156.200359 
" style="fill: none; stroke: #616161; stroke-width: 1.5; stroke-linecap: round"/>
   </g>
   <g id="patch_11">
    <path d="M 381.200885 164.28 
Q 390.825499 164.28 398.773063 164.28 
" style="fill: none; stroke: #616161; stroke-width: 1.5; stroke-linecap: round"/>
    <path d="M 394.373063 162.08 
L 398.773063 164.28 
L 394.373063 166.48 
" style="fill: none; stroke: #616161; stroke-width: 1.5; stroke-linecap: round"/>
   </g>
   <g id="patch_12">
    <path d="M 472.2 193.999819 
Q 472.2 205.859925 472.2 216.042979 
" style="fill: none; stroke: #616161; stroke-width: 1.5; stroke-linecap: round"/>
    <path d="M 474.4 211.642979 
L 472.2 216.042979 
L 470 211.642979 
" style="fill: none; stroke: #616161; stroke-width: 1.5; stroke-linecap: round"/>
   </g>
   <g id="patch_13">
    <path d="M 191.203742 122.751942 
Q 177.920638 123.494514 171.827361 133.395197 
" style="fill: none; stroke: #e2882c; stroke-width: 1.5; stroke-linecap: round"/>
    <path d="M 176.007142 130.801083 
L 171.827361 133.395197 
L 172.259938 128.494904 
" style="fill: none; stroke: #e2882c; stroke-width: 1.5; stroke-linecap: round"/>
   </g>
   <g id="text_7">
    <!-- 迭代融合 -->
    <g style="fill: #e2882c" transform="translate(107.45 120.23075) scale(0.08 -0.08)">
     <defs>
      <path id="NotoSansCJKjp-Regular-8fed" d="M 384 4934 
C 794 4646 1274 4218 1478 3904 
L 1862 4224 
C 1638 4531 1158 4947 730 5222 
L 384 4934 
z
M 3789 5376 
L 3789 4378 
L 3078 4378 
C 3155 4614 3219 4858 3270 5107 
L 2797 5197 
C 2650 4480 2400 3770 2048 3302 
C 2176 3251 2394 3142 2496 3085 
C 2656 3315 2797 3610 2925 3936 
L 3789 3936 
L 3789 3597 
C 3789 3392 3782 3174 3757 2950 
L 1990 2950 
L 1990 2509 
L 3674 2509 
C 3507 1882 3091 1261 2074 813 
C 2176 730 2330 557 2387 448 
C 3354 922 3834 1549 4058 2202 
C 4403 1376 4960 774 5766 454 
C 5837 582 5978 768 6093 864 
C 5280 1133 4710 1722 4410 2509 
L 6074 2509 
L 6074 2950 
L 4230 2950 
C 4256 3168 4262 3386 4262 3597 
L 4262 3936 
L 5754 3936 
L 5754 4378 
L 4262 4378 
L 4262 5376 
L 3789 5376 
z
M 1677 2848 
L 314 2848 
L 314 2400 
L 1210 2400 
L 1210 768 
C 890 499 518 230 230 32 
L 480 -461 
C 826 -173 1152 102 1459 378 
C 1869 -128 2445 -358 3283 -390 
C 3994 -416 5318 -403 6016 -371 
C 6035 -224 6118 6 6176 115 
C 5414 64 3981 45 3283 77 
C 2541 102 1978 326 1677 794 
L 1677 2848 
z
" transform="scale(0.015625)"/>
      <path id="NotoSansCJKjp-Regular-4ee3" d="M 4576 5011 
C 4954 4691 5402 4243 5613 3955 
L 5984 4211 
C 5766 4499 5306 4934 4922 5242 
L 4576 5011 
z
M 3507 5286 
C 3533 4608 3578 3968 3635 3379 
L 2074 3181 
L 2144 2726 
L 3686 2918 
C 3930 909 4442 -429 5504 -506 
C 5843 -525 6099 -192 6240 915 
C 6144 960 5933 1075 5837 1171 
C 5773 429 5670 51 5485 58 
C 4800 128 4378 1280 4160 2982 
L 6112 3226 
L 6042 3680 
L 4109 3437 
C 4045 4006 4006 4634 3987 5286 
L 3507 5286 
z
M 2003 5312 
C 1581 4294 870 3315 134 2688 
C 218 2579 365 2336 416 2227 
C 710 2490 998 2810 1274 3162 
L 1274 -499 
L 1766 -499 
L 1766 3866 
C 2029 4275 2266 4717 2458 5165 
L 2003 5312 
z
" transform="scale(0.015625)"/>
      <path id="NotoSansCJKjp-Regular-878d" d="M 1139 3974 
L 2624 3974 
L 2624 3360 
L 1139 3360 
L 1139 3974 
z
M 723 4320 
L 723 3014 
L 3066 3014 
L 3066 4320 
L 723 4320 
z
M 384 5094 
L 384 4685 
L 3398 4685 
L 3398 5094 
L 384 5094 
z
M 3603 4102 
L 3603 1677 
L 4518 1677 
L 4518 224 
L 3430 58 
L 3546 -403 
L 5683 -13 
C 5728 -198 5760 -371 5779 -518 
L 6182 -403 
C 6118 51 5875 781 5606 1331 
L 5235 1235 
C 5357 979 5472 678 5562 390 
L 4947 288 
L 4947 1677 
L 5926 1677 
L 5926 4102 
L 4947 4102 
L 4947 5331 
L 4518 5331 
L 4518 4102 
L 3603 4102 
z
M 1120 1146 
L 1120 800 
L 1683 800 
L 1683 -333 
L 2048 -333 
L 2048 800 
L 2650 800 
L 2650 1146 
L 1120 1146 
z
M 3994 3686 
L 4544 3686 
L 4544 2106 
L 3994 2106 
L 3994 3686 
z
M 4922 3686 
L 5510 3686 
L 5510 2106 
L 4922 2106 
L 4922 3686 
z
M 2912 2285 
L 2912 1728 
C 2893 1702 2880 1696 2797 1696 
C 2739 1696 2528 1696 2490 1696 
C 2394 1696 2381 1702 2381 1798 
L 2381 2285 
L 2912 2285 
z
M 454 2650 
L 454 -499 
L 838 -499 
L 838 2285 
L 1363 2285 
L 1363 2266 
C 1363 2003 1312 1626 845 1389 
C 922 1344 1043 1242 1101 1171 
C 1606 1472 1670 1901 1670 2253 
L 1670 2285 
L 2067 2285 
L 2067 1792 
C 2067 1466 2144 1395 2458 1395 
C 2509 1395 2797 1395 2861 1395 
L 2912 1395 
L 2912 -45 
C 2912 -109 2893 -128 2829 -128 
C 2758 -134 2547 -134 2298 -128 
C 2349 -237 2400 -397 2413 -499 
C 2765 -499 2989 -493 3130 -435 
C 3277 -365 3309 -256 3309 -45 
L 3309 2650 
L 454 2650 
z
" transform="scale(0.015625)"/>
      <path id="NotoSansCJKjp-Regular-5408" d="M 1587 3283 
L 1587 2854 
L 4819 2854 
L 4819 3283 
L 1587 3283 
z
M 3187 4890 
C 3789 4070 4915 3168 5914 2637 
C 5997 2778 6118 2944 6234 3066 
C 5216 3520 4090 4410 3405 5363 
L 2912 5363 
C 2413 4531 1338 3552 218 2982 
C 320 2880 454 2714 518 2605 
C 1613 3194 2656 4109 3187 4890 
z
M 1254 2048 
L 1254 -518 
L 1728 -518 
L 1728 -250 
L 4685 -250 
L 4685 -518 
L 5171 -518 
L 5171 2048 
L 1254 2048 
z
M 1728 179 
L 1728 1613 
L 4685 1613 
L 4685 179 
L 1728 179 
z
" transform="scale(0.015625)"/>
     </defs>
     <use xlink:href="#NotoSansCJKjp-Regular-8fed"/>
     <use xlink:href="#NotoSansCJKjp-Regular-4ee3" transform="translate(99.999985 0)"/>
     <use xlink:href="#NotoSansCJKjp-Regular-878d" transform="translate(199.999969 0)"/>
     <use xlink:href="#NotoSansCJKjp-Regular-5408" transform="translate(299.999954 0)"/>
    </g>
    <!-- 直至无可融合节点 -->
    <g style="fill: #e2882c" transform="translate(91.45 129.70425) scale(0.08 -0.08)">
     <defs>
      <path id="NotoSansCJKjp-Regular-76f4" d="M 2374 2586 
L 4832 2586 
L 4832 2061 
L 2374 2061 
L 2374 2586 
z
M 2374 1715 
L 4832 1715 
L 4832 1178 
L 2374 1178 
L 2374 1715 
z
M 2374 3456 
L 4832 3456 
L 4832 2931 
L 2374 2931 
L 2374 3456 
z
M 736 3635 
L 736 -518 
L 1203 -518 
L 1203 -179 
L 6080 -179 
L 6080 269 
L 1203 269 
L 1203 3635 
L 736 3635 
z
M 3053 5395 
L 3008 4787 
L 397 4787 
L 397 4339 
L 2963 4339 
L 2899 3814 
L 1914 3814 
L 1914 813 
L 5306 813 
L 5306 3814 
L 3379 3814 
L 3469 4339 
L 6029 4339 
L 6029 4787 
L 3533 4787 
L 3603 5363 
L 3053 5395 
z
" transform="scale(0.015625)"/>
      <path id="NotoSansCJKjp-Regular-81f3" d="M 3789 4070 
C 4070 3866 4378 3622 4659 3373 
L 2170 3290 
C 2400 3661 2656 4115 2861 4525 
L 5965 4525 
L 5965 4979 
L 493 4979 
L 493 4525 
L 2253 4525 
C 2074 4115 1830 3635 1606 3277 
L 602 3251 
L 621 2765 
C 1734 2797 3469 2880 5120 2944 
C 5299 2778 5453 2611 5562 2470 
L 5984 2778 
C 5606 3232 4813 3891 4179 4339 
L 3789 4070 
z
M 2925 2650 
L 2925 1850 
L 909 1850 
L 909 1408 
L 2925 1408 
L 2925 205 
L 346 205 
L 346 -250 
L 6067 -250 
L 6067 205 
L 3424 205 
L 3424 1408 
L 5530 1408 
L 5530 1850 
L 3424 1850 
L 3424 2650 
L 2925 2650 
z
" transform="scale(0.015625)"/>
      <path id="NotoSansCJKjp-Regular-65e0" d="M 3277 2330 
L 3277 294 
C 3277 -282 3456 -448 4128 -448 
C 4269 -448 5190 -448 5338 -448 
C 5965 -448 6112 -179 6176 851 
C 6042 883 5824 960 5715 1050 
C 5677 173 5626 26 5306 26 
C 5101 26 4326 26 4173 26 
C 3840 26 3776 70 3776 288 
L 3776 2330 
L 3277 2330 
z
M 730 4947 
L 730 4486 
L 2861 4486 
C 2854 3981 2848 3501 2803 3053 
L 333 3053 
L 333 2598 
L 2746 2598 
C 2534 1350 1958 397 256 -122 
C 365 -224 506 -397 563 -525 
C 2400 70 3008 1171 3226 2598 
L 6074 2598 
L 6074 3053 
L 3283 3053 
C 3328 3507 3341 3981 3347 4486 
L 5709 4486 
L 5709 4947 
L 730 4947 
z
" transform="scale(0.015625)"/>
      <path id="NotoSansCJKjp-Regular-53ef" d="M 358 4922 
L 358 4442 
L 4781 4442 
L 4781 186 
C 4781 51 4736 13 4595 0 
C 4442 0 3917 -6 3405 19 
C 3482 -122 3571 -358 3603 -499 
C 4237 -499 4685 -499 4941 -416 
C 5190 -333 5280 -166 5280 179 
L 5280 4442 
L 6067 4442 
L 6067 4922 
L 358 4922 
z
M 1478 3040 
L 3162 3040 
L 3162 1568 
L 1478 1568 
L 1478 3040 
z
M 1011 3501 
L 1011 595 
L 1478 595 
L 1478 1107 
L 3635 1107 
L 3635 3501 
L 1011 3501 
z
" transform="scale(0.015625)"/>
      <path id="NotoSansCJKjp-Regular-8282" d="M 627 3110 
L 627 2650 
L 2304 2650 
L 2304 -499 
L 2810 -499 
L 2810 2650 
L 4941 2650 
L 4941 986 
C 4941 890 4902 864 4781 858 
C 4653 851 4218 851 3750 864 
C 3814 717 3878 512 3898 365 
C 4506 365 4902 365 5139 442 
C 5370 525 5434 678 5434 973 
L 5434 3110 
L 627 3110 
z
M 4058 5376 
L 4058 4653 
L 2342 4653 
L 2342 5376 
L 1850 5376 
L 1850 4653 
L 352 4653 
L 352 4192 
L 1850 4192 
L 1850 3456 
L 2342 3456 
L 2342 4192 
L 4058 4192 
L 4058 3456 
L 4557 3456 
L 4557 4192 
L 6054 4192 
L 6054 4653 
L 4557 4653 
L 4557 5376 
L 4058 5376 
z
" transform="scale(0.015625)"/>
      <path id="NotoSansCJKjp-Regular-70b9" d="M 1517 2976 
L 4864 2976 
L 4864 1830 
L 1517 1830 
L 1517 2976 
z
M 2176 819 
C 2259 403 2310 -134 2310 -454 
L 2797 -390 
C 2790 -83 2726 448 2630 858 
L 2176 819 
z
M 3501 813 
C 3686 416 3878 -122 3949 -442 
L 4416 -320 
C 4339 0 4134 518 3936 909 
L 3501 813 
z
M 4806 864 
C 5126 461 5485 -109 5632 -461 
L 6086 -269 
C 5926 83 5555 627 5235 1030 
L 4806 864 
z
M 1133 992 
C 934 518 608 0 269 -294 
L 704 -506 
C 1056 -166 1382 371 1587 870 
L 1133 992 
z
M 1062 3430 
L 1062 1382 
L 5344 1382 
L 5344 3430 
L 3392 3430 
L 3392 4243 
L 5824 4243 
L 5824 4698 
L 3392 4698 
L 3392 5376 
L 2912 5376 
L 2912 3430 
L 1062 3430 
z
" transform="scale(0.015625)"/>
     </defs>
     <use xlink:href="#NotoSansCJKjp-Regular-76f4"/>
     <use xlink:href="#NotoSansCJKjp-Regular-81f3" transform="translate(99.999985 0)"/>
     <use xlink:href="#NotoSansCJKjp-Regular-65e0" transform="translate(199.999969 0)"/>
     <use xlink:href="#NotoSansCJKjp-Regular-53ef" transform="translate(299.999954 0)"/>
     <use xlink:href="#NotoSansCJKjp-Regular-878d" transform="translate(399.999939 0)"/>
     <use xlink:href="#NotoSansCJKjp-Regular-5408" transform="translate(499.999924 0)"/>
     <use xlink:href="#NotoSansCJKjp-Regular-8282" transform="translate(599.999908 0)"/>
     <use xlink:href="#NotoSansCJKjp-Regular-70b9" transform="translate(699.999893 0)"/>
    </g>
   </g>
   <g id="text_8">
    <!-- GPU -->
    <g style="fill: #757575" transform="translate(486.921875 240.391375) scale(0.08 -0.08)">
     <defs>
      <path id="NotoSansCJKjp-Bold-47" d="M 2618 -90 
C 3270 -90 3834 160 4160 480 
L 4160 2618 
L 2470 2618 
L 2470 1843 
L 3309 1843 
L 3309 909 
C 3181 794 2944 730 2720 730 
C 1786 730 1318 1350 1318 2381 
C 1318 3398 1856 4013 2650 4013 
C 3072 4013 3341 3840 3578 3616 
L 4083 4218 
C 3776 4531 3302 4826 2618 4826 
C 1357 4826 346 3910 346 2349 
C 346 768 1331 -90 2618 -90 
z
" transform="scale(0.015625)"/>
      <path id="NotoSansCJKjp-Bold-50" d="M 582 0 
L 1530 0 
L 1530 1683 
L 2163 1683 
C 3181 1683 3994 2170 3994 3251 
C 3994 4371 3187 4742 2138 4742 
L 582 4742 
L 582 0 
z
M 1530 2432 
L 1530 3987 
L 2067 3987 
C 2720 3987 3066 3802 3066 3251 
C 3066 2707 2752 2432 2099 2432 
L 1530 2432 
z
" transform="scale(0.015625)"/>
      <path id="NotoSansCJKjp-Bold-55" d="M 2406 -90 
C 3558 -90 4230 563 4230 2131 
L 4230 4742 
L 3322 4742 
L 3322 2048 
C 3322 1062 2957 730 2406 730 
C 1850 730 1504 1062 1504 2048 
L 1504 4742 
L 563 4742 
L 563 2131 
C 563 563 1242 -90 2406 -90 
z
" transform="scale(0.015625)"/>
     </defs>
     <use xlink:href="#NotoSansCJKjp-Bold-47"/>
     <use xlink:href="#NotoSansCJKjp-Bold-50" transform="translate(71.699982 0)"/>
     <use xlink:href="#NotoSansCJKjp-Bold-55" transform="translate(138.399979 0)"/>
    </g>
    <!-- or -->
    <g style="fill: #757575" transform="translate(491.2025 249.771875) scale(0.08 -0.08)">
     <use xlink:href="#NotoSansCJKjp-Bold-6f"/>
     <use xlink:href="#NotoSansCJKjp-Bold-72" transform="translate(62.599991 0)"/>
    </g>
    <!-- CPU? -->
    <g style="fill: #757575" transform="translate(485.11 259.152375) scale(0.08 -0.08)">
     <defs>
      <path id="NotoSansCJKjp-Bold-43" d="M 2509 -90 
C 3130 -90 3635 154 4026 608 
L 3520 1197 
C 3270 922 2957 730 2547 730 
C 1798 730 1318 1350 1318 2381 
C 1318 3398 1850 4013 2566 4013 
C 2925 4013 3200 3846 3443 3616 
L 3936 4218 
C 3629 4538 3155 4826 2547 4826 
C 1350 4826 346 3910 346 2349 
C 346 768 1318 -90 2509 -90 
z
" transform="scale(0.015625)"/>
      <path id="NotoSansCJKjp-Bold-3f" d="M 1133 1613 
L 1952 1613 
C 1856 2515 2976 2822 2976 3731 
C 2976 4550 2406 4954 1638 4954 
C 1082 4954 621 4685 288 4307 
L 813 3827 
C 1018 4051 1242 4192 1523 4192 
C 1856 4192 2067 3987 2067 3667 
C 2067 3059 979 2650 1133 1613 
z
M 1549 -90 
C 1882 -90 2131 179 2131 525 
C 2131 877 1882 1139 1549 1139 
C 1210 1139 960 877 960 525 
C 960 179 1210 -90 1549 -90 
z
" transform="scale(0.015625)"/>
     </defs>
     <use xlink:href="#NotoSansCJKjp-Bold-43"/>
     <use xlink:href="#NotoSansCJKjp-Bold-50" transform="translate(65.599991 0)"/>
     <use xlink:href="#NotoSansCJKjp-Bold-55" transform="translate(132.299988 0)"/>
     <use xlink:href="#NotoSansCJKjp-Bold-3f" transform="translate(207.099976 0)"/>
    </g>
   </g>
   <g id="patch_14">
    <path d="M 534.650885 247.44 
Q 544.275499 247.44 552.223063 247.44 
" style="fill: none; stroke: #616161; stroke-width: 1.5; stroke-linecap: round"/>
    <path d="M 547.823063 245.24 
L 552.223063 247.44 
L 547.823063 249.64 
" style="fill: none; stroke: #616161; stroke-width: 1.5; stroke-linecap: round"/>
   </g>
   <g id="patch_15">
    <path d="M 456.249115 247.44 
Q 446.624501 247.44 438.676937 247.44 
" style="fill: none; stroke: #616161; stroke-width: 1.5; stroke-linecap: round"/>
    <path d="M 443.076937 249.64 
L 438.676937 247.44 
L 443.076937 245.24 
" style="fill: none; stroke: #616161; stroke-width: 1.5; stroke-linecap: round"/>
   </g>
   <g id="text_9">
    <!-- TritonScheduling -->
    <g style="fill: #9c27b0" transform="translate(574.5 244.74175) scale(0.08 -0.08)">
     <defs>
      <path id="NotoSansCJKjp-Bold-54" d="M 1523 0 
L 2470 0 
L 2470 3949 
L 3808 3949 
L 3808 4742 
L 192 4742 
L 192 3949 
L 1523 3949 
L 1523 0 
z
" transform="scale(0.015625)"/>
      <path id="NotoSansCJKjp-Bold-74" d="M 1818 -90 
C 2131 -90 2381 -13 2579 45 
L 2419 730 
C 2323 691 2182 653 2067 653 
C 1747 653 1574 845 1574 1254 
L 1574 2842 
L 2464 2842 
L 2464 3584 
L 1574 3584 
L 1574 4550 
L 800 4550 
L 691 3584 
L 134 3539 
L 134 2842 
L 640 2842 
L 640 1248 
C 640 454 966 -90 1818 -90 
z
" transform="scale(0.015625)"/>
     </defs>
     <use xlink:href="#NotoSansCJKjp-Bold-54"/>
     <use xlink:href="#NotoSansCJKjp-Bold-72" transform="translate(62.499985 0)"/>
     <use xlink:href="#NotoSansCJKjp-Bold-69" transform="translate(106.099976 0)"/>
     <use xlink:href="#NotoSansCJKjp-Bold-74" transform="translate(136.499969 0)"/>
     <use xlink:href="#NotoSansCJKjp-Bold-6f" transform="translate(178.59996 0)"/>
     <use xlink:href="#NotoSansCJKjp-Bold-6e" transform="translate(241.199951 0)"/>
     <use xlink:href="#NotoSansCJKjp-Bold-53" transform="translate(305.299942 0)"/>
     <use xlink:href="#NotoSansCJKjp-Bold-63" transform="translate(367.699936 0)"/>
     <use xlink:href="#NotoSansCJKjp-Bold-68" transform="translate(420.399933 0)"/>
     <use xlink:href="#NotoSansCJKjp-Bold-65" transform="translate(484.399918 0)"/>
     <use xlink:href="#NotoSansCJKjp-Bold-64" transform="translate(542.499908 0)"/>
     <use xlink:href="#NotoSansCJKjp-Bold-75" transform="translate(606.899902 0)"/>
     <use xlink:href="#NotoSansCJKjp-Bold-6c" transform="translate(670.599899 0)"/>
     <use xlink:href="#NotoSansCJKjp-Bold-69" transform="translate(702.099884 0)"/>
     <use xlink:href="#NotoSansCJKjp-Bold-6e" transform="translate(732.499878 0)"/>
     <use xlink:href="#NotoSansCJKjp-Bold-67" transform="translate(796.599869 0)"/>
    </g>
    <!-- (codegen/triton.py) -->
    <g style="fill: #9c27b0" transform="translate(574.5 254.682) scale(0.08 -0.08)">
     <defs>
      <path id="NotoSansCJKjp-Bold-2f" d="M 90 -1158 
L 717 -1158 
L 2304 5158 
L 1683 5158 
L 90 -1158 
z
" transform="scale(0.015625)"/>
      <path id="NotoSansCJKjp-Bold-70" d="M 506 -1376 
L 1446 -1376 
L 1446 -282 
L 1414 301 
C 1683 51 1990 -90 2304 -90 
C 3091 -90 3827 621 3827 1850 
C 3827 2950 3296 3674 2419 3674 
C 2029 3674 1664 3469 1363 3213 
L 1344 3213 
L 1274 3584 
L 506 3584 
L 506 -1376 
z
M 2099 685 
C 1901 685 1677 755 1446 954 
L 1446 2534 
C 1690 2778 1907 2899 2150 2899 
C 2643 2899 2861 2522 2861 1837 
C 2861 1056 2522 685 2099 685 
z
" transform="scale(0.015625)"/>
      <path id="NotoSansCJKjp-Bold-79" d="M 819 -1434 
C 1619 -1434 2003 -954 2317 -109 
L 3590 3584 
L 2688 3584 
L 2195 1920 
C 2106 1587 2016 1242 1939 909 
L 1907 909 
C 1805 1254 1715 1600 1606 1920 
L 1037 3584 
L 90 3584 
L 1485 70 
L 1421 -147 
C 1318 -461 1114 -691 749 -691 
C 666 -691 563 -666 499 -646 
L 326 -1370 
C 467 -1408 608 -1434 819 -1434 
z
" transform="scale(0.015625)"/>
     </defs>
     <use xlink:href="#NotoSansCJKjp-Bold-28"/>
     <use xlink:href="#NotoSansCJKjp-Bold-63" transform="translate(37.799988 0)"/>
     <use xlink:href="#NotoSansCJKjp-Bold-6f" transform="translate(90.499985 0)"/>
     <use xlink:href="#NotoSansCJKjp-Bold-64" transform="translate(153.099976 0)"/>
     <use xlink:href="#NotoSansCJKjp-Bold-65" transform="translate(217.499969 0)"/>
     <use xlink:href="#NotoSansCJKjp-Bold-67" transform="translate(275.59996 0)"/>
     <use xlink:href="#NotoSansCJKjp-Bold-65" transform="translate(335.299957 0)"/>
     <use xlink:href="#NotoSansCJKjp-Bold-6e" transform="translate(393.399948 0)"/>
     <use xlink:href="#NotoSansCJKjp-Bold-2f" transform="translate(457.499939 0)"/>
     <use xlink:href="#NotoSansCJKjp-Bold-74" transform="translate(496.199936 0)"/>
     <use xlink:href="#NotoSansCJKjp-Bold-72" transform="translate(538.299927 0)"/>
     <use xlink:href="#NotoSansCJKjp-Bold-69" transform="translate(581.899918 0)"/>
     <use xlink:href="#NotoSansCJKjp-Bold-74" transform="translate(612.299911 0)"/>
     <use xlink:href="#NotoSansCJKjp-Bold-6f" transform="translate(654.399902 0)"/>
     <use xlink:href="#NotoSansCJKjp-Bold-6e" transform="translate(716.999893 0)"/>
     <use xlink:href="#NotoSansCJKjp-Bold-2e" transform="translate(781.099884 0)"/>
     <use xlink:href="#NotoSansCJKjp-Bold-70" transform="translate(813.599869 0)"/>
     <use xlink:href="#NotoSansCJKjp-Bold-79" transform="translate(877.999863 0)"/>
     <use xlink:href="#NotoSansCJKjp-Bold-29" transform="translate(935.399857 0)"/>
    </g>
   </g>
   <g id="text_10">
    <!-- CPPScheduling -->
    <g style="fill: #e2882c" transform="translate(356.39875 244.74175) scale(0.08 -0.08)">
     <use xlink:href="#NotoSansCJKjp-Bold-43"/>
     <use xlink:href="#NotoSansCJKjp-Bold-50" transform="translate(65.599991 0)"/>
     <use xlink:href="#NotoSansCJKjp-Bold-50" transform="translate(132.299988 0)"/>
     <use xlink:href="#NotoSansCJKjp-Bold-53" transform="translate(198.999985 0)"/>
     <use xlink:href="#NotoSansCJKjp-Bold-63" transform="translate(261.399979 0)"/>
     <use xlink:href="#NotoSansCJKjp-Bold-68" transform="translate(314.099976 0)"/>
     <use xlink:href="#NotoSansCJKjp-Bold-65" transform="translate(378.09996 0)"/>
     <use xlink:href="#NotoSansCJKjp-Bold-64" transform="translate(436.199951 0)"/>
     <use xlink:href="#NotoSansCJKjp-Bold-75" transform="translate(500.599945 0)"/>
     <use xlink:href="#NotoSansCJKjp-Bold-6c" transform="translate(564.299942 0)"/>
     <use xlink:href="#NotoSansCJKjp-Bold-69" transform="translate(595.799927 0)"/>
     <use xlink:href="#NotoSansCJKjp-Bold-6e" transform="translate(626.199921 0)"/>
     <use xlink:href="#NotoSansCJKjp-Bold-67" transform="translate(690.299911 0)"/>
    </g>
    <!-- (codegen/cpp.py) -->
    <g style="fill: #e2882c" transform="translate(346.815 254.682) scale(0.08 -0.08)">
     <use xlink:href="#NotoSansCJKjp-Bold-28"/>
     <use xlink:href="#NotoSansCJKjp-Bold-63" transform="translate(37.799988 0)"/>
     <use xlink:href="#NotoSansCJKjp-Bold-6f" transform="translate(90.499985 0)"/>
     <use xlink:href="#NotoSansCJKjp-Bold-64" transform="translate(153.099976 0)"/>
     <use xlink:href="#NotoSansCJKjp-Bold-65" transform="translate(217.499969 0)"/>
     <use xlink:href="#NotoSansCJKjp-Bold-67" transform="translate(275.59996 0)"/>
     <use xlink:href="#NotoSansCJKjp-Bold-65" transform="translate(335.299957 0)"/>
     <use xlink:href="#NotoSansCJKjp-Bold-6e" transform="translate(393.399948 0)"/>
     <use xlink:href="#NotoSansCJKjp-Bold-2f" transform="translate(457.499939 0)"/>
     <use xlink:href="#NotoSansCJKjp-Bold-63" transform="translate(496.199936 0)"/>
     <use xlink:href="#NotoSansCJKjp-Bold-70" transform="translate(548.899933 0)"/>
     <use xlink:href="#NotoSansCJKjp-Bold-70" transform="translate(613.299927 0)"/>
     <use xlink:href="#NotoSansCJKjp-Bold-2e" transform="translate(677.699921 0)"/>
     <use xlink:href="#NotoSansCJKjp-Bold-70" transform="translate(710.199905 0)"/>
     <use xlink:href="#NotoSansCJKjp-Bold-79" transform="translate(774.599899 0)"/>
     <use xlink:href="#NotoSansCJKjp-Bold-29" transform="translate(831.999893 0)"/>
    </g>
   </g>
  </g>
 </g>
 <defs>
  <clipPath id="p033a85be92">
   <rect x="7.2" y="7.2" width="558" height="277.2"/>
  </clipPath>
 </defs>
</svg>
