<?xml version="1.0" encoding="utf-8" standalone="no"?>
<!DOCTYPE svg PUBLIC "-//W3C//DTD SVG 1.1//EN"
  "http://www.w3.org/Graphics/SVG/1.1/DTD/svg11.dtd">
<svg xmlns:xlink="http://www.w3.org/1999/xlink" width="628.2pt" height="263.88pt" viewBox="0 0 628.2 263.88" xmlns="http://www.w3.org/2000/svg" version="1.1">
 <metadata>
  <rdf:RDF xmlns:dc="http://purl.org/dc/elements/1.1/" xmlns:cc="http://creativecommons.org/ns#" xmlns:rdf="http://www.w3.org/1999/02/22-rdf-syntax-ns#">
   <cc:Work>
    <dc:type rdf:resource="http://purl.org/dc/dcmitype/StillImage"/>
    <dc:date>2026-07-11T14:01:24.593203</dc:date>
    <dc:format>image/svg+xml</dc:format>
    <dc:creator>
     <cc:Agent>
      <dc:title>Matplotlib v3.10.9, https://matplotlib.org/</dc:title>
     </cc:Agent>
    </dc:creator>
   </cc:Work>
  </rdf:RDF>
 </metadata>
 <defs>
  <style type="text/css">*{stroke-linejoin: round; stroke-linecap: butt}</style>
 </defs>
 <g id="figure_1">
  <g id="patch_1">
   <path d="M 0 263.88 
L 628.2 263.88 
L 628.2 0 
L 0 0 
z
" style="fill: #ffffff"/>
  </g>
  <g id="axes_1">
   <g id="patch_2">
    <path d="M 22.545 135.93168 
L 114.615 135.93168 
Q 118.707 135.93168 118.707 131.94 
L 118.707 62.0856 
Q 118.707 58.09392 114.615 58.09392 
L 22.545 58.09392 
Q 18.453 58.09392 18.453 62.0856 
L 18.453 131.94 
Q 18.453 135.93168 22.545 135.93168 
z
" clip-path="url(#pe142d86ce7)" style="fill: #4a9eff; opacity: 0.1; stroke: #4a9eff; stroke-width: 2; stroke-linejoin: miter"/>
   </g>
   <g id="patch_3">
    <path d="M 129.96 135.93168 
L 222.03 135.93168 
Q 226.122 135.93168 226.122 131.94 
L 226.122 62.0856 
Q 226.122 58.09392 222.03 58.09392 
L 129.96 58.09392 
Q 125.868 58.09392 125.868 62.0856 
L 125.868 131.94 
Q 125.868 135.93168 129.96 135.93168 
z
" clip-path="url(#pe142d86ce7)" style="fill: #6abf69; opacity: 0.1; stroke: #6abf69; stroke-width: 2; stroke-linejoin: miter"/>
   </g>
   <g id="patch_4">
    <path d="M 237.375 135.93168 
L 329.445 135.93168 
Q 333.537 135.93168 333.537 131.94 
L 333.537 62.0856 
Q 333.537 58.09392 329.445 58.09392 
L 237.375 58.09392 
Q 233.283 58.09392 233.283 62.0856 
L 233.283 131.94 
Q 233.283 135.93168 237.375 135.93168 
z
" clip-path="url(#pe142d86ce7)" style="fill: #ffa94d; opacity: 0.1; stroke: #ffa94d; stroke-width: 2; stroke-linejoin: miter"/>
   </g>
   <g id="patch_5">
    <path d="M 344.79 135.93168 
L 436.86 135.93168 
Q 440.952 135.93168 440.952 131.94 
L 440.952 62.0856 
Q 440.952 58.09392 436.86 58.09392 
L 344.79 58.09392 
Q 340.698 58.09392 340.698 62.0856 
L 340.698 131.94 
Q 340.698 135.93168 344.79 135.93168 
z
" clip-path="url(#pe142d86ce7)" style="fill: #ffa94d; opacity: 0.1; stroke: #ffa94d; stroke-width: 2; stroke-linejoin: miter"/>
   </g>
   <g id="patch_6">
    <path d="M 452.205 135.93168 
L 544.275 135.93168 
Q 548.367 135.93168 548.367 131.94 
L 548.367 62.0856 
Q 548.367 58.09392 544.275 58.09392 
L 452.205 58.09392 
Q 448.113 58.09392 448.113 62.0856 
L 448.113 131.94 
Q 448.113 135.93168 452.205 135.93168 
z
" clip-path="url(#pe142d86ce7)" style="fill: #d94f8a; opacity: 0.1; stroke: #d94f8a; stroke-width: 2; stroke-linejoin: miter"/>
   </g>
   <g id="patch_7">
    <path d="M 76.2525 235.72368 
L 178.5525 235.72368 
Q 182.6445 235.72368 182.6445 231.732 
L 182.6445 171.8568 
Q 182.6445 167.86512 178.5525 167.86512 
L 76.2525 167.86512 
Q 72.1605 167.86512 72.1605 171.8568 
L 72.1605 231.732 
Q 72.1605 235.72368 76.2525 235.72368 
z
" clip-path="url(#pe142d86ce7)" style="fill: #d94f8a; opacity: 0.1; stroke: #d94f8a; stroke-width: 2; stroke-linejoin: miter"/>
   </g>
   <g id="patch_8">
    <path d="M 201.57 235.72368 
L 303.87 235.72368 
Q 307.962 235.72368 307.962 231.732 
L 307.962 171.8568 
Q 307.962 167.86512 303.87 167.86512 
L 201.57 167.86512 
Q 197.478 167.86512 197.478 171.8568 
L 197.478 231.732 
Q 197.478 235.72368 201.57 235.72368 
z
" clip-path="url(#pe142d86ce7)" style="fill: #b07cd8; opacity: 0.1; stroke: #b07cd8; stroke-width: 2; stroke-linejoin: miter"/>
   </g>
   <g id="patch_9">
    <path d="M 324.33 235.72368 
L 426.63 235.72368 
Q 430.722 235.72368 430.722 231.732 
L 430.722 171.8568 
Q 430.722 167.86512 426.63 167.86512 
L 324.33 167.86512 
Q 320.238 167.86512 320.238 171.8568 
L 320.238 231.732 
Q 320.238 235.72368 324.33 235.72368 
z
" clip-path="url(#pe142d86ce7)" style="fill: #b07cd8; opacity: 0.1; stroke: #b07cd8; stroke-width: 2; stroke-linejoin: miter"/>
   </g>
   <g id="line2d_1">
    <path d="M 211.8 246.7008 
L 211.8 17.1792 
" clip-path="url(#pe142d86ce7)" style="fill: none; stroke-dasharray: 1.5,2.475; stroke-dashoffset: 0; stroke: #e0e0e0; stroke-width: 1.5"/>
   </g>
   <g id="line2d_2">
    <path d="M 416.4 246.7008 
L 416.4 17.1792 
" clip-path="url(#pe142d86ce7)" style="fill: none; stroke-dasharray: 1.5,2.475; stroke-dashoffset: 0; stroke: #e0e0e0; stroke-width: 1.5"/>
   </g>
   <g id="text_1">
    <!-- Python AST -->
    <g style="fill: #4a9eff" transform="translate(48.679219 94.649753) scale(0.07 -0.07)">
     <defs>
      <path id="NotoSansCJKjp-Bold-50" d="M 582 0 
L 1530 0 
L 1530 1683 
L 2163 1683 
C 3181 1683 3994 2170 3994 3251 
C 3994 4371 3187 4742 2138 4742 
L 582 4742 
L 582 0 
z
M 1530 2432 
L 1530 3987 
L 2067 3987 
C 2720 3987 3066 3802 3066 3251 
C 3066 2707 2752 2432 2099 2432 
L 1530 2432 
z
" transform="scale(0.015625)"/>
      <path id="NotoSansCJKjp-Bold-79" d="M 819 -1434 
C 1619 -1434 2003 -954 2317 -109 
L 3590 3584 
L 2688 3584 
L 2195 1920 
C 2106 1587 2016 1242 1939 909 
L 1907 909 
C 1805 1254 1715 1600 1606 1920 
L 1037 3584 
L 90 3584 
L 1485 70 
L 1421 -147 
C 1318 -461 1114 -691 749 -691 
C 666 -691 563 -666 499 -646 
L 326 -1370 
C 467 -1408 608 -1434 819 -1434 
z
" transform="scale(0.015625)"/>
      <path id="NotoSansCJKjp-Bold-74" d="M 1818 -90 
C 2131 -90 2381 -13 2579 45 
L 2419 730 
C 2323 691 2182 653 2067 653 
C 1747 653 1574 845 1574 1254 
L 1574 2842 
L 2464 2842 
L 2464 3584 
L 1574 3584 
L 1574 4550 
L 800 4550 
L 691 3584 
L 134 3539 
L 134 2842 
L 640 2842 
L 640 1248 
C 640 454 966 -90 1818 -90 
z
" transform="scale(0.015625)"/>
      <path id="NotoSansCJKjp-Bold-68" d="M 506 0 
L 1446 0 
L 1446 2464 
C 1709 2726 1901 2867 2189 2867 
C 2541 2867 2694 2675 2694 2118 
L 2694 0 
L 3635 0 
L 3635 2234 
C 3635 3136 3302 3674 2528 3674 
C 2042 3674 1683 3418 1402 3149 
L 1446 3821 
L 1446 5107 
L 506 5107 
L 506 0 
z
" transform="scale(0.015625)"/>
      <path id="NotoSansCJKjp-Bold-6f" d="M 2003 -90 
C 2899 -90 3725 602 3725 1792 
C 3725 2982 2899 3674 2003 3674 
C 1101 3674 282 2982 282 1792 
C 282 602 1101 -90 2003 -90 
z
M 2003 678 
C 1510 678 1242 1114 1242 1792 
C 1242 2464 1510 2906 2003 2906 
C 2490 2906 2765 2464 2765 1792 
C 2765 1114 2490 678 2003 678 
z
" transform="scale(0.015625)"/>
      <path id="NotoSansCJKjp-Bold-6e" d="M 506 0 
L 1446 0 
L 1446 2464 
C 1709 2726 1901 2867 2189 2867 
C 2541 2867 2694 2675 2694 2118 
L 2694 0 
L 3635 0 
L 3635 2234 
C 3635 3136 3302 3674 2528 3674 
C 2042 3674 1677 3418 1363 3110 
L 1344 3110 
L 1274 3584 
L 506 3584 
L 506 0 
z
" transform="scale(0.015625)"/>
      <path id="NotoSansCJKjp-Bold-20" transform="scale(0.015625)"/>
      <path id="NotoSansCJKjp-Bold-41" d="M -26 0 
L 934 0 
L 1267 1216 
L 2797 1216 
L 3130 0 
L 4128 0 
L 2611 4742 
L 1491 4742 
L -26 0 
z
M 1472 1952 
L 1613 2470 
C 1754 2963 1888 3501 2016 4019 
L 2042 4019 
C 2182 3514 2310 2963 2458 2470 
L 2598 1952 
L 1472 1952 
z
" transform="scale(0.015625)"/>
      <path id="NotoSansCJKjp-Bold-53" d="M 1997 -90 
C 3091 -90 3738 570 3738 1344 
C 3738 2029 3360 2400 2784 2637 
L 2163 2886 
C 1760 3053 1427 3174 1427 3514 
C 1427 3827 1683 4013 2099 4013 
C 2496 4013 2810 3866 3110 3622 
L 3590 4211 
C 3206 4602 2656 4826 2099 4826 
C 1146 4826 461 4224 461 3456 
C 461 2765 947 2381 1427 2189 
L 2054 1914 
C 2477 1734 2771 1626 2771 1274 
C 2771 941 2509 730 2016 730 
C 1600 730 1146 941 813 1254 
L 269 602 
C 730 154 1363 -90 1997 -90 
z
" transform="scale(0.015625)"/>
      <path id="NotoSansCJKjp-Bold-54" d="M 1523 0 
L 2470 0 
L 2470 3949 
L 3808 3949 
L 3808 4742 
L 192 4742 
L 192 3949 
L 1523 3949 
L 1523 0 
z
" transform="scale(0.015625)"/>
     </defs>
     <use xlink:href="#NotoSansCJKjp-Bold-50"/>
     <use xlink:href="#NotoSansCJKjp-Bold-79" transform="translate(66.699997 0)"/>
     <use xlink:href="#NotoSansCJKjp-Bold-74" transform="translate(124.099991 0)"/>
     <use xlink:href="#NotoSansCJKjp-Bold-68" transform="translate(166.199982 0)"/>
     <use xlink:href="#NotoSansCJKjp-Bold-6f" transform="translate(230.199966 0)"/>
     <use xlink:href="#NotoSansCJKjp-Bold-6e" transform="translate(292.799957 0)"/>
     <use xlink:href="#NotoSansCJKjp-Bold-20" transform="translate(356.899948 0)"/>
     <use xlink:href="#NotoSansCJKjp-Bold-41" transform="translate(379.599945 0)"/>
     <use xlink:href="#NotoSansCJKjp-Bold-53" transform="translate(443.699936 0)"/>
     <use xlink:href="#NotoSansCJKjp-Bold-54" transform="translate(506.09993 0)"/>
    </g>
    <!-- @triton.jit 函数 -->
    <g style="fill: #4a9eff" transform="translate(42.544375 103.358191) scale(0.07 -0.07)">
     <defs>
      <path id="NotoSansCJKjp-Bold-40" d="M 3059 -1216 
C 3571 -1216 4032 -1107 4467 -864 
L 4256 -346 
C 3949 -506 3526 -634 3130 -634 
C 1971 -634 998 83 998 1510 
C 998 3162 2234 4237 3488 4237 
C 4883 4237 5485 3328 5485 2246 
C 5485 1414 5024 890 4582 890 
C 4237 890 4122 1107 4237 1574 
L 4550 3136 
L 3974 3136 
L 3872 2835 
L 3859 2835 
C 3731 3085 3539 3194 3296 3194 
C 2458 3194 1850 2298 1850 1440 
C 1850 774 2234 365 2778 365 
C 3085 365 3450 570 3661 851 
L 3680 851 
C 3744 493 4077 301 4486 301 
C 5222 301 6080 966 6080 2278 
C 6080 3770 5107 4813 3565 4813 
C 1830 4813 352 3494 352 1485 
C 352 -326 1613 -1216 3059 -1216 
z
M 2982 960 
C 2726 960 2560 1133 2560 1491 
C 2560 1958 2854 2579 3322 2579 
C 3488 2579 3603 2509 3699 2342 
L 3514 1318 
C 3309 1062 3149 960 2982 960 
z
" transform="scale(0.015625)"/>
      <path id="NotoSansCJKjp-Bold-72" d="M 506 0 
L 1446 0 
L 1446 2138 
C 1651 2656 1984 2842 2259 2842 
C 2413 2842 2515 2822 2643 2784 
L 2797 3597 
C 2694 3642 2579 3674 2381 3674 
C 2010 3674 1626 3418 1363 2950 
L 1344 2950 
L 1274 3584 
L 506 3584 
L 506 0 
z
" transform="scale(0.015625)"/>
      <path id="NotoSansCJKjp-Bold-69" d="M 506 0 
L 1446 0 
L 1446 3584 
L 506 3584 
L 506 0 
z
M 979 4166 
C 1299 4166 1523 4365 1523 4678 
C 1523 4986 1299 5190 979 5190 
C 646 5190 435 4986 435 4678 
C 435 4365 646 4166 979 4166 
z
" transform="scale(0.015625)"/>
      <path id="NotoSansCJKjp-Bold-2e" d="M 1043 -90 
C 1376 -90 1626 179 1626 525 
C 1626 877 1376 1139 1043 1139 
C 704 1139 454 877 454 525 
C 454 179 704 -90 1043 -90 
z
" transform="scale(0.015625)"/>
      <path id="NotoSansCJKjp-Bold-6a" d="M 256 -1466 
C 1158 -1466 1459 -864 1459 -90 
L 1459 3584 
L 512 3584 
L 512 -115 
C 512 -518 422 -723 122 -723 
C 13 -723 -83 -704 -179 -672 
L -346 -1363 
C -205 -1421 -19 -1466 256 -1466 
z
M 979 4166 
C 1306 4166 1530 4365 1530 4678 
C 1530 4986 1306 5190 979 5190 
C 659 5190 435 4986 435 4678 
C 435 4365 659 4166 979 4166 
z
" transform="scale(0.015625)"/>
      <path id="NotoSansCJKjp-Bold-51fd" d="M 5171 3834 
L 5171 442 
L 1235 442 
L 1235 1472 
L 1581 851 
C 1946 1094 2381 1389 2778 1677 
L 2586 2227 
C 2080 1939 1574 1658 1235 1485 
L 1235 3834 
L 506 3834 
L 506 -563 
L 1235 -563 
L 1235 -243 
L 5171 -243 
L 5171 -557 
L 5914 -557 
L 5914 3834 
L 5171 3834 
z
M 1338 3123 
C 1626 2874 1952 2515 2106 2278 
L 2598 2714 
C 2496 2861 2330 3040 2144 3219 
L 2752 3162 
L 2784 3283 
L 3091 3283 
C 3053 1830 2995 1299 2899 1165 
C 2842 1094 2797 1075 2707 1075 
C 2611 1075 2426 1075 2214 1094 
C 2310 928 2381 672 2394 493 
C 2656 480 2899 480 3059 506 
C 3238 538 3373 595 3494 762 
C 3584 883 3648 1146 3686 1664 
C 4064 1382 4467 1030 4672 794 
L 5120 1344 
C 4870 1600 4384 1978 3955 2253 
L 3712 1990 
L 3744 2637 
L 3776 3590 
C 3782 3680 3789 3878 3789 3878 
L 2938 3878 
L 3046 4352 
L 6074 4352 
L 6074 5075 
L 333 5075 
L 333 4352 
L 2336 4352 
C 2253 3974 2157 3590 2067 3290 
L 1811 3507 
L 1338 3123 
z
M 4422 3584 
C 4269 3296 3968 2886 3744 2637 
L 4224 2349 
C 4467 2566 4768 2918 5062 3238 
L 4422 3584 
z
" transform="scale(0.015625)"/>
      <path id="NotoSansCJKjp-Bold-6570" d="M 3917 5440 
C 3770 4294 3456 3200 2918 2541 
C 3053 2445 3277 2246 3424 2099 
L 3520 1997 
C 3629 2138 3725 2291 3821 2464 
C 3936 2003 4077 1574 4250 1190 
C 3968 794 3603 474 3123 224 
C 2970 333 2790 448 2592 563 
C 2746 813 2861 1114 2931 1478 
L 3424 1478 
L 3424 2099 
L 1901 2099 
L 2054 2406 
L 1779 2464 
L 2189 2464 
L 2189 3245 
C 2438 3046 2714 2822 2854 2682 
L 3258 3213 
C 3123 3309 2669 3578 2355 3750 
L 3405 3750 
L 3405 4358 
L 2797 4358 
C 2957 4550 3149 4832 3347 5101 
L 2701 5363 
C 2605 5120 2419 4768 2278 4544 
L 2701 4358 
L 2189 4358 
L 2189 5440 
L 1485 5440 
L 1485 4358 
L 954 4358 
L 1363 4538 
C 1306 4762 1139 5088 973 5331 
L 422 5101 
C 557 4870 698 4576 755 4358 
L 262 4358 
L 262 3750 
L 1261 3750 
C 960 3418 525 3110 134 2950 
C 275 2810 442 2560 525 2394 
C 845 2573 1190 2835 1485 3130 
L 1485 2522 
L 1344 2554 
L 1126 2099 
L 192 2099 
L 192 1478 
L 806 1478 
C 646 1171 486 883 346 659 
L 1018 454 
L 1088 576 
L 1446 403 
C 1139 230 736 122 218 51 
C 346 -102 480 -365 525 -582 
C 1210 -442 1728 -256 2106 32 
C 2368 -134 2598 -301 2771 -454 
L 3066 -160 
C 3168 -314 3270 -486 3315 -595 
C 3872 -320 4314 26 4666 448 
C 4954 38 5306 -307 5747 -563 
C 5862 -352 6106 -51 6278 102 
C 5811 346 5440 710 5146 1165 
C 5491 1818 5709 2611 5843 3571 
L 6202 3571 
L 6202 4282 
L 4493 4282 
C 4576 4621 4640 4973 4698 5331 
L 3917 5440 
z
M 1581 1478 
L 2202 1478 
C 2144 1248 2067 1056 1965 896 
C 1779 979 1587 1062 1402 1139 
L 1581 1478 
z
M 5050 3571 
C 4979 3002 4864 2496 4704 2061 
C 4525 2522 4397 3027 4307 3571 
L 5050 3571 
z
" transform="scale(0.015625)"/>
     </defs>
     <use xlink:href="#NotoSansCJKjp-Bold-40"/>
     <use xlink:href="#NotoSansCJKjp-Bold-74" transform="translate(100.699982 0)"/>
     <use xlink:href="#NotoSansCJKjp-Bold-72" transform="translate(142.799973 0)"/>
     <use xlink:href="#NotoSansCJKjp-Bold-69" transform="translate(186.399963 0)"/>
     <use xlink:href="#NotoSansCJKjp-Bold-74" transform="translate(216.799957 0)"/>
     <use xlink:href="#NotoSansCJKjp-Bold-6f" transform="translate(258.899948 0)"/>
     <use xlink:href="#NotoSansCJKjp-Bold-6e" transform="translate(321.499939 0)"/>
     <use xlink:href="#NotoSansCJKjp-Bold-2e" transform="translate(385.59993 0)"/>
     <use xlink:href="#NotoSansCJKjp-Bold-6a" transform="translate(418.099915 0)"/>
     <use xlink:href="#NotoSansCJKjp-Bold-69" transform="translate(448.699905 0)"/>
     <use xlink:href="#NotoSansCJKjp-Bold-74" transform="translate(479.099899 0)"/>
     <use xlink:href="#NotoSansCJKjp-Bold-20" transform="translate(521.19989 0)"/>
     <use xlink:href="#NotoSansCJKjp-Bold-51fd" transform="translate(543.899887 0)"/>
     <use xlink:href="#NotoSansCJKjp-Bold-6570" transform="translate(643.899872 0)"/>
    </g>
   </g>
   <g id="text_2">
    <!-- 类型推断 -->
    <g style="fill: #6abf69" transform="translate(161.995 94.858441) scale(0.07 -0.07)">
     <defs>
      <path id="NotoSansCJKjp-Bold-7c7b" d="M 1037 5030 
C 1242 4806 1453 4512 1587 4269 
L 435 4269 
L 435 3565 
L 2170 3565 
C 1664 3181 960 2874 243 2714 
C 410 2554 640 2253 749 2061 
C 1523 2285 2253 2688 2803 3213 
L 2803 2400 
L 3578 2400 
L 3578 3238 
C 4134 2707 4877 2330 5715 2131 
C 5818 2330 6029 2624 6195 2778 
C 5427 2912 4717 3194 4211 3565 
L 6035 3565 
L 6035 4269 
L 4755 4269 
C 4966 4499 5222 4806 5459 5120 
L 4634 5350 
C 4486 5056 4237 4653 4019 4378 
L 4339 4269 
L 3578 4269 
L 3578 5434 
L 2803 5434 
L 2803 4269 
L 2048 4269 
L 2381 4416 
C 2259 4685 1965 5056 1709 5318 
L 1037 5030 
z
M 2810 2272 
C 2790 2080 2771 1901 2739 1734 
L 378 1734 
L 378 1024 
L 2458 1024 
C 2144 595 1517 314 211 147 
C 358 -32 544 -365 608 -576 
C 2106 -333 2835 90 3213 704 
C 3738 -26 4512 -410 5747 -570 
C 5850 -339 6067 6 6240 186 
C 5120 262 4352 525 3885 1024 
L 6086 1024 
L 6086 1734 
L 4966 1734 
L 5242 1978 
C 5005 2125 4557 2323 4230 2451 
L 3802 2093 
C 4032 1997 4320 1862 4544 1734 
L 3546 1734 
C 3578 1907 3597 2086 3610 2272 
L 2810 2272 
z
" transform="scale(0.015625)"/>
      <path id="NotoSansCJKjp-Bold-578b" d="M 3910 5069 
L 3910 2893 
L 4614 2893 
L 4614 5069 
L 3910 5069 
z
M 5082 5363 
L 5082 2630 
C 5082 2547 5056 2528 4960 2528 
C 4870 2515 4557 2515 4262 2528 
C 4358 2342 4461 2048 4493 1856 
C 4941 1856 5274 1869 5510 1971 
C 5747 2086 5811 2266 5811 2618 
L 5811 5363 
L 5082 5363 
z
M 2330 4538 
L 2330 3866 
L 1786 3866 
L 1786 4538 
L 2330 4538 
z
M 947 1555 
L 947 858 
L 2803 858 
L 2803 346 
L 294 346 
L 294 -365 
L 6086 -365 
L 6086 346 
L 3590 346 
L 3590 858 
L 5446 858 
L 5446 1555 
L 3590 1555 
L 3590 2061 
L 3046 2061 
L 3046 3187 
L 3642 3187 
L 3642 3866 
L 3046 3866 
L 3046 4538 
L 3501 4538 
L 3501 5210 
L 576 5210 
L 576 4538 
L 1082 4538 
L 1082 3866 
L 358 3866 
L 358 3187 
L 1005 3187 
C 909 2867 691 2560 224 2317 
C 358 2208 621 1926 723 1779 
C 1363 2131 1632 2656 1734 3187 
L 2330 3187 
L 2330 1952 
L 2803 1952 
L 2803 1555 
L 947 1555 
z
" transform="scale(0.015625)"/>
      <path id="NotoSansCJKjp-Bold-63a8" d="M 4192 2349 
L 4192 1728 
L 3450 1728 
L 3450 2349 
L 4192 2349 
z
M 3136 5453 
C 2944 4736 2630 4045 2240 3520 
C 2144 3398 2048 3277 1946 3174 
C 2086 3014 2336 2662 2432 2496 
C 2528 2598 2624 2714 2714 2842 
L 2714 -563 
L 3450 -563 
L 3450 -250 
L 6189 -250 
L 6189 442 
L 4902 442 
L 4902 1082 
L 5901 1082 
L 5901 1728 
L 4902 1728 
L 4902 2349 
L 5901 2349 
L 5901 2989 
L 4902 2989 
L 4902 3597 
L 6067 3597 
L 6067 4269 
L 4979 4269 
C 5126 4576 5280 4922 5414 5261 
L 4602 5427 
C 4512 5082 4371 4640 4218 4269 
L 3514 4269 
C 3654 4595 3776 4928 3872 5267 
L 3136 5453 
z
M 4192 2989 
L 3450 2989 
L 3450 3597 
L 4192 3597 
L 4192 2989 
z
M 4192 1082 
L 4192 442 
L 3450 442 
L 3450 1082 
L 4192 1082 
z
M 1011 5434 
L 1011 4224 
L 262 4224 
L 262 3520 
L 1011 3520 
L 1011 2362 
C 685 2285 378 2214 134 2163 
L 294 1414 
L 1011 1613 
L 1011 294 
C 1011 198 979 173 896 173 
C 813 166 557 166 301 179 
C 397 -32 499 -365 518 -570 
C 960 -570 1261 -544 1478 -416 
C 1690 -294 1747 -90 1747 288 
L 1747 1824 
L 2317 1984 
L 2227 2669 
L 1747 2547 
L 1747 3520 
L 2240 3520 
L 2240 4224 
L 1747 4224 
L 1747 5434 
L 1011 5434 
z
" transform="scale(0.015625)"/>
      <path id="NotoSansCJKjp-Bold-65ad" d="M 1203 4819 
C 1318 4474 1408 4013 1414 3718 
L 1914 3878 
C 1894 4179 1798 4627 1664 4973 
L 1203 4819 
z
M 5581 5363 
C 5203 5158 4602 4954 4026 4806 
L 3578 4934 
L 3578 2694 
C 3578 2067 3539 1331 3258 672 
L 3258 710 
L 1069 710 
L 1069 1664 
C 1165 1491 1286 1248 1338 1075 
C 1562 1286 1773 1594 1958 1933 
L 1958 832 
L 2592 832 
L 2592 2150 
C 2752 1946 2906 1728 2995 1587 
L 3405 2106 
C 3283 2227 2765 2707 2592 2848 
L 2592 2944 
L 3360 2944 
L 3360 3584 
L 2592 3584 
L 2592 3846 
L 3014 3712 
C 3155 3994 3322 4442 3482 4832 
L 2886 4973 
C 2822 4653 2701 4198 2592 3891 
L 2592 5370 
L 1958 5370 
L 1958 3584 
L 1190 3584 
L 1190 2944 
L 1907 2944 
C 1702 2490 1382 2022 1069 1741 
L 1069 5216 
L 403 5216 
L 403 -403 
L 1069 -403 
L 1069 51 
L 2880 51 
L 2784 -64 
C 2963 -154 3238 -422 3334 -589 
C 4166 294 4301 1658 4307 2611 
L 4934 2611 
L 4934 -563 
L 5658 -563 
L 5658 2611 
L 6227 2611 
L 6227 3322 
L 4307 3322 
L 4307 4224 
C 4954 4365 5651 4557 6195 4800 
L 5581 5363 
z
" transform="scale(0.015625)"/>
     </defs>
     <use xlink:href="#NotoSansCJKjp-Bold-7c7b"/>
     <use xlink:href="#NotoSansCJKjp-Bold-578b" transform="translate(99.999985 0)"/>
     <use xlink:href="#NotoSansCJKjp-Bold-63a8" transform="translate(199.999969 0)"/>
     <use xlink:href="#NotoSansCJKjp-Bold-65ad" transform="translate(299.999954 0)"/>
    </g>
    <!-- Type Inference -->
    <g style="fill: #6abf69" transform="translate(150.302266 103.184503) scale(0.07 -0.07)">
     <defs>
      <path id="NotoSansCJKjp-Bold-70" d="M 506 -1376 
L 1446 -1376 
L 1446 -282 
L 1414 301 
C 1683 51 1990 -90 2304 -90 
C 3091 -90 3827 621 3827 1850 
C 3827 2950 3296 3674 2419 3674 
C 2029 3674 1664 3469 1363 3213 
L 1344 3213 
L 1274 3584 
L 506 3584 
L 506 -1376 
z
M 2099 685 
C 1901 685 1677 755 1446 954 
L 1446 2534 
C 1690 2778 1907 2899 2150 2899 
C 2643 2899 2861 2522 2861 1837 
C 2861 1056 2522 685 2099 685 
z
" transform="scale(0.015625)"/>
      <path id="NotoSansCJKjp-Bold-65" d="M 2067 -90 
C 2509 -90 2963 64 3315 307 
L 2995 883 
C 2733 723 2483 640 2195 640 
C 1658 640 1274 941 1197 1523 
L 3405 1523 
C 3430 1613 3450 1786 3450 1958 
C 3450 2957 2938 3674 1952 3674 
C 1101 3674 282 2950 282 1792 
C 282 608 1062 -90 2067 -90 
z
M 1178 2157 
C 1254 2675 1587 2944 1965 2944 
C 2432 2944 2643 2637 2643 2157 
L 1178 2157 
z
" transform="scale(0.015625)"/>
      <path id="NotoSansCJKjp-Bold-49" d="M 582 0 
L 1530 0 
L 1530 4742 
L 582 4742 
L 582 0 
z
" transform="scale(0.015625)"/>
      <path id="NotoSansCJKjp-Bold-66" d="M 179 2842 
L 666 2842 
L 666 0 
L 1600 0 
L 1600 2842 
L 2285 2842 
L 2285 3584 
L 1600 3584 
L 1600 3891 
C 1600 4288 1760 4454 2035 4454 
C 2163 4454 2298 4429 2419 4371 
L 2592 5075 
C 2432 5139 2189 5197 1907 5197 
C 1011 5197 666 4614 666 3872 
L 666 3578 
L 179 3539 
L 179 2842 
z
" transform="scale(0.015625)"/>
      <path id="NotoSansCJKjp-Bold-63" d="M 2029 -90 
C 2426 -90 2861 45 3200 346 
L 2829 966 
C 2630 800 2394 678 2131 678 
C 1613 678 1242 1114 1242 1792 
C 1242 2464 1613 2906 2163 2906 
C 2362 2906 2528 2822 2707 2675 
L 3155 3270 
C 2893 3507 2554 3674 2112 3674 
C 1139 3674 282 2982 282 1792 
C 282 602 1043 -90 2029 -90 
z
" transform="scale(0.015625)"/>
     </defs>
     <use xlink:href="#NotoSansCJKjp-Bold-54"/>
     <use xlink:href="#NotoSansCJKjp-Bold-79" transform="translate(62.499985 0)"/>
     <use xlink:href="#NotoSansCJKjp-Bold-70" transform="translate(119.899979 0)"/>
     <use xlink:href="#NotoSansCJKjp-Bold-65" transform="translate(184.299973 0)"/>
     <use xlink:href="#NotoSansCJKjp-Bold-20" transform="translate(242.399963 0)"/>
     <use xlink:href="#NotoSansCJKjp-Bold-49" transform="translate(265.09996 0)"/>
     <use xlink:href="#NotoSansCJKjp-Bold-6e" transform="translate(298.099945 0)"/>
     <use xlink:href="#NotoSansCJKjp-Bold-66" transform="translate(362.199936 0)"/>
     <use xlink:href="#NotoSansCJKjp-Bold-65" transform="translate(399.399933 0)"/>
     <use xlink:href="#NotoSansCJKjp-Bold-72" transform="translate(457.499924 0)"/>
     <use xlink:href="#NotoSansCJKjp-Bold-65" transform="translate(501.099915 0)"/>
     <use xlink:href="#NotoSansCJKjp-Bold-6e" transform="translate(559.199905 0)"/>
     <use xlink:href="#NotoSansCJKjp-Bold-63" transform="translate(623.299896 0)"/>
     <use xlink:href="#NotoSansCJKjp-Bold-65" transform="translate(675.999893 0)"/>
    </g>
   </g>
   <g id="text_3">
    <!-- TTIR 生成 -->
    <g style="fill: #ffa94d" transform="translate(267.698281 94.949222) scale(0.07 -0.07)">
     <defs>
      <path id="NotoSansCJKjp-Bold-52" d="M 1530 2541 
L 1530 3987 
L 2144 3987 
C 2752 3987 3085 3814 3085 3302 
C 3085 2797 2752 2541 2144 2541 
L 1530 2541 
z
M 3162 0 
L 4218 0 
L 3110 1939 
C 3654 2150 4013 2592 4013 3302 
C 4013 4390 3226 4742 2227 4742 
L 582 4742 
L 582 0 
L 1530 0 
L 1530 1792 
L 2189 1792 
L 3162 0 
z
" transform="scale(0.015625)"/>
      <path id="NotoSansCJKjp-Bold-751f" d="M 1331 5357 
C 1107 4474 691 3597 192 3053 
C 384 2950 730 2720 883 2592 
C 1094 2848 1293 3168 1478 3526 
L 2810 3526 
L 2810 2394 
L 1062 2394 
L 1062 1651 
L 2810 1651 
L 2810 358 
L 326 358 
L 326 -390 
L 6112 -390 
L 6112 358 
L 3616 358 
L 3616 1651 
L 5536 1651 
L 5536 2394 
L 3616 2394 
L 3616 3526 
L 5786 3526 
L 5786 4275 
L 3616 4275 
L 3616 5440 
L 2810 5440 
L 2810 4275 
L 1818 4275 
C 1939 4570 2042 4870 2125 5178 
L 1331 5357 
z
" transform="scale(0.015625)"/>
      <path id="NotoSansCJKjp-Bold-6210" d="M 3290 5427 
C 3290 5114 3302 4794 3315 4480 
L 691 4480 
L 691 2598 
C 691 1766 653 640 160 -128 
C 333 -218 678 -499 813 -653 
C 1344 134 1478 1389 1498 2330 
L 2336 2330 
C 2323 1523 2298 1210 2227 1120 
C 2182 1062 2118 1043 2035 1043 
C 1926 1043 1715 1050 1485 1069 
C 1594 877 1677 576 1690 352 
C 1990 346 2266 352 2438 378 
C 2624 410 2758 467 2886 627 
C 3034 819 3066 1395 3091 2746 
C 3091 2835 3091 3027 3091 3027 
L 1498 3027 
L 1498 3725 
L 3360 3725 
C 3443 2758 3584 1856 3808 1126 
C 3437 704 2995 352 2496 83 
C 2662 -64 2944 -384 3053 -550 
C 3450 -307 3808 -19 4134 320 
C 4416 -205 4781 -525 5229 -525 
C 5824 -525 6080 -243 6202 954 
C 5997 1030 5722 1210 5549 1382 
C 5517 576 5440 256 5293 256 
C 5082 256 4877 525 4698 986 
C 5165 1619 5536 2362 5805 3200 
L 5030 3386 
C 4877 2867 4672 2387 4416 1958 
C 4301 2477 4211 3078 4154 3725 
L 6144 3725 
L 6144 4480 
L 5478 4480 
L 5792 4806 
C 5555 5024 5088 5312 4736 5498 
L 4269 5037 
C 4531 4883 4858 4666 5088 4480 
L 4109 4480 
C 4096 4794 4090 5107 4096 5427 
L 3290 5427 
z
" transform="scale(0.015625)"/>
     </defs>
     <use xlink:href="#NotoSansCJKjp-Bold-54"/>
     <use xlink:href="#NotoSansCJKjp-Bold-54" transform="translate(62.499985 0)"/>
     <use xlink:href="#NotoSansCJKjp-Bold-49" transform="translate(124.999969 0)"/>
     <use xlink:href="#NotoSansCJKjp-Bold-52" transform="translate(157.999954 0)"/>
     <use xlink:href="#NotoSansCJKjp-Bold-20" transform="translate(226.199936 0)"/>
     <use xlink:href="#NotoSansCJKjp-Bold-751f" transform="translate(248.899933 0)"/>
     <use xlink:href="#NotoSansCJKjp-Bold-6210" transform="translate(348.899918 0)"/>
    </g>
    <!-- Triton IR -->
    <g style="fill: #ffa94d" transform="translate(268.388438 103.157159) scale(0.07 -0.07)">
     <use xlink:href="#NotoSansCJKjp-Bold-54"/>
     <use xlink:href="#NotoSansCJKjp-Bold-72" transform="translate(62.499985 0)"/>
     <use xlink:href="#NotoSansCJKjp-Bold-69" transform="translate(106.099976 0)"/>
     <use xlink:href="#NotoSansCJKjp-Bold-74" transform="translate(136.499969 0)"/>
     <use xlink:href="#NotoSansCJKjp-Bold-6f" transform="translate(178.59996 0)"/>
     <use xlink:href="#NotoSansCJKjp-Bold-6e" transform="translate(241.199951 0)"/>
     <use xlink:href="#NotoSansCJKjp-Bold-20" transform="translate(305.299942 0)"/>
     <use xlink:href="#NotoSansCJKjp-Bold-49" transform="translate(327.999939 0)"/>
     <use xlink:href="#NotoSansCJKjp-Bold-52" transform="translate(360.999924 0)"/>
    </g>
   </g>
   <g id="text_4">
    <!-- TTIR 优化 -->
    <g style="fill: #ffa94d" transform="translate(375.113281 90.769784) scale(0.07 -0.07)">
     <defs>
      <path id="NotoSansCJKjp-Bold-4f18" d="M 4000 2861 
L 4000 538 
C 4000 -186 4160 -422 4800 -422 
C 4922 -422 5286 -422 5408 -422 
C 5971 -422 6150 -109 6214 960 
C 6022 1018 5696 1139 5542 1267 
C 5517 422 5491 282 5338 282 
C 5254 282 4986 282 4922 282 
C 4774 282 4749 314 4749 538 
L 4749 2861 
L 4000 2861 
z
M 4467 4928 
C 4749 4634 5094 4230 5254 3968 
L 3936 3968 
C 3949 4416 3955 4877 3955 5350 
L 3194 5350 
C 3194 4877 3194 4410 3181 3968 
L 1888 3968 
L 1888 3245 
L 3142 3245 
C 3040 1888 2714 755 1651 26 
C 1850 -115 2086 -378 2208 -582 
C 3405 288 3776 1651 3898 3245 
L 6118 3245 
L 6118 3968 
L 5306 3968 
L 5843 4371 
C 5664 4634 5286 5030 4998 5306 
L 4467 4928 
z
M 1562 5414 
C 1242 4499 710 3597 147 3008 
C 275 2822 486 2400 557 2214 
C 678 2342 800 2483 915 2637 
L 915 -570 
L 1645 -570 
L 1645 3782 
C 1894 4237 2112 4723 2285 5190 
L 1562 5414 
z
" transform="scale(0.015625)"/>
      <path id="NotoSansCJKjp-Bold-5316" d="M 5453 4198 
C 5024 3834 4435 3418 3834 3072 
L 3834 5274 
L 3059 5274 
L 3059 666 
C 3059 -237 3290 -499 4096 -499 
C 4269 -499 5011 -499 5197 -499 
C 5958 -499 6163 -90 6253 1018 
C 6042 1062 5722 1210 5542 1344 
C 5491 435 5440 218 5126 218 
C 4973 218 4333 218 4192 218 
C 3878 218 3834 275 3834 659 
L 3834 2285 
C 4589 2643 5382 3078 6016 3526 
L 5453 4198 
z
M 1818 5350 
C 1427 4384 755 3437 58 2848 
C 198 2656 422 2227 506 2035 
C 717 2234 934 2464 1139 2714 
L 1139 -563 
L 1907 -563 
L 1907 3802 
C 2163 4224 2394 4666 2579 5101 
L 1818 5350 
z
" transform="scale(0.015625)"/>
     </defs>
     <use xlink:href="#NotoSansCJKjp-Bold-54"/>
     <use xlink:href="#NotoSansCJKjp-Bold-54" transform="translate(62.499985 0)"/>
     <use xlink:href="#NotoSansCJKjp-Bold-49" transform="translate(124.999969 0)"/>
     <use xlink:href="#NotoSansCJKjp-Bold-52" transform="translate(157.999954 0)"/>
     <use xlink:href="#NotoSansCJKjp-Bold-20" transform="translate(226.199936 0)"/>
     <use xlink:href="#NotoSansCJKjp-Bold-4f18" transform="translate(248.899933 0)"/>
     <use xlink:href="#NotoSansCJKjp-Bold-5316" transform="translate(348.899918 0)"/>
    </g>
    <!-- 循环展开/常量折叠 -->
    <g style="fill: #ffa94d" transform="translate(361.470391 99.128659) scale(0.07 -0.07)">
     <defs>
      <path id="NotoSansCJKjp-Bold-5faa" d="M 1421 5440 
C 1152 5018 621 4480 160 4154 
C 275 4019 467 3750 563 3597 
C 1094 3987 1696 4608 2099 5165 
L 1421 5440 
z
M 3245 2835 
L 3245 -576 
L 3930 -576 
L 3930 -352 
L 5242 -352 
L 5242 -538 
L 5952 -538 
L 5952 2835 
L 4845 2835 
L 4883 3315 
L 6195 3315 
L 6195 3955 
L 4928 3955 
L 4960 4595 
L 4883 4602 
C 5267 4672 5632 4749 5952 4838 
L 5434 5370 
C 4813 5171 3802 5005 2861 4890 
L 2298 5030 
L 2298 2995 
C 2298 2080 2253 832 1792 -77 
C 1971 -154 2259 -397 2368 -544 
C 2938 486 3014 2010 3014 2989 
L 3014 3315 
L 4186 3315 
L 4160 2835 
L 3245 2835 
z
M 3014 4339 
C 3405 4378 3808 4429 4211 4486 
L 4205 3955 
L 3014 3955 
L 3014 4339 
z
M 3930 1363 
L 5242 1363 
L 5242 1024 
L 3930 1024 
L 3930 1363 
z
M 3930 1882 
L 3930 2221 
L 5242 2221 
L 5242 1882 
L 3930 1882 
z
M 3930 160 
L 3930 512 
L 5242 512 
L 5242 160 
L 3930 160 
z
M 1536 4058 
C 1203 3430 640 2810 102 2406 
C 224 2240 435 1856 506 1696 
C 672 1830 838 1990 1005 2163 
L 1005 -576 
L 1722 -576 
L 1722 3027 
C 1907 3283 2067 3546 2208 3808 
L 1536 4058 
z
" transform="scale(0.015625)"/>
      <path id="NotoSansCJKjp-Bold-73af" d="M 154 819 
L 326 96 
C 902 282 1626 518 2291 742 
L 2170 1427 
L 1600 1248 
L 1600 2522 
L 2106 2522 
L 2106 3226 
L 1600 3226 
L 1600 4365 
L 2246 4365 
L 2246 5056 
L 211 5056 
L 211 4365 
L 890 4365 
L 890 3226 
L 301 3226 
L 301 2522 
L 890 2522 
L 890 1024 
L 154 819 
z
M 2483 5088 
L 2483 4358 
L 3955 4358 
C 3558 3322 2938 2355 2214 1747 
C 2387 1606 2682 1299 2810 1139 
C 3136 1453 3450 1837 3744 2272 
L 3744 -563 
L 4512 -563 
L 4512 2771 
C 4909 2266 5344 1658 5542 1254 
L 6182 1728 
C 5926 2182 5350 2899 4909 3411 
L 4512 3136 
L 4512 3648 
C 4621 3878 4717 4115 4806 4358 
L 6125 4358 
L 6125 5088 
L 2483 5088 
z
" transform="scale(0.015625)"/>
      <path id="NotoSansCJKjp-Bold-5c55" d="M 1562 211 
L 1670 -486 
C 2342 -384 3232 -256 4070 -122 
L 4045 397 
C 4461 -70 5018 -397 5747 -582 
C 5843 -384 6042 -96 6202 51 
C 5760 134 5382 269 5069 454 
C 5338 595 5645 774 5901 960 
L 5453 1267 
L 6125 1267 
L 6125 1914 
L 4922 1914 
L 4922 2355 
L 5843 2355 
L 5843 2995 
L 4922 2995 
L 4922 3411 
L 5786 3411 
L 5786 5165 
L 826 5165 
L 826 3264 
C 826 2240 781 787 141 -198 
C 333 -269 672 -474 826 -589 
C 1504 467 1606 2138 1606 3264 
L 1606 3411 
L 2541 3411 
L 2541 2995 
L 1734 2995 
L 1734 2355 
L 2541 2355 
L 2541 1914 
L 1562 1914 
L 1562 1267 
L 2221 1267 
L 2221 288 
L 1562 211 
z
M 3245 2355 
L 4205 2355 
L 4205 1914 
L 3245 1914 
L 3245 2355 
z
M 3245 2995 
L 3245 3411 
L 4205 3411 
L 4205 2995 
L 3245 2995 
z
M 2925 1267 
L 3488 1267 
C 3610 992 3763 742 3936 525 
L 2925 384 
L 2925 1267 
z
M 4218 1267 
L 5216 1267 
C 5030 1126 4787 966 4570 832 
C 4429 966 4314 1107 4218 1267 
z
M 1606 4512 
L 5011 4512 
L 5011 4064 
L 1606 4064 
L 1606 4512 
z
" transform="scale(0.015625)"/>
      <path id="NotoSansCJKjp-Bold-5f00" d="M 4000 4339 
L 4000 2771 
L 2534 2771 
L 2534 2957 
L 2534 4339 
L 4000 4339 
z
M 294 2771 
L 294 2035 
L 1677 2035 
C 1555 1280 1210 538 275 -26 
C 467 -154 762 -429 896 -602 
C 2010 102 2374 1069 2490 2035 
L 4000 2035 
L 4000 -576 
L 4806 -576 
L 4806 2035 
L 6125 2035 
L 6125 2771 
L 4806 2771 
L 4806 4339 
L 5939 4339 
L 5939 5069 
L 506 5069 
L 506 4339 
L 1741 4339 
L 1741 2963 
L 1741 2771 
L 294 2771 
z
" transform="scale(0.015625)"/>
      <path id="NotoSansCJKjp-Bold-2f" d="M 90 -1158 
L 717 -1158 
L 2304 5158 
L 1683 5158 
L 90 -1158 
z
" transform="scale(0.015625)"/>
      <path id="NotoSansCJKjp-Bold-5e38" d="M 2227 3053 
L 4141 3053 
L 4141 2650 
L 2227 2650 
L 2227 3053 
z
M 877 1728 
L 877 -288 
L 1658 -288 
L 1658 1043 
L 2874 1043 
L 2874 -576 
L 3667 -576 
L 3667 1043 
L 4819 1043 
L 4819 422 
C 4819 346 4794 326 4691 326 
C 4602 326 4262 326 3974 339 
C 4077 141 4186 -154 4224 -358 
C 4678 -358 5024 -358 5286 -250 
C 5542 -134 5613 58 5613 410 
L 5613 1728 
L 3667 1728 
L 3667 2112 
L 4922 2112 
L 4922 3590 
L 1491 3590 
L 1491 2112 
L 2874 2112 
L 2874 1728 
L 877 1728 
z
M 4704 5389 
C 4602 5184 4403 4883 4243 4685 
L 4589 4563 
L 3590 4563 
L 3590 5440 
L 2797 5440 
L 2797 4563 
L 1792 4563 
L 2125 4710 
C 2035 4909 1850 5197 1664 5402 
L 960 5126 
C 1088 4960 1222 4742 1318 4563 
L 454 4563 
L 454 3014 
L 1190 3014 
L 1190 3898 
L 5210 3898 
L 5210 3014 
L 5978 3014 
L 5978 4563 
L 5005 4563 
C 5165 4723 5350 4928 5536 5146 
L 4704 5389 
z
" transform="scale(0.015625)"/>
      <path id="NotoSansCJKjp-Bold-91cf" d="M 1843 4262 
L 4506 4262 
L 4506 4045 
L 1843 4045 
L 1843 4262 
z
M 1843 4851 
L 4506 4851 
L 4506 4634 
L 1843 4634 
L 1843 4851 
z
M 1107 5242 
L 1107 3654 
L 5280 3654 
L 5280 5242 
L 1107 5242 
z
M 294 3462 
L 294 2912 
L 6125 2912 
L 6125 3462 
L 294 3462 
z
M 1709 1709 
L 2822 1709 
L 2822 1485 
L 1709 1485 
L 1709 1709 
z
M 3565 1709 
L 4685 1709 
L 4685 1485 
L 3565 1485 
L 3565 1709 
z
M 1709 2317 
L 2822 2317 
L 2822 2093 
L 1709 2093 
L 1709 2317 
z
M 3565 2317 
L 4685 2317 
L 4685 2093 
L 3565 2093 
L 3565 2317 
z
M 282 141 
L 282 -416 
L 6138 -416 
L 6138 141 
L 3565 141 
L 3565 378 
L 5562 378 
L 5562 864 
L 3565 864 
L 3565 1075 
L 5440 1075 
L 5440 2720 
L 992 2720 
L 992 1075 
L 2822 1075 
L 2822 864 
L 858 864 
L 858 378 
L 2822 378 
L 2822 141 
L 282 141 
z
" transform="scale(0.015625)"/>
      <path id="NotoSansCJKjp-Bold-6298" d="M 2848 4960 
L 2848 2835 
C 2848 1926 2778 787 2035 -6 
C 2221 -109 2502 -378 2605 -550 
C 3418 288 3590 1587 3610 2554 
L 4531 2554 
L 4531 -570 
L 5293 -570 
L 5293 2554 
L 6195 2554 
L 6195 3283 
L 3616 3283 
L 3616 4230 
C 4435 4352 5338 4550 6035 4800 
L 5459 5414 
C 4979 5210 4256 5018 3539 4877 
L 2848 4960 
z
M 1043 5440 
L 1043 4230 
L 237 4230 
L 237 3520 
L 1043 3520 
L 1043 2381 
L 128 2170 
L 314 1434 
L 1043 1626 
L 1043 250 
C 1043 160 1005 134 922 128 
C 838 128 570 128 326 141 
C 416 -58 512 -371 538 -563 
C 992 -563 1299 -544 1510 -429 
C 1728 -307 1798 -122 1798 256 
L 1798 1824 
L 2541 2029 
L 2451 2733 
L 1798 2566 
L 1798 3520 
L 2445 3520 
L 2445 4230 
L 1798 4230 
L 1798 5440 
L 1043 5440 
z
" transform="scale(0.015625)"/>
      <path id="NotoSansCJKjp-Bold-53e0" d="M 2323 4864 
L 3955 4864 
C 3770 4781 3558 4710 3334 4653 
C 3002 4730 2662 4800 2323 4864 
z
M 448 2464 
L 448 1517 
L 1146 1517 
L 1146 1997 
L 5229 1997 
L 5229 1517 
L 5958 1517 
L 5958 2464 
L 5536 2464 
L 5958 2778 
C 5760 2874 5517 2976 5242 3072 
C 5517 3245 5754 3462 5914 3731 
L 5530 3923 
L 5421 3898 
L 4749 3898 
L 5037 4160 
C 4787 4256 4480 4352 4134 4448 
C 4531 4608 4870 4813 5120 5075 
L 4749 5318 
L 4640 5293 
L 1280 5293 
L 1280 4864 
L 1856 4864 
L 1606 4602 
C 1856 4557 2099 4512 2342 4461 
C 1920 4403 1478 4371 1043 4352 
C 1133 4237 1242 4038 1286 3904 
C 2016 3955 2752 4045 3405 4211 
C 3776 4109 4115 4000 4397 3898 
L 3283 3898 
L 3283 3475 
L 3680 3475 
L 3379 3200 
L 3981 3034 
C 3776 2976 3558 2931 3347 2899 
L 3392 2854 
L 2867 2854 
L 2867 2842 
C 2739 2912 2579 2982 2406 3053 
C 2714 3232 2976 3456 3162 3725 
L 2790 3923 
L 2688 3898 
L 550 3898 
L 550 3475 
L 1069 3475 
L 736 3162 
L 1158 3034 
C 883 2957 589 2906 301 2867 
C 397 2765 531 2586 595 2464 
L 448 2464 
z
M 1158 3475 
L 2208 3475 
C 2093 3398 1965 3328 1830 3270 
C 1606 3341 1382 3411 1158 3475 
z
M 1837 2778 
C 2080 2682 2291 2579 2451 2483 
L 2867 2778 
L 2867 2464 
L 672 2464 
C 1075 2534 1472 2637 1837 2778 
z
M 3878 3475 
L 4960 3475 
C 4858 3405 4742 3334 4621 3277 
C 4378 3347 4128 3418 3878 3475 
z
M 4698 2797 
C 5005 2688 5267 2573 5472 2464 
L 3501 2464 
L 3501 2726 
C 3565 2650 3629 2566 3667 2502 
C 4026 2573 4378 2669 4698 2797 
z
M 2125 774 
L 4205 774 
L 4205 589 
L 2125 589 
L 2125 774 
z
M 2125 1158 
L 2125 1344 
L 4205 1344 
L 4205 1158 
L 2125 1158 
z
M 2125 205 
L 4205 205 
L 4205 19 
L 2125 19 
L 2125 205 
z
M 1389 1818 
L 1389 19 
L 346 19 
L 346 -454 
L 6061 -454 
L 6061 19 
L 4979 19 
L 4979 1818 
L 1389 1818 
z
" transform="scale(0.015625)"/>
     </defs>
     <use xlink:href="#NotoSansCJKjp-Bold-5faa"/>
     <use xlink:href="#NotoSansCJKjp-Bold-73af" transform="translate(99.999985 0)"/>
     <use xlink:href="#NotoSansCJKjp-Bold-5c55" transform="translate(199.999969 0)"/>
     <use xlink:href="#NotoSansCJKjp-Bold-5f00" transform="translate(299.999954 0)"/>
     <use xlink:href="#NotoSansCJKjp-Bold-2f" transform="translate(399.999939 0)"/>
     <use xlink:href="#NotoSansCJKjp-Bold-5e38" transform="translate(438.699936 0)"/>
     <use xlink:href="#NotoSansCJKjp-Bold-91cf" transform="translate(538.699921 0)"/>
     <use xlink:href="#NotoSansCJKjp-Bold-6298" transform="translate(638.699905 0)"/>
     <use xlink:href="#NotoSansCJKjp-Bold-53e0" transform="translate(738.69989 0)"/>
    </g>
    <!-- 内存合并分析 -->
    <g style="fill: #ffa94d" transform="translate(369.825 107.336597) scale(0.07 -0.07)">
     <defs>
      <path id="NotoSansCJKjp-Bold-5185" d="M 570 4371 
L 570 -589 
L 1338 -589 
L 1338 1229 
C 1523 1082 1766 813 1875 659 
C 2573 1075 3002 1594 3251 2144 
C 3718 1670 4205 1152 4461 794 
L 5094 1293 
C 4749 1741 4051 2400 3507 2893 
C 3558 3142 3584 3386 3597 3622 
L 5094 3622 
L 5094 314 
C 5094 205 5050 173 4934 166 
C 4806 166 4378 160 4000 179 
C 4109 -19 4224 -365 4256 -582 
C 4826 -582 5229 -570 5498 -448 
C 5766 -326 5856 -109 5856 301 
L 5856 4371 
L 3603 4371 
L 3603 5440 
L 2810 5440 
L 2810 4371 
L 570 4371 
z
M 1338 1254 
L 1338 3622 
L 2803 3622 
C 2771 2835 2554 1882 1338 1254 
z
" transform="scale(0.015625)"/>
      <path id="NotoSansCJKjp-Bold-5b58" d="M 3866 2291 
L 3866 1760 
L 2234 1760 
L 2234 1043 
L 3866 1043 
L 3866 262 
C 3866 179 3834 160 3725 154 
C 3622 147 3245 147 2925 166 
C 3014 -45 3110 -352 3136 -576 
C 3654 -576 4032 -570 4301 -454 
C 4576 -346 4640 -141 4640 243 
L 4640 1043 
L 6157 1043 
L 6157 1760 
L 4640 1760 
L 4640 1926 
C 5056 2240 5491 2662 5811 3034 
L 5331 3411 
L 5171 3373 
L 2726 3373 
L 2726 2682 
L 4538 2682 
C 4403 2541 4256 2406 4109 2291 
L 3866 2291 
z
M 2355 5440 
C 2285 5165 2195 4883 2086 4602 
L 352 4602 
L 352 3866 
L 1760 3866 
C 1370 3098 826 2394 128 1939 
C 256 1747 435 1402 512 1184 
C 717 1318 902 1472 1082 1632 
L 1082 -563 
L 1856 -563 
L 1856 2502 
C 2170 2925 2432 3386 2650 3866 
L 6061 3866 
L 6061 4602 
L 2957 4602 
C 3034 4819 3110 5030 3174 5248 
L 2355 5440 
z
" transform="scale(0.015625)"/>
      <path id="NotoSansCJKjp-Bold-5408" d="M 1606 3142 
L 1606 2694 
L 4813 2694 
L 4813 3142 
C 5133 2906 5472 2701 5798 2528 
C 5933 2765 6112 3021 6298 3219 
C 5274 3629 4237 4448 3546 5427 
L 2746 5427 
C 2272 4640 1235 3674 128 3136 
C 294 2976 512 2694 614 2515 
C 954 2701 1293 2912 1606 3142 
z
M 3181 4678 
C 3494 4250 3968 3789 4499 3373 
L 1907 3373 
C 2432 3789 2880 4250 3181 4678 
z
M 1184 2054 
L 1184 -582 
L 1939 -582 
L 1939 -346 
L 4474 -346 
L 4474 -582 
L 5267 -582 
L 5267 2054 
L 1184 2054 
z
M 1939 333 
L 1939 1382 
L 4474 1382 
L 4474 333 
L 1939 333 
z
" transform="scale(0.015625)"/>
      <path id="NotoSansCJKjp-Bold-5e76" d="M 3910 3430 
L 3910 2298 
L 2464 2298 
L 2464 2349 
L 2464 3430 
L 3910 3430 
z
M 4390 5478 
C 4256 5126 4006 4653 3795 4346 
L 4339 4154 
L 2106 4154 
L 2624 4371 
C 2515 4672 2240 5126 1990 5459 
L 1306 5190 
C 1523 4870 1754 4454 1862 4154 
L 506 4154 
L 506 3430 
L 1696 3430 
L 1696 2362 
L 1696 2298 
L 294 2298 
L 294 1568 
L 1626 1568 
C 1498 973 1165 384 294 -38 
C 467 -173 717 -461 826 -640 
C 1926 -77 2304 742 2419 1568 
L 3910 1568 
L 3910 -576 
L 4704 -576 
L 4704 1568 
L 6125 1568 
L 6125 2298 
L 4704 2298 
L 4704 3430 
L 5939 3430 
L 5939 4154 
L 4506 4154 
C 4730 4429 5005 4832 5267 5222 
L 4390 5478 
z
" transform="scale(0.015625)"/>
      <path id="NotoSansCJKjp-Bold-5206" d="M 4403 5370 
L 3648 5069 
C 4006 4384 4493 3674 4998 3085 
L 1517 3085 
C 2022 3661 2477 4371 2797 5114 
L 1965 5357 
C 1581 4378 870 3482 70 2950 
C 256 2810 589 2502 730 2330 
C 902 2464 1082 2624 1248 2790 
L 1248 2342 
L 2330 2342 
C 2202 1408 1869 563 416 90 
C 602 -83 826 -403 915 -614 
C 2592 6 3014 1107 3168 2342 
L 4435 2342 
C 4378 1005 4307 429 4179 288 
C 4109 211 4032 198 3917 198 
C 3763 198 3424 205 3072 230 
C 3206 13 3309 -314 3322 -544 
C 3699 -557 4077 -557 4294 -525 
C 4544 -493 4717 -429 4883 -218 
C 5101 51 5184 813 5248 2752 
L 5254 2797 
C 5389 2650 5530 2509 5664 2387 
C 5811 2605 6112 2918 6317 3078 
C 5613 3622 4813 4550 4403 5370 
z
" transform="scale(0.015625)"/>
      <path id="NotoSansCJKjp-Bold-6790" d="M 5376 5370 
C 4954 5165 4307 4966 3661 4826 
L 3053 4992 
L 3053 3123 
C 3053 2170 2982 877 2259 -64 
C 2445 -147 2746 -403 2848 -563 
C 3546 320 3744 1568 3789 2554 
L 4634 2554 
L 4634 -570 
L 5389 -570 
L 5389 2554 
L 6221 2554 
L 6221 3277 
L 3802 3277 
L 3802 4160 
C 4563 4301 5376 4499 6022 4768 
L 5376 5370 
z
M 1165 5440 
L 1165 4115 
L 288 4115 
L 288 3392 
L 1082 3392 
C 890 2624 525 1760 115 1248 
C 237 1056 410 749 480 531 
C 736 877 973 1382 1165 1926 
L 1165 -570 
L 1901 -570 
L 1901 2074 
C 2067 1798 2227 1504 2317 1306 
L 2752 1907 
C 2637 2074 2112 2746 1901 2995 
L 1901 3392 
L 2675 3392 
L 2675 4115 
L 1901 4115 
L 1901 5440 
L 1165 5440 
z
" transform="scale(0.015625)"/>
     </defs>
     <use xlink:href="#NotoSansCJKjp-Bold-5185"/>
     <use xlink:href="#NotoSansCJKjp-Bold-5b58" transform="translate(99.999985 0)"/>
     <use xlink:href="#NotoSansCJKjp-Bold-5408" transform="translate(199.999969 0)"/>
     <use xlink:href="#NotoSansCJKjp-Bold-5e76" transform="translate(299.999954 0)"/>
     <use xlink:href="#NotoSansCJKjp-Bold-5206" transform="translate(399.999939 0)"/>
     <use xlink:href="#NotoSansCJKjp-Bold-6790" transform="translate(499.999924 0)"/>
    </g>
   </g>
   <g id="text_5">
    <!-- PTX 生成 -->
    <g style="fill: #d94f8a" transform="translate(483.728672 94.949222) scale(0.07 -0.07)">
     <defs>
      <path id="NotoSansCJKjp-Bold-58" d="M 96 0 
L 1094 0 
L 1600 1050 
C 1715 1293 1824 1542 1946 1830 
L 1971 1830 
C 2106 1542 2227 1293 2342 1050 
L 2874 0 
L 3923 0 
L 2592 2400 
L 3840 4742 
L 2842 4742 
L 2394 3757 
C 2291 3539 2189 3309 2074 3014 
L 2048 3014 
C 1907 3309 1811 3539 1696 3757 
L 1222 4742 
L 166 4742 
L 1421 2438 
L 96 0 
z
" transform="scale(0.015625)"/>
     </defs>
     <use xlink:href="#NotoSansCJKjp-Bold-50"/>
     <use xlink:href="#NotoSansCJKjp-Bold-54" transform="translate(66.699997 0)"/>
     <use xlink:href="#NotoSansCJKjp-Bold-58" transform="translate(129.199982 0)"/>
     <use xlink:href="#NotoSansCJKjp-Bold-20" transform="translate(191.899979 0)"/>
     <use xlink:href="#NotoSansCJKjp-Bold-751f" transform="translate(214.599976 0)"/>
     <use xlink:href="#NotoSansCJKjp-Bold-6210" transform="translate(314.59996 0)"/>
    </g>
    <!-- TensorCore 指令 -->
    <g style="fill: #d94f8a" transform="translate(470.486641 103.157159) scale(0.07 -0.07)">
     <defs>
      <path id="NotoSansCJKjp-Bold-73" d="M 1530 -90 
C 2458 -90 2957 410 2957 1043 
C 2957 1702 2432 1946 1958 2125 
C 1574 2266 1248 2362 1248 2624 
C 1248 2829 1402 2970 1728 2970 
C 1990 2970 2240 2842 2496 2662 
L 2918 3232 
C 2624 3462 2221 3674 1702 3674 
C 883 3674 365 3219 365 2579 
C 365 1978 870 1702 1325 1530 
C 1702 1382 2074 1261 2074 992 
C 2074 768 1914 614 1555 614 
C 1216 614 915 762 595 1005 
L 166 410 
C 525 115 1050 -90 1530 -90 
z
" transform="scale(0.015625)"/>
      <path id="NotoSansCJKjp-Bold-43" d="M 2509 -90 
C 3130 -90 3635 154 4026 608 
L 3520 1197 
C 3270 922 2957 730 2547 730 
C 1798 730 1318 1350 1318 2381 
C 1318 3398 1850 4013 2566 4013 
C 2925 4013 3200 3846 3443 3616 
L 3936 4218 
C 3629 4538 3155 4826 2547 4826 
C 1350 4826 346 3910 346 2349 
C 346 768 1318 -90 2509 -90 
z
" transform="scale(0.015625)"/>
      <path id="NotoSansCJKjp-Bold-6307" d="M 5248 5158 
C 4826 4960 4179 4755 3539 4595 
L 3539 5434 
L 2771 5434 
L 2771 3686 
C 2771 2950 3008 2733 3904 2733 
C 4083 2733 4954 2733 5146 2733 
C 5882 2733 6106 2976 6202 3885 
C 5990 3923 5670 4045 5504 4160 
C 5459 3526 5408 3424 5094 3424 
C 4877 3424 4147 3424 3974 3424 
C 3603 3424 3539 3456 3539 3693 
L 3539 3968 
C 4307 4122 5165 4339 5818 4602 
L 5248 5158 
z
M 3488 742 
L 5126 742 
L 5126 320 
L 3488 320 
L 3488 742 
z
M 3488 1338 
L 3488 1734 
L 5126 1734 
L 5126 1338 
L 3488 1338 
z
M 2758 2362 
L 2758 -570 
L 3488 -570 
L 3488 -294 
L 5126 -294 
L 5126 -538 
L 5888 -538 
L 5888 2362 
L 2758 2362 
z
M 1037 5440 
L 1037 4230 
L 237 4230 
L 237 3520 
L 1037 3520 
L 1037 2374 
L 141 2170 
L 320 1434 
L 1037 1619 
L 1037 250 
C 1037 160 998 134 915 128 
C 832 128 570 128 320 141 
C 410 -58 506 -371 531 -563 
C 986 -563 1286 -544 1504 -429 
C 1722 -307 1786 -122 1786 256 
L 1786 1824 
L 2547 2029 
L 2451 2733 
L 1786 2560 
L 1786 3520 
L 2445 3520 
L 2445 4230 
L 1786 4230 
L 1786 5440 
L 1037 5440 
z
" transform="scale(0.015625)"/>
      <path id="NotoSansCJKjp-Bold-4ee4" d="M 4538 3322 
C 4934 3008 5357 2714 5766 2483 
C 5914 2714 6093 2970 6285 3168 
C 5274 3616 4224 4474 3533 5440 
L 2746 5440 
C 2266 4653 1222 3661 134 3091 
C 314 2931 531 2650 634 2477 
C 1062 2726 1485 3014 1862 3328 
L 1862 2854 
L 4538 2854 
L 4538 3322 
z
M 3174 4678 
C 3443 4320 3827 3930 4262 3552 
L 2125 3552 
C 2547 3923 2912 4314 3174 4678 
z
M 800 2298 
L 800 1606 
L 2317 1606 
L 2317 -576 
L 3123 -576 
L 3123 1606 
L 4666 1606 
L 4666 672 
C 4666 595 4627 576 4518 576 
C 4429 570 4032 563 3718 582 
C 3827 378 3942 64 3981 -160 
C 4467 -160 4832 -154 5101 -38 
C 5376 83 5453 294 5453 653 
L 5453 2298 
L 800 2298 
z
" transform="scale(0.015625)"/>
     </defs>
     <use xlink:href="#NotoSansCJKjp-Bold-54"/>
     <use xlink:href="#NotoSansCJKjp-Bold-65" transform="translate(62.499985 0)"/>
     <use xlink:href="#NotoSansCJKjp-Bold-6e" transform="translate(120.599976 0)"/>
     <use xlink:href="#NotoSansCJKjp-Bold-73" transform="translate(184.699966 0)"/>
     <use xlink:href="#NotoSansCJKjp-Bold-6f" transform="translate(234.199951 0)"/>
     <use xlink:href="#NotoSansCJKjp-Bold-72" transform="translate(296.799942 0)"/>
     <use xlink:href="#NotoSansCJKjp-Bold-43" transform="translate(340.399933 0)"/>
     <use xlink:href="#NotoSansCJKjp-Bold-6f" transform="translate(405.999924 0)"/>
     <use xlink:href="#NotoSansCJKjp-Bold-72" transform="translate(468.599915 0)"/>
     <use xlink:href="#NotoSansCJKjp-Bold-65" transform="translate(512.199905 0)"/>
     <use xlink:href="#NotoSansCJKjp-Bold-20" transform="translate(570.299896 0)"/>
     <use xlink:href="#NotoSansCJKjp-Bold-6307" transform="translate(592.999893 0)"/>
     <use xlink:href="#NotoSansCJKjp-Bold-4ee4" transform="translate(692.999878 0)"/>
    </g>
   </g>
   <g id="text_6">
    <!-- ptxas -->
    <g style="fill: #d94f8a" transform="translate(117.907109 199.730822) scale(0.07 -0.07)">
     <defs>
      <path id="NotoSansCJKjp-Bold-78" d="M 102 0 
L 1082 0 
L 1408 659 
C 1510 870 1606 1082 1709 1280 
L 1741 1280 
C 1856 1082 1978 870 2086 659 
L 2483 0 
L 3494 0 
L 2374 1760 
L 3424 3584 
L 2451 3584 
L 2150 2950 
C 2067 2746 1971 2541 1888 2342 
L 1862 2342 
C 1754 2541 1645 2746 1542 2950 
L 1184 3584 
L 173 3584 
L 1222 1862 
L 102 0 
z
" transform="scale(0.015625)"/>
      <path id="NotoSansCJKjp-Bold-61" d="M 1382 -90 
C 1798 -90 2157 109 2464 384 
L 2496 384 
L 2560 0 
L 3328 0 
L 3328 2093 
C 3328 3130 2861 3674 1952 3674 
C 1389 3674 877 3456 461 3200 
L 794 2573 
C 1126 2771 1446 2918 1779 2918 
C 2221 2918 2374 2650 2387 2298 
C 947 2144 326 1741 326 979 
C 326 365 742 -90 1382 -90 
z
M 1696 646 
C 1421 646 1222 768 1222 1050 
C 1222 1376 1510 1613 2387 1715 
L 2387 998 
C 2163 774 1965 646 1696 646 
z
" transform="scale(0.015625)"/>
     </defs>
     <use xlink:href="#NotoSansCJKjp-Bold-70"/>
     <use xlink:href="#NotoSansCJKjp-Bold-74" transform="translate(64.399994 0)"/>
     <use xlink:href="#NotoSansCJKjp-Bold-78" transform="translate(106.499985 0)"/>
     <use xlink:href="#NotoSansCJKjp-Bold-61" transform="translate(162.699982 0)"/>
     <use xlink:href="#NotoSansCJKjp-Bold-73" transform="translate(221.799973 0)"/>
    </g>
    <!-- NVIDIA 汇编器 -->
    <g style="fill: #d94f8a" transform="translate(104.266953 207.938759) scale(0.07 -0.07)">
     <defs>
      <path id="NotoSansCJKjp-Bold-4e" d="M 582 0 
L 1485 0 
L 1485 1901 
C 1485 2445 1402 3040 1363 3552 
L 1395 3552 
L 1875 2534 
L 3238 0 
L 4205 0 
L 4205 4742 
L 3309 4742 
L 3309 2848 
C 3309 2310 3386 1683 3437 1190 
L 3405 1190 
L 2925 2214 
L 1549 4742 
L 582 4742 
L 582 0 
z
" transform="scale(0.015625)"/>
      <path id="NotoSansCJKjp-Bold-56" d="M 1414 0 
L 2547 0 
L 3994 4742 
L 3034 4742 
L 2419 2432 
C 2272 1907 2170 1434 2016 902 
L 1984 902 
C 1837 1434 1734 1907 1587 2432 
L 966 4742 
L -32 4742 
L 1414 0 
z
" transform="scale(0.015625)"/>
      <path id="NotoSansCJKjp-Bold-44" d="M 582 0 
L 1933 0 
C 3334 0 4224 794 4224 2394 
C 4224 3987 3334 4742 1882 4742 
L 582 4742 
L 582 0 
z
M 1530 768 
L 1530 3981 
L 1818 3981 
C 2707 3981 3258 3546 3258 2394 
C 3258 1242 2707 768 1818 768 
L 1530 768 
z
" transform="scale(0.015625)"/>
      <path id="NotoSansCJKjp-Bold-6c47" d="M 493 4781 
C 870 4544 1357 4179 1581 3936 
L 2086 4499 
C 1843 4742 1344 5075 973 5286 
L 493 4781 
z
M 173 3034 
C 550 2810 1056 2464 1286 2234 
L 1773 2822 
C 1517 3053 998 3366 627 3565 
L 173 3034 
z
M 307 45 
L 966 -467 
C 1338 154 1722 864 2042 1530 
L 1466 2029 
C 1101 1299 634 518 307 45 
z
M 6054 5075 
L 2170 5075 
L 2170 -288 
L 6176 -288 
L 6176 467 
L 2970 467 
L 2970 4320 
L 6054 4320 
L 6054 5075 
z
" transform="scale(0.015625)"/>
      <path id="NotoSansCJKjp-Bold-7f16" d="M 378 2643 
C 474 2694 621 2733 1114 2797 
C 928 2483 762 2246 678 2138 
C 493 1901 358 1747 205 1715 
C 282 1536 397 1216 429 1082 
C 570 1178 813 1261 2182 1594 
C 2157 1741 2138 2016 2144 2208 
L 1350 2042 
C 1741 2579 2112 3200 2406 3802 
L 1818 4154 
C 1722 3917 1606 3680 1485 3450 
L 1030 3418 
C 1363 3949 1683 4595 1907 5216 
L 1190 5466 
C 1005 4710 621 3898 499 3693 
C 371 3482 275 3341 147 3309 
C 230 3123 339 2784 378 2643 
z
M 3776 5280 
C 3840 5133 3917 4954 3974 4787 
L 2579 4787 
L 2579 3392 
C 2579 2611 2541 1530 2214 614 
L 2074 1197 
C 1376 909 653 614 173 448 
L 352 -250 
L 2208 589 
C 2125 358 2022 141 1901 -58 
C 2054 -128 2362 -358 2477 -486 
C 2816 58 3014 762 3130 1466 
L 3130 -512 
L 3712 -512 
L 3712 832 
L 4006 832 
L 4006 -384 
L 4474 -384 
L 4474 832 
L 4736 832 
L 4736 -371 
L 5197 -371 
L 5197 832 
L 5466 832 
L 5466 90 
C 5466 38 5453 26 5414 26 
C 5382 26 5299 26 5203 26 
C 5274 -115 5344 -352 5357 -518 
C 5574 -518 5734 -506 5875 -410 
C 6016 -314 6042 -160 6042 77 
L 6042 2714 
L 3258 2714 
L 3270 3091 
L 5939 3091 
L 5939 4787 
L 4819 4787 
C 4749 4998 4627 5280 4518 5491 
L 3776 5280 
z
M 4006 2099 
L 4006 1414 
L 3712 1414 
L 3712 2099 
L 4006 2099 
z
M 4474 2099 
L 4736 2099 
L 4736 1414 
L 4474 1414 
L 4474 2099 
z
M 5197 2099 
L 5466 2099 
L 5466 1414 
L 5197 1414 
L 5197 2099 
z
M 3270 4166 
L 5229 4166 
L 5229 3706 
L 3270 3706 
L 3270 4166 
z
" transform="scale(0.015625)"/>
      <path id="NotoSansCJKjp-Bold-5668" d="M 1389 4589 
L 2163 4589 
L 2163 3923 
L 1389 3923 
L 1389 4589 
z
M 4192 4589 
L 4973 4589 
L 4973 3923 
L 4192 3923 
L 4192 4589 
z
M 3430 1581 
L 3430 -589 
L 4102 -589 
L 4102 -378 
L 4870 -378 
L 4870 -576 
L 5581 -576 
L 5581 973 
L 5856 883 
C 5965 1069 6176 1350 6342 1498 
C 5690 1651 5082 1939 4634 2298 
L 6125 2298 
L 6125 2970 
L 3302 2970 
C 3373 3085 3437 3200 3494 3322 
L 5702 3322 
L 5702 5190 
L 3494 5190 
L 3494 3354 
L 2899 3552 
L 2899 5190 
L 698 5190 
L 698 3322 
L 2618 3322 
C 2547 3200 2464 3085 2374 2970 
L 294 2970 
L 294 2298 
L 1677 2298 
C 1229 1958 678 1690 77 1491 
C 224 1363 442 1069 531 896 
L 806 998 
L 806 -589 
L 1472 -589 
L 1472 -378 
L 2234 -378 
L 2234 -576 
L 2931 -576 
L 2931 1581 
L 1933 1581 
C 2253 1792 2541 2029 2790 2298 
L 3622 2298 
C 3846 2029 4109 1792 4403 1581 
L 3430 1581 
z
M 1472 250 
L 1472 954 
L 2234 954 
L 2234 250 
L 1472 250 
z
M 4102 250 
L 4102 954 
L 4870 954 
L 4870 250 
L 4102 250 
z
" transform="scale(0.015625)"/>
     </defs>
     <use xlink:href="#NotoSansCJKjp-Bold-4e"/>
     <use xlink:href="#NotoSansCJKjp-Bold-56" transform="translate(74.899994 0)"/>
     <use xlink:href="#NotoSansCJKjp-Bold-49" transform="translate(136.799988 0)"/>
     <use xlink:href="#NotoSansCJKjp-Bold-44" transform="translate(169.799973 0)"/>
     <use xlink:href="#NotoSansCJKjp-Bold-49" transform="translate(241.199966 0)"/>
     <use xlink:href="#NotoSansCJKjp-Bold-41" transform="translate(274.199951 0)"/>
     <use xlink:href="#NotoSansCJKjp-Bold-20" transform="translate(338.299942 0)"/>
     <use xlink:href="#NotoSansCJKjp-Bold-6c47" transform="translate(360.999939 0)"/>
     <use xlink:href="#NotoSansCJKjp-Bold-7f16" transform="translate(460.999924 0)"/>
     <use xlink:href="#NotoSansCJKjp-Bold-5668" transform="translate(560.999908 0)"/>
    </g>
   </g>
   <g id="text_7">
    <!-- SASS -->
    <g style="fill: #b07cd8" transform="translate(243.924063 199.730822) scale(0.07 -0.07)">
     <use xlink:href="#NotoSansCJKjp-Bold-53"/>
     <use xlink:href="#NotoSansCJKjp-Bold-41" transform="translate(62.399994 0)"/>
     <use xlink:href="#NotoSansCJKjp-Bold-53" transform="translate(126.499985 0)"/>
     <use xlink:href="#NotoSansCJKjp-Bold-53" transform="translate(188.899979 0)"/>
    </g>
    <!-- GPU 机器码 -->
    <g style="fill: #b07cd8" transform="translate(233.963281 207.938759) scale(0.07 -0.07)">
     <defs>
      <path id="NotoSansCJKjp-Bold-47" d="M 2618 -90 
C 3270 -90 3834 160 4160 480 
L 4160 2618 
L 2470 2618 
L 2470 1843 
L 3309 1843 
L 3309 909 
C 3181 794 2944 730 2720 730 
C 1786 730 1318 1350 1318 2381 
C 1318 3398 1856 4013 2650 4013 
C 3072 4013 3341 3840 3578 3616 
L 4083 4218 
C 3776 4531 3302 4826 2618 4826 
C 1357 4826 346 3910 346 2349 
C 346 768 1331 -90 2618 -90 
z
" transform="scale(0.015625)"/>
      <path id="NotoSansCJKjp-Bold-55" d="M 2406 -90 
C 3558 -90 4230 563 4230 2131 
L 4230 4742 
L 3322 4742 
L 3322 2048 
C 3322 1062 2957 730 2406 730 
C 1850 730 1504 1062 1504 2048 
L 1504 4742 
L 563 4742 
L 563 2131 
C 563 563 1242 -90 2406 -90 
z
" transform="scale(0.015625)"/>
      <path id="NotoSansCJKjp-Bold-673a" d="M 3123 5069 
L 3123 2995 
C 3123 2029 3046 774 2195 -70 
C 2368 -166 2669 -422 2790 -563 
C 3718 365 3866 1907 3866 2995 
L 3866 4346 
L 4666 4346 
L 4666 499 
C 4666 -51 4717 -205 4838 -333 
C 4947 -448 5133 -506 5286 -506 
C 5389 -506 5536 -506 5645 -506 
C 5792 -506 5939 -474 6042 -390 
C 6150 -307 6214 -186 6253 6 
C 6291 192 6317 646 6323 992 
C 6138 1056 5920 1178 5773 1299 
C 5773 915 5760 608 5754 467 
C 5741 326 5734 269 5709 237 
C 5690 211 5658 198 5626 198 
C 5594 198 5549 198 5517 198 
C 5491 198 5466 211 5446 237 
C 5427 262 5427 352 5427 525 
L 5427 5069 
L 3123 5069 
z
M 1235 5440 
L 1235 4115 
L 288 4115 
L 288 3392 
L 1139 3392 
C 934 2618 550 1760 128 1248 
C 250 1056 422 742 493 531 
C 774 890 1030 1414 1235 1990 
L 1235 -570 
L 1971 -570 
L 1971 2112 
C 2157 1824 2342 1517 2445 1312 
L 2880 1933 
C 2752 2099 2189 2778 1971 3008 
L 1971 3392 
L 2803 3392 
L 2803 4115 
L 1971 4115 
L 1971 5440 
L 1235 5440 
z
" transform="scale(0.015625)"/>
      <path id="NotoSansCJKjp-Bold-7801" d="M 2682 1395 
L 2682 717 
L 4966 717 
L 4966 1395 
L 2682 1395 
z
M 3117 4173 
C 3072 3475 2976 2573 2886 2016 
L 3091 2016 
L 5299 2010 
C 5203 838 5082 333 4941 198 
C 4877 128 4813 115 4710 115 
C 4589 115 4339 115 4077 141 
C 4186 -45 4269 -339 4282 -544 
C 4589 -557 4870 -550 5050 -531 
C 5261 -506 5408 -442 5562 -269 
C 5786 -26 5926 666 6054 2362 
C 6067 2451 6080 2662 6080 2662 
L 5370 2662 
C 5466 3462 5562 4371 5606 5088 
L 5069 5139 
L 4947 5107 
L 2810 5107 
L 2810 4416 
L 4819 4416 
C 4774 3891 4710 3245 4640 2662 
L 3686 2662 
C 3744 3130 3795 3667 3834 4128 
L 3117 4173 
z
M 275 5152 
L 275 4461 
L 960 4461 
C 800 3610 538 2822 134 2291 
C 237 2067 378 1581 403 1382 
C 493 1491 582 1613 666 1741 
L 666 -269 
L 1312 -269 
L 1312 211 
L 2445 211 
L 2445 3162 
L 1331 3162 
C 1472 3578 1587 4019 1677 4461 
L 2586 4461 
L 2586 5152 
L 275 5152 
z
M 1312 2490 
L 1786 2490 
L 1786 877 
L 1312 877 
L 1312 2490 
z
" transform="scale(0.015625)"/>
     </defs>
     <use xlink:href="#NotoSansCJKjp-Bold-47"/>
     <use xlink:href="#NotoSansCJKjp-Bold-50" transform="translate(71.699982 0)"/>
     <use xlink:href="#NotoSansCJKjp-Bold-55" transform="translate(138.399979 0)"/>
     <use xlink:href="#NotoSansCJKjp-Bold-20" transform="translate(213.199966 0)"/>
     <use xlink:href="#NotoSansCJKjp-Bold-673a" transform="translate(235.899963 0)"/>
     <use xlink:href="#NotoSansCJKjp-Bold-5668" transform="translate(335.899948 0)"/>
     <use xlink:href="#NotoSansCJKjp-Bold-7801" transform="translate(435.899933 0)"/>
    </g>
   </g>
   <g id="text_8">
    <!-- cubin -->
    <g style="fill: #b07cd8" transform="translate(365.844063 199.730822) scale(0.07 -0.07)">
     <defs>
      <path id="NotoSansCJKjp-Bold-75" d="M 1574 -90 
C 2067 -90 2406 154 2714 518 
L 2739 518 
L 2810 0 
L 3578 0 
L 3578 3584 
L 2637 3584 
L 2637 1165 
C 2394 845 2202 717 1914 717 
C 1562 717 1402 909 1402 1466 
L 1402 3584 
L 467 3584 
L 467 1350 
C 467 448 800 -90 1574 -90 
z
" transform="scale(0.015625)"/>
      <path id="NotoSansCJKjp-Bold-62" d="M 2304 -90 
C 3091 -90 3827 621 3827 1856 
C 3827 2950 3296 3674 2413 3674 
C 2061 3674 1702 3501 1414 3245 
L 1446 3821 
L 1446 5107 
L 506 5107 
L 506 0 
L 1242 0 
L 1318 378 
L 1350 378 
C 1638 77 1984 -90 2304 -90 
z
M 2099 685 
C 1901 685 1664 755 1446 954 
L 1446 2534 
C 1690 2778 1907 2899 2150 2899 
C 2643 2899 2861 2522 2861 1837 
C 2861 1056 2522 685 2099 685 
z
" transform="scale(0.015625)"/>
     </defs>
     <use xlink:href="#NotoSansCJKjp-Bold-63"/>
     <use xlink:href="#NotoSansCJKjp-Bold-75" transform="translate(52.699997 0)"/>
     <use xlink:href="#NotoSansCJKjp-Bold-62" transform="translate(116.399994 0)"/>
     <use xlink:href="#NotoSansCJKjp-Bold-69" transform="translate(180.799988 0)"/>
     <use xlink:href="#NotoSansCJKjp-Bold-6e" transform="translate(211.199982 0)"/>
    </g>
    <!-- 可执行 kernel -->
    <g style="fill: #b07cd8" transform="translate(353.133047 207.938759) scale(0.07 -0.07)">
     <defs>
      <path id="NotoSansCJKjp-Bold-53ef" d="M 307 5011 
L 307 4230 
L 4557 4230 
L 4557 410 
C 4557 275 4506 230 4358 230 
C 4205 230 3642 224 3181 250 
C 3302 38 3462 -339 3507 -563 
C 4166 -563 4634 -550 4947 -422 
C 5254 -294 5363 -64 5363 397 
L 5363 4230 
L 6106 4230 
L 6106 5011 
L 307 5011 
z
M 1645 2784 
L 2874 2784 
L 2874 1754 
L 1645 1754 
L 1645 2784 
z
M 902 3514 
L 902 538 
L 1645 538 
L 1645 1024 
L 3629 1024 
L 3629 3514 
L 902 3514 
z
" transform="scale(0.015625)"/>
      <path id="NotoSansCJKjp-Bold-6267" d="M 3206 5440 
C 3219 4992 3226 4570 3219 4166 
L 2381 4166 
L 2381 3475 
L 3200 3475 
C 3187 3181 3168 2899 3130 2630 
L 2682 2880 
L 2304 2413 
L 2240 2771 
L 1690 2598 
L 1690 3494 
L 2259 3494 
L 2259 4205 
L 1690 4205 
L 1690 5440 
L 954 5440 
L 954 4205 
L 269 4205 
L 269 3494 
L 954 3494 
L 954 2374 
C 659 2291 390 2214 173 2163 
L 346 1427 
L 954 1626 
L 954 288 
C 954 198 928 173 851 173 
C 774 173 544 173 320 186 
C 410 -32 499 -352 525 -557 
C 941 -557 1222 -525 1421 -403 
C 1626 -282 1690 -77 1690 288 
L 1690 1862 
L 2362 2086 
L 2323 2310 
L 2995 1901 
C 2797 1088 2426 461 1766 13 
C 1939 -134 2227 -467 2310 -614 
C 3002 -77 3405 614 3648 1478 
C 3885 1318 4096 1165 4250 1037 
L 4576 1472 
C 4608 179 4787 -582 5453 -582 
C 5965 -582 6182 -326 6259 608 
C 6080 666 5792 819 5645 960 
C 5626 384 5574 141 5491 141 
C 5235 141 5267 1696 5376 4166 
L 3955 4166 
C 3962 4570 3962 4998 3955 5446 
L 3206 5440 
z
M 4595 3475 
C 4582 2835 4570 2259 4570 1754 
C 4365 1901 4096 2074 3808 2240 
C 3866 2624 3904 3034 3930 3475 
L 4595 3475 
z
" transform="scale(0.015625)"/>
      <path id="NotoSansCJKjp-Bold-884c" d="M 2861 5075 
L 2861 4339 
L 5984 4339 
L 5984 5075 
L 2861 5075 
z
M 1626 5440 
C 1318 4992 698 4410 166 4070 
C 301 3917 499 3610 595 3437 
C 1210 3866 1901 4525 2368 5133 
L 1626 5440 
z
M 2586 3296 
L 2586 2566 
L 4480 2566 
L 4480 333 
C 4480 237 4442 211 4326 211 
C 4211 205 3782 205 3418 224 
C 3520 0 3622 -333 3654 -557 
C 4224 -557 4634 -544 4909 -429 
C 5190 -314 5267 -96 5267 314 
L 5267 2566 
L 6150 2566 
L 6150 3296 
L 2586 3296 
z
M 1869 4045 
C 1453 3315 749 2573 96 2118 
C 250 1958 512 1613 621 1453 
C 794 1594 966 1754 1146 1926 
L 1146 -582 
L 1914 -582 
L 1914 2784 
C 2170 3104 2406 3437 2598 3763 
L 1869 4045 
z
" transform="scale(0.015625)"/>
      <path id="NotoSansCJKjp-Bold-6b" d="M 506 0 
L 1434 0 
L 1434 909 
L 1933 1491 
L 2803 0 
L 3827 0 
L 2483 2106 
L 3712 3584 
L 2682 3584 
L 1459 2048 
L 1434 2048 
L 1434 5107 
L 506 5107 
L 506 0 
z
" transform="scale(0.015625)"/>
      <path id="NotoSansCJKjp-Bold-6c" d="M 1395 -90 
C 1613 -90 1766 -51 1875 -6 
L 1760 691 
C 1696 678 1670 678 1632 678 
C 1542 678 1446 749 1446 966 
L 1446 5107 
L 506 5107 
L 506 1005 
C 506 339 736 -90 1395 -90 
z
" transform="scale(0.015625)"/>
     </defs>
     <use xlink:href="#NotoSansCJKjp-Bold-53ef"/>
     <use xlink:href="#NotoSansCJKjp-Bold-6267" transform="translate(99.999985 0)"/>
     <use xlink:href="#NotoSansCJKjp-Bold-884c" transform="translate(199.999969 0)"/>
     <use xlink:href="#NotoSansCJKjp-Bold-20" transform="translate(299.999954 0)"/>
     <use xlink:href="#NotoSansCJKjp-Bold-6b" transform="translate(322.699951 0)"/>
     <use xlink:href="#NotoSansCJKjp-Bold-65" transform="translate(383.099945 0)"/>
     <use xlink:href="#NotoSansCJKjp-Bold-72" transform="translate(441.199936 0)"/>
     <use xlink:href="#NotoSansCJKjp-Bold-6e" transform="translate(484.799927 0)"/>
     <use xlink:href="#NotoSansCJKjp-Bold-65" transform="translate(548.899918 0)"/>
     <use xlink:href="#NotoSansCJKjp-Bold-6c" transform="translate(606.999908 0)"/>
    </g>
   </g>
   <g id="patch_10">
    <path d="M 116.611798 97.0128 
Q 122.287065 97.0128 126.285281 97.0128 
" style="fill: none; stroke: #616161; stroke-width: 1.5; stroke-linecap: round"/>
    <path d="M 121.885281 94.8128 
L 126.285281 97.0128 
L 121.885281 99.2128 
" style="fill: none; stroke: #616161; stroke-width: 1.5; stroke-linecap: round"/>
   </g>
   <g id="patch_11">
    <path d="M 224.026798 97.0128 
Q 229.702065 97.0128 233.700281 97.0128 
" style="fill: none; stroke: #616161; stroke-width: 1.5; stroke-linecap: round"/>
    <path d="M 229.300281 94.8128 
L 233.700281 97.0128 
L 229.300281 99.2128 
" style="fill: none; stroke: #616161; stroke-width: 1.5; stroke-linecap: round"/>
   </g>
   <g id="patch_12">
    <path d="M 331.441798 97.0128 
Q 337.117065 97.0128 341.115281 97.0128 
" style="fill: none; stroke: #616161; stroke-width: 1.5; stroke-linecap: round"/>
    <path d="M 336.715281 94.8128 
L 341.115281 97.0128 
L 336.715281 99.2128 
" style="fill: none; stroke: #616161; stroke-width: 1.5; stroke-linecap: round"/>
   </g>
   <g id="patch_13">
    <path d="M 438.856798 97.0128 
Q 444.532065 97.0128 448.530281 97.0128 
" style="fill: none; stroke: #616161; stroke-width: 1.5; stroke-linecap: round"/>
    <path d="M 444.130281 94.8128 
L 448.530281 97.0128 
L 444.130281 99.2128 
" style="fill: none; stroke: #616161; stroke-width: 1.5; stroke-linecap: round"/>
   </g>
   <g id="patch_14">
    <path d="M 127.4025 133.942662 
Q 127.4025 151.897728 127.4025 168.175742 
" style="fill: none; stroke: #616161; stroke-width: 1.5; stroke-linecap: round"/>
    <path d="M 129.6025 163.775742 
L 127.4025 168.175742 
L 125.2025 163.775742 
" style="fill: none; stroke: #616161; stroke-width: 1.5; stroke-linecap: round"/>
   </g>
   <g id="patch_15">
    <path d="M 252.72 133.942662 
Q 252.72 151.897728 252.72 168.175742 
" style="fill: none; stroke: #616161; stroke-width: 1.5; stroke-linecap: round"/>
    <path d="M 254.92 163.775742 
L 252.72 168.175742 
L 250.52 163.775742 
" style="fill: none; stroke: #616161; stroke-width: 1.5; stroke-linecap: round"/>
   </g>
   <g id="patch_16">
    <path d="M 180.550235 201.7944 
Q 190.060703 201.7944 197.894121 201.7944 
" style="fill: none; stroke: #616161; stroke-width: 1.5; stroke-linecap: round"/>
    <path d="M 193.494121 199.5944 
L 197.894121 201.7944 
L 193.494121 203.9944 
" style="fill: none; stroke: #616161; stroke-width: 1.5; stroke-linecap: round"/>
   </g>
   <g id="patch_17">
    <path d="M 305.873042 201.7944 
Q 314.103421 201.7944 320.65675 201.7944 
" style="fill: none; stroke: #616161; stroke-width: 1.5; stroke-linecap: round"/>
    <path d="M 316.25675 199.5944 
L 320.65675 201.7944 
L 316.25675 203.9944 
" style="fill: none; stroke: #616161; stroke-width: 1.5; stroke-linecap: round"/>
   </g>
   <g id="text_9">
    <!-- Triton 编译器前端 -->
    <g style="fill: #4a9eff" transform="translate(9.885625 44.459075) scale(0.08 -0.08)">
     <defs>
      <path id="NotoSansCJKjp-Bold-8bd1" d="M 480 4973 
C 742 4608 1062 4102 1190 3782 
L 1818 4211 
C 1677 4518 1344 4998 1069 5350 
L 480 4973 
z
M 3718 2662 
L 3718 2157 
L 2573 2157 
L 2573 1491 
L 3718 1491 
L 3718 1011 
L 2240 1011 
C 2182 1133 2131 1267 2093 1376 
L 1722 1069 
L 1722 3482 
L 250 3482 
L 250 2746 
L 979 2746 
L 979 774 
C 979 429 787 186 653 64 
C 768 -51 973 -326 1043 -480 
C 1139 -333 1318 -160 2214 589 
L 2214 333 
L 3718 333 
L 3718 -576 
L 4474 -576 
L 4474 333 
L 6125 333 
L 6125 1011 
L 4474 1011 
L 4474 1491 
L 5696 1491 
L 5696 2157 
L 4474 2157 
L 4474 2662 
L 3718 2662 
z
M 4813 4518 
C 4627 4301 4403 4096 4147 3910 
C 3891 4090 3667 4294 3482 4518 
L 4813 4518 
z
M 2234 5178 
L 2234 4518 
L 2714 4518 
C 2944 4154 3219 3821 3546 3539 
C 3034 3264 2458 3059 1875 2925 
C 2022 2771 2195 2464 2278 2272 
C 2944 2458 3590 2726 4160 3078 
C 4646 2778 5197 2547 5811 2400 
C 5914 2592 6125 2893 6285 3046 
C 5741 3149 5235 3315 4794 3526 
C 5267 3923 5658 4390 5926 4941 
L 5434 5210 
L 5306 5178 
L 2234 5178 
z
" transform="scale(0.015625)"/>
      <path id="NotoSansCJKjp-Bold-524d" d="M 3731 3283 
L 3731 659 
L 4435 659 
L 4435 3283 
L 3731 3283 
z
M 5011 3462 
L 5011 275 
C 5011 192 4979 166 4877 166 
C 4774 160 4435 160 4109 173 
C 4224 -26 4346 -346 4384 -550 
C 4851 -557 5197 -538 5446 -422 
C 5696 -301 5766 -109 5766 269 
L 5766 3462 
L 5011 3462 
z
M 4461 5459 
C 4333 5158 4128 4781 3936 4486 
L 2150 4486 
L 2502 4608 
C 2394 4851 2131 5197 1901 5446 
L 1171 5190 
C 1350 4979 1542 4704 1658 4486 
L 288 4486 
L 288 3789 
L 6112 3789 
L 6112 4486 
L 4813 4486 
C 4966 4710 5139 4960 5293 5210 
L 4461 5459 
z
M 2445 1741 
L 2445 1325 
L 1363 1325 
L 1363 1741 
L 2445 1741 
z
M 2445 2310 
L 1363 2310 
L 1363 2707 
L 2445 2707 
L 2445 2310 
z
M 640 3354 
L 640 -538 
L 1363 -538 
L 1363 762 
L 2445 762 
L 2445 192 
C 2445 115 2419 90 2336 90 
C 2253 83 1990 83 1760 96 
C 1856 -77 1965 -365 2003 -557 
C 2400 -557 2688 -544 2906 -435 
C 3117 -326 3181 -141 3181 179 
L 3181 3354 
L 640 3354 
z
" transform="scale(0.015625)"/>
      <path id="NotoSansCJKjp-Bold-7aef" d="M 358 3251 
C 474 2650 550 1862 544 1344 
L 1152 1453 
C 1146 1971 1056 2752 922 3360 
L 358 3251 
z
M 2528 2042 
L 2528 -557 
L 3213 -557 
L 3213 1395 
L 3546 1395 
L 3546 -499 
L 4122 -499 
L 4122 1395 
L 4467 1395 
L 4467 -499 
L 5050 -499 
L 5050 -26 
C 5120 -192 5184 -416 5210 -576 
C 5491 -576 5696 -576 5869 -467 
C 6042 -365 6080 -192 6080 90 
L 6080 2042 
L 4493 2042 
L 4666 2470 
L 6189 2470 
L 6189 3142 
L 2394 3142 
L 2394 2470 
L 3802 2470 
L 3718 2042 
L 2528 2042 
z
M 5050 1395 
L 5395 1395 
L 5395 96 
C 5395 45 5382 26 5331 26 
L 5050 32 
L 5050 1395 
z
M 2618 5126 
L 2618 3482 
L 5990 3482 
L 5990 5126 
L 5254 5126 
L 5254 4141 
L 4640 4141 
L 4640 5414 
L 3904 5414 
L 3904 4141 
L 3322 4141 
L 3322 5126 
L 2618 5126 
z
M 986 5344 
L 986 4224 
L 282 4224 
L 282 3533 
L 2323 3533 
L 2323 4224 
L 1670 4224 
L 1670 5344 
L 986 5344 
z
M 1587 3405 
C 1536 2733 1408 1798 1280 1222 
L 1504 1165 
C 992 1056 512 954 147 890 
L 314 141 
C 941 294 1741 486 2496 685 
L 2413 1363 
L 1875 1248 
C 2016 1805 2170 2598 2291 3264 
L 1587 3405 
z
" transform="scale(0.015625)"/>
     </defs>
     <use xlink:href="#NotoSansCJKjp-Bold-54"/>
     <use xlink:href="#NotoSansCJKjp-Bold-72" transform="translate(62.499985 0)"/>
     <use xlink:href="#NotoSansCJKjp-Bold-69" transform="translate(106.099976 0)"/>
     <use xlink:href="#NotoSansCJKjp-Bold-74" transform="translate(136.499969 0)"/>
     <use xlink:href="#NotoSansCJKjp-Bold-6f" transform="translate(178.59996 0)"/>
     <use xlink:href="#NotoSansCJKjp-Bold-6e" transform="translate(241.199951 0)"/>
     <use xlink:href="#NotoSansCJKjp-Bold-20" transform="translate(305.299942 0)"/>
     <use xlink:href="#NotoSansCJKjp-Bold-7f16" transform="translate(327.999939 0)"/>
     <use xlink:href="#NotoSansCJKjp-Bold-8bd1" transform="translate(427.999924 0)"/>
     <use xlink:href="#NotoSansCJKjp-Bold-5668" transform="translate(527.999908 0)"/>
     <use xlink:href="#NotoSansCJKjp-Bold-524d" transform="translate(627.999893 0)"/>
     <use xlink:href="#NotoSansCJKjp-Bold-7aef" transform="translate(727.999878 0)"/>
    </g>
   </g>
   <g id="text_10">
    <!-- 设备相关优化 -->
    <g style="fill: #ffa94d" transform="translate(279.87 44.459075) scale(0.08 -0.08)">
     <defs>
      <path id="NotoSansCJKjp-Bold-8bbe" d="M 640 4890 
C 992 4582 1440 4141 1645 3853 
L 2170 4384 
C 1952 4659 1478 5075 1133 5357 
L 640 4890 
z
M 224 3462 
L 224 2726 
L 992 2726 
L 992 794 
C 992 493 813 269 672 166 
C 800 19 992 -301 1056 -486 
C 1165 -333 1382 -147 2566 858 
C 2477 998 2342 1293 2278 1498 
L 1728 1030 
L 1728 3462 
L 224 3462 
z
M 3002 5229 
L 3002 4538 
C 3002 4096 2906 3629 2093 3290 
C 2240 3181 2509 2880 2598 2726 
C 3520 3149 3718 3872 3718 4518 
L 4576 4518 
L 4576 3840 
C 4576 3200 4704 2925 5338 2925 
C 5434 2925 5651 2925 5754 2925 
C 5894 2925 6048 2931 6150 2976 
C 6118 3149 6106 3424 6086 3610 
C 6003 3584 5843 3571 5741 3571 
C 5664 3571 5478 3571 5414 3571 
C 5318 3571 5299 3642 5299 3827 
L 5299 5229 
L 3002 5229 
z
M 4883 1946 
C 4698 1581 4442 1274 4128 1018 
C 3802 1280 3539 1594 3341 1946 
L 4883 1946 
z
M 2438 2656 
L 2438 1946 
L 2918 1946 
L 2637 1850 
C 2874 1376 3168 960 3520 608 
C 3072 371 2560 205 1997 102 
C 2131 -58 2285 -365 2349 -563 
C 3002 -410 3597 -192 4109 128 
C 4582 -192 5133 -429 5773 -582 
C 5869 -371 6074 -64 6240 102 
C 5677 205 5178 378 4742 608 
C 5242 1075 5626 1690 5862 2490 
L 5389 2688 
L 5261 2656 
L 2438 2656 
z
" transform="scale(0.015625)"/>
      <path id="NotoSansCJKjp-Bold-5907" d="M 4096 4262 
C 3834 4032 3520 3834 3162 3654 
C 2771 3827 2438 4019 2182 4237 
L 2214 4262 
L 4096 4262 
z
M 2304 5466 
C 1958 4928 1325 4352 378 3955 
C 544 3827 781 3558 890 3379 
C 1152 3514 1395 3654 1619 3808 
C 1830 3629 2061 3469 2304 3322 
C 1632 3104 877 2957 109 2874 
C 237 2701 384 2368 442 2163 
L 947 2240 
L 947 -576 
L 1747 -576 
L 1747 -390 
L 4538 -390 
L 4538 -570 
L 5376 -570 
L 5376 2272 
L 1114 2272 
C 1843 2413 2547 2611 3181 2886 
C 3974 2566 4890 2349 5843 2240 
C 5939 2445 6150 2778 6310 2950 
C 5510 3021 4730 3149 4045 3347 
C 4582 3699 5037 4128 5350 4659 
L 4845 4960 
L 4717 4922 
L 2842 4922 
C 2944 5043 3034 5171 3123 5299 
L 2304 5466 
z
M 1747 672 
L 2778 672 
L 2778 262 
L 1747 262 
L 1747 672 
z
M 1747 1267 
L 1747 1613 
L 2778 1613 
L 2778 1267 
L 1747 1267 
z
M 4538 672 
L 4538 262 
L 3571 262 
L 3571 672 
L 4538 672 
z
M 4538 1267 
L 3571 1267 
L 3571 1613 
L 4538 1613 
L 4538 1267 
z
" transform="scale(0.015625)"/>
      <path id="NotoSansCJKjp-Bold-76f8" d="M 3712 2880 
L 5222 2880 
L 5222 2061 
L 3712 2061 
L 3712 2880 
z
M 3712 3578 
L 3712 4365 
L 5222 4365 
L 5222 3578 
L 3712 3578 
z
M 3712 1370 
L 5222 1370 
L 5222 550 
L 3712 550 
L 3712 1370 
z
M 2976 5094 
L 2976 -518 
L 3712 -518 
L 3712 -147 
L 5222 -147 
L 5222 -480 
L 5990 -480 
L 5990 5094 
L 2976 5094 
z
M 1210 5440 
L 1210 4115 
L 288 4115 
L 288 3392 
L 1114 3392 
C 915 2624 538 1760 122 1248 
C 243 1056 416 742 486 531 
C 762 883 1005 1395 1210 1958 
L 1210 -570 
L 1946 -570 
L 1946 2106 
C 2125 1818 2304 1517 2406 1312 
L 2848 1933 
C 2720 2099 2163 2778 1946 3008 
L 1946 3392 
L 2746 3392 
L 2746 4115 
L 1946 4115 
L 1946 5440 
L 1210 5440 
z
" transform="scale(0.015625)"/>
      <path id="NotoSansCJKjp-Bold-5173" d="M 4224 5440 
C 4090 5069 3834 4576 3622 4256 
L 4262 4006 
C 4486 4294 4774 4742 5030 5165 
L 4224 5440 
z
M 1459 5056 
C 1696 4742 1946 4314 2067 4006 
L 1267 4006 
L 1267 3283 
L 2765 3283 
L 2765 2470 
L 1075 2470 
L 1075 1741 
L 2694 1741 
C 2541 1114 2093 467 806 0 
C 992 -147 1242 -429 1344 -595 
C 2406 -147 2976 442 3270 1056 
C 3661 301 4211 -256 5030 -576 
C 5146 -365 5376 -51 5549 109 
C 4666 384 4070 973 3725 1741 
L 5344 1741 
L 5344 2470 
L 3558 2470 
L 3558 3283 
L 5146 3283 
L 5146 4006 
L 2240 4006 
L 2765 4294 
C 2643 4602 2368 5050 2086 5376 
L 1459 5056 
z
" transform="scale(0.015625)"/>
     </defs>
     <use xlink:href="#NotoSansCJKjp-Bold-8bbe"/>
     <use xlink:href="#NotoSansCJKjp-Bold-5907" transform="translate(99.999985 0)"/>
     <use xlink:href="#NotoSansCJKjp-Bold-76f8" transform="translate(199.999969 0)"/>
     <use xlink:href="#NotoSansCJKjp-Bold-5173" transform="translate(299.999954 0)"/>
     <use xlink:href="#NotoSansCJKjp-Bold-4f18" transform="translate(399.999939 0)"/>
     <use xlink:href="#NotoSansCJKjp-Bold-5316" transform="translate(499.999924 0)"/>
    </g>
   </g>
   <g id="text_11">
    <!-- NVIDIA 后端 -->
    <g style="fill: #d94f8a" transform="translate(491.144375 44.459075) scale(0.08 -0.08)">
     <defs>
      <path id="NotoSansCJKjp-Bold-540e" d="M 5094 5421 
C 4237 5178 2867 4998 1555 4890 
L 870 4992 
L 870 3072 
C 870 2118 813 838 128 -64 
C 320 -147 621 -416 736 -582 
C 1517 403 1638 1920 1645 2944 
L 6214 2944 
L 6214 3674 
L 1645 3674 
L 1645 4218 
C 3040 4314 4570 4499 5722 4806 
L 5094 5421 
z
M 2022 2234 
L 2022 -570 
L 2765 -570 
L 2765 -282 
L 4915 -282 
L 4915 -550 
L 5690 -550 
L 5690 2234 
L 2022 2234 
z
M 2765 429 
L 2765 1523 
L 4915 1523 
L 4915 429 
L 2765 429 
z
" transform="scale(0.015625)"/>
     </defs>
     <use xlink:href="#NotoSansCJKjp-Bold-4e"/>
     <use xlink:href="#NotoSansCJKjp-Bold-56" transform="translate(74.899994 0)"/>
     <use xlink:href="#NotoSansCJKjp-Bold-49" transform="translate(136.799988 0)"/>
     <use xlink:href="#NotoSansCJKjp-Bold-44" transform="translate(169.799973 0)"/>
     <use xlink:href="#NotoSansCJKjp-Bold-49" transform="translate(241.199966 0)"/>
     <use xlink:href="#NotoSansCJKjp-Bold-41" transform="translate(274.199951 0)"/>
     <use xlink:href="#NotoSansCJKjp-Bold-20" transform="translate(338.299942 0)"/>
     <use xlink:href="#NotoSansCJKjp-Bold-540e" transform="translate(360.999939 0)"/>
     <use xlink:href="#NotoSansCJKjp-Bold-7aef" transform="translate(460.999924 0)"/>
    </g>
   </g>
  </g>
 </g>
 <defs>
  <clipPath id="pe142d86ce7">
   <rect x="7.2" y="7.2" width="613.8" height="249.48"/>
  </clipPath>
 </defs>
</svg>
